<svg xmlns="http://www.w3.org/2000/svg" width="159" height="147" viewBox="0 0 159 147">
  <g id="Grupo_67711" data-name="Grupo 67711" transform="translate(-721 -6097)">
    <rect id="Rectángulo_7610" data-name="Rectángulo 7610" width="159" height="147" rx="14" transform="translate(721 6097)" fill="#fff"/>
    <g id="servicio-al-cliente" transform="translate(708.19 6107.826)">
      <path id="Trazado_125193" data-name="Trazado 125193" d="M272.386,261.412V271l-10.729,8.078L250.929,271v-9.584Z" transform="translate(-160.256 -197.497)" fill="#fed2a4"/>
      <path id="Trazado_125194" data-name="Trazado 125194" d="M255.818,271v-9.584h-4.89V271l10.729,8.078,2.445-1.841Z" transform="translate(-160.255 -197.497)" fill="#ffbd86"/>
      <path id="Trazado_125195" data-name="Trazado 125195" d="M65.427,161.594H49.978a3.668,3.668,0,0,1-3.667-3.667V134.709a3.668,3.668,0,0,1,3.667-3.667H65.427a3.668,3.668,0,0,1,3.668,3.667v11.609L76.689,154H69.094v3.927A3.667,3.667,0,0,1,65.427,161.594Z" transform="translate(-5.666 -99.002)" fill="#f3f095"/>
      <path id="Trazado_125196" data-name="Trazado 125196" d="M69.606,312.489H77.2v-8.079a3.8,3.8,0,0,0-7.595,0Z" transform="translate(-23.266 -227.112)" fill="#fed2a4"/>
      <path id="Trazado_125197" data-name="Trazado 125197" d="M75.24,301.085a3.8,3.8,0,0,0-5.634,3.325v8.079h3.667v-8.079A3.8,3.8,0,0,1,75.24,301.085Z" transform="translate(-23.266 -227.112)" fill="#ffbd86"/>
      <path id="Trazado_125198" data-name="Trazado 125198" d="M69.566,335.273a3.668,3.668,0,0,0,3.667-3.668v-3.927l13.91-18.057a7.334,7.334,0,0,1,3.242-2.394l17.694-6.614L118.8,308.69l10.721-8.078,23.966,7.55a10.264,10.264,0,0,1,7.083,9.76v32.531H88.423V331.475L75.411,347.2a7.335,7.335,0,0,1-6.1,3.266h-.132a7.335,7.335,0,0,1-7.335-7.335v-7.854Z" transform="translate(-17.4 -227.112)" fill="#529ad9"/>
      <g id="Grupo_67646" data-name="Grupo 67646" transform="translate(44.441 73.5)">
        <path id="Trazado_125199" data-name="Trazado 125199" d="M307.254,308.69l9.279-6.992-3.448-1.086-8.276,6.236Z" transform="translate(-245.404 -300.612)" fill="#0593fc"/>
        <path id="Trazado_125200" data-name="Trazado 125200" d="M170.559,411.017h4.89v22.847h-4.89Z" transform="translate(-143.978 -384.023)" fill="#0593fc"/>
        <path id="Trazado_125201" data-name="Trazado 125201" d="M66.732,343.127v-7.854h7.725a3.668,3.668,0,0,0,3.668-3.668v-3.927l13.91-18.057a7.336,7.336,0,0,1,3.242-2.394l14.426-5.393-1.622-1.222-17.694,6.614a7.334,7.334,0,0,0-3.242,2.394l-13.91,18.057v3.927a3.668,3.668,0,0,1-3.668,3.668H61.842v7.854a7.335,7.335,0,0,0,7.335,7.335h.132a7.341,7.341,0,0,0,2.378-.4A7.342,7.342,0,0,1,66.732,343.127Z" transform="translate(-61.842 -300.612)" fill="#0593fc"/>
      </g>
      <path id="Trazado_125202" data-name="Trazado 125202" d="M170.559,411.017h56.96v15.261h-56.96Z" transform="translate(-99.536 -310.523)" fill="#ffca28"/>
      <path id="Trazado_125203" data-name="Trazado 125203" d="M170.559,411.017h4.89v15.261h-4.89Z" transform="translate(-99.536 -310.523)" fill="#f9b916"/>
      <path id="Trazado_125204" data-name="Trazado 125204" d="M192.393,131.752H188.71a5.109,5.109,0,0,0-5.109,5.109v3.829a5.109,5.109,0,0,0,5.109,5.109h3.682Z" transform="translate(-109.39 -99.539)" fill="#fed2a4"/>
      <path id="Trazado_125205" data-name="Trazado 125205" d="M370.056,131.752h3.682a5.109,5.109,0,0,1,5.109,5.109v3.829a5.109,5.109,0,0,1-5.109,5.109h-3.682Z" transform="translate(-250.256 -99.539)" fill="#fed2a4"/>
      <path id="Trazado_125206" data-name="Trazado 125206" d="M219.559,107.648v17.668a17,17,0,0,0,17,17h2.807a17,17,0,0,0,17-17V107.822l-18.4-7.745Z" transform="translate(-136.556 -75.608)" fill="#fff3de"/>
      <path id="Trazado_125207" data-name="Trazado 125207" d="M224.449,125.316V107.648l15.926-6.553-2.417-1.018-18.4,7.571v17.668a17,17,0,0,0,17,17h2.807c.35,0,.7-.014,1.042-.035a16.994,16.994,0,0,1-15.954-16.96Z" transform="translate(-136.556 -75.608)" fill="#ffe5c2"/>
      <path id="Trazado_125208" data-name="Trazado 125208" d="M191.469,61.347h8.438a7.335,7.335,0,0,0,7.335-7.335V38.562h-4.77a11,11,0,0,0-11,11Z" transform="translate(-115.334 -29.134)" fill="#546e7a"/>
      <path id="Trazado_125209" data-name="Trazado 125209" d="M207.241,38.565v0h-4.77a11,11,0,0,0-11,11V61.347h4.89V49.564A11,11,0,0,1,207.241,38.565Z" transform="translate(-115.333 -29.134)" fill="#435860"/>
      <path id="Trazado_125210" data-name="Trazado 125210" d="M275.762,7.5a15.056,15.056,0,0,1,15.056,15.056V37.881h-27.5a7.335,7.335,0,0,1-7.335-7.335V14.837A7.335,7.335,0,0,1,263.314,7.5Z" transform="translate(-164.071 -5.668)" fill="#546e7a"/>
      <path id="Trazado_125211" data-name="Trazado 125211" d="M260.869,30.545V14.836A7.335,7.335,0,0,1,268.2,7.5h-4.89a7.335,7.335,0,0,0-7.335,7.335V30.545a7.335,7.335,0,0,0,7.335,7.335h4.89a7.335,7.335,0,0,1-7.335-7.335Z" transform="translate(-164.071 -5.667)" fill="#435860"/>
      <path id="Trazado_125212" data-name="Trazado 125212" d="M49.978,371.971h7.855A3.668,3.668,0,0,0,61.5,368.3V352.854a3.668,3.668,0,0,0-3.668-3.668H49.977a3.668,3.668,0,0,0-3.667,3.668V368.3a3.668,3.668,0,0,0,3.667,3.668Z" transform="translate(-5.666 -263.811)" fill="#fff3de"/>
      <path id="Trazado_125213" data-name="Trazado 125213" d="M51.2,368.3V352.854a3.668,3.668,0,0,1,3.667-3.668h-4.89a3.668,3.668,0,0,0-3.668,3.668V368.3a3.668,3.668,0,0,0,3.668,3.668h4.89A3.667,3.667,0,0,1,51.2,368.3Z" transform="translate(-5.667 -263.811)" fill="#ffe5c2"/>
      <g id="Grupo_67647" data-name="Grupo 67647" transform="translate(38.81 0)">
        <path id="Trazado_125214" data-name="Trazado 125214" d="M321.525,157.671a1.833,1.833,0,0,0,1.834-1.834v-2.407a1.834,1.834,0,1,0-3.667,0v2.407A1.834,1.834,0,0,0,321.525,157.671Z" transform="translate(-251.016 -114.532)"/>
        <path id="Trazado_125215" data-name="Trazado 125215" d="M256.907,157.671a1.834,1.834,0,0,0,1.834-1.834v-2.407a1.834,1.834,0,1,0-3.668,0v2.407A1.834,1.834,0,0,0,256.907,157.671Z" transform="translate(-202.197 -114.532)"/>
        <path id="Trazado_125216" data-name="Trazado 125216" d="M274.932,210.49a6.44,6.44,0,0,0,6.433-6.433,1.834,1.834,0,0,0-3.668,0,2.765,2.765,0,1,1-5.53,0,1.834,1.834,0,1,0-3.667,0A6.44,6.44,0,0,0,274.932,210.49Z" transform="translate(-212.341 -152.779)"/>
        <path id="Trazado_125217" data-name="Trazado 125217" d="M143.172,98.331a1.833,1.833,0,0,0,1.834-1.834V90.81A12.076,12.076,0,0,0,136.64,79.3l-22.676-7.144v-7.3a19.773,19.773,0,0,0,7.67-16.767c4.207.323,8.791-2.171,8.791-6.943V37.323a6.916,6.916,0,0,0-1.881-4.745c.024-.118.036-5.231.036-5.231a1.834,1.834,0,1,0-3.668,0v3.032H99.243a5.508,5.508,0,0,1-5.5-5.5V9.169a5.508,5.508,0,0,1,5.5-5.5H111.69A13.237,13.237,0,0,1,124.913,16.89v2.465a1.834,1.834,0,0,0,3.668,0V16.89A16.909,16.909,0,0,0,111.691,0H99.243a9.182,9.182,0,0,0-9.031,7.595H87.138A12.851,12.851,0,0,0,74.3,20.431s.01,11.98.025,12.076a6.918,6.918,0,0,0-1.949,4.816v3.828c0,4.7,4.563,7.3,8.792,6.943a19.5,19.5,0,0,0,7.67,16.767V72.23L72.342,78.4a9.176,9.176,0,0,0-4.051,2.994L57.667,95.181V89.043a5.488,5.488,0,0,0-1.9-4.152V77.3a5.631,5.631,0,1,0-11.262,0v6.246c-3.862,0-5.7,2.167-5.7,5.5v15.449a5.51,5.51,0,0,0,3.8,5.23v6.293c0,8.82,11.392,12.653,16.873,5.169l9.709-11.73V123.34a1.833,1.833,0,0,0,1.834,1.834h72.15a1.833,1.833,0,0,0,1.834-1.834V104.49a1.834,1.834,0,1,0-3.667,0v17.017H129.817V97.176a1.834,1.834,0,1,0-3.668,0V98.66H72.857V96.768a1.834,1.834,0,0,0-3.667,0V103.7L56.6,118.915c-3,3.623-10.324,3.733-10.324-2.9v-6.021H52.1v1.964a1.834,1.834,0,0,0,3.667,0v-3.312a5.49,5.49,0,0,0,1.9-4.154v-3.3L71.2,83.628a5.512,5.512,0,0,1,2.431-1.8l16.747-6.26,9.923,7.472a1.919,1.919,0,0,0,2.323-.088l9.856-7.421,23.043,7.259a8.412,8.412,0,0,1,5.818,8.017V96.5a1.834,1.834,0,0,0,1.834,1.834Zm-17.023,4v11.594H94.668a1.834,1.834,0,1,0,0,3.667H126.15v3.917H72.857V117.59H86.678a1.834,1.834,0,1,0,0-3.667H72.857V102.328ZM48.173,77.3a1.963,1.963,0,1,1,3.927,0v6.246H48.173Zm-5.7,11.747a1.836,1.836,0,0,1,1.834-1.834h7.854A1.836,1.836,0,0,1,54,89.044v2.094H48.239a1.834,1.834,0,1,0,0,3.668H54v3.927H48.239a1.834,1.834,0,1,0,0,3.668H54v2.094c0,1.223-.742,1.751-1.833,1.833H44.311a1.836,1.836,0,0,1-1.834-1.834Zm84.28-47.892a3.279,3.279,0,0,1-3.276,3.276h-1.848V34.047h1.848a3.279,3.279,0,0,1,3.276,3.276ZM77.969,20.431a9.179,9.179,0,0,1,9.169-9.169h2.937V24.878h0a5.508,5.508,0,0,1-5.5,5.5h-6.6Zm1.352,24a3.279,3.279,0,0,1-3.276-3.276V37.323a3.279,3.279,0,0,1,3.276-3.276h1.849v10.38H79.321Zm5.516,5.28V34.041a9.16,9.16,0,0,0,7.071-3.667,9.161,9.161,0,0,0,7.335,3.674h18.723V49.707c0,20.15-33.13,20.127-33.13,0Zm25.46,17.27v5.6l-8.894,6.7-8.9-6.7v-5.6c4.373,2.623,13.093,2.46,17.79,0Z" transform="translate(-38.81 0)"/>
        <path id="Trazado_125218" data-name="Trazado 125218" d="M66.442,181.214a1.834,1.834,0,0,0,2.593,0l7.595-7.595a1.834,1.834,0,0,0-2.593-2.593l-6.3,6.3-2.5-2.5a1.834,1.834,0,1,0-2.593,2.593Z" transform="translate(-56.411 -128.804)"/>
        <path id="Trazado_125219" data-name="Trazado 125219" d="M44.312,157.762H59.761a5.508,5.508,0,0,0,5.5-5.5v-2.094h5.761c1.936-.015,2.792-1.492,1.3-3.123L65.263,139.9V129.043a5.508,5.508,0,0,0-5.5-5.5H44.312a5.508,5.508,0,0,0-5.5,5.5V152.26a5.507,5.507,0,0,0,5.5,5.5Zm-1.834-28.718a1.836,1.836,0,0,1,1.834-1.834H59.761a1.836,1.836,0,0,1,1.834,1.834v11.609a1.833,1.833,0,0,0,.53,1.289l4.507,4.558h-3.2a1.833,1.833,0,0,0-1.834,1.834v3.927a1.836,1.836,0,0,1-1.834,1.834H44.312a1.836,1.836,0,0,1-1.834-1.834Z" transform="translate(-38.811 -93.336)"/>
      </g>
    </g>
  </g>
</svg>
