<svg xmlns="http://www.w3.org/2000/svg" width="78" height="93" viewBox="0 0 78 93">
  <g id="Grupo_67929" data-name="Grupo 67929" transform="translate(-180 -507)">
    <rect id="Rectángulo_7646" data-name="Rectángulo 7646" width="78" height="93" transform="translate(180 507)" fill="none"/>
    <g id="megafono" transform="translate(183.315 515.079)">
      <path id="Trazado_126769" data-name="Trazado 126769" d="M69.2,53.21A3.859,3.859,0,0,1,66.008,59a75.819,75.819,0,0,0-31.6,8.274l-3.369,1.944c0,.015-.046-.079,8.156,14.186a2.73,2.73,0,0,1-1,3.727l-2.658,1.534a2.727,2.727,0,0,1-3.725-1L23.635,73.491l-1.328.768a5.456,5.456,0,0,1-7.452-2L8.719,61.634a5.456,5.456,0,0,1,2-7.452l12.1-6.988A75.83,75.83,0,0,0,45.785,23.967a3.859,3.859,0,0,1,6.607.129l5.25,9.095a6.307,6.307,0,1,1,6.307,10.924Z" transform="translate(-6.778 -11.777)" fill="#e5dec1"/>
      <path id="Trazado_126770" data-name="Trazado 126770" d="M344.5,92.542a6.307,6.307,0,0,1-2.309,8.615l-6.307-10.924A6.308,6.308,0,0,1,344.5,92.542Z" transform="translate(-285.023 -68.818)" fill="#e2db44"/>
      <path id="Trazado_126771" data-name="Trazado 126771" d="M52.392,24.1a3.821,3.821,0,0,1-.124,4.022A88.849,88.849,0,0,1,26.529,53.53L12.348,61.717a6.365,6.365,0,0,0-2.284,2.244L8.719,61.634a5.456,5.456,0,0,1,2-7.452l12.1-6.988A75.83,75.83,0,0,0,45.785,23.968a3.859,3.859,0,0,1,6.607.129Z" transform="translate(-6.778 -11.777)" fill="#ccc39b"/>
      <path id="Trazado_126772" data-name="Trazado 126772" d="M22.82,187.442l11.59,20.077c-2.323,1.34-9.784,5.648-12.1,6.988a5.456,5.456,0,0,1-7.452-2L8.719,201.882a5.456,5.456,0,0,1,2-7.452Z" transform="translate(-6.778 -152.025)" fill="#e2db44"/>
      <path id="Trazado_126773" data-name="Trazado 126773" d="M26.49,193.8c-15.4,8.891-14.381,8.273-14.877,8.659a1.96,1.96,0,0,1-2.894-.577,5.456,5.456,0,0,1,2-7.452l12.1-6.988Z" transform="translate(-6.777 -152.024)" fill="#ccc39b"/>
      <path id="Trazado_126774" data-name="Trazado 126774" d="M120.929,336.708c-4.309,2.5-1.139.659-7.4,4.272l-2.214-3.833,7.406-4.275Z" transform="translate(-94.459 -275.432)" fill="#a0a603"/>
      <path id="Trazado_126775" data-name="Trazado 126775" d="M344.125,99.64a6.237,6.237,0,0,1-1.932,1.732l-6.307-10.924a6.256,6.256,0,0,1,2.467-.807Z" transform="translate(-285.023 -69.034)" fill="#42434d"/>
      <path id="Trazado_126776" data-name="Trazado 126776" d="M58.776,32.7a7.518,7.518,0,0,0-7.42-12.851l-4.694-8.13a5.071,5.071,0,0,0-8.682-.17A74.6,74.6,0,0,1,15.384,34.4a1.212,1.212,0,0,0-.405,1.6c.049.09,7.825,13.556,7.876,13.645a1.211,1.211,0,1,0,2.1-1.211L17.662,35.8A76.98,76.98,0,0,0,40.03,12.836a2.648,2.648,0,0,1,4.534.09L61.372,42.039a2.648,2.648,0,0,1-2.189,3.971,77.021,77.021,0,0,0-32.1,8.405c-.043.022-11.378,6.567-12.159,7.018a4.247,4.247,0,0,1-5.8-1.553L2.99,49.251a4.248,4.248,0,0,1,1.553-5.8l7.385-4.264a1.211,1.211,0,0,0-1.211-2.1L3.332,41.357a6.673,6.673,0,0,0-2.44,9.106L7.028,61.091a6.673,6.673,0,0,0,9.106,2.44l.279-.161,7.576,13.122a3.937,3.937,0,0,0,5.38,1.442L32.027,76.4a3.936,3.936,0,0,0,1.442-5.38l-5.369-9.3A1.211,1.211,0,1,0,26,62.931l5.369,9.3a1.515,1.515,0,0,1-.555,2.07l-2.657,1.534a1.515,1.515,0,0,1-2.07-.555L18.512,62.158l9.7-5.6a74.593,74.593,0,0,1,31.066-8.127,5.071,5.071,0,0,0,4.193-7.6Zm-.346-8.367a5.1,5.1,0,0,1-.889,6.228l-4.949-8.573A5.094,5.094,0,0,1,58.43,24.329Zm11.849-5.386-3.134,1.81a1.211,1.211,0,1,1-1.211-2.1l3.134-1.81a1.211,1.211,0,1,1,1.211,2.1Zm-13.48-6.9.764-2.852a1.211,1.211,0,1,1,2.34.627l-.764,2.852a1.211,1.211,0,1,1-2.34-.627Zm15.844,19.84a1.212,1.212,0,0,1-1.169.9,19.877,19.877,0,0,1-3.167-.806,1.211,1.211,0,1,1,.627-2.34l2.852.764a1.212,1.212,0,0,1,.857,1.484Z" transform="translate(0 0)"/>
    </g>
  </g>
</svg>
