<svg xmlns="http://www.w3.org/2000/svg" width="159" height="147" viewBox="0 0 159 147">
  <g id="Grupo_67712" data-name="Grupo 67712" transform="translate(-721 -6597)">
    <rect id="Rectángulo_7613" data-name="Rectángulo 7613" width="159" height="147" rx="14" transform="translate(721 6597)" fill="#fff"/>
    <g id="proveedor_1_" data-name="proveedor (1)" transform="translate(736 6606.854)">
      <g id="Grupo_67675" data-name="Grupo 67675" transform="translate(2.952 3.098)">
        <g id="Grupo_67651" data-name="Grupo 67651" transform="translate(47.131 38.681)">
          <path id="Trazado_125220" data-name="Trazado 125220" d="M80.5,26.075a3.915,3.915,0,0,1-3.9-3.9,3.915,3.915,0,0,1-3.9,3.9H60.986a3.915,3.915,0,0,1-3.9-3.9,3.915,3.915,0,0,1-3.9,3.9H41.47a3.915,3.915,0,0,1-3.9-3.9V21.82a5.41,5.41,0,0,1-1.952.351H33.664A11.713,11.713,0,0,1,26.15,33.1l1.659,6.635.039.02a41.977,41.977,0,0,1,4.9,1.815l8.724,5.972v52.694H90.26a1.957,1.957,0,0,0,1.952-1.952V26.075Z" transform="translate(-26.15 -21.82)" fill="#e6e9ed"/>
        </g>
        <g id="Grupo_67652" data-name="Grupo 67652" transform="translate(72.21 11.71)">
          <path id="Trazado_125221" data-name="Trazado 125221" d="M58.516,8l5.855,23.419H44.855L39,8Z" transform="translate(-39 -8)" fill="#ffeaa7"/>
        </g>
        <g id="Grupo_67653" data-name="Grupo 67653" transform="translate(91.726 11.71)">
          <path id="Trazado_125222" data-name="Trazado 125222" d="M67.462,10.674l6.909,20.746H54.855L49,8H63.754a3.921,3.921,0,0,1,3.708,2.674Z" transform="translate(-49 -8)" fill="#ff826e"/>
        </g>
        <g id="Grupo_67654" data-name="Grupo 67654" transform="translate(60.851 11.71)">
          <path id="Trazado_125223" data-name="Trazado 125223" d="M50.393,31.419H34.429a5.41,5.41,0,0,0,.351-1.952,5.87,5.87,0,0,0-1.6-4.02l.585-3.532A74.132,74.132,0,0,0,34.78,9.62a14.382,14.382,0,0,0-.1-1.6l.1-.02h9.758Z" transform="translate(-33.18 -8)" fill="#ff826e"/>
        </g>
        <g id="Grupo_67655" data-name="Grupo 67655" transform="translate(78.065 35.129)">
          <path id="Trazado_125224" data-name="Trazado 125224" d="M61.516,23.9a3.915,3.915,0,0,1-3.9,3.9H45.9A3.915,3.915,0,0,1,42,23.9V20H61.516Z" transform="translate(-42 -20)" fill="#fcd770"/>
        </g>
        <g id="Grupo_67656" data-name="Grupo 67656" transform="translate(97.581 35.129)">
          <path id="Trazado_125225" data-name="Trazado 125225" d="M71.516,20v3.9a3.915,3.915,0,0,1-3.9,3.9H55.9A3.915,3.915,0,0,1,52,23.9V20Z" transform="translate(-52 -20)" fill="#fc6e51"/>
        </g>
        <g id="Grupo_67657" data-name="Grupo 67657" transform="translate(58.548 35.129)">
          <path id="Trazado_125226" data-name="Trazado 125226" d="M51.516,20v3.9a3.915,3.915,0,0,1-3.9,3.9H35.9A3.915,3.915,0,0,1,32,23.9v-.351A5.732,5.732,0,0,0,35.552,20H51.516Z" transform="translate(-32 -20)" fill="#fc6e51"/>
        </g>
        <g id="Grupo_67658" data-name="Grupo 67658" transform="translate(15.613 0)">
          <path id="Trazado_125227" data-name="Trazado 125227" d="M55.824,27.625l-.585,3.532a5.833,5.833,0,0,0-4.255-1.835H49.032v-3.9a3.915,3.915,0,0,0-3.9-3.9H39.274a9.777,9.777,0,0,1-7.806-3.9H25.613a7.8,7.8,0,0,0-7.806,7.806v3.9H15.855A5.833,5.833,0,0,0,11.6,31.157L10.2,22.687a13.611,13.611,0,0,1-.2-2.361A14.426,14.426,0,0,1,24.422,5.9h3.9A23.308,23.308,0,0,0,41.226,2a10.581,10.581,0,0,1,5.289,6.089l.566,1.717,1.444-.722A17.282,17.282,0,0,0,52.935,5.9a13.333,13.333,0,0,1,3.806,7.826,14.382,14.382,0,0,1,.1,1.6A74.131,74.131,0,0,1,55.824,27.625Z" transform="translate(-10 -2)" fill="#656d78"/>
        </g>
        <g id="Grupo_67659" data-name="Grupo 67659" transform="translate(33.177 70.258)">
          <path id="Trazado_125228" data-name="Trazado 125228" d="M26.806,38l3.9,11.71H19L22.9,38Z" transform="translate(-19 -38)" fill="#ffeaa7"/>
        </g>
        <g id="Grupo_67660" data-name="Grupo 67660" transform="translate(34.153 60.5)">
          <path id="Trazado_125229" data-name="Trazado 125229" d="M29.258,36.9l-2.927,5.855h-3.9L19.5,36.9,24.379,33Z" transform="translate(-19.5 -33)" fill="#fcd770"/>
        </g>
        <g id="Grupo_67661" data-name="Grupo 67661" transform="translate(0 58.431)">
          <path id="Trazado_125230" data-name="Trazado 125230" d="M79.069,56.979l-.937-2.244a42.018,42.018,0,0,0-3.767-7.045A42.456,42.456,0,0,0,55.728,31.94L50.79,41.815l-4.879-3.9-2.927,5.855,3.9,11.71H35.177l3.9-11.71-2.927-5.855-4.879,3.9L26.337,31.94a42.814,42.814,0,0,0-22.4,22.795L3,56.979A13.021,13.021,0,0,0,15.017,74.993h2.6V90.605H64.452V74.993h2.6a13.161,13.161,0,0,0,5.211-1.073,13.04,13.04,0,0,0,6.811-16.94Z" transform="translate(-2 -31.94)" fill="#529ad9"/>
        </g>
        <g id="Grupo_67662" data-name="Grupo 67662" transform="translate(39.032 56.597)">
          <path id="Trazado_125231" data-name="Trazado 125231" d="M36.7,32.835,31.758,42.71l-4.879-3.9L22,34.9,31.758,31l.039.02A41.977,41.977,0,0,1,36.7,32.835Z" transform="translate(-22 -31)" fill="#3bafda"/>
        </g>
        <g id="Grupo_67663" data-name="Grupo 67663" transform="translate(24.337 56.597)">
          <path id="Trazado_125232" data-name="Trazado 125232" d="M29.166,34.9l-4.879,3.9-4.879,3.9L14.47,32.835a41.978,41.978,0,0,1,4.9-1.815l.039-.02Z" transform="translate(-14.47 -31)" fill="#3bafda"/>
        </g>
        <g id="Grupo_67664" data-name="Grupo 67664" transform="translate(27.323 81.968)">
          <path id="Trazado_125233" data-name="Trazado 125233" d="M39.419,63.516v5.855a1.957,1.957,0,0,1-1.952,1.952H17.952A1.957,1.957,0,0,1,16,69.371V63.516h1.952a5.855,5.855,0,0,0,0-11.71H16V45.952A1.957,1.957,0,0,1,17.952,44H37.468a1.957,1.957,0,0,1,1.952,1.952v5.855H37.468a5.855,5.855,0,0,0,0,11.71Z" transform="translate(-16 -44)" fill="#e6e9ed"/>
        </g>
        <g id="Grupo_67665" data-name="Grupo 67665" transform="translate(42.935 89.774)">
          <path id="Trazado_125234" data-name="Trazado 125234" d="M35.71,48V59.71H29.855a5.855,5.855,0,0,1,0-11.71H35.71Z" transform="translate(-24 -48)" fill="#f0d0b4"/>
        </g>
        <g id="Grupo_67666" data-name="Grupo 67666" transform="translate(23.419 89.774)">
          <path id="Trazado_125235" data-name="Trazado 125235" d="M17.9,48h1.952a5.855,5.855,0,0,1,0,11.71H14V48Z" transform="translate(-14 -48)" fill="#f0d0b4"/>
        </g>
        <g id="Grupo_67667" data-name="Grupo 67667" transform="translate(54.645 27.323)">
          <path id="Trazado_125236" data-name="Trazado 125236" d="M31.952,16a5.858,5.858,0,0,1,5.855,5.855,5.41,5.41,0,0,1-.351,1.952A5.732,5.732,0,0,1,33.9,27.358a5.41,5.41,0,0,1-1.952.351H30V16Z" transform="translate(-30 -16)" fill="#f0d0b4"/>
        </g>
        <g id="Grupo_67668" data-name="Grupo 67668" transform="translate(29.274 49.961)">
          <path id="Trazado_125237" data-name="Trazado 125237" d="M34.857,27.6l1.659,6.635-9.758,3.9L17,34.235,18.659,27.6a11.532,11.532,0,0,0,4.2.781h7.806A11.532,11.532,0,0,0,34.857,27.6Z" transform="translate(-17 -27.6)" fill="#f0d0b4"/>
        </g>
        <g id="Grupo_67669" data-name="Grupo 67669" transform="translate(23.419 15.613)">
          <path id="Trazado_125238" data-name="Trazado 125238" d="M45.226,21.71v11.71a11.713,11.713,0,0,1-7.514,10.929,11.532,11.532,0,0,1-4.2.781H25.71a11.532,11.532,0,0,1-4.2-.781A11.713,11.713,0,0,1,14,33.419V17.806A7.8,7.8,0,0,1,21.806,10h5.855a9.777,9.777,0,0,0,7.806,3.9h5.855a3.915,3.915,0,0,1,3.9,3.9Z" transform="translate(-14 -10)" fill="#f0d0b4"/>
        </g>
        <g id="Grupo_67670" data-name="Grupo 67670" transform="translate(15.613 27.323)">
          <path id="Trazado_125239" data-name="Trazado 125239" d="M17.806,16V27.71H15.855a5.855,5.855,0,0,1,0-11.71Z" transform="translate(-10 -16)" fill="#f0d0b4"/>
        </g>
        <g id="Grupo_67671" data-name="Grupo 67671" transform="translate(70.258 74.161)">
          <path id="Trazado_125240" data-name="Trazado 125240" d="M40.127,40l-.02.02a42.018,42.018,0,0,1,3.767,7.045l.937,2.244A13.04,13.04,0,0,1,38,66.249v6.928a1.957,1.957,0,0,0,1.952,1.952H71.177a1.957,1.957,0,0,0,1.952-1.952V40Z" transform="translate(-38 -40)" fill="#d3a06c"/>
        </g>
        <g id="Grupo_67672" data-name="Grupo 67672" transform="translate(81.968 50.742)">
          <path id="Trazado_125241" data-name="Trazado 125241" d="M65.468,28H45.952A1.957,1.957,0,0,0,44,29.952V51.419H67.419V29.952A1.957,1.957,0,0,0,65.468,28Z" transform="translate(-44 -28)" fill="#d3a06c"/>
        </g>
        <g id="Grupo_67673" data-name="Grupo 67673" transform="translate(81.968 74.161)">
          <path id="Trazado_125242" data-name="Trazado 125242" d="M44,40H55.71v7.806H44Z" transform="translate(-44 -40)" fill="#b27946"/>
        </g>
        <g id="Grupo_67674" data-name="Grupo 67674" transform="translate(89.774 50.742)">
          <path id="Trazado_125243" data-name="Trazado 125243" d="M48,28h7.806v7.806H48Z" transform="translate(-48 -28)" fill="#b27946"/>
        </g>
      </g>
      <g id="Grupo_67676" data-name="Grupo 67676" transform="translate(1 0.846)">
        <circle id="Elipse_4830" data-name="Elipse 4830" cx="1.952" cy="1.952" r="1.952" transform="translate(31.226 27.623)"/>
        <circle id="Elipse_4831" data-name="Elipse 4831" cx="1.952" cy="1.952" r="1.952" transform="translate(46.839 27.623)"/>
        <path id="Trazado_125244" data-name="Trazado 125244" d="M34.613,21h-3.9a3.907,3.907,0,0,1-3.9,3.9H19v3.9h7.806A7.814,7.814,0,0,0,34.613,21Z" transform="translate(16.129 18.333)"/>
        <path id="Trazado_125245" data-name="Trazado 125245" d="M114.982,16.859a5.845,5.845,0,0,0-5.552-4H66.908A15.369,15.369,0,0,0,62.88,5.622L61.5,4.242l-1.38,1.38a15.049,15.049,0,0,1-3.347,2.523,12.394,12.394,0,0,0-6.111-6.792L49.65.846l-.943.628A21.229,21.229,0,0,1,36.9,5.05H32.985A16.39,16.39,0,0,0,16.613,21.422a16.226,16.226,0,0,0,.222,2.691L18.1,31.724a7.736,7.736,0,0,0-1.491,4.551,7.814,7.814,0,0,0,7.806,7.806h.156A13.681,13.681,0,0,0,31.6,54.152l-1.007,4.024A44.707,44.707,0,0,0,3.088,83.567l-.937,2.248a14.962,14.962,0,0,0,13.812,20.718h.65v15.613h97.581a3.907,3.907,0,0,0,3.9-3.9V47.626a5.847,5.847,0,0,0,3.9-5.5V37.911Zm-3.7,1.235,6.06,18.181H102.055L97.175,16.759h12.252A1.952,1.952,0,0,1,111.282,18.094ZM59.548,32.372a3.9,3.9,0,1,1,0,7.806Zm7.8-15.613h6.29l4.879,19.516H67.355a7.756,7.756,0,0,0-1.491-4.553l.447-2.682A76.927,76.927,0,0,0,67.347,16.759ZM82.538,36.276,77.659,16.759H93.153l4.879,19.516Zm-16.269,3.9H79.065V42.13a1.952,1.952,0,0,1-1.952,1.952H65.4a1.951,1.951,0,0,1-1.786-1.175A7.837,7.837,0,0,0,66.27,40.179Zm16.7,0H98.581V42.13a1.952,1.952,0,0,1-1.952,1.952H84.919a1.952,1.952,0,0,1-1.952-1.952Zm-62.452-3.9a3.907,3.907,0,0,1,3.9-3.9v7.806A3.907,3.907,0,0,1,20.516,36.276Zm3.9-9.758v1.952a7.737,7.737,0,0,0-2.81.545l-.923-5.545a12.315,12.315,0,0,1-.17-2.047A12.483,12.483,0,0,1,32.985,8.953H36.9A25.1,25.1,0,0,0,49.839,5.376a8.533,8.533,0,0,1,3.384,4.432l1.282,3.849,3.449-1.721a19.066,19.066,0,0,0,3.359-2.149,11.487,11.487,0,0,1,2.139,6.637A73.158,73.158,0,0,1,62.46,28.4l-.1.615a7.719,7.719,0,0,0-2.808-.545V26.518a5.862,5.862,0,0,0-5.855-5.855H47.839a7.814,7.814,0,0,1-7.806-7.806h-3.9a11.654,11.654,0,0,0,.669,3.9H34.177A9.769,9.769,0,0,0,24.419,26.518Zm3.9,15.613V26.518a5.862,5.862,0,0,1,5.855-5.855h4.94a11.684,11.684,0,0,0,8.722,3.9h5.855a1.952,1.952,0,0,1,1.952,1.952V42.13a9.769,9.769,0,0,1-9.758,9.758H38.081A9.769,9.769,0,0,1,28.323,42.13ZM94.677,55.792h3.9v3.9h-3.9Zm7.806,7.806V55.792h3.9V75.308H86.871V55.792h3.9V63.6ZM94.677,79.211v3.9H86.871v-3.9Zm3.9,7.806V79.211h7.806v31.226H75.161v-5.73a14.954,14.954,0,0,0,6.655-18.89l-.937-2.248a45.209,45.209,0,0,0-2.1-4.356h4.188v7.806H98.581Zm-21.3-1.948.937,2.248A11.058,11.058,0,0,1,68,102.63H59.548V94.824H75.161v-3.9H67.355V83.114h-3.9v7.806H55.645v-3.9a3.907,3.907,0,0,0-3.9-3.9h-2.5l-3.2-9.608,1.487-2.972,4.879,3.9,5.182-10.361A40.8,40.8,0,0,1,77.277,85.07ZM32.226,94.824a3.9,3.9,0,1,1,0,7.806h-3.9V94.824Zm0,11.71a7.806,7.806,0,0,0,0-15.613v-3.9H51.742v3.9a7.806,7.806,0,1,0,0,15.613v3.9H32.226Zm5.923-42.368-5.258,4.206L29.97,62.529q1.08-.41,2.188-.759ZM41.984,66.1l2.428,1.942L42.729,71.4H41.238L39.556,68.04Zm-.546,9.21h1.091l2.6,7.806h-6.3ZM55.645,94.824v7.806h-3.9a3.9,3.9,0,1,1,0-7.806ZM54,62.531l-2.922,5.843-5.258-4.206,5.991-2.4Q52.92,62.12,54,62.531ZM38.081,55.792h7.806a13.59,13.59,0,0,0,2.795-.291l.753,3.013L41.984,61.5l-7.451-2.98.753-3.013a13.726,13.726,0,0,0,2.795.289ZM4.9,91.571a10.963,10.963,0,0,1,.851-4.253l.937-2.248A40.817,40.817,0,0,1,26.379,64.076L31.56,74.437l4.879-3.9,1.487,2.972-3.2,9.608h-2.5a3.907,3.907,0,0,0-3.9,3.9v3.9H20.516V83.114h-3.9v7.806H8.806v3.9H24.419v7.806H15.963A11.072,11.072,0,0,1,4.9,91.571Zm15.613,14.963h7.806v3.9a3.907,3.907,0,0,0,3.9,3.9H51.742a3.907,3.907,0,0,0,3.9-3.9v-3.9h7.806v11.71H20.516Zm46.839,11.71v-11.71H68a14.894,14.894,0,0,0,3.253-.367v4.27a3.907,3.907,0,0,0,3.9,3.9h31.226a3.907,3.907,0,0,0,3.9-3.9V55.792a3.907,3.907,0,0,0-3.9-3.9H86.871a3.907,3.907,0,0,0-3.9,3.9V75.308h-6.6a44.761,44.761,0,0,0-22.99-17.125l-1.009-4.03a13.69,13.69,0,0,0,7.026-10.07h.156c.119,0,.23-.029.349-.035A5.842,5.842,0,0,0,65.4,47.985h11.71a5.817,5.817,0,0,0,3.9-1.522,5.808,5.808,0,0,0,3.9,1.522h11.71a5.817,5.817,0,0,0,3.9-1.522,5.808,5.808,0,0,0,3.9,1.522h9.758v70.258Zm48.79-74.161h-11.71a1.952,1.952,0,0,1-1.952-1.952V40.179H118.1V42.13A1.952,1.952,0,0,1,116.145,44.082Z" transform="translate(-1 -0.846)"/>
      </g>
    </g>
  </g>
</svg>
