<svg xmlns="http://www.w3.org/2000/svg" width="159" height="147" viewBox="0 0 159 147">
  <g id="Grupo_67717" data-name="Grupo 67717" transform="translate(-721 -8097)">
    <rect id="Rectángulo_7622" data-name="Rectángulo 7622" width="159" height="147" rx="14" transform="translate(721 8097)" fill="#fff"/>
    <g id="quejar" transform="translate(742.035 8115.056)">
      <g id="Grupo_67689" data-name="Grupo 67689" transform="translate(4.776 1.625)">
        <path id="Trazado_125286" data-name="Trazado 125286" d="M41.082,7.5A30.431,30.431,0,0,1,63.928,58.033a1.694,1.694,0,0,0-.267,1.853A27.849,27.849,0,0,0,67.1,65.324a1.019,1.019,0,0,1-.66,1.65c-3.513.464-7.782-1.3-9.623-2.168a1.691,1.691,0,0,0-1.516.036,30.284,30.284,0,0,1-13.818,3.518,30.432,30.432,0,1,1-.4-60.861Z" transform="translate(-10.65 -7.5)" fill="#529ad9"/>
      </g>
      <g id="Grupo_67690" data-name="Grupo 67690" transform="translate(36.018 1.635)">
        <path id="Trazado_125287" data-name="Trazado 125287" d="M180.074,65.362a1.018,1.018,0,0,1-.659,1.651,13.682,13.682,0,0,1-5.2-.518c.071-.006.143-.015.214-.024a1.018,1.018,0,0,0,.659-1.651,27.939,27.939,0,0,1-3.436-5.437,1.7,1.7,0,0,1,.266-1.854A30.432,30.432,0,0,0,154.87,7.549a30.429,30.429,0,0,1,22.035,50.522,1.7,1.7,0,0,0-.266,1.854A27.939,27.939,0,0,0,180.074,65.362Z" transform="translate(-154.87 -7.549)" fill="#7daed9"/>
      </g>
      <g id="Grupo_67697" data-name="Grupo 67697" transform="translate(15.337 27.924)">
        <g id="Grupo_67692" data-name="Grupo 67692" transform="translate(31.506)">
          <g id="Grupo_67691" data-name="Grupo 67691">
            <circle id="Elipse_4832" data-name="Elipse 4832" cx="4.117" cy="4.117" r="4.117" fill="#ffeee7"/>
          </g>
        </g>
        <g id="Grupo_67694" data-name="Grupo 67694" transform="translate(15.753)">
          <g id="Grupo_67693" data-name="Grupo 67693">
            <circle id="Elipse_4833" data-name="Elipse 4833" cx="4.117" cy="4.117" r="4.117" fill="#ffeee7"/>
          </g>
        </g>
        <g id="Grupo_67696" data-name="Grupo 67696" transform="translate(0)">
          <g id="Grupo_67695" data-name="Grupo 67695">
            <circle id="Elipse_4834" data-name="Elipse 4834" cx="4.117" cy="4.117" r="4.117" fill="#ffeee7"/>
          </g>
        </g>
      </g>
      <g id="Grupo_67705" data-name="Grupo 67705" transform="translate(3.151 0)">
        <g id="Grupo_67698" data-name="Grupo 67698" transform="translate(27.471 7.275)">
          <path id="Trazado_125288" data-name="Trazado 125288" d="M208.616,48.66a25.618,25.618,0,0,0-7.807-10.332c-3.745-2.913-9.1-6.2-13.987-4.057a8.082,8.082,0,0,0-3.293,2.708,10.767,10.767,0,0,0-1.415,2.692c-.078.211-3.262,10.3-4.444,15.211-.79,3.289-.192,5.559,1.91,7.352A12.2,12.2,0,0,0,182,63.8c2.262,1.147,4.612,2.11,6.969,3.061l.986.4,2.77,1.05L191.7,71.212a101.774,101.774,0,0,1-25.74,39.793l-1.918,2.056-2.427-2.306a54.43,54.43,0,0,0-5.711-5.634c-3.685-2.9-6.582-3.066-10.31-.248a117.66,117.66,0,0,0-12.566,10.666c-4.27,4.291-3.972,8.4.215,12.786a23.588,23.588,0,0,0,13.26,6.919c6.63,1.2,14.157-1.057,19.955-4.433a87.813,87.813,0,0,0,13.714-9.826l5.786-5.574c10.328-10.946,17.443-24.349,22.021-39.593C210.529,67.336,212.119,57.029,208.616,48.66Z" transform="translate(-129.965 -33.583)" fill="#bcbab0"/>
        </g>
        <g id="Grupo_67699" data-name="Grupo 67699" transform="translate(74.842 7.292)">
          <path id="Trazado_125289" data-name="Trazado 125289" d="M364.03,68.368c3.288-9.512,6.215-19.508,8.7-29.48-.2-.17-.41-.335-.618-.5-3.37-2.6-7.9-5.426-12.34-4.572-3.428.659-5.582,3.362-6.573,6.556-1.5,4.832-3.044,9.657-4.225,14.57-1.037,4.318.315,6.879,4.326,8.912,2.576,1.308,5.274,2.38,7.957,3.46Z" transform="translate(-348.642 -33.664)" fill="#e5dec1"/>
        </g>
        <g id="Grupo_67700" data-name="Grupo 67700" transform="translate(27.472 76.543)">
          <path id="Trazado_125290" data-name="Trazado 125290" d="M164.049,363.55c-3.374,3.446-6.927,6.814-10.617,10.145a129.4,129.4,0,0,1-12.69,10.327,22.575,22.575,0,0,1-7.491-5.21c-4.188-4.387-4.485-8.494-.217-12.785A117.617,117.617,0,0,1,145.6,355.362c3.728-2.819,6.625-2.648,10.31.249a54.748,54.748,0,0,1,5.712,5.632Z" transform="translate(-129.969 -353.34)" fill="#e5dec1"/>
        </g>
        <g id="ADEcVW_1_" transform="translate(27.6 16.992)">
          <g id="Grupo_67702" data-name="Grupo 67702">
            <g id="Grupo_67701" data-name="Grupo 67701">
              <path id="Trazado_125291" data-name="Trazado 125291" d="M208.447,110.954c-7.034,23.424-20.059,42.5-41.521,54.993-5.8,3.377-13.324,5.633-19.955,4.433a23.582,23.582,0,0,1-13.26-6.92,11.181,11.181,0,0,1-3.153-5.349c.094.1.192.208.291.311a23.582,23.582,0,0,0,13.26,6.92c6.631,1.2,14.158-1.056,19.955-4.433,21.462-12.5,34.486-31.569,41.521-54.993,2.546-8.481,4.138-18.788.634-27.157-.046-.108-.092-.215-.14-.323a26.119,26.119,0,0,1,3,5.36c3.5,8.369,1.912,18.676-.634,27.157Z" transform="translate(-130.558 -78.437)" fill="#d3d3d3"/>
            </g>
          </g>
        </g>
        <g id="Grupo_67703" data-name="Grupo 67703" transform="translate(27.6 96.666)">
          <path id="Trazado_125292" data-name="Trazado 125292" d="M144.11,453.467a23.582,23.582,0,0,1-13.26-6.92c-.1-.1-.2-.208-.291-.311l.007.028c.016.08.032.162.053.243a8.471,8.471,0,0,0,.349,1.046,10.21,10.21,0,0,0,1.03,1.933,15.734,15.734,0,0,0,1.323,1.683,21.3,21.3,0,0,0,1.6,1.6,22.664,22.664,0,0,0,3.267,2.46,23.046,23.046,0,0,0,2.388,1.287c.162.076.325.151.49.22.046.023.092.041.137.062,1.484-1.042,2.883-2.081,4.229-3.135Q144.767,453.588,144.11,453.467Z" transform="translate(-130.559 -446.236)" fill="#685e68"/>
        </g>
        <g id="Grupo_67704" data-name="Grupo 67704" transform="translate(0)">
          <path id="Trazado_125293" data-name="Trazado 125293" d="M35.628,64.11A32.129,32.129,0,0,0,50.185,60.4a.07.07,0,0,1,.062,0c2.286,1.08,6.695,2.817,10.529,2.31a2.643,2.643,0,0,0,1.707-4.287,26.187,26.187,0,0,1-3.232-5.116.079.079,0,0,1,.023-.075,32.024,32.024,0,0,0,.8-41.38,1.625,1.625,0,1,0-2.52,2.051,28.775,28.775,0,0,1-.721,37.182,3.314,3.314,0,0,0-.512,3.632,29.843,29.843,0,0,0,2.923,4.836,20.441,20.441,0,0,1-7.611-2.09,3.333,3.333,0,0,0-2.97.069,28.572,28.572,0,0,1-33.479-4.925A28.74,28.74,0,0,1,52.359,8.927,1.625,1.625,0,1,0,54.3,6.319,32.047,32.047,0,0,0,3.154,32.475a31.773,31.773,0,0,0,9.765,22.459,31.816,31.816,0,0,0,22.3,9.178Z" transform="translate(-3.151 0)"/>
          <path id="Trazado_125294" data-name="Trazado 125294" d="M197.343,127.147a5.742,5.742,0,1,0,5.742-5.742A5.749,5.749,0,0,0,197.343,127.147Zm8.235,0a2.493,2.493,0,1,1-2.493-2.493A2.5,2.5,0,0,1,205.578,127.147Z" transform="translate(-155.276 -95.105)"/>
          <path id="Trazado_125295" data-name="Trazado 125295" d="M124.623,127.147a5.742,5.742,0,1,0,5.742-5.742A5.749,5.749,0,0,0,124.623,127.147Zm8.235,0a2.493,2.493,0,1,1-2.493-2.493A2.5,2.5,0,0,1,132.858,127.147Z" transform="translate(-98.309 -95.105)"/>
          <path id="Trazado_125296" data-name="Trazado 125296" d="M51.9,127.147a5.742,5.742,0,1,0,5.742-5.742,5.749,5.749,0,0,0-5.742,5.742Zm8.235,0a2.493,2.493,0,1,1-2.493-2.493A2.5,2.5,0,0,1,60.139,127.147Z" transform="translate(-41.343 -95.105)"/>
          <path id="Trazado_125297" data-name="Trazado 125297" d="M204.64,56.825a1.626,1.626,0,0,0-1.787,1.445,62.053,62.053,0,0,1-2.35,11.2c-4.672,15.562-11.946,28.655-21.62,38.917a83.758,83.758,0,0,1-8.772,8.055q-1.609,1.277-3.278,2.476-3.442,2.474-7.113,4.608c-6.275,3.654-13.321,5.238-18.848,4.238q-1.352-.245-2.607-.6c3.625-2.709,6.822-5.464,10.329-8.628,3.994-3.606,7.49-6.947,10.689-10.214l.012-.014.015-.014,1.887-2.022a103.852,103.852,0,0,0,26.117-40.4l1.021-2.914c2.948-8.527,5.655-17.575,8.063-26.931a23.844,23.844,0,0,1,4.8,7.383,24.211,24.211,0,0,1,1.6,6,1.625,1.625,0,0,0,3.218-.448,27.461,27.461,0,0,0-1.824-6.811q-.323-.771-.689-1.524a29.138,29.138,0,0,0-9.4-10.721c-3.907-2.883-9.079-5.1-13.853-3.005a9.65,9.65,0,0,0-3.95,3.234,12.407,12.407,0,0,0-1.63,3.092c-.1.259-3.3,10.393-4.5,15.393-.937,3.9-.163,6.751,2.435,8.967a13.709,13.709,0,0,0,2.736,1.774c2.3,1.166,4.7,2.153,7.1,3.119l.986.4.032.013,1.289.489-.492,1.4a100.625,100.625,0,0,1-25.334,39.166q-.033.032-.064.065l-.8.856-1.7-1.671a69.505,69.505,0,0,0-5.367-5.238c-4.345-3.416-8.022-3.5-12.294-.267a121.146,121.146,0,0,0-12.738,10.817c-4.8,4.824-4.737,9.889.191,15.054a24.191,24.191,0,0,0,5.8,4.478l-.006.006a24.691,24.691,0,0,0,2.23,1.1c.031.014.064.024.1.036a28.037,28.037,0,0,0,6.025,1.782,22.925,22.925,0,0,0,4.08.354,34.511,34.511,0,0,0,16.982-4.981q3.827-2.228,7.43-4.818,1.811-1.3,3.554-2.7A89.274,89.274,0,0,0,192.26,96.152q1.659-2.681,3.133-5.471a112.636,112.636,0,0,0,8.222-20.275,65.281,65.281,0,0,0,2.469-11.8,1.625,1.625,0,0,0-1.445-1.786Zm-20.015,3.032c-2.113-.824-4.166-1.663-6.215-2.616a15.853,15.853,0,0,1-3.7-2.122c-1.629-1.39-2.03-3.052-1.385-5.736,1.136-4.725,4.215-14.508,4.4-15.048a9.182,9.182,0,0,1,1.2-2.28,6.454,6.454,0,0,1,2.631-2.175c4.188-1.836,8.86,1.19,12.073,3.649l.049.037c-2.343,9.279-4.985,18.262-7.866,26.745C185.42,60.165,185.018,60.01,184.625,59.857Zm-51.205,65.29s0,.008,0,.012a20.962,20.962,0,0,1-4.918-3.835c-3.722-3.9-3.791-6.949-.239-10.519a116.28,116.28,0,0,1,12.394-10.516c3.063-2.315,5.164-2.257,8.327.23,1.629,1.281,6.822,6.7,6.822,6.7-2.836,2.848-5.92,5.773-9.386,8.9a130.1,130.1,0,0,1-11.779,9.668C134.223,125.59,133.819,125.372,133.419,125.147Z" transform="translate(-96.571 -20.43)"/>
        </g>
      </g>
    </g>
  </g>
</svg>
