<svg xmlns="http://www.w3.org/2000/svg" xmlns:xlink="http://www.w3.org/1999/xlink" width="553.081" height="296.585" viewBox="0 0 553.081 296.585">
  <defs>
    <filter id="Trazado_127601" x="124.711" y="76.319" width="386.044" height="113.948" filterUnits="userSpaceOnUse">
      <feOffset dy="5" input="SourceAlpha"/>
      <feGaussianBlur stdDeviation="3" result="blur"/>
      <feFlood flood-opacity="0.353"/>
      <feComposite operator="in" in2="blur"/>
      <feComposite in="SourceGraphic"/>
    </filter>
    <filter id="Trazado_127602" x="145.706" y="122.061" width="407.375" height="116.993" filterUnits="userSpaceOnUse">
      <feOffset dy="5" input="SourceAlpha"/>
      <feGaussianBlur stdDeviation="3" result="blur-2"/>
      <feFlood flood-opacity="0.161"/>
      <feComposite operator="in" in2="blur-2"/>
      <feComposite in="SourceGraphic"/>
    </filter>
  </defs>
  <g id="Grupo_68472" data-name="Grupo 68472" transform="translate(-575.395 -4343.039)">
    <g id="Grupo_68352" data-name="Grupo 68352" transform="translate(483.852 4304.446)">
      <g id="Grupo_68338" data-name="Grupo 68338" transform="translate(120.092 38.593)">
        <path id="Trazado_127336" data-name="Trazado 127336" d="M347.955,38.593,192.636,60.422,133.88,205.847l96.564,123.6,155.32-21.829,58.756-145.425Z" transform="translate(-133.88 -38.593)" fill="gold"/>
      </g>
      <path id="Trazado_127337" data-name="Trazado 127337" d="M250.519,337.739,152.051,211.707,211.965,63.413,370.348,41.154l98.468,126.034L408.9,315.48ZM158.177,210.845,252.837,332l152.256-21.4,57.6-142.557L368.031,46.89l-152.257,21.4Z" transform="translate(-46.637 -2.561)" fill="#fff"/>
      <g id="Grupo_68348" data-name="Grupo 68348" transform="translate(91.544 173.19)">
        <g id="Grupo_68339" data-name="Grupo 68339" transform="translate(6.743 6.743)" opacity="0.2" style="mix-blend-mode: multiply;isolation: isolate">
          <path id="Trazado_127338" data-name="Trazado 127338" d="M112.025,314.5a4.173,4.173,0,0,0-.548.052c-8.319,1.421-10.967,8.615-9.587,16.7s6.266,13.987,14.585,12.567a4.26,4.26,0,0,0,1.2-.4C123.908,341.981,116.513,314.045,112.025,314.5Z" transform="translate(-101.544 -269.789)" fill="#2e0044"/>
          <path id="Trazado_127339" data-name="Trazado 127339" d="M116.843,341.666a4.782,4.782,0,0,1-1.345.448c-6.5,1.111-11.136-1.76-13.882-6.662a24.213,24.213,0,0,0,.3,2.622c1.38,8.08,6.266,13.987,14.585,12.567a4.259,4.259,0,0,0,1.2-.4c2.772-.639,2.85-6.512,1.689-12.8C119.074,339.748,118.281,341.334,116.843,341.666Z" transform="translate(-101.567 -276.613)" fill="#2e0044"/>
          <path id="Trazado_127340" data-name="Trazado 127340" d="M149.045,352.581c2.23,13.057,4.866,28.488,5.474,32.048s-9.568,5.762-13.056,4.673c-3.794-1.184.389-3.731-.929-11.447-.918-5.374-4.959-26.029-4.368-28.573S147.727,344.866,149.045,352.581Z" transform="translate(-112.801 -280.396)" fill="#2e0044"/>
          <path id="Trazado_127341" data-name="Trazado 127341" d="M150.583,361.655c-.636-3.722-.786-4.6-1.418-8.3l-8.973.979a29.358,29.358,0,0,1-.529-6.538,1.352,1.352,0,0,1,.257-.51c-1.974.324-3.54,1.152-3.753,2.07-.209.9.163,4.068.769,8.021l.016.105q.1.617.2,1.256l.032.2c1.124,7.018,2.8,15.758,3.353,18.987,1.318,7.716-2.865,10.263.929,11.447a10.116,10.116,0,0,0,3.44.24c-3.426-1.287.678-4.026-.665-11.886-.5-2.907-1.865-10.079-2.987-16.706A92.918,92.918,0,0,0,150.583,361.655Z" transform="translate(-112.801 -280.467)" fill="#2e0044"/>
          <path id="Trazado_127342" data-name="Trazado 127342" d="M184.051,256.93c-20.959,25.592-49.658,28.036-56.123,28.661a5.648,5.648,0,0,0-.789.071c-11.973,2.045-15.671,13.061-13.544,25.508s9.271,21.611,21.243,19.565a5.718,5.718,0,0,0,1.717-.592c8.97-2.1,34.389-7.826,61.477,8.643l-7.2-40.894Z" transform="translate(-105.283 -251.041)" fill="#2e0044"/>
          <path id="Trazado_127343" data-name="Trazado 127343" d="M188.728,346.168c-2.647-5.684-9.528-15.036-8.879-11.233.7,4.073-5.146,7.043-14.364,7.507-1.569-.028-3.106-.018-4.6.03h-.037l0,0a119.993,119.993,0,0,0-24.938,3.744,6.315,6.315,0,0,1-1.892.651c-9.711,1.659-16.534-3.383-20.393-11.63.051.348.1.7.165,1.048,2.125,12.447,9.271,21.611,21.243,19.565a5.719,5.719,0,0,0,1.717-.592c8.97-2.1,34.389-7.825,61.477,8.643l.326-13.827A74.781,74.781,0,0,0,188.728,346.168Z" transform="translate(-105.478 -276.157)" fill="#2e0044"/>
          <ellipse id="Elipse_4868" data-name="Elipse 4868" cx="18.576" cy="37.866" rx="18.576" ry="37.866" transform="translate(70.741 11.051) rotate(-9.693)" fill="#2e0044"/>
          <path id="Trazado_127344" data-name="Trazado 127344" d="M253.976,313.333A22.069,22.069,0,0,1,237.3,325.928a125.629,125.629,0,0,1-17.824,1.848c4.844,15.333,13.882,25.643,22.275,24.209C251.572,350.309,256.893,333.191,253.976,313.333Z" transform="translate(-139.953 -269.41)" fill="#2e0044"/>
          <path id="Trazado_127345" data-name="Trazado 127345" d="M232.433,307.287l1.924,11.269c-11.268,1.924-16.867,11.579-16.867,11.579s-4.621-10.083-6.185-19.238-.551-20.2-.551-20.2,8.486,7.248,19.754,5.324Z" transform="translate(-137.006 -262.037)" fill="#2e0044"/>
          <path id="Trazado_127346" data-name="Trazado 127346" d="M214.045,326.384c.6,2,1.254,3.9,1.867,5.562.608,1.471,1.348,3.066,2.271,4.792.176.329.359.635.546.925,1.3-1.971,6.8-9.429,16.561-11.1L233.365,315.3s-5.273,3.076-20.062,5.6A19.417,19.417,0,0,0,214.045,326.384Z" transform="translate(-137.939 -270.051)" fill="#2e0044"/>
          <path id="Trazado_127347" data-name="Trazado 127347" d="M245.759,308.895c1.063,6.223-.55,11.691-3.6,12.213s-6.389-4.1-7.452-10.324.55-11.691,3.6-12.213S244.7,302.671,245.759,308.895Z" transform="translate(-144.805 -264.589)" fill="#2e0044"/>
          <path id="Trazado_127348" data-name="Trazado 127348" d="M223.533,248.373c-12.836,2.192-19.794,24.149-15.542,49.042s18.1,43.3,30.939,41.1,19.794-24.149,15.542-49.042S236.368,246.181,223.533,248.373Zm14.073,82.4c-10.112,1.727-21.165-13.584-24.686-34.2s1.823-38.726,11.935-40.453,21.165,13.584,24.686,34.2S247.719,329.044,237.607,330.772Z" transform="translate(-135.805 -248.196)" fill="#2e0044"/>
          <path id="Trazado_127349" data-name="Trazado 127349" d="M142.158,295.126s30.557-6.823,42.717-17.365a73.047,73.047,0,0,0-1.626,8.78S159.3,293.647,142.158,295.126Z" transform="translate(-114.771 -257.825)" fill="#2e0044"/>
          <path id="Trazado_127350" data-name="Trazado 127350" d="M105.009,322c1.02-3.347,5.325-4.9,5.325-4.9a5.683,5.683,0,0,0-.67,2.425,7.48,7.48,0,0,0-2.2.753A25.507,25.507,0,0,0,105.009,322Z" transform="translate(-102.672 -270.639)" fill="#2e0044"/>
        </g>
        <g id="Grupo_68347" data-name="Grupo 68347">
          <g id="Grupo_68346" data-name="Grupo 68346">
            <path id="Trazado_127351" data-name="Trazado 127351" d="M102.025,304.5a4.168,4.168,0,0,0-.548.052c-8.319,1.421-10.967,8.615-9.587,16.7s6.266,13.987,14.585,12.567a4.261,4.261,0,0,0,1.2-.4C113.908,331.981,106.513,304.045,102.025,304.5Z" transform="translate(-91.544 -259.789)" fill="#b33081"/>
            <path id="Trazado_127352" data-name="Trazado 127352" d="M106.843,331.666a4.781,4.781,0,0,1-1.345.448c-6.5,1.111-11.136-1.76-13.882-6.662a24.379,24.379,0,0,0,.3,2.622c1.38,8.08,6.266,13.987,14.585,12.567a4.262,4.262,0,0,0,1.2-.4c2.772-.639,2.85-6.512,1.689-12.8C109.074,329.748,108.281,331.334,106.843,331.666Z" transform="translate(-91.567 -266.613)" fill="#aa0f89"/>
            <path id="Trazado_127353" data-name="Trazado 127353" d="M139.045,342.581c2.23,13.057,4.866,28.488,5.474,32.048s-9.568,5.762-13.056,4.673c-3.794-1.184.389-3.731-.929-11.447-.918-5.374-4.959-26.029-4.368-28.573S137.727,334.866,139.045,342.581Z" transform="translate(-102.801 -270.396)" fill="#b33081"/>
            <path id="Trazado_127354" data-name="Trazado 127354" d="M140.583,351.655c-.636-3.722-.786-4.6-1.418-8.3l-8.973.979a29.358,29.358,0,0,1-.529-6.538,1.352,1.352,0,0,1,.257-.51c-1.974.324-3.54,1.152-3.753,2.07-.209.9.163,4.068.769,8.021l.016.105q.1.617.2,1.256l.032.2c1.124,7.018,2.8,15.758,3.353,18.987,1.318,7.716-2.865,10.263.929,11.447a10.116,10.116,0,0,0,3.44.24c-3.426-1.287.678-4.026-.665-11.886-.5-2.907-1.865-10.079-2.987-16.706A92.924,92.924,0,0,0,140.583,351.655Z" transform="translate(-102.801 -270.467)" fill="#aa0f89"/>
            <path id="Trazado_127355" data-name="Trazado 127355" d="M174.051,246.93c-20.959,25.592-49.658,28.036-56.123,28.661a5.657,5.657,0,0,0-.789.071c-11.973,2.045-15.671,13.061-13.544,25.508s9.271,21.611,21.243,19.565a5.719,5.719,0,0,0,1.717-.592c8.97-2.1,34.389-7.825,61.477,8.643l-7.2-40.894Z" transform="translate(-95.283 -241.041)" fill="#219bed"/>
            <path id="Trazado_127356" data-name="Trazado 127356" d="M178.728,336.168c-2.647-5.684-9.528-15.036-8.879-11.233.7,4.073-5.146,7.043-14.364,7.507-1.569-.028-3.106-.018-4.6.03h-.037l0,0a120,120,0,0,0-24.938,3.744,6.313,6.313,0,0,1-1.892.651c-9.711,1.659-16.534-3.383-20.393-11.63.051.348.1.7.165,1.048,2.125,12.447,9.271,21.611,21.243,19.565a5.718,5.718,0,0,0,1.717-.592c8.97-2.1,34.389-7.825,61.477,8.643l.326-13.827A74.774,74.774,0,0,0,178.728,336.168Z" transform="translate(-95.478 -266.157)" fill="#0963ad"/>
            <g id="Grupo_68343" data-name="Grupo 68343" transform="translate(70.741)">
              <g id="Grupo_68340" data-name="Grupo 68340" transform="translate(0 4.796)">
                <ellipse id="Elipse_4869" data-name="Elipse 4869" cx="18.576" cy="37.866" rx="18.576" ry="37.866" transform="translate(0 6.255) rotate(-9.693)" fill="#4f2a87"/>
              </g>
              <g id="Grupo_68341" data-name="Grupo 68341" transform="translate(8.786 43.923)">
                <path id="Trazado_127357" data-name="Trazado 127357" d="M243.976,303.333A22.069,22.069,0,0,1,227.3,315.928a125.625,125.625,0,0,1-17.824,1.848c4.844,15.333,13.882,25.643,22.275,24.209C241.572,340.309,246.893,323.191,243.976,303.333Z" transform="translate(-209.48 -303.333)" fill="#351d5c"/>
              </g>
              <path id="Trazado_127358" data-name="Trazado 127358" d="M222.433,297.287l1.924,11.269c-11.268,1.925-16.867,11.579-16.867,11.579s-4.621-10.083-6.185-19.238-.551-20.2-.551-20.2,8.486,7.248,19.754,5.324Z" transform="translate(-197.747 -252.037)" fill="#219bed"/>
              <path id="Trazado_127359" data-name="Trazado 127359" d="M204.045,316.384c.6,2,1.254,3.9,1.867,5.562.608,1.471,1.348,3.066,2.271,4.792.176.329.359.635.546.925,1.3-1.971,6.8-9.429,16.561-11.1L223.365,305.3s-5.273,3.076-20.062,5.6A19.417,19.417,0,0,0,204.045,316.384Z" transform="translate(-198.679 -260.051)" fill="#0963ad"/>
              <g id="Grupo_68342" data-name="Grupo 68342" transform="translate(18.831 33.941)">
                <path id="Trazado_127360" data-name="Trazado 127360" d="M235.759,298.895c1.063,6.223-.55,11.691-3.6,12.213s-6.389-4.1-7.452-10.324.55-11.691,3.6-12.213S234.7,292.671,235.759,298.895Z" transform="translate(-224.377 -288.531)" fill="#fff"/>
              </g>
              <path id="Trazado_127361" data-name="Trazado 127361" d="M213.533,238.373c-12.836,2.192-19.794,24.149-15.542,49.042s18.1,43.3,30.939,41.1,19.794-24.149,15.542-49.042S226.368,236.181,213.533,238.373Zm14.073,82.4c-10.112,1.727-21.165-13.584-24.686-34.2s1.823-38.726,11.935-40.453,21.165,13.584,24.686,34.2S237.719,319.044,227.607,320.772Z" transform="translate(-196.546 -238.196)" fill="#b33081"/>
            </g>
            <g id="Grupo_68344" data-name="Grupo 68344" transform="translate(27.387 19.936)">
              <path id="Trazado_127362" data-name="Trazado 127362" d="M132.158,285.126s30.557-6.823,42.717-17.365a73.041,73.041,0,0,0-1.626,8.78S149.3,283.647,132.158,285.126Z" transform="translate(-132.158 -267.761)" fill="#fff"/>
            </g>
            <g id="Grupo_68345" data-name="Grupo 68345" transform="translate(2.337 46.469)">
              <path id="Trazado_127363" data-name="Trazado 127363" d="M95.009,312c1.02-3.347,5.325-4.9,5.325-4.9a5.682,5.682,0,0,0-.67,2.425,7.48,7.48,0,0,0-2.2.753A25.513,25.513,0,0,0,95.009,312Z" transform="translate(-95.009 -307.108)" fill="#fff"/>
            </g>
          </g>
        </g>
      </g>
      <g id="Grupo_68351" data-name="Grupo 68351" transform="translate(137.845 54.211)">
        <path id="Trazado_127364" data-name="Trazado 127364" d="M540.184,379.518l28.107-3.95V379.7l-28.107,3.95Z" transform="translate(-283.958 -163.956)" fill="#4f2a87"/>
        <g id="Grupo_68349" data-name="Grupo 68349" transform="translate(37.436 231.511)">
          <path id="Trazado_127365" data-name="Trazado 127365" d="M215.724,409.243l29.634-4.165v4.352l-29.634,4.165Z" transform="translate(-215.724 -405.079)" fill="#b33081"/>
          <path id="Trazado_127366" data-name="Trazado 127366" d="M251.069,419.442l46.3-6.507v4.919l-46.3,6.507Z" transform="translate(-227.235 -407.637)" fill="#219bed"/>
        </g>
        <g id="Grupo_68350" data-name="Grupo 68350" transform="translate(0 19.368)">
          <path id="Trazado_127367" data-name="Trazado 127367" d="M160.207,119.6l29.634-4.165v4.352l-29.634,4.165Z" transform="translate(-160.207 -98.604)" fill="#219bed"/>
          <path id="Trazado_127368" data-name="Trazado 127368" d="M186,96.983l46.3-6.507V95.4L186,101.9Z" transform="translate(-168.608 -90.476)" fill="#6f7302"/>
        </g>
        <path id="Trazado_127369" data-name="Trazado 127369" d="M437.764,70.765l64.119-9.011v3.16l-64.119,9.011Z" transform="translate(-250.602 -61.754)" fill="#b33081"/>
      </g>
    </g>
    <g id="Grupo_68470" data-name="Grupo 68470">
      <g transform="matrix(1, 0, 0, 1, 575.4, 4343.04)" filter="url(#Trazado_127601)">
        <path id="Trazado_127601-2" data-name="Trazado 127601" d="M11.255-12.061V0H2.686V-35.547H16.87a16.521,16.521,0,0,1,7.214,1.5,11.316,11.316,0,0,1,4.858,4.272,11.668,11.668,0,0,1,1.721,6.287,10.286,10.286,0,0,1-3.723,8.313q-3.723,3.113-10.217,3.113Zm0-6.616H16.87a5.3,5.3,0,0,0,3.8-1.245,4.626,4.626,0,0,0,1.306-3.516,5.718,5.718,0,0,0-1.343-3.979,4.755,4.755,0,0,0-3.662-1.514H11.255ZM43.8-6.592H58.716V0H35.229V-35.547H43.8Zm39.185-.049H71.24L69.189,0H60.034L73.071-35.547h8.057L94.263,0h-9.2Zm-9.692-6.616h7.642L77.1-25.586ZM126.538,0h-8.521l-12.6-22.119V0H96.851V-35.547h8.569l12.573,22.119V-35.547h8.545Zm14.551,0h-8.545V-35.547h8.545Zm28.345-14.16H155.615V0h-8.569V-35.547h23.779v6.616h-15.21v8.179h13.818ZM183.521,0h-8.545V-35.547h8.545Zm34.717-12.036a12.982,12.982,0,0,1-2,6.555A12.082,12.082,0,0,1,211.1-1.074,17.492,17.492,0,0,1,203.54.488q-7.007,0-11.035-4.565t-4.028-12.891v-1.758a21.517,21.517,0,0,1,1.819-9.143,13.782,13.782,0,0,1,5.237-6.055,14.611,14.611,0,0,1,7.91-2.136q6.47,0,10.4,3.406a13.457,13.457,0,0,1,4.468,9.387h-8.545q-.1-3.247-1.636-4.663a6.728,6.728,0,0,0-4.687-1.416,5.119,5.119,0,0,0-4.687,2.393q-1.489,2.393-1.562,7.642V-16.8q0,5.688,1.428,8.13t4.919,2.441a6.58,6.58,0,0,0,4.517-1.392,5.906,5.906,0,0,0,1.66-4.419Zm24.243,5.4H230.737L228.687,0h-9.155l13.037-35.547h8.057L253.76,0h-9.2Zm-9.692-6.616h7.642L236.6-25.586Zm51.807,1.221a12.982,12.982,0,0,1-2,6.555,12.082,12.082,0,0,1-5.139,4.407A17.492,17.492,0,0,1,269.9.488q-7.007,0-11.035-4.565t-4.028-12.891v-1.758a21.517,21.517,0,0,1,1.819-9.143,13.781,13.781,0,0,1,5.237-6.055,14.611,14.611,0,0,1,7.91-2.136q6.47,0,10.4,3.406a13.456,13.456,0,0,1,4.468,9.387h-8.545q-.1-3.247-1.636-4.663a6.728,6.728,0,0,0-4.687-1.416,5.119,5.119,0,0,0-4.687,2.393q-1.489,2.393-1.562,7.642V-16.8q0,5.688,1.428,8.13T269.9-6.226a6.58,6.58,0,0,0,4.517-1.392,5.906,5.906,0,0,0,1.66-4.419ZM297.778,0h-8.545V-35.547h8.545Zm36.06-17.041a20.962,20.962,0,0,1-1.929,9.2,14.254,14.254,0,0,1-5.481,6.165A15.262,15.262,0,0,1,318.335.488,15.477,15.477,0,0,1,310.278-1.6,14.23,14.23,0,0,1,304.8-7.568a20.359,20.359,0,0,1-2.063-8.911v-2a21.054,21.054,0,0,1,1.917-9.216,14.22,14.22,0,0,1,5.493-6.165,15.368,15.368,0,0,1,8.142-2.173,15.219,15.219,0,0,1,8.057,2.148,14.476,14.476,0,0,1,5.505,6.116,20.45,20.45,0,0,1,1.99,9.094Zm-8.716-1.489q0-5.3-1.77-8.044a5.677,5.677,0,0,0-5.066-2.747q-6.445,0-6.812,9.668l-.024,2.612q0,5.225,1.733,8.032A5.669,5.669,0,0,0,318.335-6.2a5.6,5.6,0,0,0,5-2.759q1.758-2.759,1.782-7.935Zm-5.835-26.538h8.691L321.191-37.4h-6.714ZM367.944,0h-8.521l-12.6-22.119V0h-8.569V-35.547h8.569L359.4-13.428V-35.547h8.545Z" transform="translate(137.32 176.16) rotate(-8)" fill="#32526e"/>
      </g>
      <g transform="matrix(1, 0, 0, 1, 575.4, 4343.04)" filter="url(#Trazado_127602)">
        <path id="Trazado_127602-2" data-name="Trazado 127602" d="M2.686,0V-35.547h11.45a16.843,16.843,0,0,1,8.472,2.136,15.016,15.016,0,0,1,5.872,6.03,18.207,18.207,0,0,1,2.136,8.728v1.636a18.312,18.312,0,0,1-2.063,8.752,15.081,15.081,0,0,1-5.811,6.055A16.473,16.473,0,0,1,14.38,0Zm8.569-28.931V-6.592h2.979A6.666,6.666,0,0,0,19.9-9.216q1.978-2.625,1.978-7.8v-1.538q0-5.151-1.978-7.764a6.782,6.782,0,0,0-5.762-2.612Zm45.8,13.867H43.579v8.472H59.5V0H35.01V-35.547H59.546v6.616H43.579v7.5H57.056ZM84.009-6.592H98.926V0H75.439V-35.547h8.569Zm39.185-.049H111.45L109.4,0h-9.155l13.037-35.547h8.057L134.473,0h-9.2ZM113.5-13.257h7.642L117.31-25.586Zm64.771,1.221a12.982,12.982,0,0,1-2,6.555,12.082,12.082,0,0,1-5.139,4.407A17.492,17.492,0,0,1,163.574.488q-7.007,0-11.035-4.565t-4.028-12.891v-1.758a21.517,21.517,0,0,1,1.819-9.143,13.782,13.782,0,0,1,5.237-6.055,14.611,14.611,0,0,1,7.91-2.136q6.47,0,10.4,3.406a13.457,13.457,0,0,1,4.468,9.387H169.8q-.1-3.247-1.636-4.663a6.728,6.728,0,0,0-4.687-1.416,5.119,5.119,0,0,0-4.687,2.393q-1.489,2.393-1.562,7.642V-16.8q0,5.688,1.428,8.13t4.919,2.441a6.58,6.58,0,0,0,4.517-1.392,5.906,5.906,0,0,0,1.66-4.419Zm24.243,5.4H190.771L188.721,0h-9.155L192.6-35.547h8.057L213.794,0h-9.2Zm-9.692-6.616h7.642l-3.833-12.329Zm34.814-22.29,7.935,24.731,7.91-24.731h11.279V0h-8.594V-8.3L247-25.293,238.4,0h-5.664l-8.618-25.317.83,17.017V0h-8.569V-35.547Zm41.138,23.486V0h-8.569V-35.547H274.39a16.521,16.521,0,0,1,7.214,1.5,11.316,11.316,0,0,1,4.858,4.272,11.668,11.668,0,0,1,1.721,6.287,10.286,10.286,0,0,1-3.723,8.313q-3.723,3.113-10.217,3.113Zm0-6.616h5.615a5.3,5.3,0,0,0,3.8-1.245,4.626,4.626,0,0,0,1.306-3.516,5.718,5.718,0,0,0-1.343-3.979,4.755,4.755,0,0,0-3.662-1.514h-5.713ZM308.594-6.641H296.851L294.8,0h-9.155l13.037-35.547h8.057L319.873,0h-9.2ZM298.9-13.257h7.642L302.71-25.586ZM352.148,0h-8.521l-12.6-22.119V0h-8.569V-35.547h8.569L343.6-13.428V-35.547h8.545Zm-5.225-44.849a7.118,7.118,0,0,1-1.624,4.724,5.037,5.037,0,0,1-4.016,1.941,7.923,7.923,0,0,1-3.589-1.025,7.485,7.485,0,0,0-3.2-1.025,1.833,1.833,0,0,0-1.331.537,2.231,2.231,0,0,0-.549,1.66l-4.565-.244a7.157,7.157,0,0,1,1.624-4.687,4.98,4.98,0,0,1,3.992-1.978,8.317,8.317,0,0,1,3.2.891,19.766,19.766,0,0,0,2.5,1.013,4.892,4.892,0,0,0,1.111.122,1.875,1.875,0,0,0,1.343-.537,2.2,2.2,0,0,0,.562-1.66ZM378.2-6.641H366.455L364.4,0h-9.155l13.037-35.547h8.057L389.478,0h-9.2Zm-9.692-6.616h7.642l-3.833-12.329Z" transform="translate(158.33 224.94) rotate(-8)" fill="#32526e"/>
      </g>
    </g>
  </g>
</svg>
