<svg xmlns="http://www.w3.org/2000/svg" xmlns:xlink="http://www.w3.org/1999/xlink" width="976.802" height="332.902" viewBox="0 0 976.802 332.902">
  <defs>
    <linearGradient id="linear-gradient" x1="0.5" x2="0.5" y2="1" gradientUnits="objectBoundingBox">
      <stop offset="0" stop-color="#fdf53f"/>
      <stop offset="1" stop-color="#d93c65"/>
    </linearGradient>
  </defs>
  <g id="Grupo_68024" data-name="Grupo 68024" transform="translate(-303.401 -1201.098)">
    <rect id="Rectángulo_7692" data-name="Rectángulo 7692" width="583" height="275" rx="23" transform="translate(489 1259)" fill="#faf7ec"/>
    <g id="Grupo_67933" data-name="Grupo 67933" transform="translate(527.492 1141.476)">
      <path id="Trazado_126777" data-name="Trazado 126777" d="M219.88,192.046a30.7,30.7,0,0,1,3.507,10.39c1.031,7.175,5.056,10.583,9.212,10.838a1.783,1.783,0,0,1,1.477,1.356c.24,1.2-2.658,3.246-4.035,4.133,0,0-7.228,14.711-17.179,18.125s-16.773,3.868-21.2,2c0,0-8.849,8.149-15.725,8.453s-17.4-3.983-20.8-17.118c-2.562-9.9,1.337-17.069,1.582-28.135Z" transform="translate(-9.344 -20.378)" fill="#12263f" fill-rule="evenodd"/>
      <g id="Grupo_67931" data-name="Grupo 67931" transform="translate(388.784 59.622)">
        <path id="Trazado_126778" data-name="Trazado 126778" d="M472.385,59.622,454.628,75.47l8.2-.075-8.412,11.751L470.759,69.96l-6.887.009Z" transform="translate(-444.318 -59.622)" fill-rule="evenodd" fill="url(#linear-gradient)"/>
        <path id="Trazado_126779" data-name="Trazado 126779" d="M493.135,141.005l-22.81-6.829,4.351,6.94L460.253,140.1l23.213,4.927-3.61-5.86Z" transform="translate(-445.216 -71.095)" fill-rule="evenodd" fill="url(#linear-gradient)"/>
        <path id="Trazado_126780" data-name="Trazado 126780" d="M459.507,126.882a3.357,3.357,0,1,0,3.895,2.72A3.357,3.357,0,0,0,459.507,126.882Z" transform="translate(-444.674 -69.965)" fill-rule="evenodd" fill="url(#linear-gradient)"/>
        <path id="Trazado_126781" data-name="Trazado 126781" d="M497.111,125.242a1.607,1.607,0,1,0,1.866,1.3A1.608,1.608,0,0,0,497.111,125.242Z" transform="translate(-450.684 -69.716)" fill-rule="evenodd" fill="url(#linear-gradient)"/>
        <path id="Trazado_126782" data-name="Trazado 126782" d="M444.766,75.415a2.763,2.763,0,1,0,3.207,2.238A2.763,2.763,0,0,0,444.766,75.415Z" transform="translate(-442.482 -62.046)" fill-rule="evenodd" fill="url(#linear-gradient)"/>
        <path id="Trazado_126783" data-name="Trazado 126783" d="M477.029,119.314a1.607,1.607,0,1,0,1.863,1.3A1.608,1.608,0,0,0,477.029,119.314Z" transform="translate(-447.593 -68.804)" fill-rule="evenodd" fill="url(#linear-gradient)"/>
        <path id="Trazado_126784" data-name="Trazado 126784" d="M482.4,69.833a1.607,1.607,0,1,0,1.866,1.3A1.606,1.606,0,0,0,482.4,69.833Z" transform="translate(-448.421 -61.19)" fill-rule="evenodd" fill="url(#linear-gradient)"/>
        <path id="Trazado_126785" data-name="Trazado 126785" d="M504.248,93.624l-37.4.844,10.823,9.767-21.494,6.353,36.743-4.423-9.049-8.282Z" transform="translate(-444.589 -64.855)" fill-rule="evenodd" fill="url(#linear-gradient)"/>
        <path id="Trazado_126786" data-name="Trazado 126786" d="M462.3,96.9a1.607,1.607,0,1,0,1.866,1.3A1.6,1.6,0,0,0,462.3,96.9Z" transform="translate(-445.327 -65.354)" fill-rule="evenodd" fill="url(#linear-gradient)"/>
        <path id="Trazado_126787" data-name="Trazado 126787" d="M499.427,75.006a2.763,2.763,0,1,0,3.207,2.238A2.761,2.761,0,0,0,499.427,75.006Z" transform="translate(-450.893 -61.983)" fill-rule="evenodd" fill="url(#linear-gradient)"/>
        <path id="Trazado_126788" data-name="Trazado 126788" d="M512.316,111.314a2.763,2.763,0,1,0,3.206,2.24A2.764,2.764,0,0,0,512.316,111.314Z" transform="translate(-452.877 -67.57)" fill-rule="evenodd" fill="url(#linear-gradient)"/>
        <path id="Trazado_126789" data-name="Trazado 126789" d="M446.093,104.492a1.607,1.607,0,1,0,1.865,1.3A1.6,1.6,0,0,0,446.093,104.492Z" transform="translate(-442.833 -66.523)" fill-rule="evenodd" fill="url(#linear-gradient)"/>
      </g>
      <path id="Trazado_126790" data-name="Trazado 126790" d="M334.1,226.253l13.4-2.13a4.588,4.588,0,0,0,3.8-5.237l-7.079-44.425a4.592,4.592,0,0,0-5.243-3.8l-13.4,2.13a4.588,4.588,0,0,0-3.8,5.236l7.081,44.424A4.589,4.589,0,0,0,334.1,226.253Z" transform="translate(-35.114 -17.079)" fill="#2f2e27" fill-rule="evenodd"/>
      <path id="Trazado_126791" data-name="Trazado 126791" d="M157.34,87.765s25.291-8.632,42.833-3.916,26.015,28.468,17.716,51.8a56.036,56.036,0,0,0-2.646,14.405l-47.614,11.587C161.149,121.818,157.34,87.765,157.34,87.765Z" transform="translate(-9.818 -3.511)" fill="#12263f" fill-rule="evenodd"/>
      <path id="Trazado_126792" data-name="Trazado 126792" d="M207.426,187.658l14.493,14.093-25.6,3.642s-6.476,5.794-8.959,11.008,1.571,32.58,1.571,32.58l-50.2-16.446,18.736-55.3Z" transform="translate(-6.954 -18.099)" fill="#e8b591" fill-rule="evenodd"/>
      <path id="Trazado_126793" data-name="Trazado 126793" d="M207.9,187.658l14.493,14.093c-34.059,7.87-28.6,4.9-31.021,36.125l-47.535-11.384s-.779-.62-2.03-1.628l16.137-47.627Z" transform="translate(-7.427 -18.099)" fill="#cb9874" fill-rule="evenodd"/>
      <path id="Trazado_126794" data-name="Trazado 126794" d="M171.42,175.617c10.285,13.87,48.239,16.152,57.117,9.023a8.4,8.4,0,0,0,3.519-6.73c-.073-1.851-4.707-5.548-5.179-8.015s3.379-4.33,2.844-5.9S227.1,162,227.1,162c-4.436-1.024-6.856-1.791-7.635-2.884-.289-.405,5.7-6.205,7.921-10.037a3.643,3.643,0,0,0,.206-3.045c-.649-.827-1.887-.854-2.55-2.09a25.329,25.329,0,0,0-1.45-2.408c3.769-2.273,6.189-10.275,4.539-11.076s-12.439-1.213-15.668-7.274c-4.9-9.19-10.68-23.54-17.505-29.8A43.236,43.236,0,0,0,166.5,81.78l-13.261,77.657S166.081,166.314,171.42,175.617Z" transform="translate(-9.187 -3.409)" fill="#e8b591" fill-rule="evenodd"/>
      <path id="Trazado_126795" data-name="Trazado 126795" d="M198.375,96.44a37.864,37.864,0,0,0-2.961-3.054,44.7,44.7,0,0,0-7.537-5.585c-5.372-1.815-13.325-4.4-19.492-6-.915-.043-1.427-.024-1.427-.024l-10.758,63c2.857.87,6.43.912,10.869-.123C199.451,137.108,199.309,106.4,198.375,96.44Z" transform="translate(-9.642 -3.409)" fill="#cb9874" fill-rule="evenodd"/>
      <path id="Trazado_126796" data-name="Trazado 126796" d="M241.96,175.644h0a4.525,4.525,0,0,0-2.619-1.992c-4.436-1.025-6.93-1.617-7.711-2.709.569,1.568,6.935,5.014,8.737,5.353s1.6-.621,1.592-.652Zm-10.446-4.734c-.14-.888,6.032-6.146,8.113-9.731a3.64,3.64,0,0,0,.207-3.043,2,2,0,0,0-.325-.324c-.994.033-1.934.35-2.353,2.309S231,169.16,231.514,170.91Z" transform="translate(-21.227 -15.11)" fill="#5a3a38" fill-rule="evenodd"/>
      <path id="Trazado_126797" data-name="Trazado 126797" d="M138.006,417.616l-3.632-48.7c-14.139-35.748-26.772-72.437-17.89-90.357,6.776-13.672,7.385-29.149,9.186-32.319a100.481,100.481,0,0,1,9.619-13.067l11.186-.495,46.238,23.979,30.359,44.016,25.861,29.942s5.759,9.619,2.565,20.034-9.486,31.855-9.486,31.855l4.485,35.11Z" transform="translate(-3.075 -26.631)" fill="#d0c69c" fill-rule="evenodd"/>
      <path id="Trazado_126798" data-name="Trazado 126798" d="M117.448,277.356c3.2-14.3,7.089-27.635,8.825-30.689a77.912,77.912,0,0,1,6.248-8.97l7.566-2.247,8.4,21.072Z" transform="translate(-3.679 -27.058)" fill="#272727" fill-rule="evenodd"/>
      <path id="Trazado_126799" data-name="Trazado 126799" d="M178.16,246l24.5,12.706L223.82,289.39l-1.237,1.429-37.125-15.279Z" transform="translate(-13.022 -28.681)" fill="#d0c69c" fill-rule="evenodd"/>
      <path id="Trazado_126800" data-name="Trazado 126800" d="M256.166,354.141c.624,3.319,1.726,4.154-.5,11.416s-9.486,31.855-9.486,31.855c-41.058,3.625-76.388-37.866-105.563-67.865l65.3,2.7Z" transform="translate(-7.244 -41.538)" fill="#e5dec1" fill-rule="evenodd"/>
      <path id="Trazado_126801" data-name="Trazado 126801" d="M137.34,233.675c-2.056-3.435.327-9.161,4.124-9.262s42.324,15.013,49.019,18.7,8.983,7.282,9.152,8.821-4.786,19.282-11.445,21.78-15.5-4.892-21.381-14.529S151.736,237.406,137.34,233.675Z" transform="translate(-6.623 -25.359)" fill="#a79f7e" fill-rule="evenodd"/>
      <path id="Trazado_126802" data-name="Trazado 126802" d="M203.076,261.171c-1.616,4.887-4.394,11.343-7.786,14.318l-26.422-21.11,1.069-9.768Z" transform="translate(-11.592 -28.467)" fill="#d0c69c" fill-rule="evenodd"/>
      <path id="Trazado_126803" data-name="Trazado 126803" d="M169.934,260.332c35.9,23.248,95.418,57.536,95.418,57.536L299.5,247.783l22.189,8.081c-8.187,31.4-15.633,63.082-25.918,92.3-7.024,19.945-21.257,20.552-39.339,14.375-25.7-8.78-74.252-28.518-95.433-37.317Z" transform="translate(-10.38 -28.955)" fill="#e8b591" fill-rule="evenodd"/>
      <path id="Trazado_126804" data-name="Trazado 126804" d="M227.583,300.282c6.409,3.827,12.54,7.458,18.078,10.719l-9.026,50.255c-12.08-4.621-25.179-9.809-37.182-14.637l28.13-46.337ZM266.185,323c3.235,1.878,5.084,2.943,5.084,2.943l-4.018,8.421Z" transform="translate(-16.298 -37.034)" fill="#3b382a" fill-rule="evenodd"/>
      <path id="Trazado_126805" data-name="Trazado 126805" d="M146.166,240.676l82.824,52.631s3.544,1.815,3.047,5.611c0,0-11.753,31.587-16.7,56.653-37.5-18.655-97.163-32.81-91.7-77.9,1.815-14.977,6.371-19.032,16.927-38.786C141.382,237.357,144.116,239.862,146.166,240.676Z" transform="translate(-4.577 -27.512)" fill="#e8e8e7" fill-rule="evenodd"/>
      <path id="Trazado_126806" data-name="Trazado 126806" d="M124.361,273.884c2.124-12.042,6.761-17.018,16.37-35,.287-.539.814-.576,1.463-.364l7.359,18.455Z" transform="translate(-4.743 -27.512)" fill="#e5dec1" fill-rule="evenodd"/>
      <path id="Trazado_126807" data-name="Trazado 126807" d="M347.05,165.354l-31.356,10.3a5.341,5.341,0,0,1-6.721-3.39l-11.167-33.909a5.331,5.331,0,0,1,3.395-6.712l31.356-10.3a5.34,5.34,0,0,1,6.721,3.39l11.166,33.909A5.329,5.329,0,0,1,347.05,165.354Z" transform="translate(-31.393 -9.457)" fill="#bcd2e6" fill-rule="evenodd"/>
      <path id="Trazado_126808" data-name="Trazado 126808" d="M281.392,162.341a5.236,5.236,0,1,0,6.616,3.337A5.235,5.235,0,0,0,281.392,162.341Z" transform="translate(-28.353 -15.766)" fill="#ffce3b" fill-rule="evenodd"/>
      <path id="Trazado_126809" data-name="Trazado 126809" d="M402.852,131.321l-112.336,36.91a3.875,3.875,0,0,1-4.876-2.458L281.5,153.208a3.867,3.867,0,0,1,2.462-4.87L396.3,111.428a3.875,3.875,0,0,1,4.876,2.458l4.138,12.565A3.87,3.87,0,0,1,402.852,131.321Z" transform="translate(-28.895 -7.943)" fill="#f9ece3" fill-rule="evenodd"/>
      <path id="Trazado_126810" data-name="Trazado 126810" d="M337.241,153.581l-36.982,12.151a6.136,6.136,0,0,1-7.721-3.894l-6.55-19.893a6.124,6.124,0,0,1,3.9-7.711l36.983-12.15c19.038-6.255,59.3-26.081,63.448-49.51l7.662,4.558L408.832,112.6l12.346,34.983-3.456,8.212C400.46,139.407,356.278,147.325,337.241,153.581Z" transform="translate(-29.568 -1.993)" fill-rule="evenodd" fill="url(#linear-gradient)"/>
      <path id="Trazado_126811" data-name="Trazado 126811" d="M417.655,131.774l-6.766-19.17L400.035,77.131l-7.662-4.558c-4.15,23.429-44.41,43.255-63.448,49.51L299.049,131.9l4.007,12.171a6.136,6.136,0,0,0,7.721,3.894l36.982-12.151C363.639,130.594,397,124.232,417.655,131.774Z" transform="translate(-31.625 -1.993)" fill-rule="evenodd" fill="url(#linear-gradient)"/>
      <path id="Trazado_126812" data-name="Trazado 126812" d="M306.52,172.317l-10.373-31.5L328.479,130.2c3.577-1.176,7.9-2.83,12.6-4.9L351.9,158.166c-5.006,1.119-9.471,2.354-13.047,3.529Z" transform="translate(-31.178 -10.107)" fill="#529ad9" fill-rule="evenodd"/>
      <path id="Trazado_126813" data-name="Trazado 126813" d="M412.53,64.978h0a5.072,5.072,0,0,0-3.229,6.387l27.406,83.226a5.084,5.084,0,0,0,6.4,3.225h0a5.072,5.072,0,0,0,3.23-6.389L418.926,68.2A5.08,5.08,0,0,0,412.53,64.978Z" transform="translate(-48.552 -0.785)" fill="#529ad9" fill-rule="evenodd"/>
      <g id="Grupo_67932" data-name="Grupo 67932" transform="translate(272.068 123.793)">
        <path id="Trazado_126814" data-name="Trazado 126814" d="M339.693,135.545l-24.842,8.162a1.641,1.641,0,0,0-1.042,2.067h0a1.643,1.643,0,0,0,2.067,1.042l24.842-8.162a1.643,1.643,0,0,0,1.045-2.067h0A1.646,1.646,0,0,0,339.693,135.545Z" transform="translate(-305.951 -135.464)" fill="#fff" fill-rule="evenodd"/>
        <path id="Trazado_126815" data-name="Trazado 126815" d="M307.668,147.433l-2,.658a1.642,1.642,0,0,0-1.045,2.066h0a1.642,1.642,0,0,0,2.067,1.043l2.007-.66a1.639,1.639,0,0,0,1.043-2.065h0A1.642,1.642,0,0,0,307.668,147.433Z" transform="translate(-304.537 -137.293)" fill="#fff" fill-rule="evenodd"/>
        <path id="Trazado_126816" data-name="Trazado 126816" d="M340.9,143.485l-32.6,10.713a1.642,1.642,0,0,0-1.046,2.067h0a1.644,1.644,0,0,0,2.068,1.042l32.606-10.713a1.641,1.641,0,0,0,1.042-2.065h0A1.643,1.643,0,0,0,340.9,143.485Z" transform="translate(-304.941 -136.686)" fill="#fff" fill-rule="evenodd"/>
      </g>
      <path id="Trazado_126817" data-name="Trazado 126817" d="M193.608,126.446a2.113,2.113,0,1,0,3.47,2.414c.012-.014,3.951-5.862,11.14-5.683a2.12,2.12,0,1,0,.106-4.239C198.828,118.7,193.622,126.424,193.608,126.446Z" transform="translate(-15.34 -9.127)" fill-rule="evenodd"/>
      <path id="Trazado_126818" data-name="Trazado 126818" d="M198.994,138.221s7.953-3.093,10.7-4.8,2.569-2.707,2.238-3.754a22.191,22.191,0,0,0-.9-2.112c-.076-.264,2.287,2.444,2.95,2.609s2.12-.81,2.613-1.493.78,2.565-1.956,3.977c0,0,.818.291.972.371a2.948,2.948,0,0,1-2.373,1.034,6.663,6.663,0,0,1,.135,2.96s1.383.272,1.406.657-2.623.367-3.514.361-11.981.844-11.981.844S198.634,138.408,198.994,138.221Z" transform="translate(-16.211 -10.451)" fill="#472852" fill-rule="evenodd"/>
      <path id="Trazado_126819" data-name="Trazado 126819" d="M323.06,240.959s2.015-5.027,1.723-7.336-3.858-16.1-4.385-18.443,2.829-7.819,4.926-10.506c0,0,.975,3.148,2.284,3.738s2.993,1.12,4.974-1.475,9.749-11.12,11.791-13.572,3.4-3.009,4.332-2.626a15.069,15.069,0,0,1,3.807,2.4,7.975,7.975,0,0,1,2.034,3.7,5.153,5.153,0,0,1,3.4.6,11.763,11.763,0,0,1,3.434,2.683,8.972,8.972,0,0,1,1.549,4.236,6.2,6.2,0,0,1,2.74,1.691,19,19,0,0,1,2.334,4.869,8.258,8.258,0,0,1-.1,3.529,1.647,1.647,0,0,1,1.5.71,36,36,0,0,1,2.857,5.051c.4,1.077.325,3.708-2.486,6.585s-19.01,18.137-21.52,20.512-3.923,7.006-3.923,7.006Z" transform="translate(-34.902 -20.16)" fill="#e8b591" fill-rule="evenodd"/>
      <path id="Trazado_126820" data-name="Trazado 126820" d="M326.231,205.3s.975,3.148,2.284,3.738c1.287.578,2.929,1.1,4.866-1.336L326.7,216.25l-.469-10.954Zm27.923-10.629a6.359,6.359,0,0,1,1.3,2.791l-7.989,10.247,6.689-13.039Zm8.774,7.138a8.2,8.2,0,0,1,.91,3.17l-7.249,9.409,6.338-12.578Zm5.949,9.625-7.306,12.263,7.239-8.63a8.256,8.256,0,0,0,.1-3.529Z" transform="translate(-35.808 -20.782)" fill="#d56e66" fill-rule="evenodd"/>
      <path id="Trazado_126821" data-name="Trazado 126821" d="M183.327,83.106s9.223,37.281-21.023,51.3c0,0,4.221,14.017-7.4,14.721s-8.147-4.522-14.261.478c-3.967,3.243-2.927,6.2,1.161,14.338,2.212,4.4,12.485,9.287,14.318,11.465,5.222,6.208,8.695,12.077,9.726,19.252s5.056,10.584,9.213,10.836a1.783,1.783,0,0,1,1.476,1.357c.241,1.2-2.657,3.245-4.034,4.134,0,0-7.228,14.711-17.179,18.125s-16.773,3.868-21.2,2c0,0-8.849,8.15-15.725,8.453s-17.4-3.982-20.8-17.116,4.572-21.454.3-40.448-7.872-62.55,2.6-80.817,24.121-20.9,39.894-23.514S179.021,71.366,183.327,83.106Z" transform="translate(-0.02 -2.364)" fill="#12263f" fill-rule="evenodd"/>
      <path id="Trazado_126822" data-name="Trazado 126822" d="M169.843,171.895c-16.918-29.261-46.441-9.139-27.925,9.517,9.982,10.059,26.852,5.8,26.852,5.8Z" transform="translate(-6.537 -15.003)" fill="#e8b591" fill-rule="evenodd"/>
      <path id="Trazado_126823" data-name="Trazado 126823" d="M162.388,170.777a.708.708,0,0,0,1.1-.9c-3.868-4.724-7.768-6.379-10.943-6.155a7.435,7.435,0,0,0-3.752,1.311,7.74,7.74,0,0,0-2.5,2.912,9.07,9.07,0,0,0,.623,8.9,13.916,13.916,0,0,0,5.439,5.09,16.9,16.9,0,0,0,7.7,1.8.706.706,0,1,0,.008-1.412,15.514,15.514,0,0,1-7.057-1.637,12.525,12.525,0,0,1-4.887-4.586,7.669,7.669,0,0,1-.559-7.517A6.339,6.339,0,0,1,149.6,166.2a6.035,6.035,0,0,1,3.041-1.06,7.317,7.317,0,0,1,2.376.238c-.934,2.373-2.933,9.605,6.538,11.352a.707.707,0,0,0,.252-1.391c-7.969-1.469-6.224-7.569-5.455-9.5A16.644,16.644,0,0,1,162.388,170.777Z" transform="translate(-7.982 -16.017)" fill="#cb9874" fill-rule="evenodd"/>
      <path id="Trazado_126824" data-name="Trazado 126824" d="M191.212,86.726a.752.752,0,0,1,1.421-.495c.045.129,16.153,44.587-23.09,59.06a.754.754,0,1,1-.519-1.416C206.858,129.921,191.255,86.851,191.212,86.726Z" transform="translate(-11.539 -4.017)" fill-rule="evenodd"/>
      <path id="Trazado_126825" data-name="Trazado 126825" d="M136.6,78.308c-5.452,26.636-24.67,44.871-42.867,56.553-.137,5.073-.051,10.25.2,15.308,56.684-14.925,79.774-42.755,87.182-70.546-7.3-7.414-26.779-4.267-40.726-1.957C139.116,77.877,137.852,78.088,136.6,78.308Z" transform="translate(-0.02 -2.364)" fill="#2a3748" fill-rule="evenodd"/>
      <path id="Trazado_126826" data-name="Trazado 126826" d="M95.628,171.718a.752.752,0,0,1,1.485-.241c.011.07,4.1,24.738.549,38.388-1.74,6.678-3.488,16.07-2.131,24.211,1.329,7.974,5.687,14.763,16.1,16.534a.753.753,0,1,1-.255,1.484c-11.217-1.906-15.906-9.206-17.334-17.775-1.4-8.4.381-18.011,2.157-24.829C99.68,196.143,95.638,171.789,95.628,171.718Z" transform="translate(0 -17.116)" fill="#472852" fill-rule="evenodd"/>
    </g>
    <path id="Trazado_126958" data-name="Trazado 126958" d="M-7319.443-10266.729s389.748,338.6,976.224,0" transform="translate(7623.172 11581.156)" fill="none" stroke="#a0a603" stroke-width="1"/>
    <g id="Grupo_68016" data-name="Grupo 68016">
      <g id="Grupo_68005" data-name="Grupo 68005" transform="translate(129 -1229)">
        <g id="Rectángulo_7658" data-name="Rectángulo 7658" transform="translate(219 2551)" fill="#529ad9" stroke="#fff" stroke-width="2">
          <rect width="77" height="77" rx="38.5" stroke="none"/>
          <rect x="1" y="1" width="75" height="75" rx="37.5" fill="none"/>
        </g>
        <g id="nuevo-producto" transform="translate(233.172 2565.172)">
          <path id="Trazado_126833" data-name="Trazado 126833" d="M250.354,300.709h11.772v14.126H248V296Zm0,0" transform="translate(-223.672 -266.963)" fill="#d3a06c"/>
          <path id="Trazado_126834" data-name="Trazado 126834" d="M118.126,314.835H104V300.709h11.772L118.126,296Zm0,0" transform="translate(-93.798 -266.963)" fill="#d3a06c"/>
          <path id="Trazado_126835" data-name="Trazado 126835" d="M262.126,296l2.354,4.709H250.354L248,296Zm0,0" transform="translate(-223.672 -266.963)" fill="#dfb28b"/>
          <path id="Trazado_126836" data-name="Trazado 126836" d="M96.48,296l-2.354,4.709H80L82.354,296Zm0,0" transform="translate(-72.152 -266.963)" fill="#dfb28b"/>
          <path id="Trazado_126837" data-name="Trazado 126837" d="M339.924,152l1.57,3.139a18.171,18.171,0,0,0-4.12,3.782L336,160.633l.3-2.386a9.357,9.357,0,0,1,1.177-3.492A9.218,9.218,0,0,1,339.924,152Zm0,0" transform="translate(-303.039 -137.089)" fill="#fcd770"/>
          <path id="Trazado_126838" data-name="Trazado 126838" d="M109.2,158.247l.3,2.386-1.373-1.711a18.171,18.171,0,0,0-4.12-3.782L105.57,152a9.218,9.218,0,0,1,2.449,2.754A9.356,9.356,0,0,1,109.2,158.247Zm0,0" transform="translate(-93.798 -137.089)" fill="#fcd770"/>
          <g id="Grupo_67934" data-name="Grupo 67934" transform="translate(3.924 2.354)">
            <path id="Trazado_126839" data-name="Trazado 126839" d="M412.709,113.8l-.785,1.342-.118,1.57-1.452-.369-1.452.369-.118-1.57L408,113.8l1.381-.6.973-1.2.973,1.2Zm0,0" transform="translate(-371.9 -103.367)" fill="#ff826e"/>
            <path id="Trazado_126840" data-name="Trazado 126840" d="M209.417,27.594l-1.57,2.684-.228,3.139-2.911-.738-2.911.738-.228-3.139L200,27.594l2.77-1.193,1.939-2.4,1.939,2.4Zm0,0" transform="translate(-184.304 -24)" fill="#ff826e"/>
            <path id="Trazado_126841" data-name="Trazado 126841" d="M44.709,113.8l-.785,1.342-.118,1.57-1.452-.369-1.452.369-.118-1.57L40,113.8l1.381-.6.973-1.2.973,1.2Zm0,0" transform="translate(-40 -103.367)" fill="#ff826e"/>
          </g>
          <path id="Trazado_126842" data-name="Trazado 126842" d="M99.416,288H70.194l-3.139,6.278h2.839V308.4H99.716V294.278h2.839Zm-.97,1.57,1.57,3.139H87.644l-1.57-3.139Zm-27.282,0H83.535l-1.57,3.139H69.594Zm26.982,17.265H85.59v-5.493H84.02v5.493H71.464V294.278H82.936l1.084-2.169v6.878h1.57v-6.878l1.084,2.169H98.146Zm0,0" transform="translate(-60.477 -259.748)"/>
          <path id="Trazado_126843" data-name="Trazado 126843" d="M128,416h4.709v1.57H128Zm0,0" transform="translate(-115.444 -375.192)"/>
          <path id="Trazado_126844" data-name="Trazado 126844" d="M128,448h4.709v1.57H128Zm0,0" transform="translate(-115.444 -404.052)"/>
          <path id="Trazado_126845" data-name="Trazado 126845" d="M192,448h1.57v1.57H192Zm0,0" transform="translate(-173.165 -404.052)"/>
          <path id="Trazado_126846" data-name="Trazado 126846" d="M190.737,22.938l3.624-.924,3.624.923.284-3.892,1.925-3.289-3.405-1.474-2.428-3-2.429,3-3.405,1.474,1.925,3.289Zm2.173-7.368,1.451-1.793,1.451,1.794,2.133.924-1.214,2.074-.174,2.387-2.2-.559-2.2.559-.174-2.387-1.214-2.074Zm0,0" transform="translate(-170.033 -10.175)"/>
          <path id="Trazado_126847" data-name="Trazado 126847" d="M34.353,103.908l1.14-1.947-2.02-.875-1.459-1.8-1.459,1.8-2.02.875,1.14,1.947.169,2.322,2.17-.552,2.171.553Zm-1.538-.479-.06.817-.741-.188-.74.188-.061-.817-.429-.734.748-.324.482-.594.481.6.748.324Zm0,0" transform="translate(-25.736 -89.542)"/>
          <path id="Trazado_126848" data-name="Trazado 126848" d="M402.353,103.908l1.14-1.947-2.02-.875-1.459-1.8-1.459,1.8-2.02.875,1.14,1.947.169,2.322,2.17-.552,2.171.553Zm-1.538-.479-.06.817-.741-.188-.74.188-.06-.817-.429-.734.748-.324.481-.594.481.6.748.324Zm0,0" transform="translate(-357.636 -89.542)"/>
          <path id="Trazado_126849" data-name="Trazado 126849" d="M94.256,144.832a17.4,17.4,0,0,1,3.944,3.616l3.108,3.884-.643-5.142a10.08,10.08,0,0,0-3.934-6.779l-.752-.564-2.3,4.6Zm2.262-2.551a8.518,8.518,0,0,1,2.536,4.736,19,19,0,0,0-3.356-3.1Zm0,0" transform="translate(-84.49 -126.129)"/>
          <path id="Trazado_126850" data-name="Trazado 126850" d="M325.194,147.183l-.643,5.142,3.108-3.885a17.419,17.419,0,0,1,3.944-3.616l.576-.385-2.3-4.6-.752.565A10.077,10.077,0,0,0,325.194,147.183Zm4.967-3.269a18.948,18.948,0,0,0-3.356,3.1,8.522,8.522,0,0,1,2.536-4.736Zm0,0" transform="translate(-292.713 -126.122)"/>
          <path id="Trazado_126851" data-name="Trazado 126851" d="M280,137.507h1.57v-3.288a16.171,16.171,0,0,1,3.743-10.335l-1.206-1A17.749,17.749,0,0,0,280,134.219Zm0,0" transform="translate(-252.533 -110.825)"/>
          <path id="Trazado_126852" data-name="Trazado 126852" d="M336,96h1.57v1.57H336Zm0,0" transform="translate(-303.039 -86.583)"/>
          <path id="Trazado_126853" data-name="Trazado 126853" d="M360,64h1.57v1.57H360Zm0,0" transform="translate(-324.685 -57.722)"/>
          <path id="Trazado_126854" data-name="Trazado 126854" d="M165.6,137.507h1.57v-3.288a17.751,17.751,0,0,0-4.105-11.34l-1.206,1a16.174,16.174,0,0,1,3.742,10.335Zm0,0" transform="translate(-145.978 -110.825)"/>
          <path id="Trazado_126855" data-name="Trazado 126855" d="M144,96h1.57v1.57H144Zm0,0" transform="translate(-129.874 -86.583)"/>
          <path id="Trazado_126856" data-name="Trazado 126856" d="M120,64h1.57v1.57H120Zm0,0" transform="translate(-108.228 -57.722)"/>
          <path id="Trazado_126857" data-name="Trazado 126857" d="M240,136h1.57v1.57H240Zm0,0" transform="translate(-216.457 -122.659)"/>
          <path id="Trazado_126858" data-name="Trazado 126858" d="M240,168h1.57v10.2H240Zm0,0" transform="translate(-216.457 -151.52)"/>
          <path id="Trazado_126859" data-name="Trazado 126859" d="M464,216h1.57v1.57H464Zm0,0" transform="translate(-418.483 -194.811)"/>
          <path id="Trazado_126860" data-name="Trazado 126860" d="M464,248h1.57v1.57H464Zm0,0" transform="translate(-418.483 -223.672)"/>
          <path id="Trazado_126861" data-name="Trazado 126861" d="M480,232h1.57v1.57H480Zm0,0" transform="translate(-432.913 -209.241)"/>
          <path id="Trazado_126862" data-name="Trazado 126862" d="M448,232h1.57v1.57H448Zm0,0" transform="translate(-404.052 -209.241)"/>
          <path id="Trazado_126863" data-name="Trazado 126863" d="M440,0h1.57V1.57H440Zm0,0" transform="translate(-396.837)"/>
          <path id="Trazado_126864" data-name="Trazado 126864" d="M440,32h1.57v1.57H440Zm0,0" transform="translate(-396.837 -28.861)"/>
          <path id="Trazado_126865" data-name="Trazado 126865" d="M456,16h1.57v1.57H456Zm0,0" transform="translate(-411.268 -14.43)"/>
          <path id="Trazado_126866" data-name="Trazado 126866" d="M424,16h1.57v1.57H424Zm0,0" transform="translate(-382.407 -14.43)"/>
          <path id="Trazado_126867" data-name="Trazado 126867" d="M16,248h1.57v1.57H16Zm0,0" transform="translate(-14.43 -223.672)"/>
          <path id="Trazado_126868" data-name="Trazado 126868" d="M16,280h1.57v1.57H16Zm0,0" transform="translate(-14.43 -252.533)"/>
          <path id="Trazado_126869" data-name="Trazado 126869" d="M32,264h1.57v1.57H32Zm0,0" transform="translate(-28.861 -238.102)"/>
          <path id="Trazado_126870" data-name="Trazado 126870" d="M0,264H1.57v1.57H0Zm0,0" transform="translate(0 -238.102)"/>
          <path id="Trazado_126871" data-name="Trazado 126871" d="M16,0h1.57V1.57H16Zm0,0" transform="translate(-14.43)"/>
          <path id="Trazado_126872" data-name="Trazado 126872" d="M16,32h1.57v1.57H16Zm0,0" transform="translate(-14.43 -28.861)"/>
          <path id="Trazado_126873" data-name="Trazado 126873" d="M32,16h1.57v1.57H32Zm0,0" transform="translate(-28.861 -14.43)"/>
          <path id="Trazado_126874" data-name="Trazado 126874" d="M0,16H1.57v1.57H0Zm0,0" transform="translate(0 -14.43)"/>
        </g>
      </g>
      <g id="Grupo_68014" data-name="Grupo 68014">
        <g id="Elipse_4859" data-name="Elipse 4859" transform="translate(348 1303)" fill="#fff" stroke="#494b0f" stroke-width="2">
          <circle cx="19" cy="19" r="19" stroke="none"/>
          <circle cx="19" cy="19" r="18" fill="none"/>
        </g>
        <path id="Trazado_126963" data-name="Trazado 126963" d="M2.373,0h-3.3V-10.508l-3.242.947v-2.5l6.24-2.158h.3Z" transform="translate(367 1328)" fill="#12263f"/>
      </g>
    </g>
    <g id="Grupo_68017" data-name="Grupo 68017">
      <g id="Grupo_68007" data-name="Grupo 68007" transform="translate(88 -1182)">
        <g id="Trazado_126960" data-name="Trazado 126960" transform="translate(374 2551)" fill="#529ad9">
          <path d="M 38.5 76 C 33.43708801269531 76 28.52615547180176 75.00864410400391 23.90361022949219 73.05347442626953 C 19.43825531005859 71.16478729248047 15.42775535583496 68.46076965332031 11.98348903656006 65.01651000976562 C 8.539233207702637 61.57224273681641 5.835211277008057 57.56174468994141 3.946522235870361 53.09638977050781 C 1.991355538368225 48.47384262084961 1 43.56291198730469 1 38.5 C 1 33.43708801269531 1.991355538368225 28.52615547180176 3.946522235870361 23.90361022949219 C 5.835211277008057 19.43825531005859 8.539233207702637 15.42775535583496 11.98348903656006 11.98348903656006 C 15.42775535583496 8.539233207702637 19.43825531005859 5.835211277008057 23.90361022949219 3.946522235870361 C 28.52615547180176 1.991355538368225 33.43708801269531 1 38.5 1 C 43.56291198730469 1 48.47384262084961 1.991355538368225 53.09638977050781 3.946522235870361 C 57.56174468994141 5.835211277008057 61.57224273681641 8.539233207702637 65.01651000976562 11.98348903656006 C 68.46076965332031 15.42775535583496 71.16478729248047 19.43825531005859 73.05347442626953 23.90361022949219 C 75.00864410400391 28.52615547180176 76 33.43708801269531 76 38.5 C 76 43.56291198730469 75.00864410400391 48.47384262084961 73.05347442626953 53.09638977050781 C 71.16478729248047 57.56174468994141 68.46076965332031 61.57224273681641 65.01651000976562 65.01651000976562 C 61.57224273681641 68.46076965332031 57.56174468994141 71.16478729248047 53.09638977050781 73.05347442626953 C 48.47384262084961 75.00864410400391 43.56291198730469 76 38.5 76 Z" stroke="none"/>
          <path d="M 38.5 2 C 33.57164764404297 2 28.79177474975586 2.964775085449219 24.29316329956055 4.867530822753906 C 19.9470100402832 6.705802917480469 16.04334259033203 9.337860107421875 12.69059753417969 12.69059753417969 C 9.337860107421875 16.04334259033203 6.705802917480469 19.9470100402832 4.867530822753906 24.29316329956055 C 2.964775085449219 28.79177474975586 2 33.57164764404297 2 38.5 C 2 43.42835235595703 2.964775085449219 48.20822143554688 4.867530822753906 52.70683288574219 C 6.705802917480469 57.05298614501953 9.337860107421875 60.95665740966797 12.69059753417969 64.30940246582031 C 16.04334259033203 67.66213989257812 19.9470100402832 70.29419708251953 24.29316329956055 72.13246917724609 C 28.79177474975586 74.03522491455078 33.57164764404297 75 38.5 75 C 43.42835235595703 75 48.20822143554688 74.03522491455078 52.70683288574219 72.13246917724609 C 57.05298614501953 70.29419708251953 60.95665740966797 67.66213989257812 64.30940246582031 64.30940246582031 C 67.66213989257812 60.95665740966797 70.29419708251953 57.05298614501953 72.13246917724609 52.70683288574219 C 74.03522491455078 48.20822143554688 75 43.42835235595703 75 38.5 C 75 33.57164764404297 74.03522491455078 28.79177474975586 72.13246917724609 24.29316329956055 C 70.29419708251953 19.9470100402832 67.66213989257812 16.04334259033203 64.30940246582031 12.69059753417969 C 60.95665740966797 9.337860107421875 57.05298614501953 6.705802917480469 52.70683288574219 4.867530822753906 C 48.20822143554688 2.964775085449219 43.42835235595703 2 38.5 2 M 38.5 0 C 59.76296234130859 0 77 17.23703384399414 77 38.5 C 77 59.76296234130859 59.76296234130859 77 38.5 77 C 17.23703384399414 77 0 59.76296234130859 0 38.5 C 0 17.23703384399414 17.23703384399414 0 38.5 0 Z" stroke="none" fill="#fff"/>
        </g>
        <g id="Layer_85" transform="translate(385.68 2553.84)">
          <g id="Grupo_67594" data-name="Grupo 67594" transform="translate(0 11.332)">
            <g id="Grupo_67545" data-name="Grupo 67545" transform="translate(2.899 3.229)">
              <g id="Grupo_67544" data-name="Grupo 67544">
                <path id="Trazado_125081" data-name="Trazado 125081" d="M52.32,34.962,37.5,49.783a1.106,1.106,0,1,1-1.565-1.565L50.755,33.4l-.877-2.191a22.569,22.569,0,1,0,4.633,4.632Z" transform="translate(-13.834 -26.745)" fill="#529ad9"/>
              </g>
            </g>
            <g id="Grupo_67547" data-name="Grupo 67547" transform="translate(38.059 0.524)">
              <g id="Grupo_67546" data-name="Grupo 67546">
                <path id="Trazado_125082" data-name="Trazado 125082" d="M188.622,17.965l-1.456-3.64a.782.782,0,0,0-1.279-.262l-4.023,4.023a.782.782,0,0,0-.173.843l1.705,4.262Z" transform="translate(-181.634 -13.834)" fill="#f5c84c"/>
              </g>
            </g>
            <g id="Grupo_67549" data-name="Grupo 67549" transform="translate(41.384 6.22)">
              <g id="Grupo_67548" data-name="Grupo 67548" transform="translate(0 0)">
                <path id="Trazado_125083" data-name="Trazado 125083" d="M202.733,41.018l-5.226,5.226,4.262,1.705a.782.782,0,0,0,.843-.173l4.023-4.023a.782.782,0,0,0-.262-1.279Z" transform="translate(-197.507 -41.018)" fill="#f5c84c"/>
              </g>
            </g>
            <g id="Grupo_67551" data-name="Grupo 67551" transform="translate(7.333 7.665)">
              <g id="Grupo_67550" data-name="Grupo 67550" transform="translate(0 0)">
                <path id="Trazado_125084" data-name="Trazado 125084" d="M54.226,66.515a1.106,1.106,0,0,1-1.565-1.565L65.152,52.459a18.144,18.144,0,1,0,1.565,1.565Z" transform="translate(-34.995 -47.911)" fill="#edf4fc"/>
              </g>
            </g>
            <g id="Grupo_67553" data-name="Grupo 67553" transform="translate(11.756 12.088)">
              <g id="Grupo_67552" data-name="Grupo 67552">
                <path id="Trazado_125085" data-name="Trazado 125085" d="M70.912,83.2a1.106,1.106,0,0,1-1.565-1.565L78.7,72.286a13.719,13.719,0,1,0,1.565,1.565Z" transform="translate(-56.105 -69.024)" fill="#529ad9"/>
              </g>
            </g>
            <g id="Grupo_67555" data-name="Grupo 67555" transform="translate(16.179 16.511)">
              <g id="Grupo_67554" data-name="Grupo 67554">
                <path id="Trazado_125086" data-name="Trazado 125086" d="M87.6,99.887a1.106,1.106,0,0,1-1.565-1.565l6.21-6.21a9.293,9.293,0,1,0,1.565,1.565Z" transform="translate(-77.214 -90.131)" fill="#edf4fc"/>
              </g>
            </g>
            <g id="Grupo_67557" data-name="Grupo 67557" transform="translate(20.602 20.934)">
              <g id="Grupo_67556" data-name="Grupo 67556">
                <path id="Trazado_125087" data-name="Trazado 125087" d="M107.324,113.534l-3.038,3.038a1.106,1.106,0,0,1-1.565-1.565l3.038-3.038a4.868,4.868,0,1,0,1.565,1.564Z" transform="translate(-98.324 -111.239)" fill="#fc657e"/>
              </g>
            </g>
            <g id="Grupo_67560" data-name="Grupo 67560" transform="translate(24.674 3.726)">
              <g id="Grupo_67559" data-name="Grupo 67559">
                <g id="Grupo_67558" data-name="Grupo 67558">
                  <path id="Trazado_125088" data-name="Trazado 125088" d="M140.3,31.005,119.647,51.658a1.106,1.106,0,1,1-1.565-1.565l20.653-20.653a1.106,1.106,0,0,1,1.565,1.565Z" transform="translate(-117.758 -29.117)" fill="#5290db"/>
                </g>
              </g>
            </g>
            <g id="Grupo_67562" data-name="Grupo 67562" transform="translate(38.767 3.726)">
              <g id="Grupo_67561" data-name="Grupo 67561">
                <path id="Trazado_125089" data-name="Trazado 125089" d="M191.9,29.441l-6.884,6.884,1.565,1.565,6.884-6.884a1.106,1.106,0,0,0-1.565-1.565Z" transform="translate(-185.015 -29.117)" fill="#edf4fc"/>
              </g>
            </g>
            <g id="Grupo_67564" data-name="Grupo 67564" transform="translate(2.386 2.706)">
              <g id="Grupo_67563" data-name="Grupo 67563">
                <path id="Trazado_125090" data-name="Trazado 125090" d="M34.468,70.42A23.088,23.088,0,1,1,48.241,28.8a.524.524,0,0,1-.626.84A22.043,22.043,0,1,0,52.174,34.2a.524.524,0,0,1,.841-.625A23.082,23.082,0,0,1,34.468,70.42Z" transform="translate(-11.386 -24.245)"/>
              </g>
            </g>
            <g id="Grupo_67566" data-name="Grupo 67566" transform="translate(37.534)">
              <g id="Grupo_67565" data-name="Grupo 67565">
                <path id="Trazado_125091" data-name="Trazado 125091" d="M181.389,21.668a.524.524,0,0,1-.487-.329l-1.677-4.191a1.3,1.3,0,0,1,.289-1.408l4.023-4.023a1.306,1.306,0,0,1,2.136.438l1.437,3.591a.524.524,0,0,1-.973.389L184.7,12.543a.258.258,0,0,0-.422-.087l-4.023,4.023a.258.258,0,0,0-.057.278l1.677,4.191a.524.524,0,0,1-.292.681A.516.516,0,0,1,181.389,21.668Z" transform="translate(-179.132 -11.332)"/>
              </g>
            </g>
            <g id="Grupo_67568" data-name="Grupo 67568" transform="translate(40.919 5.715)">
              <g id="Grupo_67567" data-name="Grupo 67567">
                <path id="Trazado_125092" data-name="Trazado 125092" d="M200.3,46.624a1.3,1.3,0,0,1-.485-.094l-4.2-1.682a.524.524,0,1,1,.389-.973l4.2,1.682a.258.258,0,0,0,.278-.057l4.023-4.023a.258.258,0,0,0-.087-.422l-3.592-1.437a.524.524,0,1,1,.389-.973l3.592,1.437a1.306,1.306,0,0,1,.439,2.136l-4.023,4.023A1.3,1.3,0,0,1,200.3,46.624Z" transform="translate(-195.285 -38.607)"/>
              </g>
            </g>
            <g id="Grupo_67570" data-name="Grupo 67570" transform="translate(49.758 13.341)">
              <g id="Grupo_67569" data-name="Grupo 67569">
                <path id="Trazado_125093" data-name="Trazado 125093" d="M241.318,76.861a2.326,2.326,0,0,1-1.864-1.826.042.042,0,0,0-.083,0,2.325,2.325,0,0,1-1.864,1.826.041.041,0,0,0,0,.081,2.326,2.326,0,0,1,1.864,1.827.042.042,0,0,0,.083,0,2.326,2.326,0,0,1,1.864-1.827A.041.041,0,0,0,241.318,76.861Z" transform="translate(-237.471 -75)" fill="#f5c84c"/>
              </g>
            </g>
            <g id="Grupo_67572" data-name="Grupo 67572" transform="translate(3.472 7.055)">
              <g id="Grupo_67571" data-name="Grupo 67571" transform="translate(0 0)">
                <path id="Trazado_125094" data-name="Trazado 125094" d="M19.96,46.641a2.05,2.05,0,0,1-1.643-1.61.037.037,0,0,0-.073,0,2.05,2.05,0,0,1-1.643,1.61.036.036,0,0,0,0,.071,2.05,2.05,0,0,1,1.643,1.61.037.037,0,0,0,.073,0,2.05,2.05,0,0,1,1.643-1.61A.036.036,0,0,0,19.96,46.641Z" transform="translate(-16.569 -45.001)" fill="#fc657e"/>
              </g>
            </g>
            <g id="Grupo_67574" data-name="Grupo 67574" transform="translate(1.317 39.532)">
              <g id="Grupo_67573" data-name="Grupo 67573">
                <path id="Trazado_125095" data-name="Trazado 125095" d="M6.946,201.15h.488v-.488a.661.661,0,1,1,1.323,0v.488h.488a.661.661,0,0,1,0,1.323H8.758v.488a.661.661,0,1,1-1.323,0v-.488H6.946a.661.661,0,1,1,0-1.323Z" transform="translate(-6.285 -200)" fill="#70d6f9"/>
              </g>
            </g>
            <g id="Grupo_67576" data-name="Grupo 67576" transform="translate(50.151 20.726)">
              <g id="Grupo_67575" data-name="Grupo 67575">
                <circle id="Elipse_4818" data-name="Elipse 4818" cx="0.708" cy="0.708" r="0.708" fill="#87d147"/>
              </g>
            </g>
            <g id="Grupo_67578" data-name="Grupo 67578" transform="translate(0 34.345)">
              <g id="Grupo_67577" data-name="Grupo 67577">
                <circle id="Elipse_4819" data-name="Elipse 4819" cx="0.708" cy="0.708" r="0.708" fill="#f5c84c"/>
              </g>
            </g>
            <g id="Grupo_67580" data-name="Grupo 67580" transform="translate(8.8 3.963)">
              <g id="Grupo_67579" data-name="Grupo 67579">
                <circle id="Elipse_4820" data-name="Elipse 4820" cx="0.708" cy="0.708" r="0.708" fill="#70d6f9"/>
              </g>
            </g>
            <g id="Grupo_67582" data-name="Grupo 67582" transform="translate(6.809 7.153)">
              <g id="Grupo_67581" data-name="Grupo 67581" transform="translate(0 0)">
                <path id="Trazado_125096" data-name="Trazado 125096" d="M51.153,82.774A18.663,18.663,0,1,1,63.377,50.009a.524.524,0,1,1-.687.791,17.619,17.619,0,1,0,1.745,1.74.524.524,0,0,1,.789-.689A18.657,18.657,0,0,1,51.153,82.774Z" transform="translate(-32.494 -45.469)"/>
              </g>
            </g>
            <g id="Grupo_67584" data-name="Grupo 67584" transform="translate(11.232 11.564)">
              <g id="Grupo_67583" data-name="Grupo 67583">
                <path id="Trazado_125097" data-name="Trazado 125097" d="M67.841,94.992a14.235,14.235,0,1,1,9.086-25.2.524.524,0,1,1-.669.806,13.179,13.179,0,1,0,1.73,1.728.524.524,0,0,1,.805-.67A14.233,14.233,0,0,1,67.841,94.992Z" transform="translate(-53.605 -66.522)"/>
              </g>
            </g>
            <g id="Grupo_67586" data-name="Grupo 67586" transform="translate(15.655 15.989)">
              <g id="Grupo_67585" data-name="Grupo 67585">
                <path id="Trazado_125098" data-name="Trazado 125098" d="M84.527,107.261A9.815,9.815,0,1,1,90.51,89.668a.524.524,0,0,1-.639.83,8.77,8.77,0,1,0,1.615,1.618.524.524,0,1,1,.831-.638,9.811,9.811,0,0,1-7.79,15.784Z" transform="translate(-74.714 -87.639)"/>
              </g>
            </g>
            <g id="Grupo_67588" data-name="Grupo 67588" transform="translate(20.079 20.404)">
              <g id="Grupo_67587" data-name="Grupo 67587">
                <path id="Trazado_125099" data-name="Trazado 125099" d="M101.214,119.495a5.39,5.39,0,1,1,2.791-10,.524.524,0,0,1-.542.9,4.344,4.344,0,1,0,1.48,1.489.524.524,0,1,1,.9-.537,5.388,5.388,0,0,1-4.628,8.153Z" transform="translate(-95.825 -108.712)"/>
              </g>
            </g>
            <g id="Grupo_67591" data-name="Grupo 67591" transform="translate(24.151 3.203)">
              <g id="Grupo_67590" data-name="Grupo 67590">
                <g id="Grupo_67589" data-name="Grupo 67589">
                  <path id="Trazado_125100" data-name="Trazado 125100" d="M116.889,50.529a1.629,1.629,0,0,1-1.153-2.782l20.653-20.653a1.63,1.63,0,1,1,2.305,2.305L118.042,50.052A1.625,1.625,0,0,1,116.889,50.529Zm20.653-22.865a.579.579,0,0,0-.412.171L116.477,48.488a.583.583,0,0,0,.824.824l20.652-20.653a.583.583,0,0,0-.412-.994Z" transform="translate(-115.259 -26.617)"/>
                </g>
              </g>
            </g>
            <g id="Grupo_67593" data-name="Grupo 67593" transform="translate(38.322 10.49)">
              <g id="Grupo_67592" data-name="Grupo 67592">
                <path id="Trazado_125101" data-name="Trazado 125101" d="M184.812,63.84a.523.523,0,0,1-.37-.153l-1.4-1.4a.524.524,0,0,1,.741-.741l1.4,1.4a.524.524,0,0,1-.37.894Z" transform="translate(-182.89 -61.395)"/>
              </g>
            </g>
          </g>
        </g>
      </g>
      <g id="Elipse_4860" data-name="Elipse 4860" transform="translate(451 1352)" fill="#fff" stroke="#494b0f" stroke-width="2">
        <circle cx="19" cy="19" r="19" stroke="none"/>
        <circle cx="19" cy="19" r="18" fill="none"/>
      </g>
      <path id="Trazado_126964" data-name="Trazado 126964" d="M5,0H-4.922V-2.148l4.57-4.8Q1.338-8.877,1.338-10.01a2.126,2.126,0,0,0-.4-1.4,1.43,1.43,0,0,0-1.162-.479,1.447,1.447,0,0,0-1.221.64,2.629,2.629,0,0,0-.469,1.6h-3.3a4.67,4.67,0,0,1,.654-2.417A4.588,4.588,0,0,1-2.744-13.8a5.4,5.4,0,0,1,2.6-.625A5.308,5.308,0,0,1,3.4-13.359,3.8,3.8,0,0,1,4.648-10.3a4.439,4.439,0,0,1-.312,1.636A7.173,7.173,0,0,1,3.364-7,24.476,24.476,0,0,1,1.24-4.658L-.6-2.539H5Z" transform="translate(470 1377)" fill="#12263f"/>
    </g>
    <g id="Grupo_68018" data-name="Grupo 68018" transform="translate(0 1)">
      <g id="Grupo_68008" data-name="Grupo 68008" transform="translate(-16 -263)">
        <g id="Rectángulo_7685" data-name="Rectángulo 7685" transform="translate(593 1662)" fill="#529ad9" stroke="#fff" stroke-width="2">
          <rect width="77" height="77" rx="38.5" stroke="none"/>
          <rect x="1" y="1" width="75" height="75" rx="37.5" fill="none"/>
        </g>
        <g id="lupa" transform="translate(607.914 1680.82)">
          <g id="Grupo_67950" data-name="Grupo 67950" transform="translate(8.103 -4.649)">
            <g id="Grupo_67936" data-name="Grupo 67936" transform="translate(2.348 32.103)">
              <g id="Grupo_67935" data-name="Grupo 67935">
                <path id="Trazado_126875" data-name="Trazado 126875" d="M113.287,336.231l-2.91,2.91,3.25,3.25,2.91-2.911" transform="translate(-110.377 -336.231)" fill="#ffcb7c"/>
              </g>
            </g>
            <g id="Grupo_67937" data-name="Grupo 67937" transform="translate(1.374 1.38)">
              <ellipse id="Elipse_4843" data-name="Elipse 4843" cx="18.925" cy="18.928" rx="18.925" ry="18.928" fill="#e5dec1"/>
            </g>
            <g id="Grupo_67949" data-name="Grupo 67949" transform="translate(0 0)">
              <g id="Grupo_67943" data-name="Grupo 67943">
                <g id="Grupo_67942" data-name="Grupo 67942">
                  <g id="Grupo_67939" data-name="Grupo 67939">
                    <g id="Grupo_67938" data-name="Grupo 67938">
                      <ellipse id="Elipse_4844" data-name="Elipse 4844" cx="14.393" cy="14.379" rx="14.393" ry="14.379" transform="matrix(0.658, -0.753, 0.753, 0.658, 0, 21.676)" fill="#e5ecec"/>
                    </g>
                  </g>
                  <g id="Grupo_67941" data-name="Grupo 67941" transform="translate(33.741 19.708)">
                    <g id="Grupo_67940" data-name="Grupo 67940">
                      <path id="Trazado_126876" data-name="Trazado 126876" d="M444.651,206.493a.942.942,0,1,1,.926-.773A.951.951,0,0,1,444.651,206.493Z" transform="translate(-443.711 -204.612)"/>
                    </g>
                  </g>
                </g>
              </g>
              <g id="Grupo_67948" data-name="Grupo 67948" transform="translate(13.347 9.662)">
                <g id="Grupo_67946" data-name="Grupo 67946" transform="translate(0.31)">
                  <g id="Grupo_67944" data-name="Grupo 67944" transform="translate(0.943 0.937)">
                    <ellipse id="Elipse_4845" data-name="Elipse 4845" cx="5.703" cy="5.702" rx="5.703" ry="5.702" transform="translate(0 11.406) rotate(-89.885)" fill="#ffcbbe"/>
                  </g>
                  <g id="Grupo_67945" data-name="Grupo 67945">
                    <path id="Trazado_126877" data-name="Trazado 126877" d="M237.1,111.231a6.645,6.645,0,1,1,6.644-6.645A6.652,6.652,0,0,1,237.1,111.231Zm0-11.406a4.761,4.761,0,1,0,4.761,4.761A4.766,4.766,0,0,0,237.1,99.825Z" transform="translate(-230.451 -97.941)"/>
                  </g>
                </g>
                <g id="Grupo_67947" data-name="Grupo 67947" transform="translate(0 15.395)">
                  <path id="Trazado_126878" data-name="Trazado 126878" d="M241.067,263.312v5.942a14.413,14.413,0,0,1-13.908.014v-5.956a1.9,1.9,0,0,1,1.9-1.9h10.106A1.9,1.9,0,0,1,241.067,263.312Z" transform="translate(-227.159 -261.411)" fill="#f5737f"/>
                </g>
              </g>
            </g>
          </g>
          <g id="Grupo_67955" data-name="Grupo 67955" transform="translate(0.062 -4.211)">
            <g id="Grupo_67951" data-name="Grupo 67951" transform="translate(0.939 36.199)">
              <path id="Trazado_126879" data-name="Trazado 126879" d="M15.633,384.371l-4.461,4.461a3.876,3.876,0,0,0,5.481,5.482l4.461-4.461Z" transform="translate(-10.037 -384.371)" fill="#ffd89e"/>
            </g>
            <g id="Grupo_67954" data-name="Grupo 67954" transform="translate(0)">
              <g id="Grupo_67952" data-name="Grupo 67952" transform="translate(6.532 33.456)">
                <path id="Trazado_126880" data-name="Trazado 126880" d="M0,0H3.873V7.752H0Z" transform="translate(0 2.738) rotate(-45)" fill="#9bc6ff"/>
              </g>
              <g id="Grupo_67953" data-name="Grupo 67953">
                <path id="Trazado_126881" data-name="Trazado 126881" d="M167.541,67.411a.941.941,0,0,0-1.2.579,13.346,13.346,0,0,1-3.191,5.074,13.583,13.583,0,0,1-1.6,1.373V70.21a2.846,2.846,0,0,0-2.843-2.843H148.6a2.846,2.846,0,0,0-2.843,2.843v4.243a13.449,13.449,0,0,1-1.6-20.394,13.368,13.368,0,0,1,9.508-3.943h.007a13.437,13.437,0,0,1,12.7,9.044.942.942,0,0,0,1.781-.613,15.321,15.321,0,0,0-14.478-10.315h-.007A15.336,15.336,0,0,0,146.24,76.99h0a15.345,15.345,0,0,0,7.394,1.9h.015a15.363,15.363,0,0,0,7.408-1.913h0a15.4,15.4,0,0,0,7.06-8.366A.941.941,0,0,0,167.541,67.411Zm-19.9,8.186V70.21a.96.96,0,0,1,.959-.96H158.7a.961.961,0,0,1,.959.96v5.374A13.556,13.556,0,0,1,147.637,75.6Z" transform="translate(-125.308 -43.69)"/>
                <path id="Trazado_126882" data-name="Trazado 126882" d="M28.4,0A19.861,19.861,0,0,0,12.257,31.437l-1.806,1.807L10,32.794a.942.942,0,0,0-1.332,0L5.931,35.533h0l-4.46,4.46a4.818,4.818,0,1,0,6.813,6.813l4.461-4.461h0l2.739-2.739a.942.942,0,0,0,0-1.332l-.45-.45,1.807-1.807A19.866,19.866,0,1,0,28.4,0ZM6.951,45.476A2.934,2.934,0,0,1,2.8,41.326l3.795-3.8L8.669,39.6l2.077,2.077Zm5.127-5.127-2.072-2.073L7.929,36.2l1.407-1.407,4.149,4.15ZM13.7,36.494l-.959-.959-.96-.96,1.653-1.653a20.045,20.045,0,0,0,1.918,1.918Zm14.7,1.362A17.986,17.986,0,1,1,46.385,19.87,18.005,18.005,0,0,1,28.4,37.856Z" transform="translate(-0.062)"/>
              </g>
            </g>
          </g>
        </g>
      </g>
      <g id="Elipse_4861" data-name="Elipse 4861" transform="translate(566 1389)" fill="#fff" stroke="#494b0f" stroke-width="2">
        <circle cx="19" cy="19" r="19" stroke="none"/>
        <circle cx="19" cy="19" r="18" fill="none"/>
      </g>
      <path id="Trazado_126965" data-name="Trazado 126965" d="M-1.914-8.486H-.361a1.614,1.614,0,0,0,1.846-1.807,1.562,1.562,0,0,0-.439-1.147A1.666,1.666,0,0,0-.2-11.885a1.784,1.784,0,0,0-1.138.381,1.162,1.162,0,0,0-.483.947H-5.107a3.369,3.369,0,0,1,.625-2,4.127,4.127,0,0,1,1.733-1.372,5.926,5.926,0,0,1,2.437-.493,5.823,5.823,0,0,1,3.73,1.084,3.6,3.6,0,0,1,1.357,2.979,3,3,0,0,1-.562,1.733A4,4,0,0,1,2.578-7.3,3.823,3.823,0,0,1,4.355-6.06,3.279,3.279,0,0,1,5-3.994,3.669,3.669,0,0,1,3.535-.947,6.08,6.08,0,0,1-.312.2,6.306,6.306,0,0,1-2.905-.337,4.062,4.062,0,0,1-4.717-1.812a3.834,3.834,0,0,1-.615-2.144h3.311a1.482,1.482,0,0,0,.527,1.133,1.862,1.862,0,0,0,1.3.479,1.95,1.95,0,0,0,1.387-.483,1.616,1.616,0,0,0,.518-1.235,1.889,1.889,0,0,0-.537-1.523A2.245,2.245,0,0,0-.312-6.035h-1.6Z" transform="translate(585 1414)" fill="#12263f"/>
    </g>
    <g id="Grupo_68019" data-name="Grupo 68019" transform="translate(0 7)">
      <g id="Grupo_68009" data-name="Grupo 68009" transform="translate(34 -383)">
        <g id="Rectángulo_7687" data-name="Rectángulo 7687" transform="translate(660 1798)" fill="#529ad9" stroke="#fff" stroke-width="2">
          <rect width="77" height="77" rx="38.5" stroke="none"/>
          <rect x="1" y="1" width="75" height="75" rx="37.5" fill="none"/>
        </g>
        <g id="mapa" transform="translate(674.171 1812.172)">
          <path id="Trazado_126883" data-name="Trazado 126883" d="M54.713,342.78H7.478L14.492,325.8H47.7Z" transform="translate(-6.767 -294.84)" fill="#ffd89e"/>
          <path id="Trazado_126884" data-name="Trazado 126884" d="M406.355,325.8H403.8l7.014,16.979h2.558Z" transform="translate(-365.423 -294.84)" fill="#f5737f"/>
          <path id="Trazado_126885" data-name="Trazado 126885" d="M81.121,335.279,79.562,331.5H61.1l-6.522-5.7h-4.2l-2.356,5.7H41.642l-1.559,3.775H46.46l-3.1,7.5h4.2l5.224-12.647L67.653,342.78h6.338l-8.577-7.5Z" transform="translate(-36.273 -294.84)" fill="#ffdb56"/>
          <path id="Trazado_126886" data-name="Trazado 126886" d="M430.148,389.592h2.558l-1.559-3.775h-2.558Z" transform="translate(-387.859 -349.152)" fill="#ffbb24"/>
          <g id="Grupo_67956" data-name="Grupo 67956" transform="translate(5.369 30.961)">
            <path id="Trazado_126887" data-name="Trazado 126887" d="M62.868,331.5H56.491l2.356-5.7h6.377Z" transform="translate(-56.491 -325.801)" fill="#e5dec1"/>
            <path id="Trazado_126888" data-name="Trazado 126888" d="M217.576,331.5H199.112l-6.522-5.7h22.63Z" transform="translate(-179.656 -325.801)" fill="#e5dec1"/>
          </g>
          <path id="Trazado_126889" data-name="Trazado 126889" d="M408.711,331.5l-2.356-5.7H403.8l2.356,5.7Z" transform="translate(-365.423 -294.84)" fill="#44c868"/>
          <path id="Trazado_126890" data-name="Trazado 126890" d="M124.01,371.389l-5.224,12.647h20.091Z" transform="translate(-107.497 -336.095)" fill="#f0f0f0"/>
          <path id="Trazado_126891" data-name="Trazado 126891" d="M116.6,7.534a14.694,14.694,0,0,0-14.639,14.749c0,12.4,14.639,23.817,14.639,23.817s14.639-11.413,14.639-23.817A14.694,14.694,0,0,0,116.6,7.534Zm0,20.631a5.883,5.883,0,1,1,5.839-5.882A5.861,5.861,0,0,1,116.6,28.165Z" transform="translate(-92.271 -6.818)" fill="#f5c84c"/>
          <path id="Trazado_126892" data-name="Trazado 126892" d="M243.819,7.534c-.431,0-.857.02-1.279.057A14.706,14.706,0,0,1,255.9,22.283c0,10.147-9.795,19.629-13.359,22.745.793.693,1.279,1.072,1.279,1.072s14.639-11.413,14.639-23.817A14.694,14.694,0,0,0,243.819,7.534Z" transform="translate(-219.491 -6.818)" fill="#e7343f"/>
          <path id="Trazado_126893" data-name="Trazado 126893" d="M193.633,106.494a6.6,6.6,0,0,0,0-13.2,6.479,6.479,0,0,0-3.709,1.159.719.719,0,0,0-.183,1,.707.707,0,0,0,.988.184,5.071,5.071,0,0,1,2.9-.907,5.152,5.152,0,1,1-4.552,2.785.719.719,0,0,0-.3-.966.708.708,0,0,0-.958.3,6.657,6.657,0,0,0-.736,3.042A6.582,6.582,0,0,0,193.633,106.494Z" transform="translate(-169.305 -84.431)"/>
          <path id="Trazado_126894" data-name="Trazado 126894" d="M48.6,47.665,41.588,30.686h0a.71.71,0,0,0-.656-.441H33.943a36.241,36.241,0,0,0,3.375-5.511,21.245,21.245,0,0,0,2.36-9.27,15.35,15.35,0,1,0-30.7,0,21.245,21.245,0,0,0,2.36,9.27,36.221,36.221,0,0,0,3.375,5.511H7.725a.71.71,0,0,0-.656.441L2.289,42.256a.718.718,0,0,0,.383.936.707.707,0,0,0,.929-.386l.682-1.651H9.121L6.614,47.224H1.777L2.5,45.465a.718.718,0,0,0-.383-.936.708.708,0,0,0-.929.386L.055,47.665a.72.72,0,0,0,.065.672.709.709,0,0,0,.591.319H47.946a.709.709,0,0,0,.591-.319A.721.721,0,0,0,48.6,47.665Zm-38.2-32.2a13.928,13.928,0,1,1,27.856,0c0,3.245-1.119,8.43-6.3,15.037l-.015.019q-.4.506-.825,1.022a54.674,54.674,0,0,1-6.793,6.819,54.589,54.589,0,0,1-6.774-6.8q-.44-.529-.845-1.046L16.7,30.5C11.52,23.9,10.4,18.711,10.4,15.465ZM8.2,31.677h4.838l-1.765,4.271H6.434Zm4.156,15.547L16.8,36.472,29.437,47.224Zm19.286,0L16.972,34.747a.708.708,0,0,0-1.114.272L10.815,47.224H8.154l2.689-6.51a.72.72,0,0,0-.065-.672.709.709,0,0,0-.591-.319H4.875l.968-2.343h5.9a.71.71,0,0,0,.656-.441l2.174-5.263h1.233q.321.4.655.807a53.616,53.616,0,0,0,7.429,7.364.707.707,0,0,0,.87,0c.084-.065,1.212-.951,2.82-2.467h8.047a.716.716,0,0,0,0-1.432H29.048c.985-1,2.062-2.162,3.145-3.465q.335-.4.655-.807h7.61l1.764,4.271h-3.75a.716.716,0,0,0,0,1.432h4.341l.968,2.343H29.14a.711.711,0,0,0-.666.465.72.72,0,0,0,.2.791l7.14,6.244Zm6.343,0-6.94-6.069h13.33l2.507,6.069Z" transform="translate(0)"/>
        </g>
      </g>
      <g id="Elipse_4862" data-name="Elipse 4862" transform="translate(681 1408)" fill="#fff" stroke="#494b0f" stroke-width="2">
        <circle cx="19" cy="19" r="19" stroke="none"/>
        <circle cx="19" cy="19" r="18" fill="none"/>
      </g>
      <path id="Trazado_126966" data-name="Trazado 126966" d="M3.77-5.557H5.215v2.539H3.77V0H.479V-3.018h-5.5l-.2-2.012,5.693-9.16v-.029H3.77Zm-5.85,0H.479V-9.932L.273-9.6Z" transform="translate(700 1433)" fill="#12263f"/>
    </g>
    <g id="Grupo_68020" data-name="Grupo 68020" transform="translate(-8)">
      <g id="Grupo_68010" data-name="Grupo 68010" transform="translate(-22 -94)">
        <g id="Rectángulo_7688" data-name="Rectángulo 7688" transform="translate(852 1509)" fill="#529ad9" stroke="#fff" stroke-width="2">
          <rect width="77" height="77" rx="38.5" stroke="none"/>
          <rect x="1" y="1" width="75" height="75" rx="37.5" fill="none"/>
        </g>
        <g id="trabajo-en-progreso" transform="translate(799.155 1517.383)">
          <g id="Grupo_67960" data-name="Grupo 67960" transform="translate(72.271 0.841)">
            <g id="Grupo_67958" data-name="Grupo 67958" transform="translate(0 16.458)">
              <g id="Grupo_67957" data-name="Grupo 67957">
                <path id="Trazado_126895" data-name="Trazado 126895" d="M110.661,188.9l5.129-5.1-2.112-3.8a16.388,16.388,0,0,0,1.252-2.952l4.266-1.224V168.6l-4.2-1.2a16.4,16.4,0,0,0-1.21-2.969l2.146-3.866-5.129-5.1-3.823,2.1a16.572,16.572,0,0,0-2.966-1.246l-1.23-4.245H95.533l-1.21,4.178a16.572,16.572,0,0,0-2.983,1.2l-3.885-2.136-5.129,5.1,2.112,3.8a16.4,16.4,0,0,0-1.252,2.952L78.918,168.4v7.218l4.2,1.2a16.4,16.4,0,0,0,1.21,2.969l-2.146,3.866,5.129,5.1,3.823-2.1A16.571,16.571,0,0,0,94.1,187.9l1.23,4.245h7.254l1.21-4.178a16.573,16.573,0,0,0,2.983-1.2Zm-3.782-9.011a11.112,11.112,0,0,1-15.643,0,10.982,10.982,0,0,1,0-15.567,11.112,11.112,0,0,1,15.643,0A10.982,10.982,0,0,1,106.879,179.893Z" transform="translate(-78.918 -152.069)" fill="#529ad9"/>
              </g>
            </g>
            <g id="Grupo_67959" data-name="Grupo 67959" transform="translate(15.239)">
              <path id="Trazado_126896" data-name="Trazado 126896" d="M212.871,21.144l4.9,7.356,4.9-7.356L217.771,7.4Z" transform="translate(-212.871 -7.397)" fill="#eef5f6"/>
              <path id="Trazado_126897" data-name="Trazado 126897" d="M250.266,7.4l-.024,19.813-.706.191.732,1.1,4.9-7.356Z" transform="translate(-245.366 -7.397)" fill="#eef5f6"/>
              <path id="Trazado_126898" data-name="Trazado 126898" d="M222.67,128.236l-1.5,1.456a1.366,1.366,0,0,1-1.906,0l-1.5-1.456h-.015l-1.5,1.457a1.366,1.366,0,0,1-1.9,0l-1.487-1.445v32.608a11.164,11.164,0,0,0,9.8,0V128.236Z" transform="translate(-212.871 -114.489)" fill="#ffe177"/>
              <path id="Trazado_126899" data-name="Trazado 126899" d="M237.709,13.22,239.781,7.4l2.075,5.821a2.729,2.729,0,0,1-4.148,0l0,0" transform="translate(-234.881 -7.396)" fill="#2abcc8"/>
              <path id="Trazado_126900" data-name="Trazado 126900" d="M255.741,161.989V128.246l1.522,1.46a1.366,1.366,0,0,0,1.9-.007l1.5-1.464v32.621A11.535,11.535,0,0,1,255.741,161.989Z" transform="translate(-250.864 -114.488)" fill="#fea713"/>
            </g>
          </g>
          <g id="Grupo_67961" data-name="Grupo 67961" transform="translate(92.387 0.841)">
            <path id="Trazado_126901" data-name="Trazado 126901" d="M255.764,7.4l-.024.066v6.712a2.717,2.717,0,0,0,2.1-.957L255.764,7.4Z" transform="translate(-255.74 -7.397)" fill="#0cacba"/>
          </g>
          <path id="Trazado_126902" data-name="Trazado 126902" d="M112.785,33.013l-3.756-1.078a17.344,17.344,0,0,0-.921-2.258l1.926-3.469a.853.853,0,0,0-.144-1.019l-5.129-5.1a.853.853,0,0,0-1.013-.143l-3.423,1.881a17.49,17.49,0,0,0-2.161-.915V14.6a.857.857,0,0,0-.055-.319L93.214.555a.859.859,0,0,0-1.607,0L86.706,14.3a.853.853,0,0,0-.05.3v6.3a17.494,17.494,0,0,0-1.948.809L81.218,19.8a.853.853,0,0,0-1.013.143l-5.129,5.1a.853.853,0,0,0-.144,1.019l1.888,3.4a17.315,17.315,0,0,0-.952,2.246l-3.832,1.1a.853.853,0,0,0-.618.82v7.218a.853.853,0,0,0,.618.82l3.756,1.078A17.336,17.336,0,0,0,76.713,45l-1.926,3.469a.853.853,0,0,0,.144,1.019l5.129,5.1a.853.853,0,0,0,1.013.143L84.5,52.858a17.473,17.473,0,0,0,2.262.95l1.1,3.811a.853.853,0,0,0,.82.616h7.254a.853.853,0,0,0,.82-.616l1.082-3.736a17.485,17.485,0,0,0,2.275-.919l3.491,1.919a.853.853,0,0,0,1.013-.143l5.129-5.1a.853.853,0,0,0,.144-1.019L108,45.216a17.317,17.317,0,0,0,.952-2.246l3.832-1.1a.853.853,0,0,0,.618-.82V33.833a.853.853,0,0,0-.618-.82ZM94.963,47.167a10.348,10.348,0,0,1-1.72.285c.021-7,.02-14.081,0-21.047a.853.853,0,0,0-1.706.005c.023,6.964.024,14.037,0,21.038a10.342,10.342,0,0,1-3.173-.788V21.537q0-.011,0-.021v-4.9l.039.038a2.207,2.207,0,0,0,3.095,0l.052-.05c.006,1.536,0,3.075-.015,4.66a.853.853,0,0,0,1.706.018c.016-1.593.021-3.14.015-4.684l.058.057a2.207,2.207,0,0,0,3.1,0l.049-.047V27.456c0,.01,0,.02,0,.031V46.657a10.27,10.27,0,0,1-1.495.51ZM82.869,40.949a10.132,10.132,0,0,1,3.787-12V45.729a10.174,10.174,0,0,1-3.787-4.78ZM90.742,8.061a3.6,3.6,0,0,0,3.336,0l2.245,6.3-1.1,1.075a.51.51,0,0,1-.715,0l-1.5-1.456a.933.933,0,0,0-1.223.017l-1.479,1.44a.51.51,0,0,1-.715,0l-1.1-1.066ZM92.41,3.382l1.084,3.039a1.905,1.905,0,0,1-2.167,0ZM111.7,40.408l-3.648,1.047a.853.853,0,0,0-.579.565,15.577,15.577,0,0,1-1.187,2.8.853.853,0,0,0,0,.822l1.8,3.24-4.219,4.2-3.325-1.828a.853.853,0,0,0-.806-.009,15.754,15.754,0,0,1-2.83,1.142.854.854,0,0,0-.578.581l-1.032,3.562H89.323L88.271,52.9a.854.854,0,0,0-.567-.578,15.744,15.744,0,0,1-2.813-1.182.854.854,0,0,0-.816,0l-3.263,1.794-4.219-4.2,1.833-3.3a.853.853,0,0,0,.009-.812,15.6,15.6,0,0,1-1.147-2.815.853.853,0,0,0-.582-.577L73.124,40.2V34.272l3.648-1.047a.853.853,0,0,0,.579-.565,15.581,15.581,0,0,1,1.187-2.8.853.853,0,0,0,0-.822l-1.8-3.241,4.219-4.2,3.325,1.828a.853.853,0,0,0,.806.009,15.714,15.714,0,0,1,1.57-.712v4.228a11.849,11.849,0,0,0,5.681,22.241,11.7,11.7,0,0,0,8.585-3.555.853.853,0,0,0-1.216-1.2,10.146,10.146,0,0,1-1.543,1.283V28.954a10.246,10.246,0,0,1,4.017,11.322.854.854,0,0,0,1.634.493,11.968,11.968,0,0,0-5.651-13.815V22.725a15.674,15.674,0,0,1,1.766.816.854.854,0,0,0,.816,0l3.263-1.794,4.219,4.2-1.833,3.3a.853.853,0,0,0-.009.812,15.6,15.6,0,0,1,1.147,2.815.853.853,0,0,0,.582.577l3.58,1.027v5.932Z" transform="translate(0 0)"/>
        </g>
      </g>
      <g id="Elipse_4863" data-name="Elipse 4863" transform="translate(822 1408)" fill="#fff" stroke="#494b0f" stroke-width="2">
        <circle cx="19" cy="19" r="19" stroke="none"/>
        <circle cx="19" cy="19" r="18" fill="none"/>
      </g>
      <path id="Trazado_126967" data-name="Trazado 126967" d="M-4.727-6.953l.869-7.266H4.453v2.559H-1.182L-1.5-8.838A3.892,3.892,0,0,1-.581-9.2,4.228,4.228,0,0,1,.537-9.355,4.171,4.171,0,0,1,3.794-8.1,5.055,5.055,0,0,1,4.932-4.58,5.046,5.046,0,0,1,4.321-2.1,4.2,4.2,0,0,1,2.607-.4,5.411,5.411,0,0,1,0,.2,5.818,5.818,0,0,1-2.51-.356,4.5,4.5,0,0,1-4.346-1.87,3.68,3.68,0,0,1-5-4.043h3.3A1.873,1.873,0,0,0-1.2-2.8,1.579,1.579,0,0,0-.02-2.344q1.66,0,1.66-2.461,0-2.275-2.031-2.275a2.025,2.025,0,0,0-1.719.742Z" transform="translate(841 1433)" fill="#12263f"/>
    </g>
    <g id="Grupo_68021" data-name="Grupo 68021" transform="translate(-9)">
      <g id="Grupo_68011" data-name="Grupo 68011" transform="translate(6 -141)">
        <g id="Rectángulo_7689" data-name="Rectángulo 7689" transform="translate(940 1540)" fill="#529ad9" stroke="#fff" stroke-width="2">
          <rect width="77" height="77" rx="38.5" stroke="none"/>
          <rect x="1" y="1" width="75" height="75" rx="37.5" fill="none"/>
        </g>
        <g id="Layer_1" transform="translate(946.837 1543.612)">
          <g id="Grupo_67985" data-name="Grupo 67985" transform="translate(2.859 8.885)">
            <g id="Grupo_67980" data-name="Grupo 67980" transform="translate(0.546 0.546)">
              <g id="Grupo_67962" data-name="Grupo 67962" transform="translate(19.234 28.363)">
                <path id="Trazado_126903" data-name="Trazado 126903" d="M108.546,147.65a10.294,10.294,0,0,0-1.275,2.777l-2.2-1.011-9.4-4.314-2.2-1.011a10.294,10.294,0,0,0,1.275-2.777l2.2,1.011,9.4,4.314h0Z" transform="translate(-93.471 -141.315)" fill="#f0c020"/>
              </g>
              <g id="Grupo_67963" data-name="Grupo 67963" transform="translate(19.234 13.392)">
                <path id="Trazado_126904" data-name="Trazado 126904" d="M108.546,75.512l-2.2,1.011-9.4,4.314-2.2,1.011a10.294,10.294,0,0,0-1.275-2.777l2.2-1.011,9.4-4.313,2.2-1.011A10.281,10.281,0,0,0,108.546,75.512Z" transform="translate(-93.471 -72.735)" fill="#f0c020"/>
              </g>
              <g id="Grupo_67964" data-name="Grupo 67964" transform="translate(19.234 28.363)">
                <path id="Trazado_126905" data-name="Trazado 126905" d="M94.746,141.315l2.2,1.011a12.582,12.582,0,0,1-1.275,2.777l-2.2-1.011A10.307,10.307,0,0,0,94.746,141.315Z" transform="translate(-93.471 -141.315)" fill="#e6a71c"/>
              </g>
              <g id="Grupo_67965" data-name="Grupo 67965" transform="translate(19.234 18.717)">
                <path id="Trazado_126906" data-name="Trazado 126906" d="M94.746,100.912a10.294,10.294,0,0,0-1.275-2.777l2.2-1.011A12.692,12.692,0,0,1,96.946,99.9Z" transform="translate(-93.471 -97.125)" fill="#e6a71c"/>
              </g>
              <g id="Grupo_67966" data-name="Grupo 67966" transform="translate(0 14.971)">
                <path id="Trazado_126907" data-name="Trazado 126907" d="M15.824,100.891a10.463,10.463,0,1,1,8.771-16.169A10.463,10.463,0,0,1,15.824,100.891Z" transform="translate(-5.361 -79.965)" fill="#72c2e9"/>
              </g>
              <g id="Grupo_67967" data-name="Grupo 67967" transform="translate(30.834 13.392)">
                <path id="Trazado_126908" data-name="Trazado 126908" d="M150.086,75.512l-2.2,1.011a12.693,12.693,0,0,1-1.273-2.777l2.2-1.011A10.281,10.281,0,0,0,150.086,75.512Z" transform="translate(-146.611 -72.735)" fill="#e6a71c"/>
              </g>
              <g id="Grupo_67968" data-name="Grupo 67968" transform="translate(32.599)">
                <path id="Trazado_126909" data-name="Trazado 126909" d="M175.639,21.848a10.463,10.463,0,1,1-10.463-10.463A10.463,10.463,0,0,1,175.639,21.848Z" transform="translate(-154.694 -11.385)" fill="#f5c84c"/>
              </g>
              <g id="Grupo_67969" data-name="Grupo 67969" transform="translate(30.834 33.687)">
                <path id="Trazado_126910" data-name="Trazado 126910" d="M150.086,166.716a10.3,10.3,0,0,0-1.275,2.777l-2.2-1.011a12.537,12.537,0,0,1,1.275-2.777h0Z" transform="translate(-146.611 -165.705)" fill="#e6a71c"/>
              </g>
              <g id="Grupo_67970" data-name="Grupo 67970" transform="translate(32.606 29.941)">
                <path id="Trazado_126911" data-name="Trazado 126911" d="M175.665,159.008A10.464,10.464,0,1,1,165.2,148.545a10.463,10.463,0,0,1,10.463,10.463Z" transform="translate(-154.727 -148.545)" fill="#72c2e9"/>
              </g>
              <g id="Grupo_67971" data-name="Grupo 67971" transform="translate(4.669 23.846)">
                <circle id="Elipse_4846" data-name="Elipse 4846" cx="1.711" cy="1.711" r="1.711" fill="#f0c020"/>
              </g>
              <g id="Grupo_67972" data-name="Grupo 67972" transform="translate(11.221 19.989)">
                <circle id="Elipse_4847" data-name="Elipse 4847" cx="1.711" cy="1.711" r="1.711" fill="#f0c020"/>
              </g>
              <g id="Grupo_67973" data-name="Grupo 67973" transform="translate(11.221 27.269)">
                <circle id="Elipse_4848" data-name="Elipse 4848" cx="1.711" cy="1.711" r="1.711" fill="#f0c020"/>
              </g>
              <g id="Grupo_67974" data-name="Grupo 67974" transform="translate(37.286 8.876)">
                <circle id="Elipse_4849" data-name="Elipse 4849" cx="1.711" cy="1.711" r="1.711" fill="#f0c020"/>
              </g>
              <g id="Grupo_67975" data-name="Grupo 67975" transform="translate(43.839 5.018)">
                <circle id="Elipse_4850" data-name="Elipse 4850" cx="1.711" cy="1.711" r="1.711" fill="#f0c020"/>
              </g>
              <g id="Grupo_67976" data-name="Grupo 67976" transform="translate(43.839 12.298)">
                <circle id="Elipse_4851" data-name="Elipse 4851" cx="1.711" cy="1.711" r="1.711" fill="#f0c020"/>
              </g>
              <g id="Grupo_67977" data-name="Grupo 67977" transform="translate(37.286 38.817)">
                <circle id="Elipse_4852" data-name="Elipse 4852" cx="1.711" cy="1.711" r="1.711" fill="#f0c020"/>
              </g>
              <g id="Grupo_67978" data-name="Grupo 67978" transform="translate(43.839 34.96)">
                <circle id="Elipse_4853" data-name="Elipse 4853" cx="1.711" cy="1.711" r="1.711" fill="#f0c020"/>
              </g>
              <g id="Grupo_67979" data-name="Grupo 67979" transform="translate(43.839 42.24)">
                <circle id="Elipse_4854" data-name="Elipse 4854" cx="1.711" cy="1.711" r="1.711" fill="#f0c020"/>
              </g>
            </g>
            <g id="Grupo_67984" data-name="Grupo 67984" transform="translate(0 0)">
              <g id="Grupo_67981" data-name="Grupo 67981" transform="translate(4.575 19.545)">
                <path id="Trazado_126912" data-name="Trazado 126912" d="M30.25,113.724a8.871,8.871,0,0,1-3.175-.584.546.546,0,0,1,.389-1.02,7.784,7.784,0,0,0,8.288-12.768.546.546,0,0,1,.772-.772,8.881,8.881,0,0,1-6.274,15.144Zm-5.214-1.689a8.891,8.891,0,0,1-1.06-.906.546.546,0,0,1,.772-.772,7.816,7.816,0,0,0,.93.795.546.546,0,1,1-.641.883Z" transform="translate(-23.816 -98.42)" fill="#c5e5fe"/>
              </g>
              <g id="Grupo_67982" data-name="Grupo 67982" transform="translate(37.193 4.574)">
                <path id="Trazado_126913" data-name="Trazado 126913" d="M176.5,44.56a.546.546,0,0,1,.389-1.02c7.823,2.988,14.2-6.858,8.288-12.768a.546.546,0,0,1,.772-.772C192.676,36.732,185.418,47.964,176.5,44.56Zm-2.04-1.105a8.893,8.893,0,0,1-1.06-.906.546.546,0,0,1,.772-.772,7.817,7.817,0,0,0,.93.795.546.546,0,1,1-.641.883Z" transform="translate(-173.236 -29.84)" fill="#fff"/>
              </g>
              <g id="Grupo_67983" data-name="Grupo 67983" transform="translate(37.193 34.516)">
                <path id="Trazado_126914" data-name="Trazado 126914" d="M179.67,182.3a8.871,8.871,0,0,1-3.175-.584.546.546,0,1,1,.389-1.02,7.783,7.783,0,0,0,8.288-12.768.546.546,0,0,1,.772-.772A8.873,8.873,0,0,1,179.67,182.3Zm-5.214-1.689a8.894,8.894,0,0,1-1.06-.906.546.546,0,0,1,.772-.772,7.816,7.816,0,0,0,.93.795.546.546,0,1,1-.641.883Z" transform="translate(-173.236 -167)" fill="#c5e5fe"/>
              </g>
              <path id="Trazado_126915" data-name="Trazado 126915" d="M26.505,104.311a2.257,2.257,0,1,0,1.685,3.754l2.676,1.4a2.263,2.263,0,1,0,.506-.967L28.7,107.1a2.208,2.208,0,0,0-.028-1.171l2.78-1.637a2.261,2.261,0,1,0-.554-.94l-2.781,1.637A2.249,2.249,0,0,0,26.505,104.311Zm0,3.423a1.166,1.166,0,1,1,1.166-1.166A1.167,1.167,0,0,1,26.505,107.734Zm6.553,1.091a1.166,1.166,0,1,1-1.165,1.165,1.167,1.167,0,0,1,1.165-1.165Zm0-7.28a1.166,1.166,0,1,1-1.165,1.166,1.167,1.167,0,0,1,1.165-1.166Z" transform="translate(-19.579 -80.465)"/>
              <path id="Trazado_126916" data-name="Trazado 126916" d="M180.221,41.41a2.265,2.265,0,1,0,.571-1.5l-2.675-1.4a2.208,2.208,0,0,0-.028-1.171l2.78-1.637a2.26,2.26,0,1,0-.554-.94l-2.781,1.637a2.258,2.258,0,1,0,.076,3.078l2.676,1.4A2.242,2.242,0,0,0,180.221,41.41Zm2.257-1.165a1.166,1.166,0,1,1-1.165,1.165A1.167,1.167,0,0,1,182.478,40.245Zm0-7.28a1.166,1.166,0,1,1-1.165,1.166A1.167,1.167,0,0,1,182.478,32.965Zm-6.553,6.188a1.166,1.166,0,1,1,1.166-1.166A1.167,1.167,0,0,1,175.925,39.153Z" transform="translate(-136.381 -26.855)"/>
              <path id="Trazado_126917" data-name="Trazado 126917" d="M175.925,172.891a2.257,2.257,0,1,0,1.685,3.754l2.676,1.4a2.263,2.263,0,1,0,.506-.967l-2.675-1.4a2.208,2.208,0,0,0-.028-1.171l2.78-1.637a2.26,2.26,0,1,0-.554-.94l-2.781,1.637a2.248,2.248,0,0,0-1.608-.677Zm0,3.423a1.166,1.166,0,1,1,1.166-1.166A1.167,1.167,0,0,1,175.925,176.314Zm6.553,1.091a1.166,1.166,0,1,1-1.165,1.165A1.167,1.167,0,0,1,182.478,177.406Zm0-7.28a1.166,1.166,0,1,1-1.165,1.166A1.167,1.167,0,0,1,182.478,170.125Z" transform="translate(-136.381 -134.074)"/>
              <path id="Trazado_126918" data-name="Trazado 126918" d="M11.677,98.078a.546.546,0,1,0,.759-.131.559.559,0,0,0-.759.131Z" transform="translate(-9.675 -78.431)"/>
              <path id="Trazado_126919" data-name="Trazado 126919" d="M57.494,19.894a11.009,11.009,0,1,0-21.7,2.625L22.826,28.472A11,11,0,0,0,6.367,26.8a.547.547,0,0,0-.026.773.56.56,0,0,0,.771.026,9.892,9.892,0,1,1-2.364,3.359.546.546,0,0,0-.288-.716.556.556,0,0,0-.716.286A11.008,11.008,0,0,0,22.825,41.257L35.794,47.21C33.167,57.9,46.349,65.541,54.27,57.62a11.01,11.01,0,0,0-9.144-18.71.545.545,0,0,0-.476.609.551.551,0,0,0,.609.474,9.915,9.915,0,1,1-3.881,1.34.547.547,0,0,0,.186-.749.559.559,0,0,0-.749-.186,11.124,11.124,0,0,0-3.287,3.044L24.559,37.49a11.022,11.022,0,0,0,0-5.25l12.968-5.953a11.005,11.005,0,0,0,19.966-6.393ZM36.928,44.368a11.034,11.034,0,0,0-.82,1.785L23.426,40.332a11.247,11.247,0,0,0,.819-1.785ZM24.245,31.182a11.092,11.092,0,0,0-.819-1.785l12.683-5.821a11.065,11.065,0,0,0,.819,1.785ZM38.171,25.3a9.918,9.918,0,1,1,8.314,4.51A9.933,9.933,0,0,1,38.171,25.3Z" transform="translate(-2.859 -8.885)"/>
              <path id="Trazado_126920" data-name="Trazado 126920" d="M185.284,149.721a.543.543,0,0,0,.336-.692.553.553,0,0,0-.694-.339.545.545,0,0,0,.358,1.031Z" transform="translate(-144.895 -118.148)"/>
            </g>
          </g>
        </g>
      </g>
      <g id="Elipse_4864" data-name="Elipse 4864" transform="translate(934 1388)" fill="#fff" stroke="#494b0f" stroke-width="2">
        <circle cx="19" cy="19" r="19" stroke="none"/>
        <circle cx="19" cy="19" r="18" fill="none"/>
      </g>
      <path id="Trazado_126968" data-name="Trazado 126968" d="M3.027-14.424v2.588H2.881a4.941,4.941,0,0,0-3.032.884A3.732,3.732,0,0,0-1.611-8.5,3.848,3.848,0,0,1,1.2-9.59,3.59,3.59,0,0,1,4.141-8.242,5.436,5.436,0,0,1,5.234-4.707a4.977,4.977,0,0,1-.64,2.49A4.564,4.564,0,0,1,2.808-.444,5.135,5.135,0,0,1,.264.2,5.307,5.307,0,0,1-2.441-.493,4.733,4.733,0,0,1-4.3-2.461,6.48,6.48,0,0,1-4.98-5.41V-6.729a8.208,8.208,0,0,1,.942-3.95,6.832,6.832,0,0,1,2.69-2.749,7.692,7.692,0,0,1,3.877-1ZM.059-7.07a1.883,1.883,0,0,0-1.094.3,1.922,1.922,0,0,0-.654.742v.986q0,2.7,1.865,2.7a1.513,1.513,0,0,0,1.255-.674,2.746,2.746,0,0,0,.5-1.689,2.7,2.7,0,0,0-.513-1.7A1.64,1.64,0,0,0,.059-7.07Z" transform="translate(953 1413)" fill="#12263f"/>
    </g>
    <g id="Grupo_68022" data-name="Grupo 68022" transform="translate(-11)">
      <g id="Grupo_68012" data-name="Grupo 68012" transform="translate(20 -94)">
        <g id="Rectángulo_7690" data-name="Rectángulo 7690" transform="translate(1042 1463)" fill="#529ad9" stroke="#fff" stroke-width="2">
          <rect width="77" height="77" rx="38.5" stroke="none"/>
          <rect x="1" y="1" width="75" height="75" rx="37.5" fill="none"/>
        </g>
        <g id="Transfer_money" data-name="Transfer money" transform="translate(1054.174 1476.367)">
          <path id="Trazado_126921" data-name="Trazado 126921" d="M1,11H51.458V39.519H1Z" transform="translate(0.097 0.873)" fill="#9dcc6b"/>
          <path id="Trazado_126922" data-name="Trazado 126922" d="M51.167,11V37.326H30.326A26.326,26.326,0,0,1,4,11Z" transform="translate(0.388 0.873)" fill="#b5e08c"/>
          <path id="Trazado_126923" data-name="Trazado 126923" d="M43.489,35.938H8.388a1.1,1.1,0,0,1-1.1-1.1A2.194,2.194,0,0,0,5.1,32.647,1.1,1.1,0,0,1,4,31.55V18.388a1.1,1.1,0,0,1,1.1-1.1A2.194,2.194,0,0,0,7.291,15.1a1.1,1.1,0,0,1,1.1-1.1h35.1a1.1,1.1,0,0,1,1.1,1.1,2.194,2.194,0,0,0,2.194,2.194,1.1,1.1,0,0,1,1.1,1.1V31.55a1.1,1.1,0,0,1-1.1,1.1,2.194,2.194,0,0,0-2.194,2.194A1.1,1.1,0,0,1,43.489,35.938ZM9.342,33.744H42.534A4.388,4.388,0,0,1,45.682,30.6V19.342a4.388,4.388,0,0,1-3.148-3.148H9.342a4.388,4.388,0,0,1-3.148,3.148V30.6A4.388,4.388,0,0,1,9.342,33.744Z" transform="translate(0.388 1.163)" fill="#84b749"/>
          <path id="Trazado_126924" data-name="Trazado 126924" d="M9.318,23.318a1.1,1.1,0,1,1,0,1.558,1.1,1.1,0,0,1,0-1.558Z" transform="translate(0.872 2.035)" fill="#84b749"/>
          <path id="Trazado_126925" data-name="Trazado 126925" d="M38.1,25.194a1.1,1.1,0,1,1,1.019-.676A1.1,1.1,0,0,1,38.1,25.194Z" transform="translate(3.586 2.035)" fill="#84b749"/>
          <path id="Trazado_126926" data-name="Trazado 126926" d="M32.062,44.709,34.585,42.2H13.1A1.1,1.1,0,0,1,13.1,40c26.03,0,24.746-.285,25.141.68s0,.932-4.618,5.583a1.1,1.1,0,0,1-1.558-1.558Z" transform="translate(1.163 3.679)" fill="#82bcf4"/>
          <path id="Trazado_126927" data-name="Trazado 126927" d="M37.231,8.582c-26.03,0-24.746.285-25.141-.68s0-.932,4.618-5.583a1.1,1.1,0,0,1,1.558,1.558L15.743,6.388H37.231a1.1,1.1,0,1,1,0,2.194Z" transform="translate(1.16 0)" fill="#82bcf4"/>
          <path id="Trazado_126928" data-name="Trazado 126928" d="M34.744,24.872a9.971,9.971,0,0,1-1.459,5.144C28.163,38.5,15,34.81,15,24.872a9.872,9.872,0,1,1,19.744,0Z" transform="translate(1.454 1.26)" fill="#84b749"/>
          <g id="Grupo_67986" data-name="Grupo 67986" transform="translate(21.938 18.454)">
            <path id="Trazado_126929" data-name="Trazado 126929" d="M23,20.291V18.1a1.1,1.1,0,1,1,2.194,0v2.194a1.1,1.1,0,1,1-2.194,0Z" transform="translate(-19.709 -17)" fill="#b5e08c"/>
            <path id="Trazado_126930" data-name="Trazado 126930" d="M23,30.291V28.1a1.1,1.1,0,1,1,2.194,0v2.194a1.1,1.1,0,0,1-2.194,0Z" transform="translate(-19.709 -16.031)" fill="#b5e08c"/>
            <path id="Trazado_126931" data-name="Trazado 126931" d="M25.485,29.969H21.1a1.1,1.1,0,1,1,0-2.194h4.388a1.1,1.1,0,0,0,0-2.194H23.291a3.291,3.291,0,1,1,0-6.581h4.388a1.1,1.1,0,1,1,0,2.194H23.291a1.1,1.1,0,1,0,0,2.194h2.194a3.291,3.291,0,1,1,0,6.581Z" transform="translate(-20 -16.806)" fill="#b5e08c"/>
          </g>
          <path id="Trazado_126932" data-name="Trazado 126932" d="M51.554,10H1.1A1.1,1.1,0,0,0,0,11.1V39.616a1.1,1.1,0,0,0,1.1,1.1H51.554a1.1,1.1,0,0,0,1.1-1.1V11.1A1.1,1.1,0,0,0,51.554,10Zm-1.1,28.519H2.194V12.194H50.458Z" transform="translate(0 0.776)"/>
          <path id="Trazado_126933" data-name="Trazado 126933" d="M5.1,32.647a2.194,2.194,0,0,1,2.194,2.194,1.1,1.1,0,0,0,1.1,1.1h35.1a1.1,1.1,0,0,0,1.1-1.1,2.194,2.194,0,0,1,2.194-2.194,1.1,1.1,0,0,0,1.1-1.1V18.388a1.1,1.1,0,0,0-1.1-1.1A2.194,2.194,0,0,1,44.585,15.1a1.1,1.1,0,0,0-1.1-1.1H8.388a1.1,1.1,0,0,0-1.1,1.1A2.194,2.194,0,0,1,5.1,17.291a1.1,1.1,0,0,0-1.1,1.1V31.55A1.1,1.1,0,0,0,5.1,32.647Zm12.066-7.678a8.775,8.775,0,1,1,8.775,8.775,8.775,8.775,0,0,1-8.775-8.775Zm25.371-8.775a4.388,4.388,0,0,0,3.148,3.148V30.6a4.388,4.388,0,0,0-3.148,3.148H32.519a10.969,10.969,0,0,0,0-17.55ZM6.194,19.342a4.388,4.388,0,0,0,3.148-3.148H19.357a10.969,10.969,0,0,0,0,17.55H9.342A4.388,4.388,0,0,0,6.194,30.6Z" transform="translate(0.388 1.163)"/>
          <path id="Trazado_126934" data-name="Trazado 126934" d="M23.291,21.388h4.388a1.1,1.1,0,1,0,0-2.194H25.485V18.1a1.1,1.1,0,1,0-2.194,0v1.1a3.291,3.291,0,0,0,0,6.581h2.194a1.1,1.1,0,0,1,0,2.194H21.1a1.1,1.1,0,1,0,0,2.194h2.194v1.1a1.1,1.1,0,0,0,2.194,0v-1.1a3.291,3.291,0,1,0,0-6.581H23.291a1.1,1.1,0,0,1,0-2.194Z" transform="translate(1.938 1.454)"/>
          <path id="Trazado_126935" data-name="Trazado 126935" d="M9.32,24.876a1.1,1.1,0,0,0,1.689-1.393C10.274,22.244,8.168,23.593,9.32,24.876Z" transform="translate(0.87 2.035)"/>
          <path id="Trazado_126936" data-name="Trazado 126936" d="M38.1,25.194A1.1,1.1,0,1,0,37,24.1,1.1,1.1,0,0,0,38.1,25.194Z" transform="translate(3.585 2.035)"/>
          <path id="Trazado_126937" data-name="Trazado 126937" d="M13.1,40a1.1,1.1,0,0,0,0,2.194H34.585l-2.523,2.512a1.1,1.1,0,0,0,1.558,1.558c4.629-4.64,5-4.684,4.618-5.583S39.1,40,13.1,40Z" transform="translate(1.163 3.681)"/>
          <path id="Trazado_126938" data-name="Trazado 126938" d="M13.1,8.582H37.229a1.1,1.1,0,1,0,0-2.194H15.741l2.523-2.512a1.1,1.1,0,1,0-1.558-1.558L12.319,6.706A1.1,1.1,0,0,0,13.1,8.582Z" transform="translate(1.162 0)"/>
        </g>
      </g>
      <g id="Elipse_4865" data-name="Elipse 4865" transform="translate(1047 1356)" fill="#fff" stroke="#494b0f" stroke-width="2">
        <circle cx="19" cy="19" r="19" stroke="none"/>
        <circle cx="19" cy="19" r="18" fill="none"/>
      </g>
      <path id="Trazado_126969" data-name="Trazado 126969" d="M4.961-12.461-.352,0H-3.828L1.494-11.68H-5.283v-2.539H4.961Z" transform="translate(1066 1381)" fill="#12263f"/>
    </g>
    <g id="Grupo_68023" data-name="Grupo 68023" transform="translate(-18)">
      <g id="Grupo_68013" data-name="Grupo 68013" transform="translate(60 -94)">
        <g id="Rectángulo_7691" data-name="Rectángulo 7691" transform="translate(1118 1416)" fill="#529ad9" stroke="#fff" stroke-width="2">
          <rect width="77" height="77" rx="38.5" stroke="none"/>
          <rect x="1" y="1" width="75" height="75" rx="37.5" fill="none"/>
        </g>
        <g id="Grupo_67987" data-name="Grupo 67987" transform="translate(1171.506 1453.306)">
          <path id="Trazado_126939" data-name="Trazado 126939" d="M385.3,243.878h5.97v25.669H385.3Z" transform="translate(-385.301 -243.878)" fill="#9bd069"/>
        </g>
        <g id="Grupo_67988" data-name="Grupo 67988" transform="translate(1175.485 1453.306)">
          <path id="Trazado_126940" data-name="Trazado 126940" d="M425.707,243.878h1.99v25.669h-1.99Z" transform="translate(-425.707 -243.878)" fill="#7dbe3b"/>
        </g>
        <g id="Grupo_67989" data-name="Grupo 67989" transform="translate(1161.158 1465.046)">
          <path id="Trazado_126941" data-name="Trazado 126941" d="M280.244,363.077h5.97v13.929h-5.97Z" transform="translate(-280.244 -363.077)" fill="#e28086"/>
        </g>
        <g id="Grupo_67990" data-name="Grupo 67990" transform="translate(1165.138 1465.046)">
          <path id="Trazado_126942" data-name="Trazado 126942" d="M320.65,363.077h1.99v13.929h-1.99Z" transform="translate(-320.65 -363.077)" fill="#dd636e"/>
        </g>
        <g id="Grupo_67991" data-name="Grupo 67991" transform="translate(1150.811 1459.076)">
          <path id="Trazado_126943" data-name="Trazado 126943" d="M175.187,302.467h5.97v19.9h-5.97Z" transform="translate(-175.187 -302.467)" fill="#ffe07d"/>
        </g>
        <g id="Grupo_67992" data-name="Grupo 67992" transform="translate(1154.791 1459.076)">
          <path id="Trazado_126944" data-name="Trazado 126944" d="M215.593,302.467h1.99v19.9h-1.99Z" transform="translate(-215.593 -302.467)" fill="#ffd064"/>
        </g>
        <g id="Grupo_67993" data-name="Grupo 67993" transform="translate(1140.464 1467.036)">
          <path id="Trazado_126945" data-name="Trazado 126945" d="M70.13,383.28H76.1v11.939H70.13Z" transform="translate(-70.13 -383.28)" fill="#e28086"/>
        </g>
        <g id="Grupo_67994" data-name="Grupo 67994" transform="translate(1144.443 1467.036)">
          <path id="Trazado_126946" data-name="Trazado 126946" d="M110.537,383.28h1.99v11.939h-1.99Z" transform="translate(-110.537 -383.28)" fill="#dd636e"/>
        </g>
        <g id="Grupo_67995" data-name="Grupo 67995" transform="translate(1171.506 1442.362)">
          <circle id="Elipse_4855" data-name="Elipse 4855" cx="2.985" cy="2.985" r="2.985" fill="#cbe2ff"/>
        </g>
        <g id="Grupo_67996" data-name="Grupo 67996" transform="translate(1161.158 1454.102)">
          <circle id="Elipse_4856" data-name="Elipse 4856" cx="2.985" cy="2.985" r="2.985" fill="#cbe2ff"/>
        </g>
        <g id="Grupo_67997" data-name="Grupo 67997" transform="translate(1150.811 1448.133)">
          <circle id="Elipse_4857" data-name="Elipse 4857" cx="2.985" cy="2.985" r="2.985" fill="#cbe2ff"/>
        </g>
        <g id="Grupo_67998" data-name="Grupo 67998" transform="translate(1140.464 1456.092)">
          <circle id="Elipse_4858" data-name="Elipse 4858" cx="2.985" cy="2.985" r="2.985" fill="#cbe2ff"/>
        </g>
        <g id="Grupo_68002" data-name="Grupo 68002" transform="translate(1140.464 1430.024)">
          <g id="Grupo_67999" data-name="Grupo 67999" transform="translate(0)">
            <path id="Trazado_126947" data-name="Trazado 126947" d="M0,0H3.98V9.153H0Z" transform="translate(9.153) rotate(90)" fill="#e28086"/>
          </g>
          <g id="Grupo_68000" data-name="Grupo 68000" transform="translate(0 3.98)">
            <path id="Trazado_126948" data-name="Trazado 126948" d="M0,0H3.98V12.138H0Z" transform="translate(12.138) rotate(90)" fill="#ffe07d"/>
          </g>
          <g id="Grupo_68001" data-name="Grupo 68001" transform="translate(0 7.959)">
            <path id="Trazado_126949" data-name="Trazado 126949" d="M0,0H3.98V15.919H0Z" transform="translate(15.919) rotate(90)" fill="#9bd069"/>
          </g>
        </g>
        <g id="Grupo_68003" data-name="Grupo 68003" transform="translate(1133.557 1429.286)">
          <path id="Trazado_126950" data-name="Trazado 126950" d="M49.689,48.95H44.657V30.476a.739.739,0,1,0-1.477,0V48.95H38.688V24.759H43.18v2.267a.739.739,0,1,0,1.477,0V24.02a.739.739,0,0,0-.739-.739h-5.97a.739.739,0,0,0-.739.739V48.95h-2.9V35.76a.739.739,0,0,0-.739-.739H27.6a.739.739,0,0,0-.739.739v3.185a.739.739,0,1,0,1.477,0V36.5h4.492V48.95H28.341V42.4a.739.739,0,1,0-1.477,0v6.55h-2.9V29.791a.739.739,0,0,0-.739-.739h-5.97a.739.739,0,0,0-.739.739V34.3a.739.739,0,1,0,1.477,0V30.529h4.492V48.95H17.993v-11.2a.739.739,0,1,0-1.477,0v11.2h-2.9V37.75a.739.739,0,0,0-.739-.739H6.907a.739.739,0,0,0-.739.739v11.2H1.477V44.259H3.127a.739.739,0,1,0,0-1.477H1.477V33.216H3.127a.739.739,0,1,0,0-1.477H1.477V22.172H3.127a.739.739,0,0,0,0-1.477H1.477V11.128H3.127a.739.739,0,1,0,0-1.477H1.477V.739A.739.739,0,0,0,0,.739v48.95a.739.739,0,0,0,.739.739h48.95a.739.739,0,0,0,0-1.477Zm-42.043,0V38.489h4.492V48.95Z" transform="translate(0 0)"/>
          <path id="Trazado_126951" data-name="Trazado 126951" d="M66.353,146.434a3.722,3.722,0,0,0,3.342-5.363l4.565-3.511a3.714,3.714,0,0,0,5.23-.347l4.028,2.324a3.724,3.724,0,1,0,6.5-1.064l5.524-6.267a3.728,3.728,0,1,0-1.108-.977L88.9,137.5a3.714,3.714,0,0,0-4.647.763l-4.028-2.324a3.723,3.723,0,1,0-6.872.456L68.792,139.9a3.722,3.722,0,1,0-2.44,6.533Zm31.042-19.7a2.246,2.246,0,1,1-1.484,3.93h0a2.245,2.245,0,0,1,1.484-3.93Zm-10.347,11.74a2.246,2.246,0,1,1-2.246,2.246A2.249,2.249,0,0,1,87.047,138.475ZM76.7,132.505a2.246,2.246,0,1,1-2.246,2.246A2.249,2.249,0,0,1,76.7,132.505Zm-10.347,7.959a2.246,2.246,0,1,1-2.246,2.246A2.249,2.249,0,0,1,66.353,140.465Z" transform="translate(-56.461 -112.92)"/>
          <path id="Trazado_126952" data-name="Trazado 126952" d="M63.369,13.417H79.288a.739.739,0,0,0,.739-.739V8.7a.739.739,0,0,0-.739-.739H76.245V4.718a.739.739,0,0,0-.739-.739H73.261V.739A.739.739,0,0,0,72.522,0H63.369a.739.739,0,0,0-.739.739V12.678A.739.739,0,0,0,63.369,13.417Zm15.18-1.477H64.107v-2.5H78.549Zm-3.781-3.98H64.107v-2.5H74.768ZM64.107,1.477h7.676v2.5H64.107Z" transform="translate(-56.461 0)"/>
          <path id="Trazado_126953" data-name="Trazado 126953" d="M265.4,1.477h5.671a.739.739,0,1,0,0-1.477H265.4a.739.739,0,0,0,0,1.477Z" transform="translate(-238.596)"/>
          <path id="Trazado_126954" data-name="Trazado 126954" d="M355.306,1.477h1.89A.739.739,0,1,0,357.2,0h-1.89a.739.739,0,0,0,0,1.477Z" transform="translate(-319.645)"/>
          <path id="Trazado_126955" data-name="Trazado 126955" d="M328.965,32.325h-4.975a.739.739,0,0,0,0,1.477h4.975a.739.739,0,1,0,0-1.477Z" transform="translate(-291.414 -29.141)"/>
          <path id="Trazado_126956" data-name="Trazado 126956" d="M265.4,33.8h2.587a.739.739,0,1,0,0-1.477H265.4a.739.739,0,0,0,0,1.477Z" transform="translate(-238.596 -29.141)"/>
          <path id="Trazado_126957" data-name="Trazado 126957" d="M265.4,66.127h10.745a.739.739,0,1,0,0-1.477H265.4a.739.739,0,0,0,0,1.477Z" transform="translate(-238.596 -58.283)"/>
        </g>
      </g>
      <g id="Grupo_68015" data-name="Grupo 68015">
        <g id="Elipse_4866" data-name="Elipse 4866" transform="translate(1159 1314)" fill="#fff" stroke="#494b0f" stroke-width="2">
          <circle cx="19" cy="19" r="19" stroke="none"/>
          <circle cx="19" cy="19" r="18" fill="none"/>
        </g>
        <path id="Trazado_126970" data-name="Trazado 126970" d="M4.668-10.42a3.283,3.283,0,0,1-.513,1.826,3.734,3.734,0,0,1-1.411,1.27A4.109,4.109,0,0,1,4.355-5.962a3.515,3.515,0,0,1,.6,2.046A3.721,3.721,0,0,1,3.638-.908,5.454,5.454,0,0,1,.02.2,5.554,5.554,0,0,1-3.633-.913a3.7,3.7,0,0,1-1.338-3,3.56,3.56,0,0,1,.586-2.021,3.984,3.984,0,0,1,1.66-1.387A3.755,3.755,0,0,1-4.15-8.594a3.26,3.26,0,0,1-.518-1.826,3.648,3.648,0,0,1,1.26-2.93,5.064,5.064,0,0,1,3.4-1.074A5.1,5.1,0,0,1,3.408-13.35,3.648,3.648,0,0,1,4.668-10.42ZM1.65-4.18A1.877,1.877,0,0,0,1.2-5.532,1.581,1.581,0,0,0,0-6.006a1.6,1.6,0,0,0-1.2.474A1.865,1.865,0,0,0-1.66-4.18,1.881,1.881,0,0,0-1.2-2.837,1.592,1.592,0,0,0,.02-2.344,1.53,1.53,0,0,0,1.2-2.832,1.915,1.915,0,0,0,1.65-4.18ZM-.01-11.885a1.216,1.216,0,0,0-1.011.435,1.886,1.886,0,0,0-.347,1.206,2,2,0,0,0,.352,1.23A1.213,1.213,0,0,0,.02-8.545,1.163,1.163,0,0,0,1.03-9.014a2.062,2.062,0,0,0,.337-1.23,1.89,1.89,0,0,0-.347-1.2A1.233,1.233,0,0,0-.01-11.885Z" transform="translate(1178 1339)" fill="#12263f"/>
      </g>
    </g>
  </g>
</svg>
