<svg xmlns="http://www.w3.org/2000/svg" width="380.428" height="361.66" viewBox="0 0 380.428 361.66">
  <g id="Grupo_68471" data-name="Grupo 68471" transform="translate(-215 -3859.001)">
    <g id="Grupo_68336" data-name="Grupo 68336" transform="translate(-60.118 3806.202)">
      <path id="Trazado_127304" data-name="Trazado 127304" d="M336.628,204.9a11.8,11.8,0,0,1-12.67-11.747q-.011-2.653.078-5.121a74.294,74.294,0,0,1,1.917-14.712,54.682,54.682,0,0,1,4.8-12.787,73.5,73.5,0,0,1,8.039-12q3.636-4.712,6.7-9.159a63.463,63.463,0,0,0,5.168-8.9,43.778,43.778,0,0,0,3.155-9.113,33.571,33.571,0,0,0,.651-9.957Q352.6,86.853,336.721,88.055a13.369,13.369,0,0,0-5.628,1.832,15.247,15.247,0,0,0-5.029,4.892,25.344,25.344,0,0,0-3.379,8.095l-.023.1a16.319,16.319,0,0,1-14.62,12.4l-10.037.76a15.859,15.859,0,0,1-16.873-18.5,57.8,57.8,0,0,1,1.782-7.267,51.488,51.488,0,0,1,11.01-19.617,50.761,50.761,0,0,1,17.551-12.348,70.322,70.322,0,0,1,22.593-5.335,71.6,71.6,0,0,1,24.479,1.99,47.4,47.4,0,0,1,31.7,27.028,71.2,71.2,0,0,1,5.841,24.4,53.931,53.931,0,0,1-1.331,17.553,70.44,70.44,0,0,1-5.8,15.154,103.314,103.314,0,0,1-8.849,13.981c-3.4,4.547-6.956,9.131-10.484,13.882a45.406,45.406,0,0,0-4.787,8.053,39.7,39.7,0,0,0-2.776,8.271,54.745,54.745,0,0,0-1.159,9.11l0,.1a11.82,11.82,0,0,1-10.879,11.3Zm-12.546,46.2a24.339,24.339,0,0,1,.938-9.091,21.208,21.208,0,0,1,4.018-7.477,21.523,21.523,0,0,1,6.769-5.321,23.883,23.883,0,0,1,9.2-2.472,24.309,24.309,0,0,1,9.619,1.046,21.572,21.572,0,0,1,7.494,4.24,21.283,21.283,0,0,1,5.1,6.786,25.744,25.744,0,0,1,1.36,17.94,22.083,22.083,0,0,1-4.012,7.551,20.161,20.161,0,0,1-6.769,5.319,25.288,25.288,0,0,1-9.358,2.41,24.848,24.848,0,0,1-9.465-.984,20.119,20.119,0,0,1-7.494-4.239,22.01,22.01,0,0,1-5.1-6.859A24.364,24.364,0,0,1,324.082,251.1Z" transform="translate(-1.145)" fill="#28679f"/>
      <path id="Trazado_127305" data-name="Trazado 127305" d="M330.863,204.9a11.8,11.8,0,0,1-12.67-11.747q-.011-2.653.079-5.121a74.235,74.235,0,0,1,1.917-14.712,54.611,54.611,0,0,1,4.8-12.787,73.437,73.437,0,0,1,8.038-12q3.637-4.712,6.7-9.159a63.548,63.548,0,0,0,5.168-8.9,43.872,43.872,0,0,0,3.155-9.113,33.544,33.544,0,0,0,.651-9.957q-1.861-24.557-17.742-23.355a13.373,13.373,0,0,0-5.628,1.832,15.247,15.247,0,0,0-5.029,4.892,25.344,25.344,0,0,0-3.379,8.095l-.023.1a16.318,16.318,0,0,1-14.619,12.4l-10.037.76a15.859,15.859,0,0,1-16.873-18.5,57.8,57.8,0,0,1,1.783-7.267,51.476,51.476,0,0,1,11.01-19.617,50.761,50.761,0,0,1,17.551-12.348,70.321,70.321,0,0,1,22.594-5.335,71.594,71.594,0,0,1,24.479,1.99,47.392,47.392,0,0,1,31.7,27.028,71.183,71.183,0,0,1,5.841,24.4A53.886,53.886,0,0,1,389,124.033a70.435,70.435,0,0,1-5.8,15.154,103.4,103.4,0,0,1-8.849,13.981c-3.4,4.547-6.956,9.131-10.483,13.882a45.412,45.412,0,0,0-4.788,8.053,39.7,39.7,0,0,0-2.776,8.271,54.664,54.664,0,0,0-1.158,9.11l0,.1a11.82,11.82,0,0,1-10.879,11.3Zm-12.546,46.2a24.372,24.372,0,0,1,.938-9.091,21.2,21.2,0,0,1,4.019-7.477,21.5,21.5,0,0,1,6.769-5.321,23.875,23.875,0,0,1,9.2-2.472,24.309,24.309,0,0,1,9.619,1.046,21.565,21.565,0,0,1,7.494,4.24,21.259,21.259,0,0,1,5.1,6.786,25.744,25.744,0,0,1,1.36,17.94,22.084,22.084,0,0,1-4.012,7.551,20.161,20.161,0,0,1-6.769,5.319,25.284,25.284,0,0,1-9.357,2.41,24.845,24.845,0,0,1-9.465-.984,20.112,20.112,0,0,1-7.494-4.239,22.01,22.01,0,0,1-5.105-6.859A24.349,24.349,0,0,1,318.318,251.1Z" fill="#529ad9"/>
      <path id="Trazado_127306" data-name="Trazado 127306" d="M304.931,71.389c.6-.812-.579-1.947-1.388-1.387-4.446,3.077-8.282,7.517-11.774,11.62-3.118,3.663-5.905,7.705-7.107,12.426-1,3.936-.989,8.442,1.222,11.98,1.434,2.3,4.176,4.684,6.958,3.43a.359.359,0,0,0,.073-.561c-3.219-2.527-5.585-4.155-6-8.67-.377-4.129,1.115-8.162,3.244-11.628C294.163,82.077,300.418,77.467,304.931,71.389Z" transform="translate(-1.769 -3.389)" fill="#165286"/>
      <path id="Trazado_127307" data-name="Trazado 127307" d="M347.514,305.305c-5.021-3.051-8.371-6.615-8.471-12.865-.1-6.111,2.942-10.861,7.616-14.459a.547.547,0,0,0-.42-1c-13.214,3.07-13.351,28.455.776,30.164C348.043,307.273,348.284,305.774,347.514,305.305Z" transform="translate(-12.172 -44.545)" fill="#245d90"/>
    </g>
    <g id="Grupo_68337" data-name="Grupo 68337" transform="translate(55.283 3683.429)">
      <path id="Trazado_127308" data-name="Trazado 127308" d="M329.363,414.438a39.665,39.665,0,0,1,1.586,6.094q.093.5.19,1.048c.206,1.126.413,2.412.6,3.839.192,1.316,19.2,2.665,21.278,1.238s-.332-2.094-.332-2.094c-2.7-.08-8.537-1.793-10.5-3.08-5.537-3.617-5.929-24.78-5.929-24.78C330.007,380.358,318.3,364.319,329.363,414.438Z" transform="translate(37.009 109.963)" fill="#f5a784"/>
      <path id="Trazado_127309" data-name="Trazado 127309" d="M276,417.886c2.11,1.46,21.532.08,21.722-1.285.19-1.444.46-2.746.619-3.9.016-.111.031-.206.047-.3.761-5.649,1.917-15.829,1.917-15.829s-5.171-5.608-9.074-.2c0,0,.477,13.963-4.173,16.216-.19.095-.4.192-.65.3-2.49,1.1-7.569,2.777-10.092,2.857C276.313,415.745,273.886,416.426,276,417.886Z" transform="translate(5.364 118.485)" fill="#f5a784"/>
      <path id="Trazado_127310" data-name="Trazado 127310" d="M367.948,459.163s-5.665,4.208-14.539.851c0,0-8.4-37.936-15.538-71.337-.835-3.9-13.72-38.018-19.205-52.77-1.244-3.324-2.1-5.665-2.358-6.467a3.792,3.792,0,0,0-2.325-2.44c-1.31-.442-2.931-.1-3.618,3.651-.115.655-.327,2.407-.589,5.01C307.3,359.829,299.231,458.41,299.231,458.41s-7.433,1.424-12.771-1.162c0,0-5.8-74.824-6.5-123.681-.066-3.258-.082-6.418-.082-9.414,0-8.94.229-16.291.7-21.121l61.038-2.423s15.653,77.346,16.93,85.106C361.022,400.45,367.948,459.163,367.948,459.163Z" transform="translate(8.387 58.958)" fill="#32526e"/>
      <path id="Trazado_127311" data-name="Trazado 127311" d="M328.552,405.006q.093.5.19,1.048c.206,1.126.413,2.412.6,3.839.192,1.316,19.2,2.665,21.278,1.238s-.332-2.094-.332-2.094c-2.7-.08-8.537-1.793-10.5-3.08A23.47,23.47,0,0,1,328.552,405.006Z" transform="translate(39.407 125.49)" fill="#05004a"/>
      <path id="Trazado_127312" data-name="Trazado 127312" d="M276,410.732c2.11,1.46,21.532.08,21.722-1.285.19-1.444.46-2.746.619-3.9.016-.111.031-.206.047-.3a38.715,38.715,0,0,1-11.98.491c-2.49,1.1-7.569,2.777-10.092,2.857C276.313,408.59,273.886,409.271,276,410.732Z" transform="translate(5.364 125.64)" fill="#05004a"/>
      <path id="Trazado_127313" data-name="Trazado 127313" d="M348.546,334.559a213.881,213.881,0,0,1-29.88,1.343c-1.244-3.324-2.1-5.665-2.358-6.467a3.792,3.792,0,0,0-2.325-2.44c-1.31-.442-2.931-.1-3.618,3.651-.115.655-.327,2.407-.589,5.01-12.116-.458-23.086-1.424-29.815-2.1-.066-3.258-.082-6.418-.082-9.414,0-8.94.229-16.291.7-21.121l60.563-2.407,1.441,4.65C343.831,311.342,346.09,322.41,348.546,334.559Z" transform="translate(8.387 58.964)" fill="#32526e"/>
      <path id="Trazado_127314" data-name="Trazado 127314" d="M313.557,288.372c-3.442-6.7,90.928-43.621,44.3-63.643-15.2-6.525-44.986-12.447-44.986-12.447s-4.658,5.282-.984,10.323c0,0,31.524,10.628,36.741,14.367s-29.268,17.121-44.539,19.97C294.623,258.707,314.67,290.538,313.557,288.372Z" transform="translate(22.193 2.668)" fill="#f5a784"/>
      <path id="Trazado_127315" data-name="Trazado 127315" d="M319.742,215.659s-2.855-.984-6.272-2.582-10.878-5.179-13.642-4.974a6.78,6.78,0,0,0-1.2.573,2.738,2.738,0,0,0-.3.2,6.865,6.865,0,0,0-1.849,1.844c-.043.061-.09.129-.136.2a6.748,6.748,0,0,0-.935,2.246c-.016.075-.029.151-.044.226a9.694,9.694,0,0,0-.2,2.3s7.687,3.46,9.693,5.473c0,0-5.13-.863-6.14.416l-.136,1.108s5.414,1.559,7.762,2.474c5.711,2.227,11.484-.657,11.484-.657S322.319,219.243,319.742,215.659Z" transform="translate(18.13 0)" fill="#f5a784"/>
      <path id="Trazado_127316" data-name="Trazado 127316" d="M285.71,233.612a3.353,3.353,0,0,1-.342-1.3,34.364,34.364,0,0,1,.083-8.471,15.969,15.969,0,0,1,1.087-4.764c1.239-2.708,3.874-4.5,6.551-5.8a34.418,34.418,0,0,1,18.248-3.316,10.679,10.679,0,0,1,4.147,1.069,4.561,4.561,0,0,1,2.459,3.338,7.78,7.78,0,0,1-.4,2.718c-1.55,6.071.233,12.068-1.863,17.891-.643,1.79-.763,2.06-1.808,2-5.57-.344-11.138-.763-16.692-1.3a75.3,75.3,0,0,1-9.676-1.233C286.489,234.2,285.991,234.069,285.71,233.612Z" transform="translate(11.743 1.086)" fill="#05004a"/>
      <path id="Trazado_127317" data-name="Trazado 127317" d="M303.114,223.78s2.536-3.044,5.074,0-1.776,8.871-5.074,9.128C303.114,232.907,302.734,225.091,303.114,223.78Z" transform="translate(23.088 9.134)" fill="#e0855c"/>
      <path id="Trazado_127318" data-name="Trazado 127318" d="M275.808,253.234c1.539,3.65,7.235,17.693,9.076,29.1.984,6.078,4.728,26.943,4.728,26.943,21.5,5.9,45.127,0,45.127,0s12.979-54.456,3-60.884c-1.714-1.094-4.729-1.808-7.965-2.268a102.9,102.9,0,0,0-12.917-.842l-.285-3.142c0-.031-.73-7.761-.73-7.761a22.12,22.12,0,0,1-17.807-4.349,60.411,60.411,0,0,1,.734,7.144c.095,1.587.159,3.142.206,4.489.064,2.35.08,4.047.08,4.047a49.949,49.949,0,0,0-8.363.856,45.552,45.552,0,0,0-14.406,5.221A1.168,1.168,0,0,0,275.808,253.234Z" transform="translate(5.737 13.982)" fill="#f5a784"/>
      <path id="Trazado_127319" data-name="Trazado 127319" d="M289.348,230.034c2.762,12.538,15.374,11.677,18.336,10.019l-.529-5.67A22.074,22.074,0,0,1,289.348,230.034Z" transform="translate(14.423 13.982)" fill="#e0855c"/>
      <path id="Trazado_127320" data-name="Trazado 127320" d="M312.125,219.318c1.685,1.754,1.826,5.686,1.966,10.037.426,13.165-3.518,17.278-10.245,18s-13.76-1.862-15.209-14.071c-.724-6.1-1.5-11.744.725-14.382C292.674,214.973,306.951,213.938,312.125,219.318Z" transform="translate(13.497 4.793)" fill="#f5a784"/>
      <path id="Trazado_127321" data-name="Trazado 127321" d="M291.416,226.659s-2.06-5.454-5.306-2.564,1.239,11.129,6.207,10.518C292.316,234.613,293,228.524,291.416,226.659Z" transform="translate(11.656 9.658)" fill="#f5a784"/>
      <path id="Trazado_127322" data-name="Trazado 127322" d="M285.548,243.326a8.387,8.387,0,0,0-5.88,3.794c-4.159,6.279-12.931,52.732-12.949,62.066-.033,16.54,7.777,45.99,7.777,45.99s6.885,1.477,9.483-4.193c0,0-2.137-36-1.428-42.383s6.87-31.662,9.7-42.293C294.72,257,294.126,242.273,285.548,243.326Z" transform="translate(0.001 22.418)" fill="#f5a784"/>
      <path id="Trazado_127323" data-name="Trazado 127323" d="M286.72,225.283a4.6,4.6,0,0,1,1.973,1.29,5.532,5.532,0,0,1,1.449,1.844c.085.221-.223.355-.372.216-.421-.391-.758-.86-1.151-1.284a2.6,2.6,0,0,1-.953.753c-.3.11-.521-.262-.39-.508a2.338,2.338,0,0,1,.786-.751,12.109,12.109,0,0,1-1.567-1.176A.232.232,0,0,1,286.72,225.283Z" transform="translate(12.563 10.951)" fill="#e0855c"/>
      <path id="Trazado_127324" data-name="Trazado 127324" d="M300.631,225.049s1.138.424.964-1.591c-.154-1.811-.964-1.567-.964-1.567s-.792,0-.671,1.58S300.631,225.049,300.631,225.049Z" transform="translate(21.177 8.785)" fill="#05004a"/>
      <path id="Trazado_127325" data-name="Trazado 127325" d="M293.585,225.049s1.138.424.964-1.591c-.154-1.811-.964-1.567-.964-1.567s-.791,0-.671,1.58S293.585,225.049,293.585,225.049Z" transform="translate(16.687 8.785)" fill="#05004a"/>
      <path id="Trazado_127326" data-name="Trazado 127326" d="M297.278,230.994c.578-.087,1.9.259,2.171-.365.226-.517-.7-3.579-.833-4.1a52.091,52.091,0,0,1-1.326-5.442.109.109,0,0,1,.2-.056c1.334,3.016,1.832,6.744,2.639,9.947a.285.285,0,0,1-.272.359c-.846-.015-1.667.164-2.512.169C297.065,231.5,296.983,231.038,297.278,230.994Z" transform="translate(19.358 8.208)" fill="#e0855c"/>
      <path id="Trazado_127327" data-name="Trazado 127327" d="M299.669,220.2c.815-.414,2.34-.526,2.932.323a.252.252,0,0,1-.216.378c-.406-.02-.763-.216-1.169-.25a3.293,3.293,0,0,0-1.275.2A.355.355,0,0,1,299.669,220.2Z" transform="translate(20.89 7.513)" fill="#05004a"/>
      <path id="Trazado_127328" data-name="Trazado 127328" d="M292.284,221.074c.463-1.158,2.484-1.267,3.347-.55a.326.326,0,0,1-.142.54,7.392,7.392,0,0,1-1.559.015,5.155,5.155,0,0,0-1.249.393A.324.324,0,0,1,292.284,221.074Z" transform="translate(16.282 7.634)" fill="#05004a"/>
      <path id="Trazado_127329" data-name="Trazado 127329" d="M358.243,373.026c1.588,9.284-74.2-3.258-73.776-7.433,2.767-27.441,5.157-71.959,5.157-71.959s.033-2.309.015-6.091c-.047.344-.08.524-.08.524L286.333,302.1c-12.329.688-19.616-5.338-19.616-5.338s3.964-17.306,8.548-33.384c3.242-11.363,9.3-15.292,12.067-16.52a6.121,6.121,0,0,1,.982-.377l.475-.147c3.946-1.031,12.476-1.49,12.476-1.49s-2.145,11.625,11.772,12.738c15.7,1.261,14.85-13.393,14.85-13.393s30.716-9.856,35.808-13.229c0,0,7.908,10.118,11.083,21.743,0,0-19.024,9.529-28.094,21.317-.049,1.752-.115,2.833-.115,2.833S348.239,314.705,358.243,373.026Z" transform="translate(0 14.57)" fill="#f3f095"/>
      <path id="Trazado_127330" data-name="Trazado 127330" d="M271.273,310.717s.409,2.993.526,6.762.283,12.046,1.711,14.418a6.733,6.733,0,0,0,1.049.809,2.42,2.42,0,0,0,.316.178,6.853,6.853,0,0,0,2.479.819c.072.011.157.023.241.033a6.745,6.745,0,0,0,2.426-.178c.074-.02.146-.043.219-.064a9.719,9.719,0,0,0,2.143-.861s-.378-8.422.514-11.12c0,0,1.544,4.968,3.14,5.293l1.05-.378s-1.05-5.536-1.292-8.044c-.588-6.1-5.765-9.955-5.765-9.955S273.31,306.8,271.273,310.717Z" transform="translate(2.903 63.727)" fill="#f5a784"/>
      <path id="Trazado_127331" data-name="Trazado 127331" d="M276.9,328.094l.219-.064a84.529,84.529,0,0,1-.283-11.3.07.07,0,0,0-.136-.021A27.179,27.179,0,0,0,276.9,328.094Z" transform="translate(6.029 69.19)" fill="#e0855c"/>
      <path id="Trazado_127332" data-name="Trazado 127332" d="M275.26,328.145c.072.011.157.021.241.033a86.24,86.24,0,0,1-.295-11.3c0-.074-.115-.095-.124-.021A26.91,26.91,0,0,0,275.26,328.145Z" transform="translate(4.997 69.284)" fill="#e0855c"/>
      <path id="Trazado_127333" data-name="Trazado 127333" d="M273.513,327.242a2.156,2.156,0,0,0,.316.178,90.379,90.379,0,0,1-.231-10.69.064.064,0,0,0-.126-.021A24.548,24.548,0,0,0,273.513,327.242Z" transform="translate(3.949 69.19)" fill="#e0855c"/>
      <path id="Trazado_127334" data-name="Trazado 127334" d="M302.3,229.412c-1.235.067-2.382.578-3.636.635-1.059.047-2.241-.4-3.237-.07.742.889,2.413.827,3.469.788a5.936,5.936,0,0,0,3.559-.979A.221.221,0,0,0,302.3,229.412Z" transform="translate(18.298 13.585)" fill="#e0855c"/>
      <path id="Trazado_127335" data-name="Trazado 127335" d="M344.348,244.238s-19.024,9.529-28.094,21.317l-1.786-12.542Z" transform="translate(30.431 23.034)" fill="#bcb969"/>
    </g>
    <path id="Trazado_127603" data-name="Trazado 127603" d="M6.865-6.152a6.627,6.627,0,0,1-.3,2.251,3.362,3.362,0,0,1-1,1.382l-.645.6A2.547,2.547,0,0,0,4.014-.107,1.357,1.357,0,0,0,4.341.9a1.162,1.162,0,0,0,.845.317A1.29,1.29,0,0,0,6.206.806,1.794,1.794,0,0,0,6.592-.371H9.9A4,4,0,0,1,8.657,2.676,4.9,4.9,0,0,1,5.264,3.76,5.039,5.039,0,0,1,1.9,2.749,3.547,3.547,0,0,1,.713-.107a3.281,3.281,0,0,1,.371-1.528,6.061,6.061,0,0,1,1.27-1.558l.83-.762a2.243,2.243,0,0,0,.84-1.494l.049-.7ZM5.557-7.471a1.892,1.892,0,0,1-1.3-.464A1.516,1.516,0,0,1,3.73-9.121a1.516,1.516,0,0,1,.522-1.187,1.892,1.892,0,0,1,1.3-.464A1.86,1.86,0,0,1,6.87-10.3a1.537,1.537,0,0,1,.513,1.177A1.537,1.537,0,0,1,6.87-7.944,1.86,1.86,0,0,1,5.557-7.471ZM22.764-4.814a5.193,5.193,0,0,1-.8,2.622A4.833,4.833,0,0,1,19.907-.43,7,7,0,0,1,16.885.2a5.584,5.584,0,0,1-4.414-1.826,7.54,7.54,0,0,1-1.611-5.156v-.7a8.607,8.607,0,0,1,.728-3.657,5.513,5.513,0,0,1,2.095-2.422,5.844,5.844,0,0,1,3.164-.854,6.129,6.129,0,0,1,4.16,1.362,5.383,5.383,0,0,1,1.787,3.755H19.375a2.547,2.547,0,0,0-.654-1.865,2.691,2.691,0,0,0-1.875-.566,2.048,2.048,0,0,0-1.875.957,6.151,6.151,0,0,0-.625,3.057v1.006a6.806,6.806,0,0,0,.571,3.252,2.091,2.091,0,0,0,1.968.977,2.632,2.632,0,0,0,1.807-.557,2.363,2.363,0,0,0,.664-1.768Zm1.055-.566A6.236,6.236,0,0,1,24.434-8.2,4.4,4.4,0,0,1,26.2-10.1a5.323,5.323,0,0,1,2.705-.664,4.858,4.858,0,0,1,3.74,1.47,5.64,5.64,0,0,1,1.367,4v.117a5.472,5.472,0,0,1-1.372,3.921A4.871,4.871,0,0,1,28.926.2,4.927,4.927,0,0,1,25.3-1.157a5.29,5.29,0,0,1-1.475-3.667Zm3.291.205a3.932,3.932,0,0,0,.459,2.148,1.529,1.529,0,0,0,1.357.684q1.758,0,1.8-2.705v-.332q0-2.842-1.816-2.842-1.65,0-1.787,2.451ZM29.355-15h3.477l-2.715,3.066H27.432Zm9.219,4.434.107,1.24A3.633,3.633,0,0,1,41.7-10.762,2.675,2.675,0,0,1,44.4-9.17a3.516,3.516,0,0,1,3.105-1.592q3.213,0,3.3,3.887V0h-3.3V-6.67a2.014,2.014,0,0,0-.273-1.182,1.164,1.164,0,0,0-1-.371,1.559,1.559,0,0,0-1.455.869l.01.137V0h-3.3V-6.65a2.117,2.117,0,0,0-.264-1.2,1.161,1.161,0,0,0-1.006-.371,1.578,1.578,0,0,0-1.445.869V0H35.488V-10.566Zm13.7,5.186A6.236,6.236,0,0,1,52.891-8.2a4.4,4.4,0,0,1,1.768-1.9,5.323,5.323,0,0,1,2.705-.664,4.858,4.858,0,0,1,3.74,1.47,5.64,5.64,0,0,1,1.367,4v.117A5.472,5.472,0,0,1,61.1-1.255,4.871,4.871,0,0,1,57.383.2,4.927,4.927,0,0,1,53.76-1.157a5.29,5.29,0,0,1-1.475-3.667Zm3.291.205a3.932,3.932,0,0,0,.459,2.148,1.529,1.529,0,0,0,1.357.684q1.758,0,1.8-2.705v-.332q0-2.842-1.816-2.842-1.65,0-1.787,2.451ZM72.119-9.434a3.294,3.294,0,0,1,2.7-1.328,3.284,3.284,0,0,1,2.637,1.035,4.651,4.651,0,0,1,.908,3.057V0h-3.3V-6.592a1.86,1.86,0,0,0-.342-1.235,1.469,1.469,0,0,0-1.162-.4,1.582,1.582,0,0,0-1.436.645V0H68.828V-15h3.291ZM86.143,0a3.716,3.716,0,0,1-.312-.947A3.06,3.06,0,0,1,83.291.2a3.749,3.749,0,0,1-2.539-.9,2.875,2.875,0,0,1-1.045-2.271,2.955,2.955,0,0,1,1.27-2.6,6.468,6.468,0,0,1,3.691-.879h1.016v-.557q0-1.455-1.26-1.455a1.027,1.027,0,0,0-1.172,1.152H79.961a2.955,2.955,0,0,1,1.3-2.49,5.474,5.474,0,0,1,3.325-.957,4.8,4.8,0,0,1,3.193.986,3.429,3.429,0,0,1,1.2,2.705v4.678a4.79,4.79,0,0,0,.449,2.227V0ZM84.082-2.148A1.836,1.836,0,0,0,85.1-2.412a1.653,1.653,0,0,0,.581-.6V-4.7h-.957q-1.719,0-1.719,1.543a.942.942,0,0,0,.3.728A1.1,1.1,0,0,0,84.082-2.148Zm11.191-.2a1.464,1.464,0,0,0,1.074-.376,1.379,1.379,0,0,0,.371-1.05H99.8A3.653,3.653,0,0,1,98.56-.918,4.631,4.631,0,0,1,95.352.2,4.689,4.689,0,0,1,91.719-1.25a5.7,5.7,0,0,1-1.328-4v-.137a6.436,6.436,0,0,1,.591-2.827,4.3,4.3,0,0,1,1.7-1.885,5.081,5.081,0,0,1,2.637-.659,4.573,4.573,0,0,1,3.271,1.143,4.053,4.053,0,0,1,1.211,3.1H96.719a1.806,1.806,0,0,0-.4-1.26,1.382,1.382,0,0,0-1.074-.439q-1.279,0-1.494,1.631a11.508,11.508,0,0,0-.068,1.426,4.52,4.52,0,0,0,.381,2.207A1.319,1.319,0,0,0,95.273-2.344ZM106.309.2a5.432,5.432,0,0,1-3.936-1.45,5.008,5.008,0,0,1-1.5-3.774V-5.3a6.489,6.489,0,0,1,.6-2.861,4.395,4.395,0,0,1,1.753-1.919,5.292,5.292,0,0,1,2.734-.679,4.574,4.574,0,0,1,3.516,1.382,5.43,5.43,0,0,1,1.289,3.853v1.279h-6.543a2.372,2.372,0,0,0,.771,1.4,2.3,2.3,0,0,0,1.543.508,2.958,2.958,0,0,0,2.441-1.094l1.5,1.777a4.2,4.2,0,0,1-1.743,1.353A5.891,5.891,0,0,1,106.309.2Zm-.371-8.418q-1.445,0-1.719,1.914h3.32v-.254a1.63,1.63,0,0,0-.4-1.226A1.593,1.593,0,0,0,105.938-8.223Zm12.539.635-1.084-.078a1.947,1.947,0,0,0-1.992.977V0h-3.291V-10.566H115.2l.107,1.357a2.548,2.548,0,0,1,2.314-1.553,3.209,3.209,0,0,1,.918.117Zm12.461,6.445A3.393,3.393,0,0,1,128.115.2a3.328,3.328,0,0,1-2.632-1.011,4.251,4.251,0,0,1-.894-2.905v-6.846h3.291V-3.7A1.183,1.183,0,0,0,129.2-2.344a1.72,1.72,0,0,0,1.611-.811v-7.412h3.311V0h-3.086Zm8.008-9.424.107,1.24a3.583,3.583,0,0,1,3.018-1.436,3.015,3.015,0,0,1,2.466.986,4.7,4.7,0,0,1,.845,2.969V0h-3.3V-6.67a1.783,1.783,0,0,0-.322-1.177,1.491,1.491,0,0,0-1.172-.376,1.569,1.569,0,0,0-1.436.762V0h-3.291V-10.566ZM153.154,0a3.716,3.716,0,0,1-.312-.947A3.06,3.06,0,0,1,150.3.2a3.749,3.749,0,0,1-2.539-.9,2.875,2.875,0,0,1-1.045-2.271,2.955,2.955,0,0,1,1.27-2.6,6.468,6.468,0,0,1,3.691-.879H152.7v-.557q0-1.455-1.26-1.455a1.027,1.027,0,0,0-1.172,1.152h-3.291a2.955,2.955,0,0,1,1.3-2.49,5.474,5.474,0,0,1,3.325-.957,4.8,4.8,0,0,1,3.193.986A3.429,3.429,0,0,1,156-7.07v4.678a4.79,4.79,0,0,0,.449,2.227V0Zm-2.061-2.148a1.836,1.836,0,0,0,1.021-.264,1.652,1.652,0,0,0,.581-.6V-4.7h-.957q-1.719,0-1.719,1.543a.942.942,0,0,0,.3.728A1.1,1.1,0,0,0,151.094-2.148Zm16.172-.2a1.464,1.464,0,0,0,1.074-.376,1.379,1.379,0,0,0,.371-1.05H171.8a3.653,3.653,0,0,1-1.245,2.852A4.631,4.631,0,0,1,167.344.2a4.689,4.689,0,0,1-3.633-1.445,5.7,5.7,0,0,1-1.328-4v-.137a6.436,6.436,0,0,1,.591-2.827,4.3,4.3,0,0,1,1.7-1.885,5.081,5.081,0,0,1,2.637-.659,4.573,4.573,0,0,1,3.271,1.143,4.053,4.053,0,0,1,1.211,3.1h-3.086a1.807,1.807,0,0,0-.4-1.26,1.382,1.382,0,0,0-1.074-.439q-1.279,0-1.494,1.631a11.507,11.507,0,0,0-.068,1.426,4.52,4.52,0,0,0,.381,2.207A1.319,1.319,0,0,0,167.266-2.344ZM179.141,0a3.716,3.716,0,0,1-.312-.947A3.06,3.06,0,0,1,176.289.2a3.749,3.749,0,0,1-2.539-.9,2.875,2.875,0,0,1-1.045-2.271,2.955,2.955,0,0,1,1.27-2.6,6.468,6.468,0,0,1,3.691-.879h1.016v-.557q0-1.455-1.26-1.455a1.027,1.027,0,0,0-1.172,1.152h-3.291a2.955,2.955,0,0,1,1.3-2.49,5.474,5.474,0,0,1,3.325-.957,4.8,4.8,0,0,1,3.193.986,3.429,3.429,0,0,1,1.2,2.705v4.678a4.79,4.79,0,0,0,.449,2.227V0ZM177.08-2.148a1.836,1.836,0,0,0,1.021-.264,1.652,1.652,0,0,0,.581-.6V-4.7h-.957q-1.719,0-1.719,1.543a.942.942,0,0,0,.3.728A1.1,1.1,0,0,0,177.08-2.148Zm9.834-8.418.107,1.24a3.633,3.633,0,0,1,3.018-1.436,2.675,2.675,0,0,1,2.705,1.592,3.516,3.516,0,0,1,3.105-1.592q3.213,0,3.3,3.887V0h-3.3V-6.67a2.014,2.014,0,0,0-.273-1.182,1.164,1.164,0,0,0-1-.371,1.559,1.559,0,0,0-1.455.869l.01.137V0h-3.3V-6.65a2.117,2.117,0,0,0-.264-1.2,1.161,1.161,0,0,0-1.006-.371,1.578,1.578,0,0,0-1.445.869V0h-3.291V-10.566ZM210.84-5.205a6.372,6.372,0,0,1-1.108,3.931A3.554,3.554,0,0,1,206.738.2a3.046,3.046,0,0,1-2.393-1.064V4.063h-3.291V-10.566h3.076l.1.977a3.046,3.046,0,0,1,2.49-1.172,3.582,3.582,0,0,1,3.037,1.44,6.45,6.45,0,0,1,1.084,3.96Zm-3.291-.205q0-2.812-1.641-2.812a1.549,1.549,0,0,0-1.562.84v4.16a1.6,1.6,0,0,0,1.582.879q1.572,0,1.621-2.715ZM218.242,0a3.716,3.716,0,0,1-.312-.947A3.06,3.06,0,0,1,215.391.2a3.749,3.749,0,0,1-2.539-.9,2.875,2.875,0,0,1-1.045-2.271,2.955,2.955,0,0,1,1.27-2.6,6.468,6.468,0,0,1,3.691-.879h1.016v-.557q0-1.455-1.26-1.455a1.027,1.027,0,0,0-1.172,1.152h-3.291a2.955,2.955,0,0,1,1.3-2.49,5.474,5.474,0,0,1,3.325-.957,4.8,4.8,0,0,1,3.193.986,3.429,3.429,0,0,1,1.2,2.705v4.678a4.79,4.79,0,0,0,.449,2.227V0Zm-2.061-2.148a1.836,1.836,0,0,0,1.021-.264,1.652,1.652,0,0,0,.581-.6V-4.7h-.957q-1.719,0-1.719,1.543a.942.942,0,0,0,.3.728A1.1,1.1,0,0,0,216.182-2.148Zm9.746-8.418.107,1.24a3.583,3.583,0,0,1,3.018-1.436,3.015,3.015,0,0,1,2.466.986,4.7,4.7,0,0,1,.845,2.969V0h-3.3V-6.67a1.783,1.783,0,0,0-.322-1.177,1.491,1.491,0,0,0-1.172-.376,1.569,1.569,0,0,0-1.436.762V0h-3.291V-10.566Zm5.459-4.355a2.847,2.847,0,0,1-.649,1.89,2.015,2.015,0,0,1-1.606.776,3.169,3.169,0,0,1-1.436-.41,2.994,2.994,0,0,0-1.279-.41.733.733,0,0,0-.532.215.892.892,0,0,0-.22.664l-1.826-.1a2.863,2.863,0,0,1,.649-1.875,1.992,1.992,0,0,1,1.6-.791,3.327,3.327,0,0,1,1.279.356,7.907,7.907,0,0,0,1,.405,1.957,1.957,0,0,0,.444.049.75.75,0,0,0,.537-.215.881.881,0,0,0,.225-.664ZM240.137,0a3.716,3.716,0,0,1-.312-.947A3.06,3.06,0,0,1,237.285.2a3.749,3.749,0,0,1-2.539-.9A2.875,2.875,0,0,1,233.7-2.979a2.955,2.955,0,0,1,1.27-2.6,6.468,6.468,0,0,1,3.691-.879h1.016v-.557q0-1.455-1.26-1.455a1.027,1.027,0,0,0-1.172,1.152h-3.291a2.955,2.955,0,0,1,1.3-2.49,5.474,5.474,0,0,1,3.325-.957,4.8,4.8,0,0,1,3.193.986,3.429,3.429,0,0,1,1.2,2.705v4.678a4.79,4.79,0,0,0,.449,2.227V0Zm-2.061-2.148a1.836,1.836,0,0,0,1.021-.264,1.652,1.652,0,0,0,.581-.6V-4.7h-.957Q237-4.7,237-3.154a.942.942,0,0,0,.3.728A1.1,1.1,0,0,0,238.076-2.148ZM10.732,21.795a6.372,6.372,0,0,1-1.108,3.931A3.554,3.554,0,0,1,6.631,27.2a3.046,3.046,0,0,1-2.393-1.064v4.932H.947V16.434H4.023l.1.977a3.046,3.046,0,0,1,2.49-1.172,3.582,3.582,0,0,1,3.037,1.44,6.45,6.45,0,0,1,1.084,3.96ZM7.441,21.59q0-2.812-1.641-2.812a1.549,1.549,0,0,0-1.562.84v4.16a1.6,1.6,0,0,0,1.582.879q1.572,0,1.621-2.715Zm11.133-2.178-1.084-.078a1.947,1.947,0,0,0-1.992.977V27H12.207V16.434h3.086l.107,1.357a2.548,2.548,0,0,1,2.314-1.553,3.209,3.209,0,0,1,.918.117Zm.42,2.207a6.236,6.236,0,0,1,.615-2.817,4.4,4.4,0,0,1,1.768-1.9,5.323,5.323,0,0,1,2.705-.664,4.858,4.858,0,0,1,3.74,1.47,5.64,5.64,0,0,1,1.367,4v.117a5.472,5.472,0,0,1-1.372,3.921A4.871,4.871,0,0,1,24.1,27.2a4.927,4.927,0,0,1-3.623-1.353A5.29,5.29,0,0,1,19,22.176Zm3.291.205a3.932,3.932,0,0,0,.459,2.148,1.529,1.529,0,0,0,1.357.684q1.758,0,1.8-2.705v-.332q0-2.842-1.816-2.842-1.65,0-1.787,2.451ZM33.75,16.434l.107,1.24a3.633,3.633,0,0,1,3.018-1.436A2.675,2.675,0,0,1,39.58,17.83a3.517,3.517,0,0,1,3.105-1.592q3.213,0,3.3,3.887V27h-3.3V20.33a2.014,2.014,0,0,0-.273-1.182,1.164,1.164,0,0,0-1-.371,1.559,1.559,0,0,0-1.455.869l.01.137V27h-3.3V20.35a2.117,2.117,0,0,0-.264-1.2,1.161,1.161,0,0,0-1.006-.371,1.578,1.578,0,0,0-1.445.869V27H30.664V16.434Zm13.7,5.186a6.236,6.236,0,0,1,.615-2.817,4.4,4.4,0,0,1,1.768-1.9,5.323,5.323,0,0,1,2.705-.664,4.858,4.858,0,0,1,3.74,1.47,5.64,5.64,0,0,1,1.367,4v.117a5.472,5.472,0,0,1-1.372,3.921,4.871,4.871,0,0,1-3.716,1.45,4.927,4.927,0,0,1-3.623-1.353,5.29,5.29,0,0,1-1.475-3.667Zm3.291.205a3.932,3.932,0,0,0,.459,2.148,1.529,1.529,0,0,0,1.357.684q1.758,0,1.8-2.705v-.332q0-2.842-1.816-2.842-1.65,0-1.787,2.451Zm12.822,2.832a1.464,1.464,0,0,0,1.074-.376,1.379,1.379,0,0,0,.371-1.05H68.1a3.653,3.653,0,0,1-1.245,2.852A4.631,4.631,0,0,1,63.643,27.2,4.689,4.689,0,0,1,60.01,25.75a5.7,5.7,0,0,1-1.328-4v-.137a6.436,6.436,0,0,1,.591-2.827,4.3,4.3,0,0,1,1.7-1.885,5.081,5.081,0,0,1,2.637-.659,4.573,4.573,0,0,1,3.271,1.143,4.053,4.053,0,0,1,1.211,3.1H65.01a1.806,1.806,0,0,0-.4-1.26,1.382,1.382,0,0,0-1.074-.439q-1.279,0-1.494,1.631a11.507,11.507,0,0,0-.068,1.426,4.52,4.52,0,0,0,.381,2.207A1.319,1.319,0,0,0,63.564,24.656ZM72.959,27h-3.3V16.434h3.3Zm-3.5-13.291a1.469,1.469,0,0,1,.508-1.152,2.159,2.159,0,0,1,2.637,0,1.561,1.561,0,0,1,0,2.3,2.159,2.159,0,0,1-2.637,0A1.469,1.469,0,0,1,69.463,13.709Zm5.107,7.91a6.236,6.236,0,0,1,.615-2.817,4.4,4.4,0,0,1,1.768-1.9,5.323,5.323,0,0,1,2.705-.664,4.858,4.858,0,0,1,3.74,1.47,5.64,5.64,0,0,1,1.367,4v.117a5.472,5.472,0,0,1-1.372,3.921,4.871,4.871,0,0,1-3.716,1.45,4.927,4.927,0,0,1-3.623-1.353,5.29,5.29,0,0,1-1.475-3.667Zm3.291.205a3.932,3.932,0,0,0,.459,2.148,1.529,1.529,0,0,0,1.357.684q1.758,0,1.8-2.705v-.332q0-2.842-1.816-2.842-1.65,0-1.787,2.451Zm11.377-5.391.107,1.24a3.583,3.583,0,0,1,3.018-1.436,3.015,3.015,0,0,1,2.466.986,4.7,4.7,0,0,1,.845,2.969V27h-3.3V20.33a1.783,1.783,0,0,0-.322-1.177,1.491,1.491,0,0,0-1.172-.376,1.569,1.569,0,0,0-1.436.762V27H86.152V16.434ZM103.447,27a3.716,3.716,0,0,1-.312-.947A3.06,3.06,0,0,1,100.6,27.2a3.749,3.749,0,0,1-2.539-.9,2.875,2.875,0,0,1-1.045-2.271,2.955,2.955,0,0,1,1.27-2.6,6.468,6.468,0,0,1,3.691-.879h1.016v-.557q0-1.455-1.26-1.455a1.027,1.027,0,0,0-1.172,1.152H97.266a2.955,2.955,0,0,1,1.3-2.49,5.474,5.474,0,0,1,3.325-.957,4.8,4.8,0,0,1,3.193.986,3.429,3.429,0,0,1,1.2,2.705v4.678a4.79,4.79,0,0,0,.449,2.227V27Zm-2.061-2.148a1.836,1.836,0,0,0,1.021-.264,1.653,1.653,0,0,0,.581-.6V22.3h-.957q-1.719,0-1.719,1.543a.942.942,0,0,0,.3.728A1.1,1.1,0,0,0,101.387,24.852ZM111.582,27h-3.3V12h3.3Zm4.463-4.5a6.356,6.356,0,0,1,.322-2.251,3.521,3.521,0,0,1,1.045-1.431,6.947,6.947,0,0,0,1.1-1.108,1.809,1.809,0,0,0,.376-1.108q0-1.475-1.27-1.475a1.178,1.178,0,0,0-.947.43,1.828,1.828,0,0,0-.381,1.162h-3.3a3.937,3.937,0,0,1,1.23-3.042,4.906,4.906,0,0,1,3.4-1.089,5.1,5.1,0,0,1,3.374,1.006,3.53,3.53,0,0,1,1.2,2.861,3.333,3.333,0,0,1-.322,1.475,4.984,4.984,0,0,1-1.035,1.357l-1.123,1.045a2.642,2.642,0,0,0-.664.942,3.735,3.735,0,0,0-.205,1.226Zm-.4,2.969a1.516,1.516,0,0,1,.522-1.187,2.064,2.064,0,0,1,2.607,0,1.609,1.609,0,0,1,0,2.373,2.064,2.064,0,0,1-2.607,0A1.516,1.516,0,0,1,115.645,25.467Z" transform="translate(352 3999.66)" fill="#12263f"/>
  </g>
</svg>
