<svg xmlns="http://www.w3.org/2000/svg" xmlns:xlink="http://www.w3.org/1999/xlink" width="503" height="490.253" viewBox="0 0 503 490.253">
  <defs>
    <clipPath id="clip-path">
      <path id="Trazado_126977" data-name="Trazado 126977" d="M418.952,109.749H58.29v199.93H434.556v-159.8Z" transform="translate(-58.29 -109.749)" fill="none"/>
    </clipPath>
  </defs>
  <g id="Grupo_68148" data-name="Grupo 68148" transform="translate(-287 -2833)">
    <g id="Rectángulo_7697" data-name="Rectángulo 7697" transform="translate(287 2833)" fill="#9c272b" stroke="#707070" stroke-width="1">
      <rect width="503" height="490" stroke="none"/>
      <rect x="0.5" y="0.5" width="502" height="489" fill="none"/>
    </g>
    <g id="Grupo_68147" data-name="Grupo 68147" transform="translate(313.474 2833)">
      <g id="Grupo_68037" data-name="Grupo 68037" transform="translate(0 19.61)">
        <rect id="Rectángulo_7695" data-name="Rectángulo 7695" width="452" height="451" transform="translate(-0.474 0.39)" fill="#b72029"/>
        <g id="Grupo_68036" data-name="Grupo 68036" transform="translate(16.178 16.178)">
          <rect id="Rectángulo_7696" data-name="Rectángulo 7696" width="418.676" height="418.676" fill="#e4d3a5"/>
          <g id="Grupo_68027" data-name="Grupo 68027">
            <path id="Trazado_126971" data-name="Trazado 126971" d="M455.176,455.176H36.5V36.5H455.176ZM43.364,448.313H448.313V43.364H43.364Z" transform="translate(-36.5 -36.5)" fill="#261006"/>
          </g>
          <g id="Grupo_68035" data-name="Grupo 68035" transform="translate(13.901 12.37)">
            <path id="Trazado_126972" data-name="Trazado 126972" d="M434.55,77.056,415.106,57.613H77.407L57.963,77.056V334.417H434.55Z" transform="translate(-50.819 -49.281)" fill="#b72029"/>
            <g id="Grupo_68028" data-name="Grupo 68028" transform="translate(0 8.331)">
              <path id="Trazado_126973" data-name="Trazado 126973" d="M355.822,95.4,385.4,75.242v4.471l35.51-22.1,25.1,18.892L378.073,95.4l.577-9.095Z" transform="translate(-56.626 -57.613)" fill="#e4d3a5"/>
              <path id="Trazado_126974" data-name="Trazado 126974" d="M140.869,95.4,111.289,75.242v4.471l-35.51-22.1L50.677,76.5,118.618,95.4l-.576-9.095Z" transform="translate(-50.677 -57.613)" fill="#e4d3a5"/>
            </g>
            <g id="Grupo_68030" data-name="Grupo 68030" transform="translate(7.464 59.451)">
              <g id="Grupo_68029" data-name="Grupo 68029" clip-path="url(#clip-path)">
                <path id="Trazado_126975" data-name="Trazado 126975" d="M434.55,77.056,415.106,57.613H77.407L57.963,77.056V320.578H434.55Z" transform="translate(-58.283 -108.733)" fill="#b72029"/>
                <path id="Trazado_126976" data-name="Trazado 126976" d="M250.834,206.538c.006-.076.006-.156.011-.229l171.594,2.951c-.284-16.6.152-8.3-1.327-24.893L250.814,205.7c-.009-.072-.026-.152-.035-.231s-.031-.152-.049-.227l166.952-39.835c-4.459-16.137-1.944-8.172-7.535-23.9l-159.6,63.161c-.031-.077-.064-.147-.089-.217s-.07-.141-.108-.208l151.741-80.222c-8.29-14.417-3.894-7.369-13.178-21.15L250.036,203.722c-.052-.059-.1-.126-.15-.187s-.1-.12-.151-.176L376.835,88c-11.577-11.895-5.587-6.158-17.982-17.215L249.294,202.939c-.062-.048-.12-.093-.18-.145s-.13-.09-.192-.135l94.51-143.316c-14.259-8.7-6.989-4.618-21.8-12.27L248.4,202.365c-.076-.034-.146-.065-.216-.092a1.993,1.993,0,0,0-.22-.084L303.731,39.8c-15.971-4.858-7.92-2.724-24.176-6.423L247.374,202.035c-.074-.013-.147-.03-.231-.041s-.153-.014-.227-.025L260.558,30.807c-16.629-.746-8.313-.667-24.881-.243l10.624,171.4c-.076.006-.153.009-.236.018s-.146.022-.226.035L216.5,32.8c-16.351,3.429-8.237,1.423-24.327,6.013l53.078,163.354a1.974,1.974,0,0,0-.22.081,2.253,2.253,0,0,0-.219.086L174.189,45.758c-14.915,7.378-7.6,3.429-21.952,11.841l92.037,145.019c-.065.049-.128.089-.192.13l-.187.141L136.634,68.733c-12.591,10.808-6.492,5.188-18.286,16.859l125.1,117.715c-.05.055-.1.11-.159.174s-.1.119-.149.182l-137.187-103.4c-9.555,13.642-5.022,6.654-13.6,20.977l150.468,82.933c-.036.061-.076.136-.109.2s-.068.143-.1.216L83.982,138.6c-5.862,15.647-3.215,7.734-7.947,23.764l166.386,42.8c-.017.078-.033.155-.05.228s-.027.15-.039.229L72.287,181.175c-1.779,16.55-1.183,8.249-1.793,24.889l171.795.168c0,.077,0,.157.007.231s.012.159.018.236L71.507,225.209c2.388,16.546.9,8.335,4.462,24.656L242.421,207.3c.021.072.043.149.067.227s.052.141.077.217l-160.8,60.518c6.452,15.409,2.96,7.83,10.462,22.7l150.585-82.669c.043.067.086.139.122.2s.089.131.132.194L102.384,307.258c10,13.235,4.771,6.8,15.682,19.3l125.378-117.4c.052.053.111.11.165.163s.114.106.172.159L131.914,339.817c12.995,10.378,6.33,5.433,20.027,14.866l92.328-144.842c.065.043.134.078.2.125s.136.07.207.106L168.741,364.134c15.27,6.851,7.524,3.7,23.214,9.436L245.241,210.3c.078.027.143.047.22.067s.158.036.234.053L210.618,378.527c16.326,2.794,8.11,1.682,24.658,3.327L246.3,210.5c.074,0,.156,0,.226.011s.16,0,.236,0l7.679,171.528c16.627-1.336,8.344-.373,24.849-2.9l-31.926-168.7c.08-.018.152-.032.229-.053l.224-.061L298.045,374.5c15.762-5.446,7.978-2.441,23.339-9.011l-73-155.39c.067-.031.139-.066.209-.1s.132-.076.2-.11l89.492,146.483c13.849-9.16,7.1-4.342,20.261-14.451L249.29,209.529a1.675,1.675,0,0,0,.173-.148c.061-.06.117-.109.178-.164l122.991,119.72c11.162-12.311,5.8-5.965,16.073-19.046L250.024,208.752c.048-.064.092-.13.137-.189s.078-.136.121-.2l148.9,85.375c7.787-14.773,4.157-7.249,10.883-22.58L250.544,207.814c.027-.073.053-.146.084-.222s.044-.146.064-.22l165.485,45.518c3.841-16.219,2.218-8.07,4.881-24.447L250.812,206.779C250.818,206.7,250.829,206.623,250.834,206.538Z" transform="translate(-58.528 -108.199)" fill="#931b26" fill-rule="evenodd"/>
              </g>
            </g>
            <g id="Grupo_68031" data-name="Grupo 68031" transform="translate(0 267.801)">
              <path id="Trazado_126978" data-name="Trazado 126978" d="M355.822,322.241,385.4,342.394l7.139,3.869,28.371,13.761,25.1-18.892-67.941-18.892.577,9.095Z" transform="translate(-56.626 -322.241)" fill="#e4d3a5"/>
              <path id="Trazado_126979" data-name="Trazado 126979" d="M140.869,322.241l-29.581,20.154-7.348,10.88-28.162,6.75-25.1-18.892,67.94-18.892-.576,9.095Z" transform="translate(-50.677 -322.241)" fill="#e4d3a5"/>
            </g>
            <g id="Grupo_68032" data-name="Grupo 68032" transform="translate(378.162)">
              <path id="Trazado_126980" data-name="Trazado 126980" d="M450.645,439.363l-4.936-.717-2.208-4.473-2.208,4.473-4.936.717,3.572,3.482-.843,4.916,4.415-2.321,4.415,2.321-.843-4.916Z" transform="translate(-436.358 -56.622)" fill="#b72029"/>
              <path id="Trazado_126981" data-name="Trazado 126981" d="M450.645,54.306l-4.936-.717L443.5,49.116l-2.208,4.473-4.936.717,3.572,3.482-.843,4.916,4.415-2.321,4.415,2.321-.843-4.916Z" transform="translate(-436.358 -49.116)" fill="#b72029"/>
            </g>
            <g id="Grupo_68033" data-name="Grupo 68033">
              <path id="Trazado_126982" data-name="Trazado 126982" d="M64.965,439.363l-4.936-.717-2.208-4.473-2.208,4.473-4.936.717,3.572,3.482-.843,4.916,4.415-2.321,4.415,2.321-.843-4.916Z" transform="translate(-50.677 -56.622)" fill="#b72029"/>
              <path id="Trazado_126983" data-name="Trazado 126983" d="M64.965,54.306l-4.936-.717-2.208-4.473-2.208,4.473-4.936.717,3.572,3.482L53.406,62.7l4.415-2.321L62.236,62.7l-.843-4.916Z" transform="translate(-50.677 -49.116)" fill="#b72029"/>
            </g>
            <g id="Grupo_68034" data-name="Grupo 68034" transform="translate(105.049 3.084)">
              <path id="Trazado_126984" data-name="Trazado 126984" d="M331.562,91.749H167L157.815,72,167,52.261H331.562L338.969,72Z" transform="translate(-157.815 -52.261)" fill="#261006" fill-rule="evenodd"/>
              <path id="Trazado_126985" data-name="Trazado 126985" d="M263.861,68.115l-9.636-1.4-4.309-8.732-4.31,8.732-9.636,1.4,6.973,6.8-1.646,9.6,8.619-4.531,8.619,4.531-1.646-9.6Z" transform="translate(-159.338 -52.372)" fill="#931b26"/>
              <path id="Trazado_126986" data-name="Trazado 126986" d="M256.9,69.843l-4.732-.688-2.116-4.288-2.116,4.288-4.732.688,3.424,3.338-.808,4.713,4.233-2.225,4.233,2.225-.808-4.713Z" transform="translate(-159.479 -52.507)" fill="#e4d3a5"/>
            </g>
          </g>
        </g>
      </g>
      <g id="Grupo_68146" data-name="Grupo 68146" transform="translate(37.223)">
        <g id="Grupo_68039" data-name="Grupo 68039" transform="translate(15.933)">
          <g id="Grupo_68038" data-name="Grupo 68038" transform="translate(0 417.411)">
            <path id="Trazado_126987" data-name="Trazado 126987" d="M74.213,478.947v19.6H418.934v-19.6L246.573,425.71Z" transform="translate(-74.213 -425.71)" fill="#931b26"/>
            <path id="Trazado_126988" data-name="Trazado 126988" d="M101.359,487.9v10.983H392.846V487.9L247.1,442.887Z" transform="translate(-74.742 -426.045)" fill="#b72029"/>
          </g>
          <path id="Trazado_126989" data-name="Trazado 126989" d="M186.841,27.807V10.415H310.7V27.807L248.769,46.935Z" transform="translate(-76.408 -0.203)" fill="#931b26"/>
          <path id="Trazado_126990" data-name="Trazado 126990" d="M205.767,16.1V0h86.742V16.1L249.138,29.5Z" transform="translate(-76.777)" fill="#b72029"/>
          <path id="Trazado_126991" data-name="Trazado 126991" d="M227.586,8.159V0H271.54V8.159l-21.977,6.788Z" transform="translate(-77.202)" fill="#261006"/>
        </g>
        <g id="Grupo_68145" data-name="Grupo 68145" transform="translate(0 93.292)">
          <g id="Grupo_68144" data-name="Grupo 68144" transform="translate(89.983)">
            <path id="Trazado_126992" data-name="Trazado 126992" d="M283.776,354.913l12.259-69.189V266.912S320,203.148,320,201.773s-4.585-19.3-4.585-19.3l-6.419-19.215-10.086-13.933s-.487-11.813-2.873-19.08-16.874-14.213-16.874-14.213L262.64,103.654h-16.6L226.667,114.67,202.275,127.5l-13.741,12.127H165.38l-10.442,13.092,4.585,27.51,34.387,42.642,20.175,26.591-2.751,27.968L197.12,315.94,174.2,354.913l34.084,2.809,21.052,3.609" transform="translate(-149.836 -95.313)" fill="#e4d3a5"/>
            <g id="Grupo_68082" data-name="Grupo 68082">
              <g id="Grupo_68040" data-name="Grupo 68040">
                <path id="Trazado_126993" data-name="Trazado 126993" d="M274.2,391.61l-7.7-4.1c.222-.418,22.2-42.6,24.562-116.551l.023-.713.248-.668c.182-.488,18.2-48.949,21.366-58.846,3.3-10.313,5.648-20.914.525-28.6a45.671,45.671,0,0,1-6.159-13.29,20.261,20.261,0,0,0-3.031-6.768c-.937-1.279-1.774-2.27-2.582-3.229-3.254-3.857-5.271-6.643-5.7-14.931-.378-7.272-2.07-10-10.062-16.226-8.371-6.519-10.821-9.354-13.658-12.636-.64-.741-1.3-1.509-2.076-2.359-3.128-3.441-10.834-9.691-17.587-8.726-5.864.838-24.163,9.718-32.956,13.985-3.175,1.541-5.468,2.654-6.759,3.216-3.878,1.691-10.154,7.873-13.581,12.587a44.228,44.228,0,0,1-7.723,8.156l-1.548,1.2-1.928-.359c-6.237-1.16-16.937-2.966-20.525-3.147-1.735,1.223-5.5,6.759-8.476,12.44l5.173,26.229c10.243,13.407,26.567,34.521,28.621,36.515a3.308,3.308,0,0,0-.662-.475c1.626,1,5.458,5.339,26.409,32.61l.989,1.287-.093,1.621c-.069,1.171-1.766,28.952-11.208,53.175-9.385,24.072-38.1,65.017-39.315,66.749l-7.135-5.019c.292-.416,29.322-41.812,38.322-64.9,7.691-19.728,10.005-42.738,10.51-48.917C200.232,237.6,188.842,223.1,187.158,221.5a3.391,3.391,0,0,0,.7.481c-1.664-.978-5.668-5.569-31.359-39.221l-.617-.807-6.146-31.167.667-1.333c6.166-12.333,11.7-18.586,16.436-18.586,3.9,0,15.616,2.037,20.56,2.93a36.735,36.735,0,0,0,4.622-5.176c3.413-4.695,10.8-12.682,17.149-15.453,1.128-.491,3.471-1.629,6.437-3.068,14.328-6.954,28.874-13.821,35.531-14.772,9.686-1.385,19.669,5.326,25.275,11.493.828.909,1.536,1.729,2.222,2.522,2.641,3.054,4.726,5.466,12.419,11.458,8.819,6.868,12.848,11.77,13.413,22.656.3,5.78,1.146,6.783,3.657,9.76.861,1.021,1.836,2.176,2.949,3.695a28.545,28.545,0,0,1,4.331,9.354,37.078,37.078,0,0,0,5.081,11.024c7.171,10.756,4.491,23.706.526,36.1-3.061,9.565-18.969,52.425-21.25,58.562-1.327,39.386-8.118,69.639-13.6,88.124C280.14,380.376,274.442,391.161,274.2,391.61ZM167.6,139.456" transform="translate(-149.735 -95.147)" fill="#261006"/>
              </g>
              <g id="Grupo_68070" data-name="Grupo 68070" transform="translate(13.016 14.155)">
                <g id="Grupo_68041" data-name="Grupo 68041" transform="translate(89.135)">
                  <path id="Trazado_126994" data-name="Trazado 126994" d="M264.558,121.033a16.146,16.146,0,0,1-2.409-1.194,16.986,16.986,0,0,1-4.219-3.448,25.411,25.411,0,0,1-2.743-4.351l-1.27-2.272a6.489,6.489,0,0,1,.751-.131,7.32,7.32,0,0,1,2.039.04,8.939,8.939,0,0,1,2.805.921,9.34,9.34,0,0,1,2.7,2.151,10.525,10.525,0,0,1,2.3,5.572A12.285,12.285,0,0,1,264.558,121.033Z" transform="translate(-253.917 -109.583)" fill="#261006"/>
                </g>
                <g id="Grupo_68042" data-name="Grupo 68042" transform="translate(111.352 19.554)">
                  <path id="Trazado_126995" data-name="Trazado 126995" d="M290.908,149.7s-.229-.34-.585-.932c-.173-.3-.385-.654-.652-1.054s-.519-.858-.856-1.336c-.619-.972-1.39-2.063-2.2-3.233l-2.637-3.7-2.625-3.706c-.838-1.149-1.615-2.238-2.329-3.142-.341-.476-.687-.869-.981-1.248s-.557-.7-.78-.963c-.442-.53-.687-.859-.687-.859s.392.009,1.1.086a9.038,9.038,0,0,1,1.283.213,12.582,12.582,0,0,1,1.662.46,16.078,16.078,0,0,1,4.013,2.031,15.9,15.9,0,0,1,6.29,8.853,16.08,16.08,0,0,1,.6,4.457,12.654,12.654,0,0,1-.113,1.721,9.133,9.133,0,0,1-.221,1.282C291.029,149.325,290.908,149.7,290.908,149.7Z" transform="translate(-276.576 -129.526)" fill="#261006"/>
                </g>
                <g id="Grupo_68043" data-name="Grupo 68043" transform="translate(129.946 53.303)">
                  <path id="Trazado_126996" data-name="Trazado 126996" d="M302.436,176.858s-.146-.237-.4-.587a8.358,8.358,0,0,0-1.1-1.219,25.645,25.645,0,0,1-3.321-3.129,9.646,9.646,0,0,1-2.066-5.316,5.845,5.845,0,0,1,.23-1.975,3.853,3.853,0,0,1,.273-.686l.568.433c.349.263.853.591,1.427.938a13.558,13.558,0,0,1,3.987,3.132,7.8,7.8,0,0,1,1.634,5.936,4.787,4.787,0,0,1-.748,1.906A3.3,3.3,0,0,1,302.436,176.858Z" transform="translate(-295.54 -163.946)" fill="#261006"/>
                </g>
                <g id="Grupo_68044" data-name="Grupo 68044" transform="translate(141.596 74.452)">
                  <path id="Trazado_126997" data-name="Trazado 126997" d="M311.382,196.935a17.118,17.118,0,0,1-1.579-1.547,7.663,7.663,0,0,1-2.122-7.737,17.106,17.106,0,0,1,.568-2.136,7.771,7.771,0,0,1,2.018,1.036,6.506,6.506,0,0,1,2.322,8.462A7.794,7.794,0,0,1,311.382,196.935Z" transform="translate(-307.421 -185.515)" fill="#261006"/>
                </g>
                <g id="Grupo_68045" data-name="Grupo 68045" transform="translate(96.306 90.527)">
                  <path id="Trazado_126998" data-name="Trazado 126998" d="M272.6,214.194a12.732,12.732,0,0,1-2.463-.838,15.186,15.186,0,0,1-8.262-8.926,12.649,12.649,0,0,1-.645-2.52s.743.689,1.835,1.772,2.558,2.526,4.071,4.165,2.838,3.206,3.839,4.38S272.6,214.194,272.6,214.194Z" transform="translate(-261.23 -201.91)" fill="#261006"/>
                </g>
                <g id="Grupo_68046" data-name="Grupo 68046" transform="translate(101.826 90.539)">
                  <path id="Trazado_126999" data-name="Trazado 126999" d="M273.061,209.914a5.346,5.346,0,0,1-1.67-.277,6.4,6.4,0,0,1-4.53-6.033,5.365,5.365,0,0,1,.2-1.682s.473.485,1.112,1.178a25.191,25.191,0,0,1,4.067,5.417C272.726,209.325,273.061,209.914,273.061,209.914Z" transform="translate(-266.86 -201.922)" fill="#261006"/>
                </g>
                <g id="Grupo_68047" data-name="Grupo 68047" transform="translate(106.299 113.107)">
                  <path id="Trazado_127000" data-name="Trazado 127000" d="M271.422,224.939" transform="translate(-271.422 -224.939)" fill="#261006"/>
                </g>
                <g id="Grupo_68048" data-name="Grupo 68048" transform="translate(99.116 112.546)">
                  <path id="Trazado_127001" data-name="Trazado 127001" d="M264.1,225.419s.876-.207,2.212-.428a39.814,39.814,0,0,1,10.186-.506c1.352.087,2.244.207,2.244.207a11.37,11.37,0,0,1-1.971,1.171,13.418,13.418,0,0,1-10.594.528A11.431,11.431,0,0,1,264.1,225.419Z" transform="translate(-264.096 -224.366)" fill="#261006"/>
                </g>
                <g id="Grupo_68049" data-name="Grupo 68049" transform="translate(78.141 69.464)">
                  <path id="Trazado_127002" data-name="Trazado 127002" d="M249.766,190.364a7.663,7.663,0,0,1-1.858-.645,9.042,9.042,0,0,1-5.154-7.325,7.618,7.618,0,0,1,.021-1.966s.535.565,1.275,1.421,1.7,1.98,2.609,3.274,1.636,2.573,2.2,3.561S249.766,190.364,249.766,190.364Z" transform="translate(-242.705 -180.428)" fill="#261006"/>
                </g>
                <g id="Grupo_68050" data-name="Grupo 68050" transform="translate(73.507 73.838)">
                  <path id="Trazado_127003" data-name="Trazado 127003" d="M243.521,193.024a8.777,8.777,0,0,1-5.543-8.135,9.963,9.963,0,0,1,5.543,8.135Z" transform="translate(-237.978 -184.889)" fill="#261006"/>
                </g>
                <g id="Grupo_68051" data-name="Grupo 68051" transform="translate(60.55 41.518)">
                  <path id="Trazado_127004" data-name="Trazado 127004" d="M232.642,166.845a12.643,12.643,0,0,1-2.179-1.451,15.129,15.129,0,0,1-5.662-10.851,12.584,12.584,0,0,1,.056-2.617s.528.872,1.291,2.216,1.794,3.136,2.829,5.125,1.914,3.852,2.586,5.252S232.642,166.845,232.642,166.845Z" transform="translate(-224.764 -151.926)" fill="#261006"/>
                </g>
                <g id="Grupo_68052" data-name="Grupo 68052" transform="translate(57.153 46.859)">
                  <path id="Trazado_127005" data-name="Trazado 127005" d="M226.782,165.562a5.06,5.06,0,0,1-1.6-.377,6.048,6.048,0,0,1-3.855-6.207,5.064,5.064,0,0,1,.374-1.605s.419.512.981,1.231a22.733,22.733,0,0,1,3.438,5.533C226.51,164.959,226.782,165.562,226.782,165.562Z" transform="translate(-221.299 -157.374)" fill="#261006"/>
                </g>
                <g id="Grupo_68053" data-name="Grupo 68053" transform="translate(74.783 25.365)">
                  <path id="Trazado_127006" data-name="Trazado 127006" d="M239.28,135.452" transform="translate(-239.28 -135.452)" fill="#261006"/>
                </g>
                <g id="Grupo_68054" data-name="Grupo 68054" transform="translate(71.221 15.555)">
                  <path id="Trazado_127007" data-name="Trazado 127007" d="M263.859,125.447a85.1,85.1,0,0,1-28.212,12.361,85.1,85.1,0,0,1,28.212-12.361Z" transform="translate(-235.647 -125.447)" fill="#261006"/>
                </g>
                <g id="Grupo_68055" data-name="Grupo 68055" transform="translate(45.368 17.163)">
                  <path id="Trazado_127008" data-name="Trazado 127008" d="M217.577,137.069a11.981,11.981,0,0,1-1.824-.9,13.313,13.313,0,0,1-5.919-7.12,11.9,11.9,0,0,1-.554-1.958,17.234,17.234,0,0,1,1.682,1.121,18.245,18.245,0,0,1,5.821,7A17.049,17.049,0,0,1,217.577,137.069Z" transform="translate(-209.28 -127.087)" fill="#261006"/>
                </g>
                <g id="Grupo_68056" data-name="Grupo 68056" transform="translate(42.888 21.779)">
                  <path id="Trazado_127009" data-name="Trazado 127009" d="M210.333,135.423a2.666,2.666,0,0,1-1.012.226,2.388,2.388,0,0,1-2.532-2.878,2.661,2.661,0,0,1,.353-.976s.424.159.912.363a2.653,2.653,0,0,1,2.036,2.314C210.23,134.984,210.333,135.423,210.333,135.423Z" transform="translate(-206.751 -131.795)" fill="#261006"/>
                </g>
                <g id="Grupo_68057" data-name="Grupo 68057" transform="translate(94.126 125.044)">
                  <path id="Trazado_127010" data-name="Trazado 127010" d="M297.762,237.113l-1.232,1.037c-.4.336-.894.735-1.5,1.158s-1.278.94-2.077,1.42a40.685,40.685,0,0,1-5.809,3.073,40.223,40.223,0,0,1-15.731,3.288,40.671,40.671,0,0,1-6.554-.49c-.925-.119-1.749-.319-2.472-.47s-1.338-.312-1.837-.461l-1.543-.457,1.607.023c.514.018,1.141.031,1.87.012s1.55.009,2.461-.05c1.817-.048,3.966-.217,6.325-.474,2.359-.29,4.928-.688,7.6-1.234,2.667-.57,5.18-1.233,7.458-1.912,2.266-.709,4.3-1.416,5.986-2.1.858-.312,1.6-.662,2.275-.94s1.245-.537,1.709-.759Z" transform="translate(-259.007 -237.113)" fill="#261006"/>
                </g>
                <g id="Grupo_68058" data-name="Grupo 68058" transform="translate(103.792 133.91)">
                  <path id="Trazado_127011" data-name="Trazado 127011" d="M291.442,246.155a22.214,22.214,0,0,1-2.9,1.966,26.617,26.617,0,0,1-16.227,3.536,22.269,22.269,0,0,1-3.452-.582s1.309-.338,3.361-.82,4.832-1.151,7.889-1.814,5.86-1.214,7.929-1.633S291.442,246.155,291.442,246.155Z" transform="translate(-268.865 -246.155)" fill="#261006"/>
                </g>
                <g id="Grupo_68059" data-name="Grupo 68059" transform="translate(110.598 141.569)">
                  <path id="Trazado_127012" data-name="Trazado 127012" d="M286.519,254.077a8.594,8.594,0,0,1-1.292,1.219,9.311,9.311,0,0,1-7.713,1.873,8.509,8.509,0,0,1-1.707-.49,15.362,15.362,0,0,1,1.5-.9,14.334,14.334,0,0,1,7.459-1.811A15.041,15.041,0,0,1,286.519,254.077Z" transform="translate(-275.807 -253.966)" fill="#261006"/>
                </g>
                <g id="Grupo_68060" data-name="Grupo 68060" transform="translate(113.814 146.085)">
                  <path id="Trazado_127013" data-name="Trazado 127013" d="M285.93,258.991a5.614,5.614,0,0,1-.757,1.014,4.685,4.685,0,0,1-4.9,1.457,5.617,5.617,0,0,1-1.187-.436,7.036,7.036,0,0,1,.846-.927,5.124,5.124,0,0,1,4.781-1.423A7.069,7.069,0,0,1,285.93,258.991Z" transform="translate(-279.087 -258.572)" fill="#261006"/>
                </g>
                <g id="Grupo_68061" data-name="Grupo 68061" transform="translate(110.959 152.534)">
                  <path id="Trazado_127014" data-name="Trazado 127014" d="M286.6,265.2a6.543,6.543,0,0,1-1.2,1.263,7.5,7.5,0,0,1-7.689,1.23,6.559,6.559,0,0,1-1.534-.825s.644-.267,1.588-.579a19.3,19.3,0,0,1,7.144-1.142C285.9,265.152,286.6,265.2,286.6,265.2Z" transform="translate(-276.175 -265.149)" fill="#261006"/>
                </g>
                <g id="Grupo_68062" data-name="Grupo 68062" transform="translate(104.844 155.087)">
                  <path id="Trazado_127015" data-name="Trazado 127015" d="M293.648,267.753l-.72.687a16.967,16.967,0,0,1-2.151,1.68,20.025,20.025,0,0,1-3.6,1.911,19.872,19.872,0,0,1-9.859,1.338,20.017,20.017,0,0,1-3.98-.881,16.933,16.933,0,0,1-2.521-1.045l-.878-.472.991.047c.628.048,1.54.073,2.641.084a61.6,61.6,0,0,0,16.611-2.255c1.057-.3,1.931-.572,2.523-.784Z" transform="translate(-269.938 -267.753)" fill="#261006"/>
                </g>
                <g id="Grupo_68063" data-name="Grupo 68063" transform="translate(106.298 172.8)">
                  <path id="Trazado_127016" data-name="Trazado 127016" d="M284.679,285.954a11.76,11.76,0,0,1-1.719,1.225,13.452,13.452,0,0,1-9.494,1.771,11.831,11.831,0,0,1-2.045-.524,20.586,20.586,0,0,1,1.9-.875,21.941,21.941,0,0,1,9.275-1.729A20.505,20.505,0,0,1,284.679,285.954Z" transform="translate(-271.421 -285.818)" fill="#261006"/>
                </g>
                <g id="Grupo_68064" data-name="Grupo 68064" transform="translate(108.806 177.995)">
                  <path id="Trazado_127017" data-name="Trazado 127017" d="M281.879,291.856a5.87,5.87,0,0,1-7.9.978,8.9,8.9,0,0,1,1.133-.74,6.689,6.689,0,0,1,5.486-.679A8.85,8.85,0,0,1,281.879,291.856Z" transform="translate(-273.979 -291.117)" fill="#261006"/>
                </g>
                <g id="Grupo_68065" data-name="Grupo 68065" transform="translate(100.938 182.703)">
                  <path id="Trazado_127018" data-name="Trazado 127018" d="M288.9,295.918l-.822.451a23.179,23.179,0,0,1-2.321,1.058,25.769,25.769,0,0,1-16.512.9,23.155,23.155,0,0,1-2.423-.8l-.866-.359.932-.074,2.5-.164c2.1-.128,4.927-.331,8.03-.5s5.94-.276,8.038-.376l2.5-.109Z" transform="translate(-265.955 -295.918)" fill="#261006"/>
                </g>
                <g id="Grupo_68066" data-name="Grupo 68066" transform="translate(52.568 155.367)">
                  <path id="Trazado_127019" data-name="Trazado 127019" d="M216.623,302.056l1.412-4.993c.865-3.067,1.961-7.276,3.1-11.925s2.083-8.894,2.722-12.015l1.035-5.084s.055.5.155,1.394.182,2.205.209,3.822a49.444,49.444,0,0,1-5.912,24.332c-.766,1.425-1.44,2.544-1.938,3.3S216.623,302.056,216.623,302.056Z" transform="translate(-216.623 -268.039)" fill="#261006"/>
                </g>
                <g id="Grupo_68067" data-name="Grupo 68067" transform="translate(60.279 163.601)">
                  <path id="Trazado_127020" data-name="Trazado 127020" d="M224.488,296.188s-.016-1.181.1-3.019a54.475,54.475,0,0,1,2.618-13.884c.56-1.755,1.005-2.849,1.005-2.849a23.172,23.172,0,0,1,.39,3.015,27.484,27.484,0,0,1-2.653,14.071A22.89,22.89,0,0,1,224.488,296.188Z" transform="translate(-224.487 -276.436)" fill="#261006"/>
                </g>
                <g id="Grupo_68068" data-name="Grupo 68068" transform="translate(0 34.915)">
                  <path id="Trazado_127021" data-name="Trazado 127021" d="M166.433,161.851s-.207-.166-.572-.5a4.688,4.688,0,0,1-.62-.655,7.107,7.107,0,0,1-.714-.975,9.77,9.77,0,0,1-1.236-2.934,10.345,10.345,0,0,1,1.114-7.639,9.8,9.8,0,0,1,2.024-2.458,7.064,7.064,0,0,1,.963-.729,4.68,4.68,0,0,1,.781-.451c.444-.217.69-.317.69-.317l-.4.642a6.271,6.271,0,0,0-.43.736,10.467,10.467,0,0,0-.5.978,18.276,18.276,0,0,0-.967,2.559,23.563,23.563,0,0,0-.93,6.379,18.233,18.233,0,0,0,.2,2.729,10.394,10.394,0,0,0,.2,1.08,6.228,6.228,0,0,0,.2.829Z" transform="translate(-163.01 -145.192)" fill="#261006"/>
                </g>
                <g id="Grupo_68069" data-name="Grupo 68069" transform="translate(5.353 37.892)">
                  <path id="Trazado_127022" data-name="Trazado 127022" d="M169.717,158.988a7.522,7.522,0,0,1-.751-1.6,8.411,8.411,0,0,1,1.127-7.834,7.5,7.5,0,0,1,1.172-1.325s.114.7.176,1.722a16.6,16.6,0,0,1-1.07,7.435C170.023,158.35,169.717,158.988,169.717,158.988Z" transform="translate(-168.47 -148.228)" fill="#261006"/>
                </g>
              </g>
              <path id="Trazado_127023" data-name="Trazado 127023" d="M295.9,268.035a28.749,28.749,0,0,1-5.776,8.235l5.776-.625-5.776,4.84,5.776-.975,4.216-5.251.937-4.144Z" transform="translate(-152.472 -98.517)" fill="#261006"/>
              <g id="Grupo_68071" data-name="Grupo 68071" transform="translate(15.544 39.082)">
                <path id="Trazado_127024" data-name="Trazado 127024" d="M193.3,183.085q-.563,0-1.142-.024c-8.633-.346-24.756-10.019-26.567-11.121,0,0,22.1,2.211,26.917,2.405,4.981.183,9.81-.756,14.076-14.455,3.019-9.691-.906-11.959-1.481-12.232l-17.15-4.178,2.064-8.476,17.722,4.331c4.516,1.473,11.828,8.206,7.173,23.148C210.434,176.853,203.933,183.085,193.3,183.085Z" transform="translate(-165.588 -135.006)" fill="#261006"/>
              </g>
              <path id="Trazado_127025" data-name="Trazado 127025" d="M175.928,175.794l-4.846,6.785,13.085-3.213Z" transform="translate(-150.151 -96.719)" fill="#261006"/>
              <g id="Grupo_68072" data-name="Grupo 68072" transform="translate(52.439 28.478)">
                <path id="Trazado_127026" data-name="Trazado 127026" d="M224.079,207.017c-1.294,0-7.922-.225-11.243-4.652a19.142,19.142,0,0,0-1.661-1.685c-3.145-2.98-8.412-7.969-7.927-16.683a115.5,115.5,0,0,1,5.031-28.2c3.28-10.439,6.569-13.513,12.7-16.453,5.15-2.468,35.076-14.631,36.347-15.149,0,0-27.666,20.661-32.578,23.015-3.782,1.813-5.562,2.961-8.152,11.2a106.828,106.828,0,0,0-4.643,26.075c-.26,4.678,2.524,7.316,5.217,9.867a23.239,23.239,0,0,1,2.641,2.782c.419.56,2.582,1.146,4.285,1.164Z" transform="translate(-203.216 -124.191)" fill="#261006"/>
              </g>
              <g id="Grupo_68073" data-name="Grupo 68073" transform="translate(71.121 54.342)">
                <path id="Trazado_127027" data-name="Trazado 127027" d="M240.277,225.635c-.035-.015-3.6-1.44-6.17-2.373-4-1.455-11.837-7.535-11.837-15,0-5.658,2.026-19.591,4.3-27.181,2.6-8.666,7.451-11.614,13.068-15.027l.473-.287c5.9-3.59,33.936-14.821,35.055-15.194,0,0-25.6,19.651-30.519,22.645l-.478.29c-5.064,3.078-7.606,4.623-9.243,10.08-2.134,7.115-3.935,20.216-3.935,24.674,0,2.5,4.425,6.2,6.094,6.8,2.7.981,6.279,2.413,6.43,2.473Z" transform="translate(-222.27 -150.569)" fill="#261006"/>
              </g>
              <g id="Grupo_68074" data-name="Grupo 68074" transform="translate(87.042 82.646)">
                <path id="Trazado_127028" data-name="Trazado 127028" d="M256.427,238.664a20.716,20.716,0,0,1-13.9-5.92c-4.168-4.167-5.144-10.2-2.677-16.537l.286-.741c3.284-8.49,7.277-17.745,12.007-22,5.178-4.66,28.934-11.914,36.091-14.027,0,0-27.718,18.227-30.256,20.511-3.818,3.436-8.249,14.9-9.706,18.663l-.293.757c-1.206,3.1-.966,5.528.716,7.209,2.3,2.3,6.677,4.084,9.529,3.087,1.865-.653,4.257-1.569,6.79-2.537,3.92-1.5,7.974-3.052,10.625-3.832,3.338-.981,11.031-4.829,14.408-6.671a63.742,63.742,0,0,0,7.622-6.171s-1.366,9.374-7.5,13.892c-2.5,1.839-7.477,5.971-12.064,7.32-2.317.681-6.208,2.169-9.97,3.609-2.591.991-5.041,1.929-7.023,2.623A14.151,14.151,0,0,1,256.427,238.664Z" transform="translate(-238.508 -179.436)" fill="#261006"/>
              </g>
              <g id="Grupo_68075" data-name="Grupo 68075" transform="translate(96.203 171.6)">
                <path id="Trazado_127029" data-name="Trazado 127029" d="M270.413,283.593c-17.965-3.074-22.562-13.435-22.562-13.435,8.763,5.095,15.144,6.281,21.406,7.714,3.335.763,13.2,1.083,17.61-.365C286.867,277.507,286.191,284.35,270.413,283.593Z" transform="translate(-247.851 -270.158)" fill="#261006"/>
              </g>
              <g id="Grupo_68076" data-name="Grupo 68076" transform="translate(81.433 160.381)">
                <path id="Trazado_127030" data-name="Trazado 127030" d="M232.787,290.883a173.39,173.39,0,0,1,3.858-32.167l8.5,1.95C245.114,260.815,232.787,290.883,232.787,290.883Z" transform="translate(-232.787 -258.716)" fill="#261006"/>
              </g>
              <g id="Grupo_68077" data-name="Grupo 68077" transform="translate(114.383 209.546)">
                <path id="Trazado_127031" data-name="Trazado 127031" d="M286.339,308.859a251.967,251.967,0,0,0-19.947,42.678l11.995,4.123C278.459,355.45,286.339,308.859,286.339,308.859Z" transform="translate(-266.392 -308.859)" fill="#261006"/>
              </g>
              <g id="Grupo_68078" data-name="Grupo 68078" transform="translate(102.32 218.559)">
                <path id="Trazado_127032" data-name="Trazado 127032" d="M277.164,318.051a176.11,176.11,0,0,0-23.075,23.477l6.944,5.509C261.13,346.915,277.164,318.051,277.164,318.051Z" transform="translate(-254.089 -318.051)" fill="#261006"/>
              </g>
              <g id="Grupo_68079" data-name="Grupo 68079" transform="translate(58.443 142.749)">
                <path id="Trazado_127033" data-name="Trazado 127033" d="M230.392,258.28c-8.375,3.121-20.816-8.072-21.052-8.411l3.278-9.135C212.665,240.8,230.392,258.28,230.392,258.28Z" transform="translate(-209.34 -240.734)" fill="#261006"/>
              </g>
              <g id="Grupo_68080" data-name="Grupo 68080" transform="translate(112.803 123.035)">
                <path id="Trazado_127034" data-name="Trazado 127034" d="M276.443,229.663c-6.176,0-3.65-2.643-4-2.663l-7.658-6.372c.125.007,12.661.689,20.37.011l.766,8.689C283.055,229.58,279.672,229.663,276.443,229.663Z" transform="translate(-264.781 -220.628)" fill="#261006"/>
              </g>
              <g id="Grupo_68081" data-name="Grupo 68081" transform="translate(28.161 50.141)">
                <path id="Trazado_127035" data-name="Trazado 127035" d="M194.118,170.527l-.535-.126c-6.121-1.441-17.1-7.021-14.82-17.831l.045-.214.091-.2c.1-.206,2.406-5.051,9.33-5.779,6.274-.651,14.787,2.305,15.146,2.431l1.073.377.194,1.12c.074.425.635,4.34-2.3,11.2-3.052,7.123-7.23,8.692-7.7,8.847ZM182.5,153.635c-.734,3.952.871,7.183,4.9,9.869a24.88,24.88,0,0,0,6.433,2.948c.909-.546,3.116-2.227,4.937-6.474a23.09,23.09,0,0,0,2.066-7.913c-2.47-.754-8.088-2.266-12.205-1.831C184.565,150.662,182.9,152.978,182.5,153.635Z" transform="translate(-178.456 -146.285)" fill="#261006"/>
              </g>
            </g>
            <path id="Trazado_127036" data-name="Trazado 127036" d="M291.969,220.628l11.631,4.518-18.885,4.518L281.631,227Z" transform="translate(-152.306 -97.593)" fill="#261006"/>
            <g id="Grupo_68143" data-name="Grupo 68143" transform="translate(16.394 28.067)">
              <g id="Grupo_68083" data-name="Grupo 68083" transform="translate(118.42 95.696)">
                <path id="Trazado_127037" data-name="Trazado 127037" d="M287.229,233.885s1.792-.544,4.677-1.28c2.881-.752,6.829-1.692,10.95-3.11a37.77,37.77,0,0,0,9.94-4.98,25.155,25.155,0,0,0,2.66-2.225l.922-.92s-.176.431-.572,1.184a16.713,16.713,0,0,1-2.05,2.987,23.012,23.012,0,0,1-9.978,6.608A37.95,37.95,0,0,1,292.094,234C289.09,234.04,287.229,233.885,287.229,233.885Z" transform="translate(-287.229 -221.371)" fill="#261006"/>
              </g>
              <g id="Grupo_68084" data-name="Grupo 68084" transform="translate(131.649 103.353)">
                <path id="Trazado_127038" data-name="Trazado 127038" d="M300.721,235.012s.827-.39,2.181-.93,3.225-1.235,5.275-1.963,3.891-1.408,5.215-1.979c.663-.281,1.2-.518,1.57-.7l.581-.266-.458.447a14.085,14.085,0,0,1-1.342,1.123,19.543,19.543,0,0,1-5.093,2.692,28.564,28.564,0,0,1-5.568,1.319C301.633,234.963,300.721,235.012,300.721,235.012Z" transform="translate(-300.721 -229.18)" fill="#261006"/>
              </g>
              <g id="Grupo_68085" data-name="Grupo 68085" transform="translate(132.861 108.242)">
                <path id="Trazado_127039" data-name="Trazado 127039" d="M301.957,237.592s.529-.287,1.377-.682,2.011-.909,3.321-1.374,2.534-.8,3.443-1.031,1.5-.339,1.5-.339a10.819,10.819,0,0,1-1.2.977,13.03,13.03,0,0,1-6.887,2.448A10.844,10.844,0,0,1,301.957,237.592Z" transform="translate(-301.957 -234.166)" fill="#261006"/>
              </g>
              <g id="Grupo_68086" data-name="Grupo 68086" transform="translate(131.476 111.02)">
                <path id="Trazado_127040" data-name="Trazado 127040" d="M300.545,241.174s.647-.307,1.684-.746,2.455-1.025,4.039-1.591,3.048-1.019,4.129-1.341,1.773-.5,1.773-.5a14.306,14.306,0,0,1-1.471,1.131,17.267,17.267,0,0,1-8.3,2.98A14.313,14.313,0,0,1,300.545,241.174Z" transform="translate(-300.545 -236.999)" fill="#261006"/>
              </g>
              <g id="Grupo_68087" data-name="Grupo 68087" transform="translate(130.862 115.363)">
                <path id="Trazado_127041" data-name="Trazado 127041" d="M299.919,244.125a14.271,14.271,0,0,1,7.51-2.7,9.941,9.941,0,0,1-7.51,2.7Z" transform="translate(-299.919 -241.429)" fill="#261006"/>
              </g>
              <g id="Grupo_68088" data-name="Grupo 68088" transform="translate(130.639 118.191)">
                <path id="Trazado_127042" data-name="Trazado 127042" d="M299.691,247.283a12.091,12.091,0,0,1,7.563-2.97,12.085,12.085,0,0,1-7.563,2.97Z" transform="translate(-299.691 -244.313)" fill="#261006"/>
              </g>
              <g id="Grupo_68089" data-name="Grupo 68089" transform="translate(130.278 121.67)">
                <path id="Trazado_127043" data-name="Trazado 127043" d="M299.323,250.2a6.764,6.764,0,0,1,5.535-2.325,6.764,6.764,0,0,1-5.535,2.325Z" transform="translate(-299.323 -247.861)" fill="#261006"/>
              </g>
              <g id="Grupo_68090" data-name="Grupo 68090" transform="translate(129.876 124.28)">
                <path id="Trazado_127044" data-name="Trazado 127044" d="M298.913,252.789a7.156,7.156,0,0,1,5.76-2.25,7.156,7.156,0,0,1-5.76,2.25Z" transform="translate(-298.913 -250.523)" fill="#261006"/>
              </g>
              <g id="Grupo_68091" data-name="Grupo 68091" transform="translate(122.004 128.169)">
                <path id="Trazado_127045" data-name="Trazado 127045" d="M290.885,258.6s.761-.274,1.972-.676,2.864-.952,4.693-1.512,3.5-1.031,4.733-1.38,2.012-.546,2.012-.546a16.648,16.648,0,0,1-1.732,1.19,19.954,19.954,0,0,1-9.578,2.938A16.562,16.562,0,0,1,290.885,258.6Z" transform="translate(-290.885 -254.489)" fill="#261006"/>
              </g>
              <g id="Grupo_68092" data-name="Grupo 68092" transform="translate(85.633 57.677)">
                <path id="Trazado_127046" data-name="Trazado 127046" d="M253.79,194.785a20.507,20.507,0,0,1,.731-2.068,24.838,24.838,0,0,1,5.867-8.673,20.592,20.592,0,0,1,1.647-1.448s-.406.739-1.1,1.886-1.653,2.706-2.782,4.373-2.218,3.14-3.025,4.209S253.79,194.785,253.79,194.785Z" transform="translate(-253.79 -182.596)" fill="#261006"/>
              </g>
              <g id="Grupo_68093" data-name="Grupo 68093" transform="translate(89.694 55.015)">
                <path id="Trazado_127047" data-name="Trazado 127047" d="M257.932,193.9a41.983,41.983,0,0,1,10.409-14.023A78.506,78.506,0,0,1,257.932,193.9Z" transform="translate(-257.932 -179.881)" fill="#261006"/>
              </g>
              <g id="Grupo_68094" data-name="Grupo 68094" transform="translate(93.815 50.533)">
                <path id="Trazado_127048" data-name="Trazado 127048" d="M262.135,194.2a91.5,91.5,0,0,1,12.47-18.887,91.5,91.5,0,0,1-12.47,18.887Z" transform="translate(-262.135 -175.31)" fill="#261006"/>
              </g>
              <g id="Grupo_68095" data-name="Grupo 68095" transform="translate(100.323 49.522)">
                <path id="Trazado_127049" data-name="Trazado 127049" d="M268.772,189.843a88.236,88.236,0,0,1,9.277-15.564,44.171,44.171,0,0,1-9.277,15.564Z" transform="translate(-268.772 -174.279)" fill="#261006"/>
              </g>
              <g id="Grupo_68096" data-name="Grupo 68096" transform="translate(104.909 52.672)">
                <path id="Trazado_127050" data-name="Trazado 127050" d="M273.45,188.365a29.729,29.729,0,0,1,6.851-10.874,29.73,29.73,0,0,1-6.851,10.874Z" transform="translate(-273.45 -177.491)" fill="#261006"/>
              </g>
              <g id="Grupo_68097" data-name="Grupo 68097" transform="translate(110.809 52.488)">
                <path id="Trazado_127051" data-name="Trazado 127051" d="M279.467,183.816a10.921,10.921,0,0,1,4.123-6.514,10.922,10.922,0,0,1-4.123,6.514Z" transform="translate(-279.467 -177.303)" fill="#261006"/>
              </g>
              <g id="Grupo_68098" data-name="Grupo 68098" transform="translate(63.334 30.961)">
                <path id="Trazado_127052" data-name="Trazado 127052" d="M231.048,179.64a91.621,91.621,0,0,1,8.337-24.291s-1.4,5.613-3.695,12.308S231.048,179.64,231.048,179.64Z" transform="translate(-231.048 -155.349)" fill="#261006"/>
              </g>
              <g id="Grupo_68099" data-name="Grupo 68099" transform="translate(68.359 30.181)">
                <path id="Trazado_127053" data-name="Trazado 127053" d="M236.173,176.631l1.162-3.28c.73-2.015,1.737-4.785,2.9-7.82s2.256-5.771,3.056-7.761l1.323-3.218s-.183,1.324-.652,3.427a56.98,56.98,0,0,1-5.987,15.664C236.919,175.523,236.173,176.631,236.173,176.631Z" transform="translate(-236.173 -154.553)" fill="#261006"/>
              </g>
              <g id="Grupo_68100" data-name="Grupo 68100" transform="translate(74.766 30.766)">
                <path id="Trazado_127054" data-name="Trazado 127054" d="M242.707,170.769a39.781,39.781,0,0,1,6.386-15.619,71.374,71.374,0,0,1-6.386,15.619Z" transform="translate(-242.707 -155.15)" fill="#261006"/>
              </g>
              <g id="Grupo_68101" data-name="Grupo 68101" transform="translate(79.42 30.168)">
                <path id="Trazado_127055" data-name="Trazado 127055" d="M247.454,166.789a25.544,25.544,0,0,1,4.466-12.249,38.3,38.3,0,0,1-4.466,12.249Z" transform="translate(-247.454 -154.54)" fill="#261006"/>
              </g>
              <g id="Grupo_68102" data-name="Grupo 68102" transform="translate(84.762 29.993)">
                <path id="Trazado_127056" data-name="Trazado 127056" d="M252.9,162.653a12.555,12.555,0,0,1,3.12-8.292,16.7,16.7,0,0,1-3.12,8.292Z" transform="translate(-252.902 -154.361)" fill="#261006"/>
              </g>
              <g id="Grupo_68103" data-name="Grupo 68103" transform="translate(89.071 29.018)">
                <path id="Trazado_127057" data-name="Trazado 127057" d="M257.316,158.3a5.507,5.507,0,0,1,2.169-4.928,5.51,5.51,0,0,1-2.169,4.928Z" transform="translate(-257.297 -153.367)" fill="#261006"/>
              </g>
              <g id="Grupo_68104" data-name="Grupo 68104" transform="translate(92.103 28.419)">
                <path id="Trazado_127058" data-name="Trazado 127058" d="M260.439,156.862a3.959,3.959,0,0,1,1.848-4.106,3.959,3.959,0,0,1-1.848,4.106Z" transform="translate(-260.389 -152.756)" fill="#261006"/>
              </g>
              <g id="Grupo_68105" data-name="Grupo 68105" transform="translate(94.861 26.849)">
                <path id="Trazado_127059" data-name="Trazado 127059" d="M263.31,156.864a5.016,5.016,0,0,1-.106-.965,5.582,5.582,0,0,1,1.581-4.1,5.1,5.1,0,0,1,.727-.643,8.765,8.765,0,0,1-.1.954,9.044,9.044,0,0,1-1.535,3.983A9.011,9.011,0,0,1,263.31,156.864Z" transform="translate(-263.202 -151.155)" fill="#261006"/>
              </g>
              <g id="Grupo_68106" data-name="Grupo 68106" transform="translate(98.588 25.625)">
                <path id="Trazado_127060" data-name="Trazado 127060" d="M267,155.879a8.123,8.123,0,0,1,2.829-5.973A8.123,8.123,0,0,1,267,155.879Z" transform="translate(-267.003 -149.906)" fill="#261006"/>
              </g>
              <g id="Grupo_68107" data-name="Grupo 68107" transform="translate(40.573 12.13)">
                <path id="Trazado_127061" data-name="Trazado 127061" d="M207.835,148.486a19.326,19.326,0,0,1,.487-2.033,23.435,23.435,0,0,1,4.713-8.78,19.424,19.424,0,0,1,1.425-1.53s-.3.747-.831,1.906-1.277,2.737-2.185,4.425-1.807,3.181-2.481,4.265S207.835,148.486,207.835,148.486Z" transform="translate(-207.835 -136.143)" fill="#261006"/>
              </g>
              <g id="Grupo_68108" data-name="Grupo 68108" transform="translate(42.324 13.038)">
                <path id="Trazado_127062" data-name="Trazado 127062" d="M209.62,150.852a44.189,44.189,0,0,1,7.515-13.783,44.189,44.189,0,0,1-7.515,13.783Z" transform="translate(-209.62 -137.069)" fill="#261006"/>
              </g>
              <g id="Grupo_68109" data-name="Grupo 68109" transform="translate(45.29 8.884)">
                <path id="Trazado_127063" data-name="Trazado 127063" d="M212.645,148.6a62.613,62.613,0,0,1,10.05-15.77,62.567,62.567,0,0,1-10.05,15.77Z" transform="translate(-212.645 -132.833)" fill="#261006"/>
              </g>
              <g id="Grupo_68110" data-name="Grupo 68110" transform="translate(48.428 6.96)">
                <path id="Trazado_127064" data-name="Trazado 127064" d="M215.846,148.359a75.29,75.29,0,0,1,10.73-17.489,75.29,75.29,0,0,1-10.73,17.489Z" transform="translate(-215.846 -130.87)" fill="#261006"/>
              </g>
              <g id="Grupo_68111" data-name="Grupo 68111" transform="translate(54.354 3.121)">
                <path id="Trazado_127065" data-name="Trazado 127065" d="M221.89,144.674a78.344,78.344,0,0,1,11.153-17.719,78.287,78.287,0,0,1-11.153,17.719Z" transform="translate(-221.89 -126.955)" fill="#261006"/>
              </g>
              <g id="Grupo_68112" data-name="Grupo 68112" transform="translate(64.109 2.407)">
                <path id="Trazado_127066" data-name="Trazado 127066" d="M231.839,135.521a17.853,17.853,0,0,1,5.662-9.294,26.95,26.95,0,0,1-5.662,9.294Z" transform="translate(-231.839 -126.227)" fill="#261006"/>
              </g>
              <g id="Grupo_68113" data-name="Grupo 68113" transform="translate(68.544 2.186)">
                <path id="Trazado_127067" data-name="Trazado 127067" d="M236.362,136.051A24.985,24.985,0,0,1,242.476,126a24.968,24.968,0,0,1-6.114,10.05Z" transform="translate(-236.362 -126.001)" fill="#261006"/>
              </g>
              <g id="Grupo_68114" data-name="Grupo 68114" transform="translate(72.896 0.118)">
                <path id="Trazado_127068" data-name="Trazado 127068" d="M240.8,135.034a19.59,19.59,0,0,1,.722-1.9,23.581,23.581,0,0,1,5.549-7.919,19.38,19.38,0,0,1,1.537-1.327,57.123,57.123,0,0,1-7.808,11.142Z" transform="translate(-240.8 -123.892)" fill="#261006"/>
              </g>
              <g id="Grupo_68115" data-name="Grupo 68115" transform="translate(79.797)">
                <path id="Trazado_127069" data-name="Trazado 127069" d="M247.838,131.289a13.676,13.676,0,0,1,4.29-7.517,13.667,13.667,0,0,1-4.29,7.517Z" transform="translate(-247.838 -123.772)" fill="#261006"/>
              </g>
              <g id="Grupo_68116" data-name="Grupo 68116" transform="translate(0 45.483)">
                <path id="Trazado_127070" data-name="Trazado 127070" d="M182.225,170.486a34.111,34.111,0,0,1-15.77.332,65.026,65.026,0,0,1,15.77-.332Z" transform="translate(-166.455 -170.159)" fill="#261006"/>
              </g>
              <g id="Grupo_68117" data-name="Grupo 68117" transform="translate(2.563 42.792)">
                <path id="Trazado_127071" data-name="Trazado 127071" d="M177.741,167.841a13.8,13.8,0,0,1-8.672.615,13.783,13.783,0,0,1,8.672-.615Z" transform="translate(-169.069 -167.415)" fill="#261006"/>
              </g>
              <g id="Grupo_68118" data-name="Grupo 68118" transform="translate(4.138 39.945)">
                <path id="Trazado_127072" data-name="Trazado 127072" d="M177.18,165.213a7.875,7.875,0,0,1-6.5,0,7.885,7.885,0,0,1,6.5,0Z" transform="translate(-170.675 -164.511)" fill="#261006"/>
              </g>
              <g id="Grupo_68119" data-name="Grupo 68119" transform="translate(16.938 47.056)">
                <path id="Trazado_127073" data-name="Trazado 127073" d="M190.048,172.251a4.792,4.792,0,0,1-.885.471,5.489,5.489,0,0,1-4.569-.1,4.823,4.823,0,0,1-.864-.508s.385-.1.968-.186a11.545,11.545,0,0,1,4.392.094C189.668,172.138,190.048,172.251,190.048,172.251Z" transform="translate(-183.73 -171.764)" fill="#261006"/>
              </g>
              <g id="Grupo_68120" data-name="Grupo 68120" transform="translate(25.079 28.281)">
                <path id="Trazado_127074" data-name="Trazado 127074" d="M192.033,166.417l.411-.507c.269-.319.64-.793,1.083-1.38a43.638,43.638,0,0,0,3.106-4.731,45.307,45.307,0,0,0,2.506-5.074c.276-.681.494-1.242.634-1.635l.1-.26a.106.106,0,0,0-.026-.137c-.029-.036-.079-.059-.08-.049a.073.073,0,0,0,.012.037s-.014,0-.027-.036c.02-.053.082-.022.132,0a.2.2,0,0,1,.118.21l-.012.279a15.5,15.5,0,0,1-.174,1.782,16.665,16.665,0,0,1-1.963,5.583,16.445,16.445,0,0,1-3.819,4.52,13.948,13.948,0,0,1-1.445,1.056Z" transform="translate(-192.033 -152.615)" fill="#261006"/>
              </g>
              <g id="Grupo_68121" data-name="Grupo 68121" transform="translate(27.394 28.036)">
                <path id="Trazado_127075" data-name="Trazado 127075" d="M194.394,159.259s.15-.441.4-1.093.587-1.521,1.01-2.435.862-1.731,1.194-2.349.57-1.017.57-1.017a5.5,5.5,0,0,1,.112,1.186,6.534,6.534,0,0,1-2.314,5.023A5.542,5.542,0,0,1,194.394,159.259Z" transform="translate(-194.394 -152.365)" fill="#261006"/>
              </g>
              <g id="Grupo_68122" data-name="Grupo 68122" transform="translate(26.3 27.828)">
                <path id="Trazado_127076" data-name="Trazado 127076" d="M193.388,156.5a3.618,3.618,0,0,1-.107-.78,3.7,3.7,0,0,1,1.411-3.126,3.592,3.592,0,0,1,.656-.437,5.856,5.856,0,0,1-.041.777,4.988,4.988,0,0,1-1.364,3.023A5.773,5.773,0,0,1,193.388,156.5Z" transform="translate(-193.278 -152.153)" fill="#261006"/>
              </g>
              <g id="Grupo_68123" data-name="Grupo 68123" transform="translate(23.226 28.008)">
                <path id="Trazado_127077" data-name="Trazado 127077" d="M190.576,155.713a2.319,2.319,0,0,1-.286-.562,2.126,2.126,0,0,1,.679-2.477,2.3,2.3,0,0,1,.533-.337,4.814,4.814,0,0,1,.116.6,3.2,3.2,0,0,1-.05,1.229,3.166,3.166,0,0,1-.583,1.081A4.5,4.5,0,0,1,190.576,155.713Z" transform="translate(-190.143 -152.337)" fill="#261006"/>
              </g>
              <g id="Grupo_68124" data-name="Grupo 68124" transform="translate(39.771 109.447)">
                <path id="Trazado_127078" data-name="Trazado 127078" d="M236.659,246.079s-.429.192-1.233.479a19.373,19.373,0,0,1-3.524.873,23.1,23.1,0,0,1-11.9-1.424,28.309,28.309,0,0,1-9.864-6.791,31.634,31.634,0,0,1-2.347-2.752c-.513-.68-.778-1.069-.778-1.069l.942.924c.607.59,1.507,1.422,2.661,2.385a37.294,37.294,0,0,0,9.9,6,28.12,28.12,0,0,0,11.311,2.03,23.888,23.888,0,0,0,3.533-.384C236.2,246.187,236.659,246.079,236.659,246.079Z" transform="translate(-207.017 -235.395)" fill="#261006"/>
              </g>
              <g id="Grupo_68125" data-name="Grupo 68125" transform="translate(30.938 98.798)">
                <path id="Trazado_127079" data-name="Trazado 127079" d="M222.258,237.1l-1.117.076a12.1,12.1,0,0,1-1.319.03c-.514-.012-1.105,0-1.75-.073a25.4,25.4,0,0,1-4.515-.764,25.584,25.584,0,0,1-9.934-5.147,25.465,25.465,0,0,1-3.229-3.247c-.431-.485-.762-.976-1.069-1.388a11.93,11.93,0,0,1-.734-1.094l-.583-.957.757.823c.237.269.532.591.9.942s.753.778,1.238,1.19a36.182,36.182,0,0,0,3.445,2.793,38.156,38.156,0,0,0,9.555,4.951,36.51,36.51,0,0,0,4.269,1.2c.618.157,1.187.23,1.686.325s.933.154,1.289.192Z" transform="translate(-198.008 -224.534)" fill="#261006"/>
              </g>
              <g id="Grupo_68126" data-name="Grupo 68126" transform="translate(56.361 122.982)">
                <path id="Trazado_127080" data-name="Trazado 127080" d="M238.517,249.2a17.061,17.061,0,0,1-2.026.831,20.336,20.336,0,0,1-10.425.81,17.1,17.1,0,0,1-2.13-.51l2.164-.192,5.122-.423,5.127-.373Z" transform="translate(-223.937 -249.199)" fill="#261006"/>
              </g>
              <g id="Grupo_68127" data-name="Grupo 68127" transform="translate(62.088 125.42)">
                <path id="Trazado_127081" data-name="Trazado 127081" d="M236.282,251.87a5.119,5.119,0,0,1-.864.562,5.908,5.908,0,0,1-4.692.419,5.134,5.134,0,0,1-.949-.4s.381-.143.969-.3a11.936,11.936,0,0,1,4.529-.4C235.881,251.8,236.282,251.87,236.282,251.87Z" transform="translate(-229.777 -251.686)" fill="#261006"/>
              </g>
              <g id="Grupo_68128" data-name="Grupo 68128" transform="translate(64.057 127.867)">
                <path id="Trazado_127082" data-name="Trazado 127082" d="M237.3,254.465a4.042,4.042,0,0,1-.728.52,4.5,4.5,0,0,1-3.993.3,4.079,4.079,0,0,1-.8-.406,8.471,8.471,0,0,1,.827-.3,7.86,7.86,0,0,1,3.828-.286C236.957,254.373,237.3,254.465,237.3,254.465Z" transform="translate(-231.786 -254.181)" fill="#261006"/>
              </g>
              <g id="Grupo_68129" data-name="Grupo 68129" transform="translate(101.752 171.896)">
                <path id="Trazado_127083" data-name="Trazado 127083" d="M284.792,299.085a14.038,14.038,0,0,1-1.921,1.113,16.6,16.6,0,0,1-10.494,1.417,14.074,14.074,0,0,1-2.147-.564l2.188-.137c1.339-.092,3.152-.276,5.134-.54s3.778-.574,5.093-.84Z" transform="translate(-270.23 -299.085)" fill="#261006"/>
              </g>
              <g id="Grupo_68130" data-name="Grupo 68130" transform="translate(106.855 175.103)">
                <path id="Trazado_127084" data-name="Trazado 127084" d="M282.959,302.569a10.7,10.7,0,0,1-7.525,1.227,10.69,10.69,0,0,1,7.525-1.227Z" transform="translate(-275.434 -302.356)" fill="#261006"/>
              </g>
              <g id="Grupo_68131" data-name="Grupo 68131" transform="translate(110.256 177.398)">
                <path id="Trazado_127085" data-name="Trazado 127085" d="M282.548,305.073a2.8,2.8,0,0,1-3.645.715,2.807,2.807,0,0,1,3.645-.715Z" transform="translate(-278.903 -304.697)" fill="#261006"/>
              </g>
              <g id="Grupo_68132" data-name="Grupo 68132" transform="translate(107.534 82.854)">
                <path id="Trazado_127086" data-name="Trazado 127086" d="M295.432,208.273l-.5.732a18.638,18.638,0,0,1-1.5,1.9,22.056,22.056,0,0,1-14,7.262,18.819,18.819,0,0,1-2.419.136l-.885-.018.861-.2c.552-.117,1.344-.326,2.3-.606a41.01,41.01,0,0,0,13.658-7.083c.781-.624,1.409-1.15,1.823-1.535Z" transform="translate(-276.127 -208.273)" fill="#261006"/>
              </g>
              <g id="Grupo_68133" data-name="Grupo 68133" transform="translate(112.204 83.463)">
                <path id="Trazado_127087" data-name="Trazado 127087" d="M292.758,208.894a15.214,15.214,0,0,1-1.442,1.331,18.21,18.21,0,0,1-8.478,3.928,15.211,15.211,0,0,1-1.947.238s.663-.365,1.724-.9,2.512-1.271,4.129-2.019,3.11-1.382,4.21-1.843S292.758,208.894,292.758,208.894Z" transform="translate(-280.89 -208.894)" fill="#261006"/>
              </g>
              <g id="Grupo_68134" data-name="Grupo 68134" transform="translate(114.573 80.976)">
                <path id="Trazado_127088" data-name="Trazado 127088" d="M290.027,206.358a10.811,10.811,0,0,1-6.721,3.687,10.811,10.811,0,0,1,6.721-3.687Z" transform="translate(-283.306 -206.358)" fill="#261006"/>
              </g>
              <g id="Grupo_68135" data-name="Grupo 68135" transform="translate(116.586 78.294)">
                <path id="Trazado_127089" data-name="Trazado 127089" d="M289.735,203.623a5.029,5.029,0,0,1-4.376,2.672,5.028,5.028,0,0,1,4.376-2.672Z" transform="translate(-285.359 -203.623)" fill="#261006"/>
              </g>
              <g id="Grupo_68136" data-name="Grupo 68136" transform="translate(117.279 75.534)">
                <path id="Trazado_127090" data-name="Trazado 127090" d="M289.025,200.808a4.755,4.755,0,0,1-.259.635,3.551,3.551,0,0,1-2.049,1.917,4.819,4.819,0,0,1-.651.215,2.9,2.9,0,0,1,.127-.684,2.787,2.787,0,0,1,2.14-2A2.914,2.914,0,0,1,289.025,200.808Z" transform="translate(-286.066 -200.808)" fill="#261006"/>
              </g>
              <g id="Grupo_68137" data-name="Grupo 68137" transform="translate(32.385 59.467)">
                <path id="Trazado_127091" data-name="Trazado 127091" d="M221.883,214.345l-1.4-.632c-.893-.432-2.18-1.079-3.7-2.008a41.556,41.556,0,0,1-10.471-9.162,30.43,30.43,0,0,1-6.369-12.377,18.6,18.6,0,0,1-.453-4.2c-.006-.5.032-.883.049-1.143l.029-.4.031.4c.021.26.038.642.11,1.131a21.216,21.216,0,0,0,.912,4.034,37.265,37.265,0,0,0,6.782,11.675,57.132,57.132,0,0,0,9.776,9.467c1.4,1.06,2.587,1.852,3.411,2.4Z" transform="translate(-199.484 -184.421)" fill="#261006"/>
              </g>
              <g id="Grupo_68138" data-name="Grupo 68138" transform="translate(30.35 68.53)">
                <path id="Trazado_127092" data-name="Trazado 127092" d="M209.063,208.175l-.716-.261a14.8,14.8,0,0,1-1.9-.876,17.454,17.454,0,0,1-8.5-10.577,14.86,14.86,0,0,1-.445-2.041l-.1-.756.311.694c.187.448.494,1.082.887,1.844a34.261,34.261,0,0,0,8.237,10.254c.659.549,1.212.984,1.609,1.265Z" transform="translate(-197.408 -193.664)" fill="#261006"/>
              </g>
              <g id="Grupo_68139" data-name="Grupo 68139" transform="translate(28.518 74.965)">
                <path id="Trazado_127093" data-name="Trazado 127093" d="M201.073,207.135a6.885,6.885,0,0,1-1.253-.553,8.27,8.27,0,0,1-4.015-5.011,6.885,6.885,0,0,1-.265-1.343s.357.394.884,1.011,1.24,1.44,1.979,2.365,1.385,1.8,1.876,2.447S201.073,207.135,201.073,207.135Z" transform="translate(-195.54 -200.227)" fill="#261006"/>
              </g>
              <g id="Grupo_68140" data-name="Grupo 68140" transform="translate(67.022 107.054)">
                <path id="Trazado_127094" data-name="Trazado 127094" d="M252.163,242.023l-.782-.076c-.5-.051-1.231-.158-2.121-.338a25.233,25.233,0,0,1-12.451-6.508c-.657-.628-1.159-1.162-1.488-1.548l-.511-.6.655.433c.415.284,1.026.68,1.778,1.16,1.5.962,3.605,2.2,5.981,3.446s4.6,2.258,6.244,2.943c.823.343,1.5.619,1.967.8Z" transform="translate(-234.809 -232.954)" fill="#261006"/>
              </g>
              <g id="Grupo_68141" data-name="Grupo 68141" transform="translate(74.601 116.499)">
                <path id="Trazado_127095" data-name="Trazado 127095" d="M249.943,244.316a10.563,10.563,0,0,1-7.4-1.615,10.576,10.576,0,0,1,7.4,1.615Z" transform="translate(-242.539 -242.587)" fill="#261006"/>
              </g>
              <g id="Grupo_68142" data-name="Grupo 68142" transform="translate(77.967 119.745)">
                <path id="Trazado_127096" data-name="Trazado 127096" d="M250,246.776a3.261,3.261,0,0,1-4.03-.337,3.261,3.261,0,0,1,4.03.337Z" transform="translate(-245.972 -245.897)" fill="#261006"/>
              </g>
            </g>
          </g>
          <path id="Trazado_127097" data-name="Trazado 127097" d="M57.963,339.92v83.813l14.21,14.21H421.035l13.515-13.515V339.92Z" transform="translate(-57.963 -99.918)" fill="#261006"/>
          <text id="RESIST" transform="translate(81.482 310.968)" fill="#e4d3a5" font-size="67" font-family="SegoeUI, Segoe UI" letter-spacing="0.02em"><tspan x="0" y="0">RESIST</tspan></text>
          <path id="Trazado_127098" data-name="Trazado 127098" d="M425.175,381.349l-16.469-2.393-7.365-14.924-7.365,14.924-16.469,2.393,11.917,11.616-2.813,16.4,14.731-7.744,14.73,7.744-2.813-16.4Z" transform="translate(-64.192 -100.388)" fill="#931b26"/>
          <path id="Trazado_127099" data-name="Trazado 127099" d="M413.286,384.3l-8.088-1.175-3.617-7.329-3.617,7.329-8.088,1.175,5.852,5.7-1.382,8.055,7.234-3.8,7.234,3.8-1.382-8.055Z" transform="translate(-64.433 -100.618)" fill="#e4d3a5"/>
          <path id="Trazado_127100" data-name="Trazado 127100" d="M119.918,381.349l-16.469-2.393-7.365-14.924-7.365,14.924-16.469,2.393,11.917,11.616-2.813,16.4,14.73-7.744,14.73,7.744L108,392.965Z" transform="translate(-58.242 -100.388)" fill="#931b26"/>
        </g>
      </g>
      <path id="Trazado_127101" data-name="Trazado 127101" d="M108.03,384.3l-8.088-1.175L96.325,375.8l-3.617,7.329L84.62,384.3l5.852,5.7-1.382,8.055,7.234-3.8,7.234,3.8-1.382-8.055Z" transform="translate(-21.26 -7.325)" fill="#e4d3a5"/>
    </g>
  </g>
</svg>
