<svg xmlns="http://www.w3.org/2000/svg" width="416.346" height="310.268" viewBox="0 0 416.346 310.268">
  <g id="Grupo_68380" data-name="Grupo 68380" transform="translate(0 -54.953)">
    <g id="Background_Complete" data-name="Background Complete" transform="translate(0 54.953)">
      <g id="Grupo_68354" data-name="Grupo 68354">
        <rect id="Rectángulo_7706" data-name="Rectángulo 7706" width="416.346" height="0.208" transform="translate(0 272.661)" fill="#ebebeb"/>
        <rect id="Rectángulo_7707" data-name="Rectángulo 7707" width="44.189" height="0.208" transform="translate(330.44 286.064)" fill="#ebebeb"/>
        <rect id="Rectángulo_7708" data-name="Rectángulo 7708" width="48.85" height="0.208" transform="translate(226.955 283.455)" fill="#ebebeb"/>
        <rect id="Rectángulo_7709" data-name="Rectángulo 7709" width="15.981" height="0.208" transform="translate(316.586 282.253)" fill="#ebebeb"/>
        <rect id="Rectángulo_7710" data-name="Rectángulo 7710" width="35.967" height="0.208" transform="translate(83.663 279.731)" fill="#ebebeb"/>
        <rect id="Rectángulo_7711" data-name="Rectángulo 7711" width="12.86" height="0.208" transform="translate(66.165 279.731)" fill="#ebebeb"/>
        <rect id="Rectángulo_7712" data-name="Rectángulo 7712" width="45.128" height="0.208" transform="translate(109.475 283.247)" fill="#ebebeb"/>
        <path id="Trazado_127376" data-name="Trazado 127376" d="M420.048,290.478H259.257a4.758,4.758,0,0,1-4.752-4.753V59.705a4.757,4.757,0,0,1,4.752-4.752H420.048a4.758,4.758,0,0,1,4.754,4.752V285.725A4.759,4.759,0,0,1,420.048,290.478ZM259.257,55.161a4.549,4.549,0,0,0-4.544,4.544V285.725a4.549,4.549,0,0,0,4.544,4.545H420.048a4.55,4.55,0,0,0,4.546-4.545V59.705a4.55,4.55,0,0,0-4.546-4.544Z" transform="translate(-42.581 -54.953)" fill="#ebebeb"/>
      </g>
      <g id="Grupo_68356" data-name="Grupo 68356" transform="translate(39.136 12.761)">
        <path id="Trazado_127377" data-name="Trazado 127377" d="M318.272,260.878c-21.3-27.614-31.159-54.68-57.054-14.848-11.654-12.311-21.895-24.628-29.35-36.241-40.343-62.846-80.906-24.171-113.845,18.532S47,347.992,47,347.992H389.875S339.7,288.66,318.272,260.878Z" transform="translate(-46.999 -88.095)" fill="#263238"/>
        <g id="Grupo_68355" data-name="Grupo 68355" transform="translate(122.702 168.897)">
          <path id="Trazado_127378" data-name="Trazado 127378" d="M269.811,299.179c-11.037-20.706-16.107-41.022-29.625-10.549-12.858,28.984-45.831,75.479-45.831,75.479H306.692S280.848,319.886,269.811,299.179Z" transform="translate(-194.355 -273.111)" fill="#f0f0f0"/>
        </g>
        <path id="Trazado_127379" data-name="Trazado 127379" d="M64.411,87.48a3.672,3.672,0,0,1,2.312.712,35.75,35.75,0,0,1,15.927-3.826A12.193,12.193,0,0,1,88.5,85.79c5.419-3.735,12.41-6.381,17.556-6.381,2.924,0,4.775.857,5.477,2.286,5.614-2.507,11.421-4.047,16.153-4.047,7.545,0,10.148,3.912,7.278,9.408,3.559.1,6.555,2.267,4,4.216H55.641c.1-.121.2-.241.316-.366A12.432,12.432,0,0,1,64.411,87.48Z" transform="translate(-48.445 -71.511)" fill="#529ad9"/>
        <path id="Trazado_127380" data-name="Trazado 127380" d="M168.533,117.136a1.744,1.744,0,0,1,1.323.517,18.476,18.476,0,0,1,9.474-2.785,5.73,5.73,0,0,1,3.359,1.039s0,0,0,0c3.323-2.715,7.526-4.64,10.537-4.64,1.715,0,2.759.623,3.1,1.662a21.709,21.709,0,0,1,9.62-2.946c3.432,0,5.015,1.721,4.646,4.371a11.187,11.187,0,0,1,4.551-1.225c1.833,0,2.725.871,2.631,2.236.162,0,.321.007.479.021,2.805.227,3.946,1.992,2.68,4.007h-57.3A7.07,7.07,0,0,1,168.533,117.136Z" transform="translate(-66.514 -76.921)" fill="#529ad9"/>
        <path id="Trazado_127381" data-name="Trazado 127381" d="M77.445,148.556a1.21,1.21,0,0,1,.915.358,12.774,12.774,0,0,1,6.55-1.925,3.957,3.957,0,0,1,2.323.719h0c2.3-1.878,5.2-3.208,7.286-3.208,1.186,0,1.908.431,2.146,1.149a15.01,15.01,0,0,1,6.652-2.038c2.373,0,3.467,1.191,3.213,3.022a7.74,7.74,0,0,1,3.147-.847c1.267,0,1.885.6,1.819,1.546.112,0,.222,0,.331.015,1.94.157,2.73,1.376,1.854,2.77H74.061A4.888,4.888,0,0,1,77.445,148.556Z" transform="translate(-51.527 -82.547)" fill="#529ad9"/>
        <circle id="Elipse_4871" data-name="Elipse 4871" cx="29.052" cy="29.052" r="29.052" transform="translate(263.898)" fill="gold"/>
        <path id="Trazado_127383" data-name="Trazado 127383" d="M379.351,158.687a1.741,1.741,0,0,1,1.323.518,18.476,18.476,0,0,1,9.474-2.785,5.726,5.726,0,0,1,3.359,1.039s0,0,0,0c3.324-2.715,7.527-4.641,10.538-4.641,1.714,0,2.759.623,3.1,1.663a21.708,21.708,0,0,1,9.62-2.947c3.432,0,5.015,1.722,4.646,4.371a11.2,11.2,0,0,1,4.552-1.225c1.833,0,2.725.872,2.63,2.236.162,0,.321.007.479.022,2.806.227,3.947,1.991,2.68,4.006h-57.3A7.071,7.071,0,0,1,379.351,158.687Z" transform="translate(-101.785 -83.873)" fill="#529ad9"/>
      </g>
    </g>
    <g id="Shadow" transform="translate(46.723 346.363)">
      <ellipse id="_Path_" data-name="&lt;Path&gt;" cx="161.45" cy="9.429" rx="161.45" ry="9.429" fill="rgba(245,245,245,0.2)"/>
    </g>
    <g id="Goal" transform="translate(198.783 95.932)">
      <g id="Grupo_68367" data-name="Grupo 68367" transform="translate(0 0)">
        <g id="Grupo_68359" data-name="Grupo 68359" transform="translate(0 36.824)">
          <g id="Grupo_68357" data-name="Grupo 68357" transform="translate(0 8)">
            <rect id="Rectángulo_7713" data-name="Rectángulo 7713" width="0.833" height="6.761" transform="matrix(0.956, -0.293, 0.293, 0.956, 126.438, 105.71)" fill="#407bff"/>
            <rect id="Rectángulo_7714" data-name="Rectángulo 7714" width="0.833" height="20.115" transform="translate(118.783 80.75) rotate(-17.051)" fill="#407bff"/>
            <path id="Trazado_127384" data-name="Trazado 127384" d="M330.561,158H300.928L239.191,359.285a10.487,10.487,0,0,0,10.026,13.563H382.272A10.488,10.488,0,0,0,392.3,359.285Z" transform="translate(-238.723 -157.996)" fill="#529ad9"/>
            <path id="Trazado_127385" data-name="Trazado 127385" d="M342.263,158H327.447l-18.78,214.852h85.307A10.488,10.488,0,0,0,404,359.285Z" transform="translate(-250.425 -157.996)" fill="#263238" opacity="0.2"/>
            <path id="Trazado_127386" data-name="Trazado 127386" d="M347.616,158h-6.953l21.19,214.852h37.474a10.488,10.488,0,0,0,10.027-13.563Z" transform="translate(-255.778 -157.996)" fill="#263238" opacity="0.2"/>
            <path id="Trazado_127387" data-name="Trazado 127387" d="M300.928,158h7.139L257,372.848h-7.778a10.487,10.487,0,0,1-10.026-13.563Z" transform="translate(-238.723 -157.996)" fill="#fff" opacity="0.2"/>
          </g>
          <g id="Grupo_68358" data-name="Grupo 68358" transform="translate(48.759)">
            <path id="Trazado_127388" data-name="Trazado 127388" d="M325.31,148.389h0a19.656,19.656,0,0,1,18.982,14.551l9.563,35.549-2.543,11.241-9.726-9.23-9.217,21.165-8.392-14.711-10.425,14.711L309.017,199.6l-9.494,12.583-2.246-14.526,9.01-34.568A19.658,19.658,0,0,1,325.31,148.389Z" transform="translate(-297.278 -148.389)" fill="#407bff"/>
            <path id="Trazado_127389" data-name="Trazado 127389" d="M325.31,148.389h0a19.656,19.656,0,0,1,18.982,14.551l9.563,35.549-2.543,11.241-9.726-9.23-9.217,21.165-8.392-14.711-10.425,14.711L309.017,199.6l-9.494,12.583-2.246-14.526,9.01-34.568A19.658,19.658,0,0,1,325.31,148.389Z" transform="translate(-297.278 -148.389)" fill="#bce0ff"/>
          </g>
        </g>
        <g id="Grupo_68365" data-name="Grupo 68365" transform="translate(34.419 29.332)">
          <path id="Trazado_127390" data-name="Trazado 127390" d="M305.665,372.352a.833.833,0,0,1-.757-.484L290.8,341.276a.833.833,0,0,1,.187-.957l54.933-51.475-34.131-66.52a.832.832,0,0,1-.08-.518l11.942-71.056a.833.833,0,1,1,1.642.276l-11.9,70.784,34.292,66.833a.832.832,0,0,1-.172.988l-54.954,51.494,13.859,30.047a.833.833,0,0,1-.408,1.1A.821.821,0,0,1,305.665,372.352Z" transform="translate(-281.841 -141.176)" fill="#fff"/>
          <g id="Grupo_68364" data-name="Grupo 68364">
            <g id="Grupo_68360" data-name="Grupo 68360" transform="translate(54.92 137.663)">
              <circle id="Elipse_4872" data-name="Elipse 4872" cx="8.466" cy="8.466" r="8.466" transform="matrix(0.23, -0.973, 0.973, 0.23, 0, 16.479)" fill="#b2b555"/>
              <path id="Trazado_127391" data-name="Trazado 127391" d="M356.374,324.375a9.3,9.3,0,1,1,9.3-9.3A9.309,9.309,0,0,1,356.374,324.375Zm0-16.931a7.633,7.633,0,1,0,7.633,7.632A7.641,7.641,0,0,0,356.374,307.443Z" transform="translate(-346.19 -304.892)" fill="#fff"/>
            </g>
            <g id="Grupo_68361" data-name="Grupo 68361" transform="translate(0 190.039)">
              <circle id="Elipse_4873" data-name="Elipse 4873" cx="8.466" cy="8.466" r="8.466" transform="matrix(0.16, -0.987, 0.987, 0.16, 0, 16.713)" fill="#b2b555"/>
              <path id="Trazado_127392" data-name="Trazado 127392" d="M289.853,386.708a9.3,9.3,0,1,1,9.3-9.3A9.308,9.308,0,0,1,289.853,386.708Zm0-16.931a7.633,7.633,0,1,0,7.633,7.633A7.642,7.642,0,0,0,289.853,369.776Z" transform="translate(-280.141 -367.697)" fill="#fff"/>
            </g>
            <g id="Grupo_68362" data-name="Grupo 68362" transform="translate(21.387 71.47)">
              <circle id="Elipse_4874" data-name="Elipse 4874" cx="8.466" cy="8.466" r="8.466" transform="translate(0.833 0.833)" fill="#b2b555"/>
              <path id="Trazado_127393" data-name="Trazado 127393" d="M315.041,243.819a9.3,9.3,0,1,1,9.3-9.3A9.31,9.31,0,0,1,315.041,243.819Zm0-16.932a7.633,7.633,0,1,0,7.633,7.633A7.642,7.642,0,0,0,315.041,226.887Z" transform="translate(-305.742 -225.222)" fill="#fff"/>
            </g>
            <g id="Grupo_68363" data-name="Grupo 68363" transform="translate(32.915)">
              <circle id="Elipse_4875" data-name="Elipse 4875" cx="8.466" cy="8.466" r="8.466" transform="matrix(0.16, -0.987, 0.987, 0.16, 0, 16.713)" fill="#b2b555"/>
              <path id="Trazado_127394" data-name="Trazado 127394" d="M329.382,158.486a9.3,9.3,0,1,1,9.3-9.3A9.309,9.309,0,0,1,329.382,158.486Zm0-16.931a7.633,7.633,0,1,0,7.633,7.633A7.642,7.642,0,0,0,329.382,141.554Z" transform="translate(-319.669 -139.475)" fill="#fff"/>
            </g>
          </g>
        </g>
        <g id="Grupo_68366" data-name="Grupo 68366" transform="translate(43.439)">
          <path id="Trazado_127395" data-name="Trazado 127395" d="M331.053,143.257a.832.832,0,0,1-.833-.833V105a.833.833,0,1,1,1.665,0v37.425A.832.832,0,0,1,331.053,143.257Z" transform="translate(-297.47 -104.166)" fill="#b2b555"/>
          <path id="Trazado_127396" data-name="Trazado 127396" d="M290.89,121.157c7.463,2.545,14.926-2.544,22.389,0V108.435c-7.463-2.544-14.925,2.545-22.389,0Z" transform="translate(-290.89 -104.757)" fill="#e5dec1"/>
          <path id="Trazado_127397" data-name="Trazado 127397" d="M300.71,108.91v12.715c4.738-.625,9.476-2.082,14.214-.466V108.435C310.186,106.82,305.448,108.277,300.71,108.91Z" transform="translate(-292.533 -104.757)" opacity="0.2"/>
          <path id="Trazado_127398" data-name="Trazado 127398" d="M304.334,117.74c7.463,2.545,14.925-2.544,22.388,0V105.019c-7.463-2.545-14.925,2.544-22.388,0Z" transform="translate(-293.139 -104.186)" fill="#e5dec1"/>
        </g>
      </g>
    </g>
    <g id="Character" transform="translate(101.75 101.156)">
      <g id="Grupo_68379" data-name="Grupo 68379" transform="translate(0 0)">
        <g id="Grupo_68378" data-name="Grupo 68378">
          <g id="Grupo_68368" data-name="Grupo 68368" transform="translate(25.569 87.142)">
            <path id="Trazado_127399" data-name="Trazado 127399" d="M157.745,215.542l2.59,4.167-7.435.949a35.5,35.5,0,0,1,.709-4.076,1.9,1.9,0,0,1,2.257-1.449Z" transform="translate(-152.9 -215.09)" fill="#7f3e3b"/>
            <path id="Trazado_127400" data-name="Trazado 127400" d="M159.722,227.309l-5.787-1.776-1.035-3.946,7.435-.949Z" transform="translate(-152.9 -216.018)" fill="#7f3e3b"/>
          </g>
          <g id="Grupo_68370" data-name="Grupo 68370" transform="translate(0 39.781)">
            <g id="Grupo_68369" data-name="Grupo 68369">
              <line id="Línea_128" data-name="Línea 128" opacity="0.2"/>
            </g>
          </g>
          <g id="Grupo_68377" data-name="Grupo 68377" transform="translate(6.262)">
            <g id="Grupo_68371" data-name="Grupo 68371" transform="translate(45.842 14.293)">
              <path id="Trazado_127401" data-name="Trazado 127401" d="M184.766,154.283c.888-.275,1.95-.647,2.934-.982q1.5-.522,2.989-1.1c1.972-.785,3.934-1.586,5.814-2.5a38.325,38.325,0,0,0,9.991-6.373,12.838,12.838,0,0,0,1.671-1.9l.168-.241c.041-.012.217-.426-.12.354a3.211,3.211,0,0,0-.172,1.388,2.083,2.083,0,0,0,.04.248l.038.176c.015.054.035.111.053.16l.036.1c.112.246.145.232.124.186a2.653,2.653,0,0,0-.2-.307,14.629,14.629,0,0,0-1.865-1.915c-.755-.664-1.557-1.352-2.393-2.016-3.355-2.66-7-5.281-10.558-7.9l2.166-4.05a86.86,86.86,0,0,1,12.5,5.947c1.013.6,2.038,1.216,3.049,1.934a22.631,22.631,0,0,1,3.136,2.571,7.956,7.956,0,0,1,1.8,2.65l.11.294.1.364c.033.127.062.237.087.38s.047.3.063.457a5.113,5.113,0,0,1-.267,2.215,5.559,5.559,0,0,1-.532,1.085l-.278.472a21.173,21.173,0,0,1-2.521,3.343,43.01,43.01,0,0,1-12.143,8.691c-2.142,1.073-4.3,2.051-6.506,2.9q-1.651.642-3.323,1.221c-1.135.4-2.2.727-3.466,1.08Z" transform="translate(-184.766 -127.604)" fill="#7f3e3b"/>
            </g>
            <path id="Trazado_127402" data-name="Trazado 127402" d="M187.943,125.718l-4.436,2.9,6.347,1.451,1.628-4.475Z" transform="translate(-138.714 -112.974)" fill="#7f3e3b"/>
            <path id="Trazado_127403" data-name="Trazado 127403" d="M198.193,127.944l-5.437-2.354-1.628,4.476s4.321,4.529,7.065,1.506Z" transform="translate(-139.989 -112.974)" fill="#7f3e3b"/>
            <path id="Trazado_127404" data-name="Trazado 127404" d="M156.475,168.261c-2.05,3.708-4.119,7.546-6.1,11.34s-3.914,7.632-5.53,11.449c-.42.954-.79,1.9-1.145,2.84l-.122.311a.432.432,0,0,0,0-.09c-.007-.055-.016-.076-.031-.067a.8.8,0,0,0,.019.43,7.072,7.072,0,0,0,.887,1.978,23.009,23.009,0,0,0,1.605,2.3,86.218,86.218,0,0,0,8.668,9l-2.564,3.81a51.251,51.251,0,0,1-11.423-7.89,26.055,26.055,0,0,1-2.569-2.77,15.239,15.239,0,0,1-2.242-3.78,9.092,9.092,0,0,1-.63-2.78,7.8,7.8,0,0,1,.08-1.7,7.44,7.44,0,0,1,.193-.888l.139-.468c.338-1.137.693-2.261,1.08-3.345a125.681,125.681,0,0,1,5.313-12.5c1.976-4.03,4.035-7.928,6.336-11.83Z" transform="translate(-130.647 -119.336)" fill="#7f3e3b"/>
            <path id="Trazado_127405" data-name="Trazado 127405" d="M167.54,137.16c-.54,5.627.257,11.073-1,15.965,0,0,1.4,4.539,9.714,4.539,9.144,0,4.2-4.539,4.2-4.539-5.037-1.192-5.051-4.894-4.316-8.371Z" transform="translate(-135.875 -114.909)" fill="#7f3e3b"/>
            <path id="Trazado_127406" data-name="Trazado 127406" d="M165,157.346c-.711-1.437-1.5-3.082-.023-3.6,1.62-.567,10.588-1.145,13.728-.081a3.311,3.311,0,0,1,2.374,3.978Z" transform="translate(-135.474 -117.572)" fill="#263238"/>
            <path id="Trazado_127407" data-name="Trazado 127407" d="M143.407,403.777a7.918,7.918,0,0,1-1.66-.6.158.158,0,0,1,.014-.291c.27-.1,2.655-.944,3.3-.419a.5.5,0,0,1,.172.494.955.955,0,0,1-.495.75A2.026,2.026,0,0,1,143.407,403.777Zm-1.165-.722a3.221,3.221,0,0,0,2.346.376.647.647,0,0,0,.331-.517.193.193,0,0,0-.06-.2C144.525,402.438,143.2,402.741,142.242,403.055Z" transform="translate(-131.712 -159.268)" fill="#407bff"/>
            <path id="Trazado_127408" data-name="Trazado 127408" d="M141.782,402.826a.161.161,0,0,1-.079-.042.159.159,0,0,1-.039-.157c.023-.078.58-1.931,1.472-2.39a.867.867,0,0,1,.7-.059h0a.517.517,0,0,1,.406.511c-.017.758-1.63,1.912-2.384,2.135A.156.156,0,0,1,141.782,402.826Zm1.884-2.368a.556.556,0,0,0-.384.06,3.8,3.8,0,0,0-1.208,1.884c.781-.367,1.844-1.272,1.854-1.72,0-.041,0-.137-.192-.2h0A.438.438,0,0,0,143.665,400.458Z" transform="translate(-131.712 -158.906)" fill="#407bff"/>
            <path id="Trazado_127409" data-name="Trazado 127409" d="M194.917,408.971a7.844,7.844,0,0,1-1.749-.241.159.159,0,0,1-.047-.288c.244-.152,2.4-1.476,3.139-1.1a.5.5,0,0,1,.271.447.954.954,0,0,1-.328.837A2.024,2.024,0,0,1,194.917,408.971Zm-1.29-.463a3.224,3.224,0,0,0,2.373-.121.644.644,0,0,0,.215-.575.193.193,0,0,0-.1-.186C195.732,407.429,194.5,408,193.627,408.508Z" transform="translate(-140.31 -160.102)" fill="#407bff"/>
            <path id="Trazado_127410" data-name="Trazado 127410" d="M193.205,408.42a.159.159,0,0,1-.086-.026.156.156,0,0,1-.072-.145c.006-.082.166-2.011.943-2.645a.868.868,0,0,1,.674-.2h0a.517.517,0,0,1,.5.415c.141.745-1.2,2.21-1.888,2.586A.163.163,0,0,1,193.205,408.42Zm1.35-2.71a.559.559,0,0,0-.364.139,3.8,3.8,0,0,0-.789,2.093c.687-.522,1.539-1.628,1.456-2.068-.007-.04-.026-.134-.231-.16h0A.685.685,0,0,0,194.555,405.71Z" transform="translate(-140.31 -159.787)" fill="#407bff"/>
            <path id="Trazado_127411" data-name="Trazado 127411" d="M184.6,405.891h6.117l.062-14.166h-6.117Z" transform="translate(-138.896 -157.5)" fill="#7f3e3b"/>
            <path id="Trazado_127412" data-name="Trazado 127412" d="M133.131,399.189l5.842,1.133,4.861-13.891-5.842-1.133Z" transform="translate(-130.286 -156.425)" fill="#7f3e3b"/>
            <path id="Trazado_127413" data-name="Trazado 127413" d="M139.192,402.069l-6.721-1.431a.507.507,0,0,0-.58.3l-2.109,5.11a.939.939,0,0,0,.69,1.259c2.354.46,3.518.564,6.474,1.193,1.819.386,5.532,1.376,8.044,1.91,2.456.523,3.272-1.9,2.283-2.345-4.434-2-5.929-3.77-7.173-5.422A1.541,1.541,0,0,0,139.192,402.069Z" transform="translate(-129.714 -158.989)" fill="#263238"/>
            <path id="Trazado_127414" data-name="Trazado 127414" d="M190.215,407.886h-6.68a.509.509,0,0,0-.505.418l-1,5.438a.929.929,0,0,0,.923,1.088c2.408-.041,5.885-.182,8.914-.182,3.541,0,3.715.193,7.867.193,2.511,0,3.111-2.539,2.05-2.769-4.825-1.047-5.845-1.159-10.078-3.709A2.927,2.927,0,0,0,190.215,407.886Z" transform="translate(-138.464 -160.204)" fill="#263238"/>
            <path id="Trazado_127415" data-name="Trazado 127415" d="M151.975,157.7c-5.627,1.535-12.285,17.105-12.285,17.105l12.925,7.3s3.023-5.51,6-12.338C161.739,162.612,161.363,155.136,151.975,157.7Z" transform="translate(-131.383 -118.26)" fill="#263238"/>
            <path id="Trazado_127416" data-name="Trazado 127416" d="M190.841,185c-.044,6.828-.458,15.322-1.475,25.863H156.642c-.4-4.749,1.56-26.934-3.1-49.35a3.772,3.772,0,0,1,3.13-4.518c1.98-.29,4.464-.589,6.9-.706a120.969,120.969,0,0,1,13.906,0,56.668,56.668,0,0,1,5.712.842,7.168,7.168,0,0,1,5.547,5.086,63.555,63.555,0,0,1,1.863,13.016C190.772,178.039,190.864,181.27,190.841,185Z" transform="translate(-133.688 -118.076)" fill="#263238"/>
            <path id="Trazado_127417" data-name="Trazado 127417" d="M179.993,168.716c5.1,2.815,16.815-.4,16.815-.4l-.611-15.865a46.392,46.392,0,0,0-12.341,3.336C175.876,159.031,174.249,165.545,179.993,168.716Z" transform="translate(-137.554 -117.467)" fill="#263238"/>
            <g id="Grupo_68375" data-name="Grupo 68375" transform="translate(19.303 36.921)">
              <g id="Grupo_68372" data-name="Grupo 68372" transform="translate(21.497)">
                <path id="Trazado_127418" data-name="Trazado 127418" d="M187.048,154.778s-2.368.833-3.243,1.089c-3.14,3.448-5.094,10.938-5.094,10.938l3.992,5.274C181.192,164.262,187.048,154.778,187.048,154.778Z" transform="translate(-178.712 -154.778)" fill="#529ad9"/>
                <path id="Trazado_127419" data-name="Trazado 127419" d="M187.048,154.778s-2.368.833-3.243,1.089c-3.14,3.448-5.094,10.938-5.094,10.938l3.992,5.274C181.192,164.262,187.048,154.778,187.048,154.778Z" transform="translate(-178.712 -154.778)" fill="#529ad9" opacity="0.2"/>
              </g>
              <g id="Grupo_68373" data-name="Grupo 68373" transform="translate(28.528 36.083)">
                <path id="Trazado_127420" data-name="Trazado 127420" d="M196.481,201.3c-3.118,2.406-9.325-3.192-9.325-3.192l.186,2.839c5.69,4.753,9.056,2.394,9.056,2.394A7.194,7.194,0,0,0,196.481,201.3Z" transform="translate(-187.156 -198.111)" fill="#529ad9"/>
                <path id="Trazado_127421" data-name="Trazado 127421" d="M196.481,201.3c-3.118,2.406-9.325-3.192-9.325-3.192l.186,2.839c5.69,4.753,9.056,2.394,9.056,2.394A7.194,7.194,0,0,0,196.481,201.3Z" transform="translate(-187.156 -198.111)" fill="#529ad9" opacity="0.2"/>
              </g>
              <g id="Grupo_68374" data-name="Grupo 68374" transform="translate(4.639 1.089)">
                <path id="Trazado_127422" data-name="Trazado 127422" d="M162.591,156.086a16.959,16.959,0,0,0-2.771.449,19.525,19.525,0,0,0-.923,11.259l3.591-1.614A25.171,25.171,0,0,1,162.591,156.086Z" transform="translate(-158.467 -156.086)" fill="#529ad9"/>
                <path id="Trazado_127423" data-name="Trazado 127423" d="M162.591,156.086a16.959,16.959,0,0,0-2.771.449,19.525,19.525,0,0,0-.923,11.259l3.591-1.614A25.171,25.171,0,0,1,162.591,156.086Z" transform="translate(-158.467 -156.086)" fill="#529ad9" opacity="0.2"/>
              </g>
              <path id="Trazado_127424" data-name="Trazado 127424" d="M157.442,168.81c1.949-3.055,16.974-2.712,20.221-.208s7.169,29.838,2.366,32.891S153.057,206,152.9,199.828s4.89-16.919,4.284-20.47S154.785,172.974,157.442,168.81Z" transform="translate(-152.896 -156.759)" fill="#529ad9"/>
              <path id="Trazado_127425" data-name="Trazado 127425" d="M158.6,180.62s5.476,2.134,17.064-.455C173.415,181.342,161.5,184.032,158.6,180.62Z" transform="translate(-153.851 -159.025)" fill="#263238" opacity="0.4"/>
              <path id="Trazado_127426" data-name="Trazado 127426" d="M166.236,179.564c.072.511-.212.925-.633.925a1.019,1.019,0,0,1-.893-.925c-.072-.511.212-.925.633-.925A1.018,1.018,0,0,1,166.236,179.564Z" transform="translate(-154.87 -158.77)" fill="#263238" opacity="0.4"/>
              <path id="Trazado_127427" data-name="Trazado 127427" d="M181.636,202.391a.22.22,0,0,1-.061-.009.209.209,0,0,1-.139-.26c1.768-5.788,1.548-13.769-.651-23.72-.912-4.125.128-8.125.678-8.948a.208.208,0,1,1,.346.231c-.567.85-1.461,4.811-.618,8.628,2.215,10.022,2.431,18.074.644,23.932A.209.209,0,0,1,181.636,202.391Z" transform="translate(-157.501 -157.218)" fill="#263238" opacity="0.4"/>
            </g>
            <g id="Grupo_68376" data-name="Grupo 68376" transform="translate(5.196 228.878)" opacity="0.2">
              <path id="Trazado_127428" data-name="Trazado 127428" d="M190.781,391.729l-.031,7.3h-6.12l.031-7.3Z" transform="translate(-144.097 -386.378)"/>
              <path id="Trazado_127429" data-name="Trazado 127429" d="M138.462,385.3l5.845,1.134L141.8,393.6l-5.844-1.134Z" transform="translate(-135.954 -385.303)"/>
            </g>
            <path id="Trazado_127430" data-name="Trazado 127430" d="M174.513,221.87s-5.137,46.749-8.272,64.263c-3.433,19.179-21.212,79.381-21.212,79.381L134.07,363.18s12.238-56.319,13.886-75.308c1.789-20.61,5.445-66,5.445-66Z" transform="translate(-130.443 -129.082)" fill="#529ad9"/>
            <path id="Trazado_127431" data-name="Trazado 127431" d="M147.326,389.459c.047.01-1.865,4-1.865,4l-12.33-2.625.881-3.739Z" transform="translate(-130.286 -156.726)" fill="#263238"/>
            <path id="Trazado_127432" data-name="Trazado 127432" d="M176.97,241.86c-7.966,1.574-5.961,31.509-4.4,46.906,1.9-10.883,4.476-31.826,6.216-46.689A2.779,2.779,0,0,0,176.97,241.86Z" transform="translate(-136.644 -132.416)" opacity="0.2"/>
            <path id="Trazado_127433" data-name="Trazado 127433" d="M192.257,221.87s2.608,45.737,2.663,64.391c.057,19.4-4.268,82.937-4.268,82.937H180.29s-2.79-62.4-3.987-81.456c-1.3-20.775-5.554-65.873-5.554-65.873Z" transform="translate(-136.579 -129.082)" fill="#529ad9"/>
            <path id="Trazado_127434" data-name="Trazado 127434" d="M194.14,393.843c.047,0-.419,4.3-.419,4.3H181.116l-.49-3.84Z" transform="translate(-138.232 -157.854)" fill="#263238"/>
            <path id="Trazado_127435" data-name="Trazado 127435" d="M184.418,129.972c.069.489.386.858.706.826s.525-.456.455-.945-.386-.859-.706-.825S184.349,129.483,184.418,129.972Z" transform="translate(-138.864 -113.548)" fill="#263238"/>
            <path id="Trazado_127436" data-name="Trazado 127436" d="M184.829,131.2a18.547,18.547,0,0,0,2.937,3.941,2.8,2.8,0,0,1-2.282.679Z" transform="translate(-138.935 -113.912)" fill="#630f0f"/>
            <path id="Trazado_127437" data-name="Trazado 127437" d="M184.125,126.2a.29.29,0,0,0-.023-.553,2.846,2.846,0,0,0-2.533.714.29.29,0,1,0,.391.428,2.273,2.273,0,0,1,1.993-.581A.291.291,0,0,0,184.125,126.2Z" transform="translate(-138.374 -112.974)" fill="#263238"/>
            <path id="Trazado_127438" data-name="Trazado 127438" d="M164.548,128.982c1.22,5.966,1.63,9.509,5.112,12.279a7.9,7.9,0,0,0,12.878-5.486c.53-5.527-1.555-14.356-7.793-16.142A7.977,7.977,0,0,0,164.548,128.982Z" transform="translate(-135.512 -111.918)" fill="#7f3e3b"/>
            <path id="Trazado_127439" data-name="Trazado 127439" d="M176.16,128.39c-1.013,3.148-6.671,9.162-8.671,9.625s-7.485-4.279-7.982-6.756c-2-.229-4.194-4.219-1.137-5.783-2.242-1.142-1.648-7.09,2.912-6.662-2.786-2.68.558-7.214,4.35-6.01.909-2.313,6.042-3.794,9-.231,2.307-1.3,6.344,1.318,6.048,5.233a6.334,6.334,0,0,1-4.451,5.251C177.188,124.239,176.16,128.39,176.16,128.39Z" transform="translate(-134.255 -110.439)" fill="#263238"/>
            <path id="Trazado_127440" data-name="Trazado 127440" d="M176.354,130.45a7.218,7.218,0,0,0,2.308,3.845c1.539,1.311,2.775.245,2.74-1.563-.032-1.627-.873-4.27-2.6-4.892C177.09,127.226,175.973,128.657,176.354,130.45Z" transform="translate(-137.505 -113.326)" fill="#7f3e3b"/>
          </g>
        </g>
      </g>
    </g>
  </g>
</svg>
