<svg xmlns="http://www.w3.org/2000/svg" width="78" height="93" viewBox="0 0 78 93">
  <g id="Grupo_67928" data-name="Grupo 67928" transform="translate(-180 -1427)">
    <g id="folleto_1_" data-name="folleto (1)" transform="translate(139.922 1436.676)">
      <rect id="Rectángulo_7563" data-name="Rectángulo 7563" width="53.029" height="70.705" transform="translate(41.262 1.184)" fill="#e5dec1"/>
      <path id="Trazado_125009" data-name="Trazado 125009" d="M168.153,78.22,127.75,85.8V17.616l40.4-10.1Z" transform="translate(-73.862 -6.331)" fill="#a0a603"/>
      <rect id="Rectángulo_7564" data-name="Rectángulo 7564" width="53.029" height="68.18" transform="translate(53.888 11.284)" fill="#edecf1"/>
      <rect id="Rectángulo_7565" data-name="Rectángulo 7565" width="3.788" height="68.18" transform="translate(53.888 11.284)" fill="#dbd9e2"/>
      <rect id="Rectángulo_7566" data-name="Rectángulo 7566" width="35.353" height="16.414" transform="translate(62.726 20.123)" fill="#6a56a8"/>
      <rect id="Rectángulo_7567" data-name="Rectángulo 7567" width="30.302" height="11.363" transform="translate(65.251 22.648)" fill="#e5dec1"/>
      <rect id="Rectángulo_7568" data-name="Rectángulo 7568" width="21.464" height="27.777" transform="translate(62.726 42.849)" fill="#e2db44"/>
      <path id="Trazado_125010" data-name="Trazado 125010" d="M106.917,67.417a1.184,1.184,0,0,0,1.184-1.184V11.284a1.184,1.184,0,0,0-1.184-1.184H95.474V1.184A1.2,1.2,0,0,0,94.291,0H41.262a1.184,1.184,0,0,0-1.184,1.184V71.889a1.184,1.184,0,0,0,1.184,1.184H52.7v6.392a1.184,1.184,0,0,0,1.184,1.184h53.029a1.184,1.184,0,0,0,1.184-1.184v-7.6a1.184,1.184,0,1,0-2.367,0v6.418H55.071V12.468h50.662V66.234A1.184,1.184,0,0,0,106.917,67.417ZM93.107,10.1H63.5l29.6-7.4Zm-50.662,60.6V2.367h42.23L53.6,10.136a1.2,1.2,0,0,0-.9,1.148V70.705Z"/>
      <path id="Trazado_125011" data-name="Trazado 125011" d="M214.064,121.419a1.184,1.184,0,0,0-1.184-1.184H177.528a1.184,1.184,0,0,0-1.184,1.184v16.414a1.184,1.184,0,0,0,1.184,1.184H212.88a1.184,1.184,0,0,0,1.184-1.184Zm-2.367,15.23H178.711V122.6H211.7Z" transform="translate(-114.802 -101.296)"/>
      <path id="Trazado_125012" data-name="Trazado 125012" d="M177.528,264.516a1.184,1.184,0,0,0-1.184,1.184v27.777a1.184,1.184,0,0,0,1.184,1.184h21.464a1.184,1.184,0,0,0,1.184-1.184V265.7a1.184,1.184,0,0,0-1.184-1.184H177.528Zm20.281,27.777h-19.1v-25.41h19.1Z" transform="translate(-114.802 -222.85)"/>
      <path id="Trazado_125013" data-name="Trazado 125013" d="M354.694,288.564h-8.838a1.184,1.184,0,1,0,0,2.367h8.838a1.184,1.184,0,0,0,0-2.367Z" transform="translate(-256.616 -243.111)"/>
      <path id="Trazado_125014" data-name="Trazado 125014" d="M354.694,320.626h-8.838a1.184,1.184,0,1,0,0,2.367h8.838a1.184,1.184,0,0,0,0-2.367Z" transform="translate(-256.616 -270.122)"/>
      <path id="Trazado_125015" data-name="Trazado 125015" d="M354.694,352.689h-8.838a1.184,1.184,0,1,0,0,2.367h8.838a1.184,1.184,0,0,0,0-2.367Z" transform="translate(-256.616 -297.135)"/>
      <path id="Trazado_125016" data-name="Trazado 125016" d="M354.694,384.751h-8.838a1.184,1.184,0,1,0,0,2.367h8.838a1.184,1.184,0,0,0,0-2.367Z" transform="translate(-256.616 -324.147)"/>
      <path id="Trazado_125017" data-name="Trazado 125017" d="M354.694,416.814h-8.838a1.184,1.184,0,1,0,0,2.367h8.838a1.184,1.184,0,0,0,0-2.367Z" transform="translate(-256.616 -351.159)"/>
    </g>
    <rect id="Rectángulo_7646" data-name="Rectángulo 7646" width="78" height="93" transform="translate(180 1427)" fill="none"/>
  </g>
</svg>
