<svg xmlns="http://www.w3.org/2000/svg" width="1240" height="417" viewBox="0 0 1240 417">
  <g id="Grupo_67929" data-name="Grupo 67929" transform="translate(-180 -2005)">
    <rect id="Rectángulo_5354" data-name="Rectángulo 5354" width="901" height="417" transform="translate(180 2005)" fill="rgba(229,222,193,0.47)"/>
    <g id="Grupo_67475" data-name="Grupo 67475" transform="translate(768.324 1996.068)">
      <g id="Grupo_67475-2" data-name="Grupo 67475" transform="translate(255.645 67.932)" opacity="0.29">
        <path id="Trazado_125018" data-name="Trazado 125018" d="M400.909,197.831H265.283V92.994H376.335l24.574,24.574Z" transform="translate(-238.538 -66.015)" fill="#c9c8c3" style="mix-blend-mode: multiply;isolation: isolate"/>
        <line id="Línea_120" data-name="Línea 120" x1="23.773" transform="translate(0 28.23)" fill="none" stroke="#c9c8c3" stroke-miterlimit="10" stroke-width="2.075"/>
        <line id="Línea_121" data-name="Línea 121" y1="23.773" transform="translate(27.487)" fill="none" stroke="#c9c8c3" stroke-miterlimit="10" stroke-width="2.075"/>
        <path id="Trazado_125019" data-name="Trazado 125019" d="M366.372,94.846v24.516h24.574" transform="translate(-230.804 -65.873)" fill="#fff"/>
      </g>
      <g id="Grupo_67497" data-name="Grupo 67497" transform="translate(86.016 89.766)">
        <g id="Grupo_67496" data-name="Grupo 67496">
          <g id="Grupo_67488" data-name="Grupo 67488">
            <path id="Trazado_125020" data-name="Trazado 125020" d="M131.94,230.242l116.072-5.127,35.364,154.838-181.029.984L83.9,292.383C77.647,261.14,100.458,231.633,131.94,230.242Z" transform="translate(-82.865 -77.741)" fill="#122832"/>
            <g id="Grupo_67477" data-name="Grupo 67477" transform="translate(16.422 73.685)">
              <line id="Línea_122" data-name="Línea 122" x2="5.519" y2="21.583" transform="translate(37.389 55.783)" fill="none" stroke="#122832" stroke-miterlimit="10" stroke-width="5.917"/>
              <line id="Línea_123" data-name="Línea 123" x2="5.519" y2="21.583" transform="translate(86.111 55.783)" fill="none" stroke="#122832" stroke-miterlimit="10" stroke-width="5.917"/>
              <g id="Grupo_67476" data-name="Grupo 67476">
                <path id="Trazado_125021" data-name="Trazado 125021" d="M120.379,215.976h95.627l-20.477-59.313H108.745A10.616,10.616,0,0,0,98.71,170.745l13.64,39.51A8.493,8.493,0,0,0,120.379,215.976Z" transform="translate(-98.12 -156.663)" fill="#122832"/>
              </g>
            </g>
            <g id="Grupo_67487" data-name="Grupo 67487" transform="translate(16.24)">
              <g id="Grupo_67486" data-name="Grupo 67486">
                <g id="Grupo_67485" data-name="Grupo 67485">
                  <g id="Grupo_67478" data-name="Grupo 67478" transform="translate(89.915 120.827)">
                    <path id="Trazado_125022" data-name="Trazado 125022" d="M305.859,307.238c15.547-10.317,43.275-28.011,43.275-28.011s49.013-31.8,48.1-34.525-17.452,4.4-17.452,4.4c1.295-2.515,16.4-11.513,15.8-13.143s-19.784,8.87-20.633,8.073,19.148-11.6,17.98-13.761-21.165,8.64-22.281,8.125,18.848-12.415,16.316-14.259-30.18,19.095-32.669,18.625,6.191-12.84,5.742-18.322-23.1,28.06-23.1,28.06c-5.2,4.528-46.154,22.111-46.154,22.111Z" transform="translate(-173.114 -198.666)" fill="#df9257"/>
                    <path id="Trazado_125023" data-name="Trazado 125023" d="M352.81,240.589l-7.271,13.423s3.376-13.647,2.517-14.719Z" transform="translate(-168.925 -197.483)" fill="#b6613b"/>
                    <path id="Trazado_125024" data-name="Trazado 125024" d="M275.122,278.345s-51.419-109.363-83.5-67.72c-34.493,44.776,27.473,85.506,59.064,118.9a23.226,23.226,0,0,0,31.67,1.908l74.5-49.908-12.618-25.794Z" transform="translate(-181.476 -200.4)" fill="#df9257"/>
                    <path id="Trazado_125025" data-name="Trazado 125025" d="M219.743,299.831c13.747-15.561,32.613-36.19,47.572-50.531C250,219.783,213.733,181.978,191.622,210.68,166.8,242.9,191.929,273.025,219.743,299.831Z" transform="translate(-181.476 -200.454)" fill="#529ad9"/>
                  </g>
                  <g id="Grupo_67479" data-name="Grupo 67479" transform="translate(21.358 102.634)">
                    <path id="Trazado_125026" data-name="Trazado 125026" d="M117.839,244.625c-1.77-27.593,45.524-49.872,45.524-49.872l17.6-11.2,1.053,2.938,29.361,27.442,4.869-12.694-.276-4.752,4.814,5.054c3.543.581,18,20.3,21.787,29.486,5.766,13.973,7.524,32.291,8.078,43.285,13.078,107.081,14.085,110.416,14.085,110.416H133.793S128.825,415.957,117.839,244.625Z" transform="translate(-117.791 -183.554)" fill="#529ad9"/>
                    <path id="Trazado_125027" data-name="Trazado 125027" d="M144.8,203.586c1.35-.894,86.381,179.611,86.381,179.611H125.789s-8.916-79.071-7.613-142.815C118.176,240.382,119.716,220.2,144.8,203.586Z" transform="translate(-117.771 -182.022)" fill="#8cbde8"/>
                  </g>
                  <g id="Grupo_67482" data-name="Grupo 67482" transform="translate(79.936)">
                    <g id="Grupo_67481" data-name="Grupo 67481">
                      <path id="Trazado_125028" data-name="Trazado 125028" d="M236.286,132.86c2.487-5.062,1.65-13.115,1.65-13.115s20.879-7.121,15.894-19.059-29.516-5.273-29.516-5.273,9.289-14.244-8.964-2.658c-7.256,4.605-8.468,5.736-14.1,3.227s-14.58.713-17.183,5.432c-1.614,2.926-.62,5.527-2.825,5.3-8.167-.855-11.989,7.671-6.379,25.746,0,0-2.826,9.215,2.674,23.587,1.987,5.191,8.76,6.934,8.76,6.934" transform="translate(-172.206 -88.214)" fill="#0e162e"/>
                      <path id="Trazado_125029" data-name="Trazado 125029" d="M236.049,118.96s6.193,41.885-6.562,58.036c-6.547,6.338-14.271,3.558-19.23,3.368-.192-1.79.778,14.546,1.648,29.19,0,.037-.006.074-.011.111-.258,2.521-3.641,3.322-7.626,3.095A23.83,23.83,0,0,1,188.3,205.05l-12.111-13.005,6.756-30.443s1.346-6.868,1.072-9.075c-4.919-.619-8.338-8.131-6.285-13.013,1.957-4.657,9.581-4.963,10.769-.567,1.206,4.458,4.938,4.338,5.4.641.268-2.13-1.343-19.625,11.267-21.69,7.572.53,9.319,5.779,13.174,5.989s7.416-7.918,9.315-5.723C233.654,125.082,236.049,118.96,236.049,118.96Z" transform="translate(-171.901 -85.952)" fill="#df9257"/>
                      <path id="Trazado_125030" data-name="Trazado 125030" d="M179.7,142.4c2.633-8.877,8.465-1.586,8.465-1.586Z" transform="translate(-171.633 -84.406)" fill="#b6613b"/>
                      <path id="Trazado_125031" data-name="Trazado 125031" d="M209.794,176.02l-7.614-.674,6.064,15.55Z" transform="translate(-169.913 -81.548)" fill="#b6613b"/>
                      <g id="Grupo_67480" data-name="Grupo 67480" transform="translate(45.036 47.883)">
                        <path id="Trazado_125032" data-name="Trazado 125032" d="M225.694,146.257s3.531,8.936,3.016,8.894c-1.356-.11-4.138.044-4.138.044Z" transform="translate(-213.236 -131.656)" fill="#b6613b"/>
                        <ellipse id="Elipse_4804" data-name="Elipse 4804" cx="2.406" cy="1.162" rx="2.406" ry="1.162" transform="translate(15.551 16.052) rotate(-88.584)" fill="#0e162e"/>
                        <path id="Trazado_125033" data-name="Trazado 125033" d="M220.4,145.049c-.032,1.328.461,2.419,1.1,2.434s1.187-1.047,1.221-2.377-.461-2.418-1.1-2.434S220.432,143.721,220.4,145.049Z" transform="translate(-213.555 -131.931)" fill="#0e162e"/>
                        <path id="Trazado_125034" data-name="Trazado 125034" d="M214.866,137.324c-1.535.152-1.643-5.273,6.123-4.566,2.2.2,4.058,2.36,3.028,4.008C223.345,137.841,220.426,136.774,214.866,137.324Z" transform="translate(-214.041 -132.694)" fill="#0e162e"/>
                        <path id="Trazado_125035" data-name="Trazado 125035" d="M233.286,138.215c1.459.5,3.7-3.589-.635-5.092a2.757,2.757,0,0,0-3.559,3.847C229.642,137.972,230.984,137.425,233.286,138.215Z" transform="translate(-212.915 -132.678)" fill="#0e162e"/>
                        <path id="Trazado_125036" data-name="Trazado 125036" d="M229.684,157.669l-10.426-.83s1.1,5.009,5.667,5.375C228.6,162.509,229.684,157.669,229.684,157.669Z" transform="translate(-213.642 -130.847)" fill="#fff"/>
                      </g>
                    </g>
                  </g>
                  <path id="Trazado_125037" data-name="Trazado 125037" d="M167.079,360.593c18.54-2.112,51.817-5.979,51.817-5.979s66.659,1.4,67.086-1.44-40.454-24.485-40.454-24.485c-6.692,1.664-77.027-4.009-77.027-4.009Z" transform="translate(-92.662 -70.124)" fill="#df9257"/>
                  <g id="Grupo_67483" data-name="Grupo 67483" transform="translate(0 115.202)">
                    <path id="Trazado_125038" data-name="Trazado 125038" d="M165.829,239.054c.449-9.108,13.012-39.921-4.722-43.635-18.7-3.916-73.978,52.71-61.282,147.254,2.881,21.454,15.286,39.161,52.481,32.363l70.3-10.362-2.129-26.968-68.133-15.614S164.5,266.1,165.829,239.054Z" transform="translate(-97.951 -195.229)" fill="#df9257"/>
                  </g>
                  <g id="Grupo_67484" data-name="Grupo 67484" transform="translate(0.455 115.231)">
                    <path id="Trazado_125039" data-name="Trazado 125039" d="M172.183,299.379c2.839-26.97,4.966-45.175,5.677-59.617.45-9.107.946-40.63-16.786-44.344-13.6-2.848-50.629,32.3-62.7,84.8C118.456,287.553,151.809,292.867,172.183,299.379Z" transform="translate(-98.373 -195.256)" fill="#529ad9"/>
                  </g>
                </g>
              </g>
            </g>
          </g>
          <g id="Grupo_67495" data-name="Grupo 67495" transform="translate(115.385 51.841)">
            <g id="Grupo_67494" data-name="Grupo 67494" transform="translate(22.166)">
              <g id="Grupo_67491" data-name="Grupo 67491">
                <g id="Grupo_67489" data-name="Grupo 67489">
                  <rect id="Rectángulo_7569" data-name="Rectángulo 7569" width="14.918" height="14.547" rx="4.234" transform="translate(0)" fill="#fff" opacity="0.33"/>
                  <path id="Trazado_125040" data-name="Trazado 125040" d="M213.382,150.629c.78-1.234,1.543-2.482,2.258-3.763,1.932-3.461,3.714-7.058,5.64-10.495h-6.636c-2.211,0-4,2.323-4,5.19v4.167A5.226,5.226,0,0,0,213.382,150.629Z" transform="translate(-210.641 -136.371)" fill="#fff" opacity="0.33"/>
                </g>
                <g id="Grupo_67490" data-name="Grupo 67490" transform="translate(0)">
                  <rect id="Rectángulo_7570" data-name="Rectángulo 7570" width="14.918" height="14.547" rx="4.234" fill="none" stroke="#0e162e" stroke-miterlimit="10" stroke-width="2.156"/>
                </g>
              </g>
              <g id="Grupo_67493" data-name="Grupo 67493" transform="translate(18.249 0.291)">
                <g id="Grupo_67492" data-name="Grupo 67492">
                  <rect id="Rectángulo_7571" data-name="Rectángulo 7571" width="10.024" height="14.047" rx="3.255" transform="translate(0 0)" fill="#fff" opacity="0.33"/>
                  <path id="Trazado_125041" data-name="Trazado 125041" d="M228.807,149.855q3.409-6.47,6.806-12.95a2.454,2.454,0,0,0-1.073-.264h-3.87c-1.7,0-3.077,1.787-3.077,3.99V146.7A4.453,4.453,0,0,0,228.807,149.855Z" transform="translate(-227.593 -136.641)" fill="#fff" opacity="0.33"/>
                </g>
                <rect id="Rectángulo_7572" data-name="Rectángulo 7572" width="10.024" height="14.047" rx="3.255" transform="translate(0 0)" fill="none" stroke="#0e162e" stroke-miterlimit="10" stroke-width="1.657"/>
              </g>
              <line id="Línea_124" data-name="Línea 124" x2="3.045" transform="translate(14.918 8.58)" fill="none" stroke="#0e162e" stroke-miterlimit="10" stroke-width="2.156"/>
            </g>
            <line id="Línea_125" data-name="Línea 125" x2="22.023" y2="0.3" transform="translate(0 3.486)" fill="none" stroke="#0e162e" stroke-miterlimit="10" stroke-width="2.156"/>
          </g>
        </g>
      </g>
      <g id="Grupo_67503" data-name="Grupo 67503" transform="translate(41.675 278.527)">
        <g id="Grupo_67499" data-name="Grupo 67499" transform="translate(194.329)">
          <g id="Grupo_67498" data-name="Grupo 67498">
            <rect id="Rectángulo_7573" data-name="Rectángulo 7573" width="94.793" height="11.117" transform="translate(0 91.92)" fill="#beb58f"/>
            <path id="Trazado_125042" data-name="Trazado 125042" d="M285.977,348.948q-7.148,5.411-14.067,11.117h41.274V348.948Z" transform="translate(-218.391 -257.028)" fill="#a3135f"/>
            <path id="Trazado_125043" data-name="Trazado 125043" d="M430.94,366.6h-149.4L317.6,263.561H467Z" transform="translate(-217.654 -263.561)" fill="#beb58f"/>
            <line id="Línea_126" data-name="Línea 126" x2="150.154" transform="translate(66.563 91.158)" fill="none" stroke="#fff" stroke-miterlimit="10" stroke-width="1.311"/>
            <path id="Trazado_125044" data-name="Trazado 125044" d="M377.177,314.775a9.38,9.38,0,1,0-9.38,9.381A9.38,9.38,0,0,0,377.177,314.775Z" transform="translate(-211.772 -260.36)" fill="#fff"/>
          </g>
        </g>
        <rect id="Rectángulo_7574" data-name="Rectángulo 7574" width="610" height="16.032" transform="translate(0 101.209)" fill="#e5dec1"/>
        <g id="Grupo_67502" data-name="Grupo 67502" transform="translate(0 14.74)">
          <g id="Grupo_67500" data-name="Grupo 67500" transform="translate(0 36.377)">
            <path id="Trazado_125045" data-name="Trazado 125045" d="M106.38,361.721h0a21.116,21.116,0,0,1-21.116-21.116V311.045h42.23v29.561A21.115,21.115,0,0,1,106.38,361.721Z" transform="translate(-85.264 -311.045)" fill="#ffb701"/>
            <path id="Trazado_125046" data-name="Trazado 125046" d="M101.572,348.8c-8.347-6.061-13.719-14.914-16.308-24.636V339.6a21.116,21.116,0,0,0,21.115,21.116h0a21.013,21.013,0,0,0,14.321-5.631A31.247,31.247,0,0,1,101.572,348.8Z" transform="translate(-85.264 -310.041)" fill="#ffb701" style="mix-blend-mode: multiply;isolation: isolate"/>
            <circle id="Elipse_4805" data-name="Elipse 4805" cx="15.954" cy="15.954" r="15.954" transform="matrix(0.974, -0.227, 0.227, 0.974, 24.479, 9.669)" fill="none" stroke="#ffb701" stroke-miterlimit="10" stroke-width="2.622"/>
          </g>
          <g id="Grupo_67501" data-name="Grupo 67501" transform="translate(8.837)" opacity="0.61">
            <path id="Trazado_125047" data-name="Trazado 125047" d="M103.847,308.043a72.661,72.661,0,0,1-7.616-12.212,22.454,22.454,0,0,1-2.753-9.093c-.1-3.191,1.146-6.58,3.814-8.332,3.959-2.6,9.739-.524,12.285,3.47s2.433,9.186,1.127,13.738-3.676,8.719-5.471,13.1" transform="translate(-93.473 -277.253)" fill="#fff"/>
            <path id="Trazado_125048" data-name="Trazado 125048" d="M110.356,307.029c.789-1.565,1.658-3.218,3.177-4.094s3.873-.523,4.478,1.123c.522,1.422-.548,3.031-1.932,3.646a9.131,9.131,0,0,1-4.48.372" transform="translate(-92.181 -275.324)" fill="#fff"/>
          </g>
        </g>
      </g>
      <g id="Grupo_67522" data-name="Grupo 67522" transform="translate(103.613 68.391)">
        <g id="Grupo_67513" data-name="Grupo 67513" transform="translate(255.105 58.522)">
          <g id="Grupo_67512" data-name="Grupo 67512">
            <g id="Grupo_67505" data-name="Grupo 67505" transform="translate(27.939 51.622)">
              <g id="Grupo_67504" data-name="Grupo 67504">
                <path id="Trazado_125049" data-name="Trazado 125049" d="M417.1,215.176,391.034,170.8a.31.31,0,0,0-.561.182v37.837a.3.3,0,0,0,.166.263,2.088,2.088,0,0,1,.561,3.2.376.376,0,0,1-.077.077,2.061,2.061,0,0,1-3.435-1.5,2.006,2.006,0,0,1,1.055-1.768.322.322,0,0,0,.175-.28V170.986a.31.31,0,0,0-.561-.182L362.2,214.265a.31.31,0,0,0-.01.35l12.926,27.371h29.159l12.833-26.459A.308.308,0,0,0,417.1,215.176Z" transform="translate(-362.141 -170.675)" fill="#122832"/>
              </g>
              <path id="Rectángulo_7575" data-name="Rectángulo 7575" d="M.308,0H29.327a.308.308,0,0,1,.308.308V11.184a1.558,1.558,0,0,1-1.558,1.558H1.558A1.558,1.558,0,0,1,0,11.184V.308A.308.308,0,0,1,.308,0Z" transform="translate(12.737 72.429)" fill="#122832"/>
            </g>
            <g id="Grupo_67511" data-name="Grupo 67511">
              <g id="Grupo_67508" data-name="Grupo 67508" transform="translate(12.482)">
                <g id="Grupo_67506" data-name="Grupo 67506" transform="translate(2.947 2.411)">
                  <path id="Trazado_125050" data-name="Trazado 125050" d="M350.52,124.961A40.179,40.179,0,0,0,390.7,165.14" transform="translate(-350.52 -124.961)" fill="none" stroke="#ffb701" stroke-miterlimit="10" stroke-width="1.497"/>
                  <path id="Trazado_125051" data-name="Trazado 125051" d="M428.023,202.962a40.18,40.18,0,0,0-40.179-40.179" transform="translate(-347.665 -122.068)" fill="none" stroke="#ffb701" stroke-miterlimit="10" stroke-width="1.497"/>
                </g>
                <g id="Grupo_67507" data-name="Grupo 67507">
                  <rect id="Rectángulo_7576" data-name="Rectángulo 7576" width="5.893" height="5.893" fill="#122832"/>
                  <rect id="Rectángulo_7577" data-name="Rectángulo 7577" width="5.893" height="5.893" transform="translate(79.823 79.287)" fill="#122832"/>
                </g>
              </g>
              <g id="Grupo_67510" data-name="Grupo 67510" transform="translate(0 40.447)">
                <line id="Línea_127" data-name="Línea 127" x2="106.074" transform="translate(3.08 2.411)" fill="none" stroke="#ffb701" stroke-miterlimit="10" stroke-width="1.497"/>
                <g id="Grupo_67509" data-name="Grupo 67509">
                  <rect id="Rectángulo_7578" data-name="Rectángulo 7578" width="5.893" height="5.893" transform="translate(52.367)" fill="#122832"/>
                  <rect id="Rectángulo_7579" data-name="Rectángulo 7579" width="5.893" height="5.893" fill="#122832"/>
                  <rect id="Rectángulo_7580" data-name="Rectángulo 7580" width="5.893" height="5.893" transform="translate(105.002)" fill="#122832"/>
                </g>
              </g>
            </g>
          </g>
        </g>
        <g id="Grupo_67514" data-name="Grupo 67514" transform="translate(0 0)">
          <path id="Trazado_125052" data-name="Trazado 125052" d="M107.3,122.669l47.4.49a4.37,4.37,0,0,1,3.918,2.53L162.94,135a.531.531,0,0,0,1.012-.2l.475-11.542.477-46.139a8.172,8.172,0,0,0-8.088-8.256l-48.954-.506A8.172,8.172,0,0,0,99.6,76.446l-.393,37.967A8.173,8.173,0,0,0,107.3,122.669Z" transform="translate(-99.212 -68.359)" fill="#a0a0a0" opacity="0.22" style="mix-blend-mode: multiply;isolation: isolate"/>
          <path id="Rectángulo_7581" data-name="Rectángulo 7581" d="M.555,0H9.427a.556.556,0,0,1,.556.556V16.023a.556.556,0,0,1-.556.556H.556A.556.556,0,0,1,0,16.023V.555A.555.555,0,0,1,.555,0Z" transform="translate(22.585 26.982) rotate(0.591)" fill="#fc1381"/>
          <rect id="Rectángulo_7582" data-name="Rectángulo 7582" width="9.983" height="9.983" rx="0.431" transform="translate(11.324 33.461) rotate(0.593)" fill="#ffb701"/>
          <rect id="Rectángulo_7583" data-name="Rectángulo 7583" width="9.982" height="25.51" rx="0.556" transform="matrix(1, 0.01, -0.01, 1, 33.768, 18.165)" fill="#009fbf"/>
          <rect id="Rectángulo_7584" data-name="Rectángulo 7584" width="9.018" height="32.918" rx="0.888" transform="translate(44.936 10.873) rotate(0.593)" fill="#122832"/>
        </g>
        <g id="Grupo_67521" data-name="Grupo 67521" transform="translate(349.446 154.805)">
          <g id="Grupo_67520" data-name="Grupo 67520" style="mix-blend-mode: multiply;isolation: isolate">
            <g id="Grupo_67515" data-name="Grupo 67515" transform="translate(28.304 5.749)">
              <circle id="Elipse_4806" data-name="Elipse 4806" cx="23.722" cy="23.722" r="23.722" transform="translate(40.676 6.015)" fill="#fc1381" style="mix-blend-mode: multiply;isolation: isolate"/>
              <circle id="Elipse_4807" data-name="Elipse 4807" cx="23.722" cy="23.722" r="23.722" transform="matrix(0.361, -0.933, 0.933, 0.361, 0, 44.241)" fill="#009fbf" style="mix-blend-mode: multiply;isolation: isolate"/>
              <circle id="Elipse_4808" data-name="Elipse 4808" cx="23.722" cy="23.722" r="23.722" transform="translate(20.93 39.997) rotate(-9.282)" fill="#ffb701" style="mix-blend-mode: multiply;isolation: isolate"/>
            </g>
            <g id="Grupo_67519" data-name="Grupo 67519">
              <rect id="Rectángulo_7585" data-name="Rectángulo 7585" width="146.782" height="97.119" transform="translate(1.831 2.317)" fill="none" stroke="#a0a0a0" stroke-miterlimit="10" stroke-width="0.771" stroke-dasharray="5.231"/>
              <g id="Grupo_67518" data-name="Grupo 67518">
                <g id="Grupo_67516" data-name="Grupo 67516">
                  <rect id="Rectángulo_7586" data-name="Rectángulo 7586" width="6.867" height="6.867" fill="#fff" stroke="#222221" stroke-miterlimit="10" stroke-width="1.744"/>
                  <rect id="Rectángulo_7587" data-name="Rectángulo 7587" width="6.867" height="6.867" transform="translate(144.826)" fill="#fff" stroke="#222221" stroke-miterlimit="10" stroke-width="1.744"/>
                </g>
                <g id="Grupo_67517" data-name="Grupo 67517" transform="translate(0 93.95)">
                  <rect id="Rectángulo_7588" data-name="Rectángulo 7588" width="6.867" height="6.867" fill="#fff" stroke="#222221" stroke-miterlimit="10" stroke-width="1.744"/>
                  <rect id="Rectángulo_7589" data-name="Rectángulo 7589" width="6.867" height="6.867" transform="translate(144.826)" fill="#fff" stroke="#222221" stroke-miterlimit="10" stroke-width="1.744"/>
                </g>
              </g>
            </g>
          </g>
          <path id="Trazado_125053" data-name="Trazado 125053" d="M528.588,311.777l-4.578,13.278a1.4,1.4,0,0,1-2.658-.042l-9.083-29.267a1.4,1.4,0,0,1,1.781-1.74l29.3,9.852a1.4,1.4,0,0,1-.024,2.658L529.487,310.9A1.4,1.4,0,0,0,528.588,311.777Z" transform="translate(-417.062 -205.907)" fill="#122832"/>
        </g>
      </g>
      <g id="Grupo_67525" data-name="Grupo 67525" transform="translate(64.138 126.856)">
        <g id="Grupo_67523" data-name="Grupo 67523" transform="translate(445.25 0)">
          <path id="Trazado_125054" data-name="Trazado 125054" d="M493.667,142.479a8.759,8.759,0,1,0-8.769,8.75A8.759,8.759,0,0,0,493.667,142.479Z" transform="translate(-476.149 -121.824)" fill="#009fbf" style="mix-blend-mode: multiply;isolation: isolate"/>
          <rect id="Rectángulo_7590" data-name="Rectángulo 7590" width="36.913" height="21.272" transform="translate(8.782 0) rotate(0.064)" fill="none" stroke="#a0a0a0" stroke-miterlimit="10" stroke-width="0.771" stroke-dasharray="5.231" style="mix-blend-mode: multiply;isolation: isolate"/>
        </g>
        <g id="Grupo_67524" data-name="Grupo 67524" transform="translate(0 65.498)">
          <path id="Trazado_125055" data-name="Trazado 125055" d="M91.372,230.214a6.569,6.569,0,1,0-6.576,6.561A6.568,6.568,0,0,0,91.372,230.214Z" transform="translate(-61.341 -180.442)" fill="#ffb701" style="mix-blend-mode: multiply;isolation: isolate"/>
          <rect id="Rectángulo_7591" data-name="Rectángulo 7591" width="25.338" height="49.739" transform="translate(0.056 0) rotate(0.064)" fill="none" stroke="#a0a0a0" stroke-miterlimit="10" stroke-width="0.771" stroke-dasharray="5.231" style="mix-blend-mode: multiply;isolation: isolate"/>
        </g>
      </g>
    </g>
  </g>
</svg>
