<svg xmlns="http://www.w3.org/2000/svg" width="153" height="153" viewBox="0 0 153 153">
  <g id="Grupo_72394" data-name="Grupo 72394" transform="translate(-436 -1812)">
    <g id="Trazado_127747" data-name="Trazado 127747" transform="translate(436 1812)" fill="#f3f095">
      <path d="M 76.5 151.5 C 66.37439727783203 151.5 56.5524787902832 149.5172271728516 47.30707931518555 145.6067352294922 C 42.86333847045898 143.7272033691406 38.57723999023438 141.4007568359375 34.56784057617188 138.6920623779297 C 30.59613990783691 136.0088348388672 26.86125946044922 132.9272766113281 23.46699905395508 129.5330047607422 C 20.07271957397461 126.1387405395508 16.99115943908691 122.4038619995117 14.30793952941895 118.4321594238281 C 11.59924030303955 114.4227600097656 9.272800445556641 110.1366577148438 7.39326000213623 105.6929168701172 C 3.482779979705811 96.44751739501953 1.5 86.62560272216797 1.5 76.5 C 1.5 66.37439727783203 3.482779979705811 56.5524787902832 7.39326000213623 47.30707931518555 C 9.272800445556641 42.86333847045898 11.59924030303955 38.57723999023438 14.30793952941895 34.56784057617188 C 16.99115943908691 30.59613990783691 20.07271957397461 26.86125946044922 23.46699905395508 23.46699905395508 C 26.86125946044922 20.07271957397461 30.59613990783691 16.99115943908691 34.56784057617188 14.30793952941895 C 38.57723999023438 11.59924030303955 42.86333847045898 9.272800445556641 47.30707931518555 7.39326000213623 C 56.5524787902832 3.482779979705811 66.37439727783203 1.5 76.5 1.5 C 86.62560272216797 1.5 96.44751739501953 3.482779979705811 105.6929168701172 7.39326000213623 C 110.1366577148438 9.272800445556641 114.4227600097656 11.59924030303955 118.4321594238281 14.30793952941895 C 122.4038619995117 16.99115943908691 126.1387405395508 20.07271957397461 129.5330047607422 23.46699905395508 C 132.9272766113281 26.86125946044922 136.0088348388672 30.59613990783691 138.6920623779297 34.56784057617188 C 141.4007568359375 38.57723999023438 143.7272033691406 42.86333847045898 145.6067352294922 47.30707931518555 C 149.5172271728516 56.5524787902832 151.5 66.37439727783203 151.5 76.5 C 151.5 86.62560272216797 149.5172271728516 96.44751739501953 145.6067352294922 105.6929168701172 C 143.7272033691406 110.1366577148438 141.4007568359375 114.4227600097656 138.6920623779297 118.4321594238281 C 136.0088348388672 122.4038619995117 132.9272766113281 126.1387405395508 129.5330047607422 129.5330047607422 C 126.1387405395508 132.9272766113281 122.4038619995117 136.0088348388672 118.4321594238281 138.6920623779297 C 114.4227600097656 141.4007568359375 110.1366577148438 143.7272033691406 105.6929168701172 145.6067352294922 C 96.44751739501953 149.5172271728516 86.62560272216797 151.5 76.5 151.5 Z" stroke="none"/>
      <path d="M 76.5 3 C 66.57624053955078 3 56.95091247558594 4.942916870117188 47.89141082763672 8.774765014648438 C 43.53687286376953 10.61656188964844 39.33669281005859 12.89639282226562 35.40754699707031 15.55087280273438 C 31.51495361328125 18.18064880371094 27.85441589355469 21.20089721679688 24.52764892578125 24.52764892578125 C 21.20089721679688 27.85441589355469 18.18064880371094 31.51495361328125 15.55087280273438 35.40754699707031 C 12.89639282226562 39.33669281005859 10.61656188964844 43.53687286376953 8.774765014648438 47.89141082763672 C 4.942916870117188 56.95091247558594 3 66.57624053955078 3 76.5 C 3 86.42375946044922 4.942916870117188 96.04908752441406 8.774765014648438 105.1085815429688 C 10.61656188964844 109.463134765625 12.89639282226562 113.6632995605469 15.55087280273438 117.5924530029297 C 18.18064880371094 121.4850463867188 21.20089721679688 125.1455841064453 24.52764892578125 128.4723510742188 C 27.85441589355469 131.7991027832031 31.51495361328125 134.8193511962891 35.40754699707031 137.4491271972656 C 39.33669281005859 140.1036071777344 43.53687286376953 142.3834381103516 47.89141082763672 144.2252349853516 C 56.95091247558594 148.0570831298828 66.57624053955078 150 76.5 150 C 86.42375946044922 150 96.04908752441406 148.0570831298828 105.1085815429688 144.2252349853516 C 109.463134765625 142.3834381103516 113.6632995605469 140.1036071777344 117.5924530029297 137.4491271972656 C 121.4850463867188 134.8193511962891 125.1455841064453 131.7991027832031 128.4723510742188 128.4723510742188 C 131.7991027832031 125.1455841064453 134.8193511962891 121.4850463867188 137.4491271972656 117.5924530029297 C 140.1036071777344 113.6632995605469 142.3834381103516 109.463134765625 144.2252349853516 105.1085815429688 C 148.0570831298828 96.04908752441406 150 86.42375946044922 150 76.5 C 150 66.57624053955078 148.0570831298828 56.95091247558594 144.2252349853516 47.89141082763672 C 142.3834381103516 43.53687286376953 140.1036071777344 39.33669281005859 137.4491271972656 35.40754699707031 C 134.8193511962891 31.51495361328125 131.7991027832031 27.85441589355469 128.4723510742188 24.52764892578125 C 125.1455841064453 21.20089721679688 121.4850463867188 18.18064880371094 117.5924530029297 15.55087280273438 C 113.6632995605469 12.89639282226562 109.463134765625 10.61656188964844 105.1085815429688 8.774765014648438 C 96.04908752441406 4.942916870117188 86.42375946044922 3 76.5 3 M 76.5 0 C 118.7497863769531 0 153 34.25021362304688 153 76.5 C 153 118.7497863769531 118.7497863769531 153 76.5 153 C 34.25021362304688 153 0 118.7497863769531 0 76.5 C 0 34.25021362304688 34.25021362304688 0 76.5 0 Z" stroke="none" fill="#fff"/>
    </g>
    <g id="Grupo_68502" data-name="Grupo 68502" transform="translate(6 -379)">
      <g id="Grupo_68501" data-name="Grupo 68501" transform="translate(10 -15)">
        <g id="Grupo_68495" data-name="Grupo 68495" transform="translate(-1 -245)">
          <g id="Rect치ngulo_7658" data-name="Rect치ngulo 7658" transform="translate(459 2487.387)" fill="#529ad9" stroke="#fff" stroke-width="2">
            <rect width="77" height="77" rx="38.5" stroke="none"/>
            <rect x="1" y="1" width="75" height="75" rx="37.5" fill="none"/>
          </g>
          <g id="Grupo_68014" data-name="Grupo 68014" transform="translate(111 1165.387)">
            <g id="Elipse_4859" data-name="Elipse 4859" transform="translate(367 1303)" fill="#fff" stroke="#494b0f" stroke-width="2">
              <circle cx="19" cy="19" r="19" stroke="none"/>
              <circle cx="19" cy="19" r="18" fill="none"/>
            </g>
          </g>
          <g id="filosofia" transform="translate(468.633 2515.613)">
            <path id="Trazado_127601" data-name="Trazado 127601" d="M133.111,15.621a3.219,3.219,0,1,1-6.438,0,8.048,8.048,0,0,0-16.1,0h4.828a3.219,3.219,0,0,1,6.438,0,8.047,8.047,0,1,0,16.095,0Zm0,0" transform="translate(-95.892 -6.568)" fill="#8db0ff"/>
            <path id="Trazado_127602" data-name="Trazado 127602" d="M256.042,68.164a8.058,8.058,0,0,1-7.108,7.991,8.034,8.034,0,0,0,8.986-7.991Zm0,0" transform="translate(-215.872 -59.111)" fill="#669af7"/>
            <path id="Trazado_127603" data-name="Trazado 127603" d="M189.28,24.348a3.224,3.224,0,0,1-1.982-2.972,8.054,8.054,0,0,0-4.393-7.166,10.456,10.456,0,0,0-2.418,4.194,3.223,3.223,0,0,1,1.982,2.971,8.054,8.054,0,0,0,4.393,7.166A10.472,10.472,0,0,0,189.28,24.348Zm0,0" transform="translate(-156.517 -12.324)" fill="#669af7"/>
            <path id="Trazado_127604" data-name="Trazado 127604" d="M26.888,355.977l-11.456,3.182A10.73,10.73,0,0,0,7.574,369.5v6.2H62.3v-6.2a10.73,10.73,0,0,0-7.858-10.339l-11.456-3.182Zm0,0" transform="translate(-6.568 -308.698)" fill="#e5dec1"/>
            <path id="Trazado_127605" data-name="Trazado 127605" d="M338.046,373.718l-3.429-.953a10.73,10.73,0,0,1,6.458,9.841v7.645H345.9v-6.2A10.729,10.729,0,0,0,338.046,373.718Zm0,0" transform="translate(-290.176 -323.258)" fill="#c3aea0"/>
            <path id="Trazado_127606" data-name="Trazado 127606" d="M154.085,365.1a9.129,9.129,0,0,0,9.113-8.825l-1.065-.3H146.038l-1.066.3A9.13,9.13,0,0,0,154.085,365.1Zm0,0" transform="translate(-125.718 -308.698)" fill="#fff"/>
            <path id="Trazado_127607" data-name="Trazado 127607" d="M186.887,321.641v4.56a4.828,4.828,0,1,1-9.657,0v-4.56Zm0,0" transform="translate(-153.692 -278.923)" fill="#f9b3a7"/>
            <path id="Trazado_127608" data-name="Trazado 127608" d="M129.892,7.574a8.056,8.056,0,0,0-8.047,8.047,3.219,3.219,0,0,1-6.438,0h-4.828a8.048,8.048,0,0,0,16.1,0,3.219,3.219,0,0,1,6.438,0h4.828A8.057,8.057,0,0,0,129.892,7.574Zm0,0" transform="translate(-95.892 -6.568)" fill="#8db0ff"/>
            <path id="Trazado_127609" data-name="Trazado 127609" d="M308.516,160.063H312v4.426h-3.487Zm0,0" transform="translate(-267.541 -138.804)" fill="#ffd664"/>
            <path id="Trazado_127610" data-name="Trazado 127610" d="M92.4,160.063H95.89v4.426H92.4Zm0,0" transform="translate(-80.13 -138.804)" fill="#ffd664"/>
            <path id="Trazado_127611" data-name="Trazado 127611" d="M86,200.63h2.683v-7.243H86a2.682,2.682,0,0,0-2.682,2.683v1.878A2.682,2.682,0,0,0,86,200.63Zm0,0" transform="translate(-72.251 -167.703)" fill="#feccc1"/>
            <path id="Trazado_127612" data-name="Trazado 127612" d="M306.147,200.63h-2.682v-7.243h2.682a2.683,2.683,0,0,1,2.683,2.683v1.878A2.683,2.683,0,0,1,306.147,200.63Zm0,0" transform="translate(-263.161 -167.703)" fill="#f9b3a7"/>
            <path id="Trazado_127613" data-name="Trazado 127613" d="M131.267,160.063H118.66v9.657a12.608,12.608,0,0,0,25.215,0v-9.657Zm0,0" transform="translate(-102.901 -138.804)" fill="#feccc1"/>
            <path id="Trazado_127614" data-name="Trazado 127614" d="M210.179,160.063v9.657a12.61,12.61,0,0,1-10.73,12.468,12.617,12.617,0,0,0,14.485-12.468v-9.657Zm0,0" transform="translate(-172.96 -138.804)" fill="#f9b3a7"/>
            <path id="Trazado_127615" data-name="Trazado 127615" d="M249.872,7.574a8.125,8.125,0,0,0-.939.057,8.057,8.057,0,0,1,7.108,7.991h1.878A8.057,8.057,0,0,0,249.872,7.574Zm0,0" transform="translate(-215.872 -6.568)" fill="#669af7"/>
            <path id="Trazado_127616" data-name="Trazado 127616" d="M48.139,181.731l-11.455-3.183a1.013,1.013,0,0,0-.27-.037H34.2v-3.059a13.667,13.667,0,0,0,7.442-9.28h1.343a3.693,3.693,0,0,0,3.689-3.688v-1.878a3.678,3.678,0,0,0-1.207-2.726V153.5a1.006,1.006,0,0,0-1.006-1.006H23.469a1.006,1.006,0,1,0,0,2.012h16.5v8.65a11.6,11.6,0,1,1-23.2,0V154.5h2.012a1.006,1.006,0,0,0,0-2.012H12.272a1.006,1.006,0,0,0-1.006,1.006v4.382a3.68,3.68,0,0,0-1.207,2.726v1.878a3.692,3.692,0,0,0,3.688,3.688h1.344a13.665,13.665,0,0,0,7.441,9.28v3.059H20.32a1.007,1.007,0,0,0-.27.037L8.595,181.731A11.768,11.768,0,0,0,0,193.038v.243a1.006,1.006,0,0,0,2.012,0v-.243a9.751,9.751,0,0,1,7.122-9.369L18.37,181.1a10.122,10.122,0,0,0,19.993,0l9.237,2.566a9.751,9.751,0,0,1,7.121,9.369v.243a1.006,1.006,0,0,0,2.012,0v-.243A11.768,11.768,0,0,0,48.139,181.731Zm-3.476-19.247a1.679,1.679,0,0,1-1.677,1.677H41.943q.037-.5.037-1.006v-4.225h1.005a1.679,1.679,0,0,1,1.677,1.677Zm-1.207-5.535a3.691,3.691,0,0,0-.47-.031H41.98V154.5h1.475ZM13.278,154.5h1.475v2.414H13.748a3.691,3.691,0,0,0-.47.031Zm.47,9.657a1.678,1.678,0,0,1-1.676-1.677v-1.878a1.678,1.678,0,0,1,1.676-1.676h1.006v4.225q0,.507.037,1.006Zm14.619,12.607a13.577,13.577,0,0,0,3.823-.547v3.3a3.823,3.823,0,0,1-7.645,0v-3.3A13.58,13.58,0,0,0,28.367,176.768Zm8.046,3.793a8.112,8.112,0,0,1-16.091,0l.135-.038h2.164a5.833,5.833,0,0,0,11.491,0h2.164Zm0,0" transform="translate(0 -132.239)"/>
            <path id="Trazado_127617" data-name="Trazado 127617" d="M55.728,463.21a1.006,1.006,0,0,0-1.006,1.006v.234H46v-3.956a1.006,1.006,0,1,0-2.012,0v3.956H12.742v-3.956a1.006,1.006,0,1,0-2.012,0v3.956H2.012v-.234a1.006,1.006,0,0,0-2.012,0v1.24a1.006,1.006,0,0,0,1.006,1.006H55.728a1.006,1.006,0,0,0,1.006-1.006v-1.24A1.006,1.006,0,0,0,55.728,463.21Zm0,0" transform="translate(0 -398.462)"/>
            <path id="Trazado_127618" data-name="Trazado 127618" d="M112.061,18.107a9.008,9.008,0,0,0,5.631-1.972A9.052,9.052,0,1,0,123.327,0,9.005,9.005,0,0,0,117.7,1.972a9.052,9.052,0,1,0-5.635,16.134Zm0-16.095a6.987,6.987,0,0,1,4.2,1.393,9.053,9.053,0,0,0-1.411,2.477,4.222,4.222,0,1,0,1.438,3.171,7.051,7.051,0,1,1,2.843,5.648,9.056,9.056,0,0,0,1.411-2.477A4.222,4.222,0,1,0,119.1,9.053a7.041,7.041,0,1,1-7.042-7.041Zm2.213,7.041a2.213,2.213,0,1,1-2.213-2.213A2.216,2.216,0,0,1,114.274,9.053Zm6.84,0a2.213,2.213,0,1,1,2.213,2.213A2.215,2.215,0,0,1,121.114,9.053Zm0,0" transform="translate(-89.327)"/>
          </g>
          <path id="Trazado_130605" data-name="Trazado 130605" d="M8.164,0h-3.3V-10.508l-3.242.947v-2.5l6.24-2.158h.3Z" transform="translate(491 2494)" fill="#12263f"/>
        </g>
      </g>
      <rect id="Rect치ngulo_7800" data-name="Rect치ngulo 7800" width="96" height="124" transform="translate(458 2204)" fill="none"/>
    </g>
  </g>
</svg>
