<svg xmlns="http://www.w3.org/2000/svg" width="153" height="153" viewBox="0 0 153 153">
  <g id="Grupo_72398" data-name="Grupo 72398" transform="translate(-1105 -1812)">
    <g id="Trazado_127749" data-name="Trazado 127749" transform="translate(1105 1812)" fill="#f3f095">
      <path d="M 76.5 151.5 C 66.37439727783203 151.5 56.5524787902832 149.5172271728516 47.30707931518555 145.6067352294922 C 42.86333847045898 143.7272033691406 38.57723999023438 141.4007568359375 34.56784057617188 138.6920623779297 C 30.59613990783691 136.0088348388672 26.86125946044922 132.9272766113281 23.46699905395508 129.5330047607422 C 20.07271957397461 126.1387405395508 16.99115943908691 122.4038619995117 14.30793952941895 118.4321594238281 C 11.59924030303955 114.4227600097656 9.272800445556641 110.1366577148438 7.39326000213623 105.6929168701172 C 3.482779979705811 96.44751739501953 1.5 86.62560272216797 1.5 76.5 C 1.5 66.37439727783203 3.482779979705811 56.5524787902832 7.39326000213623 47.30707931518555 C 9.272800445556641 42.86333847045898 11.59924030303955 38.57723999023438 14.30793952941895 34.56784057617188 C 16.99115943908691 30.59613990783691 20.07271957397461 26.86125946044922 23.46699905395508 23.46699905395508 C 26.86125946044922 20.07271957397461 30.59613990783691 16.99115943908691 34.56784057617188 14.30793952941895 C 38.57723999023438 11.59924030303955 42.86333847045898 9.272800445556641 47.30707931518555 7.39326000213623 C 56.5524787902832 3.482779979705811 66.37439727783203 1.5 76.5 1.5 C 86.62560272216797 1.5 96.44751739501953 3.482779979705811 105.6929168701172 7.39326000213623 C 110.1366577148438 9.272800445556641 114.4227600097656 11.59924030303955 118.4321594238281 14.30793952941895 C 122.4038619995117 16.99115943908691 126.1387405395508 20.07271957397461 129.5330047607422 23.46699905395508 C 132.9272766113281 26.86125946044922 136.0088348388672 30.59613990783691 138.6920623779297 34.56784057617188 C 141.4007568359375 38.57723999023438 143.7272033691406 42.86333847045898 145.6067352294922 47.30707931518555 C 149.5172271728516 56.5524787902832 151.5 66.37439727783203 151.5 76.5 C 151.5 86.62560272216797 149.5172271728516 96.44751739501953 145.6067352294922 105.6929168701172 C 143.7272033691406 110.1366577148438 141.4007568359375 114.4227600097656 138.6920623779297 118.4321594238281 C 136.0088348388672 122.4038619995117 132.9272766113281 126.1387405395508 129.5330047607422 129.5330047607422 C 126.1387405395508 132.9272766113281 122.4038619995117 136.0088348388672 118.4321594238281 138.6920623779297 C 114.4227600097656 141.4007568359375 110.1366577148438 143.7272033691406 105.6929168701172 145.6067352294922 C 96.44751739501953 149.5172271728516 86.62560272216797 151.5 76.5 151.5 Z" stroke="none"/>
      <path d="M 76.5 3 C 66.57624053955078 3 56.95091247558594 4.942916870117188 47.89141082763672 8.774765014648438 C 43.53687286376953 10.61656188964844 39.33669281005859 12.89639282226562 35.40754699707031 15.55087280273438 C 31.51495361328125 18.18064880371094 27.85441589355469 21.20089721679688 24.52764892578125 24.52764892578125 C 21.20089721679688 27.85441589355469 18.18064880371094 31.51495361328125 15.55087280273438 35.40754699707031 C 12.89639282226562 39.33669281005859 10.61656188964844 43.53687286376953 8.774765014648438 47.89141082763672 C 4.942916870117188 56.95091247558594 3 66.57624053955078 3 76.5 C 3 86.42375946044922 4.942916870117188 96.04908752441406 8.774765014648438 105.1085815429688 C 10.61656188964844 109.463134765625 12.89639282226562 113.6632995605469 15.55087280273438 117.5924530029297 C 18.18064880371094 121.4850463867188 21.20089721679688 125.1455841064453 24.52764892578125 128.4723510742188 C 27.85441589355469 131.7991027832031 31.51495361328125 134.8193511962891 35.40754699707031 137.4491271972656 C 39.33669281005859 140.1036071777344 43.53687286376953 142.3834381103516 47.89141082763672 144.2252349853516 C 56.95091247558594 148.0570831298828 66.57624053955078 150 76.5 150 C 86.42375946044922 150 96.04908752441406 148.0570831298828 105.1085815429688 144.2252349853516 C 109.463134765625 142.3834381103516 113.6632995605469 140.1036071777344 117.5924530029297 137.4491271972656 C 121.4850463867188 134.8193511962891 125.1455841064453 131.7991027832031 128.4723510742188 128.4723510742188 C 131.7991027832031 125.1455841064453 134.8193511962891 121.4850463867188 137.4491271972656 117.5924530029297 C 140.1036071777344 113.6632995605469 142.3834381103516 109.463134765625 144.2252349853516 105.1085815429688 C 148.0570831298828 96.04908752441406 150 86.42375946044922 150 76.5 C 150 66.57624053955078 148.0570831298828 56.95091247558594 144.2252349853516 47.89141082763672 C 142.3834381103516 43.53687286376953 140.1036071777344 39.33669281005859 137.4491271972656 35.40754699707031 C 134.8193511962891 31.51495361328125 131.7991027832031 27.85441589355469 128.4723510742188 24.52764892578125 C 125.1455841064453 21.20089721679688 121.4850463867188 18.18064880371094 117.5924530029297 15.55087280273438 C 113.6632995605469 12.89639282226562 109.463134765625 10.61656188964844 105.1085815429688 8.774765014648438 C 96.04908752441406 4.942916870117188 86.42375946044922 3 76.5 3 M 76.5 0 C 118.7497863769531 0 153 34.25021362304688 153 76.5 C 153 118.7497863769531 118.7497863769531 153 76.5 153 C 34.25021362304688 153 0 118.7497863769531 0 76.5 C 0 34.25021362304688 34.25021362304688 0 76.5 0 Z" stroke="none" fill="#fff"/>
    </g>
    <g id="Grupo_68500" data-name="Grupo 68500" transform="translate(72 -622)">
      <g id="Grupo_68491" data-name="Grupo 68491" transform="translate(149 -22)">
        <g id="Rect치ngulo_7794" data-name="Rect치ngulo 7794" transform="translate(924 2487.387)" fill="#529ad9" stroke="#fff" stroke-width="2">
          <rect width="77" height="77" rx="38.5" stroke="none"/>
          <rect x="1" y="1" width="75" height="75" rx="37.5" fill="none"/>
        </g>
        <g id="Grupo_68490" data-name="Grupo 68490" transform="translate(576 1165.387)">
          <g id="Elipse_4859" data-name="Elipse 4859" transform="translate(367 1303)" fill="#fff" stroke="#494b0f" stroke-width="2">
            <circle cx="19" cy="19" r="19" stroke="none"/>
            <circle cx="19" cy="19" r="18" fill="none"/>
          </g>
        </g>
        <text id="_5" data-name="5" transform="translate(957 2494)" fill="#12263f" font-size="20" font-family="Roboto-Black, Roboto" font-weight="800"><tspan x="0" y="0">5</tspan></text>
        <g id="medios-de-comunicacion-social" transform="translate(931.885 2520.047)">
          <g id="Grupo_68488" data-name="Grupo 68488" transform="translate(2.01 2.01)">
            <g id="Grupo_68476" data-name="Grupo 68476" transform="translate(2.02 30.3)">
              <path id="Trazado_127700" data-name="Trazado 127700" d="M24.2,56.24v4.686a1.377,1.377,0,0,1-2.434.879L17.13,56.24H6.02A2.026,2.026,0,0,1,4,54.22V34.02A2.026,2.026,0,0,1,6.02,32H16.453l1.273,1.525a1.377,1.377,0,0,0,2.434-.879V32h8.08v2.02a2.026,2.026,0,0,0,2.02,2.02h8.08V54.22a2.026,2.026,0,0,1-2.02,2.02Z" transform="translate(-4 -32)" fill="#e6e9ed"/>
            </g>
            <g id="Grupo_68477" data-name="Grupo 68477" transform="translate(26.26 8.08)">
              <path id="Trazado_127701" data-name="Trazado 127701" d="M30.02,28.18a2.026,2.026,0,0,0,2.02-2.02V10H60.32a2.026,2.026,0,0,1,2.02,2.02V34.24a2.026,2.026,0,0,1-2.02,2.02H49.21l-4.636,5.565a1.377,1.377,0,0,1-2.434-.879V36.26H30.02A2.026,2.026,0,0,1,28,34.24V28.18Z" transform="translate(-28 -10)" fill="#ffeaa7"/>
            </g>
            <g id="Grupo_68478" data-name="Grupo 68478" transform="translate(0)">
              <path id="Trazado_127702" data-name="Trazado 127702" d="M32.3,10.08V26.24a2.026,2.026,0,0,1-2.02,2.02H20.18v4.686a1.377,1.377,0,0,1-2.434.879L16.473,32.3,13.11,28.26H4.02A2.026,2.026,0,0,1,2,26.24V4.02A2.026,2.026,0,0,1,4.02,2H30.28A2.026,2.026,0,0,1,32.3,4.02Z" transform="translate(-2 -2)" fill="#f0d0b4"/>
            </g>
            <g id="Grupo_68479" data-name="Grupo 68479" transform="translate(6.06 44.44)">
              <path id="Trazado_127703" data-name="Trazado 127703" d="M16.11,47.04A5.59,5.59,0,0,0,15.525,49l-.454,4.07H8V51.05A5.052,5.052,0,0,1,13.05,46a4.976,4.976,0,0,1,3.06,1.04Z" transform="translate(-8 -46)" fill="#b4dd7f"/>
            </g>
            <g id="Grupo_68480" data-name="Grupo 68480" transform="translate(24.21 44.44)">
              <path id="Trazado_127704" data-name="Trazado 127704" d="M34.08,51.05v2.02H27.01L26.556,49a5.59,5.59,0,0,0-.586-1.959A4.976,4.976,0,0,1,29.03,46a5.035,5.035,0,0,1,5.05,5.05Z" transform="translate(-25.97 -46)" fill="#b4dd7f"/>
            </g>
            <g id="Grupo_68481" data-name="Grupo 68481" transform="translate(13.13 42.42)">
              <path id="Trazado_127705" data-name="Trazado 127705" d="M26.666,49.02l.455,4.07H15l.455-4.07A5.624,5.624,0,0,1,21.06,44a5.681,5.681,0,0,1,3.767,1.434A5.982,5.982,0,0,1,26.08,47.06,5.59,5.59,0,0,1,26.666,49.02Z" transform="translate(-15 -44)" fill="#fcd770"/>
            </g>
            <g id="Grupo_68482" data-name="Grupo 68482" transform="translate(24.017 38.198)">
              <circle id="Elipse_4894" data-name="Elipse 4894" cx="3.229" cy="3.229" r="3.229" transform="translate(0 0)" fill="#f0d0b4"/>
            </g>
            <g id="Grupo_68483" data-name="Grupo 68483" transform="translate(15.944 36.584)">
              <ellipse id="Elipse_4895" data-name="Elipse 4895" cx="3.229" cy="2.826" rx="3.229" ry="2.826" transform="translate(0 0)" fill="#f0d0b4"/>
            </g>
            <g id="Grupo_68484" data-name="Grupo 68484" transform="translate(7.87 38.198)">
              <circle id="Elipse_4896" data-name="Elipse 4896" cx="3.229" cy="3.229" r="3.229" transform="translate(0 0)" fill="#f0d0b4"/>
            </g>
            <g id="Grupo_68485" data-name="Grupo 68485" transform="translate(6.06 6.06)">
              <path id="Trazado_127706" data-name="Trazado 127706" d="M26.18,13.292v.162a5.88,5.88,0,0,1-1.959,4.373L17.09,24.16,9.959,17.827A5.88,5.88,0,0,1,8,13.454v-.162A5.475,5.475,0,0,1,9.606,9.424a4.877,4.877,0,0,1,6.888,0l.6.6.6-.6a4.877,4.877,0,0,1,6.888,0A5.475,5.475,0,0,1,26.18,13.292Z" transform="translate(-8 -8)" fill="#ff826e"/>
            </g>
            <g id="Grupo_68486" data-name="Grupo 68486" transform="translate(34.34 18.18)">
              <path id="Trazado_127707" data-name="Trazado 127707" d="M42.06,30.1v1.01a1.013,1.013,0,0,1-1.01,1.01H37.01A1.013,1.013,0,0,1,36,31.11V21.01A1.013,1.013,0,0,1,37.01,20h4.04a1.013,1.013,0,0,1,1.01,1.01Z" transform="translate(-36 -20)" fill="#b4dd7f"/>
            </g>
            <g id="Grupo_68487" data-name="Grupo 68487" transform="translate(40.4 12.12)">
              <path id="Trazado_127708" data-name="Trazado 127708" d="M56.14,23.09v6.06a3.026,3.026,0,0,1-3.03,3.03H48.676A12.063,12.063,0,0,1,42,30.16V21.07l1.2-1.2a9.379,9.379,0,0,0,2.454-4.343A2.011,2.011,0,0,1,47.616,14a2.939,2.939,0,0,1,2.9,3.424L50.08,20.06h3.03a3.026,3.026,0,0,1,3.03,3.03Z" transform="translate(-42 -14)" fill="#f0d0b4"/>
            </g>
          </g>
          <g id="Grupo_68489" data-name="Grupo 68489" transform="translate(1 1)">
            <path id="Trazado_127709" data-name="Trazado 127709" d="M27.2,13.463V13.3a6.434,6.434,0,0,0-1.9-4.58A5.887,5.887,0,0,0,17.1,8.6a5.887,5.887,0,0,0-8.2.119A6.434,6.434,0,0,0,7,13.3v.159a6.864,6.864,0,0,0,2.3,5.126l7.8,6.933,7.8-6.932a6.862,6.862,0,0,0,2.3-5.127ZM17.1,22.819,10.644,17.08A4.841,4.841,0,0,1,9.02,13.463V13.3a4.428,4.428,0,0,1,1.306-3.152,3.867,3.867,0,0,1,5.468,0L17.1,11.458l1.306-1.306a3.962,3.962,0,0,1,5.468,0A4.428,4.428,0,0,1,25.18,13.3v.159a4.843,4.843,0,0,1-1.624,3.617Z" transform="translate(-0.94 -0.94)"/>
            <path id="Trazado_127710" data-name="Trazado 127710" d="M60.59,9.08H33.32V4.03A3.034,3.034,0,0,0,30.29,1H4.03A3.034,3.034,0,0,0,1,4.03V26.25a3.034,3.034,0,0,0,3.03,3.03h8.617l1.684,2.02H6.05a3.034,3.034,0,0,0-3.03,3.03v20.2a3.034,3.034,0,0,0,3.03,3.03H16.687l4.335,5.2a2.385,2.385,0,0,0,4.218-1.527V57.56H36.35a3.034,3.034,0,0,0,3.03-3.03V37.36H41.4v3.674a2.385,2.385,0,0,0,4.218,1.527l4.335-5.2H60.59a3.034,3.034,0,0,0,3.03-3.03V12.11a3.034,3.034,0,0,0-3.03-3.03Zm-47,18.18H4.03a1.011,1.011,0,0,1-1.01-1.01V4.03A1.011,1.011,0,0,1,4.03,3.02H30.29A1.011,1.011,0,0,1,31.3,4.03V26.25a1.011,1.011,0,0,1-1.01,1.01H19.18v5.694a.378.378,0,0,1-.646.233ZM27.26,29.28V31.3H21.2V29.28Zm10.1,25.25a1.011,1.011,0,0,1-1.01,1.01H23.22v5.694a.378.378,0,0,1-.646.233L17.633,55.54H6.05a1.011,1.011,0,0,1-1.01-1.01V34.33a1.011,1.011,0,0,1,1.01-1.01h9.964l.969,1.161a2.378,2.378,0,0,0,4.18-1.161h6.1v1.01a3.034,3.034,0,0,0,3.03,3.03h7.07ZM61.6,34.33a1.011,1.011,0,0,1-1.01,1.01H49.007l-4.941,5.928a.379.379,0,0,1-.646-.233V35.34H30.29a1.011,1.011,0,0,1-1.01-1.01V29.28h1.01a3.034,3.034,0,0,0,3.03-3.03V11.1H60.59a1.011,1.011,0,0,1,1.01,1.01Z" transform="translate(-1 -1)"/>
            <path id="Trazado_127711" data-name="Trazado 127711" d="M25.18,43.06a4,4,0,0,0,.374,1.674,6.664,6.664,0,0,0-1.444-.977,4.04,4.04,0,1,0-5.939,0,6.664,6.664,0,0,0-1.444.977A4,4,0,0,0,17.1,43.06a4.04,4.04,0,1,0-6.962,2.774A6.063,6.063,0,0,0,7,51.14v2.02H9.02V51.14a4.032,4.032,0,0,1,5.842-3.611,6.719,6.719,0,0,0-.333,1.448l-.452,4.07,2.007.223.452-4.07a4.633,4.633,0,0,1,9.209,0l.452,4.07,2.007-.223-.452-4.07a6.66,6.66,0,0,0-.333-1.448A4.032,4.032,0,0,1,33.26,51.14v2.02h2.02V51.14a6.063,6.063,0,0,0-3.138-5.306A4.036,4.036,0,1,0,25.18,43.06ZM13.06,45.08a2.02,2.02,0,1,1,2.02-2.02A2.022,2.022,0,0,1,13.06,45.08Zm8.08-2.02a2.02,2.02,0,1,1,2.02-2.02A2.022,2.022,0,0,1,21.14,43.06Zm10.1,0a2.02,2.02,0,1,1-2.02-2.02A2.022,2.022,0,0,1,31.24,43.06Z" transform="translate(-0.94 -0.64)"/>
            <path id="Trazado_127712" data-name="Trazado 127712" d="M53.18,19.06H51.342l.243-1.458a3.952,3.952,0,0,0-3.9-4.6,3.028,3.028,0,0,0-2.94,2.295,8.332,8.332,0,0,1-2.191,3.87l-.3.3a2.005,2.005,0,0,0-1.2-.4H37.02A2.022,2.022,0,0,0,35,21.08v10.1a2.022,2.022,0,0,0,2.02,2.02h4.04a2.016,2.016,0,0,0,1.9-1.359A12.984,12.984,0,0,0,48.741,33.2H53.18a4.044,4.044,0,0,0,4.04-4.04V23.1A4.044,4.044,0,0,0,53.18,19.06ZM37.02,31.18V21.08h4.04v10.1ZM55.2,29.16a2.022,2.022,0,0,1-2.02,2.02H48.741a10.975,10.975,0,0,1-5.661-1.574V21.5l.9-.9a10.353,10.353,0,0,0,2.723-4.809,1.008,1.008,0,0,1,.98-.765,1.932,1.932,0,0,1,1.9,2.25l-.634,3.81H53.18A2.022,2.022,0,0,1,55.2,23.1Z" transform="translate(-0.66 -0.88)"/>
          </g>
        </g>
      </g>
      <rect id="Rect치ngulo_7799" data-name="Rect치ngulo 7799" width="96" height="124" transform="translate(1060 2442)" fill="none"/>
    </g>
  </g>
</svg>
