<svg xmlns="http://www.w3.org/2000/svg" width="159" height="147" viewBox="0 0 159 147">
  <g id="Grupo_67714" data-name="Grupo 67714" transform="translate(-721 -3609)">
    <rect id="Rectángulo_7596" data-name="Rectángulo 7596" width="159" height="147" rx="14" transform="translate(721 3609)" fill="#fff"/>
    <g id="Grupo_67537" data-name="Grupo 67537" transform="translate(739 3625)">
      <path id="Trazado_125056" data-name="Trazado 125056" d="M123.824,52.028v62.356a4.832,4.832,0,0,1-4.83,4.83H89.861v-56A6.355,6.355,0,0,0,83.5,56.858H32.491a6.354,6.354,0,0,1,6.352,6.352.782.782,0,0,1,0-.106v56.11H9.71a4.832,4.832,0,0,1-4.83-4.83V52.028a4.834,4.834,0,0,1,4.83-4.833H118.994a4.834,4.834,0,0,1,4.83,4.833Z" transform="translate(-3.672 -26.89)" fill="#529ad9"/>
      <path id="Trazado_125057" data-name="Trazado 125057" d="M112.409,70.455v56h-2.9v-56a6.355,6.355,0,0,0-6.357-6.352H52.14a6.354,6.354,0,0,1,6.352,6.352.782.782,0,0,1,0-.106v56.11H55.6V82.579H45.305a2.413,2.413,0,0,1-2.415-2.415V70.45a9.251,9.251,0,0,1,9.25-9.25h51.014A9.256,9.256,0,0,1,112.409,70.455Z" transform="translate(-23.322 -34.13)" fill="#4ba5c8"/>
      <path id="Trazado_125058" data-name="Trazado 125058" d="M126.514,12.908V26.757h-6.822V14.482H91V26.757H84.176V12.908A5.248,5.248,0,0,1,89.424,7.66h31.843A5.248,5.248,0,0,1,126.514,12.908Z" transform="translate(-44.665 -6.452)" fill="#fc5d3d"/>
      <path id="Trazado_125059" data-name="Trazado 125059" d="M42.517,33.16H32.735a2.415,2.415,0,0,0-2.415,2.415v4.364H44.932V35.575A2.415,2.415,0,0,0,42.517,33.16Z" transform="translate(-16.824 -19.635)" fill="#7d7b79"/>
      <path id="Trazado_125060" data-name="Trazado 125060" d="M207.627,33.16h-9.782a2.415,2.415,0,0,0-2.415,2.415v4.364h14.612V35.575A2.415,2.415,0,0,0,207.627,33.16Z" transform="translate(-102.179 -19.635)" fill="#7d7b79"/>
      <g id="Grupo_67527" data-name="Grupo 67527" transform="translate(22.464 29.968)">
        <path id="Trazado_125061" data-name="Trazado 125061" d="M145.721,212.82v9.226a6.355,6.355,0,0,1-6.352,6.357H88.36a6.354,6.354,0,0,0,6.352-6.352V212.82Z" transform="translate(-69.292 -142.48)" fill="#efefef"/>
        <path id="Trazado_125062" data-name="Trazado 125062" d="M119.411,73.552V137.54H81.106v9.231a6.354,6.354,0,0,1-6.352,6.352h0a6.363,6.363,0,0,1-6.352-6.352V73.446a.783.783,0,0,0,0,.106A6.354,6.354,0,0,0,62.04,67.2h51.014a6.355,6.355,0,0,1,6.357,6.352Z" transform="translate(-55.686 -67.2)" fill="#efefef"/>
        <path id="Trazado_125063" data-name="Trazado 125063" d="M61.6,73.445v9.336H48.886V73.554a6.354,6.354,0,1,1,12.708,0C61.594,73.518,61.594,73.481,61.6,73.445Z" transform="translate(-48.886 -67.2)" fill="#efefef"/>
      </g>
      <g id="Grupo_67536" data-name="Grupo 67536">
        <g id="Grupo_67528" data-name="Grupo 67528" transform="translate(6.497 85.803)">
          <path id="Trazado_125064" data-name="Trazado 125064" d="M38.151,185.205H17.038a1.208,1.208,0,0,1,0-2.415H38.151a1.208,1.208,0,0,1,0,2.415Z" transform="translate(-15.83 -182.79)" fill="#c5e5fe"/>
        </g>
        <g id="Grupo_67529" data-name="Grupo 67529" transform="translate(92.043 24.413)">
          <path id="Trazado_125065" data-name="Trazado 125065" d="M215.725,119.5H194.138a1.208,1.208,0,0,1,0-2.415h20.38V56.908a1.208,1.208,0,1,1,2.415,0V118.3A1.207,1.207,0,0,1,215.725,119.5Z" transform="translate(-192.93 -55.7)" fill="#c5e5fe"/>
        </g>
        <g id="Grupo_67535" data-name="Grupo 67535" transform="translate(6.497 24.413)">
          <g id="Grupo_67534" data-name="Grupo 67534">
            <g id="Grupo_67533" data-name="Grupo 67533">
              <g id="Grupo_67532" data-name="Grupo 67532">
                <g id="Grupo_67530" data-name="Grupo 67530" transform="translate(0 61.39)">
                  <path id="Trazado_125066" data-name="Trazado 125066" d="M38.151,185.205H17.038a1.208,1.208,0,0,1,0-2.415H38.151a1.208,1.208,0,0,1,0,2.415Z" transform="translate(-15.83 -182.79)" fill="#c5e5fe"/>
                </g>
                <g id="Grupo_67531" data-name="Grupo 67531" transform="translate(85.547)">
                  <path id="Trazado_125067" data-name="Trazado 125067" d="M215.725,119.5H194.138a1.208,1.208,0,0,1,0-2.415h20.38V56.908a1.208,1.208,0,1,1,2.415,0V118.3A1.207,1.207,0,0,1,215.725,119.5Z" transform="translate(-192.93 -55.7)" fill="#c5e5fe"/>
                </g>
              </g>
            </g>
          </g>
        </g>
        <path id="Trazado_125068" data-name="Trazado 125068" d="M3.588,84.4A1.208,1.208,0,0,0,4.8,83.19V30.3A3.641,3.641,0,0,1,8.418,26.67H117.7a3.641,3.641,0,0,1,3.623,3.628V92.653a3.637,3.637,0,0,1-3.623,3.623H89.777V41.48a7.579,7.579,0,0,0-7.564-7.56H31.193a7.57,7.57,0,0,0-7.557,7.562v9.227a1.207,1.207,0,0,0,1.208,1.208h11.5v44.36H8.413A3.608,3.608,0,0,1,4.8,92.8a1.2,1.2,0,0,0-1.256-1.159A1.215,1.215,0,0,0,2.385,92.9a6.025,6.025,0,0,0,6.033,5.792H36.347V114.7a7.57,7.57,0,0,0,7.563,7.56h51.01a7.572,7.572,0,0,0,7.562-7.565v-9.224a1.207,1.207,0,0,0-1.208-1.208h-11.5V98.691H117.7a6.046,6.046,0,0,0,6.038-6.038V30.3a6.054,6.054,0,0,0-6.038-6.043h-6.251V21.1a3.63,3.63,0,0,0-3.623-3.623H98.046A3.627,3.627,0,0,0,94.423,21.1v3.154H85.434V11.613A6.462,6.462,0,0,0,78.981,5.16H74.725a1.208,1.208,0,0,0,0,2.415h4.256a4.052,4.052,0,0,1,4.038,4.038V24.255H78.614V13.188a1.212,1.212,0,0,0-1.208-1.208H48.713a1.21,1.21,0,0,0-1.208,1.208V24.255H43.1V11.613a4.052,4.052,0,0,1,4.038-4.038H65.064a1.208,1.208,0,1,0,0-2.415H47.139a6.462,6.462,0,0,0-6.453,6.453V24.255H31.7V21.1a3.627,3.627,0,0,0-3.623-3.623H18.291A3.63,3.63,0,0,0,14.669,21.1v3.154H8.418A6.054,6.054,0,0,0,2.38,30.3V83.19A1.208,1.208,0,0,0,3.588,84.4ZM26.052,49.5V41.482a5.145,5.145,0,0,1,10.29-.009v.017s0,8.008,0,8.012Zm12.711,65.2V50.714s0,0,0,0V41.373a7.744,7.744,0,0,0-2.024-5.038c.4,0,45.218,0,45.613.007a5.163,5.163,0,0,1,5.01,5.137v62.781h-37.1a1.207,1.207,0,0,0-1.208,1.208V114.7a5.147,5.147,0,0,1-10.294,0Zm61.3-.005a5.154,5.154,0,0,1-5.146,5.15H49.443a7.632,7.632,0,0,0,2.029-5.146v-8.019h48.6ZM96.839,21.1a1.211,1.211,0,0,1,1.208-1.208h9.782a1.211,1.211,0,0,1,1.208,1.208v3.154h-12.2ZM49.921,14.4H76.2v9.859H49.921ZM17.084,21.1a1.208,1.208,0,0,1,1.208-1.208h9.782A1.208,1.208,0,0,1,29.281,21.1v3.154h-12.2Z" transform="translate(-2.38 -5.16)"/>
        <circle id="Elipse_4809" data-name="Elipse 4809" cx="1.208" cy="1.208" r="1.208" transform="translate(0 81.653)"/>
        <circle id="Elipse_4810" data-name="Elipse 4810" cx="1.208" cy="1.208" r="1.208" transform="translate(66.307)"/>
        <path id="Trazado_125069" data-name="Trazado 125069" d="M93.041,94.915h19.322a1.208,1.208,0,1,0,0-2.415H93.041a1.208,1.208,0,1,0,0,2.415Z" transform="translate(-48.624 -50.311)"/>
        <path id="Trazado_125070" data-name="Trazado 125070" d="M143.041,94.915h9.178a1.208,1.208,0,0,0,0-2.415h-9.178a1.208,1.208,0,0,0,0,2.415Z" transform="translate(-74.471 -50.311)"/>
        <path id="Trazado_125071" data-name="Trazado 125071" d="M93.038,111.245h33.33a1.208,1.208,0,0,0,0-2.415H93.038a1.208,1.208,0,0,0,0,2.415Z" transform="translate(-48.622 -58.753)"/>
        <path id="Trazado_125072" data-name="Trazado 125072" d="M141.362,125.167H122.041a1.208,1.208,0,0,0,0,2.415h19.322a1.208,1.208,0,0,0,0-2.415Z" transform="translate(-63.615 -67.199)"/>
        <path id="Trazado_125073" data-name="Trazado 125073" d="M93.041,125.167a1.208,1.208,0,0,0,0,2.415h9.178a1.208,1.208,0,0,0,0-2.415Z" transform="translate(-48.624 -67.199)"/>
        <path id="Trazado_125074" data-name="Trazado 125074" d="M93.038,143.915h33.33a1.208,1.208,0,0,0,0-2.415H93.038a1.208,1.208,0,0,0,0,2.415Z" transform="translate(-48.622 -75.642)"/>
        <path id="Trazado_125075" data-name="Trazado 125075" d="M93.041,157.833a1.208,1.208,0,1,0,0,2.415h19.322a1.208,1.208,0,1,0,0-2.415Z" transform="translate(-48.624 -84.086)"/>
        <path id="Trazado_125076" data-name="Trazado 125076" d="M152.218,157.833h-9.178a1.208,1.208,0,0,0,0,2.415h9.178a1.208,1.208,0,0,0,0-2.415Z" transform="translate(-74.471 -84.086)"/>
        <path id="Trazado_125077" data-name="Trazado 125077" d="M93.038,176.585h33.33a1.208,1.208,0,0,0,0-2.415H93.038a1.208,1.208,0,0,0,0,2.415Z" transform="translate(-48.622 -92.531)"/>
        <path id="Trazado_125078" data-name="Trazado 125078" d="M141.362,190.5H122.041a1.208,1.208,0,0,0,0,2.415h19.322a1.208,1.208,0,0,0,0-2.415Z" transform="translate(-63.615 -100.973)"/>
        <path id="Trazado_125079" data-name="Trazado 125079" d="M102.218,190.5H93.041a1.208,1.208,0,1,0,0,2.415h9.178a1.208,1.208,0,0,0,0-2.415Z" transform="translate(-48.624 -100.973)"/>
      </g>
    </g>
  </g>
</svg>
