<svg xmlns="http://www.w3.org/2000/svg" width="98" height="92" viewBox="0 0 98 92">
  <g id="Grupo_68973" data-name="Grupo 68973" transform="translate(-1023 -1842)">
    <g id="estadisticas" transform="translate(1036 1853)">
      <path id="Trazado_127881" data-name="Trazado 127881" d="M427.375,7.5l2.354,26.8h4.123V17.808h4.123Z" transform="translate(-368.635 -6.469)" fill="#4fd7ff"/>
      <path id="Trazado_127882" data-name="Trazado 127882" d="M360.85,7.5l-10.6,10.308h4.123V34.3H363.2V13.685Z" transform="translate(-302.111 -6.469)" fill="#8de5ff"/>
      <path id="Trazado_127883" data-name="Trazado 127883" d="M405.685,202.5,399.5,223.254l6.185,20.754h4.123V202.5Z" transform="translate(-344.592 -174.668)" fill="#2baacf"/>
      <path id="Trazado_127884" data-name="Trazado 127884" d="M380.25,202.5h8.831v41.508H380.25Z" transform="translate(-327.987 -174.668)" fill="#2fc0eb"/>
      <path id="Trazado_127885" data-name="Trazado 127885" d="M290.25,262.5l4.123,33.261H298.5V266.623Z" transform="translate(-250.357 -226.421)" fill="#6262d1"/>
      <path id="Trazado_127886" data-name="Trazado 127886" d="M256,253.685v29.138h8.831V247.5Z" transform="translate(-220.815 -213.483)" fill="#8869ff"/>
      <path id="Trazado_127887" data-name="Trazado 127887" d="M281.435,142.5l-6.185,10.308,6.185,10.308h4.123V142.5Z" transform="translate(-237.419 -122.915)" fill="#9587ff"/>
      <path id="Trazado_127888" data-name="Trazado 127888" d="M256,142.5h8.831v20.616H256Z" transform="translate(-220.815 -122.915)" fill="#9ea4ff"/>
      <path id="Trazado_127889" data-name="Trazado 127889" d="M166,397.5l4.123,14.706h4.123V401.623Z" transform="translate(-143.184 -342.867)" fill="#ff6145"/>
      <path id="Trazado_127890" data-name="Trazado 127890" d="M131.75,401.623v10.583h8.831V397.5Z" transform="translate(-113.642 -342.867)" fill="#ff7e4f"/>
      <path id="Trazado_127891" data-name="Trazado 127891" d="M157.185,292.5,151,301.777l6.185,9.277h4.123V292.5Z" transform="translate(-130.246 -252.298)" fill="#ff9457"/>
      <path id="Trazado_127892" data-name="Trazado 127892" d="M131.75,292.5h8.831v18.555H131.75Z" transform="translate(-113.642 -252.298)" fill="#ffae6b"/>
      <path id="Trazado_127893" data-name="Trazado 127893" d="M41.75,427.5l4.123,10.583H50v-6.46Z" transform="translate(-36.012 -368.743)" fill="#ffae6b"/>
      <path id="Trazado_127894" data-name="Trazado 127894" d="M7.5,431.623v6.46h8.831V427.5Z" transform="translate(-6.469 -368.743)" fill="#ffcf6e"/>
      <path id="Trazado_127895" data-name="Trazado 127895" d="M32.935,202.5,26.75,220.024l6.185,17.524h4.123V202.5Z" transform="translate(-23.073 -174.668)" fill="#ffe75e"/>
      <path id="Trazado_127896" data-name="Trazado 127896" d="M7.5,202.5h8.831v35.048H7.5Z" transform="translate(-6.469 -174.668)" fill="#fff1a0"/>
      <path id="Trazado_127897" data-name="Trazado 127897" d="M262.485,135H249.531a1.031,1.031,0,0,0-1.031,1.031v49.754a1.031,1.031,0,0,0,1.031,1.031h12.954a1.031,1.031,0,0,0,1.031-1.031V136.031A1.031,1.031,0,0,0,262.485,135Zm-1.031,2.062v18.555H250.562V137.062Zm-10.892,47.693V157.678h10.892v27.076Z" transform="translate(-214.345 -116.445)"/>
      <path id="Trazado_127898" data-name="Trazado 127898" d="M138.235,285H125.281a1.031,1.031,0,0,0-1.031,1.031v29.138a1.031,1.031,0,0,0,1.031,1.031h12.954a1.031,1.031,0,0,0,1.031-1.031V286.031A1.031,1.031,0,0,0,138.235,285Zm-1.031,2.062v16.493H126.312V287.062Zm-10.892,27.076v-8.521H137.2v8.521Z" transform="translate(-107.173 -245.829)"/>
      <path id="Trazado_127899" data-name="Trazado 127899" d="M13.985,195H1.031A1.031,1.031,0,0,0,0,196.031v41.508a1.031,1.031,0,0,0,1.031,1.031H13.985a1.031,1.031,0,0,0,1.031-1.031V196.031A1.031,1.031,0,0,0,13.985,195Zm-1.031,2.062v32.986H2.062V197.062ZM2.062,236.508v-4.4H12.954v4.4Z" transform="translate(0 -168.199)"/>
      <path id="Trazado_127900" data-name="Trazado 127900" d="M365.7,10.6,355.1.292a1.031,1.031,0,0,0-1.437,0L343.062,10.6a1.031,1.031,0,0,0,.719,1.77h3.092V27.832a1.031,1.031,0,0,0,1.031,1.031h11.923V68.309H348.935V31.955a1.031,1.031,0,0,0-2.062,0V69.34a1.031,1.031,0,0,0,1.031,1.031h12.954a1.031,1.031,0,0,0,1.031-1.031V12.37h3.092a1.031,1.031,0,0,0,.719-1.77Zm-4.842-.292a1.031,1.031,0,0,0-1.031,1.031V26.8H348.935V11.339a1.031,1.031,0,0,0-1.031-1.031H346.32l8.062-7.84,8.062,7.84Z" transform="translate(-295.642 0)"/>
      <path id="Trazado_127901" data-name="Trazado 127901" d="M262.485,135H249.531a1.031,1.031,0,0,0-1.031,1.031v49.754a1.031,1.031,0,0,0,1.031,1.031h12.954a1.031,1.031,0,0,0,1.031-1.031V136.031A1.031,1.031,0,0,0,262.485,135Zm-1.031,2.062v18.555H250.562V137.062Zm-10.892,47.693V157.678h10.892v27.076Z" transform="translate(-214.345 -116.445)"/>
      <path id="Trazado_127902" data-name="Trazado 127902" d="M138.235,285H125.281a1.031,1.031,0,0,0-1.031,1.031v29.138a1.031,1.031,0,0,0,1.031,1.031h12.954a1.031,1.031,0,0,0,1.031-1.031V286.031A1.031,1.031,0,0,0,138.235,285Zm-1.031,2.062v16.493H126.312V287.062Zm-10.892,27.076v-8.521H137.2v8.521Z" transform="translate(-107.173 -245.829)"/>
      <path id="Trazado_127903" data-name="Trazado 127903" d="M13.985,195H1.031A1.031,1.031,0,0,0,0,196.031v41.508a1.031,1.031,0,0,0,1.031,1.031H13.985a1.031,1.031,0,0,0,1.031-1.031V196.031A1.031,1.031,0,0,0,13.985,195Zm-1.031,2.062v32.986H2.062V197.062ZM2.062,236.508v-4.4H12.954v4.4Z" transform="translate(0 -168.199)"/>
      <path id="Trazado_127904" data-name="Trazado 127904" d="M365.7,10.6,355.1.292a1.031,1.031,0,0,0-1.437,0L343.062,10.6a1.031,1.031,0,0,0,.719,1.77h3.092V27.832a1.031,1.031,0,0,0,1.031,1.031h11.923V68.309H348.935V31.955a1.031,1.031,0,0,0-2.062,0V69.34a1.031,1.031,0,0,0,1.031,1.031h12.954a1.031,1.031,0,0,0,1.031-1.031V12.37h3.092a1.031,1.031,0,0,0,.719-1.77Zm-4.842-.292a1.031,1.031,0,0,0-1.031,1.031V26.8H348.935V11.339a1.031,1.031,0,0,0-1.031-1.031H346.32l8.062-7.84,8.062,7.84Z" transform="translate(-295.642 0)"/>
    </g>
    <rect id="Rectángulo_7825" data-name="Rectángulo 7825" width="98" height="92" transform="translate(1023 1842)" fill="none"/>
  </g>
</svg>
