<svg xmlns="http://www.w3.org/2000/svg" width="159" height="147" viewBox="0 0 159 147">
  <g id="Grupo_67713" data-name="Grupo 67713" transform="translate(-721 -4109)">
    <rect id="Rectángulo_7597" data-name="Rectángulo 7597" width="159" height="147" rx="14" transform="translate(721 4109)" fill="#fff"/>
    <g id="Layer_85" transform="translate(737 4114.303)">
      <g id="Grupo_67594" data-name="Grupo 67594" transform="translate(0 11.332)">
        <g id="Grupo_67545" data-name="Grupo 67545" transform="translate(6.863 7.646)">
          <g id="Grupo_67544" data-name="Grupo 67544">
            <path id="Trazado_125081" data-name="Trazado 125081" d="M104.953,46.2,69.862,81.291a2.619,2.619,0,0,1-3.7-3.7L101.248,42.5l-2.076-5.188A53.434,53.434,0,1,0,110.14,48.276Z" transform="translate(-13.834 -26.745)" fill="#529ad9"/>
          </g>
        </g>
        <g id="Grupo_67547" data-name="Grupo 67547" transform="translate(90.108 1.241)">
          <g id="Grupo_67546" data-name="Grupo 67546">
            <path id="Trazado_125082" data-name="Trazado 125082" d="M198.178,23.615,194.729,15a1.851,1.851,0,0,0-3.028-.621L182.176,23.9a1.852,1.852,0,0,0-.41,2L185.8,35.99Z" transform="translate(-181.634 -13.834)" fill="#f5c84c"/>
          </g>
        </g>
        <g id="Grupo_67549" data-name="Grupo 67549" transform="translate(97.982 14.727)">
          <g id="Grupo_67548" data-name="Grupo 67548" transform="translate(0 0)">
            <path id="Trazado_125083" data-name="Trazado 125083" d="M209.881,41.018,197.507,53.392l10.09,4.038a1.851,1.851,0,0,0,2-.41l9.526-9.526a1.851,1.851,0,0,0-.621-3.028Z" transform="translate(-197.507 -41.018)" fill="#f5c84c"/>
          </g>
        </g>
        <g id="Grupo_67551" data-name="Grupo 67551" transform="translate(17.361 18.147)">
          <g id="Grupo_67550" data-name="Grupo 67550" transform="translate(0 0)">
            <path id="Trazado_125084" data-name="Trazado 125084" d="M80.526,91.956a2.619,2.619,0,0,1-3.7-3.7l29.573-29.573a42.958,42.958,0,1,0,3.7,3.7Z" transform="translate(-34.995 -47.911)" fill="#edf4fc"/>
          </g>
        </g>
        <g id="Grupo_67553" data-name="Grupo 67553" transform="translate(27.833 28.621)">
          <g id="Grupo_67552" data-name="Grupo 67552">
            <path id="Trazado_125085" data-name="Trazado 125085" d="M91.163,102.6a2.619,2.619,0,1,1-3.7-3.7L109.6,76.746a32.48,32.48,0,1,0,3.7,3.7Z" transform="translate(-56.105 -69.024)" fill="#529ad9"/>
          </g>
        </g>
        <g id="Grupo_67555" data-name="Grupo 67555" transform="translate(38.306 39.091)">
          <g id="Grupo_67554" data-name="Grupo 67554">
            <path id="Trazado_125086" data-name="Trazado 125086" d="M101.8,113.231a2.619,2.619,0,1,1-3.7-3.7l14.7-14.7a22,22,0,1,0,3.7,3.7Z" transform="translate(-77.214 -90.131)" fill="#edf4fc"/>
          </g>
        </g>
        <g id="Grupo_67557" data-name="Grupo 67557" transform="translate(48.778 49.563)">
          <g id="Grupo_67556" data-name="Grupo 67556">
            <path id="Trazado_125087" data-name="Trazado 125087" d="M119.631,116.674l-7.194,7.194a2.619,2.619,0,1,1-3.7-3.7l7.194-7.193a11.525,11.525,0,1,0,3.7,3.7Z" transform="translate(-98.324 -111.239)" fill="#fc657e"/>
          </g>
        </g>
        <g id="Grupo_67560" data-name="Grupo 67560" transform="translate(58.419 8.823)">
          <g id="Grupo_67559" data-name="Grupo 67559">
            <g id="Grupo_67558" data-name="Grupo 67558">
              <path id="Trazado_125088" data-name="Trazado 125088" d="M171.128,33.588l-48.9,48.9a2.619,2.619,0,1,1-3.7-3.7l48.9-48.9a2.619,2.619,0,0,1,3.7,3.7Z" transform="translate(-117.758 -29.117)" fill="#5290db"/>
            </g>
          </g>
        </g>
        <g id="Grupo_67562" data-name="Grupo 67562" transform="translate(91.785 8.823)">
          <g id="Grupo_67561" data-name="Grupo 67561">
            <path id="Trazado_125089" data-name="Trazado 125089" d="M201.314,29.884l-16.3,16.3,3.7,3.7,16.3-16.3a2.619,2.619,0,1,0-3.7-3.7Z" transform="translate(-185.015 -29.117)" fill="#edf4fc"/>
          </g>
        </g>
        <g id="Grupo_67564" data-name="Grupo 67564" transform="translate(5.648 6.406)">
          <g id="Grupo_67563" data-name="Grupo 67563">
            <path id="Trazado_125090" data-name="Trazado 125090" d="M66.036,133.569A54.663,54.663,0,1,1,98.645,35.027a1.24,1.24,0,0,1-1.481,1.989,52.189,52.189,0,1,0,10.794,10.8,1.24,1.24,0,1,1,1.99-1.48,54.65,54.65,0,0,1-43.912,87.232Z" transform="translate(-11.386 -24.245)"/>
          </g>
        </g>
        <g id="Grupo_67566" data-name="Grupo 67566" transform="translate(88.866)">
          <g id="Grupo_67565" data-name="Grupo 67565">
            <path id="Trazado_125091" data-name="Trazado 125091" d="M184.476,35.8a1.241,1.241,0,0,1-1.152-.78L179.354,25.1a3.088,3.088,0,0,1,.685-3.335l9.526-9.526a3.092,3.092,0,0,1,5.056,1.038l3.4,8.5a1.24,1.24,0,0,1-2.3.921l-3.4-8.5a.611.611,0,0,0-1-.2l-9.525,9.525a.61.61,0,0,0-.135.659l3.971,9.923a1.24,1.24,0,0,1-.691,1.612A1.223,1.223,0,0,1,184.476,35.8Z" transform="translate(-179.132 -11.332)"/>
          </g>
        </g>
        <g id="Grupo_67568" data-name="Grupo 67568" transform="translate(96.88 13.531)">
          <g id="Grupo_67567" data-name="Grupo 67567">
            <path id="Trazado_125092" data-name="Trazado 125092" d="M207.165,57.588a3.09,3.09,0,0,1-1.149-.222l-9.952-3.982a1.24,1.24,0,0,1,.921-2.3l9.952,3.982a.611.611,0,0,0,.659-.135l9.525-9.526a.611.611,0,0,0-.205-1L208.412,41a1.24,1.24,0,0,1,.921-2.3l8.506,3.4a3.092,3.092,0,0,1,1.038,5.056l-9.526,9.526A3.087,3.087,0,0,1,207.165,57.588Z" transform="translate(-195.285 -38.607)"/>
          </g>
        </g>
        <g id="Grupo_67570" data-name="Grupo 67570" transform="translate(117.808 31.585)">
          <g id="Grupo_67569" data-name="Grupo 67569">
            <path id="Trazado_125093" data-name="Trazado 125093" d="M246.579,79.406a5.506,5.506,0,0,1-4.414-4.324.1.1,0,0,0-.2,0,5.506,5.506,0,0,1-4.414,4.324.1.1,0,0,0,0,.192,5.506,5.506,0,0,1,4.414,4.324.1.1,0,0,0,.2,0,5.507,5.507,0,0,1,4.414-4.324A.1.1,0,0,0,246.579,79.406Z" transform="translate(-237.47 -75)" fill="#f5c84c"/>
          </g>
        </g>
        <g id="Grupo_67572" data-name="Grupo 67572" transform="translate(8.22 16.703)">
          <g id="Grupo_67571" data-name="Grupo 67571" transform="translate(0 0)">
            <path id="Trazado_125094" data-name="Trazado 125094" d="M24.6,48.885a4.853,4.853,0,0,1-3.891-3.811.088.088,0,0,0-.173,0,4.853,4.853,0,0,1-3.891,3.811.085.085,0,0,0,0,.169,4.853,4.853,0,0,1,3.891,3.811.088.088,0,0,0,.173,0A4.853,4.853,0,0,1,24.6,49.054.085.085,0,0,0,24.6,48.885Z" transform="translate(-16.569 -45.001)" fill="#fc657e"/>
          </g>
        </g>
        <g id="Grupo_67574" data-name="Grupo 67574" transform="translate(3.118 93.597)">
          <g id="Grupo_67573" data-name="Grupo 67573">
            <path id="Trazado_125095" data-name="Trazado 125095" d="M7.851,202.722H9.007v-1.156a1.566,1.566,0,0,1,3.132,0v1.156h1.155a1.566,1.566,0,0,1,0,3.132H12.139v1.156a1.566,1.566,0,1,1-3.132,0v-1.156H7.851a1.566,1.566,0,1,1,0-3.132Z" transform="translate(-6.285 -200)" fill="#70d6f9"/>
          </g>
        </g>
        <g id="Grupo_67576" data-name="Grupo 67576" transform="translate(118.737 49.07)">
          <g id="Grupo_67575" data-name="Grupo 67575">
            <circle id="Elipse_4818" data-name="Elipse 4818" cx="1.675" cy="1.675" r="1.675" fill="#87d147"/>
          </g>
        </g>
        <g id="Grupo_67578" data-name="Grupo 67578" transform="translate(0 81.317)">
          <g id="Grupo_67577" data-name="Grupo 67577">
            <circle id="Elipse_4819" data-name="Elipse 4819" cx="1.675" cy="1.675" r="1.675" fill="#f5c84c"/>
          </g>
        </g>
        <g id="Grupo_67580" data-name="Grupo 67580" transform="translate(20.836 9.383)">
          <g id="Grupo_67579" data-name="Grupo 67579">
            <circle id="Elipse_4820" data-name="Elipse 4820" cx="1.675" cy="1.675" r="1.675" fill="#70d6f9"/>
          </g>
        </g>
        <g id="Grupo_67582" data-name="Grupo 67582" transform="translate(16.12 16.935)">
          <g id="Grupo_67581" data-name="Grupo 67581" transform="translate(0 0)">
            <path id="Trazado_125096" data-name="Trazado 125096" d="M76.672,133.792a44.187,44.187,0,1,1,28.94-77.574,1.24,1.24,0,0,1-1.626,1.874,41.715,41.715,0,1,0,4.132,4.12,1.24,1.24,0,0,1,1.869-1.631,44.172,44.172,0,0,1-33.315,73.211Z" transform="translate(-32.494 -45.469)"/>
          </g>
        </g>
        <g id="Grupo_67584" data-name="Grupo 67584" transform="translate(26.593 27.379)">
          <g id="Grupo_67583" data-name="Grupo 67583">
            <path id="Trazado_125097" data-name="Trazado 125097" d="M87.31,133.928a33.7,33.7,0,1,1,21.512-59.662,1.24,1.24,0,0,1-1.585,1.909,31.2,31.2,0,1,0,4.1,4.091,1.24,1.24,0,1,1,1.907-1.587A33.7,33.7,0,0,1,87.31,133.928Z" transform="translate(-53.605 -66.522)"/>
          </g>
        </g>
        <g id="Grupo_67586" data-name="Grupo 67586" transform="translate(37.065 37.855)">
          <g id="Grupo_67585" data-name="Grupo 67585">
            <path id="Trazado_125098" data-name="Trazado 125098" d="M97.947,134.1a23.237,23.237,0,1,1,14.165-41.655,1.24,1.24,0,0,1-1.514,1.965,20.765,20.765,0,1,0,3.823,3.83,1.24,1.24,0,1,1,1.968-1.511A23.229,23.229,0,0,1,97.947,134.1Z" transform="translate(-74.714 -87.639)"/>
          </g>
        </g>
        <g id="Grupo_67588" data-name="Grupo 67588" transform="translate(47.538 48.309)">
          <g id="Grupo_67587" data-name="Grupo 67587">
            <path id="Trazado_125099" data-name="Trazado 125099" d="M108.585,134.242a12.762,12.762,0,1,1,6.607-23.679,1.24,1.24,0,0,1-1.284,2.122,10.286,10.286,0,1,0,3.5,3.525,1.24,1.24,0,0,1,2.13-1.272,12.756,12.756,0,0,1-10.957,19.3Z" transform="translate(-95.825 -108.712)"/>
          </g>
        </g>
        <g id="Grupo_67591" data-name="Grupo 67591" transform="translate(57.179 7.583)">
          <g id="Grupo_67590" data-name="Grupo 67590">
            <g id="Grupo_67589" data-name="Grupo 67589">
              <path id="Trazado_125100" data-name="Trazado 125100" d="M119.119,83.231a3.858,3.858,0,0,1-2.729-6.587l48.9-48.9a3.859,3.859,0,1,1,5.458,5.458l-48.9,48.9A3.847,3.847,0,0,1,119.119,83.231Zm48.9-54.134a1.372,1.372,0,0,0-.975.4l-48.9,48.9a1.379,1.379,0,0,0,1.951,1.951l48.9-48.9a1.379,1.379,0,0,0-.975-2.354Z" transform="translate(-115.259 -26.617)"/>
            </g>
          </g>
        </g>
        <g id="Grupo_67593" data-name="Grupo 67593" transform="translate(90.731 24.836)">
          <g id="Grupo_67592" data-name="Grupo 67592">
            <path id="Trazado_125101" data-name="Trazado 125101" d="M187.439,67.183a1.237,1.237,0,0,1-.877-.363l-3.308-3.308a1.24,1.24,0,1,1,1.754-1.754l3.308,3.308a1.24,1.24,0,0,1-.877,2.117Z" transform="translate(-182.89 -61.395)"/>
          </g>
        </g>
      </g>
    </g>
  </g>
</svg>
