<svg xmlns="http://www.w3.org/2000/svg" width="215" height="215" viewBox="0 0 215 215">
  <g id="Grupo_69872" data-name="Grupo 69872" transform="translate(-1668 11067)">
    <rect id="Rectángulo_7856" data-name="Rectángulo 7856" width="215" height="215" rx="10" transform="translate(1668 -11067)" fill="#fff"/>
    <g id="correo-electronico" transform="translate(1705 -11030.001)">
      <path id="Trazado_129074" data-name="Trazado 129074" d="M10,258v67.536H146.179V258L78.09,291.214Z" transform="translate(-7.232 -186.588)" fill="#f3f095"/>
      <path id="Trazado_129075" data-name="Trazado 129075" d="M10,223.286,78.09,256.5l68.09-33.214V210L78.09,243.214,10,210Z" transform="translate(-7.232 -151.874)" fill="#e5dec1"/>
      <path id="Trazado_129076" data-name="Trazado 129076" d="M78.09,10,10,65.357,78.09,98.572l68.09-33.214Z" transform="translate(-7.232 -7.232)" fill="#fff"/>
      <path id="Trazado_129077" data-name="Trazado 129077" d="M78.09,23.286l57.517,47.229,10.573-5.157L78.09,10,10,65.357l10.573,5.157Z" transform="translate(-7.232 -7.232)" fill="#f7f5ed"/>
      <path id="Trazado_129078" data-name="Trazado 129078" d="M147.518,168l41.518-20.253V106H106v41.748Z" transform="translate(-76.661 -76.66)" fill="#529ad9"/>
      <path id="Trazado_129079" data-name="Trazado 129079" d="M248.768,452a2.768,2.768,0,1,0,2.768,2.768A2.772,2.772,0,0,0,248.768,452Z" transform="translate(-177.91 -326.892)"/>
      <path id="Trazado_129080" data-name="Trazado 129080" d="M215.818,177.292a1.766,1.766,0,0,0-1.51-1.788,18.6,18.6,0,0,0-2.1.612,13.637,13.637,0,0,1-4.175.612c-7.329,0-10.756-5.831-10.755-12.611a15.779,15.779,0,0,1,2.635-9.391c2.249-3.029,6.072-4.067,9.716-4.067q11.5,0,11.5,13.034,0,6.682-2.758,6.682-1.38,0-1.713-2.259v-7.952a5.49,5.49,0,0,0-2.188-4.658,8.7,8.7,0,0,0-5.388-1.647,11.422,11.422,0,0,0-4.635.918q-2.094.918-2.094,2.235a2.976,2.976,0,0,0,.459,1.459c.685,1.194,1.619.626,2.637.165a7.544,7.544,0,0,1,3.147-.636q3.919,0,3.92,3.294V162H211q-9.58,0-9.58,5.788c0,3.4,2.864,5.411,6.063,5.411a7.186,7.186,0,0,0,5.8-3.2,4.577,4.577,0,0,0,4.71,3.435,5.749,5.749,0,0,0,5.259-3.011,14.863,14.863,0,0,0,1.785-7.67q0-7.293-4.061-11.434t-11.349-4.141a17,17,0,0,0-9.1,2.306,13.746,13.746,0,0,0-5.443,6.046,20.553,20.553,0,0,0-1.711,8.634q0,7.717,4.07,11.881a13.328,13.328,0,0,0,9.9,4.164,21.214,21.214,0,0,0,5.646-.776Q215.818,178.657,215.818,177.292Zm-3.058-11.2a3.585,3.585,0,0,1-1.285,2.659,4.109,4.109,0,0,1-2.873,1.2,2.1,2.1,0,0,1-1.564-.588,2.266,2.266,0,0,1-.584-1.67q0-3.058,5.138-3.059h1.168v1.459Z" transform="translate(-139.851 -106.44)"/>
      <path id="Trazado_129081" data-name="Trazado 129081" d="M140.693,55.978l-25.55-20.772V29.34a2.768,2.768,0,0,0-2.768-2.768h-7.852L72.6.621a2.769,2.769,0,0,0-3.492,0L37.191,26.572H29.339a2.768,2.768,0,0,0-2.768,2.768v5.866L1.017,55.982A2.9,2.9,0,0,0,0,58.126v80.822a2.768,2.768,0,0,0,2.768,2.768H138.947a2.768,2.768,0,0,0,2.768-2.768V58.126A3.015,3.015,0,0,0,140.693,55.978ZM115.143,42.34l18.694,15.2-5.08,2.478L115.143,48.838Zm0,13.66,8.142,6.686-8.142,3.972ZM70.858,6.336,95.748,26.572h-7.72L72.614,13.915a2.768,2.768,0,0,0-3.513,0L53.687,26.572h-7.72ZM79.3,26.572H62.41l8.448-6.937Zm-47.2,5.536h77.5v37.25l-38.75,18.9-38.75-18.9ZM26.572,42.34v6.5L12.958,60.017l-5.08-2.478Zm0,13.66V66.658L18.43,62.686ZM5.536,75.841,43.111,94.171,5.536,132.207ZM9.393,136.18l5.469-5.536H59.786a2.768,2.768,0,0,0,0-5.536H20.33L48.362,96.732l21.282,10.381a2.792,2.792,0,0,0,2.427,0L93.353,96.732l28.032,28.376H81.929a2.768,2.768,0,0,0,0,5.536h44.924l5.469,5.536Zm126.786-3.972L98.6,94.171l37.576-18.329Zm0-62.525L70.858,101.546,5.536,69.682V62.556L69.644,93.828a2.767,2.767,0,0,0,2.427,0l64.108-31.272Z" transform="translate(0)"/>
    </g>
  </g>
</svg>
