<svg xmlns="http://www.w3.org/2000/svg" width="215" height="215" viewBox="0 0 215 215">
  <g id="Grupo_69874" data-name="Grupo 69874" transform="translate(-1668 10594)">
    <rect id="Rectángulo_7858" data-name="Rectángulo 7858" width="215" height="215" rx="10" transform="translate(1668 -10594)" fill="#fff"/>
    <g id="Grupo_69844" data-name="Grupo 69844" transform="translate(1716.444 -10552.902)">
      <g id="Grupo_69815" data-name="Grupo 69815" transform="translate(0 15.594)">
        <path id="Trazado_129110" data-name="Trazado 129110" d="M112.9,157.446H12.844A5.344,5.344,0,0,1,7.5,152.1V65.86H118.243V152.1A5.344,5.344,0,0,1,112.9,157.446Z" transform="translate(-7.5 -65.86)" fill="#e8edf2"/>
      </g>
      <g id="Grupo_69816" data-name="Grupo 69816" transform="translate(59.905 61.293)">
        <path id="Trazado_129111" data-name="Trazado 129111" d="M282.523,277.423V236.88H269.489v14.7a2.672,2.672,0,0,1-2.672,2.672H231.685v28.51h45.494A5.344,5.344,0,0,0,282.523,277.423Z" transform="translate(-231.685 -236.88)" fill="#c5d3dd"/>
      </g>
      <g id="Grupo_69819" data-name="Grupo 69819" transform="translate(13.035 30.47)">
        <g id="Grupo_69818" data-name="Grupo 69818">
          <g id="Grupo_69817" data-name="Grupo 69817">
            <path id="Trazado_129112" data-name="Trazado 129112" d="M138.282,169.728H58.952a2.672,2.672,0,0,1-2.672-2.672V124.2a2.672,2.672,0,0,1,2.672-2.672h79.33a2.672,2.672,0,0,1,2.672,2.672v42.856A2.672,2.672,0,0,1,138.282,169.728Z" transform="translate(-56.28 -121.528)" fill="#f3f095"/>
          </g>
        </g>
      </g>
      <g id="Grupo_69822" data-name="Grupo 69822" transform="translate(13.035 30.47)">
        <g id="Grupo_69821" data-name="Grupo 69821">
          <g id="Grupo_69820" data-name="Grupo 69820">
            <path id="Trazado_129113" data-name="Trazado 129113" d="M62,167.056V124.2a2.672,2.672,0,0,1,2.672-2.672H58.952A2.672,2.672,0,0,0,56.28,124.2v42.856a2.672,2.672,0,0,0,2.672,2.672h5.724A2.672,2.672,0,0,1,62,167.056Z" transform="translate(-56.28 -121.528)" fill="#fff"/>
          </g>
        </g>
      </g>
      <g id="Grupo_69823" data-name="Grupo 69823" transform="translate(0 15.594)">
        <path id="Trazado_129114" data-name="Trazado 129114" d="M14.516,152.1V65.86H7.5V152.1a5.344,5.344,0,0,0,5.344,5.344H19.86A5.344,5.344,0,0,1,14.516,152.1Z" transform="translate(-7.5 -65.86)" fill="#c5d3dd"/>
      </g>
      <g id="Grupo_69826" data-name="Grupo 69826" transform="translate(0 0)">
        <g id="Grupo_69825" data-name="Grupo 69825">
          <g id="Grupo_69824" data-name="Grupo 69824">
            <path id="Trazado_129115" data-name="Trazado 129115" d="M112.9,7.5H12.844A5.344,5.344,0,0,0,7.5,12.844v13.6H118.243v-13.6A5.344,5.344,0,0,0,112.9,7.5Z" transform="translate(-7.5 -7.5)" fill="#e5dec1"/>
          </g>
        </g>
      </g>
      <g id="Grupo_69829" data-name="Grupo 69829">
        <g id="Grupo_69828" data-name="Grupo 69828">
          <g id="Grupo_69827" data-name="Grupo 69827">
            <path id="Trazado_129116" data-name="Trazado 129116" d="M19.86,7.5H12.844A5.344,5.344,0,0,0,7.5,12.844v13.6h7.016v-13.6A5.344,5.344,0,0,1,19.86,7.5Z" transform="translate(-7.5 -7.5)" fill="#f5f5f5"/>
          </g>
        </g>
      </g>
      <g id="Grupo_69832" data-name="Grupo 69832" transform="translate(59.905 61.293)">
        <g id="Grupo_69831" data-name="Grupo 69831">
          <g id="Grupo_69830" data-name="Grupo 69830">
            <path id="Trazado_129117" data-name="Trazado 129117" d="M231.685,247.568v6.689h35.132a2.672,2.672,0,0,0,2.672-2.672v-14.7H242.373A10.7,10.7,0,0,0,231.685,247.568Z" transform="translate(-231.685 -236.88)" fill="#c63d4f"/>
          </g>
        </g>
      </g>
      <g id="Grupo_69835" data-name="Grupo 69835" transform="translate(39.499 86.992)">
        <g id="Grupo_69834" data-name="Grupo 69834">
          <g id="Grupo_69833" data-name="Grupo 69833">
            <path id="Trazado_129118" data-name="Trazado 129118" d="M155.32,343.562V334.39a1.336,1.336,0,0,1,1.935-1.194l11.533,5.78-11.533,5.78A1.336,1.336,0,0,1,155.32,343.562Z" transform="translate(-155.32 -333.053)" fill="#f3f095"/>
          </g>
        </g>
      </g>
      <g id="Grupo_69836" data-name="Grupo 69836" transform="translate(47.485 43.654)">
        <path id="Trazado_129119" data-name="Trazado 129119" d="M187.193,192.528l17.142-9.578a1.336,1.336,0,0,0,0-2.333l-17.142-9.578a1.336,1.336,0,0,0-1.988,1.166v19.156A1.336,1.336,0,0,0,187.193,192.528Z" transform="translate(-185.205 -170.867)" fill="#e8edf2"/>
      </g>
      <g id="Grupo_69838" data-name="Grupo 69838" transform="translate(66.585 67.973)">
        <g id="Grupo_69837" data-name="Grupo 69837">
          <path id="Trazado_129120" data-name="Trazado 129120" d="M318.9,326.711h-58.2a4.008,4.008,0,0,1-4.008-4.008V265.888a4.008,4.008,0,0,1,4.008-4.008h58.2a4.008,4.008,0,0,1,4.008,4.008V322.7A4.008,4.008,0,0,1,318.9,326.711Z" transform="translate(-256.685 -261.88)" fill="#529ad9"/>
        </g>
      </g>
      <g id="Grupo_69840" data-name="Grupo 69840" transform="translate(66.585 67.973)">
        <g id="Grupo_69839" data-name="Grupo 69839">
          <path id="Trazado_129121" data-name="Trazado 129121" d="M262.457,322.7V265.888a4.008,4.008,0,0,1,4.008-4.008h-5.772a4.008,4.008,0,0,0-4.008,4.008V322.7a4.008,4.008,0,0,0,4.008,4.008h5.772A4.008,4.008,0,0,1,262.457,322.7Z" transform="translate(-256.685 -261.88)" fill="#b9d6f0"/>
        </g>
      </g>
      <g id="Grupo_69843" data-name="Grupo 69843" transform="translate(115.617 67.973)">
        <g id="Grupo_69842" data-name="Grupo 69842">
          <g id="Grupo_69841" data-name="Grupo 69841">
            <path id="Trazado_129122" data-name="Trazado 129122" d="M457.367,279.067H444.188a4.008,4.008,0,0,1-4.008-4.008V261.88h13.179a4.008,4.008,0,0,1,4.008,4.008Z" transform="translate(-440.18 -261.88)" fill="#e5dec1"/>
          </g>
        </g>
      </g>
    </g>
    <g id="Grupo_69845" data-name="Grupo 69845" transform="translate(1714.44 -10554.906)">
      <path id="Trazado_129123" data-name="Trazado 129123" d="M59.4,283.547H7.348a3.344,3.344,0,0,1-3.34-3.34V242.684a2,2,0,1,0-4.008,0v37.523a7.357,7.357,0,0,0,7.348,7.348H59.4a2,2,0,0,0,0-4.008Z" transform="translate(0 -176.367)"/>
      <path id="Trazado_129124" data-name="Trazado 129124" d="M2,57.37a2,2,0,0,0,2-2V22.952H80.57a2,2,0,0,0,0-4.008H4.008V7.348a3.344,3.344,0,0,1,3.34-3.34H107.4a3.344,3.344,0,0,1,3.34,3.34v11.6H90.686a2,2,0,0,0,0,4.008h20.057v37.79a2,2,0,1,0,4.008,0V7.348A7.357,7.357,0,0,0,107.4,0H7.348A7.357,7.357,0,0,0,0,7.348V55.366A2,2,0,0,0,2,57.37Z" transform="translate(0 0)"/>
      <path id="Trazado_129125" data-name="Trazado 129125" d="M39.657,37.621a2,2,0,0,0,0,4.008h2.052a2,2,0,0,0,0-4.008Z" transform="translate(-27.592 -27.568)"/>
      <path id="Trazado_129126" data-name="Trazado 129126" d="M77.1,37.621a2,2,0,0,0,0,4.008h2.052a2,2,0,0,0,0-4.008Z" transform="translate(-55.03 -27.568)"/>
      <path id="Trazado_129127" data-name="Trazado 129127" d="M114.544,37.621a2,2,0,0,0,0,4.008H116.6a2,2,0,1,0,0-4.008Z" transform="translate(-82.468 -27.568)"/>
      <path id="Trazado_129128" data-name="Trazado 129128" d="M143.9,331.472h-4.635L128.152,325.9a3.34,3.34,0,0,0-4.837,2.986v2.582h-6.931a2,2,0,1,0,0,4.008h6.931v2.582a3.336,3.336,0,0,0,4.837,2.986l11.109-5.568H143.9a2,2,0,1,0,0-4.008Zm-16.573,5.508v-7.007l6.991,3.5Z" transform="translate(-83.816 -238.557)"/>
      <path id="Trazado_129129" data-name="Trazado 129129" d="M50.784,347.119a2,2,0,0,0,2-2v-5.291a2,2,0,1,0-4.008,0v5.291A2,2,0,0,0,50.784,347.119Z" transform="translate(-35.745 -247.55)"/>
      <path id="Trazado_129130" data-name="Trazado 129130" d="M81.668,345.115v-5.291a2,2,0,1,0-4.008,0v5.291a2,2,0,0,0,4.008,0Z" transform="translate(-56.908 -247.55)"/>
      <path id="Trazado_129131" data-name="Trazado 129131" d="M199.816,173.364l-17.142-9.578A3.34,3.34,0,0,0,177.7,166.7v19.156a3.333,3.333,0,0,0,4.969,2.916l17.142-9.578a3.34,3.34,0,0,0,0-5.831Zm-18.1,11.355V167.84l15.1,8.44Z" transform="translate(-130.22 -119.706)"/>
      <path id="Trazado_129132" data-name="Trazado 129132" d="M464.713,279.507a2,2,0,0,0-2.834,0l-.619.619-.619-.619a2,2,0,0,0-2.834,2.834l.619.619-.619.619a2,2,0,0,0,2.834,2.834l.619-.619.619.619a2,2,0,1,0,2.834-2.834l-.619-.619.619-.619a2,2,0,0,0,0-2.834Z" transform="translate(-335.045 -204.389)"/>
      <path id="Trazado_129133" data-name="Trazado 129133" d="M285.484,365.661a2,2,0,0,0,2.586-1.16l.974-2.558h6.69l.963,2.553a2,2,0,0,0,3.75-1.415l-5.832-15.455c-.007-.018-.014-.037-.022-.055a2.352,2.352,0,0,0-2.182-1.461h0a2.351,2.351,0,0,0-2.181,1.466l-.018.045-5.886,15.454A2,2,0,0,0,285.484,365.661ZM292.4,353.12l1.817,4.815h-3.651Z" transform="translate(-208.253 -253.625)"/>
      <path id="Trazado_129134" data-name="Trazado 129134" d="M359.689,364.328a2,2,0,0,0,2,1.867h.008c.13,0,3.2-.012,4.431-.034,4.627-.081,7.986-4.108,7.986-9.576,0-5.748-3.274-9.61-8.147-9.61h-4.308a2,2,0,0,0-2,2.008S359.665,364.2,359.689,364.328Zm6.274-13.344c3.84,0,4.139,4.287,4.139,5.6,0,2.736-1.252,5.519-4.047,5.568-.547.01-1.5.017-2.371.023-.006-1.792-.017-9.327-.02-11.192Z" transform="translate(-263.548 -254.26)"/>
      <path id="Trazado_129135" data-name="Trazado 129135" d="M431.367,361.785a5.413,5.413,0,0,1-3.977-1.665,2,2,0,0,0-2.97,2.692,9.479,9.479,0,0,0,6.947,2.982,6.509,6.509,0,0,0,6.64-5.049c.393-2.2-.6-5.081-4.585-6.55-1.918-.707-3.7-1.477-4.26-1.721a1.045,1.045,0,0,1-.363-.975,1.531,1.531,0,0,1,1.215-1.219,5.173,5.173,0,0,1,4.273.989,2,2,0,0,0,2.568-3.077c-.149-.125-3.692-3.046-8-1.75a5.558,5.558,0,0,0-4.027,4.488,5.026,5.026,0,0,0,2.242,4.975,1.966,1.966,0,0,0,.278.151c.091.041,2.251,1,4.683,1.9.677.25,2.229.952,2.027,2.085A2.6,2.6,0,0,1,431.367,361.785Z" transform="translate(-310.629 -253.626)"/>
      <path id="Trazado_129136" data-name="Trazado 129136" d="M166.546,151.532H137.462V118.7a4.682,4.682,0,0,0-4.676-4.676H53.456A4.682,4.682,0,0,0,48.78,118.7V161.56a4.682,4.682,0,0,0,4.676,4.676h48.874v48.122a6.019,6.019,0,0,0,6.012,6.012h58.2a6.019,6.019,0,0,0,6.012-6.012V189.873a2,2,0,0,0-4.008,0v24.486a2.006,2.006,0,0,1-2,2h-58.2a2.006,2.006,0,0,1-2-2V157.544a2.006,2.006,0,0,1,2-2h43.02v11.175a6.019,6.019,0,0,0,6.012,6.012H168.55v7.594a2,2,0,0,0,4.008,0V157.544A6.019,6.019,0,0,0,166.546,151.532Zm-64.215,6.012v4.684H53.456a.669.669,0,0,1-.668-.668V118.7a.669.669,0,0,1,.668-.668h79.33a.669.669,0,0,1,.668.668v32.828H108.343A6.019,6.019,0,0,0,102.331,157.544Zm55.044,11.175a2.006,2.006,0,0,1-2-2V155.54h11.175a2.006,2.006,0,0,1,2,2v11.175Z" transform="translate(-35.745 -83.558)"/>
      <path id="Trazado_129137" data-name="Trazado 129137" d="M333.748,433.837H286.2a2,2,0,0,0,0,4.008h47.549a2,2,0,0,0,0-4.008Z" transform="translate(-208.255 -317.91)"/>
      <path id="Trazado_129138" data-name="Trazado 129138" d="M333.748,464.7H286.2a2,2,0,0,0,0,4.008h47.549a2,2,0,0,0,0-4.008Z" transform="translate(-208.255 -340.527)"/>
    </g>
  </g>
</svg>
