<svg xmlns="http://www.w3.org/2000/svg" width="215" height="215" viewBox="0 0 215 215">
  <g id="Grupo_69873" data-name="Grupo 69873" transform="translate(-1668 10836)">
    <rect id="Rectángulo_7857" data-name="Rectángulo 7857" width="215" height="215" rx="10" transform="translate(1668 -10836)" fill="#fff"/>
    <g id="foto" transform="translate(1694.934 -10816.14)">
      <g id="Grupo_69846" data-name="Grupo 69846" transform="translate(67.529 31.039)">
        <path id="Trazado_129139" data-name="Trazado 129139" d="M272.006,39.555c-.607-1.675-1.461-3.239-3.239-3.239H234.179c-1.786,0-2.632,1.564-3.239,3.239L227.8,48.247l24.375,2.795,22.981-2.795Z" transform="translate(-227.795 -36.316)" fill="#7e707d" fill-rule="evenodd"/>
      </g>
      <g id="Grupo_69847" data-name="Grupo 69847" transform="translate(96.066 31.038)">
        <path id="Trazado_129140" data-name="Trazado 129140" d="M342.877,48.246l-3.145-8.692c-.607-1.675-1.461-3.239-3.239-3.239H324.058c1.786,0,2.641,1.564,3.239,3.239l3.145,8.692Z" transform="translate(-324.058 -36.315)" fill="#6a5c6b" fill-rule="evenodd"/>
      </g>
      <g id="Grupo_69848" data-name="Grupo 69848" transform="translate(25.686 32.286)">
        <path id="Trazado_129141" data-name="Trazado 129141" d="M102.711,54V43.61a3.089,3.089,0,0,0-3.085-3.085H89.721a3.088,3.088,0,0,0-3.077,3.085V54Z" transform="translate(-86.644 -40.525)" fill="#7e707d" fill-rule="evenodd"/>
      </g>
      <g id="Grupo_69849" data-name="Grupo 69849" transform="translate(38.958 42.97)">
        <path id="Trazado_129142" data-name="Trazado 129142" d="M242.016,112.989V82.674a6.124,6.124,0,0,0-6.1-6.111h-104.5v36.426Z" transform="translate(-131.416 -76.563)" fill="#529ad9" fill-rule="evenodd"/>
      </g>
      <g id="Grupo_69850" data-name="Grupo 69850" transform="translate(38.958 92.404)">
        <path id="Trazado_129143" data-name="Trazado 129143" d="M242.017,272.353V243.32h-110.6v35.144h104.5A6.124,6.124,0,0,0,242.017,272.353Z" transform="translate(-131.417 -243.32)" fill="#529ad9" fill-rule="evenodd"/>
      </g>
      <g id="Grupo_69851" data-name="Grupo 69851" transform="translate(62.298 53.884)">
        <path id="Trazado_129144" data-name="Trazado 129144" d="M272.8,136.1a32.106,32.106,0,1,0,1.376,9.3A32.021,32.021,0,0,0,272.8,136.1Z" transform="translate(-210.15 -113.38)" fill="#7e707d" fill-rule="evenodd"/>
      </g>
      <g id="Grupo_69852" data-name="Grupo 69852" transform="translate(89.416 53.884)">
        <path id="Trazado_129145" data-name="Trazado 129145" d="M337.155,154.694a32.031,32.031,0,0,0-34.041-41.136,32.038,32.038,0,0,1,25.75,22.341,1.768,1.768,0,0,1,.06.2,32.119,32.119,0,0,1-.06,18.4,1.7,1.7,0,0,1-.06.2,32.032,32.032,0,0,1-27.178,22.341,33.005,33.005,0,0,0,4.889.368A32.013,32.013,0,0,0,337.155,154.694Z" transform="translate(-301.627 -113.379)" fill="#6a5c6b" fill-rule="evenodd"/>
      </g>
      <g id="Grupo_69853" data-name="Grupo 69853" transform="translate(133.158 42.97)">
        <path id="Trazado_129146" data-name="Trazado 129146" d="M465.58,82.674a6.124,6.124,0,0,0-6.1-6.111h-10.3a6.131,6.131,0,0,1,6.111,6.111v27.521h10.29Z" transform="translate(-449.179 -76.563)" fill="#75cef9" fill-rule="evenodd"/>
      </g>
      <g id="Grupo_69854" data-name="Grupo 69854" transform="translate(133.166 95.199)">
        <path id="Trazado_129147" data-name="Trazado 129147" d="M465.6,278.985V252.747H455.31v26.238a6.135,6.135,0,0,1-6.1,6.111H459.5A6.124,6.124,0,0,0,465.6,278.985Z" transform="translate(-449.208 -252.747)" fill="#75cef9" fill-rule="evenodd"/>
      </g>
      <g id="Grupo_69855" data-name="Grupo 69855" transform="translate(73.982 65.567)">
        <path id="Trazado_129148" data-name="Trazado 129148" d="M290.216,173.124a20.313,20.313,0,1,0-2.248,9.3A20.246,20.246,0,0,0,290.216,173.124Z" transform="translate(-249.561 -152.791)" fill="#eff6ff" fill-rule="evenodd"/>
      </g>
      <g id="Grupo_69856" data-name="Grupo 69856" transform="translate(88.553 65.567)">
        <path id="Trazado_129149" data-name="Trazado 129149" d="M324.8,173.124a20.336,20.336,0,0,0-26.084-19.5,20.341,20.341,0,0,1,14.443,10.2c.1.179.2.368.3.547a20.447,20.447,0,0,1,.273,18.051c-.094.179-.179.368-.274.547a20.4,20.4,0,0,1-12.332,10.2,20.368,20.368,0,0,0,21.426-10.751A20.243,20.243,0,0,0,324.8,173.124Z" transform="translate(-298.716 -152.791)" fill="#d9eeff" fill-rule="evenodd"/>
      </g>
      <g id="Grupo_69857" data-name="Grupo 69857" transform="translate(37.095 76.601)">
        <path id="Trazado_129150" data-name="Trazado 129150" d="M151.711,208.609a32.106,32.106,0,0,1,0-18.6H129.79l-4.658,7.889,4.658,10.709Z" transform="translate(-125.132 -190.011)" fill="#ffbc85" fill-rule="evenodd"/>
      </g>
      <g id="Grupo_69858" data-name="Grupo 69858" transform="translate(124.944 76.601)">
        <path id="Trazado_129151" data-name="Trazado 129151" d="M446.087,208.609v-18.6H421.473a32.106,32.106,0,0,1,0,18.6h24.614Z" transform="translate(-421.473 -190.012)" fill="#f3f095" fill-rule="evenodd"/>
      </g>
      <g id="Grupo_69859" data-name="Grupo 69859" transform="translate(139.268 76.601)">
        <path id="Trazado_129152" data-name="Trazado 129152" d="M480.082,205.815v-15.8h-10.29v18.6h10.29Z" transform="translate(-469.792 -190.012)" fill="#f7f5ed" fill-rule="evenodd"/>
      </g>
      <g id="Grupo_69860" data-name="Grupo 69860" transform="translate(18.626 42.97)">
        <path id="Trazado_129153" data-name="Trazado 129153" d="M85.958,110.194V76.563H69.89c-3.795,0-7.059,1.923-7.059,6.111V98.4L70,118.083c.325.9-5.965,17.939-7.17,20.264V155.03a6.124,6.124,0,0,0,6.1,6.111H85.958V110.194Z" transform="translate(-62.831 -76.563)" fill="#fde588" fill-rule="evenodd"/>
      </g>
      <g id="Grupo_69861" data-name="Grupo 69861" transform="translate(18.626 64.807)">
        <path id="Trazado_129154" data-name="Trazado 129154" d="M73.983,188.523V151.875a1.656,1.656,0,0,0-1.649-1.649h-9.5v39.947h9.5A1.656,1.656,0,0,0,73.983,188.523Z" transform="translate(-62.83 -150.226)" fill="#7e707d" fill-rule="evenodd"/>
      </g>
      <g id="Grupo_69862" data-name="Grupo 69862" transform="translate(34.608 42.97)">
        <path id="Trazado_129155" data-name="Trazado 129155" d="M123.887,110.194V76.563h-7.145v84.578h7.145V110.194Z" transform="translate(-116.742 -76.563)" fill="#fdd76f" fill-rule="evenodd"/>
      </g>
      <g id="Grupo_69863" data-name="Grupo 69863" transform="translate(31.531 32.286)">
        <path id="Trazado_129156" data-name="Trazado 129156" d="M116.585,43.61a3.089,3.089,0,0,0-3.085-3.085h-7.136a3.088,3.088,0,0,1,3.077,3.085v7.6h7.145v-7.6Z" transform="translate(-106.363 -40.525)" fill="#6a5c6b" fill-rule="evenodd"/>
      </g>
      <g id="Grupo_69864" data-name="Grupo 69864" transform="translate(2.225 88.089)">
        <path id="Trazado_129157" data-name="Trazado 129157" d="M82.73,284.8,72.739,233.3a5.614,5.614,0,0,0-6.555-4.436l-54.15,10.5a5.611,5.611,0,0,0-4.427,6.564l9.982,51.5a5.623,5.623,0,0,0,6.564,4.427l54.15-10.5A5.611,5.611,0,0,0,82.73,284.8Z" transform="translate(-7.503 -228.766)" fill="#eff6ff" fill-rule="evenodd"/>
      </g>
      <g id="Grupo_69865" data-name="Grupo 69865" transform="translate(17.404 113.471)">
        <path id="Trazado_129158" data-name="Trazado 129158" d="M64.193,349.924l41.237-8c1.017-.2,1.735-.983,1.581-1.743l-2.966-14.9-2.171-10.9-7.4,1.436c-6.2,1.205-9.581,2.786-12.051,4.53a28.439,28.439,0,0,0-2.795,2.273c-.983.88-1.94,1.769-3.085,2.658-3.128,2.419-7.657,4.777-17.837,6.6l2.179,10.888,1.188,6.128A1.707,1.707,0,0,0,64.193,349.924Z" transform="translate(-58.706 -314.387)" fill="#a6e0fa" fill-rule="evenodd"/>
      </g>
      <g id="Grupo_69866" data-name="Grupo 69866" transform="translate(13.189 100.23)">
        <path id="Trazado_129159" data-name="Trazado 129159" d="M67.172,297.037c1.145-.889,2.1-1.786,3.085-2.667a30.992,30.992,0,0,1,2.795-2.273c2.47-1.735,5.854-3.316,12.059-4.521L92.5,286.14l-3.051-15.35a1.711,1.711,0,0,0-2.12-1.026l-14.281,2.769-2.795.547-4.35.837-15.982,3.1-3.837.743c-1.017.2-1.726.983-1.581,1.743l4.829,24.127c10.179-1.829,14.709-4.188,17.837-6.6Z" transform="translate(-44.487 -269.719)" fill="#fde588" fill-rule="evenodd"/>
      </g>
      <g id="Grupo_69867" data-name="Grupo 69867" transform="translate(49.786 100.23)">
        <path id="Trazado_129160" data-name="Trazado 129160" d="M179.361,286.14l-3.051-15.35a1.711,1.711,0,0,0-2.12-1.026l-6.248,1.214a1.692,1.692,0,0,1,2.094,1.034l3.06,15.341Z" transform="translate(-167.943 -269.719)" fill="#fdd76f" fill-rule="evenodd"/>
      </g>
      <g id="Grupo_69868" data-name="Grupo 69868" transform="translate(54.94 116.651)">
        <path id="Trazado_129161" data-name="Trazado 129161" d="M193.763,336.009l-2.171-10.9-6.264,1.214,1.923,9.683.248,1.214,2.333,11.718c.145.761-.564,1.547-1.581,1.743l6.264-1.214c1.017-.2,1.735-.983,1.581-1.743Z" transform="translate(-185.328 -325.112)" fill="#75cef9" fill-rule="evenodd"/>
      </g>
      <g id="Grupo_69869" data-name="Grupo 69869" transform="translate(47.368 88.09)">
        <path id="Trazado_129162" data-name="Trazado 129162" d="M182.672,247.7,179.878,233.3a1.709,1.709,0,0,0-.043-.222,5.633,5.633,0,0,0-5.043-4.3,5.7,5.7,0,0,0-1.47.085L159.785,231.5a5.619,5.619,0,0,1,6.538,4.376c0,.017.009.034.009.051l1.017,5.239,1.1-.214a1.711,1.711,0,0,1,2.12,1.026l3.051,15.35,2.171,10.9,2.333,11.718c.154.761-.564,1.547-1.581,1.743l-1.29.248,1.068,5.5a5.622,5.622,0,0,1-4.4,6.555l13.521-2.624a5.611,5.611,0,0,0,4.427-6.564l-3.213-16.572Z" transform="translate(-159.785 -228.768)" fill="#d9eeff" fill-rule="evenodd"/>
      </g>
      <g id="Grupo_69870" data-name="Grupo 69870" transform="translate(0.001 28.815)">
        <path id="Trazado_129163" data-name="Trazado 129163" d="M429.561,109.109H422.51a2.223,2.223,0,1,0,0,4.447h7.051a2.223,2.223,0,0,0,0-4.447Z" transform="translate(-295.695 -85.306)"/>
        <path id="Trazado_129164" data-name="Trazado 129164" d="M264.608,145.291a22.552,22.552,0,1,0,22.555,22.556A22.577,22.577,0,0,0,264.608,145.291Zm0,40.657a18.105,18.105,0,1,1,18.109-18.1A18.121,18.121,0,0,1,264.608,185.948Z" transform="translate(-170.303 -110.762)"/>
        <path id="Trazado_129165" data-name="Trazado 129165" d="M143.456,40.746H116.445L113.83,33.52c-.422-1.164-1.7-4.705-5.329-4.705H73.913c-3.625,0-4.908,3.541-5.33,4.706l-2.614,7.225H43.977V35.372a5.314,5.314,0,0,0-5.308-5.308H28.762a5.31,5.31,0,0,0-5.3,5.308v5.471A8.344,8.344,0,0,0,16.4,49.081V94.558L6.33,96.512a7.83,7.83,0,0,0-6.184,9.169l9.983,51.506A7.833,7.833,0,0,0,19.3,163.37l21.716-4.213a2.223,2.223,0,1,0-.847-4.365L18.455,159a3.387,3.387,0,0,1-3.961-2.667l-9.983-51.5a3.379,3.379,0,0,1,2.668-3.956l54.148-10.5a3.391,3.391,0,0,1,3.952,2.677l9.991,51.5A3.379,3.379,0,0,1,72.6,148.5l-21.725,4.213a2.224,2.224,0,0,0,.847,4.366l21.727-4.214a7.83,7.83,0,0,0,6.184-9.17l-2.7-13.925h24.817a2.223,2.223,0,0,0,0-4.447H76.07l-2.343-12.075a34.231,34.231,0,0,0,52.819-15.827h20.789v24.015a3.887,3.887,0,0,1-3.879,3.888H112.637a2.223,2.223,0,1,0,0,4.447h30.819a8.339,8.339,0,0,0,8.325-8.334V49.081a8.339,8.339,0,0,0-8.325-8.334ZM72.765,35.035c.426-1.177.813-1.773,1.149-1.773H108.5c.418,0,.856.964,1.148,1.772l2.067,5.713H70.7ZM60.075,85.9c0,.062,0,.124,0,.186l-16.1,3.124V78.824H60.812a34.249,34.249,0,0,0-.737,7.075ZM27.909,35.372a.869.869,0,0,1,.853-.862h9.905a.863.863,0,0,1,.862.862v5.375H27.909V35.372ZM20.85,49.081a3.888,3.888,0,0,1,3.879-3.887h14.8V90.072L32,91.532V66.456a3.877,3.877,0,0,0-3.873-3.873H20.85Zm0,17.949h6.706V92.395L20.85,93.7Zm73.455,48.654a29.791,29.791,0,0,1-21.988-9.7L69.644,92.207a7.758,7.758,0,0,0-3.3-4.993,7.908,7.908,0,0,0-1.812-.911c0-.134-.007-.268-.007-.4a29.787,29.787,0,1,1,29.783,29.784Zm53.03-22.709H127.806a34.326,34.326,0,0,0,0-14.151h19.528Zm0-18.6H126.546a34.232,34.232,0,0,0-64.475,0h-18.1V45.193h99.48a3.887,3.887,0,0,1,3.879,3.887Z" transform="translate(-0.001 -28.815)"/>
        <path id="Trazado_129166" data-name="Trazado 129166" d="M93.379,305.605a3.387,3.387,0,0,0,.535-2.564L86.358,265.07a3.868,3.868,0,0,0-4.722-2.768l-41.244,8a3.857,3.857,0,0,0-3.339,4.363l7.56,37.945a3.4,3.4,0,0,0,1.461,2.176,4.236,4.236,0,0,0,2.375.7,4.688,4.688,0,0,0,.891-.086l41.235-8a4.364,4.364,0,0,0,2.8-1.8Zm-47.567-9.847L41.575,274.6l40.58-7.871L84.617,279.1l-5.2,1.011c-9.924,1.924-13.218,4.9-16.4,7.77C59.924,290.667,56.736,293.539,45.812,295.758Zm3.012,15.214-1.036-5.343-1.1-5.511c12.135-2.47,15.934-5.892,19.3-8.932,2.985-2.692,5.562-5.017,14.273-6.706l5.223-1.015L89.392,303.1Z" transform="translate(-26.025 -193.025)"/>
      </g>
    </g>
  </g>
</svg>
