<svg xmlns="http://www.w3.org/2000/svg" width="215" height="215" viewBox="0 0 215 215">
  <g id="Grupo_69765" data-name="Grupo 69765" transform="translate(-1074 -564)">
    <rect id="Rectángulo_7855" data-name="Rectángulo 7855" width="215" height="215" rx="10" transform="translate(1074 564)" fill="#fff"/>
    <g id="navegador-web" transform="translate(1108.112 577.996)">
      <g id="Grupo_69763" data-name="Grupo 69763" transform="translate(2.15 33.154)">
        <path id="Trazado_129034" data-name="Trazado 129034" d="M292.863,49.371V115.96a11.348,11.348,0,0,1-11.347,11.347h-62.36A11.348,11.348,0,0,1,207.81,115.96V49.371A10.867,10.867,0,0,1,218.677,38.5H282a10.867,10.867,0,0,1,10.867,10.867Z" transform="translate(-150.386 -38.504)" fill="#f7f5ed"/>
        <path id="Trazado_129035" data-name="Trazado 129035" d="M446.239,38.5h-7.7a10.867,10.867,0,0,1,10.867,10.867V115.96a11.348,11.348,0,0,1-11.347,11.347h7.7a11.348,11.348,0,0,0,11.347-11.347V49.371A10.867,10.867,0,0,0,446.239,38.5Z" transform="translate(-314.629 -38.504)" fill="#e5dec1"/>
        <path id="Trazado_129036" data-name="Trazado 129036" d="M129.888,167.185v66.589a11.348,11.348,0,0,1-11.347,11.347H18.847A11.348,11.348,0,0,1,7.5,233.774V167.185a10.867,10.867,0,0,1,10.867-10.867H119.021A10.867,10.867,0,0,1,129.888,167.185Z" transform="translate(-7.5 -122.544)" fill="#edf5fa"/>
        <path id="Trazado_129037" data-name="Trazado 129037" d="M375.707,156.318h-7.884a10.867,10.867,0,0,1,10.867,10.867v66.589a11.348,11.348,0,0,1-11.347,11.347h7.884a11.348,11.348,0,0,0,11.347-11.347V167.185A10.867,10.867,0,0,0,375.707,156.318Z" transform="translate(-264.186 -122.544)" fill="#d0e7f2"/>
        <path id="Trazado_129038" data-name="Trazado 129038" d="M129.888,167.185v4.99H7.5v-4.99a10.867,10.867,0,0,1,10.867-10.867H119.021A10.867,10.867,0,0,1,129.888,167.185Z" transform="translate(-7.5 -122.544)" fill="#f3f095"/>
        <path id="Trazado_129039" data-name="Trazado 129039" d="M376.9,156.318h-7.884a10.867,10.867,0,0,1,10.867,10.867v4.99h7.884v-4.99A10.867,10.867,0,0,0,376.9,156.318Z" transform="translate(-265.38 -122.544)" fill="#fffeef"/>
        <path id="Trazado_129040" data-name="Trazado 129040" d="M292.863,49.371v4.99H207.81v-4.99A10.867,10.867,0,0,1,218.677,38.5H282A10.867,10.867,0,0,1,292.863,49.371Z" transform="translate(-150.386 -38.504)" fill="#a0a603"/>
        <path id="Trazado_129041" data-name="Trazado 129041" d="M447.407,38.5H439.7a10.867,10.867,0,0,1,10.867,10.867v4.99h7.71v-4.99A10.867,10.867,0,0,0,447.407,38.5Z" transform="translate(-315.798 -38.504)" fill="#a0a603"/>
        <circle id="Elipse_5201" data-name="Elipse 5201" cx="25.341" cy="25.341" r="25.341" transform="translate(12.296 59.408)" fill="#529ad9"/>
        <path id="Trazado_129042" data-name="Trazado 129042" d="M129.909,245.735a25.538,25.538,0,0,0-3.57.251,25.343,25.343,0,0,1,0,50.18,25.342,25.342,0,1,0,3.57-50.431Z" transform="translate(-92.271 -186.327)" fill="#529ad9"/>
        <path id="Trazado_129043" data-name="Trazado 129043" d="M348.969,376.2,329.937,357.17h7.92a4.587,4.587,0,1,0,0-9.174H318.863a4.621,4.621,0,0,0-4.587,4.587v18.993a4.587,4.587,0,0,0,9.174,0v-7.92l19.032,19.032a4.672,4.672,0,0,0,6.487,0,4.587,4.587,0,0,0,0-6.487Z" transform="translate(-226.331 -259.273)" fill="#f3f095"/>
        <g id="Grupo_69762" data-name="Grupo 69762" transform="translate(98.595 88.723)">
          <path id="Trazado_129044" data-name="Trazado 129044" d="M379.82,352.8a4.671,4.671,0,0,1-4.71,4.363h6.141a4.587,4.587,0,1,0,0-9.174h-6.012a4.589,4.589,0,0,1,4.581,4.81Z" transform="translate(-368.321 -347.994)" fill="#f3f095"/>
          <path id="Trazado_129045" data-name="Trazado 129045" d="M375.47,399.026,356.44,379.994h-4.3a.71.71,0,0,0-.5,1.213l17.82,17.82a4.589,4.589,0,0,1,.918,5.176l-.007.014a1.441,1.441,0,0,1-2.309.369l-.574-.57c1.812,2.323,5.072,4.076,7.983,1.5A4.587,4.587,0,0,0,375.47,399.026Z" transform="translate(-351.429 -370.82)" fill="#f3f095"/>
        </g>
        <path id="Trazado_129046" data-name="Trazado 129046" d="M298.053,294.422H275.5a3.841,3.841,0,0,1-3.841-3.841v-3.117a3.841,3.841,0,0,1,3.841-3.841h22.554a3.841,3.841,0,0,1,3.841,3.841v3.117A3.84,3.84,0,0,1,298.053,294.422Z" transform="translate(-195.931 -213.355)" fill="#00f2a6"/>
        <path id="Trazado_129047" data-name="Trazado 129047" d="M344.069,283.623h-7.9a3.841,3.841,0,0,1,3.841,3.841v3.117a3.841,3.841,0,0,1-3.841,3.841h7.9a3.841,3.841,0,0,0,3.841-3.841v-3.117A3.84,3.84,0,0,0,344.069,283.623Z" transform="translate(-241.948 -213.354)" fill="#05e39c"/>
      </g>
      <g id="Grupo_69764" data-name="Grupo 69764" transform="translate(0 31.004)">
        <path id="Trazado_129048" data-name="Trazado 129048" d="M62.788,177.073H52.549a2.15,2.15,0,1,0,0,4.3H62.788a2.15,2.15,0,1,0,0-4.3Z" transform="translate(-35.951 -135.199)"/>
        <path id="Trazado_129049" data-name="Trazado 129049" d="M133.76,31H70.441A13.032,13.032,0,0,0,57.424,44.021h0V56.943a2.15,2.15,0,1,0,4.3,0V51.161h80.753V110.61a9.207,9.207,0,0,1-9.2,9.2h-6.593V77.8a13.04,13.04,0,0,0-13.016-13.018H13.018A13.033,13.033,0,0,0,0,77.8H0v66.588a13.512,13.512,0,0,0,13.5,13.5h91.558a2.15,2.15,0,1,0,0-4.3H13.5a9.207,9.207,0,0,1-9.2-9.2V84.936H122.387v59.448c0,.084,0,.168-.006.252L110.946,133.2h2.729a6.737,6.737,0,0,0,0-13.474H94.667a6.842,6.842,0,0,0-4.831,2.073,6.485,6.485,0,0,0-1.89,4.684v18.973a6.737,6.737,0,1,0,13.474,0v-2.729l15.361,15.361a6.885,6.885,0,0,0,9.527,0,6.737,6.737,0,0,0,0-9.527l-.215-.215a13.426,13.426,0,0,0,.594-3.964V124.107h6.593a13.512,13.512,0,0,0,13.5-13.5V44.022h0A13.032,13.032,0,0,0,133.76,31ZM123.28,155.036a2.545,2.545,0,0,1-3.472,0L100.79,136.018a2.15,2.15,0,0,0-3.671,1.52v7.92a2.437,2.437,0,1,1-4.873,0V126.465c0-.015,0-.029,0-.044a2.2,2.2,0,0,1,.656-1.6,2.6,2.6,0,0,1,1.774-.788h19a2.437,2.437,0,1,1,0,4.873h-7.92a2.15,2.15,0,0,0-1.521,3.67l17.805,17.805C123.32,151.544,124.887,153.033,123.28,155.036ZM4.3,80.635V77.8c0-.094,0-.187.007-.28,0-.056,0-.112,0-.168a8.728,8.728,0,0,1,8.706-8.269H113.671a8.725,8.725,0,0,1,8.716,8.717v2.841H4.3ZM61.724,46.861v-2.84A8.728,8.728,0,0,1,70.441,35.3h63.318a8.727,8.727,0,0,1,8.718,8.718v2.84Z" transform="translate(0 -31.004)"/>
        <path id="Trazado_129050" data-name="Trazado 129050" d="M263.1,59.26H252.859a2.15,2.15,0,1,0,0,4.3H263.1a2.15,2.15,0,1,0,0-4.3Z" transform="translate(-178.837 -51.16)"/>
        <path id="Trazado_129051" data-name="Trazado 129051" d="M90.266,246.765a27.446,27.446,0,0,0-39.478-.308c-14.593,15.051-7.747,38.764,10.427,45.188,9.369,3.577,21.515.8,28.389-6.292a27.443,27.443,0,0,0,.661-38.589ZM54.875,282.957a45.557,45.557,0,0,1,1.566-15.688,38.419,38.419,0,0,0,5.9,6.649A93.755,93.755,0,0,0,56.788,284.5,23.252,23.252,0,0,1,54.875,282.957Zm5.635,3.75a89.162,89.162,0,0,1,5.212-10.063,49.539,49.539,0,0,0,7.079,4.274,35.665,35.665,0,0,1-10.929,6.376c-.461-.182-.916-.376-1.362-.587Zm6.2-14.662a35.2,35.2,0,0,1-8.334-9.751,29.16,29.16,0,0,1,9.17-10.862,34.847,34.847,0,0,1,14.118-5.954,23.273,23.273,0,0,1,3.548,2.441,90.1,90.1,0,0,0-7.868,7,2.15,2.15,0,0,0-.008,3.041,2.215,2.215,0,0,0,3.04.008,84.914,84.914,0,0,1,7.893-6.978,23.3,23.3,0,0,1,1.76,2.448c-.994,3.26-5.061,15.152-13.9,24.354A43.713,43.713,0,0,1,66.713,272.045Zm7.876-29.121a38.411,38.411,0,0,0-9.408,4.914,33.254,33.254,0,0,0-9.031,9.662,29.394,29.394,0,0,1-1.81-8.5,23.092,23.092,0,0,1,20.248-6.071ZM50.6,253.628a35.91,35.91,0,0,0,3.019,8.867,44.391,44.391,0,0,0-3.1,15.2,23.142,23.142,0,0,1,.079-24.066Zm18.213,35.23a42.938,42.938,0,0,0,8.3-6.012c2.1.84,4.178,1.543,6.19,2.127a23.059,23.059,0,0,1-12.923,3.944c-.526,0-1.047-.024-1.564-.059Zm18.462-7.273a67.6,67.6,0,0,1-6.88-2.06,59.6,59.6,0,0,0,7.218-9.974,73.8,73.8,0,0,0,5-10.414,23.125,23.125,0,0,1-5.335,22.447Z" transform="translate(-30.589 -178.826)"/>
        <path id="Trazado_129052" data-name="Trazado 129052" d="M136.188,319.367a2.527,2.527,0,1,0,2.527,2.527A2.527,2.527,0,0,0,136.188,319.367Z" transform="translate(-95.344 -236.701)"/>
        <path id="Trazado_129053" data-name="Trazado 129053" d="M384.246,177.606a2.115,2.115,0,1,0,2.115,2.115A2.115,2.115,0,0,0,384.246,177.606Z" transform="translate(-272.584 -135.579)"/>
        <path id="Trazado_129054" data-name="Trazado 129054" d="M360.986,177.606a2.115,2.115,0,1,0,2.115,2.115A2.115,2.115,0,0,0,360.986,177.606Z" transform="translate(-255.992 -135.579)"/>
        <circle id="Elipse_5202" data-name="Elipse 5202" cx="2.115" cy="2.115" r="2.115" transform="translate(130.882 8.135)"/>
        <path id="Trazado_129055" data-name="Trazado 129055" d="M298.694,285.231v-3.117a6,6,0,0,0-5.991-5.991H270.15a6,6,0,0,0-5.991,5.991v3.117a6,6,0,0,0,5.991,5.991H292.7A6,6,0,0,0,298.694,285.231Zm-30.235,0v-3.117a1.692,1.692,0,0,1,1.69-1.691H292.7a1.692,1.692,0,0,1,1.69,1.691v3.117a1.692,1.692,0,0,1-1.69,1.691H270.149A1.692,1.692,0,0,1,268.459,285.231Z" transform="translate(-188.432 -205.854)"/>
      </g>
    </g>
  </g>
</svg>
