<svg xmlns="http://www.w3.org/2000/svg" width="87" height="87" viewBox="0 0 87 87">
  <g id="Grupo_72403" data-name="Grupo 72403" transform="translate(-757 -3080)">
    <g id="mapa_1_" data-name="mapa (1)" transform="translate(768.355 3091.855)">
      <path id="Trazado_128023" data-name="Trazado 128023" d="M67.923,227.957H12.933a2.433,2.433,0,0,1-2.433-2.433V192.433A2.433,2.433,0,0,1,12.933,190h54.99a2.433,2.433,0,0,1,2.433,2.433v33.091A2.433,2.433,0,0,1,67.923,227.957Zm0,0" transform="translate(-8.783 -166.885)" fill="#c9f3ff"/>
      <g id="Grupo_69100" data-name="Grupo 69100" transform="translate(1.717 23.156)">
        <path id="Trazado_128024" data-name="Trazado 128024" d="M20.893,383.262H20.41a2.056,2.056,0,0,1-2.056-2.056v-2.771A2.436,2.436,0,0,0,15.919,376H10.5v12.9a2.433,2.433,0,0,0,2.433,2.433H25.3v-3.658A4.408,4.408,0,0,0,20.893,383.262Zm0,0" transform="translate(-10.5 -353.412)" fill="#36d28f"/>
        <path id="Trazado_128025" data-name="Trazado 128025" d="M25.636,230H10.5v12.068h9.47a2.833,2.833,0,0,0,2.833-2.833v-.116a2.833,2.833,0,0,1,2.833-2.833,2.833,2.833,0,0,0,2.833-2.833v-.62A2.833,2.833,0,0,0,25.636,230Zm0,0" transform="translate(-10.5 -225.174)" fill="#36d28f"/>
        <path id="Trazado_128026" data-name="Trazado 128026" d="M309.385,195.1a1.77,1.77,0,0,1-1.77,1.77A3.131,3.131,0,0,0,304.484,200a3.812,3.812,0,0,0,3.812,3.812h20.278V192.725a2.433,2.433,0,0,0-2-2.393H314.15A4.765,4.765,0,0,0,309.385,195.1Zm0,0" transform="translate(-268.719 -190.332)" fill="#36d28f"/>
        <path id="Trazado_128027" data-name="Trazado 128027" d="M253.363,301.113h-9.372a4.159,4.159,0,0,0-4.159,4.16v1.335a3.815,3.815,0,0,0,3.815,3.815,2.926,2.926,0,0,1,2.926,2.926v5.238a2.054,2.054,0,0,0,3.577,1.377,2.624,2.624,0,0,1,1.946-.864,2.623,2.623,0,0,0,2.623-2.623v-3.794a1.826,1.826,0,0,1,1.826-1.826h.843a1.826,1.826,0,0,0,1.826-1.826v-2.068a1.826,1.826,0,0,0-1.826-1.826,1.826,1.826,0,0,1-1.826-1.826A2.2,2.2,0,0,0,253.363,301.113Zm0,0" transform="translate(-211.932 -287.636)" fill="#36d28f"/>
      </g>
      <path id="Trazado_128028" data-name="Trazado 128028" d="M256.5,22.168a12.166,12.166,0,1,1,21.6,7.68h0l-8.477,10.865a1.217,1.217,0,0,1-1.918,0l-8.431-10.8h.007A12.115,12.115,0,0,1,256.5,22.168Zm0,0" transform="translate(-224.855 -8.785)" fill="#ff5d5d"/>
      <path id="Trazado_128029" data-name="Trazado 128029" d="M317.152,64.326A6.326,6.326,0,1,1,310.826,58,6.326,6.326,0,0,1,317.152,64.326Zm0,0" transform="translate(-267.016 -50.944)" fill="#fff"/>
      <path id="Trazado_128030" data-name="Trazado 128030" d="M393.377,492a1.217,1.217,0,1,0,.86.356A1.226,1.226,0,0,0,393.377,492Zm0,0" transform="translate(-344.011 -432.144)"/>
      <path id="Trazado_128031" data-name="Trazado 128031" d="M59.139,21.9h-5l.068-.087.01-.012a13.382,13.382,0,1,0-20.805,0c.016.025.033.048.052.072l.019.024H4.15A3.654,3.654,0,0,0,.5,25.548V58.639a3.654,3.654,0,0,0,3.65,3.65H43.81a1.217,1.217,0,1,0,0-2.433H17.735V57.414a5.632,5.632,0,0,0-5.625-5.625h-.483a.84.84,0,0,1-.839-.839V48.179a3.657,3.657,0,0,0-3.652-3.652h-4.2V41.266h8.253a4.054,4.054,0,0,0,4.049-4.049V37.1a1.618,1.618,0,0,1,1.617-1.616,4.054,4.054,0,0,0,4.049-4.05v-.62a4.054,4.054,0,0,0-4.049-4.049H2.933V25.548A1.218,1.218,0,0,1,4.15,24.332H35.378l3.511,4.5a4.355,4.355,0,0,0-2.625,3.991,5,5,0,0,0,.723,2.6H33.776A5.382,5.382,0,0,0,28.4,40.793v1.335a5.038,5.038,0,0,0,5.032,5.032,1.712,1.712,0,0,1,1.71,1.71v5.238a3.248,3.248,0,0,0,2.1,3.052,3.286,3.286,0,0,0,1.185.222A3.248,3.248,0,0,0,40.838,56.3a1.409,1.409,0,0,1,1.043-.463A3.844,3.844,0,0,0,45.721,52V48.2a.61.61,0,0,1,.609-.609h.843a3.046,3.046,0,0,0,3.043-3.042V42.484a3.046,3.046,0,0,0-3.043-3.042.61.61,0,0,1-.609-.609,3.412,3.412,0,0,0-.144-.983H60.356v20.79a1.218,1.218,0,0,1-1.217,1.217h-4.1a1.217,1.217,0,1,0,0,2.433h4.1a3.654,3.654,0,0,0,3.65-3.65V25.548A3.654,3.654,0,0,0,59.139,21.9Zm-52,25.062a1.221,1.221,0,0,1,1.219,1.219V50.95a3.277,3.277,0,0,0,3.272,3.273h.483A3.2,3.2,0,0,1,15.3,57.415v2.441H4.15a1.218,1.218,0,0,1-1.217-1.217V46.96ZM16.853,29.2a1.618,1.618,0,0,1,1.616,1.616v.62a1.618,1.618,0,0,1-1.616,1.616A4.054,4.054,0,0,0,12.8,37.1v.116a1.618,1.618,0,0,1-1.616,1.617H2.933V29.2ZM32.861,13.382a10.949,10.949,0,0,1,11.1-10.948A10.949,10.949,0,0,1,52.3,20.294c-.014.017-.028.034-.04.052L43.81,31.179,35.453,20.473a1.159,1.159,0,0,0-.089-.122A10.965,10.965,0,0,1,32.861,13.382Zm11.27,25.45a3.046,3.046,0,0,0,3.042,3.042.61.61,0,0,1,.61.609v2.068a.61.61,0,0,1-.61.609h-.843A3.046,3.046,0,0,0,43.288,48.2V52A1.408,1.408,0,0,1,41.881,53.4a3.846,3.846,0,0,0-2.849,1.265.837.837,0,0,1-1.458-.561V48.87a4.148,4.148,0,0,0-4.143-4.143,2.6,2.6,0,0,1-2.6-2.6V40.792a2.946,2.946,0,0,1,2.943-2.943h9.372A.984.984,0,0,1,44.131,38.833Zm-.983-3.416H41.294a2.6,2.6,0,0,1-2.6-2.6,1.915,1.915,0,0,1,1.816-1.909l1.377,1.765a2.434,2.434,0,0,0,3.837,0l6.51-8.345h6.9a1.218,1.218,0,0,1,1.217,1.217v9.869Zm0,0" transform="translate(0 0)"/>
      <path id="Trazado_128032" data-name="Trazado 128032" d="M302.043,63.086a7.543,7.543,0,1,0-7.543-7.543A7.551,7.551,0,0,0,302.043,63.086Zm0-12.652a5.11,5.11,0,1,1-5.11,5.11A5.116,5.116,0,0,1,302.043,50.433Zm0,0" transform="translate(-258.232 -42.16)"/>
      <path id="Trazado_128033" data-name="Trazado 128033" d="M210.717,417.664a1.217,1.217,0,1,0,0,2.433h3.731a1.217,1.217,0,1,0,0-2.433Zm0,0" transform="translate(-183.573 -366.852)"/>
      <path id="Trazado_128034" data-name="Trazado 128034" d="M170.524,418.024a1.216,1.216,0,1,0,.86-.356A1.22,1.22,0,0,0,170.524,418.024Zm0,0" transform="translate(-149.026 -366.855)"/>
    </g>
    <rect id="Rectángulo_7975" data-name="Rectángulo 7975" width="87" height="87" transform="translate(757 3080)" fill="none"/>
  </g>
</svg>
