<svg xmlns="http://www.w3.org/2000/svg" width="88" height="94" viewBox="0 0 88 94">
  <g id="Grupo_68017" data-name="Grupo 68017" transform="translate(-451 -1352)">
    <g id="Grupo_68007" data-name="Grupo 68007" transform="translate(88 -1182)">
      <g id="Trazado_126960" data-name="Trazado 126960" transform="translate(374 2551)" fill="#529ad9">
        <path d="M 38.5 76 C 33.43708801269531 76 28.52615547180176 75.00864410400391 23.90361022949219 73.05347442626953 C 19.43825531005859 71.16478729248047 15.42775535583496 68.46076965332031 11.98348903656006 65.01651000976562 C 8.539233207702637 61.57224273681641 5.835211277008057 57.56174468994141 3.946522235870361 53.09638977050781 C 1.991355538368225 48.47384262084961 1 43.56291198730469 1 38.5 C 1 33.43708801269531 1.991355538368225 28.52615547180176 3.946522235870361 23.90361022949219 C 5.835211277008057 19.43825531005859 8.539233207702637 15.42775535583496 11.98348903656006 11.98348903656006 C 15.42775535583496 8.539233207702637 19.43825531005859 5.835211277008057 23.90361022949219 3.946522235870361 C 28.52615547180176 1.991355538368225 33.43708801269531 1 38.5 1 C 43.56291198730469 1 48.47384262084961 1.991355538368225 53.09638977050781 3.946522235870361 C 57.56174468994141 5.835211277008057 61.57224273681641 8.539233207702637 65.01651000976562 11.98348903656006 C 68.46076965332031 15.42775535583496 71.16478729248047 19.43825531005859 73.05347442626953 23.90361022949219 C 75.00864410400391 28.52615547180176 76 33.43708801269531 76 38.5 C 76 43.56291198730469 75.00864410400391 48.47384262084961 73.05347442626953 53.09638977050781 C 71.16478729248047 57.56174468994141 68.46076965332031 61.57224273681641 65.01651000976562 65.01651000976562 C 61.57224273681641 68.46076965332031 57.56174468994141 71.16478729248047 53.09638977050781 73.05347442626953 C 48.47384262084961 75.00864410400391 43.56291198730469 76 38.5 76 Z" stroke="none"/>
        <path d="M 38.5 2 C 33.57164764404297 2 28.79177474975586 2.964775085449219 24.29316329956055 4.867530822753906 C 19.9470100402832 6.705802917480469 16.04334259033203 9.337860107421875 12.69059753417969 12.69059753417969 C 9.337860107421875 16.04334259033203 6.705802917480469 19.9470100402832 4.867530822753906 24.29316329956055 C 2.964775085449219 28.79177474975586 2 33.57164764404297 2 38.5 C 2 43.42835235595703 2.964775085449219 48.20822143554688 4.867530822753906 52.70683288574219 C 6.705802917480469 57.05298614501953 9.337860107421875 60.95665740966797 12.69059753417969 64.30940246582031 C 16.04334259033203 67.66213989257812 19.9470100402832 70.29419708251953 24.29316329956055 72.13246917724609 C 28.79177474975586 74.03522491455078 33.57164764404297 75 38.5 75 C 43.42835235595703 75 48.20822143554688 74.03522491455078 52.70683288574219 72.13246917724609 C 57.05298614501953 70.29419708251953 60.95665740966797 67.66213989257812 64.30940246582031 64.30940246582031 C 67.66213989257812 60.95665740966797 70.29419708251953 57.05298614501953 72.13246917724609 52.70683288574219 C 74.03522491455078 48.20822143554688 75 43.42835235595703 75 38.5 C 75 33.57164764404297 74.03522491455078 28.79177474975586 72.13246917724609 24.29316329956055 C 70.29419708251953 19.9470100402832 67.66213989257812 16.04334259033203 64.30940246582031 12.69059753417969 C 60.95665740966797 9.337860107421875 57.05298614501953 6.705802917480469 52.70683288574219 4.867530822753906 C 48.20822143554688 2.964775085449219 43.42835235595703 2 38.5 2 M 38.5 0 C 59.76296234130859 0 77 17.23703384399414 77 38.5 C 77 59.76296234130859 59.76296234130859 77 38.5 77 C 17.23703384399414 77 0 59.76296234130859 0 38.5 C 0 17.23703384399414 17.23703384399414 0 38.5 0 Z" stroke="none" fill="#fff"/>
      </g>
      <g id="Layer_85" transform="translate(385.68 2553.84)">
        <g id="Grupo_67594" data-name="Grupo 67594" transform="translate(0 11.332)">
          <g id="Grupo_67545" data-name="Grupo 67545" transform="translate(2.899 3.229)">
            <g id="Grupo_67544" data-name="Grupo 67544">
              <path id="Trazado_125081" data-name="Trazado 125081" d="M52.32,34.962,37.5,49.783a1.106,1.106,0,1,1-1.565-1.565L50.755,33.4l-.877-2.191a22.569,22.569,0,1,0,4.633,4.632Z" transform="translate(-13.834 -26.745)" fill="#529ad9"/>
            </g>
          </g>
          <g id="Grupo_67547" data-name="Grupo 67547" transform="translate(38.059 0.524)">
            <g id="Grupo_67546" data-name="Grupo 67546">
              <path id="Trazado_125082" data-name="Trazado 125082" d="M188.622,17.965l-1.456-3.64a.782.782,0,0,0-1.279-.262l-4.023,4.023a.782.782,0,0,0-.173.843l1.705,4.262Z" transform="translate(-181.634 -13.834)" fill="#f5c84c"/>
            </g>
          </g>
          <g id="Grupo_67549" data-name="Grupo 67549" transform="translate(41.384 6.22)">
            <g id="Grupo_67548" data-name="Grupo 67548" transform="translate(0 0)">
              <path id="Trazado_125083" data-name="Trazado 125083" d="M202.733,41.018l-5.226,5.226,4.262,1.705a.782.782,0,0,0,.843-.173l4.023-4.023a.782.782,0,0,0-.262-1.279Z" transform="translate(-197.507 -41.018)" fill="#f5c84c"/>
            </g>
          </g>
          <g id="Grupo_67551" data-name="Grupo 67551" transform="translate(7.333 7.665)">
            <g id="Grupo_67550" data-name="Grupo 67550" transform="translate(0 0)">
              <path id="Trazado_125084" data-name="Trazado 125084" d="M54.226,66.515a1.106,1.106,0,0,1-1.565-1.565L65.152,52.459a18.144,18.144,0,1,0,1.565,1.565Z" transform="translate(-34.995 -47.911)" fill="#edf4fc"/>
            </g>
          </g>
          <g id="Grupo_67553" data-name="Grupo 67553" transform="translate(11.756 12.088)">
            <g id="Grupo_67552" data-name="Grupo 67552">
              <path id="Trazado_125085" data-name="Trazado 125085" d="M70.912,83.2a1.106,1.106,0,0,1-1.565-1.565L78.7,72.286a13.719,13.719,0,1,0,1.565,1.565Z" transform="translate(-56.105 -69.024)" fill="#529ad9"/>
            </g>
          </g>
          <g id="Grupo_67555" data-name="Grupo 67555" transform="translate(16.179 16.511)">
            <g id="Grupo_67554" data-name="Grupo 67554">
              <path id="Trazado_125086" data-name="Trazado 125086" d="M87.6,99.887a1.106,1.106,0,0,1-1.565-1.565l6.21-6.21a9.293,9.293,0,1,0,1.565,1.565Z" transform="translate(-77.214 -90.131)" fill="#edf4fc"/>
            </g>
          </g>
          <g id="Grupo_67557" data-name="Grupo 67557" transform="translate(20.602 20.934)">
            <g id="Grupo_67556" data-name="Grupo 67556">
              <path id="Trazado_125087" data-name="Trazado 125087" d="M107.324,113.534l-3.038,3.038a1.106,1.106,0,0,1-1.565-1.565l3.038-3.038a4.868,4.868,0,1,0,1.565,1.564Z" transform="translate(-98.324 -111.239)" fill="#fc657e"/>
            </g>
          </g>
          <g id="Grupo_67560" data-name="Grupo 67560" transform="translate(24.674 3.726)">
            <g id="Grupo_67559" data-name="Grupo 67559">
              <g id="Grupo_67558" data-name="Grupo 67558">
                <path id="Trazado_125088" data-name="Trazado 125088" d="M140.3,31.005,119.647,51.658a1.106,1.106,0,1,1-1.565-1.565l20.653-20.653a1.106,1.106,0,0,1,1.565,1.565Z" transform="translate(-117.758 -29.117)" fill="#5290db"/>
              </g>
            </g>
          </g>
          <g id="Grupo_67562" data-name="Grupo 67562" transform="translate(38.767 3.726)">
            <g id="Grupo_67561" data-name="Grupo 67561">
              <path id="Trazado_125089" data-name="Trazado 125089" d="M191.9,29.441l-6.884,6.884,1.565,1.565,6.884-6.884a1.106,1.106,0,0,0-1.565-1.565Z" transform="translate(-185.015 -29.117)" fill="#edf4fc"/>
            </g>
          </g>
          <g id="Grupo_67564" data-name="Grupo 67564" transform="translate(2.386 2.706)">
            <g id="Grupo_67563" data-name="Grupo 67563">
              <path id="Trazado_125090" data-name="Trazado 125090" d="M34.468,70.42A23.088,23.088,0,1,1,48.241,28.8a.524.524,0,0,1-.626.84A22.043,22.043,0,1,0,52.174,34.2a.524.524,0,0,1,.841-.625A23.082,23.082,0,0,1,34.468,70.42Z" transform="translate(-11.386 -24.245)"/>
            </g>
          </g>
          <g id="Grupo_67566" data-name="Grupo 67566" transform="translate(37.534)">
            <g id="Grupo_67565" data-name="Grupo 67565">
              <path id="Trazado_125091" data-name="Trazado 125091" d="M181.389,21.668a.524.524,0,0,1-.487-.329l-1.677-4.191a1.3,1.3,0,0,1,.289-1.408l4.023-4.023a1.306,1.306,0,0,1,2.136.438l1.437,3.591a.524.524,0,0,1-.973.389L184.7,12.543a.258.258,0,0,0-.422-.087l-4.023,4.023a.258.258,0,0,0-.057.278l1.677,4.191a.524.524,0,0,1-.292.681A.516.516,0,0,1,181.389,21.668Z" transform="translate(-179.132 -11.332)"/>
            </g>
          </g>
          <g id="Grupo_67568" data-name="Grupo 67568" transform="translate(40.919 5.715)">
            <g id="Grupo_67567" data-name="Grupo 67567">
              <path id="Trazado_125092" data-name="Trazado 125092" d="M200.3,46.624a1.3,1.3,0,0,1-.485-.094l-4.2-1.682a.524.524,0,1,1,.389-.973l4.2,1.682a.258.258,0,0,0,.278-.057l4.023-4.023a.258.258,0,0,0-.087-.422l-3.592-1.437a.524.524,0,1,1,.389-.973l3.592,1.437a1.306,1.306,0,0,1,.439,2.136l-4.023,4.023A1.3,1.3,0,0,1,200.3,46.624Z" transform="translate(-195.285 -38.607)"/>
            </g>
          </g>
          <g id="Grupo_67570" data-name="Grupo 67570" transform="translate(49.758 13.341)">
            <g id="Grupo_67569" data-name="Grupo 67569">
              <path id="Trazado_125093" data-name="Trazado 125093" d="M241.318,76.861a2.326,2.326,0,0,1-1.864-1.826.042.042,0,0,0-.083,0,2.325,2.325,0,0,1-1.864,1.826.041.041,0,0,0,0,.081,2.326,2.326,0,0,1,1.864,1.827.042.042,0,0,0,.083,0,2.326,2.326,0,0,1,1.864-1.827A.041.041,0,0,0,241.318,76.861Z" transform="translate(-237.471 -75)" fill="#f5c84c"/>
            </g>
          </g>
          <g id="Grupo_67572" data-name="Grupo 67572" transform="translate(3.472 7.055)">
            <g id="Grupo_67571" data-name="Grupo 67571" transform="translate(0 0)">
              <path id="Trazado_125094" data-name="Trazado 125094" d="M19.96,46.641a2.05,2.05,0,0,1-1.643-1.61.037.037,0,0,0-.073,0,2.05,2.05,0,0,1-1.643,1.61.036.036,0,0,0,0,.071,2.05,2.05,0,0,1,1.643,1.61.037.037,0,0,0,.073,0,2.05,2.05,0,0,1,1.643-1.61A.036.036,0,0,0,19.96,46.641Z" transform="translate(-16.569 -45.001)" fill="#fc657e"/>
            </g>
          </g>
          <g id="Grupo_67574" data-name="Grupo 67574" transform="translate(1.317 39.532)">
            <g id="Grupo_67573" data-name="Grupo 67573">
              <path id="Trazado_125095" data-name="Trazado 125095" d="M6.946,201.15h.488v-.488a.661.661,0,1,1,1.323,0v.488h.488a.661.661,0,0,1,0,1.323H8.758v.488a.661.661,0,1,1-1.323,0v-.488H6.946a.661.661,0,1,1,0-1.323Z" transform="translate(-6.285 -200)" fill="#70d6f9"/>
            </g>
          </g>
          <g id="Grupo_67576" data-name="Grupo 67576" transform="translate(50.151 20.726)">
            <g id="Grupo_67575" data-name="Grupo 67575">
              <circle id="Elipse_4818" data-name="Elipse 4818" cx="0.708" cy="0.708" r="0.708" fill="#87d147"/>
            </g>
          </g>
          <g id="Grupo_67578" data-name="Grupo 67578" transform="translate(0 34.345)">
            <g id="Grupo_67577" data-name="Grupo 67577">
              <circle id="Elipse_4819" data-name="Elipse 4819" cx="0.708" cy="0.708" r="0.708" fill="#f5c84c"/>
            </g>
          </g>
          <g id="Grupo_67580" data-name="Grupo 67580" transform="translate(8.8 3.963)">
            <g id="Grupo_67579" data-name="Grupo 67579">
              <circle id="Elipse_4820" data-name="Elipse 4820" cx="0.708" cy="0.708" r="0.708" fill="#70d6f9"/>
            </g>
          </g>
          <g id="Grupo_67582" data-name="Grupo 67582" transform="translate(6.809 7.153)">
            <g id="Grupo_67581" data-name="Grupo 67581" transform="translate(0 0)">
              <path id="Trazado_125096" data-name="Trazado 125096" d="M51.153,82.774A18.663,18.663,0,1,1,63.377,50.009a.524.524,0,1,1-.687.791,17.619,17.619,0,1,0,1.745,1.74.524.524,0,0,1,.789-.689A18.657,18.657,0,0,1,51.153,82.774Z" transform="translate(-32.494 -45.469)"/>
            </g>
          </g>
          <g id="Grupo_67584" data-name="Grupo 67584" transform="translate(11.232 11.564)">
            <g id="Grupo_67583" data-name="Grupo 67583">
              <path id="Trazado_125097" data-name="Trazado 125097" d="M67.841,94.992a14.235,14.235,0,1,1,9.086-25.2.524.524,0,1,1-.669.806,13.179,13.179,0,1,0,1.73,1.728.524.524,0,0,1,.805-.67A14.233,14.233,0,0,1,67.841,94.992Z" transform="translate(-53.605 -66.522)"/>
            </g>
          </g>
          <g id="Grupo_67586" data-name="Grupo 67586" transform="translate(15.655 15.989)">
            <g id="Grupo_67585" data-name="Grupo 67585">
              <path id="Trazado_125098" data-name="Trazado 125098" d="M84.527,107.261A9.815,9.815,0,1,1,90.51,89.668a.524.524,0,0,1-.639.83,8.77,8.77,0,1,0,1.615,1.618.524.524,0,1,1,.831-.638,9.811,9.811,0,0,1-7.79,15.784Z" transform="translate(-74.714 -87.639)"/>
            </g>
          </g>
          <g id="Grupo_67588" data-name="Grupo 67588" transform="translate(20.079 20.404)">
            <g id="Grupo_67587" data-name="Grupo 67587">
              <path id="Trazado_125099" data-name="Trazado 125099" d="M101.214,119.495a5.39,5.39,0,1,1,2.791-10,.524.524,0,0,1-.542.9,4.344,4.344,0,1,0,1.48,1.489.524.524,0,1,1,.9-.537,5.388,5.388,0,0,1-4.628,8.153Z" transform="translate(-95.825 -108.712)"/>
            </g>
          </g>
          <g id="Grupo_67591" data-name="Grupo 67591" transform="translate(24.151 3.203)">
            <g id="Grupo_67590" data-name="Grupo 67590">
              <g id="Grupo_67589" data-name="Grupo 67589">
                <path id="Trazado_125100" data-name="Trazado 125100" d="M116.889,50.529a1.629,1.629,0,0,1-1.153-2.782l20.653-20.653a1.63,1.63,0,1,1,2.305,2.305L118.042,50.052A1.625,1.625,0,0,1,116.889,50.529Zm20.653-22.865a.579.579,0,0,0-.412.171L116.477,48.488a.583.583,0,0,0,.824.824l20.652-20.653a.583.583,0,0,0-.412-.994Z" transform="translate(-115.259 -26.617)"/>
              </g>
            </g>
          </g>
          <g id="Grupo_67593" data-name="Grupo 67593" transform="translate(38.322 10.49)">
            <g id="Grupo_67592" data-name="Grupo 67592">
              <path id="Trazado_125101" data-name="Trazado 125101" d="M184.812,63.84a.523.523,0,0,1-.37-.153l-1.4-1.4a.524.524,0,0,1,.741-.741l1.4,1.4a.524.524,0,0,1-.37.894Z" transform="translate(-182.89 -61.395)"/>
            </g>
          </g>
        </g>
      </g>
    </g>
    <g id="Elipse_4860" data-name="Elipse 4860" transform="translate(451 1352)" fill="#fff" stroke="#494b0f" stroke-width="2">
      <circle cx="19" cy="19" r="19" stroke="none"/>
      <circle cx="19" cy="19" r="18" fill="none"/>
    </g>
    <path id="Trazado_126964" data-name="Trazado 126964" d="M5,0H-4.922V-2.148l4.57-4.8Q1.338-8.877,1.338-10.01a2.126,2.126,0,0,0-.4-1.4,1.43,1.43,0,0,0-1.162-.479,1.447,1.447,0,0,0-1.221.64,2.629,2.629,0,0,0-.469,1.6h-3.3a4.67,4.67,0,0,1,.654-2.417A4.588,4.588,0,0,1-2.744-13.8a5.4,5.4,0,0,1,2.6-.625A5.308,5.308,0,0,1,3.4-13.359,3.8,3.8,0,0,1,4.648-10.3a4.439,4.439,0,0,1-.312,1.636A7.173,7.173,0,0,1,3.364-7,24.476,24.476,0,0,1,1.24-4.658L-.6-2.539H5Z" transform="translate(470 1377)" fill="#12263f"/>
  </g>
</svg>
