<svg xmlns="http://www.w3.org/2000/svg" width="89" height="88" viewBox="0 0 89 88">
  <g id="Grupo_68021" data-name="Grupo 68021" transform="translate(-934 -1388)">
    <g id="Grupo_68011" data-name="Grupo 68011" transform="translate(6 -141)">
      <g id="Rectángulo_7689" data-name="Rectángulo 7689" transform="translate(940 1540)" fill="#529ad9" stroke="#fff" stroke-width="2">
        <rect width="77" height="77" rx="38.5" stroke="none"/>
        <rect x="1" y="1" width="75" height="75" rx="37.5" fill="none"/>
      </g>
      <g id="Layer_1" transform="translate(946.837 1543.612)">
        <g id="Grupo_67985" data-name="Grupo 67985" transform="translate(2.859 8.885)">
          <g id="Grupo_67980" data-name="Grupo 67980" transform="translate(0.546 0.546)">
            <g id="Grupo_67962" data-name="Grupo 67962" transform="translate(19.234 28.363)">
              <path id="Trazado_126903" data-name="Trazado 126903" d="M108.546,147.65a10.294,10.294,0,0,0-1.275,2.777l-2.2-1.011-9.4-4.314-2.2-1.011a10.294,10.294,0,0,0,1.275-2.777l2.2,1.011,9.4,4.314h0Z" transform="translate(-93.471 -141.315)" fill="#f0c020"/>
            </g>
            <g id="Grupo_67963" data-name="Grupo 67963" transform="translate(19.234 13.392)">
              <path id="Trazado_126904" data-name="Trazado 126904" d="M108.546,75.512l-2.2,1.011-9.4,4.314-2.2,1.011a10.294,10.294,0,0,0-1.275-2.777l2.2-1.011,9.4-4.313,2.2-1.011A10.281,10.281,0,0,0,108.546,75.512Z" transform="translate(-93.471 -72.735)" fill="#f0c020"/>
            </g>
            <g id="Grupo_67964" data-name="Grupo 67964" transform="translate(19.234 28.363)">
              <path id="Trazado_126905" data-name="Trazado 126905" d="M94.746,141.315l2.2,1.011a12.582,12.582,0,0,1-1.275,2.777l-2.2-1.011A10.307,10.307,0,0,0,94.746,141.315Z" transform="translate(-93.471 -141.315)" fill="#e6a71c"/>
            </g>
            <g id="Grupo_67965" data-name="Grupo 67965" transform="translate(19.234 18.717)">
              <path id="Trazado_126906" data-name="Trazado 126906" d="M94.746,100.912a10.294,10.294,0,0,0-1.275-2.777l2.2-1.011A12.692,12.692,0,0,1,96.946,99.9Z" transform="translate(-93.471 -97.125)" fill="#e6a71c"/>
            </g>
            <g id="Grupo_67966" data-name="Grupo 67966" transform="translate(0 14.971)">
              <path id="Trazado_126907" data-name="Trazado 126907" d="M15.824,100.891a10.463,10.463,0,1,1,8.771-16.169A10.463,10.463,0,0,1,15.824,100.891Z" transform="translate(-5.361 -79.965)" fill="#72c2e9"/>
            </g>
            <g id="Grupo_67967" data-name="Grupo 67967" transform="translate(30.834 13.392)">
              <path id="Trazado_126908" data-name="Trazado 126908" d="M150.086,75.512l-2.2,1.011a12.693,12.693,0,0,1-1.273-2.777l2.2-1.011A10.281,10.281,0,0,0,150.086,75.512Z" transform="translate(-146.611 -72.735)" fill="#e6a71c"/>
            </g>
            <g id="Grupo_67968" data-name="Grupo 67968" transform="translate(32.599)">
              <path id="Trazado_126909" data-name="Trazado 126909" d="M175.639,21.848a10.463,10.463,0,1,1-10.463-10.463A10.463,10.463,0,0,1,175.639,21.848Z" transform="translate(-154.694 -11.385)" fill="#f5c84c"/>
            </g>
            <g id="Grupo_67969" data-name="Grupo 67969" transform="translate(30.834 33.687)">
              <path id="Trazado_126910" data-name="Trazado 126910" d="M150.086,166.716a10.3,10.3,0,0,0-1.275,2.777l-2.2-1.011a12.537,12.537,0,0,1,1.275-2.777h0Z" transform="translate(-146.611 -165.705)" fill="#e6a71c"/>
            </g>
            <g id="Grupo_67970" data-name="Grupo 67970" transform="translate(32.606 29.941)">
              <path id="Trazado_126911" data-name="Trazado 126911" d="M175.665,159.008A10.464,10.464,0,1,1,165.2,148.545a10.463,10.463,0,0,1,10.463,10.463Z" transform="translate(-154.727 -148.545)" fill="#72c2e9"/>
            </g>
            <g id="Grupo_67971" data-name="Grupo 67971" transform="translate(4.669 23.846)">
              <circle id="Elipse_4846" data-name="Elipse 4846" cx="1.711" cy="1.711" r="1.711" fill="#f0c020"/>
            </g>
            <g id="Grupo_67972" data-name="Grupo 67972" transform="translate(11.221 19.989)">
              <circle id="Elipse_4847" data-name="Elipse 4847" cx="1.711" cy="1.711" r="1.711" fill="#f0c020"/>
            </g>
            <g id="Grupo_67973" data-name="Grupo 67973" transform="translate(11.221 27.269)">
              <circle id="Elipse_4848" data-name="Elipse 4848" cx="1.711" cy="1.711" r="1.711" fill="#f0c020"/>
            </g>
            <g id="Grupo_67974" data-name="Grupo 67974" transform="translate(37.286 8.876)">
              <circle id="Elipse_4849" data-name="Elipse 4849" cx="1.711" cy="1.711" r="1.711" fill="#f0c020"/>
            </g>
            <g id="Grupo_67975" data-name="Grupo 67975" transform="translate(43.839 5.018)">
              <circle id="Elipse_4850" data-name="Elipse 4850" cx="1.711" cy="1.711" r="1.711" fill="#f0c020"/>
            </g>
            <g id="Grupo_67976" data-name="Grupo 67976" transform="translate(43.839 12.298)">
              <circle id="Elipse_4851" data-name="Elipse 4851" cx="1.711" cy="1.711" r="1.711" fill="#f0c020"/>
            </g>
            <g id="Grupo_67977" data-name="Grupo 67977" transform="translate(37.286 38.817)">
              <circle id="Elipse_4852" data-name="Elipse 4852" cx="1.711" cy="1.711" r="1.711" fill="#f0c020"/>
            </g>
            <g id="Grupo_67978" data-name="Grupo 67978" transform="translate(43.839 34.96)">
              <circle id="Elipse_4853" data-name="Elipse 4853" cx="1.711" cy="1.711" r="1.711" fill="#f0c020"/>
            </g>
            <g id="Grupo_67979" data-name="Grupo 67979" transform="translate(43.839 42.24)">
              <circle id="Elipse_4854" data-name="Elipse 4854" cx="1.711" cy="1.711" r="1.711" fill="#f0c020"/>
            </g>
          </g>
          <g id="Grupo_67984" data-name="Grupo 67984" transform="translate(0 0)">
            <g id="Grupo_67981" data-name="Grupo 67981" transform="translate(4.575 19.545)">
              <path id="Trazado_126912" data-name="Trazado 126912" d="M30.25,113.724a8.871,8.871,0,0,1-3.175-.584.546.546,0,0,1,.389-1.02,7.784,7.784,0,0,0,8.288-12.768.546.546,0,0,1,.772-.772,8.881,8.881,0,0,1-6.274,15.144Zm-5.214-1.689a8.891,8.891,0,0,1-1.06-.906.546.546,0,0,1,.772-.772,7.816,7.816,0,0,0,.93.795.546.546,0,1,1-.641.883Z" transform="translate(-23.816 -98.42)" fill="#c5e5fe"/>
            </g>
            <g id="Grupo_67982" data-name="Grupo 67982" transform="translate(37.193 4.574)">
              <path id="Trazado_126913" data-name="Trazado 126913" d="M176.5,44.56a.546.546,0,0,1,.389-1.02c7.823,2.988,14.2-6.858,8.288-12.768a.546.546,0,0,1,.772-.772C192.676,36.732,185.418,47.964,176.5,44.56Zm-2.04-1.105a8.893,8.893,0,0,1-1.06-.906.546.546,0,0,1,.772-.772,7.817,7.817,0,0,0,.93.795.546.546,0,1,1-.641.883Z" transform="translate(-173.236 -29.84)" fill="#fff"/>
            </g>
            <g id="Grupo_67983" data-name="Grupo 67983" transform="translate(37.193 34.516)">
              <path id="Trazado_126914" data-name="Trazado 126914" d="M179.67,182.3a8.871,8.871,0,0,1-3.175-.584.546.546,0,1,1,.389-1.02,7.783,7.783,0,0,0,8.288-12.768.546.546,0,0,1,.772-.772A8.873,8.873,0,0,1,179.67,182.3Zm-5.214-1.689a8.894,8.894,0,0,1-1.06-.906.546.546,0,0,1,.772-.772,7.816,7.816,0,0,0,.93.795.546.546,0,1,1-.641.883Z" transform="translate(-173.236 -167)" fill="#c5e5fe"/>
            </g>
            <path id="Trazado_126915" data-name="Trazado 126915" d="M26.505,104.311a2.257,2.257,0,1,0,1.685,3.754l2.676,1.4a2.263,2.263,0,1,0,.506-.967L28.7,107.1a2.208,2.208,0,0,0-.028-1.171l2.78-1.637a2.261,2.261,0,1,0-.554-.94l-2.781,1.637A2.249,2.249,0,0,0,26.505,104.311Zm0,3.423a1.166,1.166,0,1,1,1.166-1.166A1.167,1.167,0,0,1,26.505,107.734Zm6.553,1.091a1.166,1.166,0,1,1-1.165,1.165,1.167,1.167,0,0,1,1.165-1.165Zm0-7.28a1.166,1.166,0,1,1-1.165,1.166,1.167,1.167,0,0,1,1.165-1.166Z" transform="translate(-19.579 -80.465)"/>
            <path id="Trazado_126916" data-name="Trazado 126916" d="M180.221,41.41a2.265,2.265,0,1,0,.571-1.5l-2.675-1.4a2.208,2.208,0,0,0-.028-1.171l2.78-1.637a2.26,2.26,0,1,0-.554-.94l-2.781,1.637a2.258,2.258,0,1,0,.076,3.078l2.676,1.4A2.242,2.242,0,0,0,180.221,41.41Zm2.257-1.165a1.166,1.166,0,1,1-1.165,1.165A1.167,1.167,0,0,1,182.478,40.245Zm0-7.28a1.166,1.166,0,1,1-1.165,1.166A1.167,1.167,0,0,1,182.478,32.965Zm-6.553,6.188a1.166,1.166,0,1,1,1.166-1.166A1.167,1.167,0,0,1,175.925,39.153Z" transform="translate(-136.381 -26.855)"/>
            <path id="Trazado_126917" data-name="Trazado 126917" d="M175.925,172.891a2.257,2.257,0,1,0,1.685,3.754l2.676,1.4a2.263,2.263,0,1,0,.506-.967l-2.675-1.4a2.208,2.208,0,0,0-.028-1.171l2.78-1.637a2.26,2.26,0,1,0-.554-.94l-2.781,1.637a2.248,2.248,0,0,0-1.608-.677Zm0,3.423a1.166,1.166,0,1,1,1.166-1.166A1.167,1.167,0,0,1,175.925,176.314Zm6.553,1.091a1.166,1.166,0,1,1-1.165,1.165A1.167,1.167,0,0,1,182.478,177.406Zm0-7.28a1.166,1.166,0,1,1-1.165,1.166A1.167,1.167,0,0,1,182.478,170.125Z" transform="translate(-136.381 -134.074)"/>
            <path id="Trazado_126918" data-name="Trazado 126918" d="M11.677,98.078a.546.546,0,1,0,.759-.131.559.559,0,0,0-.759.131Z" transform="translate(-9.675 -78.431)"/>
            <path id="Trazado_126919" data-name="Trazado 126919" d="M57.494,19.894a11.009,11.009,0,1,0-21.7,2.625L22.826,28.472A11,11,0,0,0,6.367,26.8a.547.547,0,0,0-.026.773.56.56,0,0,0,.771.026,9.892,9.892,0,1,1-2.364,3.359.546.546,0,0,0-.288-.716.556.556,0,0,0-.716.286A11.008,11.008,0,0,0,22.825,41.257L35.794,47.21C33.167,57.9,46.349,65.541,54.27,57.62a11.01,11.01,0,0,0-9.144-18.71.545.545,0,0,0-.476.609.551.551,0,0,0,.609.474,9.915,9.915,0,1,1-3.881,1.34.547.547,0,0,0,.186-.749.559.559,0,0,0-.749-.186,11.124,11.124,0,0,0-3.287,3.044L24.559,37.49a11.022,11.022,0,0,0,0-5.25l12.968-5.953a11.005,11.005,0,0,0,19.966-6.393ZM36.928,44.368a11.034,11.034,0,0,0-.82,1.785L23.426,40.332a11.247,11.247,0,0,0,.819-1.785ZM24.245,31.182a11.092,11.092,0,0,0-.819-1.785l12.683-5.821a11.065,11.065,0,0,0,.819,1.785ZM38.171,25.3a9.918,9.918,0,1,1,8.314,4.51A9.933,9.933,0,0,1,38.171,25.3Z" transform="translate(-2.859 -8.885)"/>
            <path id="Trazado_126920" data-name="Trazado 126920" d="M185.284,149.721a.543.543,0,0,0,.336-.692.553.553,0,0,0-.694-.339.545.545,0,0,0,.358,1.031Z" transform="translate(-144.895 -118.148)"/>
          </g>
        </g>
      </g>
    </g>
    <g id="Elipse_4864" data-name="Elipse 4864" transform="translate(934 1388)" fill="#fff" stroke="#494b0f" stroke-width="2">
      <circle cx="19" cy="19" r="19" stroke="none"/>
      <circle cx="19" cy="19" r="18" fill="none"/>
    </g>
    <path id="Trazado_126968" data-name="Trazado 126968" d="M3.027-14.424v2.588H2.881a4.941,4.941,0,0,0-3.032.884A3.732,3.732,0,0,0-1.611-8.5,3.848,3.848,0,0,1,1.2-9.59,3.59,3.59,0,0,1,4.141-8.242,5.436,5.436,0,0,1,5.234-4.707a4.977,4.977,0,0,1-.64,2.49A4.564,4.564,0,0,1,2.808-.444,5.135,5.135,0,0,1,.264.2,5.307,5.307,0,0,1-2.441-.493,4.733,4.733,0,0,1-4.3-2.461,6.48,6.48,0,0,1-4.98-5.41V-6.729a8.208,8.208,0,0,1,.942-3.95,6.832,6.832,0,0,1,2.69-2.749,7.692,7.692,0,0,1,3.877-1ZM.059-7.07a1.883,1.883,0,0,0-1.094.3,1.922,1.922,0,0,0-.654.742v.986q0,2.7,1.865,2.7a1.513,1.513,0,0,0,1.255-.674,2.746,2.746,0,0,0,.5-1.689,2.7,2.7,0,0,0-.513-1.7A1.64,1.64,0,0,0,.059-7.07Z" transform="translate(953 1413)" fill="#12263f"/>
  </g>
</svg>
