<svg xmlns="http://www.w3.org/2000/svg" width="65" height="65" viewBox="0 0 65 65">
  <g id="Grupo_72438" data-name="Grupo 72438" transform="translate(5802.992 6636.134)">
    <g id="Elipse_5331" data-name="Elipse 5331" transform="translate(-5802.992 -6636.134)" fill="#f3f095" stroke="#0d497e" stroke-width="3">
      <circle cx="32.5" cy="32.5" r="32.5" stroke="none"/>
      <circle cx="32.5" cy="32.5" r="31" fill="none"/>
    </g>
    <path id="Trazado_130602" data-name="Trazado 130602" d="M16.187,0H1.3V-3.223L8.159-10.43q2.534-2.886,2.534-4.585a3.189,3.189,0,0,0-.6-2.095,2.144,2.144,0,0,0-1.743-.718,2.171,2.171,0,0,0-1.831.959,3.943,3.943,0,0,0-.7,2.4H.864A7,7,0,0,1,1.846-18.1,6.882,6.882,0,0,1,4.57-20.7a8.094,8.094,0,0,1,3.9-.937,7.962,7.962,0,0,1,5.325,1.6,5.7,5.7,0,0,1,1.868,4.585A6.658,6.658,0,0,1,15.19-13a10.76,10.76,0,0,1-1.458,2.5,36.715,36.715,0,0,1-3.186,3.508L7.793-3.809h8.394Z" transform="translate(-5778.992 -6594.134)" fill="#11497b"/>
  </g>
</svg>
