<svg xmlns="http://www.w3.org/2000/svg" width="65" height="65" viewBox="0 0 65 65">
  <g id="Grupo_72437" data-name="Grupo 72437" transform="translate(5315 6250.285)">
    <g id="Elipse_5332" data-name="Elipse 5332" transform="translate(-5315 -6250.285)" fill="#f3f095" stroke="#0d497e" stroke-width="3">
      <circle cx="32.5" cy="32.5" r="32.5" stroke="none"/>
      <circle cx="32.5" cy="32.5" r="31" fill="none"/>
    </g>
    <path id="Trazado_130603" data-name="Trazado 130603" d="M5.815-12.729H8.145q2.769,0,2.769-2.71a2.343,2.343,0,0,0-.659-1.721,2.5,2.5,0,0,0-1.86-.667,2.676,2.676,0,0,0-1.707.571,1.743,1.743,0,0,0-.725,1.421H1.025a5.053,5.053,0,0,1,.938-3,6.191,6.191,0,0,1,2.6-2.058,8.89,8.89,0,0,1,3.655-.74,8.735,8.735,0,0,1,5.6,1.626,5.405,5.405,0,0,1,2.036,4.468,4.505,4.505,0,0,1-.842,2.6,6,6,0,0,1-2.454,1.985A5.734,5.734,0,0,1,15.22-9.089a4.919,4.919,0,0,1,.967,3.1,5.5,5.5,0,0,1-2.2,4.57A9.12,9.12,0,0,1,8.218.293a9.458,9.458,0,0,1-3.889-.8A6.093,6.093,0,0,1,1.611-2.717,5.751,5.751,0,0,1,.688-5.933H5.654a2.223,2.223,0,0,0,.791,1.7,2.793,2.793,0,0,0,1.948.718,2.925,2.925,0,0,0,2.08-.725,2.424,2.424,0,0,0,.776-1.853,2.833,2.833,0,0,0-.806-2.285,3.368,3.368,0,0,0-2.227-.674h-2.4Z" transform="translate(-5291 -6208.285)" fill="#11497b"/>
  </g>
</svg>
