<svg xmlns="http://www.w3.org/2000/svg" width="159" height="147" viewBox="0 0 159 147">
  <g id="Grupo_67716" data-name="Grupo 67716" transform="translate(-721 -7123)">
    <rect id="Rectángulo_7616" data-name="Rectángulo 7616" width="159" height="147" rx="14" transform="translate(721 7123)" fill="#fff"/>
    <g id="apoyo-tecnico" transform="translate(739.657 7137.465)">
      <path id="Trazado_125246" data-name="Trazado 125246" d="M405.059,49.606a7.555,7.555,0,1,1-7.555-7.555A7.555,7.555,0,0,1,405.059,49.606Zm0,0" transform="translate(-297.886 -32.123)" fill="#f5737f"/>
      <path id="Trazado_125247" data-name="Trazado 125247" d="M73.16,413.5a7.555,7.555,0,1,1-7.555-7.555A7.555,7.555,0,0,1,73.16,413.5Zm0,0" transform="translate(-44.346 -310.109)" fill="#d8ec84"/>
      <path id="Trazado_125248" data-name="Trazado 125248" d="M158.787,117.2a34.8,34.8,0,0,0-4.8-11.577l4.524-4.524L148.07,90.67l-4.52,4.52a34.8,34.8,0,0,0-11.577-4.8V84H117.212v6.392a34.792,34.792,0,0,0-11.578,4.8l-4.52-4.52L90.672,101.1l4.524,4.524A34.8,34.8,0,0,0,90.4,117.2H83.989l-.008,14.762H90.4a34.753,34.753,0,0,0,4.8,11.578l-4.541,4.541,10.435,10.442,4.545-4.545a34.754,34.754,0,0,0,11.578,4.8v6.434h14.762V158.78a34.77,34.77,0,0,0,11.578-4.8l4.545,4.545,10.434-10.442-4.541-4.541a34.754,34.754,0,0,0,4.8-11.578H165.2V117.2Zm-34.194,24.55a17.147,17.147,0,1,1,17.147-17.147A17.146,17.146,0,0,1,124.592,141.754Zm0,0" transform="translate(-64.154 -64.169)" fill="#529ad9"/>
      <path id="Trazado_125249" data-name="Trazado 125249" d="M21.26,93.479A9.856,9.856,0,0,0,16.5,94.695,55.742,55.742,0,0,1,71.535,5.827,2.361,2.361,0,0,0,72.47,1.2,60.888,60.888,0,0,0,60.439,0,60.439,60.439,0,0,0,13.006,97.895a9.92,9.92,0,1,0,8.254-4.416Zm3.672,13.588a5.193,5.193,0,1,1,1.522-3.672A5.158,5.158,0,0,1,24.932,107.067Zm0,0"/>
      <path id="Trazado_125250" data-name="Trazado 125250" d="M258.73,47.464a9.9,9.9,0,1,0-3.49,3.2,55.742,55.742,0,0,1-54.931,88.889,2.361,2.361,0,0,0-.927,4.63,60.931,60.931,0,0,0,11.917,1.175,60.439,60.439,0,0,0,47.431-97.9ZM246.805,45.64a5.2,5.2,0,1,1,3.672,1.521A5.16,5.16,0,0,1,246.805,45.64Zm0,0" transform="translate(-150.86 -24.484)"/>
      <path id="Trazado_125251" data-name="Trazado 125251" d="M107.214,157.576a2.361,2.361,0,0,0,2.361,2.361h14.762a2.361,2.361,0,0,0,2.361-2.361V153a36.97,36.97,0,0,0,8.861-3.672l3.231,3.231a2.36,2.36,0,0,0,3.339,0l10.434-10.441a2.362,2.362,0,0,0,0-3.338l-3.228-3.228a36.97,36.97,0,0,0,3.672-8.861h4.559a2.361,2.361,0,0,0,2.361-2.361V109.566a2.361,2.361,0,0,0-2.361-2.361h-4.56a36.978,36.978,0,0,0-3.671-8.86l3.21-3.21a2.361,2.361,0,0,0,0-3.34L142.1,81.36a2.361,2.361,0,0,0-3.338,0l-3.206,3.207A36.97,36.97,0,0,0,126.7,80.9V76.361A2.361,2.361,0,0,0,124.337,74H109.575a2.361,2.361,0,0,0-2.361,2.361V80.9a36.94,36.94,0,0,0-8.86,3.671l-3.207-3.207a2.362,2.362,0,0,0-3.338,0L81.368,91.8a2.36,2.36,0,0,0,0,3.339l3.21,3.21A36.964,36.964,0,0,0,80.9,107.2H76.354a2.361,2.361,0,0,0-2.361,2.36l-.008,14.762a2.36,2.36,0,0,0,2.361,2.362H80.9a36.97,36.97,0,0,0,3.672,8.861l-3.228,3.228a2.361,2.361,0,0,0,0,3.338l10.434,10.441a2.362,2.362,0,0,0,1.669.693h0a2.361,2.361,0,0,0,1.669-.692l3.231-3.231A37,37,0,0,0,107.214,153Zm-7.935-13.215a2.362,2.362,0,0,0-2.951.314l-2.875,2.875-7.1-7.1,2.872-2.873a2.36,2.36,0,0,0,.314-2.95,32.315,32.315,0,0,1-4.472-10.793,2.362,2.362,0,0,0-2.308-1.865H78.707l.006-10.04h4.049a2.361,2.361,0,0,0,2.308-1.865A32.318,32.318,0,0,1,89.542,99.27a2.36,2.36,0,0,0-.314-2.95l-2.853-2.854,7.1-7.1,2.851,2.852a2.363,2.363,0,0,0,2.951.314,32.3,32.3,0,0,1,10.792-4.472,2.362,2.362,0,0,0,1.865-2.308V78.722h10.04v4.031a2.36,2.36,0,0,0,1.865,2.308,32.329,32.329,0,0,1,10.792,4.472,2.359,2.359,0,0,0,2.95-.314l2.852-2.851,7.1,7.1-2.853,2.853a2.36,2.36,0,0,0-.314,2.951,32.337,32.337,0,0,1,4.472,10.792,2.36,2.36,0,0,0,2.308,1.865h4.057v10.04H151.15a2.362,2.362,0,0,0-2.308,1.865,32.311,32.311,0,0,1-4.472,10.792,2.361,2.361,0,0,0,.314,2.951l2.872,2.872-7.1,7.1-2.875-2.874a2.36,2.36,0,0,0-2.951-.314,32.337,32.337,0,0,1-10.792,4.472,2.361,2.361,0,0,0-1.865,2.308v4.073h-10.04v-4.073a2.362,2.362,0,0,0-1.865-2.308A32.318,32.318,0,0,1,99.279,144.361Zm0,0" transform="translate(-56.517 -56.529)"/>
      <path id="Trazado_125252" data-name="Trazado 125252" d="M212.387,192.879a19.508,19.508,0,1,0-19.508,19.508A19.53,19.53,0,0,0,212.387,192.879Zm-34.294,0a14.786,14.786,0,1,1,14.786,14.786A14.8,14.8,0,0,1,178.093,192.879Zm0,0" transform="translate(-132.44 -132.44)"/>
      <path id="Trazado_125253" data-name="Trazado 125253" d="M340.439,22.533a2.363,2.363,0,1,0-1.668-.692A2.378,2.378,0,0,0,340.439,22.533Zm0,0" transform="translate(-258.262 -13.604)"/>
      <path id="Trazado_125254" data-name="Trazado 125254" d="M156.72,474.359a2.361,2.361,0,1,0,1.669.692A2.38,2.38,0,0,0,156.72,474.359Zm0,0" transform="translate(-117.917 -362.368)"/>
    </g>
  </g>
</svg>
