<svg xmlns="http://www.w3.org/2000/svg" width="478.373" height="353.405" viewBox="0 0 478.373 353.405">
  <g id="Grupo_67201" data-name="Grupo 67201" transform="translate(-903.392 -395.133)">
    <path id="Trazado_121099" data-name="Trazado 121099" d="M235.815,130.746c130.237,0,242.558-26.058,242.558,46.186s-112.321,96.485-242.558,96.485S0,214.851,0,142.606,105.578,130.746,235.815,130.746Z" transform="translate(903.392 475.121)" fill="#fdfdfd"/>
    <g id="Grupo_60519" data-name="Grupo 60519" transform="translate(0 -38)">
      <g id="Shadow" transform="translate(915 728.505)">
        <path id="Trazado_120936" data-name="Trazado 120936" d="M276.89,681.435c-12.549.034-25.1.306-37.624,1.563-4.723.474-9.347,1.517-14.081,1.938-9.456.84-18.742,2.407-28.232,3.13-7.642.582-15.315.926-22.935,1.665a89.367,89.367,0,0,1-22.141-.612c-5.247-.847-10.519-1.324-15.679-2.684a70.5,70.5,0,0,0-18.056-2.571c-8.576.056-16.927.062-25.134,2.75a25.485,25.485,0,0,0-8.6,4.473c-5.008,4.532-5.686,15.839-.685,20.539,8.422,7.911,26.4,11.014,38.2,11.161,12.936.16,25.5-.706,38.458-1.216,12.038-.474,24.046-1.147,36.1-1.123,24.627.049,49.258,0,73.841-1.484,23.1-1.395,46.25-.916,69.4-.916,23.736,0,47.311.168,70.876,3.015,10.268,1.24,20.728,1.674,31.047,2.543,9.242.779,18.123-.015,27.327-.734a70.839,70.839,0,0,0,22.43-5.424c5.559-2.4,15.468-9.844,17.172-15.566,4.779-16.041-67.345-15.655-78.419-15.619-12.388.041-24.875.408-37.253-.018a96.7,96.7,0,0,1-15.419-2.1c-5.061-1-10.161-.748-15.295-1.169-21.406-1.757-42.86-1.5-64.334-1.5C290.873,681.472,283.882,681.417,276.89,681.435Z" transform="translate(-80.3 -681.431)" fill="#a0a603" opacity="0.4"/>
      </g>
      <g id="object" transform="translate(925.028 433.133)">
        <path id="Trazado_120937" data-name="Trazado 120937" d="M350.243,493.119l21.133,71.073,9.468,4.455,97.513-7.938s6.178-8.752,6.178-13.9,6.106-37.7,6.106-37.7Z" transform="translate(-230.887 -281.567)" fill="#eed5d5"/>
        <g id="Grupo_60391" data-name="Grupo 60391" transform="translate(136.172 73.964)">
          <g id="Grupo_60385" data-name="Grupo 60385" transform="translate(23.676 146.737)">
            <g id="Grupo_60382" data-name="Grupo 60382" transform="translate(41.22 51.659)">
              <g id="Grupo_60381" data-name="Grupo 60381" transform="translate(0.145)">
                <path id="Trazado_120938" data-name="Trazado 120938" d="M534.144,629.73l.319,19.374c-.13,5.376.354,10.734.681,16.092.3,4.976-.7,10.106,1.662,14.718.741,1.446,2.316,2.454,3.515.783.924-1.287.5-3.515.727-5.01,1.715-11.231,4.907-22.184,6.5-33.437C549.215,630.464,544.655,630.775,534.144,629.73Z" transform="translate(-534.144 -629.73)" fill="#353a85"/>
              </g>
              <path id="Trazado_120939" data-name="Trazado 120939" d="M535.064,734.2l-1.246,3.232,6.129,5.4,5.615.231,1.816-2.963-7.552-6.567Z" transform="translate(-533.818 -687.327)" fill="#babcbe"/>
            </g>
            <g id="Grupo_60384" data-name="Grupo 60384" transform="translate(11.208 50.702)">
              <g id="Grupo_60383" data-name="Grupo 60383" transform="translate(0.753)">
                <path id="Trazado_120940" data-name="Trazado 120940" d="M483.763,628.725l-3.534,19.053C479,656.3,476.22,664.6,475,673.124c-.281,1.96-.139,4.1-.958,5.952-.8,1.809-2.37,1.88-3.754.653-1.854-1.644-1-4.581-.965-6.826.227-14.958-.95-29.7-1.233-44.685a.668.668,0,0,1,.157-.546.643.643,0,0,1,.459-.089C470.156,627.681,483.687,629.137,483.763,628.725Z" transform="translate(-468.085 -627.579)" fill="#353a85"/>
              </g>
              <path id="Trazado_120941" data-name="Trazado 120941" d="M468.336,736.823l-1.943,2.867,4.754,6.639,5.418,1.493L479,745.346l-5.875-8.1Z" transform="translate(-466.393 -688.197)" fill="#babcbe"/>
            </g>
            <path id="Trazado_120942" data-name="Trazado 120942" d="M502.546,577.658l-2.643-27.7-1.275-18-4.286-14.7L471.2,513.671l-28.612,4.9-1.375,5.559,5.506,51.455,27.6,2.068-.374-32.025,4.257,19.85-.181,12.175Z" transform="translate(-441.213 -513.671)" fill="#353a85"/>
          </g>
          <path id="Trazado_120943" data-name="Trazado 120943" d="M457.765,361.242q-.058,1.4-.081,2.8c-.335,19,.713,38.241.833,57.4a212.659,212.659,0,0,1,29.66-2.532c2.3-.035,12.748,1.579,14.2.207,1.975-1.862-.2-1.512-.053-3.938.187-3.139-1.321-5.71-.751-9.43.669-4.372,2-8.7,2.769-13.067a190.72,190.72,0,0,0,2.765-26.53c.267-7.888-.02-16.069-3.412-23.2-8.365-17.575-35.335-17.258-42.736,1.092A51.489,51.489,0,0,0,457.765,361.242Z" transform="translate(-426.64 -265.032)" fill="#f7f7f7"/>
          <path id="Trazado_120944" data-name="Trazado 120944" d="M571.879,259.666c2.884-3.736,4.138-7.776,5.363-12.853.911-3.777,1.675-7.6,2.424-11.41a40.518,40.518,0,0,0,.992-7.266c.04-2.122,1.237-5.056-.628-6.754a1.587,1.587,0,0,1,2.355-.551,1.01,1.01,0,0,0,.361.246.648.648,0,0,0,.628-.329,5.349,5.349,0,0,0,.643-2.089c.25-1.157.677-3.032,1.549-3.861a7.776,7.776,0,0,1,2.538-1.417.614.614,0,0,1,.88.191,36.157,36.157,0,0,1,2.762,3.236c-1.26,1.047-1.481,2.607-2.2,4-.948,1.834-2.106,3.284-2.265,5.44-.247,3.351-.232,6.718-.524,10.072-.569,6.554-1.542,13.059-2.475,19.568-.631,4.311-1.275,8.722-3.048,12.74-1.746,3.957-4.226,6.329-7.531,9.116a7.348,7.348,0,0,1-2.5,1.584,5.136,5.136,0,0,1-4.274-.923,8.467,8.467,0,0,1-2.565-10.616,18.543,18.543,0,0,1,4.311-4.711A25.24,25.24,0,0,0,571.879,259.666Z" transform="translate(-485.366 -200.251)" fill="#eacdb0"/>
          <path id="Trazado_120945" data-name="Trazado 120945" d="M517.188,323.131l-7.325,13.349,1.148,40.455q.265,9.322.529,18.644c.061,2.158.115,4.316.184,6.474.031.969-.236,2.6.316,3.39,1.2,1.716,5.583,1.181,7.5,1.331a32.957,32.957,0,0,1,8.816,1.508c1.87.685,3.643,1.718,5.615,1.995a1.664,1.664,0,0,0,1.287-.21,1.87,1.87,0,0,0,.492-1.371c.685-9.258.7-18.8,1.213-28.159.42-7.658,1.492-15.749.827-23.417-.011-.128-.024-.256-.047-.382-.68-3.688,0-15.87,0-15.872.029-.512,1.781-1.84,2.12-2.19l5.227-5.4c3.477-3.591,10.19-8.028,7.491-13.836a7.42,7.42,0,0,0-1.359-1.888c-3.94-4.22-8.975-6.586-11.8-11.781-4.935,2.435-8.957,7.244-14.207,9.247a14.158,14.158,0,0,1-8.48.7c-1.681-.412-5.3-1.722-4.391,1.6C512.866,319.224,515.9,321.6,517.188,323.131Z" transform="translate(-455.63 -251.574)" fill="#8cabef"/>
          <path id="Trazado_120946" data-name="Trazado 120946" d="M463.879,337.508l7.325,13.349c-.154,0-.929,32.722-.992,34.931q-.358,12.6-.715,25.2c-.066,2.335.247,5.07-.209,7.364-.637,3.2-4.01,2.574-6.885,2.833-6.287.567-12.906,1.64-19.21,1.322-1.819-.092.575-38.042.571-41.583-.012-12.737-2.64-26.869,3.83-38.419,1.883-3.361,5.2-8.749,8.865-10.408,3.414-1.546,8.3-1.809,12.006-2.676l.193,2.4Z" transform="translate(-418.257 -264.695)" fill="#8cabef"/>
          <g id="Grupo_60388" data-name="Grupo 60388" transform="translate(39.89 29.786)">
            <g id="Grupo_60387" data-name="Grupo 60387">
              <path id="Trazado_120947" data-name="Trazado 120947" d="M521.349,268.363a14.776,14.776,0,0,1,1.812,6.674,2.118,2.118,0,0,0,.569,1.7c.535.39.065,1.248.472.725a11.383,11.383,0,0,0,1.851-3,24.426,24.426,0,0,0-.007-4.648,6.668,6.668,0,0,0-1.284-3.771,7.584,7.584,0,0,0-1.9-1.448,9.723,9.723,0,0,0-3.158-1.418c-1.966-.366-3.173.339-1.437,1.71A12,12,0,0,1,521.349,268.363Z" transform="translate(-499.718 -257.67)" fill="#292949"/>
              <g id="Grupo_60386" data-name="Grupo 60386" transform="translate(2.28 5.84)">
                <path id="Trazado_120948" data-name="Trazado 120948" d="M489.827,295.267c.013.951-.182,1.938.657,2.676a2.878,2.878,0,0,0,1.48.581,9.173,9.173,0,0,0,4.12-.292,3.689,3.689,0,0,0,1.5-.792,1.879,1.879,0,0,0,.535-1.523c.028-.717.172-1.446.266-2.173.205-1.59.3-3.194.344-4.8,2.356-.4,5.127-1.166,5.932-3.634a8.086,8.086,0,0,0,.268-2.45q.038-5.128.075-10.258a9.9,9.9,0,0,0-.393-3.5,7.116,7.116,0,0,0-4.287-3.8,15.393,15.393,0,0,0-13.955.852,7.615,7.615,0,0,0-2.8,2.813c-.986,1.878-.862,4.2-.709,6.365q.212,3,.424,6c.162,2.3.508,4.949,2.3,6.164.949.645,2.174.764,2.992,1.6,1.427,1.457.747,3.634,1.169,5.4A3.49,3.49,0,0,1,489.827,295.267Z" transform="translate(-482.762 -264.046)" fill="#eacdb0"/>
              </g>
              <path id="Trazado_120949" data-name="Trazado 120949" d="M505.759,301.138c-.038-.634-.315-2.492-1.269-1.324a1.907,1.907,0,0,0-.326,1.143,4.315,4.315,0,0,1-.125,1.208,2.129,2.129,0,0,1-2.133,1.263,2.078,2.078,0,0,1-1-.236,3.109,3.109,0,0,1-.759-.7l-1.668-1.914c-.956-1.1-2.851-.623-4.139-.454a8.244,8.244,0,0,0-4.181,1.618c-.122.1-.242.2-.361.305a4.454,4.454,0,0,1-.926.667,2.856,2.856,0,0,1-3.369-1.068c-.368-.478-.711-1.094-1.283-1.174a1.174,1.174,0,0,0-1.112.677,3.358,3.358,0,0,0-.322,1.4,10.31,10.31,0,0,0,.9,5.154c1.66,3.4,4.87,3.814,8.095,3.738l3.825-.09c2.331-.055,4.795-.152,6.758-1.507a8.371,8.371,0,0,0,3.183-5.356A13.19,13.19,0,0,0,505.759,301.138Zm-8.528,4.815a4.463,4.463,0,0,1-3.949.458c-.582-.175-.335-1.151.247-.976a3.588,3.588,0,0,0,3.226-.355C497.27,304.735,497.742,305.609,497.231,305.953Z" transform="translate(-480.48 -277.844)" fill="#292949"/>
              <path id="Trazado_120950" data-name="Trazado 120950" d="M503.4,255.693a18.189,18.189,0,0,0,.5-2.526,5,5,0,0,1-2.472.212q0-.737-.006-1.475c0-.409-5.535-.7-5.985-.732-4.208-.345-8.057-.673-11.862,1.585a11.459,11.459,0,0,0-5.833,8.56,17.522,17.522,0,0,0,2.767,11.234c-.012-.953-.56-3.2-.336-4.11a8.1,8.1,0,0,1,.884-2.593,10.69,10.69,0,0,1,3.751-3.943,20.789,20.789,0,0,1,8.2-2.762c2.624-.365,5.822-.7,8.414-.008,1.246.334,1.453.647,2.208-.611a21.342,21.342,0,0,0,1.085-2.813Z" transform="translate(-477.638 -250.926)" fill="#292949"/>
            </g>
          </g>
          <g id="Grupo_60390" data-name="Grupo 60390">
            <g id="Grupo_60389" data-name="Grupo 60389">
              <path id="Trazado_120951" data-name="Trazado 120951" d="M409.544,246.489a6.539,6.539,0,0,0,1.132-7.51l-6.922-13.692c-1.3-2.563-3.548-5.536-3.9-8.324-.627-4.927.488-10.725.948-15.651.233-2.5.025-5.977,1.059-8.28.194-.431,3.119-3.738,3.04-3.839l-.614-.924-.915.617-.764-.154,2.082-2.518-3.011-2.206-4.019,1.594c-.215,2.707.266,5.528-.594,8.14-.364,1.105-.905,2.142-1.362,3.212-.784,1.838-1.315,3.767-1.923,5.666-.588,1.838-1.539,3.566-2.092,5.382-1.236,4.053-2.443,8.115-3.664,12.172L398.636,244.5A6.689,6.689,0,0,0,409.544,246.489Z" transform="translate(-388.021 -184.009)" fill="#eacdb0"/>
            </g>
            <path id="Trazado_120952" data-name="Trazado 120952" d="M433.346,309.844a34.143,34.143,0,0,1-11.013-10.354q-.112-.236-.217-.47c-.267-.6-3.264-7.13-3.35-7.092l-.223.1-.649.33H417.8c-1.523.02-4.063,1.828-5.475,2.463l-11.257,5.058a1.656,1.656,0,0,0-.716.49,1.48,1.48,0,0,0-.164,1l-1,.51a21.242,21.242,0,0,1,1.334,2.141,16.934,16.934,0,0,0,2.9,7.97c.1.135.214.263.323.393a71.368,71.368,0,0,0,3.048,8.957c3.475,7.691,10.077,13.663,13.4,21.422,2.694-.786,4.563-3.2,5.995-5.619,2.815-4.745,4.686-9.979,6.54-15.176l2.828-7.927a3.748,3.748,0,0,0,.306-1.429C435.784,311.316,434.471,310.5,433.346,309.844Z" transform="translate(-394.216 -243.892)" fill="#8cabef"/>
          </g>
        </g>
        <g id="Grupo_60415" data-name="Grupo 60415" transform="translate(23.796 118.416)">
          <g id="Grupo_60392" data-name="Grupo 60392" transform="translate(113.342 45.148)">
            <path id="Trazado_120953" data-name="Trazado 120953" d="M390.194,389.632l4.393-4.324,6.927.164.79,3.513-10.467,4.521Z" transform="translate(-390.194 -385.307)" fill="#aa6755"/>
          </g>
          <path id="Trazado_120954" data-name="Trazado 120954" d="M271.38,303.219c-.837-9.437-4.467-11.155-4.467-11.155h0a8.325,8.325,0,0,0-3.3-1.659,9.656,9.656,0,0,0-3.148,6.585l-.272,0a8.936,8.936,0,0,1,3.3.734c.8,5.625,2.008,14.577,2.052,17.191.065,3.9.987,3.974,3.611,4.83s5.394-1.34,5.394-1.34A57.727,57.727,0,0,1,271.38,303.219Z" transform="translate(-204.716 -287.499)" fill="#292949"/>
          <g id="Grupo_60393" data-name="Grupo 60393" transform="translate(2.66 24.203)">
            <path id="Trazado_120955" data-name="Trazado 120955" d="M190.421,346l-11.388,4.485-18.618,15.426L151.9,338.252l-10.373,1.862,6.649,33.778,10.9,9.841,31.384-17.288Z" transform="translate(-141.532 -338.252)" fill="#353a85"/>
          </g>
          <g id="Grupo_60407" data-name="Grupo 60407" transform="translate(34.306 30.321)">
            <g id="Grupo_60398" data-name="Grupo 60398" transform="translate(5.732 80.726)">
              <g id="Grupo_60395" data-name="Grupo 60395" transform="translate(0.479 89.022)">
                <g id="Grupo_60394" data-name="Grupo 60394">
                  <path id="Trazado_120956" data-name="Trazado 120956" d="M226.884,736.334l-.3,2.977,5.4,3.712,3.151-2.609-2.549-3.344-5.4-3.712Z" transform="translate(-226.583 -733.357)" fill="#1a3151"/>
                </g>
              </g>
              <g id="Grupo_60397" data-name="Grupo 60397">
                <g id="Grupo_60396" data-name="Grupo 60396">
                  <path id="Trazado_120957" data-name="Trazado 120957" d="M226.422,534.35l-.914,9.04,8.1,31.059-7.518,49.91,5.534,1.91,14.593-48.727,2.316-14.175-.084-30.009Z" transform="translate(-225.508 -533.358)" fill="#8cabef"/>
                </g>
              </g>
            </g>
            <g id="Grupo_60403" data-name="Grupo 60403" transform="translate(21.697 84.191)">
              <g id="Grupo_60400" data-name="Grupo 60400">
                <g id="Grupo_60399" data-name="Grupo 60399">
                  <path id="Trazado_120958" data-name="Trazado 120958" d="M288.888,548.745l-11.641,83.631h-5.291L271,578.768l-9.63-37.627Z" transform="translate(-261.374 -541.142)" fill="#8cabef"/>
                </g>
              </g>
              <g id="Grupo_60402" data-name="Grupo 60402" transform="translate(10.613 90.573)">
                <g id="Grupo_60401" data-name="Grupo 60401">
                  <path id="Trazado_120959" data-name="Trazado 120959" d="M285.217,744.625v3l5.722,3,2.861-3-2.861-3Z" transform="translate(-285.217 -744.625)" fill="#babcbe"/>
                </g>
              </g>
            </g>
            <g id="Grupo_60406" data-name="Grupo 60406">
              <g id="Grupo_60405" data-name="Grupo 60405">
                <g id="Grupo_60404" data-name="Grupo 60404">
                  <path id="Trazado_120960" data-name="Trazado 120960" d="M219.568,422.625c4.519-30.423,2.9-52.579,3.139-58.663a12.708,12.708,0,0,1,4.4-9.241c1.831-.418,3.422-1.625,5.27-2.1,12.495-3.22,19.31,6.553,23.987,17.095a306.915,306.915,0,0,1,14.518,40.1c3.435,12.016,6.878,24.141,8.319,36.611.594,5.146,1.09,10.025-4.409,12.3-8.763,3.617-18.61,3.538-27.866,4.7-10.632,1.332-21.277,2.306-31.98,2.761C209.363,466.42,215.049,453.047,219.568,422.625Z" transform="translate(-212.629 -351.996)" fill="#353a85"/>
                </g>
              </g>
            </g>
          </g>
          <g id="Grupo_60408" data-name="Grupo 60408" transform="translate(0 12.767)">
            <path id="Trazado_120961" data-name="Trazado 120961" d="M140.241,325.493l-4.685-4.69,1.6-8.245h4.521L143,319.74l2.295,1.379v3.467Z" transform="translate(-135.556 -312.559)" fill="#aa6755"/>
          </g>
          <g id="Grupo_60409" data-name="Grupo 60409" transform="translate(60.109 30.321)">
            <path id="Trazado_120962" data-name="Trazado 120962" d="M270.6,352l11.969,2.128,21.6,20.9,19.366-6.8,6.226,7.939-25.917,15.2-27.395-17.554Z" transform="translate(-270.599 -351.996)" fill="#353a85"/>
          </g>
          <g id="Grupo_60410" data-name="Grupo 60410" transform="translate(48.676 29.79)">
            <path id="Trazado_120963" data-name="Trazado 120963" d="M259.3,351.97l2.2,32.353-16.587-30.754,4.838-1.728,3.456-1.037Z" transform="translate(-244.912 -350.803)" fill="#f7f7f7"/>
          </g>
          <g id="Grupo_60412" data-name="Grupo 60412" transform="translate(46.538 7.474)">
            <g id="Grupo_60411" data-name="Grupo 60411">
              <path id="Trazado_120964" data-name="Trazado 120964" d="M257.214,305.573c-4.123-8.98-15.472-4.432-16.948,4.036-.839,4.816,1.715,13.185,7.465,13.263.289.814.786,2.351,1.561,2.75.839.433,2.869-.683,3.671-1.091a1.35,1.35,0,0,0,.581-.457,2.534,2.534,0,0,0-.1-1.492,8.053,8.053,0,0,0,1.822-.855,9.392,9.392,0,0,0,3.993-7.571A18.845,18.845,0,0,0,257.214,305.573Z" transform="translate(-240.11 -300.668)" fill="#aa6755"/>
            </g>
          </g>
          <g id="Grupo_60414" data-name="Grupo 60414" transform="translate(35.917)">
            <g id="Grupo_60413" data-name="Grupo 60413">
              <path id="Trazado_120965" data-name="Trazado 120965" d="M239,286.815s2.4,4.828-3.772,7.87-9.148,9.205-6.682,14.32,8.28,7.89,6.078,9.944S222.7,321.91,222.7,321.91s-10.4-17.611-4.784-27.748S234.535,280.99,239,286.815Z" transform="translate(-216.248 -283.877)" fill="#292949"/>
            </g>
          </g>
        </g>
        <g id="Grupo_60433" data-name="Grupo 60433" transform="translate(215.724 86.698)">
          <g id="Grupo_60427" data-name="Grupo 60427" transform="translate(44.112)">
            <g id="Grupo_60420" data-name="Grupo 60420" transform="translate(2.03 119.206)">
              <g id="Grupo_60416" data-name="Grupo 60416" transform="translate(16.398 3.43)">
                <path id="Trazado_120966" data-name="Trazado 120966" d="M729.837,488.134l2.268,15.609-4.552,88.034-7.636-1.6L707.248,490.094Z" transform="translate(-707.248 -488.134)" fill="#292949"/>
              </g>
              <g id="Grupo_60417" data-name="Grupo 60417">
                <path id="Trazado_120967" data-name="Trazado 120967" d="M671.883,480.926l-1.475,58.362,14.823,50.379,8.64-3.213-7.277-44.928,6.682-61.1Z" transform="translate(-670.408 -480.428)" fill="#292949"/>
              </g>
              <g id="Grupo_60418" data-name="Grupo 60418" transform="translate(11.131 101.308)">
                <path id="Trazado_120968" data-name="Trazado 120968" d="M707.777,708.029l-10.344,4.741L700.906,720l-5.425,3.418s-.511,3.012,1.311,4.283,13.624-8.642,13.624-8.642Z" transform="translate(-695.415 -708.029)" fill="#292949"/>
              </g>
              <g id="Grupo_60419" data-name="Grupo 60419" transform="translate(22.594 103.019)">
                <path id="Trazado_120969" data-name="Trazado 120969" d="M737.561,711.873l-11.219,1.894,1.476,7.886-6.126,1.893s-1.275,2.776.154,4.477,15.4-4.811,15.4-4.811Z" transform="translate(-721.169 -711.873)" fill="#292949"/>
              </g>
            </g>
            <g id="Grupo_60421" data-name="Grupo 60421" transform="translate(18.471 16.007)">
              <path id="Trazado_120970" data-name="Trazado 120970" d="M708.081,257.1a30.656,30.656,0,0,0,3.4,7.382,52.19,52.19,0,0,1,2.053-14.113,1.371,1.371,0,0,0,.018-1.059,1.285,1.285,0,0,0-.861-.49C706.795,247.394,706.687,252.572,708.081,257.1Z" transform="translate(-707.345 -248.578)" fill="#292949"/>
            </g>
            <g id="Grupo_60425" data-name="Grupo 60425" transform="translate(3.017)">
              <g id="Grupo_60422" data-name="Grupo 60422" transform="translate(18.07 8.228)">
                <path id="Trazado_120971" data-name="Trazado 120971" d="M714.579,254.877c.615,1.962,1.635,4.181,3.67,5.377a6.5,6.5,0,0,0,6.747-.392c5.907-3.574,16.146-23.281.748-28.12C711.763,227.348,712.027,246.734,714.579,254.877Z" transform="translate(-713.222 -231.102)" fill="#eac1a4"/>
              </g>
              <g id="Grupo_60423" data-name="Grupo 60423" transform="translate(31.594 9.148)">
                <path id="Trazado_120972" data-name="Trazado 120972" d="M743.6,256.109c.92,1.361,3.012,1.051,4.5.349a15.975,15.975,0,0,0,8.646-16.734c-.985-5.559-7.858-9.876-9.434-3.056-.559,2.418.84,5.821.436,8.509C747.173,249.018,745.288,252.659,743.6,256.109Z" transform="translate(-743.605 -233.171)" fill="#292949"/>
              </g>
              <g id="Grupo_60424" data-name="Grupo 60424">
                <path id="Trazado_120973" data-name="Trazado 120973" d="M689.183,214.388c-7.012,3.878-10.146,12.418-16.559,17.222a23.766,23.766,0,0,0,18.494.458c5.773-2.308,19.461-3.707,17.671-11.705C706.967,212.222,695.326,210.99,689.183,214.388Z" transform="translate(-672.624 -212.617)" fill="#292949"/>
              </g>
            </g>
            <g id="Grupo_60426" data-name="Grupo 60426" transform="translate(0 39.291)">
              <path id="Trazado_120974" data-name="Trazado 120974" d="M712.621,313.747c4.014,6.97,4,14.862,3.442,22.411-1.255,17.091.373,36.906-5.519,53.244-11.123-.01-32.446-5.111-43.524-6.25-2.159-14.858-.9-23.545.316-40.37.6-8.3,1.888-19.426,4.825-27.328,2.4-6.47,8.812-14.825,18.486-14.559C699.712,301.144,708.97,307.409,712.621,313.747Z" transform="translate(-665.847 -300.889)" fill="#5d66d3"/>
            </g>
            <path id="Trazado_120975" data-name="Trazado 120975" d="M725.021,295.925a3.1,3.1,0,0,1-3.457-.914c-1.034-1-.715-1.328-.5-2.8.324-2.174.9-4.338,1.35-6.492l5.989,1.245c-.005,0-1.2,5.831-1.3,6.229A3.84,3.84,0,0,1,725.021,295.925Z" transform="translate(-696.364 -253.179)" fill="#eac1a4"/>
          </g>
          <g id="Grupo_60430" data-name="Grupo 60430" transform="translate(77.996 10.727)">
            <g id="Grupo_60428" data-name="Grupo 60428" transform="translate(29.428)">
              <path id="Trazado_120976" data-name="Trazado 120976" d="M814.04,244.281l-.237-7.563-3.222.012-.979,5.234-1.515-.705.987,6.435,3.344.442Z" transform="translate(-808.087 -236.717)" fill="#eac1a4"/>
            </g>
            <g id="Grupo_60429" data-name="Grupo 60429" transform="translate(0 8.922)">
              <path id="Trazado_120977" data-name="Trazado 120977" d="M745.783,295.354a10.947,10.947,0,0,1-3.226-11.791,5.134,5.134,0,0,1,1.184-2.007c1.278-1.233,3.278-1.266,5.04-1.042,3.73.473,12.205,6.1,14.3,3.448,1.748-2.21,2.259-7.466,3.076-10.162l5.166-17.038,6.585,1.218L775.8,277.867q-.686,6.463-1.372,12.927c-.34,3.2.977,10.181-2.019,11.836a5.227,5.227,0,0,1-2.611.469c-6.2-.07-12.142-2.346-17.925-4.591A21.4,21.4,0,0,1,745.783,295.354Z" transform="translate(-741.972 -256.761)" fill="#5d66d3"/>
            </g>
          </g>
          <g id="Grupo_60431" data-name="Grupo 60431" transform="translate(0 53.61)">
            <path id="Trazado_120978" data-name="Trazado 120978" d="M579.638,337.663l-4.677-4.6-7.375.175-.842,3.74,11.144,4.814Z" transform="translate(-566.745 -333.059)" fill="#eac1a4"/>
          </g>
          <g id="Grupo_60432" data-name="Grupo 60432" transform="translate(6.58 39.491)">
            <path id="Trazado_120979" data-name="Trazado 120979" d="M642.777,306.149l-5.323-4.809-28.68,22.847-20.617-7.237-6.629,8.452L609.12,341.58l29.165-18.689Z" transform="translate(-581.528 -301.34)" fill="#5d66d3"/>
          </g>
        </g>
        <g id="Grupo_60435" data-name="Grupo 60435" transform="translate(90.67)">
          <rect id="Rectángulo_7505" data-name="Rectángulo 7505" width="72.355" height="173.625" transform="translate(0 71.46) rotate(-80.979)" fill="#a0a603"/>
          <g id="Grupo_60434" data-name="Grupo 60434" transform="translate(31.265 22.17)">
            <path id="Trazado_120980" data-name="Trazado 120980" d="M358.69,93.816a20.715,20.715,0,0,0,8.56,3.58c3.686.567,5.87-.661,6.226-2.978.34-2.212-1.151-3.735-5.182-5.918-5.583-2.96-8.925-6.816-8.131-11.978.931-6.056,6.7-9.914,15.072-8.626a21.993,21.993,0,0,1,8.783,3.183l-2.786,6.2a17.06,17.06,0,0,0-7.166-2.827c-3.475-.534-5.4.786-5.687,2.63-.348,2.264,1.5,3.573,5.814,6.015,5.911,3.28,8.358,7,7.589,12-.915,5.951-6.273,10.3-16.016,8.8a23.506,23.506,0,0,1-9.727-3.706Z" transform="translate(-356.037 -67.649)" fill="#fff"/>
            <path id="Trazado_120981" data-name="Trazado 120981" d="M428.892,104.239l-3.928,8.722-8.321-1.279,16.305-33.828,10.533,1.619,5.55,37.188-8.637-1.328-1.338-9.532Zm9.929-4.619-1.054-7.871c-.308-2.2-.535-4.935-.738-7.121l-.105-.016c-.851,2.026-1.79,4.631-2.685,6.6l-3.264,7.207Z" transform="translate(-389.667 -73.312)" fill="#fff"/>
            <path id="Trazado_120982" data-name="Trazado 120982" d="M505.513,86.931l8.058,1.239-4.42,28.754,14.114,2.17-1.036,6.741-22.171-3.408Z" transform="translate(-435.951 -78.348)" fill="#fff"/>
            <path id="Trazado_120983" data-name="Trazado 120983" d="M583.941,119.957l-13.06-2.008-1.3,8.426,14.588,2.242-1.013,6.583-22.645-3.481,5.456-35.5,21.908,3.368-1.012,6.583-13.851-2.129-1.134,7.373,13.061,2.008Z" transform="translate(-469.5 -83.505)" fill="#fff"/>
          </g>
        </g>
        <g id="Grupo_60443" data-name="Grupo 60443" transform="translate(64.887 174.3)">
          <g id="Grupo_60436" data-name="Grupo 60436" transform="translate(82.07 58.27)">
            <rect id="Rectángulo_7506" data-name="Rectángulo 7506" width="47.307" height="33.019" transform="translate(0 18.939) rotate(-3.584)" fill="#d67086"/>
            <rect id="Rectángulo_7507" data-name="Rectángulo 7507" width="47.307" height="23.408" transform="matrix(0.063, 0.998, -0.998, 0.063, 68.954, 0)" fill="#dddae8"/>
            <rect id="Rectángulo_7508" data-name="Rectángulo 7508" width="29.566" height="20.493" transform="matrix(0.063, 0.998, -0.998, 0.063, 90.42, 16.441)" fill="#babcbe"/>
          </g>
          <g id="Grupo_60442" data-name="Grupo 60442">
            <g id="Grupo_60441" data-name="Grupo 60441">
              <path id="Trazado_120984" data-name="Trazado 120984" d="M501.375,680.05H406.213A8.493,8.493,0,0,1,400,665.766l8.652-9.277A2.575,2.575,0,1,1,412.421,660l-8.652,9.277a3.343,3.343,0,0,0,2.444,5.623h95.162a2.575,2.575,0,0,1,0,5.15Z" transform="translate(-322.119 -546.065)" fill="#f7f7f7"/>
              <g id="Grupo_60438" data-name="Grupo 60438" transform="translate(78.003 133.985)">
                <g id="Grupo_60437" data-name="Grupo 60437" transform="translate(0 0.071)">
                  <circle id="Elipse_4792" data-name="Elipse 4792" cx="10.815" cy="10.815" r="10.815" transform="matrix(0.159, -0.987, 0.987, 0.159, 0, 21.355)" fill="#292949"/>
                  <circle id="Elipse_4793" data-name="Elipse 4793" cx="5.765" cy="5.765" r="5.765" transform="translate(5.786 17.168) rotate(-80.82)" fill="#f7f7f7"/>
                  <circle id="Elipse_4794" data-name="Elipse 4794" cx="4.077" cy="4.077" r="4.077" transform="translate(7.799 15.876) rotate(-82.115)" fill="#292949"/>
                </g>
                <path id="Trazado_120985" data-name="Trazado 120985" d="M424.307,710.443h-5.346v3.04l4.277,9.051h2.138l4.277-9.051v-3.04Z" transform="translate(-411.908 -710.443)" fill="#babcbe"/>
                <rect id="Rectángulo_7509" data-name="Rectángulo 7509" width="10.692" height="3.04" transform="translate(7.053)" fill="#999" opacity="0.22" style="mix-blend-mode: multiply;isolation: isolate"/>
              </g>
              <g id="Grupo_60440" data-name="Grupo 60440" transform="translate(156.668 131.158)">
                <g id="Grupo_60439" data-name="Grupo 60439">
                  <circle id="Elipse_4795" data-name="Elipse 4795" cx="10.815" cy="10.815" r="10.815" transform="translate(0 15.295) rotate(-45)" fill="#292949"/>
                  <circle id="Elipse_4796" data-name="Elipse 4796" cx="5.765" cy="5.765" r="5.765" transform="translate(8.684 20.066) rotate(-80.82)" fill="#f7f7f7"/>
                  <circle id="Elipse_4797" data-name="Elipse 4797" cx="4.077" cy="4.077" r="4.077" transform="translate(9.53 15.295) rotate(-45)" fill="#292949"/>
                </g>
                <path id="Trazado_120986" data-name="Trazado 120986" d="M607.547,710.443H602.2v3.04l4.277,9.051h2.138l4.277-9.051v-3.04Z" transform="translate(-592.251 -707.616)" fill="#babcbe"/>
                <rect id="Rectángulo_7510" data-name="Rectángulo 7510" width="10.692" height="3.04" transform="translate(9.951 2.827)" fill="#999" opacity="0.22" style="mix-blend-mode: multiply;isolation: isolate"/>
              </g>
              <path id="Trazado_120987" data-name="Trazado 120987" d="M444.673,467.126a2.575,2.575,0,0,0-1.756-1.017L303.791,449.354l-4.723-16.747a14.763,14.763,0,0,0-12.505-10.75l-20.327-2.448a2.575,2.575,0,1,0-.615,5.113l20.327,2.449a9.634,9.634,0,0,1,8.161,7.024l5.208,18.466,18.992,67.791a13.462,13.462,0,0,0,12.908,9.768c.055,0,.111,0,.166,0L424.545,524a13.383,13.383,0,0,0,13.135-11.157l7.467-43.74A2.571,2.571,0,0,0,444.673,467.126Zm-6.086,9.8H428.209l.694-7.321,10.713,1.29Zm-4.066,23.815H425.95l1.771-18.665h9.987Zm-75.512,22.322L357.056,505.9h11.067l1.2,16.507Zm-12.9.833L343.23,505.9h11.235l1.971,17.339Zm-11.556.746L330.181,505.9h10.442l2.9,18.173Zm-16.268-23.9-5.264-18.665h8.962l4.352,18.665Zm6.343-18.665h12.188l2.984,18.665H328.98Zm8.349-24.025,3.017,18.875H323.426l-4.8-20.6Zm16.272,1.96,1.923,16.915H338.6l-2.966-18.554Zm61.819,16.915h-12.7v-11l13.1,1.578Zm2.968-9.112,12.311,1.483-.724,7.629H413.646ZM354.348,482.08H366.4l1.354,18.665h-11.28Zm-.469,18.665H342.407l-2.984-18.665h12.334Zm15.1-18.665h12.339l.7,18.665H370.332Zm14.917,0h11.9v18.665h-11.2Zm14.472,0h12.48l-.8,18.665H398.367Zm-2.575-5.15H383.7l-.479-12.823,12.57,1.514Zm-14.667,0H368.6l-1.067-14.712,13.1,1.577Zm-15.1,0h-12.26l-1.887-16.6,13.057,1.573Zm4.683,28.965h11.5l.585,15.636-10.9.7Zm14.08,0h11.007v14.8l-10.429.673Zm13.582,0h11.46l-.6,13.928-10.864.7Zm14.038,0h10.469l-1.245,13.127-9.813.634Zm.22-5.15.8-18.665h11.709l-1.771,18.665ZM315.9,456l4.88,20.931h-9.214l-6.263-22.207Zm15.238,68.869a8.3,8.3,0,0,1-7.874-6.013l-3.631-12.96h7.9l4.412,18.921Zm93.318-6.022c-.055,0-.111,0-.166,0l-.06,0,1.229-12.959h8.181l-1.038,6.077A8.245,8.245,0,0,1,424.458,518.846Z" transform="translate(-247.559 -414.956)" fill="#f7f7f7"/>
              <path id="Trazado_120988" data-name="Trazado 120988" d="M644.325,524.174l-.625,3.778H625.057a2.778,2.778,0,0,1-2.778-2.778V519.1l20.183,2.318A2.24,2.24,0,0,1,644.325,524.174Z" transform="translate(-446.724 -470.283)" fill="#babcbe"/>
              <path id="Trazado_120989" data-name="Trazado 120989" d="M234.175,409.467a5.63,5.63,0,1,0-1.346,11.179l27.77,3.345,1.238-11.191Z" transform="translate(-227.872 -409.428)" fill="#babcbe"/>
              <path id="Trazado_120990" data-name="Trazado 120990" d="M266.822,417l-29.967,7.64,28.729,3.551Z" transform="translate(-232.857 -413.63)" fill="#999" opacity="0.22" style="mix-blend-mode: multiply;isolation: isolate"/>
            </g>
            <path id="Trazado_120991" data-name="Trazado 120991" d="M374.033,557.022l-.726-2.575H499.16l-.44,2.575Z" transform="translate(-308.572 -489.897)" fill="#999" opacity="0.15" style="mix-blend-mode: multiply;isolation: isolate"/>
            <path id="Trazado_120992" data-name="Trazado 120992" d="M388.737,610.526l-.726-2.575H503.249l-.44,2.575Z" transform="translate(-316.731 -519.586)" fill="#999" opacity="0.15" style="mix-blend-mode: multiply;isolation: isolate"/>
          </g>
        </g>
        <g id="Grupo_60447" data-name="Grupo 60447" transform="translate(306.612 116.855)">
          <g id="Grupo_60444" data-name="Grupo 60444" transform="translate(0 33.907)">
            <path id="Trazado_120993" data-name="Trazado 120993" d="M782.515,372.114l-3.109-1.682-.843-3-.727-.144-.214.887-1.413-2.291-2.069-.7-2.359,1.7-.844,2.882,1.934,2.164L776.15,373l4.156,2.487Z" transform="translate(-770.937 -361.338)" fill="#d39689"/>
            <path id="Trazado_120994" data-name="Trazado 120994" d="M788.826,363.856l18.308,12.8,18.731-20.105,2.232,22.807-18.254,12.007L785.489,369.89Z" transform="translate(-779.012 -356.548)" fill="#353a85"/>
          </g>
          <g id="Grupo_60445" data-name="Grupo 60445" transform="translate(52.769 113.023)">
            <path id="Trazado_120995" data-name="Trazado 120995" d="M930.6,744.237l.312,3.079-5.594,3.839-3.265-2.7L924.7,745l5.594-3.839Z" transform="translate(-907.56 -649.079)" fill="#babcbe"/>
            <path id="Trazado_120996" data-name="Trazado 120996" d="M912.391,535.317l.947,9.35-8.388,32.126,7.789,51.624-5.733,1.975-15.118-50.4-2.4-14.662.087-31.04Z" transform="translate(-889.489 -534.29)" fill="#474ebb"/>
          </g>
          <g id="Grupo_60446" data-name="Grupo 60446" transform="translate(31.575 116.607)">
            <path id="Trazado_120997" data-name="Trazado 120997" d="M841.875,550.206l12.06,86.5h5.482l.986-55.448,9.977-38.919Z" transform="translate(-841.875 -542.342)" fill="#474ebb"/>
            <path id="Trazado_120998" data-name="Trazado 120998" d="M870.128,752.813v3.107l-5.928,3.107-2.964-3.107,2.964-3.107Z" transform="translate(-852.618 -659.13)" fill="#babcbe"/>
          </g>
          <path id="Trazado_120999" data-name="Trazado 120999" d="M837.861,356.481a4.934,4.934,0,0,1,1.81-1.763c5.446-3.074,14.473-.367,20.382-.366,1.746,18.387,6.574,35.911,9.693,53.964q4.967,28.76,11.183,57.286c.235,1.077-16.446.534-18.019.56-16.048.271-37.054.215-52.539-4.637,9.882-26.53,13.49-55.075,21.272-82.3,1.366-4.779,2.988-9.486,4.219-14.3C836.575,362.133,836.465,358.763,837.861,356.481Z" transform="translate(-792.818 -320.81)" fill="#303478"/>
          <path id="Trazado_121000" data-name="Trazado 121000" d="M875.11,291.633a10.818,10.818,0,0,0-7.705,9.058,9.522,9.522,0,0,1,2.1-15.414,11.027,11.027,0,0,1,5.307,6.427Z" transform="translate(-822.786 -283.093)" fill="#292949"/>
          <path id="Trazado_121001" data-name="Trazado 121001" d="M869.24,302.271c2.1-11.082,15.943-9.167,19.915-.193,2.258,5.1-.108,12.327-4.626,15.878-.1.981-.224,3.687-.974,4.343-.812.71-3.371.033-4.374-.2a1.545,1.545,0,0,1-.77-.346,2.889,2.889,0,0,1-.3-1.68,9.234,9.234,0,0,1-2.257-.446,10.727,10.727,0,0,1-6.517-7.288A21.479,21.479,0,0,1,869.24,302.271Z" transform="translate(-825.179 -288.289)" fill="#d39689"/>
          <path id="Trazado_121002" data-name="Trazado 121002" d="M892.852,338.34a2.9,2.9,0,0,1-.316-.031c-2.442-.419-6.362-1.208-7.5-3.781-1.162-2.636.9-7.42,1.244-10.16.518-4.164.69-8.365.89-12.554a19.125,19.125,0,0,0-3.144-10.722,60.148,60.148,0,0,0-7.105-8.819,8.953,8.953,0,0,1-2.477-3.945,5.836,5.836,0,0,1,1.446-4.828,8.178,8.178,0,0,1,6.386-3.124c9.157-.219,16.041,5.2,18.639,14.141,3.722,12.815-.928,25.043-.235,37.794a12.186,12.186,0,0,0,2.059,6.126C902.417,337.959,894.827,338.454,892.852,338.34Z" transform="translate(-828.32 -280.371)" fill="#292949"/>
        </g>
        <g id="Grupo_60457" data-name="Grupo 60457" transform="translate(273.842 139.499)">
          <g id="Grupo_60449" data-name="Grupo 60449">
            <g id="Grupo_60448" data-name="Grupo 60448">
              <circle id="Elipse_4798" data-name="Elipse 4798" cx="35.667" cy="35.667" r="35.667" transform="translate(0 50.441) rotate(-45)" fill="#efefef"/>
            </g>
          </g>
          <g id="Grupo_60451" data-name="Grupo 60451" transform="translate(7.632 7.632)">
            <g id="Grupo_60450" data-name="Grupo 60450">
              <circle id="Elipse_4799" data-name="Elipse 4799" cx="30.27" cy="30.27" r="30.27" transform="translate(0 42.809) rotate(-45)" fill="#ffd217"/>
            </g>
          </g>
          <g id="Grupo_60453" data-name="Grupo 60453" transform="translate(26.088 23.597)">
            <g id="Grupo_60452" data-name="Grupo 60452">
              <path id="Trazado_121003" data-name="Trazado 121003" d="M794.339,384.256a30.275,30.275,0,0,1-38.414,44.8,30.273,30.273,0,1,0,38.414-44.8Z" transform="translate(-755.925 -384.256)" fill="#ffd217"/>
            </g>
          </g>
          <g id="Grupo_60455" data-name="Grupo 60455" transform="translate(23.47 23.534)">
            <g id="Grupo_60454" data-name="Grupo 60454">
              <path id="Trazado_121004" data-name="Trazado 121004" d="M752.292,415.469a26.72,26.72,0,0,1,46.7-19.48,26.723,26.723,0,1,0-42.256,32.528A26.6,26.6,0,0,1,752.292,415.469Z" transform="translate(-750.045 -384.116)" fill="#f7f7f7" opacity="0.6"/>
            </g>
          </g>
          <g id="Grupo_60456" data-name="Grupo 60456" transform="translate(41.095 30.78)">
            <path id="Trazado_121005" data-name="Trazado 121005" d="M800.163,400.394l.26,3.848a8.113,8.113,0,0,1,3.892,1.275,11.753,11.753,0,0,1,3.047,3.363l-3.683,2.4q-1.94-3.024-4.727-2.836a4.143,4.143,0,0,0-2.8,1.214,3.293,3.293,0,0,0-.966,2.629,3.148,3.148,0,0,0,1.079,2.254,13.384,13.384,0,0,0,3.8,1.893,36.752,36.752,0,0,1,4.063,1.766,10.5,10.5,0,0,1,2.46,1.678,8.236,8.236,0,0,1,2.609,5.641,9.291,9.291,0,0,1-1.6,6.025,9.711,9.711,0,0,1-5.069,3.774l.275,4.063-3.435.232-.267-3.946a10.465,10.465,0,0,1-6.049-2.254,12.685,12.685,0,0,1-3.406-6.041l4.258-1.195a10.124,10.124,0,0,0,2.447,4.114,5.081,5.081,0,0,0,3.636.977,5.025,5.025,0,0,0,3.518-1.638,4.712,4.712,0,0,0,1.193-3.65,4.19,4.19,0,0,0-1.408-3.041,11.136,11.136,0,0,0-1.883-1.164,30.938,30.938,0,0,0-3.139-1.356,14.709,14.709,0,0,1-5.218-2.8,7.878,7.878,0,0,1-1.976-7.656,7.207,7.207,0,0,1,1.156-2.3,8.13,8.13,0,0,1,1.994-1.86,11.39,11.39,0,0,1,2.77-1.331l-.26-3.848Z" transform="translate(-789.641 -400.394)" fill="#6f7302" opacity="0.6"/>
          </g>
        </g>
        <g id="Grupo_60458" data-name="Grupo 60458" transform="translate(352.787 155.661)">
          <path id="Trazado_121006" data-name="Trazado 121006" d="M886.931,448.587l-3.682,1.2-3.023-1.593-.663.469.544.839-2.887-.6-2.117,1.117-.428,3.157,1.656,2.845,3.18.093,3.329-1.8,5.112-1.431Z" transform="translate(-874.674 -412.302)" fill="#d39689"/>
          <path id="Trazado_121007" data-name="Trazado 121007" d="M909.423,399.861a5.9,5.9,0,0,0,2.758-4.737,25.853,25.853,0,0,0-.7-6.029,49.574,49.574,0,0,1,.429-19.187c1.384-6.256,8.682,1.61,9.589,4.432,1.005,3.128.722,6.534.968,9.768q.493,6.513.467,13.052c-.011,2.755.667,9.263-2.233,10.839a7.973,7.973,0,0,1-2.566.719c-1.384.225-17.913,2.309-18.172,1.492l-2.283-7.2C901.12,402.3,906.271,401.991,909.423,399.861Z" transform="translate(-887.441 -367.552)" fill="#353a85"/>
        </g>
        <g id="Grupo_60466" data-name="Grupo 60466" transform="translate(361.742 184.498)">
          <g id="Grupo_60465" data-name="Grupo 60465">
            <g id="Grupo_60459" data-name="Grupo 60459" transform="translate(5.193)">
              <path id="Trazado_121008" data-name="Trazado 121008" d="M929.028,450.988a.524.524,0,0,1-.693-.263l-6.565-12.481c-2.194-4.171-6.938-5.975-10.576-4.022s-4.812,6.934-2.619,11.1l6.565,12.481a.534.534,0,0,1-.171.728.524.524,0,0,1-.693-.264L907.71,445.79c-2.481-4.717-1.152-10.352,2.962-12.56s9.48-.167,11.962,4.549l6.566,12.481A.535.535,0,0,1,929.028,450.988Z" transform="translate(-906.46 -432.339)" fill="#292949"/>
            </g>
            <path id="Trazado_121009" data-name="Trazado 121009" d="M991.1,493.163l-3.019-1.528L969.831,450.5l1.857.274,2.485-.641Z" transform="translate(-936.431 -442.211)" fill="#89a8eb"/>
            <path id="Trazado_121010" data-name="Trazado 121010" d="M974,450.771l15.2,32.162-12.72-32.8Z" transform="translate(-938.746 -442.211)" fill="#829fde"/>
            <path id="Trazado_121011" data-name="Trazado 121011" d="M894.793,468.865l33.426-17.941,19.063,40.819L912.7,509.608Z" transform="translate(-894.793 -442.651)" fill="#829fde"/>
            <path id="Trazado_121012" data-name="Trazado 121012" d="M963.467,489.114l-34.731,20.143L907.228,467.5l32.232-17.355Z" transform="translate(-901.693 -442.217)" fill="#8cabef"/>
            <path id="Trazado_121013" data-name="Trazado 121013" d="M921.836,530.893l-9.133-.084-17.911-40.743,3-.8,2.531-.131Z" transform="translate(-894.793 -463.852)" fill="#d5c477"/>
            <path id="Trazado_121014" data-name="Trazado 121014" d="M901.541,489.161l17.858,36.63,6.208,4.987-21.553-41.829Z" transform="translate(-898.538 -463.751)" fill="#c4b56b"/>
            <path id="Trazado_121015" data-name="Trazado 121015" d="M935.035,576.649l2.95-4.93,6.208,4.987Z" transform="translate(-917.123 -509.679)" fill="#b9ab65"/>
            <g id="Grupo_60461" data-name="Grupo 60461" transform="translate(15.434 24.958)">
              <path id="Trazado_121016" data-name="Trazado 121016" d="M931.341,489.041a1.046,1.046,0,0,0-1.386-.527,1.068,1.068,0,0,0-.343,1.455A1.046,1.046,0,0,0,931,490.5,1.068,1.068,0,0,0,931.341,489.041Z" transform="translate(-929.467 -488.41)" fill="#4e4e4e"/>
              <g id="Grupo_60460" data-name="Grupo 60460" transform="translate(0.433 0.469)">
                <path id="Trazado_121017" data-name="Trazado 121017" d="M931.51,489.825a.6.6,0,0,0-.792-.3.61.61,0,0,0-.2.831.6.6,0,0,0,.792.3A.61.61,0,0,0,931.51,489.825Z" transform="translate(-930.439 -489.464)" fill="#e1deba"/>
              </g>
            </g>
            <g id="Grupo_60463" data-name="Grupo 60463" transform="translate(29.501 17.408)">
              <path id="Trazado_121018" data-name="Trazado 121018" d="M962.945,472.078a1.047,1.047,0,0,0-1.386-.527,1.068,1.068,0,0,0-.343,1.455,1.048,1.048,0,0,0,1.386.527A1.069,1.069,0,0,0,962.945,472.078Z" transform="translate(-961.071 -471.447)" fill="#1a3151"/>
              <g id="Grupo_60462" data-name="Grupo 60462" transform="translate(0.433 0.469)">
                <path id="Trazado_121019" data-name="Trazado 121019" d="M963.114,472.862a.6.6,0,0,0-.792-.3.61.61,0,0,0-.2.831.6.6,0,0,0,.792.3A.61.61,0,0,0,963.114,472.862Z" transform="translate(-962.043 -472.501)" fill="#e1deba"/>
              </g>
            </g>
            <g id="Grupo_60464" data-name="Grupo 60464" transform="translate(8.152 0.26)">
              <path id="Trazado_121020" data-name="Trazado 121020" d="M935.675,451.573a.523.523,0,0,1-.693-.263l-6.566-12.481c-2.193-4.171-6.938-5.975-10.576-4.022s-4.813,6.934-2.619,11.105l6.565,12.481a.534.534,0,0,1-.171.728.524.524,0,0,1-.693-.264l-6.565-12.481c-2.482-4.717-1.153-10.352,2.962-12.56s9.481-.167,11.962,4.55l6.565,12.481A.534.534,0,0,1,935.675,451.573Z" transform="translate(-913.108 -432.924)" fill="#292949"/>
            </g>
          </g>
        </g>
        <g id="Grupo_60474" data-name="Grupo 60474" transform="translate(351.743 182.899)">
          <g id="Grupo_60473" data-name="Grupo 60473">
            <g id="Grupo_60467" data-name="Grupo 60467" transform="translate(13.59)">
              <path id="Trazado_121021" data-name="Trazado 121021" d="M929.178,455.964a.684.684,0,0,1-.808-.533l-3.5-16.949a10.429,10.429,0,1,0-20.417,4.259l3.5,16.948a.683.683,0,1,1-1.338.279l-3.5-16.948A11.8,11.8,0,1,1,926.2,438.2l3.5,16.949A.687.687,0,0,1,929.178,455.964Z" transform="translate(-902.862 -428.747)" fill="#292949"/>
            </g>
            <path id="Trazado_121022" data-name="Trazado 121022" d="M998.872,523.734l-3.362-2.777-7.068-54.789,2.346.915,3.557.024Z" transform="translate(-936.759 -449.512)" fill="#e8e8e8"/>
            <path id="Trazado_121023" data-name="Trazado 121023" d="M993.712,468.223l6.761,43.13-3.2-43.106Z" transform="translate(-939.683 -450.652)" fill="#d4d4d4"/>
            <path id="Trazado_121024" data-name="Trazado 121024" d="M872.33,476.939l51.722-10.789,8.27,54.666L879.105,531.15Z" transform="translate(-872.33 -449.502)" fill="#d4d4d4"/>
            <path id="Trazado_121025" data-name="Trazado 121025" d="M955.151,522.339l-54.366,13-11.116-56.564,49.9-10.469Z" transform="translate(-881.951 -450.698)" fill="#cbcbcb"/>
            <path id="Trazado_121026" data-name="Trazado 121026" d="M891.164,547.584l-12.058-2.992-6.776-54.211,4.312-.006,3.406.645Z" transform="translate(-872.33 -462.944)" fill="#ededed"/>
            <path id="Trazado_121027" data-name="Trazado 121027" d="M882.016,490.375l8.416,49.294,6.147,7.907-11.147-56.657Z" transform="translate(-877.705 -462.944)" fill="#e8e8e8"/>
            <path id="Trazado_121028" data-name="Trazado 121028" d="M887.544,606.059l5.956-4.939,6.147,7.907Z" transform="translate(-880.772 -524.395)" fill="#e0e0e0"/>
            <g id="Grupo_60469" data-name="Grupo 60469" transform="translate(20.474 31.079)">
              <path id="Trazado_121029" data-name="Trazado 121029" d="M921.032,499.665a1.366,1.366,0,1,0-1.059,1.625A1.368,1.368,0,0,0,921.032,499.665Z" transform="translate(-918.328 -498.569)" fill="#292949"/>
              <g id="Grupo_60468" data-name="Grupo 60468" transform="translate(0.586 0.589)">
                <path id="Trazado_121030" data-name="Trazado 121030" d="M921.189,500.519a.781.781,0,1,0-.605.929A.781.781,0,0,0,921.189,500.519Z" transform="translate(-919.644 -499.893)" fill="#d4d4d4"/>
              </g>
            </g>
            <g id="Grupo_60471" data-name="Grupo 60471" transform="translate(42.242 26.538)">
              <path id="Trazado_121031" data-name="Trazado 121031" d="M969.936,489.464a1.366,1.366,0,1,0-1.059,1.625A1.368,1.368,0,0,0,969.936,489.464Z" transform="translate(-967.232 -488.368)" fill="#292949"/>
              <g id="Grupo_60470" data-name="Grupo 60470" transform="translate(0.585 0.589)">
                <path id="Trazado_121032" data-name="Trazado 121032" d="M970.092,490.318a.781.781,0,1,0-.605.928A.781.781,0,0,0,970.092,490.318Z" transform="translate(-968.547 -489.692)" fill="#d4d4d4"/>
              </g>
            </g>
            <g id="Grupo_60472" data-name="Grupo 60472" transform="translate(17.4 1.247)">
              <path id="Trazado_121033" data-name="Trazado 121033" d="M937.737,458.766a.684.684,0,0,1-.808-.533l-3.5-16.948a10.429,10.429,0,1,0-20.418,4.259l3.5,16.949a.683.683,0,1,1-1.338.279l-3.5-16.948a11.8,11.8,0,1,1,23.093-4.817l3.5,16.948A.687.687,0,0,1,937.737,458.766Z" transform="translate(-911.421 -431.549)" fill="#292949"/>
            </g>
          </g>
        </g>
        <path id="Trazado_121034" data-name="Trazado 121034" d="M918.624,444.866c-.493-.622-1.024-1.223-1.543-1.834a1.425,1.425,0,0,1-.35-.831q-.457-.264-.912-.531c-1.825-1.073-3.515-2.4-5.414-3.335a7,7,0,0,1-.981.8c-3.151,2.13-8.3,2.441-11.741,3.145l2.283,7.2c.259.817,16.787-1.268,18.171-1.492a11.877,11.877,0,0,0,1.769-.384A22.6,22.6,0,0,1,918.624,444.866Z" transform="translate(-534.654 -251.168)" fill="#353a85"/>
        <g id="Grupo_60482" data-name="Grupo 60482" transform="translate(319.132 41.277)">
          <g id="Grupo_60481" data-name="Grupo 60481">
            <g id="Grupo_60475" data-name="Grupo 60475" transform="translate(18.653)">
              <path id="Trazado_121035" data-name="Trazado 121035" d="M863.179,133.682a.608.608,0,0,1-.665-.526l-.275-13.478c-.092-4.5-4.643-8.106-10.146-8.032s-9.9,3.8-9.813,8.3l.275,13.478a.6.6,0,0,1-.643.544.608.608,0,0,1-.665-.526l-.275-13.478c-.1-5.094,4.875-9.307,11.1-9.391s11.371,3.99,11.475,9.084l.275,13.478A.6.6,0,0,1,863.179,133.682Z" transform="translate(-840.972 -110.575)" fill="#292949"/>
            </g>
            <path id="Trazado_121036" data-name="Trazado 121036" d="M915.63,193.77l-2.666-2.616,3.118-42.946,2.043,1.043,3.34.538Z" transform="translate(-862.266 -131.457)" fill="#e8e8e8"/>
            <path id="Trazado_121037" data-name="Trazado 121037" d="M922.9,150.551l-1.329,33.982,4.669-33.444Z" transform="translate(-867.044 -132.757)" fill="#d4d4d4"/>
            <path id="Trazado_121038" data-name="Trazado 121038" d="M802.369,148.895l50.558-.688-1.965,43.028-51.882.121Z" transform="translate(-799.073 -131.456)" fill="#d4d4d4"/>
            <path id="Trazado_121039" data-name="Trazado 121039" d="M876.329,195.406,822.891,197.4l-.373-44.9,48.785-.71Z" transform="translate(-812.079 -133.446)" fill="#e5dec1"/>
            <path id="Trazado_121040" data-name="Trazado 121040" d="M809.885,196.266l-10.806-4.053,3.29-42.461,4.055.626,3.088.992Z" transform="translate(-799.073 -132.314)" fill="#ededed"/>
            <path id="Trazado_121041" data-name="Trazado 121041" d="M814.5,151.159l-.871,38.939L818,197.046l-.385-44.972Z" transform="translate(-807.144 -133.095)" fill="#e8e8e8"/>
            <path id="Trazado_121042" data-name="Trazado 121042" d="M799.065,241.549l6.48-2.907,4.371,6.947Z" transform="translate(-799.065 -181.638)" fill="#e0e0e0"/>
            <g id="Grupo_60477" data-name="Grupo 60477" transform="translate(21.632 23.4)">
              <path id="Trazado_121043" data-name="Trazado 121043" d="M850.279,164.2a1.217,1.217,0,0,0-1.33-1.052,1.2,1.2,0,0,0-1.285,1.088,1.217,1.217,0,0,0,1.329,1.052A1.2,1.2,0,0,0,850.279,164.2Z" transform="translate(-847.664 -163.146)" fill="#292949"/>
              <g id="Grupo_60476" data-name="Grupo 60476" transform="translate(0.56 0.459)">
                <path id="Trazado_121044" data-name="Trazado 121044" d="M850.417,164.777a.7.7,0,0,0-.76-.6.684.684,0,0,0-.734.622.7.7,0,0,0,.759.6A.684.684,0,0,0,850.417,164.777Z" transform="translate(-848.923 -164.176)" fill="#d4d4d4"/>
              </g>
            </g>
            <g id="Grupo_60479" data-name="Grupo 60479" transform="translate(42.909 23.11)">
              <path id="Trazado_121045" data-name="Trazado 121045" d="M898.082,163.548a1.218,1.218,0,0,0-1.33-1.053,1.2,1.2,0,0,0-1.286,1.088,1.217,1.217,0,0,0,1.33,1.053A1.2,1.2,0,0,0,898.082,163.548Z" transform="translate(-895.467 -162.495)" fill="#292949"/>
              <g id="Grupo_60478" data-name="Grupo 60478" transform="translate(0.56 0.459)">
                <path id="Trazado_121046" data-name="Trazado 121046" d="M898.221,164.127a.7.7,0,0,0-.76-.6.684.684,0,0,0-.735.621.7.7,0,0,0,.76.6A.684.684,0,0,0,898.221,164.127Z" transform="translate(-896.726 -163.526)" fill="#d4d4d4"/>
              </g>
            </g>
            <g id="Grupo_60480" data-name="Grupo 60480" transform="translate(22.014 1.511)">
              <path id="Trazado_121047" data-name="Trazado 121047" d="M870.728,137.077a.608.608,0,0,1-.665-.526l-.275-13.478c-.092-4.5-4.643-8.107-10.145-8.032s-9.9,3.8-9.813,8.3l.275,13.478a.6.6,0,0,1-.643.544.608.608,0,0,1-.665-.526l-.275-13.478c-.1-5.094,4.875-9.307,11.1-9.391s11.371,3.99,11.475,9.084l.275,13.478A.6.6,0,0,1,870.728,137.077Z" transform="translate(-848.521 -113.97)" fill="#292949"/>
            </g>
          </g>
        </g>
        <g id="Grupo_60490" data-name="Grupo 60490" transform="translate(190.018 138.459)">
          <g id="Grupo_60489" data-name="Grupo 60489">
            <g id="Grupo_60483" data-name="Grupo 60483" transform="translate(17.608)">
              <path id="Trazado_121048" data-name="Trazado 121048" d="M568.828,355.027a.622.622,0,0,1-.606-.609l-.127-15.016a9.49,9.49,0,0,0-9.248-9.3,8.816,8.816,0,0,0-9.093,8.9l.128,15.016a.577.577,0,0,1-.6.583.621.621,0,0,1-.606-.609l-.127-15.016a9.972,9.972,0,0,1,10.284-10.064,10.733,10.733,0,0,1,10.459,10.52l.128,15.016A.577.577,0,0,1,568.828,355.027Z" transform="translate(-548.552 -328.905)" fill="#292949"/>
            </g>
            <path id="Trazado_121049" data-name="Trazado 121049" d="M616.075,423.433l-2.426-3.007,3.263-47.707,1.867,1.233,3.064.717Z" transform="translate(-567.066 -353.217)" fill="#e8e8e8"/>
            <path id="Trazado_121050" data-name="Trazado 121050" d="M623.26,375.49l-1.536,37.79,4.6-37.072Z" transform="translate(-571.547 -354.755)" fill="#d4d4d4"/>
            <path id="Trazado_121051" data-name="Trazado 121051" d="M512.423,370.429l46.459,1.021-2.2,47.839-47.671-1.7Z" transform="translate(-509.001 -351.946)" fill="#d4d4d4"/>
            <path id="Trazado_121052" data-name="Trazado 121052" d="M580.345,424.714l-49.118.33.074-50,44.831.933Z" transform="translate(-521.331 -354.507)" fill="#e5dec1"/>
            <path id="Trazado_121053" data-name="Trazado 121053" d="M518.9,422.484l-9.891-4.894,3.416-47.161,3.72.84,2.828,1.213Z" transform="translate(-509.001 -351.946)" fill="#ededed"/>
            <path id="Trazado_121054" data-name="Trazado 121054" d="M523.593,372.317l-1.161,43.325,3.951,7.89.063-50.086Z" transform="translate(-516.45 -352.994)" fill="#e8e8e8"/>
            <path id="Trazado_121055" data-name="Trazado 121055" d="M508.994,472.66l5.981-3.008,3.951,7.89Z" transform="translate(-508.994 -407.004)" fill="#e0e0e0"/>
            <g id="Grupo_60485" data-name="Grupo 60485" transform="translate(20.204 25.813)">
              <path id="Trazado_121056" data-name="Trazado 121056" d="M556.787,388.117a1.242,1.242,0,0,0-1.212-1.219,1.154,1.154,0,0,0-1.191,1.166,1.242,1.242,0,0,0,1.212,1.219A1.154,1.154,0,0,0,556.787,388.117Z" transform="translate(-554.384 -386.898)" fill="#292949"/>
              <g id="Grupo_60484" data-name="Grupo 60484" transform="translate(0.515 0.511)">
                <path id="Trazado_121057" data-name="Trazado 121057" d="M556.914,388.743a.709.709,0,0,0-.693-.7.659.659,0,0,0-.681.666.709.709,0,0,0,.692.7A.659.659,0,0,0,556.914,388.743Z" transform="translate(-555.541 -388.047)" fill="#d4d4d4"/>
              </g>
            </g>
            <g id="Grupo_60487" data-name="Grupo 60487" transform="translate(39.756 26.243)">
              <path id="Trazado_121058" data-name="Trazado 121058" d="M600.715,389.082a1.242,1.242,0,0,0-1.212-1.219,1.154,1.154,0,0,0-1.192,1.166,1.242,1.242,0,0,0,1.212,1.219A1.154,1.154,0,0,0,600.715,389.082Z" transform="translate(-598.312 -387.863)" fill="#292949"/>
              <g id="Grupo_60486" data-name="Grupo 60486" transform="translate(0.515 0.511)">
                <path id="Trazado_121059" data-name="Trazado 121059" d="M600.842,389.708a.709.709,0,0,0-.693-.7.659.659,0,0,0-.681.666.709.709,0,0,0,.692.7A.659.659,0,0,0,600.842,389.708Z" transform="translate(-599.469 -389.012)" fill="#d4d4d4"/>
              </g>
            </g>
            <g id="Grupo_60488" data-name="Grupo 60488" transform="translate(20.681 1.801)">
              <path id="Trazado_121060" data-name="Trazado 121060" d="M575.732,359.074a.621.621,0,0,1-.606-.609L575,343.449a9.489,9.489,0,0,0-9.247-9.3,8.817,8.817,0,0,0-9.093,8.9l.127,15.016a.577.577,0,0,1-.6.583.621.621,0,0,1-.606-.609l-.128-15.016a9.972,9.972,0,0,1,10.284-10.064,10.733,10.733,0,0,1,10.459,10.52l.128,15.016A.578.578,0,0,1,575.732,359.074Z" transform="translate(-555.456 -332.952)" fill="#292949"/>
            </g>
          </g>
        </g>
        <g id="Grupo_60498" data-name="Grupo 60498" transform="translate(0.078 164.965)">
          <g id="Grupo_60497" data-name="Grupo 60497">
            <g id="Grupo_60491" data-name="Grupo 60491" transform="translate(27.064)">
              <path id="Trazado_121061" data-name="Trazado 121061" d="M162.471,418.351a.646.646,0,0,1-.443-.774l3.5-15.751c1.17-5.263-1.864-10.564-6.764-11.817s-9.839,2.01-11.009,7.273l-3.5,15.751a.6.6,0,0,1-.722.476.646.646,0,0,1-.443-.774l3.5-15.751c1.324-5.953,6.909-9.642,12.452-8.226s8.974,7.413,7.651,13.365l-3.5,15.751A.6.6,0,0,1,162.471,418.351Z" transform="translate(-143.074 -388.456)" fill="#292949"/>
            </g>
            <path id="Trazado_121062" data-name="Trazado 121062" d="M185.042,499l-1.638-3.693,14.7-49.216,1.522,1.711,2.812,1.44Z" transform="translate(-138.388 -420.436)" fill="#e8e8e8"/>
            <path id="Trazado_121063" data-name="Trazado 121063" d="M206.608,449.934l-10.623,39.221,13.436-37.781Z" transform="translate(-145.369 -422.569)" fill="#d4d4d4"/>
            <path id="Trazado_121064" data-name="Trazado 121064" d="M97.008,420.248l45.024,11.511-13.7,49.591L82.29,468.857Z" transform="translate(-82.281 -406.097)" fill="#d4d4d4"/>
            <path id="Trazado_121065" data-name="Trazado 121065" d="M149.226,491.415,101.286,480.72l12.148-52.334,43.458,11.054Z" transform="translate(-92.822 -410.612)" fill="#e5dec1"/>
            <path id="Trazado_121066" data-name="Trazado 121066" d="M90.745,476.2l-8.456-7.347,14.719-48.609,3.422,1.716,2.462,1.906Z" transform="translate(-82.281 -406.097)" fill="#ededed"/>
            <path id="Trazado_121067" data-name="Trazado 121067" d="M108.591,424.1,97,469.2l1.945,9.149L111.1,425.927Z" transform="translate(-90.441 -408.236)" fill="#e8e8e8"/>
            <path id="Trazado_121068" data-name="Trazado 121068" d="M82.27,527.232l6.555-1.8,1.945,9.149Z" transform="translate(-82.27 -464.46)" fill="#e0e0e0"/>
            <g id="Grupo_60493" data-name="Grupo 60493" transform="translate(28.995 25.831)">
              <path id="Trazado_121069" data-name="Trazado 121069" d="M149.772,448.073a1.292,1.292,0,0,0-.886-1.549,1.2,1.2,0,0,0-1.443.953,1.292,1.292,0,0,0,.886,1.549A1.2,1.2,0,0,0,149.772,448.073Z" transform="translate(-147.41 -446.489)" fill="#292949"/>
              <g id="Grupo_60492" data-name="Grupo 60492" transform="translate(0.513 0.551)">
                <path id="Trazado_121070" data-name="Trazado 121070" d="M149.912,448.632a.738.738,0,0,0-.507-.885.684.684,0,0,0-.824.545.738.738,0,0,0,.507.885A.684.684,0,0,0,149.912,448.632Z" transform="translate(-148.563 -447.727)" fill="#d4d4d4"/>
              </g>
            </g>
            <g id="Grupo_60495" data-name="Grupo 60495" transform="translate(47.943 30.676)">
              <path id="Trazado_121071" data-name="Trazado 121071" d="M192.343,458.957a1.292,1.292,0,0,0-.886-1.549,1.2,1.2,0,0,0-1.443.953,1.292,1.292,0,0,0,.886,1.549A1.2,1.2,0,0,0,192.343,458.957Z" transform="translate(-189.981 -457.373)" fill="#292949"/>
              <g id="Grupo_60494" data-name="Grupo 60494" transform="translate(0.513 0.551)">
                <path id="Trazado_121072" data-name="Trazado 121072" d="M192.483,459.516a.738.738,0,0,0-.507-.884.684.684,0,0,0-.824.544.738.738,0,0,0,.507.885A.684.684,0,0,0,192.483,459.516Z" transform="translate(-191.134 -458.611)" fill="#d4d4d4"/>
              </g>
            </g>
            <g id="Grupo_60496" data-name="Grupo 60496" transform="translate(29.624 2.577)">
              <path id="Trazado_121073" data-name="Trazado 121073" d="M168.222,424.14a.645.645,0,0,1-.443-.774l3.5-15.75c1.17-5.263-1.864-10.564-6.764-11.817s-9.839,2.01-11.009,7.273l-3.5,15.75a.6.6,0,0,1-.721.477.646.646,0,0,1-.443-.774l3.5-15.75c1.324-5.952,6.91-9.643,12.452-8.226s8.974,7.412,7.651,13.365l-3.5,15.75A.6.6,0,0,1,168.222,424.14Z" transform="translate(-148.824 -394.245)" fill="#292949"/>
            </g>
          </g>
        </g>
        <g id="Grupo_60499" data-name="Grupo 60499" transform="translate(26.456 142.619)">
          <path id="Trazado_121074" data-name="Trazado 121074" d="M155.586,372.533a69.463,69.463,0,0,0,4.334-7.014,1.426,1.426,0,0,1,.263-.365l-8.277-26.9-10.373,1.862,6.649,33.778,4.409,3.979A54.827,54.827,0,0,1,155.586,372.533Z" transform="translate(-141.532 -338.252)" fill="#353a85"/>
        </g>
        <g id="Grupo_60510" data-name="Grupo 60510" transform="translate(0 66.074)">
          <g id="Grupo_60500" data-name="Grupo 60500">
            <path id="Trazado_121075" data-name="Trazado 121075" d="M179.032,222.694,98.79,243.14a3.14,3.14,0,0,1-3.8-2.274l-12.8-50.226a3.141,3.141,0,0,1,2.248-3.815l80.242-20.446a3.14,3.14,0,0,1,3.8,2.274l12.8,50.226A3.14,3.14,0,0,1,179.032,222.694Z" transform="translate(-82.095 -166.284)" fill="#d6d976"/>
          </g>
          <g id="Grupo_60501" data-name="Grupo 60501" transform="translate(8.626 35.753)">
            <rect id="Rectángulo_7511" data-name="Rectángulo 7511" width="15.577" height="11.667" rx="0.939" transform="translate(0 3.846) rotate(-14.295)" fill="#babcbe"/>
          </g>
          <g id="Grupo_60502" data-name="Grupo 60502" transform="translate(11.903 40.41)" opacity="0.2" style="mix-blend-mode: multiply;isolation: isolate">
            <path id="Trazado_121076" data-name="Trazado 121076" d="M123.018,261.689l-1.177-4.62c-2.779,4.466-9.074,7.907-13,9.719a2.068,2.068,0,0,0,1.62.263l11.062-2.819A2.094,2.094,0,0,0,123.018,261.689Z" transform="translate(-108.837 -257.069)" fill="#999"/>
          </g>
          <g id="Grupo_60507" data-name="Grupo 60507" transform="translate(12.481 35.403)">
            <g id="Grupo_60503" data-name="Grupo 60503" transform="translate(0 14.879)">
              <rect id="Rectángulo_7512" data-name="Rectángulo 7512" width="18.008" height="5.759" transform="translate(0 4.446) rotate(-14.295)" fill="#fff"/>
            </g>
            <g id="Grupo_60504" data-name="Grupo 60504" transform="translate(19.464 9.919)">
              <rect id="Rectángulo_7513" data-name="Rectángulo 7513" width="18.008" height="5.759" transform="translate(0 4.446) rotate(-14.295)" fill="#fff"/>
            </g>
            <g id="Grupo_60505" data-name="Grupo 60505" transform="translate(38.928 4.96)">
              <rect id="Rectángulo_7514" data-name="Rectángulo 7514" width="18.008" height="5.759" transform="translate(0 4.446) rotate(-14.295)" fill="#fff"/>
            </g>
            <g id="Grupo_60506" data-name="Grupo 60506" transform="translate(58.393)">
              <rect id="Rectángulo_7515" data-name="Rectángulo 7515" width="18.008" height="5.759" transform="translate(0 4.446) rotate(-14.295)" fill="#fff"/>
            </g>
          </g>
          <g id="Grupo_60508" data-name="Grupo 60508" transform="translate(6.737 16.396)">
            <path id="Trazado_121077" data-name="Trazado 121077" d="M102.736,232.332a2.518,2.518,0,0,1-1.533,1.143,2.485,2.485,0,1,1,.664-4.546L102,229l.466-.738-.13-.083a3.379,3.379,0,1,0,1.175,4.578l.076-.138-.77-.408Z" transform="translate(-97.23 -216.754)" fill="#f3f3f3"/>
            <path id="Trazado_121078" data-name="Trazado 121078" d="M114.057,226.544a1.9,1.9,0,0,0-2.3-1.379l-1.964.5,1.627,6.387.864-.22-.689-2.7.935-.238,2.027,2.362.971-.247-2.147-2.49A1.916,1.916,0,0,0,114.057,226.544Zm-.863.22a1,1,0,0,1-.724,1.218l-1.1.28-.5-1.95,1.1-.28A1.02,1.02,0,0,1,113.194,226.763Z" transform="translate(-104.199 -215.32)" fill="#f3f3f3"/>
            <path id="Trazado_121079" data-name="Trazado 121079" d="M121.4,229.133l3.379-.861-.221-.867-2.492.635-.606-2.38,2.177-.555-.221-.867-2.177.555-.358-1.406,2.492-.635-.221-.867-3.379.861Z" transform="translate(-109.737 -213.532)" fill="#f3f3f3"/>
            <path id="Trazado_121080" data-name="Trazado 121080" d="M130.548,220.424l-1.5.383,1.627,6.387,1.5-.383a3.3,3.3,0,1,0-1.627-6.387Zm1.407,5.52-.641.163-1.185-4.653.641-.163a2.217,2.217,0,0,1,3,1.7A2.252,2.252,0,0,1,131.955,225.944Z" transform="translate(-114.883 -212.646)" fill="#f3f3f3"/>
            <rect id="Rectángulo_7516" data-name="Rectángulo 7516" width="0.891" height="6.591" transform="translate(19.603 6.775) rotate(-14.295)" fill="#f3f3f3"/>
            <path id="Trazado_121081" data-name="Trazado 121081" d="M144.21,217.234l1.588-.4,1.407,5.52.863-.22-1.407-5.52,1.58-.4-.221-.867-4.032,1.027Z" transform="translate(-123.176 -209.9)" fill="#f3f3f3"/>
            <path id="Trazado_121082" data-name="Trazado 121082" d="M165.708,216.188l-.077.118a2.519,2.519,0,0,1-1.533,1.143,2.485,2.485,0,1,1,.664-4.545l.127.071.466-.738-.13-.083a3.38,3.38,0,1,0,1.175,4.578l.076-.138Z" transform="translate(-132.13 -207.861)" fill="#f3f3f3"/>
            <path id="Trazado_121083" data-name="Trazado 121083" d="M176.293,208.855l-1.418,7.163.96-.245.418-2.138,2.706-.689,1.4,1.675.952-.243-4.664-5.613Zm2.028,3.33-1.873.478.438-2.21Z" transform="translate(-140.314 -206.253)" fill="#f3f3f3"/>
            <path id="Trazado_121084" data-name="Trazado 121084" d="M190.7,207.014a1.9,1.9,0,0,0-2.3-1.378l-1.964.5,1.627,6.387.863-.22-.689-2.7.935-.238,2.027,2.362.971-.247-2.148-2.49A1.916,1.916,0,0,0,190.7,207.014Zm-.864.22a1,1,0,0,1-.724,1.219l-1.1.28-.5-1.95,1.1-.28A1.019,1.019,0,0,1,189.837,207.234Z" transform="translate(-146.727 -204.484)" fill="#f3f3f3"/>
            <path id="Trazado_121085" data-name="Trazado 121085" d="M197.917,203.257l-1.5.384,1.627,6.387,1.5-.383a3.3,3.3,0,1,0-1.627-6.387Zm3.216,2.564a2.252,2.252,0,0,1-1.81,2.956l-.641.163-1.185-4.653.641-.163A2.216,2.216,0,0,1,201.133,205.821Z" transform="translate(-152.266 -203.12)" fill="#f3f3f3"/>
          </g>
          <g id="Grupo_60509" data-name="Grupo 60509" transform="translate(53.844 44.957)">
            <rect id="Rectángulo_7517" data-name="Rectángulo 7517" width="38.094" height="1.745" transform="translate(0 9.406) rotate(-14.295)" fill="#fff"/>
          </g>
        </g>
        <g id="Grupo_60518" data-name="Grupo 60518" transform="translate(15.903 266.3)">
          <g id="Grupo_60517" data-name="Grupo 60517">
            <g id="Grupo_60511" data-name="Grupo 60511" transform="translate(18.653)">
              <path id="Trazado_121086" data-name="Trazado 121086" d="M181.935,639.223a.608.608,0,0,1-.665-.526L181,625.219c-.092-4.5-4.643-8.107-10.145-8.032s-9.9,3.8-9.812,8.3l.275,13.478a.6.6,0,0,1-.643.544.608.608,0,0,1-.665-.526l-.275-13.478c-.1-5.094,4.875-9.307,11.1-9.391s11.371,3.99,11.475,9.084l.275,13.478A.6.6,0,0,1,181.935,639.223Z" transform="translate(-159.728 -616.116)" fill="#292949"/>
            </g>
            <path id="Trazado_121087" data-name="Trazado 121087" d="M234.387,699.311l-2.666-2.616,3.118-42.946,2.043,1.043,3.34.538Z" transform="translate(-181.023 -636.998)" fill="#e8e8e8"/>
            <path id="Trazado_121088" data-name="Trazado 121088" d="M241.659,656.092l-1.329,33.982L245,656.63Z" transform="translate(-185.8 -638.298)" fill="#d4d4d4"/>
            <path id="Trazado_121089" data-name="Trazado 121089" d="M121.125,654.436l50.558-.688-1.965,43.028-51.882.121Z" transform="translate(-117.83 -636.998)" fill="#d4d4d4"/>
            <path id="Trazado_121090" data-name="Trazado 121090" d="M195.085,700.947l-53.438,1.992-.373-44.9,48.785-.71Z" transform="translate(-130.836 -638.987)" fill="#e5dec1"/>
            <path id="Trazado_121091" data-name="Trazado 121091" d="M128.641,701.808l-10.806-4.053,3.29-42.461,4.055.626,3.088.992Z" transform="translate(-117.83 -637.856)" fill="#ededed"/>
            <path id="Trazado_121092" data-name="Trazado 121092" d="M133.252,656.7l-.871,38.939,4.371,6.947-.385-44.972Z" transform="translate(-125.901 -638.636)" fill="#e8e8e8"/>
            <path id="Trazado_121093" data-name="Trazado 121093" d="M117.822,747.09l6.48-2.907,4.371,6.947Z" transform="translate(-117.822 -687.179)" fill="#e0e0e0"/>
            <g id="Grupo_60513" data-name="Grupo 60513" transform="translate(21.632 23.4)">
              <path id="Trazado_121094" data-name="Trazado 121094" d="M169.036,669.739a1.217,1.217,0,0,0-1.33-1.052,1.2,1.2,0,0,0-1.285,1.088,1.217,1.217,0,0,0,1.329,1.053A1.2,1.2,0,0,0,169.036,669.739Z" transform="translate(-166.421 -668.687)" fill="#292949"/>
              <g id="Grupo_60512" data-name="Grupo 60512" transform="translate(0.56 0.459)">
                <path id="Trazado_121095" data-name="Trazado 121095" d="M169.174,670.319a.7.7,0,0,0-.76-.6.684.684,0,0,0-.734.622.7.7,0,0,0,.759.6A.684.684,0,0,0,169.174,670.319Z" transform="translate(-167.68 -669.717)" fill="#d4d4d4"/>
              </g>
            </g>
            <g id="Grupo_60515" data-name="Grupo 60515" transform="translate(42.91 23.11)">
              <path id="Trazado_121096" data-name="Trazado 121096" d="M216.839,669.089a1.217,1.217,0,0,0-1.329-1.053,1.2,1.2,0,0,0-1.286,1.088,1.217,1.217,0,0,0,1.33,1.052A1.2,1.2,0,0,0,216.839,669.089Z" transform="translate(-214.224 -668.036)" fill="#292949"/>
              <g id="Grupo_60514" data-name="Grupo 60514" transform="translate(0.56 0.459)">
                <path id="Trazado_121097" data-name="Trazado 121097" d="M216.977,669.668a.7.7,0,0,0-.759-.6.684.684,0,0,0-.735.622.7.7,0,0,0,.76.6A.684.684,0,0,0,216.977,669.668Z" transform="translate(-215.483 -669.067)" fill="#d4d4d4"/>
              </g>
            </g>
            <g id="Grupo_60516" data-name="Grupo 60516" transform="translate(22.013 1.511)">
              <path id="Trazado_121098" data-name="Trazado 121098" d="M189.484,642.619a.608.608,0,0,1-.665-.527l-.275-13.478c-.092-4.5-4.643-8.106-10.145-8.032s-9.9,3.8-9.812,8.3l.275,13.478a.6.6,0,0,1-.643.544.608.608,0,0,1-.665-.526l-.275-13.478c-.1-5.093,4.875-9.306,11.1-9.391s11.371,3.991,11.475,9.084l.275,13.478A.6.6,0,0,1,189.484,642.619Z" transform="translate(-167.277 -619.511)" fill="#292949"/>
            </g>
          </g>
        </g>
      </g>
    </g>
  </g>
</svg>
