<svg xmlns="http://www.w3.org/2000/svg" width="159" height="147" viewBox="0 0 159 147">
  <g id="Grupo_67715" data-name="Grupo 67715" transform="translate(-721 -7597)">
    <rect id="Rectángulo_7619" data-name="Rectángulo 7619" width="159" height="147" rx="14" transform="translate(721 7597)" fill="#fff"/>
    <g id="gestion-de-proyectos" transform="translate(749.112 7620.06)">
      <g id="Grupo_67683" data-name="Grupo 67683" transform="translate(1.588 1.577)">
        <path id="Trazado_125255" data-name="Trazado 125255" d="M8,8H76.919v97.726H8Z" transform="translate(-8 -7.999)" fill="#eceff1" fill-rule="evenodd"/>
        <path id="Trazado_125256" data-name="Trazado 125256" d="M182.894,8h34.459v97.726H182.894Z" transform="translate(-148.435 -7.999)" fill="#c4cccf" fill-rule="evenodd"/>
      </g>
      <g id="Grupo_67684" data-name="Grupo 67684" transform="translate(11.256 11.245)">
        <path id="Trazado_125257" data-name="Trazado 125257" d="M57.07,369.039h18.3v16.923H57.07Z" transform="translate(-57.07 -307.572)" fill="#d5e7ff" fill-rule="evenodd"/>
        <path id="Trazado_125258" data-name="Trazado 125258" d="M103.52,369.039h9.152v16.923H103.52Z" transform="translate(-94.368 -307.572)" fill="#acceff" fill-rule="evenodd"/>
        <path id="Trazado_125259" data-name="Trazado 125259" d="M57.07,213.055h18.3v16.923H57.07Z" transform="translate(-57.07 -182.322)" fill="#f6dccd" fill-rule="evenodd"/>
        <path id="Trazado_125260" data-name="Trazado 125260" d="M103.52,213.055h9.152v16.923H103.52Z" transform="translate(-94.368 -182.322)" fill="#f1cbbc" fill-rule="evenodd"/>
        <path id="Trazado_125261" data-name="Trazado 125261" d="M57.07,57.07h18.3V73.993H57.07Z" transform="translate(-57.07 -57.07)" fill="#f9e997" fill-rule="evenodd"/>
        <path id="Trazado_125262" data-name="Trazado 125262" d="M103.52,57.07h9.152V73.993H103.52Z" transform="translate(-94.368 -57.07)" fill="#f5d844" fill-rule="evenodd"/>
      </g>
      <g id="Grupo_67685" data-name="Grupo 67685" transform="translate(41.699 45.634)">
        <path id="Trazado_125263" data-name="Trazado 125263" d="M264.783,254.195a4.247,4.247,0,0,1,4.411,4.032v41.156a4.247,4.247,0,0,1-4.411,4.031H215.991a4.247,4.247,0,0,1-4.412-4.032V258.227a4.247,4.247,0,0,1,4.412-4.032Z" transform="translate(-211.579 -249.744)" fill="#d5e7ff" fill-rule="evenodd"/>
        <path id="Trazado_125264" data-name="Trazado 125264" d="M382.186,254.2a4.247,4.247,0,0,1,4.411,4.032v41.156a4.247,4.247,0,0,1-4.411,4.031h-24.4V254.2Z" transform="translate(-328.982 -249.744)" fill="#acceff" fill-rule="evenodd"/>
        <path id="Trazado_125265" data-name="Trazado 125265" d="M211.579,265.566h57.615v-7.34a4.247,4.247,0,0,0-4.411-4.032H215.991a4.247,4.247,0,0,0-4.412,4.032Z" transform="translate(-211.579 -249.744)" fill="#76e2f8" fill-rule="evenodd"/>
        <path id="Trazado_125266" data-name="Trazado 125266" d="M357.79,265.566H386.6v-7.34a4.247,4.247,0,0,0-4.411-4.032h-24.4Z" transform="translate(-328.982 -249.744)" fill="#3aaaff" fill-rule="evenodd"/>
        <path id="Trazado_125267" data-name="Trazado 125267" d="M255.091,231.606h2.144a1.935,1.935,0,0,1,1.929,1.929v6.216a1.935,1.935,0,0,1-1.929,1.929h-2.144a1.935,1.935,0,0,1-1.929-1.929v-6.216A1.934,1.934,0,0,1,255.091,231.606Z" transform="translate(-244.969 -231.606)" fill="#697c86" fill-rule="evenodd"/>
        <path id="Trazado_125268" data-name="Trazado 125268" d="M268.392,231.606h1.072a1.934,1.934,0,0,1,1.929,1.929v6.216a1.935,1.935,0,0,1-1.929,1.929h-1.072Z" transform="translate(-257.198 -231.606)" fill="#3b4a51" fill-rule="evenodd"/>
        <path id="Trazado_125269" data-name="Trazado 125269" d="M344.489,231.606h2.144a1.935,1.935,0,0,1,1.929,1.929v6.216a1.935,1.935,0,0,1-1.929,1.929h-2.144a1.935,1.935,0,0,1-1.929-1.929v-6.216A1.934,1.934,0,0,1,344.489,231.606Z" transform="translate(-316.753 -231.606)" fill="#697c86" fill-rule="evenodd"/>
        <path id="Trazado_125270" data-name="Trazado 125270" d="M355.666,231.606h1.072a1.935,1.935,0,0,1,1.929,1.929v6.216a1.935,1.935,0,0,1-1.929,1.929h-1.072Z" transform="translate(-327.277 -231.606)" fill="#3b4a51" fill-rule="evenodd"/>
        <path id="Trazado_125271" data-name="Trazado 125271" d="M429.42,231.606h2.144a1.935,1.935,0,0,1,1.929,1.929v6.216a1.935,1.935,0,0,1-1.929,1.929H429.42a1.935,1.935,0,0,1-1.929-1.929v-6.216A1.934,1.934,0,0,1,429.42,231.606Z" transform="translate(-384.95 -231.606)" fill="#697c86" fill-rule="evenodd"/>
        <path id="Trazado_125272" data-name="Trazado 125272" d="M442.721,231.606h1.072a1.934,1.934,0,0,1,1.929,1.929v6.216a1.934,1.934,0,0,1-1.929,1.929h-1.072Z" transform="translate(-397.179 -231.606)" fill="#3b4a51" fill-rule="evenodd"/>
        <path id="Trazado_125273" data-name="Trazado 125273" d="M260.866,352.419h8.085V360.5h-8.085Z" transform="translate(-251.155 -328.615)" fill="#f9e997" fill-rule="evenodd"/>
        <path id="Trazado_125274" data-name="Trazado 125274" d="M281.384,352.419h4.042V360.5h-4.042Z" transform="translate(-267.63 -328.615)" fill="#f5d844" fill-rule="evenodd"/>
        <path id="Trazado_125275" data-name="Trazado 125275" d="M336.565,352.419h8.085V360.5h-8.085Z" transform="translate(-311.939 -328.615)" fill="#f9e997" fill-rule="evenodd"/>
        <path id="Trazado_125276" data-name="Trazado 125276" d="M357.082,352.419h4.042V360.5h-4.042Z" transform="translate(-328.414 -328.615)" fill="#f5d844" fill-rule="evenodd"/>
        <path id="Trazado_125277" data-name="Trazado 125277" d="M413.68,352.419h8.085V360.5H413.68Z" transform="translate(-373.86 -328.615)" fill="#f9e997" fill-rule="evenodd"/>
        <path id="Trazado_125278" data-name="Trazado 125278" d="M434.2,352.419h4.042V360.5H434.2Z" transform="translate(-390.334 -328.615)" fill="#f5d844" fill-rule="evenodd"/>
        <path id="Trazado_125279" data-name="Trazado 125279" d="M260.866,422.459h8.085v8.085h-8.085Z" transform="translate(-251.155 -384.856)" fill="#f9e997" fill-rule="evenodd"/>
        <path id="Trazado_125280" data-name="Trazado 125280" d="M281.384,422.459h4.042v8.085h-4.042Z" transform="translate(-267.63 -384.856)" fill="#f5d844" fill-rule="evenodd"/>
        <path id="Trazado_125281" data-name="Trazado 125281" d="M336.565,422.459h8.085v8.085h-8.085Z" transform="translate(-311.939 -384.856)" fill="#f9e997" fill-rule="evenodd"/>
        <path id="Trazado_125282" data-name="Trazado 125282" d="M357.082,422.459h4.042v8.085h-4.042Z" transform="translate(-328.414 -384.856)" fill="#f5d844" fill-rule="evenodd"/>
        <path id="Trazado_125283" data-name="Trazado 125283" d="M413.68,422.459h8.085v8.085H413.68Z" transform="translate(-373.86 -384.856)" fill="#f9e997" fill-rule="evenodd"/>
        <path id="Trazado_125284" data-name="Trazado 125284" d="M434.2,422.459h4.042v8.085H434.2Z" transform="translate(-390.334 -384.856)" fill="#f5d844" fill-rule="evenodd"/>
      </g>
      <path id="Trazado_125285" data-name="Trazado 125285" d="M94.9,48.513H91.818v-.949a3.509,3.509,0,0,0-3.508-3.5H86.171a3.509,3.509,0,0,0-3.507,3.5v.949h-8.02v-.949a3.508,3.508,0,0,0-3.116-3.479V1.576A1.575,1.575,0,0,0,69.952,0H1.59A1.575,1.575,0,0,0,.015,1.576V99.3a1.575,1.575,0,0,0,1.575,1.575H94.9a5.813,5.813,0,0,0,5.987-5.607V54.115a5.811,5.811,0,0,0-5.987-5.6Zm-9.087-.95a.359.359,0,0,1,.357-.352H88.31a.359.359,0,0,1,.357.352V53.78a.359.359,0,0,1-.357.352H86.171a.359.359,0,0,1-.357-.352Zm-3.15,4.1V53.78a3.508,3.508,0,0,0,3.507,3.5H88.31a3.509,3.509,0,0,0,3.508-3.5V51.663H94.9a2.669,2.669,0,0,1,2.837,2.452v5.769H43.272V54.115a2.669,2.669,0,0,1,2.837-2.452h2.206V53.78a3.509,3.509,0,0,0,3.508,3.5h2.139a3.509,3.509,0,0,0,3.507-3.5V51.663h8.02V53.78A3.509,3.509,0,0,0,69,57.282h2.139a3.509,3.509,0,0,0,3.508-3.5V51.663Zm-31.2,2.117V47.564a.359.359,0,0,1,.357-.352h2.139a.359.359,0,0,1,.357.352V53.78a.359.359,0,0,1-.357.352H51.822A.359.359,0,0,1,51.465,53.78Zm19.67-6.568a.359.359,0,0,1,.357.352V53.78a.359.359,0,0,1-.357.352H69a.359.359,0,0,1-.357-.352V47.564A.359.359,0,0,1,69,47.212ZM3.165,3.151H68.377V44.12a3.507,3.507,0,0,0-2.887,3.444v.949h-8.02v-.949a3.508,3.508,0,0,0-3.507-3.5H51.823a3.509,3.509,0,0,0-3.507,3.5v.949H46.109a5.811,5.811,0,0,0-5.987,5.6V95.272a5.285,5.285,0,0,0,.607,2.457H3.165ZM94.9,97.729H46.109a2.7,2.7,0,0,1-2.837-2.457V63.035H97.738V95.272A2.671,2.671,0,0,1,94.9,97.729ZM59.5,67.865a1.575,1.575,0,0,1,1.575,1.575v8.082A1.575,1.575,0,0,1,59.5,79.1H51.409a1.575,1.575,0,0,1-1.575-1.575V69.44a1.575,1.575,0,0,1,1.575-1.575Zm-1.575,8.082H52.984V71.016h4.937Zm16.487-8.082a1.575,1.575,0,0,1,1.575,1.575v8.082A1.575,1.575,0,0,1,74.409,79.1H66.327a1.575,1.575,0,0,1-1.575-1.575V69.44a1.575,1.575,0,0,1,1.575-1.575Zm-1.575,8.082H67.9V71.016h4.931ZM59.5,81.666a1.575,1.575,0,0,1,1.575,1.575v8.082A1.575,1.575,0,0,1,59.5,92.9H51.409a1.575,1.575,0,0,1-1.575-1.575V83.241a1.575,1.575,0,0,1,1.575-1.575Zm-1.575,8.082H52.984V84.817h4.937Zm16.487-8.082a1.575,1.575,0,0,1,1.575,1.575v8.082A1.575,1.575,0,0,1,74.409,92.9H66.327a1.575,1.575,0,0,1-1.575-1.575V83.241a1.575,1.575,0,0,1,1.575-1.575Zm-1.575,8.082H67.9V84.817h4.931ZM89.606,67.865a1.575,1.575,0,0,1,1.575,1.575v8.082A1.575,1.575,0,0,1,89.606,79.1H81.519a1.575,1.575,0,0,1-1.575-1.575V69.44a1.575,1.575,0,0,1,1.575-1.575Zm-1.575,8.082H83.094V71.016h4.937Zm1.575,5.719a1.575,1.575,0,0,1,1.575,1.575v8.082A1.575,1.575,0,0,1,89.606,92.9H81.519a1.575,1.575,0,0,1-1.575-1.575V83.241a1.575,1.575,0,0,1,1.575-1.575Zm-1.575,8.082H83.094V84.817h4.937ZM9.682,28.172V11.244a1.575,1.575,0,0,1,1.575-1.575h18.3a1.575,1.575,0,0,1,0,3.15H12.833V26.6H27.985V21.8l-2.929,2.659a1.575,1.575,0,0,1-2.171-.052l-3.591-3.586A1.575,1.575,0,0,1,21.519,18.6l2.53,2.526,7.6-6.9a1.575,1.575,0,1,1,2.117,2.332l-2.633,2.39v9.228a1.575,1.575,0,0,1-1.575,1.575h-18.3a1.575,1.575,0,0,1-1.575-1.575Zm0,30.729V41.978A1.575,1.575,0,0,1,11.257,40.4h18.3a1.575,1.575,0,1,1,0,3.15H12.833V57.326H27.985V52.539L25.056,55.2a1.575,1.575,0,0,1-2.172-.053l-3.591-3.591a1.575,1.575,0,1,1,2.227-2.227l2.53,2.53,7.6-6.9a1.575,1.575,0,0,1,2.117,2.332l-2.633,2.39V58.9a1.575,1.575,0,0,1-1.575,1.575h-18.3A1.575,1.575,0,0,1,9.682,58.9ZM33.877,75.8a1.575,1.575,0,0,1-.109,2.225l-2.633,2.388v9.224a1.575,1.575,0,0,1-1.575,1.575h-18.3a1.575,1.575,0,0,1-1.575-1.575V72.713a1.575,1.575,0,0,1,1.575-1.575h18.3a1.575,1.575,0,1,1,0,3.15H12.833V88.061H27.985V83.27l-2.93,2.658a1.575,1.575,0,0,1-2.171-.052l-3.591-3.586a1.575,1.575,0,1,1,2.226-2.229l2.53,2.526,7.6-6.9a1.575,1.575,0,0,1,2.225.109Zm6.245-64.556A1.575,1.575,0,0,1,41.7,9.669H62.177a1.575,1.575,0,0,1,0,3.15H41.7a1.575,1.575,0,0,1-1.575-1.575Zm0,8.461A1.575,1.575,0,0,1,41.7,18.13H62.177a1.575,1.575,0,0,1,0,3.15H41.7A1.575,1.575,0,0,1,40.121,19.705Z" fill-rule="evenodd"/>
    </g>
  </g>
</svg>
