<svg xmlns="http://www.w3.org/2000/svg" width="460.914" height="299.692" viewBox="0 0 460.914 299.692">
  <g id="Grupo_68441" data-name="Grupo 68441" transform="translate(-264.938 -244.96)">
    <g id="Grupo_68440" data-name="Grupo 68440" transform="translate(240.425 244.96)">
      <g id="Grupo_68409" data-name="Grupo 68409" transform="translate(26.665 89.244)">
        <g id="Grupo_68408" data-name="Grupo 68408" transform="translate(0)">
          <path id="Trazado_127550" data-name="Trazado 127550" d="M828.739,823.436c24.163,43.24-10.8,128.078-232.554,69.117C485,862.991,401.952,929.586,384.838,883.1,344.974,774.828,507.772,649.579,598.3,737.022,681.049,816.949,784.76,744.737,828.739,823.436Z" transform="translate(-378.665 -707.631)" fill="none" stroke="#e4e4e4" stroke-miterlimit="10" stroke-width="4" stroke-dasharray="32.088 32.088"/>
        </g>
      </g>
      <g id="Grupo_68435" data-name="Grupo 68435" transform="translate(232.125 0)">
        <path id="Trazado_127598" data-name="Trazado 127598" d="M4,0H194.739a4,4,0,0,1,4,4V268.62a4,4,0,0,1-4,4H4a4,4,0,0,1-4-4V4A4,4,0,0,1,4,0Z" transform="translate(0 26.688)" fill="#263238"/>
        <g id="Grupo_68433" data-name="Grupo 68433" transform="translate(8.904 37.675)">
          <g id="Grupo_68410" data-name="Grupo 68410">
            <rect id="Rectángulo_7733" data-name="Rectángulo 7733" width="163.577" height="237.616" transform="translate(9.057)" fill="#f6f5f5"/>
            <path id="Trazado_127552" data-name="Trazado 127552" d="M1700.528,440.287c.051,92.657,3.042,204.406-7.365,229.149-45.844,4.466-99.522,5.9-156.214,6.167L1558.5,441Z" transform="translate(-1527.894 -440.286)" fill="#e4e4e4"/>
            <path id="Trazado_127553" data-name="Trazado 127553" d="M1647.945,661.993c-71.454,11.436-119.21,12.039-157.942,9.163,5.019-53.431,7.031-142.193,9.055-230.813l86.1.191,77.927,5.144C1664.224,537.656,1664.348,622.618,1647.945,661.993Z" transform="translate(-1490.003 -440.331)" fill="#fff"/>
          </g>
          <g id="Grupo_68432" data-name="Grupo 68432" transform="translate(25.519 21.914)">
            <rect id="Rectángulo_7734" data-name="Rectángulo 7734" width="86.075" height="13.111" transform="translate(21.125 0) rotate(1.348)" fill="#e5dec1"/>
            <g id="Grupo_68431" data-name="Grupo 68431" transform="translate(0 25.578)">
              <g id="Grupo_68414" data-name="Grupo 68414" transform="translate(2.882)">
                <g id="Grupo_68411" data-name="Grupo 68411" transform="translate(42.816 6.695)">
                  <rect id="Rectángulo_7735" data-name="Rectángulo 7735" width="77.639" height="6.001" transform="matrix(1, 0.024, -0.024, 1, 0.449, 0)" fill="#529ad9"/>
                  <rect id="Rectángulo_7736" data-name="Rectángulo 7736" width="52.773" height="6.001" transform="translate(0.141 13.081) rotate(1.348)" fill="#d3dfff"/>
                </g>
                <g id="Grupo_68413" data-name="Grupo 68413" transform="translate(0)">
                  <path id="Trazado_127599" data-name="Trazado 127599" d="M0,0H18.38V18.38H0Z" transform="matrix(1, 0.024, -0.024, 1, 0.432, 6.04)" fill="#fff" stroke="#529ad9" stroke-width="6"/>
                  <g id="Grupo_68412" data-name="Grupo 68412" transform="translate(3.391)">
                    <path id="Trazado_127554" data-name="Trazado 127554" d="M1654.859,697.37c.567,2.172,1.615,11.269,6.171,8.725,1.051-.587,1.94-2.137,2.726-3.029l4.238-4.812,8.477-9.624c.724-.822-2.473-2.884-3.382-1.852l-7.535,8.554-3.767,4.277c-.872.99-2.887,4.181-4.18,4.464l2.109.681c.5.408-.426-2.482-.447-2.561l-1.052-4.025c-.289-1.109-3.788-2.441-3.359-.8Z" transform="translate(-1654.822 -686.495)" fill="#b2b555"/>
                  </g>
                </g>
              </g>
              <g id="Grupo_68418" data-name="Grupo 68418" transform="translate(2.096 33.925)">
                <g id="Grupo_68415" data-name="Grupo 68415" transform="translate(42.816 6.177)">
                  <rect id="Rectángulo_7738" data-name="Rectángulo 7738" width="63.935" height="6.001" transform="translate(0.449 0) rotate(1.348)" fill="#529ad9"/>
                  <rect id="Rectángulo_7739" data-name="Rectángulo 7739" width="77.639" height="6.001" transform="translate(0.141 13.081) rotate(1.348)" fill="#d3dfff"/>
                </g>
                <g id="Grupo_68417" data-name="Grupo 68417" transform="translate(0)">
                  <rect id="Rectángulo_7740" data-name="Rectángulo 7740" width="18.38" height="18.38" transform="matrix(1, 0.024, -0.024, 1, 0.432, 5.522)" fill="#fff" stroke="#529ad9" stroke-miterlimit="10" stroke-width="6"/>
                  <g id="Grupo_68416" data-name="Grupo 68416" transform="translate(3.379)">
                    <path id="Trazado_127555" data-name="Trazado 127555" d="M1650.719,873.248c.568,2.172,1.615,11.269,6.171,8.725,1.051-.587,1.94-2.138,2.726-3.03l4.239-4.812,8.477-9.624c.724-.822-2.473-2.884-3.382-1.852l-7.535,8.555-3.767,4.277c-.872.99-2.887,4.181-4.18,4.464l2.11.681c.5.408-.427-2.482-.447-2.561l-1.051-4.026c-.29-1.109-3.788-2.441-3.359-.8Z" transform="translate(-1650.682 -862.373)" fill="#b2b555"/>
                  </g>
                </g>
              </g>
              <g id="Grupo_68422" data-name="Grupo 68422" transform="translate(1.309 67.569)">
                <g id="Grupo_68419" data-name="Grupo 68419" transform="translate(42.816 5.939)">
                  <rect id="Rectángulo_7741" data-name="Rectángulo 7741" width="77.639" height="6.001" transform="translate(0.449 0) rotate(1.348)" fill="#529ad9"/>
                  <rect id="Rectángulo_7742" data-name="Rectángulo 7742" width="34.722" height="6.001" transform="translate(0.141 13.081) rotate(1.348)" fill="#d3dfff"/>
                </g>
                <g id="Grupo_68421" data-name="Grupo 68421" transform="translate(0)">
                  <rect id="Rectángulo_7743" data-name="Rectángulo 7743" width="18.38" height="18.38" transform="matrix(1, 0.024, -0.024, 1, 0.432, 5.284)" fill="#fff" stroke="#529ad9" stroke-miterlimit="10" stroke-width="6"/>
                  <g id="Grupo_68420" data-name="Grupo 68420" transform="translate(3.628)">
                    <path id="Trazado_127556" data-name="Trazado 127556" d="M1647.936,1047.669c.567,2.172,1.615,11.269,6.171,8.725,1.051-.586,1.94-2.137,2.726-3.03l4.238-4.812,8.476-9.624c.724-.822-2.473-2.884-3.382-1.852l-7.535,8.554-3.768,4.277c-.871.99-2.886,4.181-4.18,4.464l2.109.681c.5.407-.426-2.482-.447-2.561l-1.051-4.026c-.29-1.108-3.788-2.441-3.359-.8Z" transform="translate(-1647.899 -1036.794)" fill="#b2b555"/>
                  </g>
                </g>
              </g>
              <g id="Grupo_68426" data-name="Grupo 68426" transform="translate(0.523 100.756)">
                <g id="Grupo_68423" data-name="Grupo 68423" transform="translate(42.816 6.159)">
                  <rect id="Rectángulo_7744" data-name="Rectángulo 7744" width="77.639" height="6.001" transform="translate(0.449 0) rotate(1.348)" fill="#529ad9"/>
                  <rect id="Rectángulo_7745" data-name="Rectángulo 7745" width="61.332" height="6.001" transform="matrix(1, 0.024, -0.024, 1, 0.141, 13.081)" fill="#d3dfff"/>
                </g>
                <g id="Grupo_68425" data-name="Grupo 68425" transform="translate(0)">
                  <rect id="Rectángulo_7746" data-name="Rectángulo 7746" width="18.38" height="18.38" transform="matrix(1, 0.024, -0.024, 1, 0.432, 5.504)" fill="#fff" stroke="#529ad9" stroke-miterlimit="10" stroke-width="6"/>
                  <g id="Grupo_68424" data-name="Grupo 68424" transform="translate(3.633)">
                    <path id="Trazado_127557" data-name="Trazado 127557" d="M1643.886,1219.724c.567,2.172,1.615,11.27,6.171,8.726,1.051-.587,1.94-2.137,2.726-3.03l4.239-4.812,8.477-9.624c.724-.822-2.473-2.884-3.382-1.852l-7.535,8.555-3.767,4.277c-.872.99-2.887,4.181-4.18,4.464l2.11.681c.5.408-.427-2.482-.447-2.561l-1.051-4.025c-.29-1.109-3.788-2.441-3.359-.8Z" transform="translate(-1643.85 -1208.849)" fill="#b2b555"/>
                  </g>
                </g>
              </g>
              <g id="Grupo_68430" data-name="Grupo 68430" transform="translate(0 133.653)">
                <g id="Grupo_68427" data-name="Grupo 68427" transform="translate(42.559 6.416)">
                  <rect id="Rectángulo_7747" data-name="Rectángulo 7747" width="30.776" height="6.001" transform="matrix(1, 0.024, -0.024, 1, 0.449, 0)" fill="#529ad9"/>
                  <path id="Trazado_127558" data-name="Trazado 127558" d="M1920.7,1482.3l-77.618-1.827-.141,6c30.03.7,68.265,2.112,76.067.914A6.734,6.734,0,0,0,1920.7,1482.3Z" transform="translate(-1842.942 -1467.394)" fill="#d9d9d9"/>
                </g>
                <g id="Grupo_68429" data-name="Grupo 68429">
                  <rect id="Rectángulo_7748" data-name="Rectángulo 7748" width="18.38" height="18.38" transform="translate(0.432 5.767) rotate(1.348)" fill="#fff" stroke="#529ad9" stroke-miterlimit="10" stroke-width="6"/>
                  <g id="Grupo_68428" data-name="Grupo 68428" transform="translate(3.382)">
                    <path id="Trazado_127559" data-name="Trazado 127559" d="M1639.873,1390.272c.568,2.172,1.615,11.27,6.171,8.725,1.051-.586,1.94-2.137,2.726-3.03l4.239-4.812,8.477-9.624c.724-.822-2.473-2.884-3.382-1.852l-7.535,8.554-3.767,4.277c-.872.99-2.887,4.181-4.18,4.464l2.109.681c.5.407-.426-2.483-.447-2.561l-1.051-4.025c-.29-1.108-3.788-2.441-3.359-.8Z" transform="translate(-1639.836 -1379.397)" fill="#b2b555"/>
                  </g>
                </g>
              </g>
            </g>
          </g>
        </g>
        <g id="Grupo_68434" data-name="Grupo 68434" transform="translate(56.547)">
          <path id="Trazado_127560" data-name="Trazado 127560" d="M1841.683,273.3v18.34H1768V273.3a10.587,10.587,0,0,1,3.1-7.492,8.823,8.823,0,0,1,.749-.671,10.515,10.515,0,0,1,6.743-2.43,12.476,12.476,0,0,0,5.416-1.234,12.964,12.964,0,0,0,2.037-1.227,12.468,12.468,0,0,0,4.521-6.412,12.521,12.521,0,0,1,11.975-8.873h4.6a12.522,12.522,0,0,1,11.975,8.873,12.468,12.468,0,0,0,4.521,6.412,12.973,12.973,0,0,0,2.037,1.227,12.477,12.477,0,0,0,5.416,1.234,10.606,10.606,0,0,1,10.594,10.593Z" transform="translate(-1762.021 -244.96)" fill="#b2b555"/>
          <path id="Trazado_127561" data-name="Trazado 127561" d="M1822.642,440.28v13.633H1737V440.28h5.979v9h73.683v-9Z" transform="translate(-1737 -402.605)" fill="#e4e4e4"/>
          <ellipse id="Elipse_4884" data-name="Elipse 4884" cx="6.536" cy="6.212" rx="6.536" ry="6.212" transform="translate(36.287 4.782)" fill="#fff"/>
        </g>
      </g>
      <g id="Grupo_68439" data-name="Grupo 68439" transform="translate(48.552 53.335)">
        <g id="Grupo_68436" data-name="Grupo 68436" transform="translate(135.602 20.478)">
          <path id="Trazado_127562" data-name="Trazado 127562" d="M1201.274,650.673c-2.614-.495-5.056-4.861-5.905-6.535a2.078,2.078,0,0,1-.188-1.329l1.04-5.513s2.4.408,2.215,3.6a2.354,2.354,0,0,0,.167.973l.919,2.4,2.716-2.1-1.49-4.206a7.232,7.232,0,0,1-3.023.219c-2.113-.675.657-2.322,1.533-2.5s2.8-.876,3.68.613,1.4,2.366,1.4,2.366.964-3.329.307-10.777c-.03-.335.81-.328,1.046-.088.706.718,1.83,2.9,1.89,9.551,0,0,.117-7.746,1.446-8.543,1.095-.657,1.648,3.134.876,9.564,0,0,1.43-5.567,2.453-5.577,1.727-.017.023,14.868-4.317,19.3Z" transform="translate(-1195.144 -627.631)" fill="#f9b384"/>
          <path id="Trazado_127563" data-name="Trazado 127563" d="M1216.908,735.28q-.116,1.111-.255,2.153v.008a62.541,62.541,0,0,1-1.142,6.566c-.023.093-.039.177-.062.262-1.32,5.409-1.559,8.055-6.064,7.345l-4.637-5.277-.046-.054-.339-.386.941-2.778.124-.363.695-2.021.085-.262,1.188-3.48.478-1.412Z" transform="translate(-1202.585 -714.516)" fill="#f9b384"/>
        </g>
        <g id="Grupo_68437" data-name="Grupo 68437" transform="translate(49.482 223.661)">
          <path id="Trazado_127564" data-name="Trazado 127564" d="M762.966,1731.542l-1.18,3.689c-8.093,2.659-12.814,5.7-13.116,9.259h23.4l1.876-12.352A18.155,18.155,0,0,1,762.966,1731.542Z" transform="translate(-748.669 -1721.793)" fill="#263238"/>
          <path id="Trazado_127565" data-name="Trazado 127565" d="M825.724,1684l-2.935,9.17a18.155,18.155,0,0,0,10.983.6l1.21-7.966Z" transform="translate(-808.492 -1683.421)" fill="#f9b384"/>
          <path id="Trazado_127566" data-name="Trazado 127566" d="M999.8,1690.34l.687-9.34-10.995.578-.6,8.611A17.988,17.988,0,0,0,999.8,1690.34Z" transform="translate(-942.552 -1681)" fill="#f9b384"/>
          <path id="Trazado_127567" data-name="Trazado 127567" d="M1009.079,1742.146c-.3-3.553-4.437-8.423-13.5-9.58l.278-3.776a17.987,17.987,0,0,1-10.909-.151L984,1742.146Z" transform="translate(-938.61 -1719.45)" fill="#263238"/>
        </g>
        <path id="Trazado_127568" data-name="Trazado 127568" d="M943.746,675.968l-13.263.093V656h12.862l.008,1.227.062,6.358.093,10.208Z" transform="translate(-845.931 -630.05)" fill="#f9b384"/>
        <path id="Trazado_127569" data-name="Trazado 127569" d="M950.549,673.718c-2.384,2.508-8.6-.324-11.226-3.086l11.164-3.271Z" transform="translate(-853.066 -639.219)" fill="#e28b6d"/>
        <path id="Trazado_127570" data-name="Trazado 127570" d="M925.662,576.083a28.7,28.7,0,0,1-.347,4.514c-.648,4.043-2.361,7.538-6.311,7.646-9.336.27-12-5.069-13.757-9.436s1.1-14.891,1.1-14.891l12.083-1.2,6.635,5.439A49.5,49.5,0,0,1,925.662,576.083Z" transform="translate(-825.1 -554.763)" fill="#f9b384"/>
        <path id="Trazado_127571" data-name="Trazado 127571" d="M881.066,543.01s2.664-.123,3.119-7c4.763,1.594,8.243.141,11-3.031,2.353,3.108,8.939,4.081,11.164-2.282,1.608-4.6-2.829-11.445-9.291-7.3-6.333-3.2-15.938-2.98-18.7,4.868,0,0-9.609,4.43.565,14.185A11.777,11.777,0,0,0,881.066,543.01Z" transform="translate(-800.543 -521.467)" fill="#102048"/>
        <path id="Trazado_127572" data-name="Trazado 127572" d="M997.232,1133.3,989.9,1244.153H972.669l4.308-107.567,2.636-1.221Z" transform="translate(-879.98 -1015.285)" fill="#263238"/>
        <path id="Trazado_127573" data-name="Trazado 127573" d="M816.757,1020.23,804.669,1146.25h18.774l17.874-104.674,20.318-6.172.9-22.375L817.271,1012Z" transform="translate(-744.385 -917.382)" fill="#263238"/>
        <path id="Trazado_127574" data-name="Trazado 127574" d="M865.355,1002.732c10.255,3.681,34.314-.526,39.31-5.653l-3.55-7.1-39.573,5.259Z" transform="translate(-790.288 -899.608)" fill="#102048" opacity="0.6"/>
        <path id="Trazado_127575" data-name="Trazado 127575" d="M929.587,779.887c-.332.139-.671.286-1.018.417a69.65,69.65,0,0,1-12.854,3.827,58.99,58.99,0,0,1-8.618,1.057,49.8,49.8,0,0,1-13.533-1.1l5.748-53.592.7-6.535s7.523,9.259,15.817-.964Z" transform="translate(-816.132 -684.127)" fill="#fff"/>
        <path id="Trazado_127576" data-name="Trazado 127576" d="M907.1,804.154a49.8,49.8,0,0,1-13.533-1.1l5.748-53.592,2.052-2.967C906.432,758.829,911.625,786.131,907.1,804.154Z" transform="translate(-816.132 -703.094)" fill="#1f3c88" opacity="0.3"/>
        <path id="Trazado_127577" data-name="Trazado 127577" d="M663.483,717c5.715,24.266,8.067,49.235-.354,76.963-6.244,2.375-13.043,2.348-20.318.257l1.8-50.408-42.371,29.126-2.572-15.881C615.957,741.482,644.118,717.954,663.483,717Z" transform="translate(-578.927 -679.284)" fill="#529ada"/>
        <path id="Trazado_127578" data-name="Trazado 127578" d="M1011.6,828.73a69.653,69.653,0,0,1-12.854,3.827c-2.554-14.644-3.117-38.7-1.042-49.557Z" transform="translate(-899.161 -732.553)" fill="#1f3c88" opacity="0.3"/>
        <path id="Trazado_127579" data-name="Trazado 127579" d="M1216.933,765.734c-.023.093-.039.177-.062.262-1.319,5.409-1.559,8.055-6.064,7.345l-4.637-5.277-.046-.054.6-3.163.124-.363.694-2.021.085-.262Z" transform="translate(-1068.403 -715.766)" fill="#e28b6d" opacity="0.6"/>
        <path id="Trazado_127580" data-name="Trazado 127580" d="M1047.549,732.956s-11.38,24.111-18.131,24.69c-6.545.561-9.644-5.787-9.644-5.787L1024.4,787.1a29.545,29.545,0,0,1-18.263,2.569c-6.118-19.868-8.431-45.557-8.886-74.166,4.953.309,14.764.732,18.276,2.99,6.3,4.051,14.081,18.517,14.081,18.517l9.066-12.345Z" transform="translate(-899.822 -678.073)" fill="#529ada"/>
        <g id="Grupo_68438" data-name="Grupo 68438" transform="translate(1.863 9.902)">
          <path id="Trazado_127581" data-name="Trazado 127581" d="M538.744,583.81s.689-11.534,1.863-10.99,3.528,10.573,3.528,10.573l-2.517,4.063Z" transform="translate(-531.617 -572.801)" fill="#32526e"/>
          <path id="Trazado_127582" data-name="Trazado 127582" d="M612.671,1709.667l.341,3.8a12.184,12.184,0,0,1-11.044,13.224l-.976.088a12.184,12.184,0,0,1-13.224-11.044l-.341-3.8Z" transform="translate(-570.909 -1490.379)" fill="#ffb000"/>
          <rect id="Rectángulo_7749" data-name="Rectángulo 7749" width="25.346" height="184.556" transform="translate(0.003 37.741) rotate(-5.134)" fill="#fbc343"/>
          <rect id="Rectángulo_7750" data-name="Rectángulo 7750" width="9.001" height="161.769" transform="translate(7.809 33.324) rotate(-5.134)" fill="none" stroke="#fff" stroke-miterlimit="10" stroke-width="8" opacity="0.3"/>
          <path id="Trazado_127583" data-name="Trazado 127583" d="M601.994,1590.97l-25.238,2.269-.664-7.407-.463-5.146-1.427-15.817,25.245-2.268,1.42,15.817.463,5.146Z" transform="translate(-560.236 -1371.679)" fill="#32526e"/>
          <rect id="Rectángulo_7751" data-name="Rectángulo 7751" width="25.339" height="5.167" transform="translate(15.395 209.006) rotate(-5.136)" fill="#fbc343"/>
          <path id="Trazado_127584" data-name="Trazado 127584" d="M501.793,647.783l7.012-28.1a6.027,6.027,0,0,0,5.356-.74l12.878,26.574Z" transform="translate(-501.793 -610.041)" fill="#fff"/>
        </g>
        <path id="Trazado_127585" data-name="Trazado 127585" d="M891.395,621.837c-.113-.414-2-.984-2.412-1.1a2.891,2.891,0,0,0-1.968.018c-2.278,1.029-1.974,4.292-.794,6.006a5.139,5.139,0,0,0,2.786,2.045c.414.118,4.333.166,4.161-.464Z" transform="translate(-809.475 -601.458)" fill="#f9b384"/>
        <path id="Trazado_127586" data-name="Trazado 127586" d="M502.333,956.739a3.431,3.431,0,0,0-4.384-2.265c-2.871.991-5.373,2.674-5.76,5.536-.353,2.606.95,10.931,6.772,12l-.475-4.277s3.564-.832,4.277-2.376C503.262,964.275,503.3,959.759,502.333,956.739Z" transform="translate(-492.136 -870.801)" fill="#f9b384"/>
        <path id="Trazado_127587" data-name="Trazado 127587" d="M1103.525,818.576c.306,1.822.567,3.649.817,5.477s.464,3.661.7,5.491l.6,5.5c.174,1.837.345,3.675.458,5.519l-.3.035c-.316-1.82-.574-3.648-.828-5.475l-.688-5.492c-.194-1.835-.417-3.666-.587-5.5s-.347-3.675-.469-5.518Z" transform="translate(-985.353 -761.267)" fill="#1f3c88"/>
        <path id="Trazado_127588" data-name="Trazado 127588" d="M829.679,816.977c0,2.046-.054,4.089-.115,6.132s-.157,4.084-.233,6.127L829,835.359c-.137,2.039-.277,4.079-.475,6.115l-.3-.014c-.005-2.046.047-4.09.1-6.133l.244-6.126c.117-2.041.2-4.082.346-6.122s.275-4.079.464-6.116Z" transform="translate(-763.393 -759.965)" fill="#1f3c88"/>
        <path id="Trazado_127589" data-name="Trazado 127589" d="M957.12,621.446a1.213,1.213,0,0,1-.669,1.534c-.533.119-1.1-.374-1.26-1.1a1.212,1.212,0,0,1,.669-1.534C956.393,620.225,956.957,620.719,957.12,621.446Z" transform="translate(-865.837 -601.258)" fill="#102048"/>
        <path id="Trazado_127590" data-name="Trazado 127590" d="M996.975,615.644c-.031.745-.5,1.33-1.045,1.307s-.962-.646-.931-1.391.5-1.33,1.045-1.307S997.007,614.9,996.975,615.644Z" transform="translate(-898.002 -596.355)" fill="#102048"/>
        <path id="Trazado_127591" data-name="Trazado 127591" d="M981.784,624.635a17.531,17.531,0,0,1,.393,1.848,1.443,1.443,0,0,0,.374.641,2.435,2.435,0,0,0,.724.356,2.015,2.015,0,0,1,.914.689,1.2,1.2,0,0,1,.093,1.263,2.381,2.381,0,0,1-.754.763c-.265.178-.519.368-.795.535l-.2-.227c.2-.25.425-.476.638-.715a2.255,2.255,0,0,0,.5-.65c.163-.357-.186-.747-.693-.949a2.689,2.689,0,0,1-.94-.534,1.884,1.884,0,0,1-.5-1.02c-.127-.715.018-1.327-.051-1.921Z" transform="translate(-887.099 -604.735)" fill="#e28b6d"/>
        <path id="Trazado_127592" data-name="Trazado 127592" d="M946.294,608.76a2.246,2.246,0,0,1,.788-1.2,2.4,2.4,0,0,1,1.4-.523,2.588,2.588,0,0,1,2.433,1.367l-.236.188a3.313,3.313,0,0,0-2.159-.787,2.522,2.522,0,0,0-1.95,1.087Z" transform="translate(-858.692 -590.526)" fill="#102048"/>
        <path id="Trazado_127593" data-name="Trazado 127593" d="M987.579,604.649a2.325,2.325,0,0,1,.606-.975,2.017,2.017,0,0,1,1.1-.542,1.921,1.921,0,0,1,2.046,1.021l-.241.181a2.446,2.446,0,0,0-1.691-.442,2.171,2.171,0,0,0-.806.295,5.327,5.327,0,0,0-.748.616Z" transform="translate(-892.014 -587.359)" fill="#102048"/>
        <path id="Trazado_127594" data-name="Trazado 127594" d="M965.452,663.373c1.347,2.109,3.142,2.338,4.528.119Z" transform="translate(-874.155 -636.001)" fill="#fff"/>
        <path id="Trazado_127595" data-name="Trazado 127595" d="M1005.319,629.333a35.594,35.594,0,0,1-.383,5.028,2.324,2.324,0,0,1-1.613-2.214A2.969,2.969,0,0,1,1005.319,629.333Z" transform="translate(-904.721 -608.527)" fill="#fc8879" opacity="0.4"/>
        <circle id="Elipse_4885" data-name="Elipse 4885" cx="2.488" cy="2.488" r="2.488" transform="translate(85.52 22.51)" fill="#fc8879" opacity="0.4"/>
        <path id="Trazado_127596" data-name="Trazado 127596" d="M896.246,632.455a12.475,12.475,0,0,0-1.391-.916,1.213,1.213,0,0,0-.614-.159,1.376,1.376,0,0,0-.642.294l-.253-.164a1.2,1.2,0,0,1,.733-.788,1.432,1.432,0,0,1,1.116.129,2.889,2.889,0,0,1,1.291,1.422Z" transform="translate(-815.957 -609.597)" fill="#e28b6d"/>
        <path id="Trazado_127597" data-name="Trazado 127597" d="M529.154,1011.674l-3.581,10.881-.74-8.5A7.423,7.423,0,0,0,529.154,1011.674Z" transform="translate(-518.526 -917.119)" fill="#6f3428" opacity="0.6"/>
      </g>
    </g>
  </g>
</svg>
