<svg xmlns="http://www.w3.org/2000/svg" width="500" height="372.608" viewBox="0 0 500 372.608">
  <g id="Grupo_68407" data-name="Grupo 68407" transform="translate(0 -54.953)">
    <g id="Background_Complete" data-name="Background Complete">
      <g id="Grupo_68387" data-name="Grupo 68387">
        <rect id="Rectángulo_7718" data-name="Rectángulo 7718" width="500" height="0.25" transform="translate(0 382.398)" fill="#ebebeb"/>
        <rect id="Rectángulo_7719" data-name="Rectángulo 7719" width="77.908" height="0.25" transform="translate(52.459 391.922)" fill="#ebebeb"/>
        <rect id="Rectángulo_7720" data-name="Rectángulo 7720" width="37.901" height="0.25" transform="translate(412 399.528)" fill="#ebebeb"/>
        <rect id="Rectángulo_7721" data-name="Rectángulo 7721" width="19.192" height="0.25" transform="translate(131.368 401.208)" fill="#ebebeb"/>
        <rect id="Rectángulo_7722" data-name="Rectángulo 7722" width="43.193" height="0.25" transform="translate(202.167 389.208)" fill="#ebebeb"/>
        <rect id="Rectángulo_7723" data-name="Rectángulo 7723" width="6.333" height="0.25" transform="translate(254.263 389.208)" fill="#ebebeb"/>
        <rect id="Rectángulo_7724" data-name="Rectángulo 7724" width="43.222" height="0.25" transform="translate(327.667 395.306)" fill="#ebebeb"/>
        <path id="Trazado_127451" data-name="Trazado 127451" d="M237.014,337.8H43.915a5.715,5.715,0,0,1-5.708-5.708V60.66a5.714,5.714,0,0,1,5.708-5.707h193.1a5.714,5.714,0,0,1,5.707,5.707V332.092A5.715,5.715,0,0,1,237.014,337.8ZM43.915,55.2a5.463,5.463,0,0,0-5.458,5.457V332.092a5.464,5.464,0,0,0,5.458,5.458h193.1a5.463,5.463,0,0,0,5.457-5.458V60.66a5.463,5.463,0,0,0-5.457-5.457Z" fill="#ebebeb"/>
        <path id="Trazado_127452" data-name="Trazado 127452" d="M453.31,337.8h-193.1a5.714,5.714,0,0,1-5.707-5.708V60.66a5.713,5.713,0,0,1,5.707-5.707h193.1a5.714,5.714,0,0,1,5.709,5.707V332.092A5.715,5.715,0,0,1,453.31,337.8ZM260.212,55.2a5.463,5.463,0,0,0-5.457,5.457V332.092a5.463,5.463,0,0,0,5.457,5.458h193.1a5.464,5.464,0,0,0,5.459-5.458V60.66A5.464,5.464,0,0,0,453.31,55.2Z" fill="#ebebeb"/>
      </g>
      <g id="Grupo_68391" data-name="Grupo 68391">
        <g id="Grupo_68389" data-name="Grupo 68389">
          <rect id="Rectángulo_7728" data-name="Rectángulo 7728" width="266.662" height="95.111" transform="translate(116.669 97.667)" fill="#e0e0e0"/>
          <rect id="Rectángulo_7729" data-name="Rectángulo 7729" width="266.662" height="95.111" transform="translate(114.225 97.667)" fill="#bce0ff"/>
          <rect id="Rectángulo_7730" data-name="Rectángulo 7730" width="79.111" height="250.662" transform="translate(372.886 105.667) rotate(90)" fill="#a3d5ff"/>
          <circle id="Elipse_4882" data-name="Elipse 4882" cx="23.722" cy="23.722" r="23.722" transform="translate(223.833 121.5)" fill="#f0f0f0"/>
        </g>
      </g>
    </g>
    <g id="Shadow">
      <ellipse id="_Path_" data-name="&lt;Path&gt;" cx="193.889" cy="11.323" rx="193.889" ry="11.323" transform="translate(56.111 404.915)" fill="#acd4f5"/>
    </g>
    <g id="Board">
      <g id="Grupo_68401" data-name="Grupo 68401">
        <g id="Grupo_68392" data-name="Grupo 68392">
          <path id="Trazado_127470" data-name="Trazado 127470" d="M383.8,274.594H167.7a3.979,3.979,0,0,1-4-4.236l7.278-132.484a4.543,4.543,0,0,1,4.468-4.236h216.1a3.978,3.978,0,0,1,4,4.236l-7.277,132.484A4.543,4.543,0,0,1,383.8,274.594Z" fill="#263238"/>
          <path id="Trazado_127472" data-name="Trazado 127472" d="M311.91,412.062h-6.693L286.792,130.357h6.693Z" fill="#263238"/>
          <path id="Trazado_127473" data-name="Trazado 127473" d="M261.674,412.062h6.693l18.425-281.705H280.1Z" fill="#263238"/>
          <path id="Trazado_127474" data-name="Trazado 127474" d="M382.646,274.594h-216.1a3.978,3.978,0,0,1-4-4.236l7.277-132.484a4.543,4.543,0,0,1,4.469-4.236h216.1a3.979,3.979,0,0,1,4,4.236l-7.278,132.484A4.543,4.543,0,0,1,382.646,274.594Z" fill="#407bff"/>
          <path id="Trazado_127475" data-name="Trazado 127475" d="M169.978,270.535a3.172,3.172,0,0,1-3.2-3.383l6.925-126.072a3.622,3.622,0,0,1,3.569-3.383H386.96a3.171,3.171,0,0,1,3.2,3.383l-6.925,126.072a3.621,3.621,0,0,1-3.568,3.383Z" fill="#aacbe8" opacity="0.999"/>
          <path id="Trazado_127476" data-name="Trazado 127476" d="M380.963,203.71H317.846a2.692,2.692,0,0,1-2.716-2.874l3.152-57.385a.38.38,0,0,0-.383-.406.435.435,0,0,0-.429.406l-3.152,57.385a3.073,3.073,0,0,1-3.031,2.874H245.7a2.692,2.692,0,0,1-2.716-2.874l3.152-57.385a.38.38,0,0,0-.384-.406.435.435,0,0,0-.428.406l-3.152,57.385a3.074,3.074,0,0,1-3.032,2.874H176.019a.434.434,0,0,0-.428.406.38.38,0,0,0,.384.406h63.117a2.691,2.691,0,0,1,2.716,2.873l-3.153,57.387a.381.381,0,0,0,.384.406.434.434,0,0,0,.428-.406l3.152-57.387a3.073,3.073,0,0,1,3.032-2.873h65.591a2.691,2.691,0,0,1,2.716,2.873l-3.152,57.387a.38.38,0,0,0,.383.406.434.434,0,0,0,.428-.406L314.77,207.4a3.072,3.072,0,0,1,3.031-2.873h63.117a.433.433,0,0,0,.428-.406A.38.38,0,0,0,380.963,203.71Z" fill="#fff" opacity="0.1"/>
        </g>
        <g id="Grupo_68393" data-name="Grupo 68393">
          <path id="Trazado_127477" data-name="Trazado 127477" d="M278.054,153.445H252.7l-1.416,25.784,25.315.677Z" fill="#263238" opacity="0.4"/>
          <path id="Trazado_127478" data-name="Trazado 127478" d="M275.3,178.8l-25.446-1.241a222.93,222.93,0,0,0,2.647-26.31l25.6,1.239A223.051,223.051,0,0,1,275.3,178.8Z" fill="#f3f095"/>
        </g>
        <g id="Grupo_68394" data-name="Grupo 68394">
          <path id="Trazado_127479" data-name="Trazado 127479" d="M308.617,170.67l-25.385,1.936.556,25.709,25.4-1.261Z" fill="#529ad9" opacity="0.4"/>
          <path id="Trazado_127480" data-name="Trazado 127480" d="M307.806,196.052l-25.574.711a219.969,219.969,0,0,0,.636-26.325l25.722-.723A220.552,220.552,0,0,1,307.806,196.052Z" fill="#529ad9"/>
        </g>
        <g id="Grupo_68395" data-name="Grupo 68395">
          <path id="Trazado_127481" data-name="Trazado 127481" d="M234.477,217.563l-46.8-1.788-4.2,41.635,46.692,2.88Z" fill="#263238" opacity="0.4"/>
          <path id="Trazado_127482" data-name="Trazado 127482" d="M227.843,258.406l-46.9-3.8a317.848,317.848,0,0,0,6.5-42.4l47.173,3.812A318.391,318.391,0,0,1,227.843,258.406Z" fill="#f3f095"/>
        </g>
        <g id="Grupo_68396" data-name="Grupo 68396" opacity="0.3" style="mix-blend-mode: multiply;isolation: isolate">
          <path id="Trazado_127483" data-name="Trazado 127483" d="M186.307,159.271h0a2.478,2.478,0,0,1-2.493-2.639h0a2.829,2.829,0,0,1,2.783-2.638h0a2.479,2.479,0,0,1,2.494,2.638h0A2.831,2.831,0,0,1,186.307,159.271Z" fill="#263238"/>
          <path id="Trazado_127484" data-name="Trazado 127484" d="M227.663,159.271H195.189a2.478,2.478,0,0,1-2.494-2.639h0a2.83,2.83,0,0,1,2.784-2.638h32.474a2.479,2.479,0,0,1,2.494,2.638h0A2.831,2.831,0,0,1,227.663,159.271Z" fill="#263238" opacity="0.8"/>
          <path id="Trazado_127485" data-name="Trazado 127485" d="M185.675,170.778h0a2.48,2.48,0,0,1-2.494-2.639h0a2.831,2.831,0,0,1,2.784-2.638h0a2.479,2.479,0,0,1,2.494,2.638h0A2.831,2.831,0,0,1,185.675,170.778Z" fill="#263238"/>
          <path id="Trazado_127486" data-name="Trazado 127486" d="M232.782,170.778H194.557a2.478,2.478,0,0,1-2.494-2.639h0a2.83,2.83,0,0,1,2.783-2.638h38.226a2.477,2.477,0,0,1,2.493,2.638h0A2.83,2.83,0,0,1,232.782,170.778Z" fill="#263238" opacity="0.8"/>
          <path id="Trazado_127487" data-name="Trazado 127487" d="M185.043,182.284h0a2.479,2.479,0,0,1-2.494-2.638h0a2.831,2.831,0,0,1,2.784-2.639h0a2.479,2.479,0,0,1,2.494,2.639h0A2.831,2.831,0,0,1,185.043,182.284Z" fill="#263238"/>
          <path id="Trazado_127488" data-name="Trazado 127488" d="M212.53,182.284h-18.6a2.478,2.478,0,0,1-2.494-2.638h0a2.83,2.83,0,0,1,2.783-2.639h18.6a2.478,2.478,0,0,1,2.494,2.639h0A2.83,2.83,0,0,1,212.53,182.284Z" fill="#263238" opacity="0.8"/>
          <path id="Trazado_127489" data-name="Trazado 127489" d="M229.758,193.791h-18.6a2.478,2.478,0,0,1-2.493-2.639h0a2.829,2.829,0,0,1,2.783-2.638h18.605a2.478,2.478,0,0,1,2.494,2.638h0A2.83,2.83,0,0,1,229.758,193.791Z" fill="#263238" opacity="0.8"/>
          <path id="Trazado_127490" data-name="Trazado 127490" d="M184.411,193.791h0a2.479,2.479,0,0,1-2.494-2.639h0a2.83,2.83,0,0,1,2.784-2.638h0a2.477,2.477,0,0,1,2.493,2.638h0A2.829,2.829,0,0,1,184.411,193.791Z" fill="#263238"/>
          <path id="Trazado_127491" data-name="Trazado 127491" d="M201.885,193.791h-8.593a2.478,2.478,0,0,1-2.493-2.639h0a2.83,2.83,0,0,1,2.783-2.638h8.593a2.477,2.477,0,0,1,2.493,2.638h0A2.83,2.83,0,0,1,201.885,193.791Z" fill="#263238" opacity="0.8"/>
        </g>
        <g id="Grupo_68398" data-name="Grupo 68398">
          <path id="Trazado_127492" data-name="Trazado 127492" d="M265.145,228.031H252.552l-1.731,31.508h12.593Z" fill="#75aee1"/>
          <path id="Trazado_127493" data-name="Trazado 127493" d="M284.245,234.526H271.652l-1.374,25.013h12.593Z" fill="#75aee1"/>
          <path id="Trazado_127494" data-name="Trazado 127494" d="M304.624,217.747H292.031l-2.3,41.792h12.593Z" fill="#75aee1"/>
          <g id="Grupo_68397" data-name="Grupo 68397">
            <path id="Trazado_127495" data-name="Trazado 127495" d="M255.355,245.81q-1.87,0-3.775-.1a21.377,21.377,0,0,1-7.619-1.545.812.812,0,0,1,.666-1.481,19.9,19.9,0,0,0,7.036,1.4c15.109.777,28.339-3.158,41.655-12.383a46.381,46.381,0,0,0,10.828-10.5.812.812,0,0,1,1.337.921,47.335,47.335,0,0,1-11.24,10.91C281.736,241.706,269.286,245.81,255.355,245.81Z" fill="#fff"/>
            <path id="Trazado_127496" data-name="Trazado 127496" d="M307.358,227.432a.813.813,0,0,1-.75-1.122,14.291,14.291,0,0,0,.7-8.746,54.831,54.831,0,0,1-10.06,5.34.812.812,0,1,1-.607-1.506,53.166,53.166,0,0,0,10.666-5.8.812.812,0,0,1,1.236.4,15.808,15.808,0,0,1-.433,10.931A.812.812,0,0,1,307.358,227.432Z" fill="#fff"/>
          </g>
        </g>
        <g id="Grupo_68400" data-name="Grupo 68400">
          <path id="Trazado_127497" data-name="Trazado 127497" d="M373.669,196.369H326.825A2.8,2.8,0,0,1,324,193.383l2.175-39.6a3.149,3.149,0,0,1,3.1-2.941h46.844a2.8,2.8,0,0,1,2.822,2.986l-2.175,39.6A3.15,3.15,0,0,1,373.669,196.369Zm-44.387-44.716a2.327,2.327,0,0,0-2.293,2.174l-2.175,39.6a1.989,1.989,0,0,0,2.011,2.13h46.844a2.328,2.328,0,0,0,2.293-2.174l2.175-39.6a1.989,1.989,0,0,0-2.011-2.129Z" fill="#899ac1"/>
          <path id="Trazado_127498" data-name="Trazado 127498" d="M378.1,162.2H326.145a.406.406,0,0,1,0-.812H378.1a.406.406,0,0,1,0,.812Z" fill="#899ac1"/>
          <path id="Trazado_127499" data-name="Trazado 127499" d="M336.536,196.369h-.023a.407.407,0,0,1-.383-.428l1.877-34.165a.4.4,0,0,1,.428-.383.405.405,0,0,1,.383.427l-1.877,34.166A.407.407,0,0,1,336.536,196.369Z" fill="#899ac1"/>
          <g id="Grupo_68399" data-name="Grupo 68399">
            <path id="Trazado_127500" data-name="Trazado 127500" d="M372.152,166.262H343.943a.406.406,0,1,1,0-.812h28.209a.406.406,0,1,1,0,.812Z" fill="#899ac1"/>
            <path id="Trazado_127501" data-name="Trazado 127501" d="M367.9,171.244H343.669a.406.406,0,0,1,0-.812H367.9a.406.406,0,1,1,0,.812Z" fill="#899ac1"/>
            <path id="Trazado_127502" data-name="Trazado 127502" d="M357.492,176.385H343.387a.406.406,0,0,1,0-.813h14.105a.406.406,0,0,1,0,.813Z" fill="#899ac1"/>
            <path id="Trazado_127503" data-name="Trazado 127503" d="M360.054,186.417H342.836a.406.406,0,0,1,0-.812h17.218a.406.406,0,0,1,0,.812Z" fill="#899ac1"/>
            <path id="Trazado_127504" data-name="Trazado 127504" d="M356.658,191.558h-14.1a.406.406,0,0,1,0-.812h14.1a.406.406,0,1,1,0,.812Z" fill="#899ac1"/>
            <path id="Trazado_127505" data-name="Trazado 127505" d="M364.915,191.558h-4.52a.406.406,0,0,1,0-.812h4.52a.406.406,0,1,1,0,.812Z" fill="#899ac1"/>
            <path id="Trazado_127506" data-name="Trazado 127506" d="M369.527,181.366H343.113a.406.406,0,0,1,0-.812h26.414a.406.406,0,1,1,0,.812Z" fill="#899ac1"/>
          </g>
        </g>
        <path id="Trazado_127507" data-name="Trazado 127507" d="M344.9,253.981c-6.119,0-11.134-1.809-14.248-5.173-3.325-3.591-4.7-9.239-3.785-15.495a18.715,18.715,0,0,1,11.95-15.728,28.628,28.628,0,0,1,24.226.327c3.291,1.651,5.354,3.739,6.131,6.208a.812.812,0,1,1-1.549.487c-.64-2.033-2.426-3.8-5.31-5.244a26.992,26.992,0,0,0-22.838-.3,17.11,17.11,0,0,0-11,14.481c-.847,5.768.381,10.927,3.37,14.156,4.155,4.488,11.034,4.809,14.765,4.6,6.935-.384,12.9-2.807,16.8-6.822,4.56-4.695,5.838-11.719,2.973-16.338a5.11,5.11,0,0,0-3.5-2.6.812.812,0,0,1,.161-1.616,6.5,6.5,0,0,1,4.722,3.357c3.246,5.233,1.875,13.111-3.188,18.326-4.185,4.307-10.534,6.9-17.877,7.311Q345.788,253.981,344.9,253.981Z" fill="#fff"/>
      </g>
    </g>
    <g id="Character">
      <g id="Grupo_68406" data-name="Grupo 68406">
        <path id="Trazado_127508" data-name="Trazado 127508" d="M137.319,169.335l-2.884,5.026-2.826,5.132c-1.861,3.429-3.639,6.886-5.262,10.361-.808,1.742-1.577,3.475-2.279,5.218l-.13.316a.424.424,0,0,1-.042.074.743.743,0,0,0-.086.139,1.789,1.789,0,0,0-.135.287,1.978,1.978,0,0,0,.12,1.12,11.1,11.1,0,0,0,2.408,3.652,43.713,43.713,0,0,0,3.9,3.7l-2.343,4.993a24.625,24.625,0,0,1-3.232-1.142,24.956,24.956,0,0,1-3.053-1.566,17.312,17.312,0,0,1-5.636-5.227,11.626,11.626,0,0,1-1.763-4.562,10.418,10.418,0,0,1-.053-2.717,9.271,9.271,0,0,1,.229-1.333l.164-.651.123-.394c.643-2.045,1.308-4.069,2.089-6.019,1.52-3.926,3.232-7.718,5.1-11.411.933-1.847,1.9-3.672,2.92-5.469,1.026-1.812,2.023-3.56,3.2-5.387Z" fill="#ffc3bd"/>
        <path id="Trazado_127509" data-name="Trazado 127509" d="M127.6,203.8l5.254-1.366.3,8.483s-4.109.611-6.627-1.9Z" fill="#ffc3bd"/>
        <path id="Trazado_127510" data-name="Trazado 127510" d="M140.3,201l-1.185,7.448-5.959,2.466-.3-8.483Z" fill="#ffc3bd"/>
        <path id="Trazado_127511" data-name="Trazado 127511" d="M162.033,129.358c.118.58.522.988.9.911s.592-.61.474-1.191-.522-.989-.9-.912S161.915,128.777,162.033,129.358Z" fill="#263238"/>
        <path id="Trazado_127512" data-name="Trazado 127512" d="M162.5,130.357a21.191,21.191,0,0,0,3.784,4.4,3.417,3.417,0,0,1-2.668,1.084Z" fill="#ed847e"/>
        <path id="Trazado_127513" data-name="Trazado 127513" d="M159.252,126.565a.347.347,0,0,1-.256-.584,3.449,3.449,0,0,1,2.961-1.151.348.348,0,0,1,.285.4.352.352,0,0,1-.4.285h0a2.764,2.764,0,0,0-2.335.937A.342.342,0,0,1,159.252,126.565Z" fill="#263238"/>
        <path id="Trazado_127514" data-name="Trazado 127514" d="M145.492,137.525c1.054,5.374,2.1,15.222-1.655,18.808,0,0,1.469,5.451,11.455,5.451,10.981,0,5.248-5.451,5.248-5.451-5.993-1.431-5.838-5.877-4.794-10.053Z" fill="#ffc3bd"/>
        <path id="Trazado_127515" data-name="Trazado 127515" d="M141.671,157.33c-.8-1.494-1.687-3.2.142-3.738,2.011-.589,14.935-1.681,18.732-.575-1.167,2.075.809,4.625.809,4.625Z" fill="#263238"/>
        <path id="Trazado_127516" data-name="Trazado 127516" d="M109.138,407.881a2.365,2.365,0,0,0,1.829-.1.708.708,0,0,0,.168-.808.8.8,0,0,0-.447-.512c-.993-.474-3.272.455-3.369.495a.174.174,0,0,0-.107.156.172.172,0,0,0,.1.162A9.262,9.262,0,0,0,109.138,407.881Zm1.195-1.174a.987.987,0,0,1,.205.068.466.466,0,0,1,.264.3c.093.313-.023.412-.061.444-.395.336-1.862.026-2.895-.387A5.73,5.73,0,0,1,110.333,406.707Z" fill="#407bff"/>
        <path id="Trazado_127517" data-name="Trazado 127517" d="M107.349,407.287a.175.175,0,0,0,.085,0c.831-.243,2.608-1.505,2.629-2.338a.568.568,0,0,0-.445-.563.95.95,0,0,0-.771.062c-.982.5-1.6,2.536-1.628,2.622a.176.176,0,0,0,.043.173A.173.173,0,0,0,107.349,407.287Zm2.079-2.6a.727.727,0,0,1,.076.022c.215.075.212.18.211.225-.012.493-1.185,1.483-2.045,1.884A4.191,4.191,0,0,1,109,404.755.616.616,0,0,1,109.428,404.69Z" fill="#407bff"/>
        <path id="Trazado_127518" data-name="Trazado 127518" d="M163.377,409.114c.943,0,1.853-.13,2.158-.553a.661.661,0,0,0-.014-.761.866.866,0,0,0-.551-.407c-1.223-.332-3.79,1.131-3.9,1.193a.174.174,0,0,0,.052.322A12.935,12.935,0,0,0,163.377,409.114Zm1.165-1.425a1.3,1.3,0,0,1,.336.04.527.527,0,0,1,.341.243c.123.217.078.324.034.385-.342.475-2.2.486-3.565.293A7.852,7.852,0,0,1,164.542,407.689Z" fill="#407bff"/>
        <path id="Trazado_127519" data-name="Trazado 127519" d="M161.158,408.911a.177.177,0,0,0,.071-.015c.886-.4,2.643-1.987,2.509-2.818-.032-.2-.17-.437-.648-.486a1.274,1.274,0,0,0-.965.3c-.935.768-1.132,2.747-1.141,2.831a.175.175,0,0,0,.174.19Zm1.792-2.978c.034,0,.069,0,.1,0,.313.032.332.155.339.2.08.5-1.113,1.747-2.018,2.291a4.089,4.089,0,0,1,.97-2.266A.923.923,0,0,1,162.95,405.933Z" fill="#407bff"/>
        <path id="Trazado_127520" data-name="Trazado 127520" d="M153.079,408.737h7.346l.732-17.013h-7.346Z" fill="#ffc3bd"/>
        <path id="Trazado_127521" data-name="Trazado 127521" d="M99.16,405.336l7.18,1.555,7.209-15.846-7.18-1.554Z" fill="#ffc3bd"/>
        <path id="Trazado_127522" data-name="Trazado 127522" d="M107.03,406.17l-8.067-1.747a.641.641,0,0,0-.717.358l-2.8,6.075a1.081,1.081,0,0,0,.775,1.505c2.826.561,4.23.692,7.777,1.46,2.183.472,7.109,1.673,10.123,2.325,2.948.638,4.053-2.242,2.877-2.779-5.27-2.408-7.472-4.528-8.9-6.5A1.783,1.783,0,0,0,107.03,406.17Z" fill="#263238"/>
        <path id="Trazado_127523" data-name="Trazado 127523" d="M160.377,407.886h-8.022a.641.641,0,0,0-.626.5l-1.451,6.53a1.069,1.069,0,0,0,1.057,1.307c2.894-.049,7.076-.219,10.713-.219,4.253,0,7.927.232,12.914.232,3.016,0,3.853-3.049,2.591-3.325-5.747-1.257-10.44-1.392-15.406-4.454A3.4,3.4,0,0,0,160.377,407.886Z" fill="#263238"/>
        <g id="Grupo_68402" data-name="Grupo 68402">
          <path id="Trazado_127524" data-name="Trazado 127524" d="M130.684,157.994c-6.886,1.578-12.563,19.155-12.563,19.155l13.827,10.539a30.172,30.172,0,0,0,7.333-13.577C141.648,164.9,137.724,156.38,130.684,157.994Z" fill="#407bff"/>
          <path id="Trazado_127525" data-name="Trazado 127525" d="M130.684,157.994c-6.886,1.578-12.563,19.155-12.563,19.155l13.827,10.539a30.172,30.172,0,0,0,7.333-13.577C141.648,164.9,137.724,156.38,130.684,157.994Z" fill="#529ada"/>
        </g>
        <path id="Trazado_127526" data-name="Trazado 127526" d="M136.584,170.92c-3.739,3.7-4.96,10.44-5.25,16.3l.61.47a30.191,30.191,0,0,0,7.34-13.58c.14-.55.261-1.1.36-1.64Z" opacity="0.2"/>
        <g id="Grupo_68403" data-name="Grupo 68403">
          <path id="Trazado_127527" data-name="Trazado 127527" d="M171.84,158.372s7.819,8.832.435,63.5H132.982c-.271-6.032,3.519-35.456-2.3-63.876a102.41,102.41,0,0,1,13.153-1.661,144.422,144.422,0,0,1,16.7,0A73.739,73.739,0,0,1,171.84,158.372Z" fill="#529ad9"/>
          <path id="Trazado_127528" data-name="Trazado 127528" d="M171.84,158.372s7.819,8.832.435,63.5H132.982c-.271-6.032,3.519-35.456-2.3-63.876a102.41,102.41,0,0,1,13.153-1.661,144.422,144.422,0,0,1,16.7,0A73.739,73.739,0,0,1,171.84,158.372Z" fill="#529ad9" opacity="0.2"/>
        </g>
        <path id="Trazado_127529" data-name="Trazado 127529" d="M175.275,175.08l-.151-.13-8.93,2.14c-.51,6.04,5.7,13.26,8.9,16.56A171.711,171.711,0,0,0,175.275,175.08Z" opacity="0.2"/>
        <g id="Grupo_68404" data-name="Grupo 68404">
          <path id="Trazado_127530" data-name="Trazado 127530" d="M161.156,391.729l-.376,8.769h-7.35l.376-8.769Z" opacity="0.2"/>
          <path id="Trazado_127531" data-name="Trazado 127531" d="M106.365,389.494l7.183,1.555-3.719,8.167-7.183-1.555Z" opacity="0.2"/>
        </g>
        <path id="Trazado_127532" data-name="Trazado 127532" d="M142.415,132.063c1.888,7.043,2.635,11.26,6.98,14.189,6.537,4.4,14.676-.651,14.931-8.115.229-6.719-2.9-17.107-10.453-18.526A9.945,9.945,0,0,0,142.415,132.063Z" fill="#ffc3bd"/>
        <path id="Trazado_127533" data-name="Trazado 127533" d="M145.649,143.547c2.994,1.713,13.911-4.013,11.669-12.693,0,0,4.159-5,3.689-10.52s-4.258-7.623-8.288-6.439c-3.552,1.044-3.449,2.99-3.449,2.99s-16.788,1.976-13.2,8.8C129.232,133.135,141.912,141.408,145.649,143.547Z" fill="#263238"/>
        <path id="Trazado_127534" data-name="Trazado 127534" d="M136.536,126.253s-2-3.461-4.917-1.524C132.994,124.75,135.244,124.985,136.536,126.253Z" fill="#263238"/>
        <path id="Trazado_127535" data-name="Trazado 127535" d="M160.472,123.971s3.659-8.259-2.045-10.918A14.124,14.124,0,0,1,160.472,123.971Z" fill="#263238"/>
        <path id="Trazado_127536" data-name="Trazado 127536" d="M154.4,132.358a8.238,8.238,0,0,0,2.964,4.384c1.912,1.422,3.34.022,3.2-2.141-.122-1.948-1.264-5.034-3.373-5.611C155.115,128.421,153.85,130.245,154.4,132.358Z" fill="#ffc3bd"/>
        <path id="Trazado_127537" data-name="Trazado 127537" d="M158.336,221.87S150,278.012,145.422,299.045c-5.012,23.032-31.888,99.236-31.888,99.236l-13.15-2.847s18.793-62.1,23-94.3c3.231-24.734,9.6-79.263,9.6-79.263Z" fill="#263238"/>
        <path id="Trazado_127538" data-name="Trazado 127538" d="M116.683,393.891c.057.012-2.451,4.756-2.451,4.756l-14.8-3.2,1.247-4.448Z" fill="#407bff"/>
        <path id="Trazado_127539" data-name="Trazado 127539" d="M153.067,241.873c-9.64,1.89-8.62,37.84-7.46,56.33,2.78-13.07,6.85-38.22,9.63-56.07A3.293,3.293,0,0,0,153.067,241.873Z" opacity="0.3"/>
        <path id="Trazado_127540" data-name="Trazado 127540" d="M172.275,221.87s1.012,54.926.213,77.329c-.831,23.3-8.971,99.6-8.971,99.6H151.073s-.457-74.937-1.011-97.822c-.6-24.949-3.616-79.108-3.616-79.108Z" fill="#263238"/>
        <path id="Trazado_127541" data-name="Trazado 127541" d="M241.363,183.146H216.011l-1.416,25.784,25.315.677Z" fill="#263238" opacity="0.4"/>
        <path id="Trazado_127542" data-name="Trazado 127542" d="M228.037,199.735l-25.39-3.133a220.047,220.047,0,0,0,4.577-25.932l25.54,3.143A220.306,220.306,0,0,1,228.037,199.735Z" fill="#b2b555"/>
        <path id="Trazado_127543" data-name="Trazado 127543" d="M165.912,393.843c.058,0-.7,5.167-.7,5.167H150.072l-.41-4.611Z" fill="#407bff"/>
        <path id="Trazado_127544" data-name="Trazado 127544" d="M175.464,165.074c1.128,1.758,2.417,3.735,3.7,5.559,1.311,1.842,2.619,3.682,4,5.451a74.782,74.782,0,0,0,8.752,9.769c.774.715,1.565,1.376,2.363,1.988l.6.451a1.88,1.88,0,0,0-.352-.12c-.261-.05-.388-.006-.318.031a3.341,3.341,0,0,0,1.646-.378,19.39,19.39,0,0,0,2.529-1.313,87.778,87.778,0,0,0,10.563-8.186l4.292,3.466a51,51,0,0,1-9.617,11.733,23.588,23.588,0,0,1-3.437,2.529,13.426,13.426,0,0,1-5.045,1.874,8.89,8.89,0,0,1-3.824-.324,8.571,8.571,0,0,1-1.943-.9l-.867-.549q-1.717-1.111-3.269-2.337a72.524,72.524,0,0,1-10.77-10.812c-1.568-1.939-3.087-3.9-4.494-5.936-1.426-2.058-2.764-4.026-4.089-6.318Z" fill="#ffc3bd"/>
        <g id="Grupo_68405" data-name="Grupo 68405">
          <path id="Trazado_127545" data-name="Trazado 127545" d="M161.033,169.484c-2.35,9.85,15.471,19.5,15.471,19.5l11.575-13.562a96.142,96.142,0,0,0-11.826-14.278C168.155,153.366,162.821,161.987,161.033,169.484Z" fill="#407bff"/>
          <path id="Trazado_127546" data-name="Trazado 127546" d="M161.033,169.484c-2.35,9.85,15.471,19.5,15.471,19.5l11.575-13.562a96.142,96.142,0,0,0-11.826-14.278C168.155,153.366,162.821,161.987,161.033,169.484Z" fill="#529ada"/>
        </g>
        <path id="Trazado_127547" data-name="Trazado 127547" d="M207.784,180.376l2.731-8.773,7.19,3.582s-1.048,6.4-6.281,7.511Z" fill="#ffc3bd"/>
        <path id="Trazado_127548" data-name="Trazado 127548" d="M213.4,169.171l6.484,1.785-2.178,4.23-7.19-3.583Z" fill="#ffc3bd"/>
      </g>
    </g>
  </g>
</svg>
