<svg xmlns="http://www.w3.org/2000/svg" width="153" height="153" viewBox="0 0 153 153">
  <g id="Grupo_72395" data-name="Grupo 72395" transform="translate(-604 -1812)">
    <g id="Trazado_127746" data-name="Trazado 127746" transform="translate(604 1812)" fill="#f3f095">
      <path d="M 76.5 151.5 C 66.37439727783203 151.5 56.5524787902832 149.5172271728516 47.30707931518555 145.6067352294922 C 42.86333847045898 143.7272033691406 38.57723999023438 141.4007568359375 34.56784057617188 138.6920623779297 C 30.59613990783691 136.0088348388672 26.86125946044922 132.9272766113281 23.46699905395508 129.5330047607422 C 20.07271957397461 126.1387405395508 16.99115943908691 122.4038619995117 14.30793952941895 118.4321594238281 C 11.59924030303955 114.4227600097656 9.272800445556641 110.1366577148438 7.39326000213623 105.6929168701172 C 3.482779979705811 96.44751739501953 1.5 86.62560272216797 1.5 76.5 C 1.5 66.37439727783203 3.482779979705811 56.5524787902832 7.39326000213623 47.30707931518555 C 9.272800445556641 42.86333847045898 11.59924030303955 38.57723999023438 14.30793952941895 34.56784057617188 C 16.99115943908691 30.59613990783691 20.07271957397461 26.86125946044922 23.46699905395508 23.46699905395508 C 26.86125946044922 20.07271957397461 30.59613990783691 16.99115943908691 34.56784057617188 14.30793952941895 C 38.57723999023438 11.59924030303955 42.86333847045898 9.272800445556641 47.30707931518555 7.39326000213623 C 56.5524787902832 3.482779979705811 66.37439727783203 1.5 76.5 1.5 C 86.62560272216797 1.5 96.44751739501953 3.482779979705811 105.6929168701172 7.39326000213623 C 110.1366577148438 9.272800445556641 114.4227600097656 11.59924030303955 118.4321594238281 14.30793952941895 C 122.4038619995117 16.99115943908691 126.1387405395508 20.07271957397461 129.5330047607422 23.46699905395508 C 132.9272766113281 26.86125946044922 136.0088348388672 30.59613990783691 138.6920623779297 34.56784057617188 C 141.4007568359375 38.57723999023438 143.7272033691406 42.86333847045898 145.6067352294922 47.30707931518555 C 149.5172271728516 56.5524787902832 151.5 66.37439727783203 151.5 76.5 C 151.5 86.62560272216797 149.5172271728516 96.44751739501953 145.6067352294922 105.6929168701172 C 143.7272033691406 110.1366577148438 141.4007568359375 114.4227600097656 138.6920623779297 118.4321594238281 C 136.0088348388672 122.4038619995117 132.9272766113281 126.1387405395508 129.5330047607422 129.5330047607422 C 126.1387405395508 132.9272766113281 122.4038619995117 136.0088348388672 118.4321594238281 138.6920623779297 C 114.4227600097656 141.4007568359375 110.1366577148438 143.7272033691406 105.6929168701172 145.6067352294922 C 96.44751739501953 149.5172271728516 86.62560272216797 151.5 76.5 151.5 Z" stroke="none"/>
      <path d="M 76.5 3 C 66.57624053955078 3 56.95091247558594 4.942916870117188 47.89141082763672 8.774765014648438 C 43.53687286376953 10.61656188964844 39.33669281005859 12.89639282226562 35.40754699707031 15.55087280273438 C 31.51495361328125 18.18064880371094 27.85441589355469 21.20089721679688 24.52764892578125 24.52764892578125 C 21.20089721679688 27.85441589355469 18.18064880371094 31.51495361328125 15.55087280273438 35.40754699707031 C 12.89639282226562 39.33669281005859 10.61656188964844 43.53687286376953 8.774765014648438 47.89141082763672 C 4.942916870117188 56.95091247558594 3 66.57624053955078 3 76.5 C 3 86.42375946044922 4.942916870117188 96.04908752441406 8.774765014648438 105.1085815429688 C 10.61656188964844 109.463134765625 12.89639282226562 113.6632995605469 15.55087280273438 117.5924530029297 C 18.18064880371094 121.4850463867188 21.20089721679688 125.1455841064453 24.52764892578125 128.4723510742188 C 27.85441589355469 131.7991027832031 31.51495361328125 134.8193511962891 35.40754699707031 137.4491271972656 C 39.33669281005859 140.1036071777344 43.53687286376953 142.3834381103516 47.89141082763672 144.2252349853516 C 56.95091247558594 148.0570831298828 66.57624053955078 150 76.5 150 C 86.42375946044922 150 96.04908752441406 148.0570831298828 105.1085815429688 144.2252349853516 C 109.463134765625 142.3834381103516 113.6632995605469 140.1036071777344 117.5924530029297 137.4491271972656 C 121.4850463867188 134.8193511962891 125.1455841064453 131.7991027832031 128.4723510742188 128.4723510742188 C 131.7991027832031 125.1455841064453 134.8193511962891 121.4850463867188 137.4491271972656 117.5924530029297 C 140.1036071777344 113.6632995605469 142.3834381103516 109.463134765625 144.2252349853516 105.1085815429688 C 148.0570831298828 96.04908752441406 150 86.42375946044922 150 76.5 C 150 66.57624053955078 148.0570831298828 56.95091247558594 144.2252349853516 47.89141082763672 C 142.3834381103516 43.53687286376953 140.1036071777344 39.33669281005859 137.4491271972656 35.40754699707031 C 134.8193511962891 31.51495361328125 131.7991027832031 27.85441589355469 128.4723510742188 24.52764892578125 C 125.1455841064453 21.20089721679688 121.4850463867188 18.18064880371094 117.5924530029297 15.55087280273438 C 113.6632995605469 12.89639282226562 109.463134765625 10.61656188964844 105.1085815429688 8.774765014648438 C 96.04908752441406 4.942916870117188 86.42375946044922 3 76.5 3 M 76.5 0 C 118.7497863769531 0 153 34.25021362304688 153 76.5 C 153 118.7497863769531 118.7497863769531 153 76.5 153 C 34.25021362304688 153 0 118.7497863769531 0 76.5 C 0 34.25021362304688 34.25021362304688 0 76.5 0 Z" stroke="none" fill="#fff"/>
    </g>
    <g id="Grupo_68497" data-name="Grupo 68497" transform="translate(29 -622)">
      <g id="Grupo_68494" data-name="Grupo 68494" transform="translate(48 -22)">
        <g id="Rect치ngulo_7658" data-name="Rect치ngulo 7658" transform="translate(565 2487.387)" fill="#529ad9" stroke="#fff" stroke-width="2">
          <rect width="77" height="77" rx="38.5" stroke="none"/>
          <rect x="1" y="1" width="75" height="75" rx="37.5" fill="none"/>
        </g>
        <g id="Grupo_68014" data-name="Grupo 68014" transform="translate(217 1165.387)">
          <g id="Elipse_4859" data-name="Elipse 4859" transform="translate(367 1303)" fill="#fff" stroke="#494b0f" stroke-width="2">
            <circle cx="19" cy="19" r="19" stroke="none"/>
            <circle cx="19" cy="19" r="18" fill="none"/>
          </g>
        </g>
        <path id="Trazado_130606" data-name="Trazado 130606" d="M10.791,0H.869V-2.148l4.57-4.8Q7.129-8.877,7.129-10.01a2.126,2.126,0,0,0-.4-1.4,1.43,1.43,0,0,0-1.162-.479,1.447,1.447,0,0,0-1.221.64,2.629,2.629,0,0,0-.469,1.6H.576a4.67,4.67,0,0,1,.654-2.417A4.588,4.588,0,0,1,3.047-13.8a5.4,5.4,0,0,1,2.6-.625,5.308,5.308,0,0,1,3.55,1.064A3.8,3.8,0,0,1,10.439-10.3a4.439,4.439,0,0,1-.312,1.636A7.173,7.173,0,0,1,9.155-7,24.477,24.477,0,0,1,7.031-4.658L5.2-2.539h5.6Z" transform="translate(598 2494)" fill="#12263f"/>
        <g id="identidad-de-la-marca" transform="translate(549.58 2517.047)">
          <path id="Trazado_127619" data-name="Trazado 127619" d="M226.165,8.8V59.19a1.3,1.3,0,0,1-1.3,1.3H197.982l-9.952-9.952V8.8a1.3,1.3,0,0,1,1.3-1.3h35.535a1.3,1.3,0,0,1,1.3,1.3Z" transform="translate(-143.447 -6.525)" fill="#e8edf2"/>
          <path id="Trazado_127620" data-name="Trazado 127620" d="M450.47,7.5h-3.12a1.3,1.3,0,0,1,1.3,1.3V59.19a1.3,1.3,0,0,1-1.3,1.3h3.12a1.3,1.3,0,0,0,1.3-1.3V8.8A1.3,1.3,0,0,0,450.47,7.5Z" transform="translate(-369.052 -6.525)" fill="#c5d3dd"/>
          <path id="Trazado_127621" data-name="Trazado 127621" d="M197.982,348.482V339.83a1.3,1.3,0,0,0-1.3-1.3H188.03Z" transform="translate(-143.447 -294.517)" fill="#c5d3dd"/>
          <path id="Trazado_127622" data-name="Trazado 127622" d="M30.647,327.326v19.921a1.665,1.665,0,0,0,1.665,1.665H45.837a1.665,1.665,0,0,0,1.665-1.665V327.326a1.665,1.665,0,0,0-1.665-1.665H32.312A1.665,1.665,0,0,0,30.647,327.326Z" transform="translate(-6.526 -283.321)" fill="#01c0fa"/>
          <path id="Trazado_127623" data-name="Trazado 127623" d="M127.908,325.661h-2.925a1.665,1.665,0,0,1,1.665,1.665v19.921a1.665,1.665,0,0,1-1.665,1.665h2.925a1.665,1.665,0,0,0,1.665-1.665V327.326A1.665,1.665,0,0,0,127.908,325.661Z" transform="translate(-88.597 -283.321)" fill="#0290cf"/>
          <circle id="Elipse_4888" data-name="Elipse 4888" cx="3.414" cy="3.414" r="3.414" transform="translate(29.135 47.224)" fill="#d8ecfe"/>
          <path id="Trazado_127624" data-name="Trazado 127624" d="M211.213,469.129H189.8a1.764,1.764,0,0,0,0,3.528h21.417Z" transform="translate(-143.449 -408.137)" fill="#fe9738"/>
          <path id="Trazado_127625" data-name="Trazado 127625" d="M192.041,469.129H189.8a1.764,1.764,0,0,0,0,3.528h2.245v-3.528Z" transform="translate(-143.449 -408.137)" fill="#01c0fa"/>
          <path id="Trazado_127626" data-name="Trazado 127626" d="M366.771,460.894h13.192a1.321,1.321,0,0,1,1.321,1.321v3.026a1.321,1.321,0,0,1-1.321,1.321H366.771a.441.441,0,0,1-.44-.441v-4.788A.44.44,0,0,1,366.771,460.894Z" transform="translate(-298.567 -400.972)" fill="#01c0fa"/>
          <path id="Trazado_127627" data-name="Trazado 127627" d="M451.032,460.894H448.02a1.321,1.321,0,0,1,1.321,1.321v3.026a1.321,1.321,0,0,1-1.321,1.321h3.012a1.321,1.321,0,0,0,1.321-1.321v-3.026A1.321,1.321,0,0,0,451.032,460.894Z" transform="translate(-369.635 -400.972)" fill="#0290cf"/>
          <path id="Trazado_127628" data-name="Trazado 127628" d="M30.647,50.344V63.509a1.3,1.3,0,0,0,1.3,1.3H54.729a1.3,1.3,0,0,0,1.3-1.3V50.344a1.3,1.3,0,0,0-1.3-1.3H31.947A1.3,1.3,0,0,0,30.647,50.344Z" transform="translate(-6.526 -42.668)" fill="#01c0fa"/>
          <path id="Trazado_127629" data-name="Trazado 127629" d="M195.371,49.044h-3.065a1.3,1.3,0,0,1,1.3,1.3V63.509a1.3,1.3,0,0,1-1.3,1.3h3.064a1.3,1.3,0,0,0,1.3-1.3V50.344A1.3,1.3,0,0,0,195.371,49.044Z" transform="translate(-147.167 -42.668)" fill="#0290cf"/>
          <path id="Trazado_127630" data-name="Trazado 127630" d="M69.17,63.292H46.713a1.3,1.3,0,0,0-.962.427l3.565,4.5a1.95,1.95,0,0,0,1.529.739H65.364a1.951,1.951,0,0,0,1.529-.739l2.278-2.875V63.292Z" transform="translate(-19.666 -55.063)" fill="#0290cf"/>
          <path id="Trazado_127631" data-name="Trazado 127631" d="M33.251,49.471l3.565,4.5a1.95,1.95,0,0,0,1.529.739H52.864a1.951,1.951,0,0,0,1.529-.739l3.565-4.5A1.3,1.3,0,0,0,57,49.044H34.213A1.3,1.3,0,0,0,33.251,49.471Z" transform="translate(-8.791 -42.668)" fill="#62dbfb"/>
          <path id="Trazado_127632" data-name="Trazado 127632" d="M381.628,307.937l-2.615,1.642a.964.964,0,0,0,0,1.633l2.615,1.642a.965.965,0,0,0,1.025,0l2.615-1.642a.964.964,0,0,0,0-1.633l-2.615-1.642A.964.964,0,0,0,381.628,307.937Z" transform="translate(-309.207 -267.773)" fill="#fe9738"/>
          <path id="Trazado_127633" data-name="Trazado 127633" d="M289.412,53.327H275.03a.65.65,0,0,1-.65-.65V49.232a.65.65,0,0,1,.65-.65h14.382a.65.65,0,0,1,.65.65v3.445A.65.65,0,0,1,289.412,53.327Z" transform="translate(-218.57 -42.266)" fill="#01c0fa"/>
          <g id="Grupo_68472" data-name="Grupo 68472" transform="translate(23.146 0)">
            <path id="Trazado_127634" data-name="Trazado 127634" d="M43.613,44.11c0,.024.007.047.011.071,0,.008,0,.016,0,.024.006.028.013.055.021.082l0,.01c.008.028.018.054.029.081l0,.009c.011.025.022.05.035.074l.006.012c.012.022.025.044.039.066l.01.017c.013.02.028.039.043.058l.014.019c.018.022.038.044.059.065l.005.006,9.952,9.952.007.007c.02.02.041.039.063.057l.022.016c.018.014.036.028.055.041l.02.012c.02.013.041.026.062.037l.015.007c.024.012.047.024.072.034l.011,0c.026.01.052.02.079.028l.01,0c.027.008.054.015.082.021l.023,0c.024,0,.047.008.071.011a.972.972,0,0,0,.1,0H81.418a2.278,2.278,0,0,0,2.275-2.275V34.907a.975.975,0,0,0-1.95,0V52.665a.325.325,0,0,1-.325.325H55.511V45.313a2.278,2.278,0,0,0-2.275-2.275H45.558V23.117H48.2a2.278,2.278,0,0,0,2.275-2.275V7.676a2.263,2.263,0,0,0-.556-1.485.971.971,0,0,0-.08-.089A2.267,2.267,0,0,0,48.2,5.4H45.558V2.275a.325.325,0,0,1,.325-.325H81.418a.325.325,0,0,1,.325.325V31.007a.975.975,0,1,0,1.95,0V2.275A2.278,2.278,0,0,0,81.418,0H45.883a2.278,2.278,0,0,0-2.275,2.275V5.4H25.421a2.267,2.267,0,0,0-1.639.7.991.991,0,0,0-.08.089,2.263,2.263,0,0,0-.556,1.485V20.842a2.278,2.278,0,0,0,2.275,2.275H43.608v20.9a.971.971,0,0,0,0,.1ZM47.487,7.351,44.836,10.7a.969.969,0,0,1-.764.369H29.553a.969.969,0,0,1-.764-.369l-2.65-3.345ZM25.1,20.842V9.177l2.164,2.731a2.909,2.909,0,0,0,2.293,1.108H44.072a2.909,2.909,0,0,0,2.293-1.108l2.164-2.731V20.841a.325.325,0,0,1-.325.325H25.421a.325.325,0,0,1-.325-.325ZM53.56,45.313v6.3l-6.623-6.623h6.3A.325.325,0,0,1,53.56,45.313Z" transform="translate(-23.146 0)"/>
            <path id="Trazado_127635" data-name="Trazado 127635" d="M39.312,218.66H34.223l5.952-10.5a2.925,2.925,0,0,0-2.545-4.368H27.469a2.925,2.925,0,0,0-2.545,4.368l5.952,10.5H25.787a2.643,2.643,0,0,0-2.64,2.64v4.683a.975.975,0,1,0,1.95,0V221.3a.691.691,0,0,1,.69-.69H39.312a.691.691,0,0,1,.69.69v19.922a.691.691,0,0,1-.69.69H25.787a.691.691,0,0,1-.69-.69V229.883a.975.975,0,1,0-1.95,0v11.338a2.643,2.643,0,0,0,2.64,2.64H39.312a2.643,2.643,0,0,0,2.64-2.64V221.3A2.643,2.643,0,0,0,39.312,218.66ZM26.627,206.224a.959.959,0,0,1,.842-.484H37.63a.975.975,0,0,1,.848,1.456L32.55,217.657,26.621,207.2a.958.958,0,0,1,.006-.972Z" transform="translate(-23.147 -177.295)"/>
            <path id="Trazado_127636" data-name="Trazado 127636" d="M66.1,355.724a4.389,4.389,0,1,0,4.389,4.389A4.394,4.394,0,0,0,66.1,355.724Zm0,6.828a2.439,2.439,0,1,1,2.439-2.439A2.442,2.442,0,0,1,66.1,362.552Z" transform="translate(-56.694 -309.475)"/>
            <path id="Trazado_127637" data-name="Trazado 127637" d="M76.4,442.484H71.99a.975.975,0,0,0,0,1.95H76.4a.975.975,0,0,0,0-1.95Z" transform="translate(-64.791 -384.956)"/>
            <path id="Trazado_127638" data-name="Trazado 127638" d="M218.745,436.093v-.336a2.3,2.3,0,0,0-2.3-2.3H204.688a.975.975,0,1,0,0,1.95h11.761a.347.347,0,0,1,.346.346v.3H205.129a1.417,1.417,0,0,0-1.371,1.071H183.271a2.739,2.739,0,1,0,0,5.478h20.486a1.417,1.417,0,0,0,1.371,1.071h13.193a2.3,2.3,0,0,0,2.3-2.3v-3.027A2.3,2.3,0,0,0,218.745,436.093Zm-15.032,4.558H186.491v-1.578h17.222Zm-21.231-.789a.79.79,0,0,1,.789-.789h1.27v1.578h-1.27A.79.79,0,0,1,182.482,439.861Zm36.185,1.513a.347.347,0,0,1-.346.346H205.663V438h12.658a.347.347,0,0,1,.346.346Z" transform="translate(-160.07 -377.105)"/>
            <path id="Trazado_127639" data-name="Trazado 127639" d="M368.19,363.721h8.158a.975.975,0,0,0,0-1.95H368.19a.975.975,0,0,0,0,1.95Z" transform="translate(-322.482 -314.736)"/>
            <path id="Trazado_127640" data-name="Trazado 127640" d="M374.585,300.6l-2.615,1.641a1.939,1.939,0,0,0,0,3.285l2.615,1.642a1.95,1.95,0,0,0,2.062,0l2.615-1.642a1.939,1.939,0,0,0,0-3.285l-2.615-1.641A1.95,1.95,0,0,0,374.585,300.6Zm3.625,3.284-2.588,1.632-2.6-1.632,2.594-1.629Z" transform="translate(-325.829 -261.261)"/>
            <path id="Trazado_127641" data-name="Trazado 127641" d="M270.492,43.032a.975.975,0,1,0,0-1.95h-1.987a1.627,1.627,0,0,0-1.625,1.625v3.445a1.627,1.627,0,0,0,1.625,1.625h14.382a1.627,1.627,0,0,0,1.625-1.625V42.707a1.627,1.627,0,0,0-1.625-1.625h-8.494a.975.975,0,1,0,0,1.95h8.169v2.795H268.83V43.032Z" transform="translate(-235.192 -35.741)"/>
            <path id="Trazado_127642" data-name="Trazado 127642" d="M261.1,141.007a.975.975,0,0,0,.975.975H279.26a.975.975,0,0,0,0-1.95H262.075A.975.975,0,0,0,261.1,141.007Z" transform="translate(-230.163 -121.826)"/>
            <path id="Trazado_127643" data-name="Trazado 127643" d="M262.075,181.688H279.26a.975.975,0,0,0,0-1.95H262.075a.975.975,0,1,0,0,1.95Z" transform="translate(-230.163 -156.37)"/>
            <path id="Trazado_127644" data-name="Trazado 127644" d="M262.075,221.4H279.26a.975.975,0,0,0,0-1.95H262.075a.975.975,0,1,0,0,1.95Z" transform="translate(-230.163 -190.914)"/>
          </g>
        </g>
      </g>
      <rect id="Rect치ngulo_7796" data-name="Rect치ngulo 7796" width="96" height="124" transform="translate(602 2442)" fill="none"/>
    </g>
  </g>
</svg>
