<svg xmlns="http://www.w3.org/2000/svg" width="153" height="153" viewBox="0 0 153 153">
  <g id="Grupo_72396" data-name="Grupo 72396" transform="translate(-771 -1812)">
    <g id="Trazado_127750" data-name="Trazado 127750" transform="translate(771 1812)" fill="#f3f095">
      <path d="M 76.5 151.5 C 66.37439727783203 151.5 56.5524787902832 149.5172271728516 47.30707931518555 145.6067352294922 C 42.86333847045898 143.7272033691406 38.57723999023438 141.4007568359375 34.56784057617188 138.6920623779297 C 30.59613990783691 136.0088348388672 26.86125946044922 132.9272766113281 23.46699905395508 129.5330047607422 C 20.07271957397461 126.1387405395508 16.99115943908691 122.4038619995117 14.30793952941895 118.4321594238281 C 11.59924030303955 114.4227600097656 9.272800445556641 110.1366577148438 7.39326000213623 105.6929168701172 C 3.482779979705811 96.44751739501953 1.5 86.62560272216797 1.5 76.5 C 1.5 66.37439727783203 3.482779979705811 56.5524787902832 7.39326000213623 47.30707931518555 C 9.272800445556641 42.86333847045898 11.59924030303955 38.57723999023438 14.30793952941895 34.56784057617188 C 16.99115943908691 30.59613990783691 20.07271957397461 26.86125946044922 23.46699905395508 23.46699905395508 C 26.86125946044922 20.07271957397461 30.59613990783691 16.99115943908691 34.56784057617188 14.30793952941895 C 38.57723999023438 11.59924030303955 42.86333847045898 9.272800445556641 47.30707931518555 7.39326000213623 C 56.5524787902832 3.482779979705811 66.37439727783203 1.5 76.5 1.5 C 86.62560272216797 1.5 96.44751739501953 3.482779979705811 105.6929168701172 7.39326000213623 C 110.1366577148438 9.272800445556641 114.4227600097656 11.59924030303955 118.4321594238281 14.30793952941895 C 122.4038619995117 16.99115943908691 126.1387405395508 20.07271957397461 129.5330047607422 23.46699905395508 C 132.9272766113281 26.86125946044922 136.0088348388672 30.59613990783691 138.6920623779297 34.56784057617188 C 141.4007568359375 38.57723999023438 143.7272033691406 42.86333847045898 145.6067352294922 47.30707931518555 C 149.5172271728516 56.5524787902832 151.5 66.37439727783203 151.5 76.5 C 151.5 86.62560272216797 149.5172271728516 96.44751739501953 145.6067352294922 105.6929168701172 C 143.7272033691406 110.1366577148438 141.4007568359375 114.4227600097656 138.6920623779297 118.4321594238281 C 136.0088348388672 122.4038619995117 132.9272766113281 126.1387405395508 129.5330047607422 129.5330047607422 C 126.1387405395508 132.9272766113281 122.4038619995117 136.0088348388672 118.4321594238281 138.6920623779297 C 114.4227600097656 141.4007568359375 110.1366577148438 143.7272033691406 105.6929168701172 145.6067352294922 C 96.44751739501953 149.5172271728516 86.62560272216797 151.5 76.5 151.5 Z" stroke="none"/>
      <path d="M 76.5 3 C 66.57624053955078 3 56.95091247558594 4.942916870117188 47.89141082763672 8.774765014648438 C 43.53687286376953 10.61656188964844 39.33669281005859 12.89639282226562 35.40754699707031 15.55087280273438 C 31.51495361328125 18.18064880371094 27.85441589355469 21.20089721679688 24.52764892578125 24.52764892578125 C 21.20089721679688 27.85441589355469 18.18064880371094 31.51495361328125 15.55087280273438 35.40754699707031 C 12.89639282226562 39.33669281005859 10.61656188964844 43.53687286376953 8.774765014648438 47.89141082763672 C 4.942916870117188 56.95091247558594 3 66.57624053955078 3 76.5 C 3 86.42375946044922 4.942916870117188 96.04908752441406 8.774765014648438 105.1085815429688 C 10.61656188964844 109.463134765625 12.89639282226562 113.6632995605469 15.55087280273438 117.5924530029297 C 18.18064880371094 121.4850463867188 21.20089721679688 125.1455841064453 24.52764892578125 128.4723510742188 C 27.85441589355469 131.7991027832031 31.51495361328125 134.8193511962891 35.40754699707031 137.4491271972656 C 39.33669281005859 140.1036071777344 43.53687286376953 142.3834381103516 47.89141082763672 144.2252349853516 C 56.95091247558594 148.0570831298828 66.57624053955078 150 76.5 150 C 86.42375946044922 150 96.04908752441406 148.0570831298828 105.1085815429688 144.2252349853516 C 109.463134765625 142.3834381103516 113.6632995605469 140.1036071777344 117.5924530029297 137.4491271972656 C 121.4850463867188 134.8193511962891 125.1455841064453 131.7991027832031 128.4723510742188 128.4723510742188 C 131.7991027832031 125.1455841064453 134.8193511962891 121.4850463867188 137.4491271972656 117.5924530029297 C 140.1036071777344 113.6632995605469 142.3834381103516 109.463134765625 144.2252349853516 105.1085815429688 C 148.0570831298828 96.04908752441406 150 86.42375946044922 150 76.5 C 150 66.57624053955078 148.0570831298828 56.95091247558594 144.2252349853516 47.89141082763672 C 142.3834381103516 43.53687286376953 140.1036071777344 39.33669281005859 137.4491271972656 35.40754699707031 C 134.8193511962891 31.51495361328125 131.7991027832031 27.85441589355469 128.4723510742188 24.52764892578125 C 125.1455841064453 21.20089721679688 121.4850463867188 18.18064880371094 117.5924530029297 15.55087280273438 C 113.6632995605469 12.89639282226562 109.463134765625 10.61656188964844 105.1085815429688 8.774765014648438 C 96.04908752441406 4.942916870117188 86.42375946044922 3 76.5 3 M 76.5 0 C 118.7497863769531 0 153 34.25021362304688 153 76.5 C 153 118.7497863769531 118.7497863769531 153 76.5 153 C 34.25021362304688 153 0 118.7497863769531 0 76.5 C 0 34.25021362304688 34.25021362304688 0 76.5 0 Z" stroke="none" fill="#fff"/>
    </g>
    <g id="Grupo_68498" data-name="Grupo 68498" transform="translate(41 -622)">
      <g id="Grupo_68493" data-name="Grupo 68493" transform="translate(94 -22)">
        <g id="Rect치ngulo_7790" data-name="Rect치ngulo 7790" transform="translate(672 2487.387)" fill="#529ad9" stroke="#fff" stroke-width="2">
          <rect width="77" height="77" rx="38.5" stroke="none"/>
          <rect x="1" y="1" width="75" height="75" rx="37.5" fill="none"/>
        </g>
        <g id="Grupo_68473" data-name="Grupo 68473" transform="translate(324 1165.387)">
          <g id="Elipse_4859" data-name="Elipse 4859" transform="translate(367 1303)" fill="#fff" stroke="#494b0f" stroke-width="2">
            <circle cx="19" cy="19" r="19" stroke="none"/>
            <circle cx="19" cy="19" r="18" fill="none"/>
          </g>
        </g>
        <path id="Trazado_130607" data-name="Trazado 130607" d="M3.877-8.486H5.43a1.614,1.614,0,0,0,1.846-1.807,1.562,1.562,0,0,0-.439-1.147,1.666,1.666,0,0,0-1.24-.444,1.784,1.784,0,0,0-1.138.381,1.162,1.162,0,0,0-.483.947H.684a3.369,3.369,0,0,1,.625-2,4.127,4.127,0,0,1,1.733-1.372,5.926,5.926,0,0,1,2.437-.493,5.823,5.823,0,0,1,3.73,1.084,3.6,3.6,0,0,1,1.357,2.979A3,3,0,0,1,10-8.628,4,4,0,0,1,8.369-7.3,3.823,3.823,0,0,1,10.146-6.06a3.279,3.279,0,0,1,.645,2.065A3.669,3.669,0,0,1,9.326-.947,6.08,6.08,0,0,1,5.479.2,6.306,6.306,0,0,1,2.886-.337,4.062,4.062,0,0,1,1.074-1.812,3.834,3.834,0,0,1,.459-3.955H3.77A1.482,1.482,0,0,0,4.3-2.822a1.862,1.862,0,0,0,1.3.479,1.95,1.95,0,0,0,1.387-.483A1.616,1.616,0,0,0,7.5-4.062a1.889,1.889,0,0,0-.537-1.523,2.245,2.245,0,0,0-1.484-.449h-1.6Z" transform="translate(705 2494)" fill="#12263f"/>
        <g id="manual" transform="translate(681 2515.613)">
          <path id="Trazado_127645" data-name="Trazado 127645" d="M208,104h30.812v42.5H208Zm0,0" transform="translate(-180.375 -90.188)" fill="#ffe082"/>
          <path id="Trazado_127646" data-name="Trazado 127646" d="M88,151.812v-42.5A5.313,5.313,0,0,1,93.313,104H113.5l-9.563,47.812Zm0,0" transform="translate(-76.313 -90.188)" fill="#a6e7ff"/>
          <path id="Trazado_127647" data-name="Trazado 127647" d="M208,421.4c.023-.129.034-.257.054-.386C208.035,421.144,208.023,421.272,208,421.4Zm0,0" transform="translate(-180.375 -365.099)" fill="#ffd54f"/>
          <path id="Trazado_127648" data-name="Trazado 127648" d="M209.3,407.1c-.011.359-.034.716-.071,1.073.038-.359.058-.718.072-1.076Zm0,0" transform="translate(-181.442 -353.03)" fill="#ffd54f"/>
          <path id="Trazado_127649" data-name="Trazado 127649" d="M233.437,87h-.064L216.223,129.43a28.225,28.225,0,0,0,14.845-5.24L242.851,84.4A18.363,18.363,0,0,1,233.437,87Zm0,0" transform="translate(-187.506 -73.189)" fill="#ffd54f"/>
          <path id="Trazado_127650" data-name="Trazado 127650" d="M128,52.125l2.125,1.063a15.839,15.839,0,0,1,8.5,17h1.063l17.245-42.659a8.5,8.5,0,0,0-4.079-10.784L151.375,16Zm0,0" transform="translate(-111 -13.875)" fill="#ffe082"/>
          <path id="Trazado_127651" data-name="Trazado 127651" d="M93.313,424H134.75v10.625H93.313a5.313,5.313,0,1,1,0-10.625Zm0,0" transform="translate(-76.313 -367.688)" fill="#e0e0e0"/>
          <g id="Grupo_68474" data-name="Grupo 68474" transform="translate(43.563 23.375)">
            <path id="Trazado_127652" data-name="Trazado 127652" d="M376,216h5.313v2.125H376Zm0,0" transform="translate(-369.625 -210.688)" fill="#fff"/>
            <path id="Trazado_127653" data-name="Trazado 127653" d="M368,256h6.375v2.125H368Zm0,0" transform="translate(-362.688 -245.375)" fill="#fff"/>
            <path id="Trazado_127654" data-name="Trazado 127654" d="M352,296h8.5v2.125H352Zm0,0" transform="translate(-348.813 -280.063)" fill="#fff"/>
            <path id="Trazado_127655" data-name="Trazado 127655" d="M344,336h9.563v2.125H344Zm0,0" transform="translate(-341.875 -314.75)" fill="#fff"/>
            <path id="Trazado_127656" data-name="Trazado 127656" d="M328,376h11.688v2.125H328Zm0,0" transform="translate(-328 -349.438)" fill="#fff"/>
            <path id="Trazado_127657" data-name="Trazado 127657" d="M392,176h3.188v2.125H392Zm0,0" transform="translate(-383.5 -176)" fill="#fff"/>
          </g>
          <path id="Trazado_127658" data-name="Trazado 127658" d="M125.369,17.641l1.142-3.86-2.337,1.4a17.25,17.25,0,0,1-7.457,2.392A9.616,9.616,0,0,0,111.7,6.8l-2.33-1.163-7.765,12H86.375A6.381,6.381,0,0,0,80,24.016v42.5a6.381,6.381,0,0,0,6.375,6.375h42.5V17.641Zm-2.374.531L112.024,55.236a27.269,27.269,0,0,1-12.3,4.683l16.246-40.186A19.33,19.33,0,0,0,123,18.173ZM110.126,8.4l.627.314a7.476,7.476,0,0,1,3.57,9.44L98.3,57.782a17.01,17.01,0,0,0-9.328-14.535l-1.062-.531Zm-28,15.619a4.25,4.25,0,0,1,4.25-4.25h13.859l-15.4,23.8,3.188,1.594a14.85,14.85,0,0,1,8.049,14.981h-9.7a6.343,6.343,0,0,0-4.25,1.636ZM126.75,65.454H86.375v2.125H126.75v3.188H86.375a4.25,4.25,0,1,1,0-8.5H126.75Zm0-5.313H107.373a29.61,29.61,0,0,0,6.181-3.385l.3-.213,10.89-36.777h2.008Zm0,0" transform="translate(-69.375 -4.891)"/>
          <path id="Trazado_127659" data-name="Trazado 127659" d="M0,0H25.5V2.125H0ZM0,0"/>
          <path id="Trazado_127660" data-name="Trazado 127660" d="M0,32H17v2.125H0Zm0,0" transform="translate(0 -27.75)"/>
          <path id="Trazado_127661" data-name="Trazado 127661" d="M0,64H8.5v2.125H0Zm0,0" transform="translate(0 -55.5)"/>
        </g>
      </g>
      <rect id="Rect치ngulo_7797" data-name="Rect치ngulo 7797" width="96" height="124" transform="translate(757 2442)" fill="none"/>
    </g>
  </g>
</svg>
