<svg xmlns="http://www.w3.org/2000/svg" width="98" height="92" viewBox="0 0 98 92">
  <g id="Grupo_68968" data-name="Grupo 68968" transform="translate(-485 -1430)">
    <g id="flecha-correcta_1_" data-name="flecha-correcta (1)" transform="translate(505.554 1344.349)">
      <g id="Grupo_68935" data-name="Grupo 68935" transform="translate(0.844 92.495)">
        <path id="Trazado_127836" data-name="Trazado 127836" d="M42.5,134.463a4.877,4.877,0,0,1-4.877-4.877v-1.344H12.583A5.083,5.083,0,0,1,7.5,123.159v-12.7a5.083,5.083,0,0,1,5.083-5.083H37.621v-1.346a4.873,4.873,0,0,1,7.908-3.815L61.6,112.991a4.874,4.874,0,0,1,0,7.631L45.528,133.4a4.89,4.89,0,0,1-3.031,1.06Z" transform="translate(-7.5 -99.151)" fill="#f5f5f5"/>
      </g>
      <g id="Grupo_68936" data-name="Grupo 68936" transform="translate(5.16 96.811)">
        <path id="Trazado_127837" data-name="Trazado 127837" d="M92.942,150.391,76.866,137.611a.559.559,0,0,0-.907.437v5.1a.559.559,0,0,1-.559.559H47.391a1.552,1.552,0,0,0-1.552,1.552V156.4a1.552,1.552,0,0,0,1.552,1.552H75.4a.559.559,0,0,1,.559.559v5.1a.559.559,0,0,0,.907.437l16.076-12.781a.559.559,0,0,0,0-.875Z" transform="translate(-45.839 -137.488)" fill="#fddf7c"/>
      </g>
      <g id="Grupo_68937" data-name="Grupo 68937" transform="translate(34.147 92.495)">
        <path id="Trazado_127838" data-name="Trazado 127838" d="M324.153,112.991l-16.076-12.78a4.867,4.867,0,0,0-4.724-.756,4.883,4.883,0,0,1,1.347.756l16.076,12.781a4.874,4.874,0,0,1,0,7.631L304.7,133.4a4.885,4.885,0,0,1-1.349.757,4.867,4.867,0,0,0,1.695.3h0a4.89,4.89,0,0,0,3.031-1.06l16.076-12.781a4.874,4.874,0,0,0,0-7.631Z" transform="translate(-303.352 -99.151)" fill="#ebe5ed"/>
      </g>
      <g id="Grupo_68938" data-name="Grupo 68938" transform="translate(35.281 96.811)">
        <path id="Trazado_127839" data-name="Trazado 127839" d="M330.4,150.391l-16.076-12.781a.559.559,0,0,0-.906.437v1.527l13.605,10.817a.559.559,0,0,1,0,.875l-13.605,10.816v1.527a.559.559,0,0,0,.906.437L330.4,151.266A.559.559,0,0,0,330.4,150.391Z" transform="translate(-313.421 -137.488)" fill="#fcce63"/>
      </g>
      <g id="Grupo_68939" data-name="Grupo 68939" transform="translate(0 91.651)">
        <path id="Trazado_127840" data-name="Trazado 127840" d="M35.842,128.651a5.728,5.728,0,0,1-5.721-5.721v-.5h-6.7a.844.844,0,0,1,0-1.688h7.546a.844.844,0,0,1,.844.844v1.344a4.029,4.029,0,0,0,6.538,3.156l16.076-12.781a4.03,4.03,0,0,0,0-6.309L38.347,94.216a4.029,4.029,0,0,0-6.538,3.155v1.346a.844.844,0,0,1-.844.844H5.927A4.244,4.244,0,0,0,1.688,103.8v12.7a4.243,4.243,0,0,0,4.239,4.239H20.042a.844.844,0,0,1,0,1.688H5.927A5.934,5.934,0,0,1,0,116.5V103.8a5.934,5.934,0,0,1,5.927-5.927H30.121v-.5A5.718,5.718,0,0,1,39.4,92.894l16.076,12.781a5.718,5.718,0,0,1,0,8.952L39.4,127.408a5.737,5.737,0,0,1-3.556,1.243Z" transform="translate(0 -91.651)"/>
      </g>
      <g id="Grupo_68940" data-name="Grupo 68940" transform="translate(4.316 95.966)">
        <path id="Trazado_127841" data-name="Trazado 127841" d="M69.864,158.353a1.408,1.408,0,0,1-.612-.141,1.393,1.393,0,0,1-.793-1.264v-4.817H40.734a2.4,2.4,0,0,1-2.4-2.4V138.6a2.4,2.4,0,0,1,2.4-2.4h5.817a.844.844,0,1,1,0,1.688H40.734a.708.708,0,0,0-.707.707v11.136a.708.708,0,0,0,.707.707h28.01a1.4,1.4,0,0,1,1.4,1.4v4.511l15.332-12.189L70.147,131.978v4.511a1.4,1.4,0,0,1-1.4,1.4H49.928a.844.844,0,1,1,0-1.688H68.459v-4.817a1.4,1.4,0,0,1,2.276-1.1l16.076,12.78a1.4,1.4,0,0,1,0,2.2L70.735,158.046A1.4,1.4,0,0,1,69.864,158.353Z" transform="translate(-38.338 -129.982)"/>
      </g>
    </g>
    <g id="flecha-correcta_1_2" data-name="flecha-correcta (1)" transform="translate(505.554 1474.996)" opacity="0.245">
      <g id="Grupo_68935-2" data-name="Grupo 68935" transform="translate(0.844 0.844)">
        <path id="Trazado_127836-2" data-name="Trazado 127836" d="M28.448,134.463a4.877,4.877,0,0,0,4.877-4.877v-1.344H58.363a5.083,5.083,0,0,0,5.083-5.083v-12.7a5.083,5.083,0,0,0-5.083-5.083H33.325v-1.345a4.873,4.873,0,0,0-7.908-3.815L9.341,112.991a4.874,4.874,0,0,0,0,7.631L25.417,133.4a4.89,4.89,0,0,0,3.031,1.06Z" transform="translate(-7.5 -99.151)" fill="#f5f5f5"/>
      </g>
      <g id="Grupo_68936-2" data-name="Grupo 68936" transform="translate(5.16 5.16)">
        <path id="Trazado_127837-2" data-name="Trazado 127837" d="M46.05,150.391l16.076-12.78a.559.559,0,0,1,.907.437v5.1a.559.559,0,0,0,.559.559H91.6a1.552,1.552,0,0,1,1.552,1.552V156.4a1.552,1.552,0,0,1-1.552,1.552H63.591a.559.559,0,0,0-.559.559v5.1a.559.559,0,0,1-.907.437L46.05,151.266a.559.559,0,0,1,0-.875Z" transform="translate(-45.839 -137.488)" fill="#dedede"/>
      </g>
      <g id="Grupo_68937-2" data-name="Grupo 68937" transform="translate(0.844 0.844)">
        <path id="Trazado_127838-2" data-name="Trazado 127838" d="M305.193,112.991l16.076-12.78a4.867,4.867,0,0,1,4.724-.756,4.883,4.883,0,0,0-1.347.756l-16.076,12.78a4.874,4.874,0,0,0,0,7.631L324.646,133.4a4.885,4.885,0,0,0,1.349.757,4.867,4.867,0,0,1-1.695.3h0a4.89,4.89,0,0,1-3.031-1.06l-16.076-12.781a4.874,4.874,0,0,1,0-7.631Z" transform="translate(-303.352 -99.151)" fill="#ebe5ed"/>
      </g>
      <g id="Grupo_68938-2" data-name="Grupo 68938" transform="translate(5.16 5.16)">
        <path id="Trazado_127839-2" data-name="Trazado 127839" d="M313.632,150.391l16.076-12.78a.559.559,0,0,1,.906.437v1.527l-13.605,10.816a.559.559,0,0,0,0,.875l13.605,10.816v1.527a.559.559,0,0,1-.906.437l-16.076-12.78A.559.559,0,0,1,313.632,150.391Z" transform="translate(-313.421 -137.488)" fill="#fff"/>
      </g>
      <g id="Grupo_68939-2" data-name="Grupo 68939" transform="translate(0 0)">
        <path id="Trazado_127840-2" data-name="Trazado 127840" d="M21.792,128.651a5.728,5.728,0,0,0,5.721-5.721v-.5h6.7a.844.844,0,1,0,0-1.688H26.669a.844.844,0,0,0-.844.844v1.344a4.029,4.029,0,0,1-6.538,3.156L3.21,113.305a4.03,4.03,0,0,1,0-6.309l16.076-12.78a4.029,4.029,0,0,1,6.538,3.155v1.345a.844.844,0,0,0,.844.844H51.707a4.244,4.244,0,0,1,4.239,4.239v12.7a4.243,4.243,0,0,1-4.239,4.239H37.592a.844.844,0,1,0,0,1.688H51.707a5.934,5.934,0,0,0,5.927-5.927V103.8a5.934,5.934,0,0,0-5.927-5.927H27.513v-.5a5.718,5.718,0,0,0-9.277-4.476L2.16,105.675a5.718,5.718,0,0,0,0,8.952l16.076,12.781a5.737,5.737,0,0,0,3.556,1.243Z" transform="translate(0 -91.651)"/>
      </g>
      <g id="Grupo_68940-2" data-name="Grupo 68940" transform="translate(4.316 4.315)">
        <path id="Trazado_127841-2" data-name="Trazado 127841" d="M55.815,158.352a1.408,1.408,0,0,0,.612-.141,1.393,1.393,0,0,0,.793-1.264v-4.817H84.945a2.4,2.4,0,0,0,2.4-2.4V138.6a2.4,2.4,0,0,0-2.4-2.4H79.128a.844.844,0,0,0,0,1.688h5.817a.708.708,0,0,1,.707.707v11.136a.708.708,0,0,1-.707.707H56.935a1.4,1.4,0,0,0-1.4,1.4v4.511L40.2,144.167l15.332-12.189v4.511a1.4,1.4,0,0,0,1.4,1.4H75.751a.844.844,0,1,0,0-1.688H57.22v-4.817a1.4,1.4,0,0,0-2.276-1.1l-16.076,12.78a1.4,1.4,0,0,0,0,2.2l16.076,12.781A1.4,1.4,0,0,0,55.815,158.352Z" transform="translate(-38.338 -129.982)"/>
      </g>
    </g>
    <rect id="Rectángulo_7820" data-name="Rectángulo 7820" width="98" height="92" transform="translate(485 1430)" fill="none"/>
  </g>
</svg>
