<svg xmlns="http://www.w3.org/2000/svg" width="153" height="153" viewBox="0 0 153 153">
  <g id="Grupo_72397" data-name="Grupo 72397" transform="translate(-938 -1812)">
    <g id="Trazado_127748" data-name="Trazado 127748" transform="translate(938 1812)" fill="#f3f095">
      <path d="M 76.5 151.5 C 66.37439727783203 151.5 56.5524787902832 149.5172271728516 47.30707931518555 145.6067352294922 C 42.86333847045898 143.7272033691406 38.57723999023438 141.4007568359375 34.56784057617188 138.6920623779297 C 30.59613990783691 136.0088348388672 26.86125946044922 132.9272766113281 23.46699905395508 129.5330047607422 C 20.07271957397461 126.1387405395508 16.99115943908691 122.4038619995117 14.30793952941895 118.4321594238281 C 11.59924030303955 114.4227600097656 9.272800445556641 110.1366577148438 7.39326000213623 105.6929168701172 C 3.482779979705811 96.44751739501953 1.5 86.62560272216797 1.5 76.5 C 1.5 66.37439727783203 3.482779979705811 56.5524787902832 7.39326000213623 47.30707931518555 C 9.272800445556641 42.86333847045898 11.59924030303955 38.57723999023438 14.30793952941895 34.56784057617188 C 16.99115943908691 30.59613990783691 20.07271957397461 26.86125946044922 23.46699905395508 23.46699905395508 C 26.86125946044922 20.07271957397461 30.59613990783691 16.99115943908691 34.56784057617188 14.30793952941895 C 38.57723999023438 11.59924030303955 42.86333847045898 9.272800445556641 47.30707931518555 7.39326000213623 C 56.5524787902832 3.482779979705811 66.37439727783203 1.5 76.5 1.5 C 86.62560272216797 1.5 96.44751739501953 3.482779979705811 105.6929168701172 7.39326000213623 C 110.1366577148438 9.272800445556641 114.4227600097656 11.59924030303955 118.4321594238281 14.30793952941895 C 122.4038619995117 16.99115943908691 126.1387405395508 20.07271957397461 129.5330047607422 23.46699905395508 C 132.9272766113281 26.86125946044922 136.0088348388672 30.59613990783691 138.6920623779297 34.56784057617188 C 141.4007568359375 38.57723999023438 143.7272033691406 42.86333847045898 145.6067352294922 47.30707931518555 C 149.5172271728516 56.5524787902832 151.5 66.37439727783203 151.5 76.5 C 151.5 86.62560272216797 149.5172271728516 96.44751739501953 145.6067352294922 105.6929168701172 C 143.7272033691406 110.1366577148438 141.4007568359375 114.4227600097656 138.6920623779297 118.4321594238281 C 136.0088348388672 122.4038619995117 132.9272766113281 126.1387405395508 129.5330047607422 129.5330047607422 C 126.1387405395508 132.9272766113281 122.4038619995117 136.0088348388672 118.4321594238281 138.6920623779297 C 114.4227600097656 141.4007568359375 110.1366577148438 143.7272033691406 105.6929168701172 145.6067352294922 C 96.44751739501953 149.5172271728516 86.62560272216797 151.5 76.5 151.5 Z" stroke="none"/>
      <path d="M 76.5 3 C 66.57624053955078 3 56.95091247558594 4.942916870117188 47.89141082763672 8.774765014648438 C 43.53687286376953 10.61656188964844 39.33669281005859 12.89639282226562 35.40754699707031 15.55087280273438 C 31.51495361328125 18.18064880371094 27.85441589355469 21.20089721679688 24.52764892578125 24.52764892578125 C 21.20089721679688 27.85441589355469 18.18064880371094 31.51495361328125 15.55087280273438 35.40754699707031 C 12.89639282226562 39.33669281005859 10.61656188964844 43.53687286376953 8.774765014648438 47.89141082763672 C 4.942916870117188 56.95091247558594 3 66.57624053955078 3 76.5 C 3 86.42375946044922 4.942916870117188 96.04908752441406 8.774765014648438 105.1085815429688 C 10.61656188964844 109.463134765625 12.89639282226562 113.6632995605469 15.55087280273438 117.5924530029297 C 18.18064880371094 121.4850463867188 21.20089721679688 125.1455841064453 24.52764892578125 128.4723510742188 C 27.85441589355469 131.7991027832031 31.51495361328125 134.8193511962891 35.40754699707031 137.4491271972656 C 39.33669281005859 140.1036071777344 43.53687286376953 142.3834381103516 47.89141082763672 144.2252349853516 C 56.95091247558594 148.0570831298828 66.57624053955078 150 76.5 150 C 86.42375946044922 150 96.04908752441406 148.0570831298828 105.1085815429688 144.2252349853516 C 109.463134765625 142.3834381103516 113.6632995605469 140.1036071777344 117.5924530029297 137.4491271972656 C 121.4850463867188 134.8193511962891 125.1455841064453 131.7991027832031 128.4723510742188 128.4723510742188 C 131.7991027832031 125.1455841064453 134.8193511962891 121.4850463867188 137.4491271972656 117.5924530029297 C 140.1036071777344 113.6632995605469 142.3834381103516 109.463134765625 144.2252349853516 105.1085815429688 C 148.0570831298828 96.04908752441406 150 86.42375946044922 150 76.5 C 150 66.57624053955078 148.0570831298828 56.95091247558594 144.2252349853516 47.89141082763672 C 142.3834381103516 43.53687286376953 140.1036071777344 39.33669281005859 137.4491271972656 35.40754699707031 C 134.8193511962891 31.51495361328125 131.7991027832031 27.85441589355469 128.4723510742188 24.52764892578125 C 125.1455841064453 21.20089721679688 121.4850463867188 18.18064880371094 117.5924530029297 15.55087280273438 C 113.6632995605469 12.89639282226562 109.463134765625 10.61656188964844 105.1085815429688 8.774765014648438 C 96.04908752441406 4.942916870117188 86.42375946044922 3 76.5 3 M 76.5 0 C 118.7497863769531 0 153 34.25021362304688 153 76.5 C 153 118.7497863769531 118.7497863769531 153 76.5 153 C 34.25021362304688 153 0 118.7497863769531 0 76.5 C 0 34.25021362304688 34.25021362304688 0 76.5 0 Z" stroke="none" fill="#fff"/>
    </g>
    <g id="Grupo_68499" data-name="Grupo 68499" transform="translate(55 -622)">
      <g id="Grupo_68492" data-name="Grupo 68492" transform="translate(154 -22)">
        <g id="Rectángulo_7791" data-name="Rectángulo 7791" transform="translate(766 2487.387)" fill="#529ad9" stroke="#fff" stroke-width="2">
          <rect width="77" height="77" rx="38.5" stroke="none"/>
          <rect x="1" y="1" width="75" height="75" rx="37.5" fill="none"/>
        </g>
        <g id="Grupo_68475" data-name="Grupo 68475" transform="translate(418 1165.387)">
          <g id="Elipse_4859" data-name="Elipse 4859" transform="translate(367 1303)" fill="#fff" stroke="#494b0f" stroke-width="2">
            <circle cx="19" cy="19" r="19" stroke="none"/>
            <circle cx="19" cy="19" r="18" fill="none"/>
          </g>
        </g>
        <path id="Trazado_130608" data-name="Trazado 130608" d="M9.561-5.557h1.445v2.539H9.561V0H6.27V-3.018H.771l-.2-2.012,5.693-9.16v-.029H9.561Zm-5.85,0H6.27V-9.932L6.064-9.6Z" transform="translate(799 2494)" fill="#12263f"/>
        <g id="Fill_Outline" data-name="Fill Outline" transform="translate(765.884 2508.662)">
          <g id="Color" transform="translate(3.22 3.22)">
            <path id="Trazado_127662" data-name="Trazado 127662" d="M12.882,22H61.7a4.882,4.882,0,0,1,4.882,4.882V62.274H8V26.882A4.882,4.882,0,0,1,12.882,22Z" transform="translate(-1.898 1.188)" fill="#e9f1f2"/>
            <path id="Trazado_127663" data-name="Trazado 127663" d="M39.731,41.527V22H12.882A4.882,4.882,0,0,0,8,26.882V61.053H66.58Z" transform="translate(-1.898 1.188)" fill="#d0d8da"/>
            <path id="Trazado_127664" data-name="Trazado 127664" d="M73.784,53v4.882A4.882,4.882,0,0,1,68.9,62.763H7.882A4.882,4.882,0,0,1,3,57.882V53H31.07v2.441H45.715V53Z" transform="translate(-3 8.021)" fill="#93999a"/>
            <path id="Trazado_127665" data-name="Trazado 127665" d="M73.625,59.1A4.872,4.872,0,0,1,68.9,62.763H7.882A4.882,4.882,0,0,1,3,57.882V53H9.1v1.22A4.882,4.882,0,0,0,13.984,59.1Z" transform="translate(-3 8.021)" fill="#656b76"/>
            <rect id="Rectángulo_7792" data-name="Rectángulo 7792" width="21.967" height="19.527" rx="2" transform="translate(43.935 7.322)" fill="#fff"/>
            <path id="Trazado_127666" data-name="Trazado 127666" d="M60.967,24.865v1.22a2.448,2.448,0,0,1-2.441,2.441H41.441A2.448,2.448,0,0,1,39,26.086V11.441A2.448,2.448,0,0,1,41.441,9h1.22v1.22A14.645,14.645,0,0,0,57.306,24.865Z" transform="translate(4.935 -1.678)" fill="#f4e0df"/>
            <path id="Trazado_127667" data-name="Trazado 127667" d="M43,14h7.322v7.322H43Z" transform="translate(5.817 -0.575)" fill="#ffea00"/>
            <path id="Trazado_127668" data-name="Trazado 127668" d="M53.882,21.322,49,18.882V16.441L53.882,14Z" transform="translate(7.139 -0.575)" fill="#ffea00"/>
            <path id="Trazado_127669" data-name="Trazado 127669" d="M50.322,18.882v2.441H43V14h2.441v1.22A3.661,3.661,0,0,0,49.1,18.882Z" transform="translate(5.817 -0.575)" fill="#ffd000"/>
            <path id="Trazado_127670" data-name="Trazado 127670" d="M53.882,19.166V21L49,18.555V16.115l1.257-.635A3.935,3.935,0,0,0,52.4,18.421Z" transform="translate(7.139 -0.249)" fill="#ffd000"/>
            <path id="Trazado_127671" data-name="Trazado 127671" d="M48.333,21.144H43V14.81a14.734,14.734,0,0,0,5.333,6.334Z" transform="translate(5.817 -0.397)" fill="#ffb700"/>
            <rect id="Rectángulo_7793" data-name="Rectángulo 7793" width="34.172" height="29.29" rx="4" transform="translate(0 17.086)" fill="#f7f5ed"/>
            <path id="Trazado_127672" data-name="Trazado 127672" d="M37.172,40.188v1.22A4.882,4.882,0,0,1,32.29,46.29H7.882A4.882,4.882,0,0,1,3,41.408V21.882A4.882,4.882,0,0,1,7.882,17h3.661v3.661A19.527,19.527,0,0,0,31.07,40.188Z" transform="translate(-3 0.086)" fill="#e5dec1"/>
            <path id="Trazado_127673" data-name="Trazado 127673" d="M27.2,21H17.441A2.441,2.441,0,0,0,15,23.441v4.882a2.441,2.441,0,0,0,2.441,2.441h4.882L27.2,35.645V30.763a2.441,2.441,0,0,0,2.441-2.441V23.441A2.441,2.441,0,0,0,27.2,21Z" transform="translate(-0.355 0.967)" fill="#ff7373"/>
            <path id="Trazado_127674" data-name="Trazado 127674" d="M29.645,27.1v1.22A2.448,2.448,0,0,1,27.2,30.763v4.882l-4.882-4.882H17.441A2.448,2.448,0,0,1,15,28.322V23.441A2.448,2.448,0,0,1,17.441,21h1.33a7.31,7.31,0,0,0,7.213,6.1Z" transform="translate(-0.355 0.967)" fill="#ef5350"/>
            <path id="Trazado_127675" data-name="Trazado 127675" d="M9.441,25H19.2a2.441,2.441,0,0,1,2.441,2.441v4.882A2.441,2.441,0,0,1,19.2,34.763H14.322L9.441,39.645V34.763A2.441,2.441,0,0,1,7,32.322V27.441A2.441,2.441,0,0,1,9.441,25Z" transform="translate(-2.118 1.849)" fill="#ffea00"/>
            <path id="Trazado_127676" data-name="Trazado 127676" d="M21.645,32.322A2.448,2.448,0,0,1,19.2,34.763H14.322L9.441,39.645V34.763A2.448,2.448,0,0,1,7,32.322V27.441A2.448,2.448,0,0,1,9.441,25H13.2a8.517,8.517,0,0,0,8.445,7.322Z" transform="translate(-2.118 1.849)" fill="#ffd000"/>
            <path id="Trazado_127677" data-name="Trazado 127677" d="M18.789,34.763H14.322L9.441,39.645V34.763A2.448,2.448,0,0,1,7,32.322V27.441A2.448,2.448,0,0,1,9.441,25h2.2a19.517,19.517,0,0,0,7.152,9.763Z" transform="translate(-2.118 1.849)" fill="#ffb700"/>
            <path id="Trazado_127714" data-name="Trazado 127714" d="M14.645,0A14.645,14.645,0,1,1,0,14.645,14.645,14.645,0,0,1,14.645,0Z" transform="translate(41.494 31.731)" fill="#f7f5ed"/>
            <path id="Trazado_127678" data-name="Trazado 127678" d="M64.6,50.185A14.279,14.279,0,0,1,62.008,53.7,14.653,14.653,0,1,1,41.285,32.977,14.279,14.279,0,0,1,44.8,30.39a14.645,14.645,0,0,0,19.8,19.8Z" transform="translate(4.493 3.037)" fill="#e5dec1"/>
            <path id="Trazado_127679" data-name="Trazado 127679" d="M56.323,46.053a2.963,2.963,0,0,0-3.03-.716l-2.01.671a2.441,2.441,0,0,1-2.5-.589L47.465,44.1a2.441,2.441,0,0,1-.589-2.5l.671-2.01a2.961,2.961,0,0,0-5.5-2.161,8.88,8.88,0,0,0,1.805,9.955L45.5,49.036a8.88,8.88,0,0,0,9.955,1.8,2.96,2.96,0,0,0,.869-4.788Z" transform="translate(5.43 4.206)" fill="#ffea00"/>
            <path id="Trazado_127680" data-name="Trazado 127680" d="M55.763,50.419a2.621,2.621,0,0,1-.317.171A8.888,8.888,0,0,1,45.5,48.783l-1.66-1.66a8.9,8.9,0,0,1-2.6-6.285,8.8,8.8,0,0,1,.793-3.661,2.621,2.621,0,0,1,.171-.317A14.624,14.624,0,0,0,55.763,50.419Z" transform="translate(5.429 4.463)" fill="#ffd000"/>
            <path id="Trazado_127681" data-name="Trazado 127681" d="M13,3H30.086V15.2H13Z" transform="translate(-0.796 -3)" fill="#ffd000"/>
            <path id="Trazado_127682" data-name="Trazado 127682" d="M20.322,12.763,13,3H30.086Z" transform="translate(-0.796 -3)" fill="#ffb700"/>
            <path id="Trazado_127683" data-name="Trazado 127683" d="M30.086,12.763V15.2H13V3h2.441V5.441a7.322,7.322,0,0,0,7.322,7.322Z" transform="translate(-0.796 -3)" fill="#ffb700"/>
            <path id="Trazado_127684" data-name="Trazado 127684" d="M21.543,10.322,13,3H30.086Z" transform="translate(-0.796 -3)" fill="#ffea00"/>
            <path id="Trazado_127685" data-name="Trazado 127685" d="M21.543,10.322,13,3h6.1a6.245,6.245,0,0,0,1.508,6.39Z" transform="translate(-0.796 -3)" fill="#ffd000"/>
            <path id="Trazado_127686" data-name="Trazado 127686" d="M23.721,53.961a2.319,2.319,0,0,1-2.695-.273L16.5,49.674l4.228-2.441,3.371,2.99a2.319,2.319,0,0,1-.377,3.738Z" transform="translate(-0.024 6.75)" fill="#ffd000"/>
            <path id="Trazado_127687" data-name="Trazado 127687" d="M23.725,53.967a2.341,2.341,0,0,1-2.7-.281L16.5,49.671l4.223-2.441,1.416,1.245-2.465.586L19,49.451l2.026,1.794a2.341,2.341,0,0,0,2.7.281,2.186,2.186,0,0,0,.805-.793,2.319,2.319,0,0,1-.805,3.234Z" transform="translate(-0.024 6.749)" fill="#ffb700"/>
            <path id="Trazado_127688" data-name="Trazado 127688" d="M3.661,0H7.322V7.322H3.661A3.661,3.661,0,1,1,3.661,0Z" transform="matrix(0.866, -0.5, 0.5, 0.866, 9.643, 51.911)" fill="#ff7373"/>
            <path id="Trazado_127689" data-name="Trazado 127689" d="M32.16,47.622l-12.4,2.931L16.1,44.212l8.738-9.273Z" transform="translate(-0.113 4.04)" fill="#ffea00"/>
            <path id="Trazado_127690" data-name="Trazado 127690" d="M32.161,46.362l-12.4,2.929L16.1,42.957l2.172-2.307a9.834,9.834,0,0,0,9.837,3.3l2.343-.549Z" transform="translate(-0.113 5.299)" fill="#ffd000"/>
            <path id="Trazado_127691" data-name="Trazado 127691" d="M20.665,48.874,17.492,50.7A3.651,3.651,0,0,1,12,47.556a3.481,3.481,0,0,1,.22-1.22,2.9,2.9,0,0,0,.268.6,3.661,3.661,0,0,0,5,1.33l1.2-.683-2.6-4.516L17,42.54Z" transform="translate(-1.016 5.715)" fill="#ef5350"/>
          </g>
          <g id="Outline_copy" data-name="Outline copy" transform="translate(2 2)">
            <path id="Trazado_127692" data-name="Trazado 127692" d="M74,61.7H67.793A15.784,15.784,0,0,0,74.22,42.749a1.221,1.221,0,0,0-2.288.854,13.405,13.405,0,1,1-3.08-4.816c.3.3.583.619.854.941a1.22,1.22,0,1,0,1.876-1.561c-.316-.379-.647-.75-1-1.106a15.8,15.8,0,0,0-1.457-1.279V29.016a3.643,3.643,0,0,0,1.22-2.709V11.661A3.661,3.661,0,0,0,66.682,8H63.021a1.22,1.22,0,1,0,0,2.441h3.661a1.22,1.22,0,0,1,1.22,1.22V26.306a1.22,1.22,0,0,1-1.22,1.22H49.6a1.22,1.22,0,0,1-1.22-1.22V11.661a1.22,1.22,0,0,1,1.22-1.22h8.543a1.22,1.22,0,0,0,0-2.441H49.6a3.661,3.661,0,0,0-3.661,3.661v12.2H38.612a6.109,6.109,0,0,0-6.1-6.1H8.1a6.109,6.109,0,0,0-6.1,6.1v1.22a1.22,1.22,0,1,0,2.441,0v-1.22A3.661,3.661,0,0,1,8.1,20.2H32.51a3.661,3.661,0,0,1,3.661,3.661V43.392A3.653,3.653,0,0,1,32.9,47.014L29,40.267a1.22,1.22,0,0,0-1.945-.227l-6.61,7.014H8.1a3.661,3.661,0,0,1-3.661-3.661V29.967a1.22,1.22,0,1,0-2.441,0V43.392a6.109,6.109,0,0,0,6.1,6.1V61.7H3.22A1.22,1.22,0,0,0,2,62.919V67.8a6.109,6.109,0,0,0,6.1,6.1h6.1a1.22,1.22,0,0,0,0-2.441H8.1A3.661,3.661,0,0,1,4.441,67.8V64.139H30.07v1.22a1.22,1.22,0,0,0,1.22,1.22H45.935a1.22,1.22,0,0,0,1.22-1.22v-1.22H72.784V67.8a3.661,3.661,0,0,1-3.661,3.661H19.086a1.22,1.22,0,0,0,0,2.441H69.123a6.109,6.109,0,0,0,6.1-6.1V62.919A1.22,1.22,0,0,0,74,61.7ZM27.707,42.9l5.683,9.841-9.92,2.346-2.753-4.768Zm-1.22,16.877a1.095,1.095,0,1,1-1.454,1.638l-3.262-2.886,1.55-.895.586-.139Zm-7.728-7.968,1.22,2.114L21.2,56.04l-2.113,1.22a2.441,2.441,0,1,1-2.442-4.228Zm-8.216-2.319H17.9l-2.476,1.429a4.885,4.885,0,0,0,2.448,9.112,4.822,4.822,0,0,0,1.6-.282l2.2,1.945H10.543ZM45.935,61.7a1.22,1.22,0,0,0-1.22,1.22v1.22H32.51v-1.22a1.22,1.22,0,0,0-1.22-1.22H29.114a3.715,3.715,0,0,0,.164-.74,3.5,3.5,0,0,0-1.172-3l-1.291-1.141,8.733-2.065a1.22,1.22,0,0,0,.776-1.8l-2.145-3.717a6.091,6.091,0,0,0,4.434-5.845V26.306h7.322A3.661,3.661,0,0,0,49.6,29.967H66.682V34.2A15.857,15.857,0,0,0,50.926,61.7Z" transform="translate(-2 -0.678)" fill="#323232"/>
            <circle id="Elipse_4890" data-name="Elipse 4890" cx="1.22" cy="1.22" r="1.22" transform="translate(6.102 65.902)" fill="#323232"/>
            <circle id="Elipse_4891" data-name="Elipse 4891" cx="1.22" cy="1.22" r="1.22" transform="translate(10.984 65.902)" fill="#323232"/>
            <circle id="Elipse_4892" data-name="Elipse 4892" cx="1.22" cy="1.22" r="1.22" transform="translate(58.58 65.902)" fill="#323232"/>
            <circle id="Elipse_4893" data-name="Elipse 4893" cx="1.22" cy="1.22" r="1.22" transform="translate(63.462 65.902)" fill="#323232"/>
            <path id="Trazado_127693" data-name="Trazado 127693" d="M43.22,13A1.22,1.22,0,0,0,42,14.221v7.322a1.22,1.22,0,0,0,1.22,1.22h7.322a1.22,1.22,0,0,0,1.22-1.22v-.466l3.116,1.565a1.22,1.22,0,0,0,1.766-1.1V14.221a1.22,1.22,0,0,0-1.766-1.092l-3.116,1.558v-.466A1.22,1.22,0,0,0,50.543,13Zm6.1,7.322H44.441V15.441h4.882ZM54.2,16.2v3.373l-2.441-1.22v-.932Z" transform="translate(6.817 0.424)" fill="#323232"/>
            <path id="Trazado_127694" data-name="Trazado 127694" d="M6,28.543v4.882a3.669,3.669,0,0,0,2.441,3.453v3.87a1.22,1.22,0,0,0,2.083.863l4.524-4.524h4.376a3.661,3.661,0,0,0,3.661-3.661V32.2H23.8l4.524,4.524a1.22,1.22,0,0,0,2.083-.863V32a3.669,3.669,0,0,0,2.441-3.453V23.661A3.661,3.661,0,0,0,29.188,20H19.425a3.661,3.661,0,0,0-3.661,3.661v1.22h-6.1A3.661,3.661,0,0,0,6,28.543Zm12.2-4.882a1.22,1.22,0,0,1,1.22-1.22h9.763a1.22,1.22,0,0,1,1.22,1.22v4.882a1.22,1.22,0,0,1-1.22,1.22,1.22,1.22,0,0,0-1.22,1.22v1.936l-2.8-2.8a1.22,1.22,0,0,0-.863-.358h-1.22v-1.22a3.661,3.661,0,0,0-3.661-3.661H18.2ZM8.441,28.543a1.22,1.22,0,0,1,1.22-1.22h9.763a1.22,1.22,0,0,1,1.22,1.22v4.882a1.22,1.22,0,0,1-1.22,1.22H14.543A1.22,1.22,0,0,0,13.68,35l-2.8,2.8V35.865a1.22,1.22,0,0,0-1.22-1.22,1.22,1.22,0,0,1-1.22-1.22Z" transform="translate(-1.118 1.967)" fill="#323232"/>
            <path id="Trazado_127695" data-name="Trazado 127695" d="M11.882,22.441a1.22,1.22,0,0,0,0-2.441H8.22a1.22,1.22,0,1,0,0,2.441Z" transform="translate(-0.898 1.967)" fill="#323232"/>
            <path id="Trazado_127696" data-name="Trazado 127696" d="M48.919,40.193a4.181,4.181,0,0,0-7.773-3.051A10.148,10.148,0,0,0,43.2,48.465l1.651,1.651a10.144,10.144,0,0,0,11.325,2.056A4.181,4.181,0,0,0,53.126,44.4l-2.011.671a1.213,1.213,0,0,1-1.248-.294l-1.318-1.319a1.211,1.211,0,0,1-.294-1.248Zm2.964,7.187,2.011-.67a1.743,1.743,0,0,1,1.269,3.246A7.7,7.7,0,0,1,46.577,48.4l-1.651-1.651a7.7,7.7,0,0,1-1.557-8.587,1.72,1.72,0,0,1,1.274-.993,1.894,1.894,0,0,1,.319-.028A1.74,1.74,0,0,1,46.6,39.431l-.67,2.011a3.64,3.64,0,0,0,.886,3.745l1.318,1.318a3.634,3.634,0,0,0,3.747.879Z" transform="translate(6.431 5.206)" fill="#323232"/>
            <path id="Trazado_127697" data-name="Trazado 127697" d="M49.927,39.734a1.22,1.22,0,0,1,1.22,1.22,1.22,1.22,0,0,0,2.441,0,3.661,3.661,0,0,0-3.661-3.661,1.22,1.22,0,1,0,0,2.441Z" transform="translate(8.295 5.779)" fill="#323232"/>
            <path id="Trazado_127698" data-name="Trazado 127698" d="M58.47,41.836a8.553,8.553,0,0,0-8.543-8.543,1.22,1.22,0,1,0,0,2.441,6.109,6.109,0,0,1,6.1,6.1,1.22,1.22,0,1,0,2.441,0Z" transform="translate(8.295 4.897)" fill="#323232"/>
            <path id="Trazado_127699" data-name="Trazado 127699" d="M13.22,16.645H30.306a1.22,1.22,0,0,0,1.22-1.22V3.22A1.22,1.22,0,0,0,30.306,2H13.22A1.22,1.22,0,0,0,12,3.22v12.2A1.22,1.22,0,0,0,13.22,16.645Zm1.22-2.441V5.874l6.529,5.6a1.22,1.22,0,0,0,1.587,0l6.529-5.6V14.2Zm2.075-9.763h10.5L21.763,8.936Z" transform="translate(0.204 -2)" fill="#323232"/>
          </g>
        </g>
      </g>
      <rect id="Rectángulo_7798" data-name="Rectángulo 7798" width="96" height="124" transform="translate(910 2442)" fill="none"/>
    </g>
  </g>
</svg>
