<svg xmlns="http://www.w3.org/2000/svg" width="98" height="92" viewBox="0 0 98 92">
  <g id="Grupo_68970" data-name="Grupo 68970" transform="translate(-485 -1832)">
    <g id="signo-de-interrogacion" transform="translate(508.989 1853.1)">
      <g id="Grupo_68933" data-name="Grupo 68933" transform="translate(0.931 0.925)">
        <path id="Trazado_127827" data-name="Trazado 127827" d="M192.406,143.119a2.2,2.2,0,0,0,2.2-2.2,3.432,3.432,0,0,1,1.6-2.615c1.558-1.349,3.112-2.694,3.112-5.886a6.913,6.913,0,0,0-13.591-1.789,2.2,2.2,0,1,0,4.261,1.118,2.509,2.509,0,0,1,4.926.672,3.389,3.389,0,0,1-1.581,2.566c-1.563,1.353-3.13,2.709-3.13,5.935a2.2,2.2,0,0,0,2.2,2.2Z" transform="translate(-168.501 -114.204)" fill="#fff" fill-rule="evenodd"/>
        <path id="Trazado_127828" data-name="Trazado 127828" d="M236.919,342.487a2.2,2.2,0,1,0-2.2,2.2A2.2,2.2,0,0,0,236.919,342.487Z" transform="translate(-210.813 -308.067)" fill="#fff" fill-rule="evenodd"/>
        <path id="Trazado_127829" data-name="Trazado 127829" d="M69.794,77.824a2.2,2.2,0,1,1-2.2,2.2A2.2,2.2,0,0,1,69.794,77.824Zm3.8-8.12A3.432,3.432,0,0,0,72,72.319a2.2,2.2,0,1,1-4.4,0c0-3.226,1.567-4.582,3.13-5.935A3.389,3.389,0,0,0,72.3,63.818a2.509,2.509,0,0,0-4.926-.672,2.2,2.2,0,1,1-4.261-1.118,6.913,6.913,0,0,1,13.591,1.789c0,3.193-1.554,4.538-3.112,5.887ZM49.81,69.567A20.064,20.064,0,0,0,69.874,89.63c26.585-.984,26.578-39.148,0-40.127A20.063,20.063,0,0,0,49.81,69.567Z" transform="translate(-45.89 -45.606)" fill="#529ad9" fill-rule="evenodd"/>
        <path id="Trazado_127830" data-name="Trazado 127830" d="M53.606,33.451A20.064,20.064,0,0,1,33.543,53.514c-26.585-.984-26.578-39.148,0-40.127A20.063,20.063,0,0,1,53.606,33.451ZM21.035,53.889C36.626,63.677,57.694,52.005,57.5,33.45A23.959,23.959,0,0,0,33.543,9.491C14.989,9.3,3.316,30.366,13.1,45.957q-1.036,3.859-2.071,7.721a1.866,1.866,0,0,0,2.305,2.274l7.7-2.064Z" transform="translate(-9.559 -9.49)" fill="#f8e3ee" fill-rule="evenodd"/>
      </g>
      <g id="Grupo_68934" data-name="Grupo 68934" transform="translate(0 0.001)">
        <path id="Trazado_127831" data-name="Trazado 127831" d="M42.546,7.255c-9.282-9.672-25.98-9.673-35.261,0A25.027,25.027,0,0,0,3.428,37.54q-.982,3.66-1.964,7.323a2.848,2.848,0,0,0,3.5,3.464l7.29-1.955a25.028,25.028,0,0,0,30.286-3.856C52.218,33.236,52.218,16.536,42.546,7.255ZM24.915,47.872a22.936,22.936,0,0,1-12-3.378.974.974,0,0,0-.762-.11l-.114.03L4.459,46.447l-.012,0a.881.881,0,0,1-.866-.228.869.869,0,0,1-.234-.857Q4.381,41.5,5.417,37.645a.974.974,0,0,0-.11-.762C-4.117,21.938,7.223,1.674,24.915,1.9,55.365,3.055,55.359,46.72,24.915,47.872Z" transform="translate(0 -0.001)"/>
        <path id="Trazado_127832" data-name="Trazado 127832" d="M75.553,45.839a21.12,21.12,0,0,0-26.169-2.876.974.974,0,0,0,1.047,1.643c12.393-8.124,29.528,1.27,29.335,16.109A19.111,19.111,0,0,1,60.678,79.8c-14.838.191-24.234-16.941-16.11-29.335a.974.974,0,0,0-1.643-1.047C34.014,63.263,44.2,81.857,60.678,81.752c18.673-.017,28.067-22.7,14.876-35.913Z" transform="translate(-35.763 -35.83)"/>
        <path id="Trazado_127833" data-name="Trazado 127833" d="M187.818,130.011a7.925,7.925,0,1,0-12.057-8.664,3.176,3.176,0,1,0,6.142,1.623,1.536,1.536,0,0,1,3.011.419c0,.718-.45,1.142-1.244,1.83-1.625,1.406-3.466,3-3.466,6.671a3.176,3.176,0,1,0,6.352,0C186.556,131.14,187.012,130.709,187.818,130.011Zm-3.21,1.878a1.228,1.228,0,1,1-2.456,0c0-2.781,1.295-3.9,2.793-5.2a4.283,4.283,0,0,0,1.917-3.3,3.483,3.483,0,0,0-6.839-.932l0,.018a1.228,1.228,0,1,1-2.376-.624,5.939,5.939,0,0,1,11.676,1.538c0,2.747-1.286,3.861-2.775,5.15a4.327,4.327,0,0,0-1.935,3.351Z" transform="translate(-158.545 -104.253)"/>
        <path id="Trazado_127834" data-name="Trazado 127834" d="M225.561,330.285a3.176,3.176,0,1,0,3.176,3.176A3.18,3.18,0,0,0,225.561,330.285Zm0,4.4a1.228,1.228,0,1,1,1.228-1.228A1.229,1.229,0,0,1,225.561,334.689Z" transform="translate(-200.726 -298.117)"/>
        <path id="Trazado_127835" data-name="Trazado 127835" d="M101.115,101.788a.974.974,0,1,0-.717-1.632h0a.974.974,0,0,0,.718,1.632Z" transform="translate(-90.388 -90.116)"/>
      </g>
    </g>
    <rect id="Rectángulo_7822" data-name="Rectángulo 7822" width="98" height="92" transform="translate(485 1832)" fill="none"/>
  </g>
</svg>
