<svg xmlns="http://www.w3.org/2000/svg" width="87" height="87" viewBox="0 0 87 87">
  <g id="Grupo_72402" data-name="Grupo 72402" transform="translate(-240 -2885)">
    <g id="charla" transform="translate(250 2889.94)">
      <g id="Grupo_69089" data-name="Grupo 69089" transform="translate(1.003 38.688)">
        <g id="Grupo_69085" data-name="Grupo 69085" transform="translate(4.595)">
          <circle id="Elipse_5196" data-name="Elipse 5196" cx="6.757" cy="6.757" r="6.757" fill="#f1d0a5"/>
        </g>
        <g id="Grupo_69086" data-name="Grupo 69086" transform="translate(5.491 0.896)">
          <path id="Trazado_128010" data-name="Trazado 128010" d="M57.766,256.637a6.756,6.756,0,0,1-9.222,9.222,6.757,6.757,0,1,0,9.222-9.222Z" transform="translate(-48.544 -256.637)" fill="#f1b986"/>
        </g>
        <g id="Grupo_69087" data-name="Grupo 69087" transform="translate(0 13.515)">
          <path id="Trazado_128011" data-name="Trazado 128011" d="M7.5,356.362v5.947H30.2v-5.947a5.406,5.406,0,0,0-5.406-5.406H12.906A5.406,5.406,0,0,0,7.5,356.362Z" transform="translate(-7.5 -350.956)" fill="#f6e266"/>
        </g>
        <g id="Grupo_69088" data-name="Grupo 69088" transform="translate(14.055 13.515)">
          <path id="Trazado_128012" data-name="Trazado 128012" d="M115.8,350.955h-3.244a5.406,5.406,0,0,1,5.406,5.406v5.947h3.244v-5.947A5.406,5.406,0,0,0,115.8,350.955Z" transform="translate(-112.557 -350.955)" fill="#f1d333"/>
        </g>
      </g>
      <g id="Grupo_69090" data-name="Grupo 69090" transform="translate(1.003 7.064)">
        <path id="Trazado_128013" data-name="Trazado 128013" d="M10.2,13.561H42.639a2.7,2.7,0,0,1,2.7,2.7V37.888a2.7,2.7,0,0,1-2.7,2.7H34.8L29.394,46V40.591H10.2a2.7,2.7,0,0,1-2.7-2.7V16.264a2.7,2.7,0,0,1,2.7-2.7Z" transform="translate(-7.5 -13.561)" fill="#c8ea73"/>
      </g>
      <g id="Grupo_69091" data-name="Grupo 69091" transform="translate(26.682 12.469)">
        <path id="Trazado_128014" data-name="Trazado 128014" d="M205.107,53.967a5.683,5.683,0,0,0-5.676,5.676V77.213l1.622-1.622h7.839a2.7,2.7,0,0,0,2.7-2.7V53.967Z" transform="translate(-199.431 -53.967)" fill="#b7e445"/>
      </g>
      <g id="Grupo_69096" data-name="Grupo 69096" transform="translate(44.792 47.068)">
        <g id="Grupo_69092" data-name="Grupo 69092" transform="translate(4.595 0)">
          <circle id="Elipse_5197" data-name="Elipse 5197" cx="6.757" cy="6.757" r="6.757" fill="#f1d0a5"/>
        </g>
        <g id="Grupo_69093" data-name="Grupo 69093" transform="translate(5.491 0.896)">
          <path id="Trazado_128015" data-name="Trazado 128015" d="M385.058,319.267a6.756,6.756,0,0,1-9.222,9.222,6.757,6.757,0,1,0,9.222-9.222Z" transform="translate(-375.836 -319.267)" fill="#f1b986"/>
        </g>
        <g id="Grupo_69094" data-name="Grupo 69094" transform="translate(0 13.515)">
          <path id="Trazado_128016" data-name="Trazado 128016" d="M334.793,418.991v5.947h22.7v-5.947a5.406,5.406,0,0,0-5.406-5.406H340.2A5.406,5.406,0,0,0,334.793,418.991Z" transform="translate(-334.793 -413.585)" fill="#4073c8"/>
        </g>
        <g id="Grupo_69095" data-name="Grupo 69095" transform="translate(14.055 13.515)">
          <path id="Trazado_128017" data-name="Trazado 128017" d="M443.093,413.585H439.85a5.406,5.406,0,0,1,5.406,5.406v5.947H448.5v-5.947A5.406,5.406,0,0,0,443.093,413.585Z" transform="translate(-439.85 -413.585)" fill="#30579d"/>
        </g>
      </g>
      <g id="Grupo_69097" data-name="Grupo 69097" transform="translate(29.655 15.443)">
        <path id="Trazado_128018" data-name="Trazado 128018" d="M256.794,76.191H224.358a2.7,2.7,0,0,0-2.7,2.7v21.624a2.7,2.7,0,0,0,2.7,2.7H232.2l5.406,5.406v-5.406h19.191a2.7,2.7,0,0,0,2.7-2.7V78.894A2.7,2.7,0,0,0,256.794,76.191Z" transform="translate(-221.655 -76.191)" fill="#ecf4ff"/>
      </g>
      <g id="Grupo_69098" data-name="Grupo 69098" transform="translate(60.739 15.443)">
        <path id="Trazado_128019" data-name="Trazado 128019" d="M458.046,76.191h-4.054a2.7,2.7,0,0,1,2.7,2.7v21.624a2.7,2.7,0,0,1-2.7,2.7h4.054a2.7,2.7,0,0,0,2.7-2.7V78.894A2.7,2.7,0,0,0,458.046,76.191Z" transform="translate(-453.992 -76.191)" fill="#cbe2ff"/>
      </g>
      <g id="Grupo_69099" data-name="Grupo 69099" transform="translate(0 6.06)">
        <path id="Trazado_128020" data-name="Trazado 128020" d="M18.3,255.954h-.745a7.761,7.761,0,1,0-10.4,0H6.409A6.417,6.417,0,0,0,0,262.363v5.947a1,1,0,0,0,1,1h22.7a1,1,0,0,0,1-1v-5.947A6.417,6.417,0,0,0,18.3,255.954ZM6.6,250.2a5.754,5.754,0,1,1,5.754,5.754A5.76,5.76,0,0,1,6.6,250.2Zm16.1,17.107H19.036v-1.7a1,1,0,1,0-2.007,0v1.7H7.683v-1.7a1,1,0,1,0-2.007,0v1.7H2.007v-4.943a4.408,4.408,0,0,1,4.4-4.4H18.3a4.407,4.407,0,0,1,4.4,4.4Z" transform="translate(0 -210.814)"/>
        <path id="Trazado_128021" data-name="Trazado 128021" d="M345.592,318.585h-.745a7.761,7.761,0,1,0-10.4,0H333.7a6.416,6.416,0,0,0-6.41,6.409v5.947a1,1,0,0,0,1,1H337.3a1,1,0,1,0,0-2.007h-2.332v-1.7a1,1,0,0,0-2.007,0v1.7H329.3v-4.944a4.407,4.407,0,0,1,4.4-4.4h11.893a4.407,4.407,0,0,1,4.4,4.4v4.944h-3.669v-1.7a1,1,0,1,0-2.007,0v1.7h-2.331a1,1,0,1,0,0,2.007H351a1,1,0,0,0,1-1v-5.947A6.416,6.416,0,0,0,345.592,318.585Zm-11.7-5.755a5.754,5.754,0,1,1,5.754,5.754A5.761,5.761,0,0,1,333.892,312.83Z" transform="translate(-283.501 -265.065)"/>
        <path id="Trazado_128022" data-name="Trazado 128022" d="M64.794,14.439H53.007a1,1,0,0,0,0,2.007H64.794a1.7,1.7,0,0,1,1.7,1.7V39.77a1.7,1.7,0,0,1-1.7,1.7H45.6a1,1,0,0,0-1,1v2.983l-3.692-3.693a1,1,0,0,0-.71-.294H32.358a1.7,1.7,0,0,1-1.7-1.7V18.145a1.7,1.7,0,0,1,1.7-1.7H48.325a1,1,0,0,0,0-2.007H39.849V9.766A3.711,3.711,0,0,0,36.142,6.06H3.706A3.71,3.71,0,0,0,0,9.766V31.39A3.71,3.71,0,0,0,3.706,35.1H9.334a1,1,0,1,0,0-2.007H3.706a1.7,1.7,0,0,1-1.7-1.7V9.766a1.7,1.7,0,0,1,1.7-1.7H36.142a1.7,1.7,0,0,1,1.7,1.7v4.673H32.358a3.711,3.711,0,0,0-3.707,3.706V33.089H28.3a1,1,0,0,0-.71.294L23.9,37.076V34.093a1,1,0,0,0-1-1H14.017a1,1,0,1,0,0,2.007h7.878v4.4a1,1,0,0,0,1.713.709l5.043-5.045V39.77a3.711,3.711,0,0,0,3.707,3.706h7.423l5.111,5.112a1,1,0,0,0,1.713-.709v-4.4H64.794A3.71,3.71,0,0,0,68.5,39.769V18.145a3.71,3.71,0,0,0-3.706-3.706Z" transform="translate(0 -6.06)"/>
      </g>
    </g>
    <rect id="Rectángulo_7972" data-name="Rectángulo 7972" width="87" height="87" transform="translate(240 2885)" fill="none"/>
  </g>
</svg>
