<svg xmlns="http://www.w3.org/2000/svg" width="98" height="92" viewBox="0 0 98 92">
  <g id="Grupo_68969" data-name="Grupo 68969" transform="translate(-485 -1630)">
    <g id="Layer_2" transform="translate(494.746 1636.746)">
      <g id="Grupo_68932" data-name="Grupo 68932" transform="translate(0 0)">
        <g id="Grupo_68851" data-name="Grupo 68851" transform="translate(9.566 23.713)">
          <path id="Trazado_127756" data-name="Trazado 127756" d="M31.893,80.284h.712V81a.978.978,0,0,0,.991.991.992.992,0,0,0,.991-.96v-.743H35.3a.978.978,0,0,0,.991-.991.992.992,0,0,0-.96-.991h-.743v-.712A.978.978,0,0,0,33.6,76.6a.992.992,0,0,0-.991.96V78.3h-.712a.978.978,0,0,0-.991.991.959.959,0,0,0,.991.991h0Z" transform="translate(-30.901 -76.6)" fill="#70d6f9"/>
        </g>
        <g id="Grupo_68852" data-name="Grupo 68852" transform="translate(4.986 33.495)">
          <circle id="Elipse_5186" data-name="Elipse 5186" cx="1.053" cy="1.053" r="1.053" fill="#f5c84c"/>
        </g>
        <g id="Grupo_68853" data-name="Grupo 68853" transform="translate(59.47)">
          <circle id="Elipse_5187" data-name="Elipse 5187" cx="1.053" cy="1.053" r="1.053" fill="#87d147"/>
        </g>
        <g id="Grupo_68854" data-name="Grupo 68854" transform="translate(40.713 75.334)">
          <path id="Trazado_127757" data-name="Trazado 127757" d="M135.468,245.262a2.413,2.413,0,0,1-1.919-1.888c0-.031-.093-.031-.093,0a2.413,2.413,0,0,1-1.919,1.888c-.031,0-.031.062,0,.093a2.413,2.413,0,0,1,1.919,1.888c0,.031.093.031.093,0a2.413,2.413,0,0,1,1.919-1.888C135.5,245.323,135.5,245.262,135.468,245.262Z" transform="translate(-131.513 -243.35)" fill="#fc657e"/>
        </g>
        <g id="Grupo_68855" data-name="Grupo 68855" transform="translate(61.585 7.228)">
          <path id="Trazado_127758" data-name="Trazado 127758" d="M198.984,26.09A3.435,3.435,0,0,0,201.74,23.4c0-.062.124-.062.124,0a3.435,3.435,0,0,0,2.755,2.693c.062,0,.062.093,0,.124a3.435,3.435,0,0,0-2.755,2.693c0,.062-.124.062-.124,0a3.435,3.435,0,0,0-2.755-2.693C198.923,26.183,198.923,26.09,198.984,26.09Z" transform="translate(-198.938 -23.35)" fill="#f5c84c"/>
        </g>
        <g id="Grupo_68856" data-name="Grupo 68856" transform="translate(0.774 42.922)">
          <path id="Trazado_127759" data-name="Trazado 127759" d="M35.832,138.649H5.607A3.116,3.116,0,0,0,2.5,141.756v20.972a3.116,3.116,0,0,0,3.107,3.107H35.832a3.116,3.116,0,0,0,3.107-3.107V141.756a3.116,3.116,0,0,0-3.107-3.107Z" transform="translate(-2.5 -138.649)" fill="#6cadef"/>
        </g>
        <g id="Grupo_68857" data-name="Grupo 68857" transform="translate(2.386 69.971)">
          <path id="Trazado_127760" data-name="Trazado 127760" d="M9.2,226.163a3.08,3.08,0,0,1-.908-.137l-.364.735a2.167,2.167,0,1,0,3.885,1.922l1.246-2.52Z" transform="translate(-7.707 -226.026)" fill="#818182"/>
        </g>
        <g id="Grupo_68858" data-name="Grupo 68858" transform="translate(30.246 69.971)">
          <path id="Trazado_127761" data-name="Trazado 127761" d="M102.471,226.026a3.078,3.078,0,0,1-.908.137H97.7l1.246,2.52a2.167,2.167,0,1,0,3.885-1.922Z" transform="translate(-97.704 -226.026)" fill="#818182"/>
        </g>
        <g id="Grupo_68859" data-name="Grupo 68859" transform="translate(30.204 47.073)">
          <circle id="Elipse_5188" data-name="Elipse 5188" cx="1.857" cy="1.857" r="1.857" fill="#dae6f1"/>
        </g>
        <g id="Grupo_68860" data-name="Grupo 68860" transform="translate(30.204 53.486)">
          <circle id="Elipse_5189" data-name="Elipse 5189" cx="1.857" cy="1.857" r="1.857" fill="#dae6f1"/>
        </g>
        <g id="Grupo_68861" data-name="Grupo 68861" transform="translate(3.87 46.017)">
          <path id="Trazado_127762" data-name="Trazado 127762" d="M12.5,169.632l23.117.011.011-20.983-.011-.011H12.511Z" transform="translate(-12.5 -148.649)" fill="#f5c84c"/>
        </g>
        <g id="Grupo_68862" data-name="Grupo 68862" transform="translate(29.448 59.314)">
          <path id="Trazado_127763" data-name="Trazado 127763" d="M99.578,193.148H95.9a.774.774,0,1,1,0-1.548h3.677a.774.774,0,0,1,0,1.548Z" transform="translate(-95.126 -191.6)"/>
        </g>
        <g id="Grupo_68863" data-name="Grupo 68863" transform="translate(29.448 62.2)">
          <path id="Trazado_127764" data-name="Trazado 127764" d="M99.578,202.472H95.9a.774.774,0,1,1,0-1.548h3.677a.774.774,0,0,1,0,1.548Z" transform="translate(-95.126 -200.924)"/>
        </g>
        <g id="Grupo_68864" data-name="Grupo 68864" transform="translate(29.448 65.087)">
          <path id="Trazado_127765" data-name="Trazado 127765" d="M99.578,211.8H95.9a.774.774,0,1,1,0-1.548h3.677a.774.774,0,0,1,0,1.548Z" transform="translate(-95.126 -210.249)"/>
        </g>
        <g id="Grupo_68865" data-name="Grupo 68865" transform="translate(13.886 36.083)">
          <path id="Trazado_127766" data-name="Trazado 127766" d="M49.963,123.679a.773.773,0,0,1-.611-.3l-4.334-5.572a.774.774,0,0,1,1.222-.95l4.334,5.572a.774.774,0,0,1-.61,1.249Z" transform="translate(-44.854 -116.559)"/>
        </g>
        <g id="Grupo_68866" data-name="Grupo 68866" transform="translate(18.22 36.083)">
          <path id="Trazado_127767" data-name="Trazado 127767" d="M59.628,123.679a.774.774,0,0,1-.61-1.249l4.334-5.572a.774.774,0,0,1,1.222.95l-4.334,5.572A.773.773,0,0,1,59.628,123.679Z" transform="translate(-58.854 -116.558)"/>
        </g>
        <g id="Grupo_68867" data-name="Grupo 68867" transform="translate(0 42.148)">
          <path id="Trazado_127768" data-name="Trazado 127768" d="M34.106,164.883H3.881A3.885,3.885,0,0,1,0,161V140.03a3.885,3.885,0,0,1,3.881-3.881H34.106a3.885,3.885,0,0,1,3.881,3.881V161A3.885,3.885,0,0,1,34.106,164.883ZM3.881,137.7a2.336,2.336,0,0,0-2.333,2.333V161a2.336,2.336,0,0,0,2.333,2.333H34.106A2.336,2.336,0,0,0,36.439,161V140.03a2.336,2.336,0,0,0-2.333-2.333Z" transform="translate(0 -136.149)"/>
        </g>
        <g id="Grupo_68868" data-name="Grupo 68868" transform="translate(1.611 69.456)">
          <path id="Trazado_127769" data-name="Trazado 127769" d="M8.141,229.515a2.94,2.94,0,0,1-2.632-4.244l.235-.476a.774.774,0,0,1,1.387.686l-.235.475a1.393,1.393,0,0,0,2.5,1.235L10.48,225a.774.774,0,1,1,1.387.686l-1.086,2.2a2.943,2.943,0,0,1-2.64,1.637Z" transform="translate(-5.205 -224.363)"/>
        </g>
        <g id="Grupo_68869" data-name="Grupo 68869" transform="translate(29.612 69.452)">
          <path id="Trazado_127770" data-name="Trazado 127770" d="M99.483,229.5a2.944,2.944,0,0,1-2.641-1.637l-1.106-2.237a.774.774,0,0,1,1.387-.686l1.106,2.237a1.393,1.393,0,1,0,2.5-1.235l-.238-.48a.774.774,0,0,1,1.387-.686l.238.481a2.94,2.94,0,0,1-2.631,4.244Z" transform="translate(-95.655 -224.348)"/>
        </g>
        <g id="Grupo_68870" data-name="Grupo 68870" transform="translate(29.43 46.299)">
          <path id="Trazado_127771" data-name="Trazado 127771" d="M97.7,154.822a2.631,2.631,0,1,1,2.631-2.631A2.634,2.634,0,0,1,97.7,154.822Zm0-3.715a1.083,1.083,0,1,0,1.083,1.083A1.085,1.085,0,0,0,97.7,151.107Z" transform="translate(-95.066 -149.559)"/>
        </g>
        <g id="Grupo_68871" data-name="Grupo 68871" transform="translate(29.43 52.712)">
          <path id="Trazado_127772" data-name="Trazado 127772" d="M97.7,175.538a2.631,2.631,0,1,1,2.631-2.631A2.634,2.634,0,0,1,97.7,175.538Zm0-3.715a1.083,1.083,0,1,0,1.083,1.083A1.085,1.085,0,0,0,97.7,171.823Z" transform="translate(-95.066 -170.275)"/>
        </g>
        <g id="Grupo_68872" data-name="Grupo 68872" transform="translate(3.096 45.243)">
          <path id="Trazado_127773" data-name="Trazado 127773" d="M33.89,168.692h0l-23.117-.011a.774.774,0,0,1-.774-.774l.011-20.983a.774.774,0,0,1,.774-.774H33.89a.774.774,0,0,1,.551.23.81.81,0,0,1,.234.555l-.011,20.983A.774.774,0,0,1,33.89,168.692Zm-22.342-1.559,21.569.011.01-19.446H11.559Z" transform="translate(-10 -146.149)"/>
        </g>
        <g id="Grupo_68873" data-name="Grupo 68873" transform="translate(73.758 45.266)">
          <path id="Trazado_127774" data-name="Trazado 127774" d="M238.26,146.221v26.12a2.42,2.42,0,0,0,2.042,2.426,2.365,2.365,0,0,0,2.676-2.338V148.024a1.8,1.8,0,0,0-1.8-1.8Z" transform="translate(-238.26 -146.221)" fill="#c7d7e5"/>
        </g>
        <g id="Grupo_68874" data-name="Grupo 68874" transform="translate(48.064 40.708)">
          <path id="Trazado_127775" data-name="Trazado 127775" d="M180.954,162.265V133.71a2.217,2.217,0,0,0-2.21-2.21H157.47a2.217,2.217,0,0,0-2.21,2.21v28.7a2.217,2.217,0,0,0,2.21,2.21H183.2v-.006A2.365,2.365,0,0,1,180.954,162.265Z" transform="translate(-155.26 -131.5)" fill="#edf4fc"/>
        </g>
        <g id="Grupo_68875" data-name="Grupo 68875" transform="translate(52.088 47.209)">
          <path id="Trazado_127776" data-name="Trazado 127776" d="M169.24,157.986h15.685a.98.98,0,0,0,.98-.98V153.48a.98.98,0,0,0-.98-.98H169.24a.98.98,0,0,0-.98.98v3.526A.98.98,0,0,0,169.24,157.986Z" transform="translate(-168.26 -152.5)" fill="#fca265"/>
        </g>
        <g id="Grupo_68876" data-name="Grupo 68876" transform="translate(51.256 55.866)">
          <path id="Trazado_127777" data-name="Trazado 127777" d="M173.307,182.01h-6.96a.774.774,0,0,1,0-1.548h6.96a.774.774,0,0,1,0,1.548Z" transform="translate(-165.573 -180.462)"/>
        </g>
        <g id="Grupo_68877" data-name="Grupo 68877" transform="translate(51.256 59.048)">
          <path id="Trazado_127778" data-name="Trazado 127778" d="M173.307,192.289h-6.96a.774.774,0,1,1,0-1.548h6.96a.774.774,0,0,1,0,1.548Z" transform="translate(-165.573 -190.741)"/>
        </g>
        <g id="Grupo_68878" data-name="Grupo 68878" transform="translate(51.256 62.23)">
          <path id="Trazado_127779" data-name="Trazado 127779" d="M173.307,202.569h-6.96a.774.774,0,1,1,0-1.548h6.96a.774.774,0,0,1,0,1.548Z" transform="translate(-165.573 -201.021)"/>
        </g>
        <g id="Grupo_68879" data-name="Grupo 68879" transform="translate(51.256 65.412)">
          <path id="Trazado_127780" data-name="Trazado 127780" d="M173.307,212.848h-6.96a.774.774,0,1,1,0-1.548h6.96a.774.774,0,0,1,0,1.548Z" transform="translate(-165.573 -211.3)"/>
        </g>
        <g id="Grupo_68880" data-name="Grupo 68880" transform="translate(51.256 68.595)">
          <path id="Trazado_127781" data-name="Trazado 127781" d="M173.307,223.128h-6.96a.774.774,0,1,1,0-1.548h6.96a.774.774,0,0,1,0,1.548Z" transform="translate(-165.573 -221.58)"/>
        </g>
        <g id="Grupo_68881" data-name="Grupo 68881" transform="translate(62.058 55.866)">
          <path id="Trazado_127782" data-name="Trazado 127782" d="M208.2,182.01h-6.96a.774.774,0,0,1,0-1.548h6.96a.774.774,0,0,1,0,1.548Z" transform="translate(-200.464 -180.462)"/>
        </g>
        <g id="Grupo_68882" data-name="Grupo 68882" transform="translate(62.058 59.048)">
          <path id="Trazado_127783" data-name="Trazado 127783" d="M208.2,192.289h-6.96a.774.774,0,0,1,0-1.548h6.96a.774.774,0,0,1,0,1.548Z" transform="translate(-200.464 -190.741)"/>
        </g>
        <g id="Grupo_68883" data-name="Grupo 68883" transform="translate(62.058 62.23)">
          <path id="Trazado_127784" data-name="Trazado 127784" d="M208.2,202.569h-6.96a.774.774,0,0,1,0-1.548h6.96a.774.774,0,0,1,0,1.548Z" transform="translate(-200.464 -201.021)"/>
        </g>
        <g id="Grupo_68884" data-name="Grupo 68884" transform="translate(62.058 65.412)">
          <path id="Trazado_127785" data-name="Trazado 127785" d="M208.2,212.848h-6.96a.774.774,0,0,1,0-1.548h6.96a.774.774,0,0,1,0,1.548Z" transform="translate(-200.464 -211.3)"/>
        </g>
        <g id="Grupo_68885" data-name="Grupo 68885" transform="translate(62.058 68.595)">
          <path id="Trazado_127786" data-name="Trazado 127786" d="M208.2,223.128h-6.96a.774.774,0,0,1,0-1.548h6.96a.774.774,0,0,1,0,1.548Z" transform="translate(-200.464 -221.58)"/>
        </g>
        <g id="Grupo_68886" data-name="Grupo 68886" transform="translate(65.01 43.253)">
          <path id="Trazado_127787" data-name="Trazado 127787" d="M212.012,141.269h-1.238a.774.774,0,0,1,0-1.548h1.238a.774.774,0,0,1,0,1.548Z" transform="translate(-210 -139.721)"/>
        </g>
        <g id="Grupo_68887" data-name="Grupo 68887" transform="translate(73.382 44.492)">
          <path id="Trazado_127788" data-name="Trazado 127788" d="M239.773,173.835a3.137,3.137,0,0,1-.413-.027.774.774,0,1,1,.2-1.535,1.591,1.591,0,0,0,1.8-1.571V146.3a1.03,1.03,0,0,0-1.029-1.029h-2.518a.774.774,0,1,1,0-1.548h2.518a2.58,2.58,0,0,1,2.577,2.577v24.4a3.139,3.139,0,0,1-3.139,3.133Z" transform="translate(-237.044 -143.721)"/>
        </g>
        <g id="Grupo_68888" data-name="Grupo 68888" transform="translate(47.29 39.935)">
          <path id="Trazado_127789" data-name="Trazado 127789" d="M181.47,163.672H155.744a2.988,2.988,0,0,1-2.984-2.984v-28.7A2.988,2.988,0,0,1,155.744,129h21.274A2.988,2.988,0,0,1,180,131.984v28.555a1.582,1.582,0,0,0,1.506,1.58.777.777,0,0,1-.039,1.553Zm-25.725-33.124a1.438,1.438,0,0,0-1.436,1.436v28.7a1.438,1.438,0,0,0,1.436,1.436h23.14a3.118,3.118,0,0,1-.43-1.585V131.985a1.438,1.438,0,0,0-1.436-1.436H155.744Z" transform="translate(-152.76 -129)"/>
        </g>
        <g id="Grupo_68889" data-name="Grupo 68889" transform="translate(51.314 46.436)">
          <path id="Trazado_127790" data-name="Trazado 127790" d="M183.2,157.034H167.514a1.756,1.756,0,0,1-1.754-1.754v-3.526A1.756,1.756,0,0,1,167.514,150H183.2a1.756,1.756,0,0,1,1.754,1.754v3.526A1.756,1.756,0,0,1,183.2,157.034Zm-15.685-5.486a.207.207,0,0,0-.206.206v3.526a.206.206,0,0,0,.206.206H183.2a.206.206,0,0,0,.206-.206v-3.526a.206.206,0,0,0-.206-.206Z" transform="translate(-165.76 -150)"/>
        </g>
        <g id="Grupo_68890" data-name="Grupo 68890" transform="translate(27.139 4.346)">
          <path id="Trazado_127791" data-name="Trazado 127791" d="M90.969,18.176V15.689a1.651,1.651,0,0,0-3.3,0v2.487Z" transform="translate(-87.667 -14.038)" fill="#dae6f1"/>
        </g>
        <g id="Grupo_68891" data-name="Grupo 68891" transform="translate(22.791 8.484)">
          <path id="Trazado_127792" data-name="Trazado 127792" d="M103.038,27.4H76.364a2.75,2.75,0,0,0-2.742,2.742V48.655A2.75,2.75,0,0,0,76.364,51.4h26.674a2.75,2.75,0,0,0,2.742-2.742V30.147A2.75,2.75,0,0,0,103.038,27.4Z" transform="translate(-73.622 -27.405)" fill="#5290db"/>
        </g>
        <g id="Grupo_68892" data-name="Grupo 68892" transform="translate(25.887 11.579)">
          <path id="Trazado_127793" data-name="Trazado 127793" d="M83.622,37.4h25.966v3.56H83.622Z" transform="translate(-83.622 -37.405)" fill="#9be5f9"/>
        </g>
        <g id="Grupo_68893" data-name="Grupo 68893" transform="translate(42.566 11.579)">
          <path id="Trazado_127794" data-name="Trazado 127794" d="M137.5,37.4h3.405v3.56H137.5Z" transform="translate(-137.5 -37.405)" fill="#fc657e"/>
        </g>
        <g id="Grupo_68900" data-name="Grupo 68900" transform="translate(26.444 17.794)">
          <g id="Grupo_68894" data-name="Grupo 68894">
            <path id="Trazado_127795" data-name="Trazado 127795" d="M86.2,59.331a.774.774,0,0,1-.774-.774v-.3a.774.774,0,0,1,1.548,0v.3A.774.774,0,0,1,86.2,59.331Z" transform="translate(-85.422 -57.479)"/>
          </g>
          <g id="Grupo_68895" data-name="Grupo 68895" transform="translate(3.247)">
            <path id="Trazado_127796" data-name="Trazado 127796" d="M96.685,59.331a.774.774,0,0,1-.774-.774v-.3a.774.774,0,0,1,1.548,0v.3A.774.774,0,0,1,96.685,59.331Z" transform="translate(-95.911 -57.479)"/>
          </g>
          <g id="Grupo_68896" data-name="Grupo 68896" transform="translate(6.494)">
            <path id="Trazado_127797" data-name="Trazado 127797" d="M107.174,59.331a.774.774,0,0,1-.774-.774v-.3a.774.774,0,0,1,1.548,0v.3A.774.774,0,0,1,107.174,59.331Z" transform="translate(-106.4 -57.479)"/>
          </g>
          <g id="Grupo_68897" data-name="Grupo 68897" transform="translate(9.742)">
            <path id="Trazado_127798" data-name="Trazado 127798" d="M117.664,59.331a.774.774,0,0,1-.774-.774v-.3a.774.774,0,1,1,1.548,0v.3A.774.774,0,0,1,117.664,59.331Z" transform="translate(-116.89 -57.479)"/>
          </g>
          <g id="Grupo_68898" data-name="Grupo 68898" transform="translate(12.989)">
            <path id="Trazado_127799" data-name="Trazado 127799" d="M128.153,59.331a.774.774,0,0,1-.774-.774v-.3a.774.774,0,0,1,1.548,0v.3A.774.774,0,0,1,128.153,59.331Z" transform="translate(-127.379 -57.479)"/>
          </g>
          <g id="Grupo_68899" data-name="Grupo 68899" transform="translate(16.236)">
            <path id="Trazado_127800" data-name="Trazado 127800" d="M138.642,59.331a.774.774,0,0,1-.774-.774v-.3a.774.774,0,0,1,1.548,0v.3A.774.774,0,0,1,138.642,59.331Z" transform="translate(-137.868 -57.479)"/>
          </g>
        </g>
        <g id="Grupo_68907" data-name="Grupo 68907" transform="translate(26.444 20.985)">
          <g id="Grupo_68901" data-name="Grupo 68901">
            <path id="Trazado_127801" data-name="Trazado 127801" d="M86.2,69.641a.774.774,0,0,1-.774-.774v-.3a.774.774,0,0,1,1.548,0v.3A.774.774,0,0,1,86.2,69.641Z" transform="translate(-85.422 -67.789)"/>
          </g>
          <g id="Grupo_68902" data-name="Grupo 68902" transform="translate(3.247)">
            <path id="Trazado_127802" data-name="Trazado 127802" d="M96.685,69.641a.774.774,0,0,1-.774-.774v-.3a.774.774,0,0,1,1.548,0v.3A.774.774,0,0,1,96.685,69.641Z" transform="translate(-95.911 -67.789)"/>
          </g>
          <g id="Grupo_68903" data-name="Grupo 68903" transform="translate(6.494)">
            <path id="Trazado_127803" data-name="Trazado 127803" d="M107.174,69.641a.774.774,0,0,1-.774-.774v-.3a.774.774,0,0,1,1.548,0v.3A.774.774,0,0,1,107.174,69.641Z" transform="translate(-106.4 -67.789)"/>
          </g>
          <g id="Grupo_68904" data-name="Grupo 68904" transform="translate(9.742)">
            <path id="Trazado_127804" data-name="Trazado 127804" d="M117.664,69.641a.774.774,0,0,1-.774-.774v-.3a.774.774,0,1,1,1.548,0v.3A.774.774,0,0,1,117.664,69.641Z" transform="translate(-116.89 -67.789)"/>
          </g>
          <g id="Grupo_68905" data-name="Grupo 68905" transform="translate(12.989)">
            <path id="Trazado_127805" data-name="Trazado 127805" d="M128.153,69.641a.774.774,0,0,1-.774-.774v-.3a.774.774,0,0,1,1.548,0v.3A.774.774,0,0,1,128.153,69.641Z" transform="translate(-127.379 -67.789)"/>
          </g>
          <g id="Grupo_68906" data-name="Grupo 68906" transform="translate(16.236)">
            <path id="Trazado_127806" data-name="Trazado 127806" d="M138.642,69.641a.774.774,0,0,1-.774-.774v-.3a.774.774,0,0,1,1.548,0v.3A.774.774,0,0,1,138.642,69.641Z" transform="translate(-137.868 -67.789)"/>
          </g>
        </g>
        <g id="Grupo_68914" data-name="Grupo 68914" transform="translate(26.444 24.177)">
          <g id="Grupo_68908" data-name="Grupo 68908">
            <path id="Trazado_127807" data-name="Trazado 127807" d="M86.2,79.951a.774.774,0,0,1-.774-.774v-.3a.774.774,0,0,1,1.548,0v.3A.774.774,0,0,1,86.2,79.951Z" transform="translate(-85.422 -78.099)"/>
          </g>
          <g id="Grupo_68909" data-name="Grupo 68909" transform="translate(3.247)">
            <path id="Trazado_127808" data-name="Trazado 127808" d="M96.685,79.951a.774.774,0,0,1-.774-.774v-.3a.774.774,0,1,1,1.548,0v.3A.774.774,0,0,1,96.685,79.951Z" transform="translate(-95.911 -78.099)"/>
          </g>
          <g id="Grupo_68910" data-name="Grupo 68910" transform="translate(6.494)">
            <path id="Trazado_127809" data-name="Trazado 127809" d="M107.174,79.951a.774.774,0,0,1-.774-.774v-.3a.774.774,0,1,1,1.548,0v.3A.774.774,0,0,1,107.174,79.951Z" transform="translate(-106.4 -78.099)"/>
          </g>
          <g id="Grupo_68911" data-name="Grupo 68911" transform="translate(9.742)">
            <path id="Trazado_127810" data-name="Trazado 127810" d="M117.664,79.951a.774.774,0,0,1-.774-.774v-.3a.774.774,0,1,1,1.548,0v.3A.774.774,0,0,1,117.664,79.951Z" transform="translate(-116.89 -78.099)"/>
          </g>
          <g id="Grupo_68912" data-name="Grupo 68912" transform="translate(12.989)">
            <path id="Trazado_127811" data-name="Trazado 127811" d="M128.153,79.951a.774.774,0,0,1-.774-.774v-.3a.774.774,0,0,1,1.548,0v.3A.774.774,0,0,1,128.153,79.951Z" transform="translate(-127.379 -78.099)"/>
          </g>
          <g id="Grupo_68913" data-name="Grupo 68913" transform="translate(16.236)">
            <path id="Trazado_127812" data-name="Trazado 127812" d="M138.642,79.951a.774.774,0,0,1-.774-.774v-.3a.774.774,0,1,1,1.548,0v.3A.774.774,0,0,1,138.642,79.951Z" transform="translate(-137.868 -78.099)"/>
          </g>
        </g>
        <g id="Grupo_68921" data-name="Grupo 68921" transform="translate(26.444 27.369)">
          <g id="Grupo_68915" data-name="Grupo 68915">
            <path id="Trazado_127813" data-name="Trazado 127813" d="M86.2,90.262a.774.774,0,0,1-.774-.774v-.3a.774.774,0,0,1,1.548,0v.3A.774.774,0,0,1,86.2,90.262Z" transform="translate(-85.422 -88.41)"/>
          </g>
          <g id="Grupo_68916" data-name="Grupo 68916" transform="translate(3.247)">
            <path id="Trazado_127814" data-name="Trazado 127814" d="M96.685,90.262a.774.774,0,0,1-.774-.774v-.3a.774.774,0,0,1,1.548,0v.3A.774.774,0,0,1,96.685,90.262Z" transform="translate(-95.911 -88.41)"/>
          </g>
          <g id="Grupo_68917" data-name="Grupo 68917" transform="translate(6.494)">
            <path id="Trazado_127815" data-name="Trazado 127815" d="M107.174,90.262a.774.774,0,0,1-.774-.774v-.3a.774.774,0,0,1,1.548,0v.3A.774.774,0,0,1,107.174,90.262Z" transform="translate(-106.4 -88.41)"/>
          </g>
          <g id="Grupo_68918" data-name="Grupo 68918" transform="translate(9.742)">
            <path id="Trazado_127816" data-name="Trazado 127816" d="M117.664,90.262a.774.774,0,0,1-.774-.774v-.3a.774.774,0,1,1,1.548,0v.3A.774.774,0,0,1,117.664,90.262Z" transform="translate(-116.89 -88.41)"/>
          </g>
          <g id="Grupo_68919" data-name="Grupo 68919" transform="translate(12.989)">
            <path id="Trazado_127817" data-name="Trazado 127817" d="M128.153,90.262a.774.774,0,0,1-.774-.774v-.3a.774.774,0,0,1,1.548,0v.3A.774.774,0,0,1,128.153,90.262Z" transform="translate(-127.379 -88.41)"/>
          </g>
          <g id="Grupo_68920" data-name="Grupo 68920" transform="translate(16.236)">
            <path id="Trazado_127818" data-name="Trazado 127818" d="M138.642,90.262a.774.774,0,0,1-.774-.774v-.3a.774.774,0,0,1,1.548,0v.3A.774.774,0,0,1,138.642,90.262Z" transform="translate(-137.868 -88.41)"/>
          </g>
        </g>
        <g id="Grupo_68922" data-name="Grupo 68922" transform="translate(22.017 7.71)">
          <path id="Trazado_127819" data-name="Trazado 127819" d="M101.312,50.444H74.638a3.52,3.52,0,0,1-3.516-3.516V28.421A3.52,3.52,0,0,1,74.638,24.9h26.674a3.52,3.52,0,0,1,3.515,3.516V46.929a3.52,3.52,0,0,1-3.516,3.515ZM74.638,26.453a1.97,1.97,0,0,0-1.968,1.968V46.929A1.97,1.97,0,0,0,74.638,48.9h26.674a1.97,1.97,0,0,0,1.968-1.968V28.421a1.97,1.97,0,0,0-1.968-1.968Z" transform="translate(-71.122 -24.905)"/>
        </g>
        <g id="Grupo_68923" data-name="Grupo 68923" transform="translate(46.92 18.408)">
          <circle id="Elipse_5190" data-name="Elipse 5190" cx="1.857" cy="1.857" r="1.857" fill="#dae6f1"/>
        </g>
        <g id="Grupo_68924" data-name="Grupo 68924" transform="translate(46.92 24.821)">
          <circle id="Elipse_5191" data-name="Elipse 5191" cx="1.857" cy="1.857" r="1.857" fill="#dae6f1"/>
        </g>
        <g id="Grupo_68925" data-name="Grupo 68925" transform="translate(46.146 17.634)">
          <path id="Trazado_127820" data-name="Trazado 127820" d="M151.7,62.226a2.631,2.631,0,1,1,2.631-2.631A2.634,2.634,0,0,1,151.7,62.226Zm0-3.715a1.083,1.083,0,1,0,1.083,1.083A1.085,1.085,0,0,0,151.7,58.511Z" transform="translate(-149.066 -56.963)"/>
        </g>
        <g id="Grupo_68926" data-name="Grupo 68926" transform="translate(46.146 24.047)">
          <path id="Trazado_127821" data-name="Trazado 127821" d="M151.7,82.943a2.631,2.631,0,1,1,2.631-2.631A2.634,2.634,0,0,1,151.7,82.943Zm0-3.715a1.083,1.083,0,1,0,1.083,1.083A1.085,1.085,0,0,0,151.7,79.228Z" transform="translate(-149.066 -77.68)"/>
        </g>
        <g id="Grupo_68927" data-name="Grupo 68927" transform="translate(25.113 10.805)">
          <path id="Trazado_127822" data-name="Trazado 127822" d="M107.862,40.012H81.9a.774.774,0,0,1-.774-.774v-3.56A.774.774,0,0,1,81.9,34.9h25.966a.774.774,0,0,1,.774.774v3.56A.774.774,0,0,1,107.862,40.012ZM82.67,38.464h24.418V36.452H82.67Z" transform="translate(-81.122 -34.904)"/>
        </g>
        <g id="Grupo_68928" data-name="Grupo 68928" transform="translate(45.197 11.248)">
          <path id="Trazado_127823" data-name="Trazado 127823" d="M146.774,40.564A.774.774,0,0,1,146,39.79V37.107a.774.774,0,0,1,1.548,0V39.79A.774.774,0,0,1,146.774,40.564Z" transform="translate(-146 -36.333)"/>
        </g>
        <g id="Grupo_68929" data-name="Grupo 68929" transform="translate(41.792 11.222)">
          <path id="Trazado_127824" data-name="Trazado 127824" d="M135.774,40.507a.774.774,0,0,1-.774-.774V37.024a.774.774,0,0,1,1.548,0v2.709A.774.774,0,0,1,135.774,40.507Z" transform="translate(-135 -36.25)"/>
        </g>
        <g id="Grupo_68930" data-name="Grupo 68930" transform="translate(28.945 0)">
          <path id="Trazado_127825" data-name="Trazado 127825" d="M94.274,5.34A.774.774,0,0,1,94.147,3.8L116.722.011a.774.774,0,0,1,.256,1.526L94.4,5.329A.8.8,0,0,1,94.274,5.34Z" transform="translate(-93.501 -0.001)"/>
        </g>
        <g id="Grupo_68931" data-name="Grupo 68931" transform="translate(26.365 3.572)">
          <path id="Trazado_127826" data-name="Trazado 127826" d="M85.941,16.925a.774.774,0,0,1-.774-.774V13.964a2.425,2.425,0,1,1,4.85,0v2.13a.774.774,0,1,1-1.548,0v-2.13a.877.877,0,0,0-1.754,0v2.187A.774.774,0,0,1,85.941,16.925Z" transform="translate(-85.167 -11.539)"/>
        </g>
      </g>
    </g>
    <rect id="Rectángulo_7821" data-name="Rectángulo 7821" width="98" height="92" transform="translate(485 1630)" fill="none"/>
  </g>
</svg>
