<svg xmlns="http://www.w3.org/2000/svg" width="98" height="92" viewBox="0 0 98 92">
  <g id="Grupo_68971" data-name="Grupo 68971" transform="translate(-1023 -1430)">
    <g id="interactivo" transform="translate(1036.485 1444)">
      <g id="Grupo_68941" data-name="Grupo 68941" transform="translate(6.829 0.937)">
        <path id="Trazado_127842" data-name="Trazado 127842" d="M55.749,9.724A2.229,2.229,0,0,0,53.527,7.5H32.252A2.229,2.229,0,0,0,30.03,9.724V19.23a2.229,2.229,0,0,0,2.222,2.224H53.527a2.229,2.229,0,0,0,2.222-2.224V9.724Z" transform="translate(-30.03 -7.5)" fill="#ffdb4e" fill-rule="evenodd"/>
      </g>
      <g id="Grupo_68942" data-name="Grupo 68942" transform="translate(33.361 16.107)">
        <path id="Trazado_127843" data-name="Trazado 127843" d="M259.379,135.312A8.691,8.691,0,1,0,248.494,145.9c2.1.7,5.372,2.444,8.373-1.926a8.7,8.7,0,0,0,2.512-8.658Z" transform="translate(-242.294 -128.863)" fill="#b1d7fe" fill-rule="evenodd"/>
      </g>
      <g id="Grupo_68943" data-name="Grupo 68943" transform="translate(4.449 30.392)">
        <path id="Trazado_127844" data-name="Trazado 127844" d="M28.075,247.737a9.159,9.159,0,1,0-3.352,12.521A9.15,9.15,0,0,0,28.075,247.737Z" transform="translate(-10.985 -243.151)" fill="#ff8389" fill-rule="evenodd"/>
      </g>
      <g id="Grupo_68944" data-name="Grupo 68944" transform="translate(9.798 35.746)">
        <path id="Trazado_127845" data-name="Trazado 127845" d="M60.887,287.9a3.81,3.81,0,1,0-1.393,5.207A3.806,3.806,0,0,0,60.887,287.9Z" transform="translate(-53.777 -285.986)" fill="#e7ecf1" fill-rule="evenodd"/>
      </g>
      <g id="Grupo_68945" data-name="Grupo 68945" transform="translate(29.99 22.389)">
        <path id="Trazado_127846" data-name="Trazado 127846" d="M234.872,192.554V190.43a2.5,2.5,0,1,0-4.986,0v-8.665a2.5,2.5,0,1,0-4.986,0v17.912c0,1.894-.4,3.324-1.68,1.731-1.974-2.873-3.423-4.437-6.194-3.955-1.627.287-2.247,1.8-1.134,3.231l7.895,11.591a9.592,9.592,0,0,1,1.924,6.285,1.24,1.24,0,0,0,1.237,1.234h14.769a1.24,1.24,0,0,0,1.237-1.234v-3.824c0-3.206,1.463-2.9,1.885-6.824V194.679a2.5,2.5,0,1,0-4.982,0v-2.125a2.5,2.5,0,1,0-4.986,0Z" transform="translate(-215.33 -179.126)" fill="#ffece4" fill-rule="evenodd"/>
      </g>
      <g id="Grupo_68946" data-name="Grupo 68946" transform="translate(25.791 0.937)">
        <path id="Trazado_127847" data-name="Trazado 127847" d="M188.487,9.724A2.229,2.229,0,0,0,186.266,7.5H181.73a2.229,2.229,0,0,1,2.222,2.224V19.23a2.229,2.229,0,0,1-2.222,2.224h4.536a2.229,2.229,0,0,0,2.222-2.224Z" transform="translate(-181.73 -7.5)" fill="#ffaf5d" fill-rule="evenodd"/>
      </g>
      <g id="Grupo_68947" data-name="Grupo 68947" transform="translate(36.903 16.107)">
        <path id="Trazado_127848" data-name="Trazado 127848" d="M284.177,135.312a8.69,8.69,0,0,0-13.543-4.756,8.7,8.7,0,0,1,8.82,13.613,2.592,2.592,0,0,1,2.211-.2,8.7,8.7,0,0,0,2.512-8.658Z" transform="translate(-270.634 -128.863)" fill="#8bc6f8" fill-rule="evenodd"/>
      </g>
      <g id="Grupo_68948" data-name="Grupo 68948" transform="translate(53.941 35.303)">
        <path id="Trazado_127849" data-name="Trazado 127849" d="M412.5,285.078a2.5,2.5,0,0,0-3.71-2.337,2.512,2.512,0,0,1,1.272,2.337v13.234c-.422,3.919-1.885,3.618-1.885,6.824v3.824a1.24,1.24,0,0,1-1.237,1.234h2.438a1.24,1.24,0,0,0,1.237-1.234v-3.824c0-3.206,1.463-2.9,1.885-6.824V285.078Z" transform="translate(-406.942 -282.437)" fill="#ffddce" fill-rule="evenodd"/>
      </g>
      <g id="Grupo_68949" data-name="Grupo 68949" transform="translate(57.594 21.293)">
        <path id="Trazado_127850" data-name="Trazado 127850" d="M443.19,173.872a3.51,3.51,0,1,0-3.508,3.512A3.512,3.512,0,0,0,443.19,173.872Z" transform="translate(-436.17 -170.357)" fill="#ff8389" fill-rule="evenodd"/>
      </g>
      <g id="Grupo_68950" data-name="Grupo 68950" transform="translate(54.978 2.383)">
        <path id="Trazado_127851" data-name="Trazado 127851" d="M424.387,20.633a5.36,5.36,0,1,0,0,7.583A5.356,5.356,0,0,0,424.387,20.633Z" transform="translate(-415.241 -19.064)" fill="#ff8389" fill-rule="evenodd"/>
      </g>
      <g id="Grupo_68951" data-name="Grupo 68951" transform="translate(58.459 2.382)">
        <path id="Trazado_127852" data-name="Trazado 127852" d="M448.754,28.213a5.361,5.361,0,0,0-5.666-8.814,5.364,5.364,0,0,1,.609,10.233A5.343,5.343,0,0,0,448.754,28.213Z" transform="translate(-443.088 -19.06)" fill="#f67" fill-rule="evenodd"/>
      </g>
      <g id="Grupo_68952" data-name="Grupo 68952" transform="translate(59.344 21.293)">
        <path id="Trazado_127853" data-name="Trazado 127853" d="M455.444,173.872a3.506,3.506,0,0,0-5.269-3.04,3.512,3.512,0,0,1,.372,6.264,3.507,3.507,0,0,0,4.9-3.224Z" transform="translate(-450.175 -170.357)" fill="#f67" fill-rule="evenodd"/>
      </g>
      <g id="Grupo_68953" data-name="Grupo 68953" transform="translate(11.578 30.391)">
        <path id="Trazado_127854" data-name="Trazado 127854" d="M74.348,247.815a9.177,9.177,0,0,1-5.9,13.525,9.167,9.167,0,1,0-.429-17.969A9.137,9.137,0,0,1,74.348,247.815Z" transform="translate(-68.019 -243.143)" fill="#f67" fill-rule="evenodd"/>
      </g>
      <g id="Grupo_68954" data-name="Grupo 68954" transform="translate(3.515 0)">
        <path id="Trazado_127855" data-name="Trazado 127855" d="M125.108,37.43H115.32a.937.937,0,1,0,0,1.875h9.787a.937.937,0,0,0,0-1.875Z" transform="translate(-100.525 -32.752)"/>
        <path id="Trazado_127856" data-name="Trazado 127856" d="M53.858,39.3h2.852a.937.937,0,1,0,0-1.875H53.858a.937.937,0,1,0,0,1.875Z" transform="translate(-46.746 -32.752)"/>
        <path id="Trazado_127857" data-name="Trazado 127857" d="M53.858,75.259h9.787a.937.937,0,1,0,0-1.875H53.858a.937.937,0,1,0,0,1.875Z" transform="translate(-46.746 -64.212)"/>
        <path id="Trazado_127858" data-name="Trazado 127858" d="M173.654,73.384H170.8a.937.937,0,1,0,0,1.875h2.853a.937.937,0,1,0,0-1.875Z" transform="translate(-149.072 -64.212)"/>
        <path id="Trazado_127859" data-name="Trazado 127859" d="M61.105,20.356a4.457,4.457,0,0,0-4.349,3.515H51.636a9.69,9.69,0,0,0-2.143-5.184l6.438-6.445A6.3,6.3,0,0,0,64.788,3.29a6.3,6.3,0,0,0-10,7.442l-.019.017-6.607,6.613a9.737,9.737,0,0,0-1.3-.9,9.623,9.623,0,0,0-10.921.9L32.973,14.39a3.144,3.144,0,0,0,.513-1.724V3.161A3.164,3.164,0,0,0,30.326,0H9.051A3.164,3.164,0,0,0,5.892,3.161v9.506a3.164,3.164,0,0,0,3.159,3.161h7.388a.937.937,0,0,0,0-1.875H9.051a1.287,1.287,0,0,1-1.284-1.286V3.161A1.287,1.287,0,0,1,9.051,1.875H30.326a1.287,1.287,0,0,1,1.284,1.286v9.506a1.287,1.287,0,0,1-1.284,1.286H20.77a.937.937,0,1,0,0,1.875h9.557a3.139,3.139,0,0,0,1.2-.236l3.1,3.1a9.645,9.645,0,0,0-2.027,7.9L21.36,33.084h0a10.086,10.086,0,0,0-12.8-2.275A10.1,10.1,0,1,0,22.42,34.637l10.715-6.195a9.561,9.561,0,0,0,5.488,5.368v9.13a8.1,8.1,0,0,1-.06,1.069c-1.908-2.762-3.664-4.8-7.039-4.216a2.889,2.889,0,0,0-2.3,1.752,3.033,3.033,0,0,0,.568,2.953l7.879,11.568a8.674,8.674,0,0,1,1.762,5.758A2.175,2.175,0,0,0,41.609,64H56.379a2.175,2.175,0,0,0,2.174-2.172V58a4.957,4.957,0,0,1,.692-2.738,9.985,9.985,0,0,0,1.188-3.986.96.96,0,0,0,.005-.1v-3.21a.937.937,0,0,0-1.875,0v3.159a8.114,8.114,0,0,1-.986,3.281,6.789,6.789,0,0,0-.9,3.594v3.824a.3.3,0,0,1-.3.3H41.609a.3.3,0,0,1-.3-.3,10.5,10.5,0,0,0-2.087-6.813L31.328,43.42l-.034-.047a1.242,1.242,0,0,1-.318-1.154,1.074,1.074,0,0,1,.872-.579c2.164-.377,3.323.742,5.261,3.562.013.019.027.038.042.056.707.88,1.415,1.2,2.1.962.861-.3,1.245-1.315,1.245-3.28V25.028a1.562,1.562,0,1,1,3.111,0V41.2a.937.937,0,0,0,1.875,0v-7.5a1.527,1.527,0,0,1,1.555-1.7,1.7,1.7,0,0,1,.526.083q.042.018.085.032a1.551,1.551,0,0,1,.944,1.586v8.754a.937.937,0,1,0,1.875,0V35.818a1.562,1.562,0,1,1,3.111,0V43.7a.937.937,0,0,0,1.875,0V37.943a1.526,1.526,0,0,1,1.553-1.7,1.569,1.569,0,0,1,1.07.405,1.7,1.7,0,0,1,.484,1.3v5.693a.937.937,0,1,0,1.875,0V37.943a3.391,3.391,0,0,0-3.43-3.578,3.524,3.524,0,0,0-1.676.422,3.347,3.347,0,0,0-3.307-2.546,3.53,3.53,0,0,0-1.678.423,3.32,3.32,0,0,0-.945-1.631,9.62,9.62,0,0,0,2.236-5.287h5.119a4.448,4.448,0,1,0,4.349-5.39ZM57.211,4.615h0a4.422,4.422,0,0,1,6.249,6.259,4.422,4.422,0,0,1-6.249-6.258ZM17.718,46.686h0A8.21,8.21,0,0,1,6.49,43.674a8.222,8.222,0,1,1,11.228,3.012Zm32.09-21.863a7.75,7.75,0,0,1-2.15,5.348,3.547,3.547,0,0,0-2.173.3V25.028a3.433,3.433,0,1,0-6.86,0v6.74a7.754,7.754,0,1,1,11.184-6.983c0,.008,0,.015,0,.023s0,.01,0,.015Zm11.3,2.559a2.576,2.576,0,1,1,2.571-2.574A2.577,2.577,0,0,1,61.105,27.382Z" transform="translate(-3.515 0)"/>
        <path id="Trazado_127860" data-name="Trazado 127860" d="M52.263,278.64a4.751,4.751,0,0,0-2.457,9.178,4.774,4.774,0,0,0,1.235.164,4.726,4.726,0,0,0,2.368-.639h0a4.753,4.753,0,0,0-1.147-8.7Zm.208,7.08a2.878,2.878,0,1,1,1.05-3.927A2.855,2.855,0,0,1,52.471,285.719Z" transform="translate(-40.941 -243.668)"/>
      </g>
    </g>
    <rect id="Rectángulo_7823" data-name="Rectángulo 7823" width="98" height="92" transform="translate(1023 1430)" fill="none"/>
  </g>
</svg>
