<svg xmlns="http://www.w3.org/2000/svg" width="87" height="87" viewBox="0 0 87 87">
  <g id="Grupo_72433" data-name="Grupo 72433" transform="translate(-1043 -2885)">
    <g id="correccion-de-pruebas" transform="translate(1054 2896.061)">
      <g id="Grupo_69113" data-name="Grupo 69113" transform="translate(1.079 1.079)">
        <g id="Grupo_69101" data-name="Grupo 69101" transform="translate(39.912 34.518)">
          <path id="Trazado_128047" data-name="Trazado 128047" d="M62.81,41.63V58.889H40.157V56.44a2.153,2.153,0,0,0,1.079-1.866V52.416a2.164,2.164,0,0,0-2.157-2.157H38A8.63,8.63,0,1,0,38,33H55.259v8.63Z" transform="translate(-38 -33)" fill="#ffeaa7"/>
        </g>
        <g id="Grupo_69102" data-name="Grupo 69102" transform="translate(57.171 34.518)">
          <path id="Trazado_128048" data-name="Trazado 128048" d="M54,33l7.551,8.63H54Z" transform="translate(-54 -33)" fill="#ef7385"/>
        </g>
        <g id="Grupo_69103" data-name="Grupo 69103" transform="translate(17.259 43.148)">
          <path id="Trazado_128049" data-name="Trazado 128049" d="M36.416,51.787V56.1a2.164,2.164,0,0,1-2.157,2.157H29.675A12.692,12.692,0,0,1,17,45.584a4.58,4.58,0,0,1,9.126-.572,5.274,5.274,0,0,0,5.232,4.617h2.9a2.164,2.164,0,0,1,2.157,2.157Z" transform="translate(-17 -41)" fill="#fcd770"/>
        </g>
        <g id="Grupo_69104" data-name="Grupo 69104">
          <path id="Trazado_128050" data-name="Trazado 128050" d="M16.706,10.848h-.011l-2.373.68A6.472,6.472,0,0,0,9.63,17.752V31.2A12.941,12.941,0,0,0,22.574,44.148h.27a4.567,4.567,0,0,0-4.584,4.584,12.548,12.548,0,0,0,2.308,7.281H16.1a5.381,5.381,0,0,1-4.962-3.279c-.14.011-.28.043-.431.043a5.4,5.4,0,0,1-5.393-5.393A4.314,4.314,0,0,1,1,43.069a4.263,4.263,0,0,1,.831-2.524,6.615,6.615,0,0,0,1.327-3.916V22.574a21.574,21.574,0,1,1,43.148,0V35.518H40.912a9.037,9.037,0,0,0-1.888.2,13.019,13.019,0,0,0,.809-4.52V20.416a5.4,5.4,0,0,0-5.393-5.393H25.033a10.4,10.4,0,0,1-8.328-4.175Z" transform="translate(-1 -1)" fill="#656d78"/>
        </g>
        <g id="Grupo_69105" data-name="Grupo 69105" transform="translate(45.305 0)">
          <path id="Trazado_128051" data-name="Trazado 128051" d="M45.157,1H58.1a2.164,2.164,0,0,1,2.157,2.157V20.416A2.164,2.164,0,0,1,58.1,22.574H53.787l-3.873,3.873a1.526,1.526,0,0,1-2.6-1.079V22.574H45.157A2.164,2.164,0,0,1,43,20.416V3.157A2.164,2.164,0,0,1,45.157,1Z" transform="translate(-43 -1)" fill="#e6e9ed"/>
        </g>
        <g id="Grupo_69106" data-name="Grupo 69106" transform="translate(37.754 57.958)">
          <path id="Trazado_128052" data-name="Trazado 128052" d="M40.315,57.179v3.236a1.082,1.082,0,0,1-1.079,1.079H37.079A1.082,1.082,0,0,1,36,60.415V55.021h3.236a2.152,2.152,0,0,0,1.079-.291Z" transform="translate(-36 -54.73)" fill="#969faa"/>
        </g>
        <g id="Grupo_69107" data-name="Grupo 69107" transform="translate(36.676 51.777)">
          <path id="Trazado_128053" data-name="Trazado 128053" d="M41.472,51.157v2.157a2.163,2.163,0,0,1-2.157,2.157H35V51.157l.485-.971A2.167,2.167,0,0,1,37.416,49h1.9A2.164,2.164,0,0,1,41.472,51.157Z" transform="translate(-35 -49)" fill="#f0d0b4"/>
        </g>
        <g id="Grupo_69108" data-name="Grupo 69108" transform="translate(31.282 34.518)">
          <path id="Trazado_128054" data-name="Trazado 128054" d="M38.63,33A8.63,8.63,0,1,1,30,41.63a8.972,8.972,0,0,1,.086-1.208A8.634,8.634,0,0,1,36.742,33.2,9.037,9.037,0,0,1,38.63,33Z" transform="translate(-30 -33)" fill="#ccd1d9"/>
        </g>
        <g id="Grupo_69109" data-name="Grupo 69109" transform="translate(35.597 38.833)">
          <ellipse id="Elipse_5198" data-name="Elipse 5198" cx="4" cy="4.5" rx="4" ry="4.5" transform="translate(0.324 0.089)" fill="#69d6f4"/>
        </g>
        <g id="Grupo_69110" data-name="Grupo 69110" transform="translate(8.63 9.848)">
          <path id="Trazado_128055" data-name="Trazado 128055" d="M33.81,14.3H24.4a10.4,10.4,0,0,1-8.328-4.175h-.011l-2.373.68A6.472,6.472,0,0,0,9,17.034v8.058a6.472,6.472,0,1,1,6.472,6.472A6.477,6.477,0,0,1,9,25.091v5.393A12.941,12.941,0,0,0,21.944,43.429h4.315a12.9,12.9,0,0,0,5.48-1.208A8.634,8.634,0,0,1,38.394,35a13.019,13.019,0,0,0,.809-4.52V25.091a6.472,6.472,0,1,1-6.472-6.472A6.477,6.477,0,0,1,39.2,25.091V19.7A5.4,5.4,0,0,0,33.81,14.3Z" transform="translate(-9 -10.13)" fill="#f0d0b4"/>
        </g>
        <g id="Grupo_69111" data-name="Grupo 69111" transform="translate(25.889 18.338)">
          <circle id="Elipse_5199" data-name="Elipse 5199" cx="6.5" cy="6.5" r="6.5" transform="translate(0.033 -0.416)" fill="#69d6f4"/>
        </g>
        <g id="Grupo_69112" data-name="Grupo 69112" transform="translate(8.63 18.338)">
          <circle id="Elipse_5200" data-name="Elipse 5200" cx="6.5" cy="6.5" r="6.5" transform="translate(0.292 -0.416)" fill="#69d6f4"/>
        </g>
      </g>
      <g id="Grupo_69114" data-name="Grupo 69114">
        <path id="Trazado_128056" data-name="Trazado 128056" d="M13.157,25.315a2.157,2.157,0,1,1,4.315,0v1.079H19.63V25.315a4.315,4.315,0,0,0-8.63,0v1.079h2.157Z" transform="translate(0.866 1.653)"/>
        <path id="Trazado_128057" data-name="Trazado 128057" d="M29.157,25.315a2.157,2.157,0,0,1,4.315,0v1.079H35.63V25.315a4.315,4.315,0,0,0-8.63,0v1.079h2.157Z" transform="translate(2.125 1.653)"/>
        <path id="Trazado_128058" data-name="Trazado 128058" d="M38.393,46.787A5.393,5.393,0,1,0,33,41.393,5.4,5.4,0,0,0,38.393,46.787Zm0-8.63a3.236,3.236,0,1,1-3.236,3.236A3.24,3.24,0,0,1,38.393,38.157Z" transform="translate(2.597 2.833)"/>
        <path id="Trazado_128059" data-name="Trazado 128059" d="M28.787,33H26.63a3.236,3.236,0,0,1-6.472,0H18a5.393,5.393,0,0,0,10.787,0Z" transform="translate(1.416 2.597)"/>
        <path id="Trazado_128060" data-name="Trazado 128060" d="M66.879,43.821l-8.14-9.3H47.462V23.533a3.2,3.2,0,0,0,1.079.2H49.62v1.711a2.6,2.6,0,0,0,4.445,1.841l3.552-3.552h3.868A3.24,3.24,0,0,0,64.722,20.5V3.236A3.24,3.24,0,0,0,61.485,0H48.541a3.24,3.24,0,0,0-3.236,3.236v9.831A22.635,22.635,0,0,0,2.157,22.653V36.7a5.527,5.527,0,0,1-1.12,3.279A5.312,5.312,0,0,0,0,43.148a5.4,5.4,0,0,0,4.389,5.3,6.483,6.483,0,0,0,6.183,5.484,6.465,6.465,0,0,0,5.608,3.239h3.937a13.728,13.728,0,0,0,10.895,5.393h4.582a3.212,3.212,0,0,0,2.158-.842v3a2.16,2.16,0,0,0,2.157,2.157h2.157a2.16,2.16,0,0,0,2.157-2.157V62.564H66.878V43.821Zm-7.551-5.354,4.095,4.68H59.328ZM48.541,44.226a7.551,7.551,0,1,1-7.551-7.551A7.56,7.56,0,0,1,48.541,44.226Zm-6.472,9.708a1.08,1.08,0,0,1,1.079,1.079v2.157a1.08,1.08,0,0,1-1.079,1.079H38.832V55.268l.369-.737a1.073,1.073,0,0,1,.964-.6ZM22.653,43.148A11.88,11.88,0,0,1,10.787,31.282v-.12a7.543,7.543,0,0,0,12.944-5.274V24.81a1.079,1.079,0,0,1,2.157,0v1.079a7.543,7.543,0,0,0,12.944,5.274v.12a11.84,11.84,0,0,1-.579,3.635,9.736,9.736,0,0,0-6.764,7.32,11.758,11.758,0,0,1-4.522.91ZM25.112,16.18h9.406A4.319,4.319,0,0,1,38.833,20.5v.12a7.539,7.539,0,0,0-12.026,1.669,3.163,3.163,0,0,0-3.993,0,7.539,7.539,0,0,0-12.026-1.669V17.826A5.415,5.415,0,0,1,14.7,12.641l1.7-.486a11.523,11.523,0,0,0,8.714,4.026ZM33.439,20.5a5.393,5.393,0,1,1-5.393,5.393A5.4,5.4,0,0,1,33.439,20.5Zm-17.259,0a5.393,5.393,0,1,1-5.393,5.393A5.4,5.4,0,0,1,16.18,20.5ZM31.3,44.614a9.691,9.691,0,0,0,3.6,7.164H32.7a4.2,4.2,0,0,1-4.157-3.67,5.628,5.628,0,0,0-1.192-2.823,13.88,13.88,0,0,0,3.956-.671ZM47.462,3.236a1.08,1.08,0,0,1,1.079-1.079H61.485a1.08,1.08,0,0,1,1.079,1.079V20.5a1.08,1.08,0,0,1-1.079,1.079H56.724l-4.183,4.183a.463.463,0,0,1-.764-.315V21.574H48.541A1.08,1.08,0,0,1,47.462,20.5ZM16.18,55.013a4.31,4.31,0,0,1-3.97-2.624l-.3-.713-.773.061c-.077.006-.152.016-.227.026a.885.885,0,0,1-.12.014,4.319,4.319,0,0,1-4.315-4.315V46.384H5.393a3.24,3.24,0,0,1-3.236-3.236,3.153,3.153,0,0,1,.619-1.884A7.674,7.674,0,0,0,4.315,36.7V22.653a20.5,20.5,0,0,1,40.99,0V34.518H40.99c-.133,0-.262.015-.394.019a13.99,13.99,0,0,0,.394-3.255V20.5a6.479,6.479,0,0,0-6.472-6.472H25.112a9.371,9.371,0,0,1-8.974-6.768l-2.074.592a11.36,11.36,0,0,0,1.023,2.438l-.981.28a7.581,7.581,0,0,0-5.477,7.26V31.282A14.037,14.037,0,0,0,18.941,44.791a5.643,5.643,0,0,0-1.682,4.019,13.655,13.655,0,0,0,1.5,6.2Zm20.494,4.315A1.08,1.08,0,0,1,35.6,60.407H31.012a11.611,11.611,0,0,1-11.6-11.6,3.5,3.5,0,0,1,6.981-.435,6.357,6.357,0,0,0,6.3,5.56h2.9a1.08,1.08,0,0,1,1.079,1.079Zm5.395,5.393H39.912V60.407h2.157Zm2.157-4.315v-.841a3.218,3.218,0,0,0,1.079-2.395V55.013a3.214,3.214,0,0,0-.572-1.831,9.7,9.7,0,0,0,2.345-16.507H57.171v8.63h7.551v15.1Z"/>
        <path id="Trazado_128061" data-name="Trazado 128061" d="M56.369,12.818l-1.525-1.525-4.631,4.631-1.395-1.395-1.525,1.525,2.92,2.92Z" transform="translate(3.722 0.889)"/>
        <path id="Trazado_128062" data-name="Trazado 128062" d="M48.818,11.29l2.473-2.473,2.473,2.473L55.29,9.765,52.817,7.292,55.29,4.818,53.765,3.293,51.292,5.766,48.818,3.293,47.293,4.818l2.473,2.473L47.293,9.765Z" transform="translate(3.722 0.259)"/>
        <path id="Trazado_128063" data-name="Trazado 128063" d="M49,44h9.708v2.157H49Z" transform="translate(3.856 3.462)"/>
        <path id="Trazado_128064" data-name="Trazado 128064" d="M49,48h9.708v2.157H49Z" transform="translate(3.856 3.777)"/>
        <path id="Trazado_128065" data-name="Trazado 128065" d="M49,52h9.708v2.157H49Z" transform="translate(3.856 4.092)"/>
      </g>
    </g>
    <rect id="Rectángulo_7973" data-name="Rectángulo 7973" width="87" height="87" transform="translate(1043 2885)" fill="none"/>
  </g>
</svg>
