<svg xmlns="http://www.w3.org/2000/svg" width="87" height="87" viewBox="0 0 87 87">
  <g id="Grupo_72400" data-name="Grupo 72400" transform="translate(-1043 -2558)">
    <g id="estadistica" transform="translate(1050 2571.217)">
      <path id="Trazado_128035" data-name="Trazado 128035" d="M223.9,241.6H211V212.933a1.433,1.433,0,0,1,1.433-1.433h10.032a1.433,1.433,0,0,1,1.433,1.433Zm0,0" transform="translate(-180.76 -181.188)" fill="#ffca28"/>
      <path id="Trazado_128036" data-name="Trazado 128036" d="M271,211.5v30.1h4.3V212.933a1.433,1.433,0,0,0-1.433-1.433Zm0,0" transform="translate(-232.161 -181.188)" fill="#ffb300"/>
      <path id="Trazado_128037" data-name="Trazado 128037" d="M357.9,130.228H345V82.933a1.433,1.433,0,0,1,1.433-1.433h10.032a1.433,1.433,0,0,1,1.433,1.433Zm0,0" transform="translate(-295.555 -69.82)" fill="#42a5f5"/>
      <path id="Trazado_128038" data-name="Trazado 128038" d="M405,81.5v48.728h4.3V82.933a1.433,1.433,0,0,0-1.433-1.433Zm0,0" transform="translate(-346.956 -69.82)" fill="#2196f3"/>
      <path id="Trazado_128039" data-name="Trazado 128039" d="M89.9,318.7H77V302.933a1.433,1.433,0,0,1,1.433-1.433H88.465a1.433,1.433,0,0,1,1.433,1.433Zm0,0" transform="translate(-65.965 -258.29)" fill="#ff5622"/>
      <path id="Trazado_128040" data-name="Trazado 128040" d="M137,301.5v17.2h4.3V302.933a1.433,1.433,0,0,0-1.433-1.433Zm0,0" transform="translate(-117.365 -258.29)" fill="#e8491d"/>
      <path id="Trazado_128041" data-name="Trazado 128041" d="M76.579,425.8H9.65a2.15,2.15,0,0,1,0-4.3h66.93a2.15,2.15,0,0,1,0,4.3Zm0,0" transform="translate(-6.425 -361.091)" fill="#d4d4d4"/>
      <path id="Trazado_128042" data-name="Trazado 128042" d="M463.8,421.5h-4.3a2.15,2.15,0,0,1,0,4.3h4.3a2.15,2.15,0,0,0,0-4.3Zm0,0" transform="translate(-393.645 -361.091)" fill="#bdbdbd"/>
      <path id="Trazado_128043" data-name="Trazado 128043" d="M145.974,32.507l-21.955,16.1,15.929-22.15Zm0,0" transform="translate(-106.245 -22.669)" fill="#8cf2ff"/>
      <path id="Trazado_128044" data-name="Trazado 128044" d="M218.462,20.6,205.406,7.5h13.055Zm0,0" transform="translate(-175.968 -6.425)" fill="#bdf9ff"/>
      <path id="Trazado_128045" data-name="Trazado 128045" d="M70.154,122.728H63.418V87.088a1.075,1.075,0,0,0-2.15,0v35.64H50.52V76.508a.359.359,0,0,1,.358-.358H60.91a.359.359,0,0,1,.358.358v5.961a1.075,1.075,0,0,0,2.15,0V76.508A2.511,2.511,0,0,0,60.91,74H50.878a2.511,2.511,0,0,0-2.508,2.508v46.22H44.214V95.139a2.511,2.511,0,0,0-2.508-2.508H31.673a2.511,2.511,0,0,0-2.508,2.508v27.589H25.009v-14.69A2.511,2.511,0,0,0,22.5,105.53H12.469a2.511,2.511,0,0,0-2.508,2.508v6.508a1.075,1.075,0,1,0,2.15,0v-6.508a.359.359,0,0,1,.358-.358H22.5a.359.359,0,0,1,.358.358v14.69H12.11v-3.583a1.075,1.075,0,1,0-2.15,0v3.583H3.225a3.225,3.225,0,1,0,0,6.449H45.843a1.075,1.075,0,1,0,0-2.15H3.225a1.075,1.075,0,1,1,0-2.15h66.93a1.075,1.075,0,1,1,0,2.15H50.429a1.075,1.075,0,1,0,0,2.15H70.154a3.225,3.225,0,1,0,0-6.449Zm-38.839,0V95.139a.359.359,0,0,1,.358-.358H41.706a.359.359,0,0,1,.358.358v27.589Zm0,0" transform="translate(0 -63.394)"/>
      <path id="Trazado_128046" data-name="Trazado 128046" d="M117.6,27.017a1.074,1.074,0,0,0,.635-.208l20.311-14.9,3.011,3.022a1.076,1.076,0,0,0,1.836-.759V1.075A1.075,1.075,0,0,0,142.314,0H129.259a1.076,1.076,0,0,0-.761,1.833l2.969,2.979-14.745,20.5a1.076,1.076,0,0,0,.873,1.7ZM141.239,2.15v9.424L131.847,2.15ZM133,6.356l4,4.015-14.58,10.694Zm0,0" transform="translate(-99.82)"/>
    </g>
    <rect id="Rectángulo_7974" data-name="Rectángulo 7974" width="87" height="87" transform="translate(1043 2558)" fill="none"/>
  </g>
</svg>
