<svg xmlns="http://www.w3.org/2000/svg" width="473.174" height="497.851" viewBox="0 0 473.174 497.851">
  <g id="Grupo_69084" data-name="Grupo 69084" transform="translate(-48 -23.886)">
    <g id="Background_Complete" data-name="Background Complete" transform="translate(48 23.886)">
      <g id="Grupo_68976" data-name="Grupo 68976" transform="translate(60.309 37.902)">
        <path id="Trazado_127905" data-name="Trazado 127905" d="M140.275,134.309h0a38.228,38.228,0,0,1-38.228-38.228h0a38.228,38.228,0,0,1,38.228-38.228h0A38.229,38.229,0,0,1,178.5,96.081h0A38.229,38.229,0,0,1,140.275,134.309Z" transform="translate(-102.047 -57.853)" fill="#ebebeb"/>
        <g id="Grupo_68975" data-name="Grupo 68975" transform="translate(20.133 16.926)">
          <g id="Grupo_68974" data-name="Grupo 68974">
            <rect id="Rectángulo_7826" data-name="Rectángulo 7826" width="7.912" height="25.56" transform="translate(0.761 12.78)" fill="#fff"/>
            <path id="Trazado_127906" data-name="Trazado 127906" d="M124.769,82.455a4.717,4.717,0,1,0-4.679-4.718A4.7,4.7,0,0,0,124.769,82.455Z" transform="translate(-120.09 -73.022)" fill="#fff"/>
          </g>
          <path id="Trazado_127907" data-name="Trazado 127907" d="M139.984,96.7c0-3.593,1.654-5.734,4.821-5.734,2.909,0,4.307,2.055,4.307,5.734v13.417h7.875V93.933c0-6.847-3.881-10.157-9.3-10.157a8.911,8.911,0,0,0-7.7,4.222V84.556h-7.589v25.56h7.589Z" transform="translate(-118.664 -71.776)" fill="#fff"/>
        </g>
      </g>
      <path id="Trazado_127908" data-name="Trazado 127908" d="M183.758,23.886l5.235,9.572,9.571,5.235-9.571,5.235L183.758,53.5l-5.235-9.571-9.571-5.235,9.571-5.235Z" transform="translate(-33.987 -23.886)" fill="#f5f5f5"/>
      <path id="Trazado_127909" data-name="Trazado 127909" d="M379.023,256.273l3.926,7.179,7.179,3.926-7.179,3.926-3.926,7.179L375.1,271.3l-7.179-3.926,7.179-3.926Z" transform="translate(-10.935 3.038)" fill="#ebebeb"/>
      <path id="Trazado_127910" data-name="Trazado 127910" d="M388.342,224.508l1.771,3.239,3.239,1.771-3.239,1.771-1.771,3.239-1.771-3.239-3.239-1.771,3.239-1.771Z" transform="translate(-9.149 -0.642)" fill="#e0e0e0"/>
      <path id="Trazado_127911" data-name="Trazado 127911" d="M149.234,27.112l1.771,3.239,3.239,1.771-3.239,1.771-1.771,3.239-1.771-3.239-3.239-1.771,3.239-1.771Z" transform="translate(-36.852 -23.512)" fill="#e0e0e0"/>
      <g id="Grupo_68978" data-name="Grupo 68978" transform="translate(0 282.207)">
        <g id="Grupo_68977" data-name="Grupo 68977">
          <path id="Trazado_127912" data-name="Trazado 127912" d="M71.581,299.071a11.573,11.573,0,0,0,6.758-10.795c-.057-6.393-4.962-11.535-10.957-11.484s-10.807,5.272-10.75,11.665a11.553,11.553,0,0,0,7.056,10.716c-16.669,2.733-15.677,20.874-15.677,20.874l39.5-.329S88.17,301.357,71.581,299.071Z" transform="translate(-48 -276.792)" fill="#e0e0e0"/>
        </g>
      </g>
      <g id="Grupo_68979" data-name="Grupo 68979" transform="translate(378.06 419.121)">
        <path id="Trazado_127913" data-name="Trazado 127913" d="M411.165,404.453a6.148,6.148,0,0,0-12.125.36,6.148,6.148,0,0,0-12.127-.254,8.3,8.3,0,0,0,1.49,5.988,24.707,24.707,0,0,0,4.335,4.582c2.207,1.964,4.247,3.811,6.454,5.775,2.189-1.983,4.052-3.848,6.241-5.83a24.589,24.589,0,0,0,4.295-4.621A8.3,8.3,0,0,0,411.165,404.453Z" transform="translate(-386.806 -399.49)" fill="#ebebeb"/>
      </g>
      <g id="Grupo_68982" data-name="Grupo 68982" transform="translate(415.566 164.793)">
        <g id="Grupo_68980" data-name="Grupo 68980" transform="translate(12.576)">
          <path id="Trazado_127914" data-name="Trazado 127914" d="M431.688,195.65l4.231-.839,6.684-14.7-1.676-8.448s6.462-1.7,7.886,9.515,1.7,8.233,1.7,8.233,13.9-2.7,15.294-1.723c1.013.71,4.129,14.431,5.758,21.885a8.26,8.26,0,0,1-4.122,9.3,6.219,6.219,0,0,1-1.455.5c-3.465.687-21.724,1.38-21.724,1.38l-7.31,1.449Z" transform="translate(-431.688 -171.569)" fill="#e0e0e0"/>
        </g>
        <g id="Grupo_68981" data-name="Grupo 68981" transform="translate(0 22.795)">
          <path id="Trazado_127915" data-name="Trazado 127915" d="M420.418,193.368l8.343,28.429,7.248-1.437L430.384,192Z" transform="translate(-420.418 -191.997)" fill="#e0e0e0"/>
        </g>
      </g>
    </g>
    <g id="Icons" transform="translate(48.293 115.483)">
      <g id="Grupo_68983" data-name="Grupo 68983" transform="translate(319.983)">
        <path id="Trazado_127916" data-name="Trazado 127916" d="M400.2,192.092h0a45.337,45.337,0,0,1-60.6-20.941h0a45.337,45.337,0,0,1,20.941-60.6h0a45.339,45.339,0,0,1,60.6,20.941h0A45.339,45.339,0,0,1,400.2,192.092Z" transform="translate(-335.022 -105.973)" fill="#529ad9"/>
        <path id="Trazado_127917" data-name="Trazado 127917" d="M366.928,159.551a1.065,1.065,0,0,0,1.055-1.373c-.11-.549-.405-1.929-.519-2.508-.153-.79-.344-1-1.154-1.355a8.931,8.931,0,0,1-4.488-4.564c-3.419-7.029-1.221-15.879,7.215-19.982,7.468-3.632,13.792-1.065,16.757,5.033,3.9,8.019,3.643,16.512-1.626,19.076a4.788,4.788,0,0,1-7-3.22c-.875-3.932-1.107-8.522-2.344-11.066-1.107-2.276-3.253-3.582-5.782-2.351-2.975,1.446-3.868,5.686-1.863,9.808a11.9,11.9,0,0,0,3.03,3.969s3.229,14.379,3.794,16.9c1.124,5.015,4.709,10.091,5.057,10.61a.411.411,0,0,0,.739-.161c.1-.492,1.515-6.589.592-11.545-.259-1.4-1.76-8.6-1.76-8.6,1.862,1.374,5.477,1.621,8.479.162,8.943-4.35,11.044-15.45,5.737-26.361-4.013-8.251-14.736-12.536-25.358-7.37-13.215,6.427-15.271,19.143-11.427,27.044C358.391,156.48,362.273,159.855,366.928,159.551Z" transform="translate(-332.784 -104.069)" fill="#fff"/>
      </g>
      <g id="Grupo_68985" data-name="Grupo 68985" transform="translate(410.325 153.514)">
        <path id="Trazado_127918" data-name="Trazado 127918" d="M436.1,304.035h0a31.27,31.27,0,0,1-18.049-40.371h0a31.27,31.27,0,0,1,40.371-18.049h0a31.27,31.27,0,0,1,18.049,40.371h0A31.269,31.269,0,0,1,436.1,304.035Z" transform="translate(-415.985 -243.548)" fill="#50e867"/>
        <g id="Grupo_68984" data-name="Grupo 68984" transform="translate(9.133 14.243)">
          <path id="Trazado_127919" data-name="Trazado 127919" d="M462.638,278.656a16.844,16.844,0,0,0-31.33-12.3c-.094.225-.189.451-.276.68a16.59,16.59,0,0,0-.828,8.925l-6.036,7.29,9.77.56a16.862,16.862,0,0,0,28.554-4.754C462.543,278.924,462.595,278.791,462.638,278.656Zm-20.89,7.513a14.1,14.1,0,0,1-6.446-4.952l-5.7-.321,3.512-4.246a13.909,13.909,0,0,1,.423-8.658,13.039,13.039,0,0,1,.552-1.249,14.165,14.165,0,0,1,26.247,10.316c-.1.35-.214.694-.347,1.04A14.119,14.119,0,0,1,441.748,286.169Z" transform="translate(-424.169 -256.312)" fill="#fff" fill-rule="evenodd"/>
          <path id="Trazado_127920" data-name="Trazado 127920" d="M451.116,278.175c-.317-.34-1.856-1.992-2.161-2.252s-.538-.425-.942-.141-1.477.861-1.794,1.028-.558.115-.876-.225a11.192,11.192,0,0,1-2.375-3.084,12.26,12.26,0,0,1-1.133-3.464c-.075-.466.2-.6.468-.715.244-.109.555-.3.838-.447.077-.047.144-.089.21-.132a4.5,4.5,0,0,0,.418-.364A.738.738,0,0,0,444,267.7c-.022-.229-.076-2.409-.107-3.3s-.4-.878-.627-.966-.464-.219-.722-.318a1.529,1.529,0,0,0-1.214.085,4.587,4.587,0,0,0-2.569,2.681,5.212,5.212,0,0,0-.3,1.38,9.286,9.286,0,0,0,.365,3.177c.095.324,1.044,5.26,4.374,8.3s3.537,2.516,4.269,2.72a4.118,4.118,0,0,0,3.3-.826,3.379,3.379,0,0,0,.923-1.732C451.647,278.707,451.425,278.513,451.116,278.175Z" transform="translate(-422.516 -255.534)" fill="#fff" fill-rule="evenodd"/>
        </g>
      </g>
      <g id="Grupo_68986" data-name="Grupo 68986" transform="translate(0 21.794)">
        <path id="Trazado_127921" data-name="Trazado 127921" d="M72.107,173.192h0a23.844,23.844,0,0,1-23.844-23.845h0A23.844,23.844,0,0,1,72.107,125.5h0a23.844,23.844,0,0,1,23.845,23.844h0A23.844,23.844,0,0,1,72.107,173.192Z" transform="translate(-48.263 -125.504)" fill="#32526e"/>
        <path id="Trazado_127922" data-name="Trazado 127922" d="M58.246,155.927a14.825,14.825,0,0,0,22.807-13.165,10.566,10.566,0,0,0,2.6-2.7,10.408,10.408,0,0,1-2.994.82A5.225,5.225,0,0,0,82.952,138a10.472,10.472,0,0,1-3.31,1.265,5.217,5.217,0,0,0-8.883,4.755,14.793,14.793,0,0,1-10.743-5.448,5.22,5.22,0,0,0,1.612,6.961,5.184,5.184,0,0,1-2.361-.653,5.217,5.217,0,0,0,4.181,5.178,5.218,5.218,0,0,1-2.353.089,5.214,5.214,0,0,0,4.868,3.62A10.474,10.474,0,0,1,58.246,155.927Z" transform="translate(-47.106 -124.1)" fill="#fff"/>
      </g>
      <g id="Grupo_68988" data-name="Grupo 68988" transform="translate(16.099 255.562)">
        <path id="Trazado_127923" data-name="Trazado 127923" d="M113.285,416.026h0a41.067,41.067,0,0,1-49.466-30.432h0a41.068,41.068,0,0,1,30.433-49.467h0a41.068,41.068,0,0,1,49.467,30.433h0A41.067,41.067,0,0,1,113.285,416.026Z" transform="translate(-62.691 -335)" fill="#455a64"/>
        <g id="Grupo_68987" data-name="Grupo 68987" transform="translate(16.772 16.773)">
          <path id="Trazado_127924" data-name="Trazado 127924" d="M97.748,356.377c5.849-1.393,6.547-1.535,8.881-1.981a12.481,12.481,0,0,1,4.248-.214,7.459,7.459,0,0,1,5.147,3.167,12.5,12.5,0,0,1,1.723,3.888c.655,2.285.844,2.973,2.236,8.821s1.535,6.547,1.981,8.882a12.484,12.484,0,0,1,.215,4.247,7.454,7.454,0,0,1-3.167,5.146,12.456,12.456,0,0,1-3.888,1.724c-2.285.655-2.972.842-8.821,2.236s-6.548,1.535-8.882,1.982a12.436,12.436,0,0,1-4.247.213,7.453,7.453,0,0,1-5.147-3.166,12.475,12.475,0,0,1-1.723-3.888c-.656-2.285-.844-2.973-2.236-8.821s-1.537-6.547-1.982-8.882a12.474,12.474,0,0,1-.214-4.247,7.459,7.459,0,0,1,3.167-5.147,12.476,12.476,0,0,1,3.888-1.723c2.284-.656,2.973-.844,8.821-2.237m-.94-3.946c-5.95,1.417-6.69,1.62-9,2.283A16.508,16.508,0,0,0,82.734,357a11.5,11.5,0,0,0-4.88,7.933,16.5,16.5,0,0,0,.248,5.559c.45,2.361.6,3.113,2.02,9.062s1.62,6.69,2.283,9a16.508,16.508,0,0,0,2.285,5.074,11.511,11.511,0,0,0,7.932,4.881,16.57,16.57,0,0,0,5.56-.249c2.361-.45,3.113-.6,9.062-2.02s6.688-1.62,9-2.283a16.52,16.52,0,0,0,5.074-2.285,11.51,11.51,0,0,0,4.881-7.933,16.563,16.563,0,0,0-.249-5.559c-.45-2.361-.6-3.113-2.02-9.062s-1.62-6.69-2.283-9a16.52,16.52,0,0,0-2.285-5.074,11.51,11.51,0,0,0-7.933-4.881,16.563,16.563,0,0,0-5.559.249c-2.362.45-3.113.6-9.062,2.02" transform="translate(-77.722 -350.031)" fill="#fff"/>
          <path id="Trazado_127925" data-name="Trazado 127925" d="M98.025,361.765a11.563,11.563,0,1,0,13.927,8.569,11.562,11.562,0,0,0-13.927-8.569m4.419,18.549A7.505,7.505,0,1,1,108,371.273a7.505,7.505,0,0,1-5.561,9.041" transform="translate(-76.399 -348.708)" fill="#fff"/>
          <path id="Trazado_127926" data-name="Trazado 127926" d="M110.395,358.492a2.7,2.7,0,1,1-3.255-2,2.7,2.7,0,0,1,3.255,2" transform="translate(-74.554 -349.291)" fill="#fff"/>
        </g>
      </g>
      <g id="Grupo_68989" data-name="Grupo 68989" transform="translate(358.616 262.14)">
        <path id="Trazado_127927" data-name="Trazado 127927" d="M388.8,379.2h0a19.152,19.152,0,0,1-19.151-19.153h0A19.151,19.151,0,0,1,388.8,340.895h0a19.151,19.151,0,0,1,19.151,19.151h0A19.152,19.152,0,0,1,388.8,379.2Z" transform="translate(-369.644 -340.895)" fill="#455a64"/>
        <path id="Trazado_127928" data-name="Trazado 127928" d="M384.443,370.837H389.1V359.162h3.253l.347-3.909h-3.6v-2.226c0-.922.185-1.285,1.077-1.285H392.7v-4.057h-3.228c-3.469,0-5.034,1.529-5.034,4.452v3.117h-2.425v3.958h2.425Z" transform="translate(-368.21 -340.108)" fill="#fff"/>
      </g>
    </g>
    <g id="Device" transform="translate(173.383 68.878)">
      <g id="Grupo_69055" data-name="Grupo 69055">
        <g id="Grupo_69054" data-name="Grupo 69054">
          <g id="Grupo_69049" data-name="Grupo 69049">
            <g id="Grupo_68997" data-name="Grupo 68997">
              <g id="Grupo_68996" data-name="Grupo 68996">
                <g id="Grupo_68992" data-name="Grupo 68992">
                  <g id="Grupo_68991" data-name="Grupo 68991">
                    <g id="Grupo_68990" data-name="Grupo 68990">
                      <path id="Trazado_127929" data-name="Trazado 127929" d="M347.723,517.066l-153.862-.09a33.516,33.516,0,0,1-33.5-33.523l.076-385.735a33.517,33.517,0,0,1,33.535-33.51l153.863.091a33.516,33.516,0,0,1,33.5,33.523l-.076,385.737A33.513,33.513,0,0,1,347.723,517.066Z" transform="translate(-160.365 -64.207)" fill="#263238"/>
                    </g>
                  </g>
                </g>
                <g id="Grupo_68995" data-name="Grupo 68995" transform="translate(10.196 13.645)">
                  <g id="Grupo_68994" data-name="Grupo 68994">
                    <g id="Grupo_68993" data-name="Grupo 68993">
                      <path id="Trazado_127930" data-name="Trazado 127930" d="M346.617,76.524l-29.831-.017a7.41,7.41,0,0,0-7.244,7.568l0,5.412a7.41,7.41,0,0,1-7.244,7.568l-58.148-.035a7.417,7.417,0,0,1-7.242-7.577V84.033a7.417,7.417,0,0,0-7.243-7.577l-10.491-.007-26.109-.015A23.472,23.472,0,0,0,169.576,99.9L169.5,476.409a23.473,23.473,0,0,0,23.459,23.479l153.555.089A23.472,23.472,0,0,0,370,476.509L370.075,100A23.472,23.472,0,0,0,346.617,76.524Z" transform="translate(-169.502 -76.435)" fill="#fff"/>
                    </g>
                  </g>
                </g>
              </g>
            </g>
            <g id="Grupo_69007" data-name="Grupo 69007" transform="translate(172.226 44.197)">
              <g id="Grupo_69000" data-name="Grupo 69000">
                <g id="Grupo_68999" data-name="Grupo 68999">
                  <g id="Grupo_68998" data-name="Grupo 68998">
                    <path id="Trazado_127931" data-name="Trazado 127931" d="M332.039,103.94c0,.1-3.878.214-8.664.254s-8.666-.01-8.667-.112,3.878-.214,8.665-.254S332.039,103.838,332.039,103.94Z" transform="translate(-314.709 -103.815)" fill="#263238"/>
                  </g>
                </g>
              </g>
              <g id="Grupo_69003" data-name="Grupo 69003" transform="translate(0.037 4.434)">
                <g id="Grupo_69002" data-name="Grupo 69002">
                  <g id="Grupo_69001" data-name="Grupo 69001">
                    <path id="Trazado_127932" data-name="Trazado 127932" d="M332.072,107.914c0,.1-3.879.214-8.663.254s-8.666-.011-8.667-.112,3.878-.215,8.664-.254S332.071,107.812,332.072,107.914Z" transform="translate(-314.742 -107.789)" fill="#263238"/>
                  </g>
                </g>
              </g>
              <g id="Grupo_69006" data-name="Grupo 69006" transform="translate(0.074 8.868)">
                <g id="Grupo_69005" data-name="Grupo 69005">
                  <g id="Grupo_69004" data-name="Grupo 69004">
                    <path id="Trazado_127933" data-name="Trazado 127933" d="M332.105,111.887c0,.1-3.879.215-8.664.254s-8.667-.01-8.667-.11,3.878-.215,8.664-.254S332.1,111.786,332.105,111.887Z" transform="translate(-314.775 -111.763)" fill="#263238"/>
                  </g>
                </g>
              </g>
            </g>
            <g id="Grupo_69010" data-name="Grupo 69010" transform="translate(26.162 39.233)">
              <g id="Grupo_69009" data-name="Grupo 69009">
                <g id="Grupo_69008" data-name="Grupo 69008">
                  <path id="Trazado_127934" data-name="Trazado 127934" d="M184.043,117.648a3.559,3.559,0,0,1,.454-.03l1.263-.041,4.664-.112-.129.132q-.025-1.552-.055-3.382c.007-.628-.054-1.221.007-1.947a1.793,1.793,0,0,1,1.566-1.437c.751-.015,1.413-.049,2.227-.011a1.811,1.811,0,0,1,1.53,1.8c.018,1.577.037,3.224.056,4.932l-.216-.212,5.883-.06-.223.228c-.021-2.369-.043-4.819-.066-7.33q-.007-.939-.016-1.867a1.9,1.9,0,0,0-.827-1.39l-2.572-2.535q-1.264-1.245-2.481-2.448l-1.2-1.187c-.413-.4-.738-.81-1.216-.908a1.585,1.585,0,0,0-1.35.258c-.356.3-.735.728-1.095,1.077q-1.086,1.1-2.111,2.129c-1.328,1.379-2.71,2.639-3.716,3.831a4.159,4.159,0,0,0-.3,2.195q0,1.095,0,2.073-.012,1.906-.021,3.34c-.01.853-.018,1.558-.023,2.135a7.575,7.575,0,0,1-.029.77,5.609,5.609,0,0,1-.04-.707c-.016-.568-.036-1.262-.059-2.1q-.032-1.443-.076-3.365-.018-1-.039-2.115-.008-.564-.018-1.156a2.447,2.447,0,0,1,.325-1.232c1.088-1.333,2.387-2.514,3.725-3.933l2.094-2.146c.377-.37.686-.739,1.136-1.125a2,2,0,0,1,1.705-.336,3.177,3.177,0,0,1,1.413,1.01l1.207,1.183q1.22,1.2,2.489,2.44l2.577,2.53a4.9,4.9,0,0,1,.657.712,1.926,1.926,0,0,1,.308.992q.008.932.017,1.876c.019,2.511.038,4.961.056,7.331l0,.225H201.3l-5.884.038H195.2v-.214c-.009-1.707-.017-3.355-.026-4.932a1.419,1.419,0,0,0-1.188-1.428c-.677-.036-1.475-.012-2.133-.007a1.444,1.444,0,0,0-1.269,1.144c-.057.591-.013,1.281-.026,1.88q0,1.828,0,3.382v.132h-.129l-4.741-.033-1.234-.021A2.318,2.318,0,0,1,184.043,117.648Z" transform="translate(-183.811 -99.366)" fill="#263238"/>
                </g>
              </g>
            </g>
            <g id="Grupo_69029" data-name="Grupo 69029" transform="translate(22.44 338.05)">
              <g id="Grupo_69015" data-name="Grupo 69015" transform="translate(64.425 13.377)">
                <g id="Grupo_69014" data-name="Grupo 69014">
                  <g id="Grupo_69011" data-name="Grupo 69011">
                    <path id="Trazado_127935" data-name="Trazado 127935" d="M279.24,379.436a8.559,8.559,0,0,1-1.612.114l-4.4.093c-3.712.052-8.841.085-14.505.085s-10.795-.032-14.506-.085l-4.4-.093a8.559,8.559,0,0,1-1.612-.114,8.612,8.612,0,0,1,1.612-.113l4.4-.093c3.711-.052,8.841-.085,14.506-.085s10.793.032,14.505.085l4.4.093A8.612,8.612,0,0,1,279.24,379.436Z" transform="translate(-238.211 -379.146)" fill="#455a64"/>
                  </g>
                  <g id="Grupo_69012" data-name="Grupo 69012" transform="translate(0 10.094)">
                    <path id="Trazado_127936" data-name="Trazado 127936" d="M343.727,388.482c0,.161-23.623.29-52.755.29s-52.76-.129-52.76-.29,23.617-.29,52.76-.29S343.727,388.321,343.727,388.482Z" transform="translate(-238.211 -388.192)" fill="#455a64"/>
                  </g>
                  <g id="Grupo_69013" data-name="Grupo 69013" transform="translate(0 19.589)">
                    <path id="Trazado_127937" data-name="Trazado 127937" d="M310.753,396.992c0,.16-16.24.29-36.269.29s-36.273-.13-36.273-.29,16.237-.291,36.273-.291S310.753,396.832,310.753,396.992Z" transform="translate(-238.211 -396.701)" fill="#455a64"/>
                  </g>
                </g>
              </g>
              <g id="Grupo_69016" data-name="Grupo 69016" transform="translate(165.627 42.153)">
                <path id="Trazado_127938" data-name="Trazado 127938" d="M335.3,414.521l-3.278-3.288-3.121,3.113.014-9.412,6.4.01Zm-3.277-3.7.1.1,2.886,2.9.013-8.589-5.82-.009-.013,8.424Z" transform="translate(-328.905 -404.934)" fill="#263238"/>
              </g>
              <g id="Grupo_69017" data-name="Grupo 69017" transform="translate(78.836 44.029)">
                <path id="Trazado_127939" data-name="Trazado 127939" d="M257.02,413.1l-1.156-.515a3.169,3.169,0,1,1,1.689-2.784,3.2,3.2,0,0,1-.8,2.142Zm-2.7-6.267a2.993,2.993,0,0,0,.048,5.987,3.087,3.087,0,0,0,1.441-.454l.048-.028.854.382-.194-.839.039-.042a2.989,2.989,0,0,0-2.235-5Z" transform="translate(-251.126 -406.616)" fill="#263238"/>
              </g>
              <g id="Grupo_69018" data-name="Grupo 69018" transform="translate(88.356 44.469)">
                <path id="Trazado_127940" data-name="Trazado 127940" d="M263.47,412.56l-1.327-3.236-2.486-2.266,6.031-.048Zm-3.249-5.286,2.118,1.944,1.129,2.756,1.895-4.741Z" transform="translate(-259.657 -407.01)" fill="#263238"/>
              </g>
              <g id="Grupo_69019" data-name="Grupo 69019" transform="translate(90.978 44.469)">
                <rect id="Rectángulo_7827" data-name="Rectángulo 7827" width="3.923" height="0.22" transform="translate(0 2.14) rotate(-33.054)" fill="#263238"/>
              </g>
              <g id="Grupo_69020" data-name="Grupo 69020" transform="translate(67.851 43.695)">
                <path id="Trazado_127941" data-name="Trazado 127941" d="M248.671,407.815a1.866,1.866,0,0,0-3.679.123,1.866,1.866,0,0,0-3.68-.064,2.518,2.518,0,0,0,.459,1.815,7.491,7.491,0,0,0,1.32,1.385c.672.594,1.293,1.152,1.965,1.745.662-.6,1.225-1.172,1.887-1.776a7.419,7.419,0,0,0,1.3-1.406A2.525,2.525,0,0,0,248.671,407.815Z" transform="translate(-241.281 -406.316)" fill="#e8505b"/>
              </g>
              <g id="Grupo_69021" data-name="Grupo 69021">
                <path id="Trazado_127942" data-name="Trazado 127942" d="M359.221,427.225s-.013-.362-.02-1.05-.011-1.717-.02-3.053c-.011-2.693-.027-6.653-.047-11.781-.025-10.256-.06-25.176-.1-43.892l.192.192-178.445.1h-.011l.291-.291c0,20.774-.007,40.925-.01,59.777l-.281-.281,127.692.131,37.275.078,10,.037,2.592.018c.585.006.893.018.893.018s-.283.011-.857.018l-2.56.018-9.942.036-37.212.079-127.885.131h-.281v-.281c0-18.851-.006-39-.009-59.777v-.29h.3l178.445.1h.192v.191c-.045,18.765-.08,33.725-.1,44.007-.02,5.111-.036,9.055-.047,11.738q-.013,1.982-.02,3.02C359.233,426.889,359.221,427.225,359.221,427.225Z" transform="translate(-180.475 -367.158)" fill="#263238"/>
              </g>
              <g id="Grupo_69028" data-name="Grupo 69028" transform="translate(7.191 10.016)">
                <g id="Grupo_69025" data-name="Grupo 69025">
                  <g id="Grupo_69024" data-name="Grupo 69024">
                    <g id="Grupo_69023" data-name="Grupo 69023">
                      <rect id="Rectángulo_7828" data-name="Rectángulo 7828" width="39.52" height="49.432" transform="matrix(0.006, -1, 1, 0.006, 0.296, 39.781)" fill="#ebebeb"/>
                      <g id="Grupo_69022" data-name="Grupo 69022">
                        <path id="Trazado_127943" data-name="Trazado 127943" d="M236.871,376.677a1.955,1.955,0,0,1-.248.013l-.7.011-2.7.016-10.135.011-35.651-.073.261-.259c-.058,11.767-.124,25.249-.194,39.516.061.069-.541-.55-.28-.289h.416l.427,0,.856,0,1.7.01,3.383.02,6.661.04,12.825.083,23.151.167-.243.24c.119-11.866.219-21.711.288-28.623.047-3.437.083-6.143.108-8.023q.025-1.362.039-2.126c.012-.483.031-.745.031-.745s.017.228.022.694q.007.748.016,2.08c0,1.867.01,4.556.018,7.969-.01,6.948-.023,16.846-.039,28.777v.241h-.243l-23.15-.1-12.826-.062-6.661-.036-3.383-.019-1.7-.009-.856,0-.427,0h-.416c.254.261-.363-.354-.3-.3.093-14.267.18-27.749.256-39.515v-.261l.26,0,35.818.334,10.076.126,2.647.046.672.019A.956.956,0,0,1,236.871,376.677Z" transform="translate(-186.92 -376.134)" fill="#263238"/>
                      </g>
                    </g>
                  </g>
                </g>
                <rect id="Rectángulo_7829" data-name="Rectángulo 7829" width="34.544" height="45.959" transform="matrix(0.006, -1, 1, 0.006, 2.014, 37.303)" fill="#e0e0e0"/>
                <path id="Trazado_127944" data-name="Trazado 127944" d="M188.725,411.784,204.9,390.4l9.867,13.49,6.785-7.143,13.132,15.295Z" transform="translate(-186.711 -374.481)" fill="#f5f5f5"/>
                <g id="Grupo_69027" data-name="Grupo 69027" transform="translate(25.131 9.734)">
                  <g id="Grupo_69026" data-name="Grupo 69026">
                    <path id="Trazado_127945" data-name="Trazado 127945" d="M216.678,388.5a3.619,3.619,0,1,1-3.6-3.639A3.621,3.621,0,0,1,216.678,388.5Z" transform="translate(-209.441 -384.857)" fill="#f5f5f5"/>
                  </g>
                </g>
              </g>
            </g>
            <g id="Grupo_69044" data-name="Grupo 69044" transform="translate(29.607 84.19)">
              <g id="Grupo_69039" data-name="Grupo 69039">
                <g id="Grupo_69032" data-name="Grupo 69032" transform="translate(31.946 7.762)">
                  <g id="Grupo_69031" data-name="Grupo 69031">
                    <g id="Grupo_69030" data-name="Grupo 69030">
                      <path id="Trazado_127946" data-name="Trazado 127946" d="M267.481,146.9a1.825,1.825,0,0,1-.528.059l-1.513.055-5.567.092c-4.7.054-11.2.086-18.368.086s-13.669-.032-18.37-.086l-5.566-.092-1.514-.055a1.825,1.825,0,0,1-.528-.059,1.858,1.858,0,0,1,.528-.058l1.514-.055,5.566-.093c4.7-.052,11.2-.085,18.37-.085s13.667.032,18.368.085l5.567.093,1.513.055A1.858,1.858,0,0,1,267.481,146.9Z" transform="translate(-215.527 -146.612)" fill="#263238"/>
                    </g>
                  </g>
                </g>
                <g id="Grupo_69038" data-name="Grupo 69038" transform="translate(0 211.617)">
                  <g id="Grupo_69033" data-name="Grupo 69033" transform="translate(147.417 0.652)">
                    <path id="Trazado_127947" data-name="Trazado 127947" d="M328.519,344.132l-4.871-4.886-4.64,4.626.022-13.987,9.51.015Zm-4.87-5.495.152.151,4.289,4.3.02-12.763-8.65-.013-.02,12.519Z" transform="translate(-319.009 -329.885)" fill="#263238"/>
                  </g>
                  <g id="Grupo_69034" data-name="Grupo 69034" transform="translate(21.624 0.66)">
                    <path id="Trazado_127948" data-name="Trazado 127948" d="M217.879,342.66l-2.277-1.015a6.237,6.237,0,1,1,3.326-5.479,6.3,6.3,0,0,1-1.574,4.218Zm-5.324-12.335a5.892,5.892,0,1,0,.095,11.783,6.072,6.072,0,0,0,2.838-.895l.094-.052,1.678.749-.379-1.649.076-.084a5.885,5.885,0,0,0-4.4-9.852Z" transform="translate(-206.277 -329.892)" fill="#263238"/>
                  </g>
                  <g id="Grupo_69035" data-name="Grupo 69035" transform="translate(40.362 1.526)">
                    <path id="Trazado_127949" data-name="Trazado 127949" d="M230.573,341.593l-2.61-6.37-4.894-4.46,11.87-.095Zm-6.4-10.407,4.169,3.826,2.223,5.426,3.729-9.334Z" transform="translate(-223.069 -330.668)" fill="#263238"/>
                  </g>
                  <g id="Grupo_69036" data-name="Grupo 69036" transform="translate(45.522 1.524)">
                    <rect id="Rectángulo_7830" data-name="Rectángulo 7830" width="7.722" height="0.434" transform="matrix(0.838, -0.545, 0.545, 0.838, 0, 4.211)" fill="#263238"/>
                  </g>
                  <g id="Grupo_69037" data-name="Grupo 69037">
                    <path id="Trazado_127950" data-name="Trazado 127950" d="M201.443,332.251a3.672,3.672,0,0,0-7.241.242,3.671,3.671,0,0,0-7.243-.125,4.954,4.954,0,0,0,.9,3.572,14.665,14.665,0,0,0,2.6,2.727c1.322,1.168,2.544,2.267,3.866,3.436,1.3-1.19,2.412-2.306,3.716-3.5a14.719,14.719,0,0,0,2.555-2.768A4.956,4.956,0,0,0,201.443,332.251Z" transform="translate(-186.898 -329.301)" fill="#529ad9"/>
                  </g>
                </g>
                <circle id="Elipse_5195" data-name="Elipse 5195" cx="8.052" cy="8.052" r="8.052" transform="translate(5.411)" fill="#ebebeb"/>
              </g>
              <g id="Grupo_69043" data-name="Grupo 69043" transform="translate(3.063 167.471)">
                <g id="Grupo_69040" data-name="Grupo 69040" transform="translate(0 12.559)">
                  <path id="Trazado_127951" data-name="Trazado 127951" d="M340.467,301.285c0,.161-33.766.29-75.409.29s-75.415-.129-75.415-.29,33.758-.291,75.415-.291S340.467,301.125,340.467,301.285Z" transform="translate(-189.643 -300.994)" fill="#455a64"/>
                </g>
                <g id="Grupo_69041" data-name="Grupo 69041">
                  <path id="Trazado_127952" data-name="Trazado 127952" d="M340.467,290.029c0,.161-33.766.291-75.409.291s-75.415-.131-75.415-.291,33.758-.29,75.415-.29S340.467,289.868,340.467,290.029Z" transform="translate(-189.643 -289.739)" fill="#455a64"/>
                </g>
                <g id="Grupo_69042" data-name="Grupo 69042" transform="translate(0 25.286)">
                  <path id="Trazado_127953" data-name="Trazado 127953" d="M271.738,312.69c0,.161-18.379.291-41.046.291s-41.049-.131-41.049-.291,18.375-.29,41.049-.29S271.738,312.531,271.738,312.69Z" transform="translate(-189.643 -312.4)" fill="#455a64"/>
                </g>
              </g>
            </g>
            <g id="Grupo_69048" data-name="Grupo 69048" transform="translate(98.226 410.81)">
              <g id="Grupo_69045" data-name="Grupo 69045">
                <path id="Trazado_127954" data-name="Trazado 127954" d="M254.8,435.629a3.2,3.2,0,1,1-3.19-3.266A3.227,3.227,0,0,1,254.8,435.629Z" transform="translate(-248.392 -432.363)" fill="#263238"/>
              </g>
              <g id="Grupo_69046" data-name="Grupo 69046" transform="translate(9.929 0.046)">
                <path id="Trazado_127955" data-name="Trazado 127955" d="M263.7,435.67a3.2,3.2,0,1,1-3.19-3.266A3.226,3.226,0,0,1,263.7,435.67Z" transform="translate(-257.29 -432.404)" fill="#263238"/>
              </g>
              <g id="Grupo_69047" data-name="Grupo 69047" transform="translate(19.858 0.092)">
                <path id="Trazado_127956" data-name="Trazado 127956" d="M272.6,435.711a3.2,3.2,0,1,1-3.19-3.266A3.224,3.224,0,0,1,272.6,435.711Z" transform="translate(-266.188 -432.445)" fill="#263238"/>
              </g>
            </g>
          </g>
          <g id="Grupo_69052" data-name="Grupo 69052" transform="translate(23.8 108.179)">
            <rect id="Rectángulo_7831" data-name="Rectángulo 7831" width="178.456" height="109.135" fill="#e0e0e0"/>
            <path id="Trazado_127957" data-name="Trazado 127957" d="M196.457,266.082l51.137-68.445,31.7,42.8,21.487-22.893,42.142,48.492Z" transform="translate(-179.983 -156.927)" fill="#f5f5f5"/>
            <g id="Grupo_69051" data-name="Grupo 69051" transform="translate(89.685 20.785)">
              <g id="Grupo_69050" data-name="Grupo 69050">
                <path id="Trazado_127958" data-name="Trazado 127958" d="M285.133,191.31A11.533,11.533,0,1,1,273.6,179.781,11.532,11.532,0,0,1,285.133,191.31Z" transform="translate(-262.067 -179.781)" fill="#f5f5f5"/>
              </g>
            </g>
          </g>
          <g id="Grupo_69053" data-name="Grupo 69053" transform="translate(23.029 71.578)">
            <path id="Trazado_127959" data-name="Trazado 127959" d="M359.749,375.516c0-2.334-.108-100.924-.263-246.872l.263.264-178.435.027h-.02l.29-.291c-.02,92.325-.039,177.768-.055,246.872l-.235-.237,178.455.237-178.455.237h-.237v-.237c-.016-69.1-.035-154.547-.055-246.872v-.29h.311l178.435.027h.263v.263c-.054,73.046-.1,134.791-.131,178.284-.03,21.715-.054,38.871-.07,50.606-.013,5.852-.025,10.351-.031,13.394q-.01,2.266-.016,3.436C359.759,375.133,359.749,375.516,359.749,375.516Z" transform="translate(-181.003 -128.353)" fill="#263238"/>
          </g>
        </g>
      </g>
    </g>
    <g id="Megaphone" transform="translate(100.453 134.546)">
      <g id="Grupo_69082" data-name="Grupo 69082">
        <g id="Grupo_69076" data-name="Grupo 69076">
          <g id="Grupo_69074" data-name="Grupo 69074">
            <g id="Grupo_69056" data-name="Grupo 69056" transform="translate(118.555 223.119)">
              <path id="Trazado_127960" data-name="Trazado 127960" d="M273.55,383.587l3.948-13.264c.688-2.877,1.6-6.27,2.834-10.142,1.107-3.48,3.946-7.137,6.534-9.77,4.03-4.1,5.946-4.126,8.656-6.3.247-.158.521-.384.754-.51a4.273,4.273,0,0,0,1.317-1.139c2.334-2.525.093-6.433-4.648-6.061-3.57.28-9.39,1.3-18.854,11.065-.118.148-.242.272-.358.424-4.968,6.456-9.632-11.975-10.473-18.836a7.19,7.19,0,0,0-9.718-5.577l-23.055,10.784a10.761,10.761,0,0,0-6.73.228,6.852,6.852,0,0,0-4.392,8.133l9.351,37.327-27.465,91.381h59.2Z" transform="translate(-201.252 -323.009)" fill="#ffbe9d"/>
            </g>
            <g id="Grupo_69072" data-name="Grupo 69072">
              <g id="Grupo_69064" data-name="Grupo 69064">
                <g id="Grupo_69058" data-name="Grupo 69058" transform="translate(132.438 186.868)">
                  <g id="Grupo_69057" data-name="Grupo 69057">
                    <path id="Trazado_127961" data-name="Trazado 127961" d="M317.583,303.424l-18.3,35.856-9.149-2.542-45.99,37.411A9.316,9.316,0,0,1,231.2,373l-17.51-20.348s35.307-15.21,41.837-27.8-1.015-15.446-1.015-15.446l16.617-18.884Z" transform="translate(-213.694 -290.522)" fill="#b2b555"/>
                  </g>
                </g>
                <g id="Grupo_69059" data-name="Grupo 69059">
                  <path id="Trazado_127962" data-name="Trazado 127962" d="M307.6,249.58s-26.785-5.924-64.478-42.17-55.4-84.378-60.016-84.144-24.759-9.118-63.073,74.227-23.222,102.7-15.6,102.543,59.394-14.583,91.729-10.907,73.9,20.528,73.9,20.528Z" transform="translate(-95.007 -123.056)" fill="#b2b555"/>
                </g>
                <g id="Grupo_69060" data-name="Grupo 69060" transform="translate(169.296 110.818)">
                  <path id="Trazado_127963" data-name="Trazado 127963" d="M346.923,283.5l-9.138,17.374-4.094,7.782A22.674,22.674,0,0,1,304.135,318.7l-57.41-20,33.434-76.329,57.357,30.567A22.677,22.677,0,0,1,346.923,283.5Z" transform="translate(-246.725 -222.368)" fill="#e8505b"/>
                </g>
                <g id="Grupo_69061" data-name="Grupo 69061" transform="translate(169.296 110.818)">
                  <path id="Trazado_127964" data-name="Trazado 127964" d="M346.923,283.5l-9.138,17.374-4.094,7.782A22.674,22.674,0,0,1,304.135,318.7l-57.41-20,33.434-76.329,57.357,30.567A22.677,22.677,0,0,1,346.923,283.5Z" transform="translate(-246.725 -222.368)" fill="#f7f5ed"/>
                </g>
                <g id="Grupo_69062" data-name="Grupo 69062" transform="translate(5.017 1.911)">
                  <path id="Trazado_127965" data-name="Trazado 127965" d="M122.608,198.812c-20.39,45.148-28.878,85.38-18.958,89.861s34.492-28.489,54.883-73.637,28.878-85.38,18.958-89.86S143,153.663,122.608,198.812Z" transform="translate(-99.503 -124.769)" fill="#e8505b"/>
                </g>
                <g id="Grupo_69063" data-name="Grupo 69063" transform="translate(5.017 1.911)">
                  <path id="Trazado_127966" data-name="Trazado 127966" d="M122.608,198.812c-20.39,45.148-28.878,85.38-18.958,89.861s34.492-28.489,54.883-73.637,28.878-85.38,18.958-89.86S143,153.663,122.608,198.812Z" transform="translate(-99.503 -124.769)" fill="#f3f095"/>
                </g>
              </g>
              <g id="Grupo_69065" data-name="Grupo 69065" transform="translate(258.861 173.86)">
                <path id="Trazado_127967" data-name="Trazado 127967" d="M342.551,302.061l-15.561-4.887,9.629-18.309,11.67,7.255Z" transform="translate(-326.991 -278.865)" fill="#b2b555"/>
              </g>
              <g id="Grupo_69066" data-name="Grupo 69066" transform="translate(258.861 173.86)" opacity="0.6">
                <path id="Trazado_127968" data-name="Trazado 127968" d="M336.62,278.865l-9.629,18.309,3.2,1.005,7.829-18.446Z" transform="translate(-326.991 -278.865)"/>
              </g>
              <g id="Grupo_69067" data-name="Grupo 69067" transform="translate(223.897 162.723)">
                <path id="Trazado_127969" data-name="Trazado 127969" d="M329.529,284.245c-.229.5-8-2.515-17.344-6.742s-16.752-8.062-16.524-8.564,7.991,2.516,17.345,6.743S329.754,283.743,329.529,284.245Z" transform="translate(-295.656 -268.884)" fill="#b2b555"/>
              </g>
              <g id="Grupo_69068" data-name="Grupo 69068" transform="translate(232.038 152.1)">
                <path id="Trazado_127970" data-name="Trazado 127970" d="M333.468,274.444c-.245.5-7.272-2.466-15.7-6.615s-15.058-7.915-14.813-8.411,7.268,2.468,15.7,6.618S333.712,273.948,333.468,274.444Z" transform="translate(-302.952 -259.364)" fill="#b2b555"/>
              </g>
              <g id="Grupo_69069" data-name="Grupo 69069" transform="translate(220.854 175.739)">
                <path id="Trazado_127971" data-name="Trazado 127971" d="M323.808,294.331c-.083.266-1.93-.162-4.88-1.072-1.473-.455-3.218-1.031-5.15-1.7-1.918-.7-3.91-1.7-6.045-2.669-8.513-3.952-15.013-7.821-14.8-8.28.251-.541,7.2,2.55,15.633,6.463,2.116.959,4.078,2.014,5.929,2.787,1.857.751,3.523,1.452,4.913,2.069C322.193,293.166,323.888,294.067,323.808,294.331Z" transform="translate(-292.929 -280.549)" fill="#b2b555"/>
              </g>
              <g id="Grupo_69070" data-name="Grupo 69070" transform="translate(30.006 62.607)">
                <path id="Trazado_127972" data-name="Trazado 127972" d="M161.586,182.469s-23.28-14.436-36.018,17.017,11.757,36.625,11.757,36.625A209.56,209.56,0,0,0,161.586,182.469Z" transform="translate(-121.897 -179.163)"/>
              </g>
              <g id="Grupo_69071" data-name="Grupo 69071" transform="translate(27.752 28.428)" opacity="0.5">
                <path id="Trazado_127973" data-name="Trazado 127973" d="M186.578,148.533c.136.023-.194,2.159-.912,6.009-.736,3.844-1.778,9.423-3.271,16.273-.984,3.374-2.06,7.058-3.214,11.007q-.875,2.969-1.809,6.131-.469,1.582-.95,3.2c-.348,1.075-.8,2.129-1.206,3.215-1.677,4.327-3.436,8.867-5.259,13.57q-.686,1.766-1.386,3.56c-.453,1.2-1.094,2.332-1.637,3.515q-1.707,3.52-3.459,7.135t-3.471,7.133c-.594,1.159-1.089,2.362-1.752,3.462l-1.942,3.291-7.418,12.527c-.6.99-1.152,2-1.782,2.935q-.979,1.386-1.935,2.734-1.91,2.69-3.707,5.221c-2.395,3.35-4.629,6.478-6.674,9.34-4.451,5.394-8.185,9.649-10.749,12.6-2.58,2.94-4.057,4.524-4.163,4.436s1.168-1.839,3.563-4.931l10.256-13,6.424-9.413q1.737-2.532,3.591-5.229l1.88-2.73c.613-.938,1.147-1.948,1.735-2.938l7.269-12.5,1.913-3.276c.655-1.094,1.142-2.29,1.73-3.444q1.694-3.5,3.436-7.087l3.445-7.08c.543-1.173,1.184-2.3,1.637-3.486s.932-2.361,1.393-3.527c1.848-4.658,3.632-9.152,5.332-13.437.414-1.075.877-2.116,1.236-3.178q.5-1.609.985-3.171.974-3.125,1.892-6.064c1.231-3.9,2.378-7.544,3.431-10.879L184.9,154.39C185.853,150.6,186.443,148.51,186.578,148.533Z" transform="translate(-119.877 -148.533)"/>
              </g>
            </g>
            <g id="Grupo_69073" data-name="Grupo 69073" transform="translate(138.016 214.61)" opacity="0.4">
              <path id="Trazado_127974" data-name="Trazado 127974" d="M218.693,347.272c2.123,3.855,4.29,7.771,7.434,10.852s7.458,5.263,11.837,4.823,8.529-4.078,8.575-8.479c2.1,1.58,5.324.724,7.064-1.246s2.306-4.708,2.515-7.328c2.854,1.684,6.825.348,8.729-2.363s2.023-6.365,1.1-9.548a33.436,33.436,0,0,0-4.583-8.777c2.2.177,4.526.33,6.492-.666s3.3-3.6,2.147-5.481a5.461,5.461,0,0,0-3.2-2.041c-3.445-1.078-5.862-1.942-9.447-1.525-.834.009,1.435,9.458-21.072,22.383C223,345.5,218.693,347.272,218.693,347.272Z" transform="translate(-218.693 -315.383)"/>
            </g>
          </g>
          <g id="Grupo_69075" data-name="Grupo 69075" transform="translate(165.836 259.619)">
            <path id="Trazado_127975" data-name="Trazado 127975" d="M266.487,356.252c-.014.1-1.513-.184-3.941-.118A22.282,22.282,0,0,0,246,364.064c-1.571,1.852-2.285,3.2-2.376,3.147a3.446,3.446,0,0,1,.441-.976,17.825,17.825,0,0,1,1.617-2.43,21.083,21.083,0,0,1,16.856-8.081,17.967,17.967,0,0,1,2.908.26A3.433,3.433,0,0,1,266.487,356.252Z" transform="translate(-243.624 -355.72)" fill="#eb996e"/>
          </g>
          <path id="Trazado_127976" data-name="Trazado 127976" d="M220.008,340.647c3.625,3.483,6.1,7.328,9.908,10.835,1.727,1.593,4.412,4.613,6.729,5.015s3.8.094,4.717-2.071c.742-1.753-.591-4.149-1.512-5.594-2.423-3.8-4.739-6.771-6.553-9.726-.85-1.384.25-1.669.652-1.029,1.745,1.809,4.347,3.377,5.911,5.346,2.14,2.7,2.529,6.268,8.129,5.139a5.047,5.047,0,0,0,2.079-.864c2.108-1.614,2.2-4.419,1.309-6.666a18.248,18.248,0,0,0-3.118-4.717c2.383,2.691,4.986,5.526,8.776,5.831a5.221,5.221,0,0,0,5.307-2.872c1.121-2.546-.487-5.008-2.1-7a72.893,72.893,0,0,0-9.517-9.722,7.241,7.241,0,0,0-4.626-1.715c-1.959-.013-4.413.356-5.625,2.061a7.61,7.61,0,0,0-1.522,5.833s-4.916-2.493-8.867.114a12.529,12.529,0,0,0-4.928,7.088Z" transform="translate(-80.524 -100.142)" fill="#ffbe9d"/>
          <path id="Trazado_127977" data-name="Trazado 127977" d="M243.6,320.973a5.889,5.889,0,0,1-.7-6.651c.836-1.638,1.891-3.23,2.96-3.592,4.677-1.578,25.109,1.957,24.923,6.493-.191,4.656-1.678,6.705-12.768,5.1-1.951-.281-5.011-.666-5.011-.666l-2.676,4.017Z" transform="translate(-77.953 -101.357)" fill="#ffbe9d"/>
        </g>
        <g id="Grupo_69077" data-name="Grupo 69077" transform="translate(158.043 228.386)">
          <path id="Trazado_127978" data-name="Trazado 127978" d="M247.9,337.948c-.162.1-1.717-3.074-4.891-5.917-3.142-2.882-6.451-4.12-6.368-4.29a6.531,6.531,0,0,1,2.163.762,19.406,19.406,0,0,1,8.127,7.367A6.529,6.529,0,0,1,247.9,337.948Z" transform="translate(-236.641 -327.729)" fill="#eb996e"/>
        </g>
        <g id="Grupo_69078" data-name="Grupo 69078" transform="translate(166.005 220.683)">
          <path id="Trazado_127979" data-name="Trazado 127979" d="M250.514,324.813c-.1.095-1.451-1.005-3.291-2.131a23.126,23.126,0,0,0-2.4-1.322c-.632-.3-1.05-.378-1.049-.465s.481-.134,1.191.08a10.987,10.987,0,0,1,2.562,1.213C249.414,323.34,250.65,324.69,250.514,324.813Z" transform="translate(-243.776 -320.826)" fill="#eb996e"/>
        </g>
        <g id="Grupo_69079" data-name="Grupo 69079" transform="translate(168.971 217.762)">
          <path id="Trazado_127980" data-name="Trazado 127980" d="M253.636,320.9a8.827,8.827,0,0,1-3.936-.443,7.192,7.192,0,0,1-2.518-1.32c-.561-.478-.794-.876-.74-.924a16.473,16.473,0,0,0,3.43,1.688C251.9,320.49,253.666,320.709,253.636,320.9Z" transform="translate(-246.434 -318.208)" fill="#eb996e"/>
        </g>
        <g id="Grupo_69080" data-name="Grupo 69080" transform="translate(140.079 234.04)">
          <path id="Trazado_127981" data-name="Trazado 127981" d="M236.777,342.975a14.23,14.23,0,0,1-1.862-2.421,21.972,21.972,0,0,0-4.77-5.421,9.614,9.614,0,0,0-6.755-1.79,12.286,12.286,0,0,0-2.845.9c-.02-.026.194-.233.652-.515a6.359,6.359,0,0,1,2.128-.794,9.492,9.492,0,0,1,7.16,1.723,19.412,19.412,0,0,1,4.774,5.666A18.151,18.151,0,0,1,236.777,342.975Z" transform="translate(-220.542 -332.796)" fill="#eb996e"/>
        </g>
        <g id="Grupo_69081" data-name="Grupo 69081" transform="translate(155.179 289.366)">
          <path id="Trazado_127982" data-name="Trazado 127982" d="M250.841,382.423a61.41,61.41,0,0,1-8.352,1.2,61.445,61.445,0,0,1-8.415.623,61.377,61.377,0,0,1,8.352-1.2A61.447,61.447,0,0,1,250.841,382.423Z" transform="translate(-234.074 -382.378)" fill="#eb996e"/>
        </g>
      </g>
    </g>
    <g id="Stars" transform="translate(48.793 52.851)">
      <g id="Grupo_69083" data-name="Grupo 69083">
        <path id="Trazado_127983" data-name="Trazado 127983" d="M407,49.844l1.26,2.3,2.3,1.26-2.3,1.26-1.26,2.3-1.26-2.3-2.3-1.26,2.3-1.26Z" transform="translate(-7.613 -49.844)" fill="#e8505b"/>
        <path id="Trazado_127984" data-name="Trazado 127984" d="M430.606,101.014l1.26,2.3,2.3,1.26-2.3,1.26-1.26,2.3-1.26-2.3-2.3-1.26,2.3-1.26Z" transform="translate(-4.878 -43.915)" fill="#e8505b"/>
        <path id="Trazado_127985" data-name="Trazado 127985" d="M52.273,237.533l1.26,2.3,2.3,1.26-2.3,1.259-1.26,2.3-1.26-2.3-2.3-1.259,2.3-1.26Z" transform="translate(-48.711 -28.098)" fill="#e8505b"/>
        <path id="Trazado_127986" data-name="Trazado 127986" d="M376.516,62.562l2.909,5.319,5.319,2.909L379.425,73.7l-2.909,5.319L373.607,73.7l-5.319-2.909,5.319-2.909Z" transform="translate(-11.685 -48.37)" fill="#e8505b"/>
        <path id="Trazado_127988" data-name="Trazado 127988" d="M437.51,318.565l2.9,5.307,5.307,2.9-5.307,2.9-2.9,5.307-2.9-5.307-5.307-2.9,5.307-2.9Z" transform="translate(-4.616 -18.71)" fill="#e8505b"/>
      </g>
    </g>
  </g>
</svg>
