<svg xmlns="http://www.w3.org/2000/svg" width="159" height="147" viewBox="0 0 159 147">
  <g id="Grupo_67708" data-name="Grupo 67708" transform="translate(-721 -4605)">
    <rect id="Rectángulo_7600" data-name="Rectángulo 7600" width="159" height="147" rx="14" transform="translate(721 4605)" fill="#fff"/>
    <g id="binoculares" transform="translate(736.5 4614.5)">
      <path id="Trazado_125125" data-name="Trazado 125125" d="M120.68,72.571c-.008-.015-.006-.033-.014-.048L100.072,35.7A.887.887,0,0,0,100,35.6a12.923,12.923,0,0,0-7.227-6.008l-2.137-3.82a.927.927,0,0,0-.051-.081A8.384,8.384,0,0,0,83.2,21.461c-4.547,0-8.247,3.4-8.247,7.582V48.826a13.039,13.039,0,0,1-2.866-1.672h0a9.936,9.936,0,0,0-12.168,0,13.061,13.061,0,0,1-2.87,1.675v-7.84c0-.011,0-.022,0-.034s0-.045,0-.067v-11.8c0-.015,0-.029,0-.043,0-4.181-3.7-7.582-8.247-7.582a8.383,8.383,0,0,0-7.388,4.224.863.863,0,0,0-.051.082l-2.137,3.82A12.913,12.913,0,0,0,32,35.593a.917.917,0,0,0-.072.111L11.334,72.523c-.008.015-.006.032-.014.047A24.77,24.77,0,1,0,57.05,85.764l0-15.695h17.9V85.764a24.775,24.775,0,1,0,45.73-13.193Z" fill="#e6e7e8"/>
      <path id="Trazado_125126" data-name="Trazado 125126" d="M52.05,36.9v-.016A.085.085,0,0,0,52.05,36.9Z" fill="#6dc9f7"/>
      <path id="Trazado_125127" data-name="Trazado 125127" d="M52.05,25.043c0-3.635-3.245-6.582-7.247-6.582a7.319,7.319,0,0,0-6.558,3.8l-.008,0-2.322,4.152a13.252,13.252,0,0,1,3.938-.6c6.737,0,12.2,4.96,12.2,11.078V25.052h0a.027.027,0,0,1,0-.009Z" fill="#0089ef"/>
      <path id="Trazado_125128" data-name="Trazado 125128" d="M52.05,36.885c0-6.118-5.461-11.078-12.2-11.078a12.319,12.319,0,0,0-11.039,6.388l-.013,0L8.206,69.012l.006,0A23.772,23.772,0,0,1,52.049,81.765V36.9h0a.1.1,0,0,0,0-.016Z" fill="#6dc9f7"/>
      <circle id="Elipse_4824" data-name="Elipse 4824" cx="23.775" cy="23.775" r="23.775" transform="translate(4.5 57.989)" fill="#fff"/>
      <ellipse id="Elipse_4825" data-name="Elipse 4825" cx="23.727" cy="22.329" rx="23.727" ry="22.329" transform="translate(4.548 60.88)" fill="#0089ef"/>
      <circle id="Elipse_4826" data-name="Elipse 4826" cx="16.539" cy="16.539" r="16.539" transform="translate(11.736 65.225)" fill="#d4fbff"/>
      <path id="Trazado_125129" data-name="Trazado 125129" d="M19,95.458l19.72-26.512a16.242,16.242,0,0,0-12.895-3.52L11.936,84.2A16.521,16.521,0,0,0,19,95.458Z" fill="#fff"/>
      <path id="Trazado_125130" data-name="Trazado 125130" d="M21.152,96.673a16.425,16.425,0,0,0,6.4,1.593L43.709,75.859a16.5,16.5,0,0,0-3.265-5.268Z" fill="#fff"/>
      <path id="Trazado_125131" data-name="Trazado 125131" d="M84.148,25.807a13.252,13.252,0,0,1,3.938.6l-2.322-4.152-.008,0a7.319,7.319,0,0,0-6.558-3.8c-4,0-7.247,2.947-7.247,6.582,0,0,0,.006,0,.009h0V36.885c0-6.118,5.461-11.078,12.2-11.078Z" fill="#0089ef"/>
      <path id="Trazado_125132" data-name="Trazado 125132" d="M71.95,36.885V36.9h0C71.951,36.895,71.95,36.89,71.95,36.885Z" fill="#6dc9f7"/>
      <path id="Trazado_125133" data-name="Trazado 125133" d="M95.725,57.989a23.752,23.752,0,0,1,20.062,11.024l.006,0L95.2,32.192l-.013,0a12.319,12.319,0,0,0-11.038-6.388c-6.737,0-12.2,4.96-12.2,11.078,0,.005,0,.01,0,.016h0V81.764A23.776,23.776,0,0,1,95.725,57.989Z" fill="#6dc9f7"/>
      <circle id="Elipse_4827" data-name="Elipse 4827" cx="23.775" cy="23.775" r="23.775" transform="translate(71.95 57.989)" fill="#fff"/>
      <ellipse id="Elipse_4828" data-name="Elipse 4828" cx="23.727" cy="22.329" rx="23.727" ry="22.329" transform="translate(71.998 60.88)" fill="#0089ef"/>
      <circle id="Elipse_4829" data-name="Elipse 4829" cx="16.539" cy="16.539" r="16.539" transform="translate(79.186 65.225)" fill="#d4fbff"/>
      <path id="Trazado_125134" data-name="Trazado 125134" d="M105,95.458,85.279,68.946a16.242,16.242,0,0,1,12.895-3.52L112.064,84.2A16.521,16.521,0,0,1,105,95.458Z" fill="#fff"/>
      <path id="Trazado_125135" data-name="Trazado 125135" d="M102.848,96.673a16.425,16.425,0,0,1-6.4,1.593L80.291,75.859a16.521,16.521,0,0,1,3.265-5.268Z" fill="#fff"/>
      <path id="Trazado_125136" data-name="Trazado 125136" d="M67.471,43.943a8.935,8.935,0,0,0-10.943,0,13.989,13.989,0,0,1-10.11,2.844l-7.745-.861A23.911,23.911,0,0,1,52.049,64.977v.091h19.9v-.091A23.911,23.911,0,0,1,85.326,45.926l-7.745.861a13.981,13.981,0,0,1-10.11-2.844Z" fill="#fa759e"/>
      <path id="Trazado_125137" data-name="Trazado 125137" d="M62,48.968a4.457,4.457,0,1,0,4.457,4.457A4.457,4.457,0,0,0,62,48.968Z" fill="#ffd7e5"/>
      <g id="Grupo_67605" data-name="Grupo 67605">
        <path id="Trazado_125138" data-name="Trazado 125138" d="M20.425,47.167a1,1,0,0,0,1.361-.385l2.607-4.662a1,1,0,1,0-1.745-.976l-2.607,4.662a1,1,0,0,0,.384,1.361Z" fill="#3a2c60"/>
        <path id="Trazado_125139" data-name="Trazado 125139" d="M28.275,64.225A17.539,17.539,0,1,0,45.814,81.764,17.559,17.559,0,0,0,28.275,64.225Zm0,33.078A15.539,15.539,0,1,1,43.814,81.764,15.557,15.557,0,0,1,28.275,97.3Z" fill="#3a2c60"/>
        <path id="Trazado_125140" data-name="Trazado 125140" d="M28.275,68.72A13.06,13.06,0,0,0,15.23,81.764a1,1,0,1,0,2,0A11.057,11.057,0,0,1,28.275,70.72a1,1,0,1,0,0-2Z" fill="#3a2c60"/>
        <path id="Trazado_125141" data-name="Trazado 125141" d="M116.68,68.571c-.008-.015-.006-.033-.014-.048L96.072,31.7A.886.886,0,0,0,96,31.6a12.923,12.923,0,0,0-7.227-6.008l-2.137-3.82a.927.927,0,0,0-.051-.081A8.384,8.384,0,0,0,79.2,17.461c-4.547,0-8.247,3.4-8.247,7.582V44.827a13,13,0,0,1-2.866-1.673h0a9.936,9.936,0,0,0-12.168,0,13.061,13.061,0,0,1-2.87,1.675v-7.84c0-.011,0-.022,0-.034s0-.045,0-.067v-11.8c0-.015,0-.029,0-.043,0-4.181-3.7-7.582-8.247-7.582a8.383,8.383,0,0,0-7.388,4.224.863.863,0,0,0-.051.082l-2.137,3.82A12.913,12.913,0,0,0,28,31.593a.917.917,0,0,0-.072.111l-3.473,6.208a1,1,0,1,0,1.745.976l3.4-6.073a1.08,1.08,0,0,0,.1-.161,10.98,10.98,0,0,1,6.867-5.39c.083-.023.165-.046.248-.067a12.081,12.081,0,0,1,1.348-.268c.075-.01.151-.017.226-.026a12.192,12.192,0,0,1,1.461-.1c.386,0,.767.018,1.143.052,5.639.517,10.055,4.816,10.055,10.025h0v8.608a12.9,12.9,0,0,1-4.521.3l-7.745-.86a1,1,0,0,0-.549,1.894A22.966,22.966,0,0,1,51.048,65.068v6.944c-.02-.046-.044-.089-.064-.134-.192-.439-.4-.871-.614-1.3-.057-.112-.113-.224-.172-.335-.247-.469-.506-.932-.782-1.383-.028-.045-.058-.089-.086-.134-.257-.413-.527-.816-.806-1.213-.07-.1-.14-.2-.212-.3-.312-.428-.634-.849-.972-1.257-.027-.032-.056-.063-.083-.1-.317-.378-.647-.744-.986-1.1-.083-.087-.165-.175-.249-.261-.37-.381-.749-.753-1.143-1.109-.024-.022-.05-.042-.074-.064-.373-.335-.758-.656-1.151-.968-.1-.075-.189-.15-.285-.224-.422-.325-.851-.64-1.293-.938-.022-.015-.044-.028-.066-.042-.421-.282-.854-.547-1.293-.8-.108-.063-.216-.126-.325-.187-.465-.262-.936-.514-1.419-.746l-.06-.027c-.464-.221-.938-.425-1.417-.618-.119-.048-.238-.1-.358-.141-.5-.193-1.01-.376-1.527-.536l-.053-.015c-.5-.154-1.007-.287-1.518-.41l-.4-.092c-.532-.118-1.069-.225-1.614-.308l-.032,0c-.534-.081-1.075-.139-1.62-.185-.139-.012-.278-.022-.417-.032-.558-.038-1.12-.064-1.688-.064-.619,0-1.231.031-1.838.075-.13.01-.26.018-.39.03-.577.052-1.148.121-1.713.212-.144.023-.287.052-.431.077q-.694.125-1.376.286c-.158.037-.317.071-.474.112-.475.123-.943.264-1.406.415-.243.078-.483.159-.723.245q-.509.183-1,.388c-.378.154-.751.319-1.121.491-.173.081-.344.164-.515.249q-.865.429-1.693.924c-.062.037-.126.073-.188.111a24.577,24.577,0,0,0-2.165,1.462l6.733-12.039a1,1,0,1,0-1.745-.976L7.334,68.523c-.008.015-.006.032-.014.047A24.77,24.77,0,1,0,53.05,81.764l0-15.695h17.9V81.764a24.775,24.775,0,1,0,45.73-13.193ZM38.891,24.841c-.118.008-.235.024-.352.035-.2.019-.4.036-.6.063l-.063.007,1.174-2.1a1.031,1.031,0,0,0,.082-.131,6.353,6.353,0,0,1,5.67-3.254c3.439,0,6.238,2.5,6.247,5.567V30.5c-.033-.049-.076-.092-.11-.141q-.346-.49-.74-.947c-.046-.054-.087-.111-.134-.164a12.7,12.7,0,0,0-1.008-1c-.1-.087-.2-.166-.3-.25-.271-.227-.55-.445-.841-.651-.128-.091-.256-.179-.388-.266-.305-.2-.62-.387-.944-.564-.11-.06-.216-.125-.328-.182a13.84,13.84,0,0,0-1.348-.6c-.093-.035-.19-.062-.284-.095-.379-.135-.764-.255-1.159-.358-.158-.041-.317-.077-.477-.113q-.537-.12-1.09-.2c-.156-.022-.31-.048-.468-.066a14.393,14.393,0,0,0-1.578-.095q-.483,0-.961.034Zm-10.616,79.7A22.758,22.758,0,0,1,9.234,69.29c.131-.2.265-.394.4-.588.122-.174.243-.35.37-.52.082-.111.17-.217.254-.326.361-.466.735-.92,1.13-1.357l.045-.051a22.86,22.86,0,0,1,8.937-6.043l.212-.077c.3-.106.593-.208.894-.3.091-.028.184-.053.276-.08.446-.134.9-.252,1.356-.358.225-.052.45-.106.677-.152.185-.037.372-.067.558-.1.255-.044.51-.086.768-.122.173-.024.347-.046.521-.066q.437-.05.876-.083c.145-.011.29-.025.435-.033.442-.025.885-.042,1.331-.042a22.775,22.775,0,0,1,0,45.55ZM79.2,19.461a6.353,6.353,0,0,1,5.67,3.254.9.9,0,0,0,.08.129l1.176,2.1-.063-.007c-.2-.027-.4-.044-.6-.063-.118-.011-.234-.027-.352-.035-.318-.022-.639-.033-.961-.033a14.606,14.606,0,0,0-1.575.094c-.158.017-.313.043-.469.065q-.55.078-1.084.2c-.162.036-.323.072-.483.113-.391.1-.774.222-1.15.355-.1.034-.2.061-.293.1a13.73,13.73,0,0,0-1.314.585c-.149.075-.29.16-.435.241-.276.153-.547.313-.81.484-.168.109-.332.22-.494.336-.23.165-.451.34-.669.518-.156.127-.315.25-.464.384-.314.283-.615.58-.9.891-.163.179-.309.371-.461.559-.132.164-.266.327-.389.5-.067.093-.147.176-.212.271V25.05c0-.014,0-.027,0-.041.023-3.061,2.818-5.548,6.25-5.548ZM43.049,47.419l3.259.362a14.916,14.916,0,0,0,10.833-3.047,7.932,7.932,0,0,1,9.719,0h0a14.913,14.913,0,0,0,10.833,3.048l3.259-.362a24.935,24.935,0,0,0-9.9,16.649h-18.1a24.94,24.94,0,0,0-9.9-16.649Zm29.9,24.594V65.037A22.982,22.982,0,0,1,85.764,46.826a1,1,0,0,0-.549-1.894l-7.745.86a12.9,12.9,0,0,1-4.521-.3V36.905h0s0,0,0-.005,0-.012,0-.018c0-5.556,5.024-10.075,11.2-10.075a12.206,12.206,0,0,1,1.461.1c.075.009.151.015.226.026a12.312,12.312,0,0,1,1.348.268c.083.021.166.044.248.067a10.977,10.977,0,0,1,6.867,5.39.882.882,0,0,0,.1.157l16.362,29.254A24.579,24.579,0,0,0,108.6,60.6c-.062-.038-.126-.073-.188-.111q-.828-.5-1.693-.924c-.171-.085-.342-.168-.515-.249-.369-.172-.741-.337-1.119-.49-.332-.136-.667-.267-1.006-.389-.24-.086-.48-.167-.723-.245-.464-.15-.931-.292-1.406-.415-.157-.041-.316-.074-.474-.112q-.681-.162-1.376-.286c-.144-.025-.286-.054-.431-.077-.565-.091-1.136-.16-1.713-.212-.13-.012-.26-.02-.39-.03-.608-.045-1.219-.075-1.838-.075-.568,0-1.13.026-1.688.064-.139.01-.279.02-.417.032-.544.046-1.086.1-1.62.185l-.032,0c-.544.083-1.081.19-1.613.308-.133.03-.264.06-.4.092-.512.123-1.019.256-1.518.41l-.053.015c-.517.161-1.025.343-1.527.536-.12.046-.239.094-.359.142-.479.193-.953.4-1.416.617l-.06.027c-.483.232-.954.484-1.419.746l-.325.187c-.439.256-.871.522-1.293.8l-.066.042c-.442.3-.871.613-1.293.938-.1.074-.19.149-.285.224-.393.312-.778.633-1.151.968-.024.022-.05.042-.074.064-.394.356-.773.728-1.143,1.109-.084.086-.166.174-.249.261-.339.358-.669.725-.986,1.1-.027.032-.056.063-.083.1-.338.407-.66.828-.972,1.257-.072.1-.142.2-.212.3-.28.4-.55.8-.806,1.213-.028.045-.058.088-.086.134-.276.451-.535.913-.782,1.383-.058.111-.115.223-.172.335-.216.425-.422.856-.613,1.294-.02.048-.045.092-.065.139Zm22.775,32.526a22.775,22.775,0,1,1,0-45.549c.446,0,.89.017,1.331.042.146.008.29.022.435.033.293.022.586.05.876.083.174.02.348.042.521.066.257.036.513.078.768.122.186.032.373.063.558.1.227.045.452.1.677.152.457.106.91.225,1.356.358.092.027.184.052.276.08.3.094.6.2.894.3l.212.077a22.842,22.842,0,0,1,8.937,6.043l.045.051c.395.436.769.891,1.13,1.357.084.109.171.215.254.326.127.17.248.346.37.52.136.194.27.389.4.588a22.758,22.758,0,0,1-19.041,35.248Z" fill="#3a2c60"/>
        <path id="Trazado_125142" data-name="Trazado 125142" d="M95.725,64.225a17.539,17.539,0,1,0,17.539,17.539A17.559,17.559,0,0,0,95.725,64.225Zm0,33.078a15.539,15.539,0,1,1,15.539-15.539A15.557,15.557,0,0,1,95.725,97.3Z" fill="#3a2c60"/>
        <path id="Trazado_125143" data-name="Trazado 125143" d="M95.725,68.72A13.059,13.059,0,0,0,82.681,81.764a1,1,0,0,0,2,0A11.057,11.057,0,0,1,95.725,70.72a1,1,0,0,0,0-2Z" fill="#3a2c60"/>
        <path id="Trazado_125144" data-name="Trazado 125144" d="M62,58.881a5.457,5.457,0,1,0-5.457-5.457A5.463,5.463,0,0,0,62,58.881Zm0-8.913a3.457,3.457,0,1,1-3.457,3.456A3.461,3.461,0,0,1,62,49.968Z" fill="#3a2c60"/>
      </g>
    </g>
  </g>
</svg>
