<svg xmlns="http://www.w3.org/2000/svg" width="215" height="215" viewBox="0 0 215 215">
  <g id="Grupo_69871" data-name="Grupo 69871" transform="translate(-1668 11297)">
    <rect id="Rectángulo_7855" data-name="Rectángulo 7855" width="215" height="215" rx="10" transform="translate(1668 -11297)" fill="#fff"/>
    <g id="Layer_1" transform="translate(1696.888 -11270.49)">
      <g id="Grupo_69789" data-name="Grupo 69789" transform="translate(2.859 8.885)">
        <g id="Grupo_69784" data-name="Grupo 69784" transform="translate(1.515 1.513)">
          <g id="Grupo_69766" data-name="Grupo 69766" transform="translate(53.337 78.652)">
            <path id="Trazado_129056" data-name="Trazado 129056" d="M135.276,158.882a28.546,28.546,0,0,0-3.535,7.7l-6.1-2.8L99.573,151.818l-6.1-2.8a28.545,28.545,0,0,0,3.535-7.7l6.1,2.8,26.066,11.962h.006Z" transform="translate(-93.471 -141.315)" fill="#f0c020"/>
          </g>
          <g id="Grupo_69767" data-name="Grupo 69767" transform="translate(53.337 37.138)">
            <path id="Trazado_129057" data-name="Trazado 129057" d="M135.276,80.435l-6.108,2.8L103.108,95.2l-6.1,2.8a28.545,28.545,0,0,0-3.535-7.7l6.108-2.8,26.06-11.962,6.1-2.8A28.509,28.509,0,0,0,135.276,80.435Z" transform="translate(-93.471 -72.735)" fill="#f0c020"/>
          </g>
          <g id="Grupo_69768" data-name="Grupo 69768" transform="translate(53.337 78.652)">
            <path id="Trazado_129058" data-name="Trazado 129058" d="M97.006,141.315l6.1,2.8a34.893,34.893,0,0,1-3.535,7.7l-6.1-2.8a28.582,28.582,0,0,0,3.535-7.7Z" transform="translate(-93.471 -141.315)" fill="#e6a71c"/>
          </g>
          <g id="Grupo_69769" data-name="Grupo 69769" transform="translate(53.337 51.902)">
            <path id="Trazado_129059" data-name="Trazado 129059" d="M97.006,107.628a28.545,28.545,0,0,0-3.535-7.7l6.108-2.8a35.2,35.2,0,0,1,3.529,7.7Z" transform="translate(-93.471 -97.125)" fill="#e6a71c"/>
          </g>
          <g id="Grupo_69770" data-name="Grupo 69770" transform="translate(0 41.514)">
            <path id="Trazado_129060" data-name="Trazado 129060" d="M34.375,137.993A29.014,29.014,0,1,1,58.7,93.155C71.2,112.254,57.487,137.993,34.375,137.993Z" transform="translate(-5.361 -79.965)" fill="#e5dec1"/>
          </g>
          <g id="Grupo_69771" data-name="Grupo 69771" transform="translate(85.504 37.138)">
            <path id="Trazado_129061" data-name="Trazado 129061" d="M156.248,80.435l-6.108,2.8a35.2,35.2,0,0,1-3.529-7.7l6.1-2.8A28.509,28.509,0,0,0,156.248,80.435Z" transform="translate(-146.611 -72.735)" fill="#e6a71c"/>
          </g>
          <g id="Grupo_69772" data-name="Grupo 69772" transform="translate(90.397)">
            <path id="Trazado_129062" data-name="Trazado 129062" d="M212.775,40.4a29.016,29.016,0,0,1-53.337,15.824c-12.579-19.215,1.342-44.838,24.323-44.838A29.015,29.015,0,0,1,212.775,40.4Z" transform="translate(-154.694 -11.385)" fill="#529ad9"/>
          </g>
          <g id="Grupo_69773" data-name="Grupo 69773" transform="translate(85.504 93.416)">
            <path id="Trazado_129063" data-name="Trazado 129063" d="M156.248,168.508a28.546,28.546,0,0,0-3.535,7.7l-6.1-2.8a34.767,34.767,0,0,1,3.535-7.7h.006Z" transform="translate(-146.611 -165.705)" fill="#e6a71c"/>
          </g>
          <g id="Grupo_69774" data-name="Grupo 69774" transform="translate(90.417 83.029)">
            <path id="Trazado_129064" data-name="Trazado 129064" d="M212.788,177.559a29.015,29.015,0,0,1-29.014,29.014c-23.159,0-36.793-25.789-24.323-44.838a29.016,29.016,0,0,1,53.337,15.824Z" transform="translate(-154.727 -148.545)" fill="#e5dec1"/>
          </g>
          <g id="Grupo_69775" data-name="Grupo 69775" transform="translate(12.946 66.127)">
            <circle id="Elipse_5203" data-name="Elipse 5203" cx="4.746" cy="4.746" r="4.746" fill="#f0c020"/>
          </g>
          <g id="Grupo_69776" data-name="Grupo 69776" transform="translate(31.117 55.43)">
            <circle id="Elipse_5204" data-name="Elipse 5204" cx="4.746" cy="4.746" r="4.746" fill="#f0c020"/>
          </g>
          <g id="Grupo_69777" data-name="Grupo 69777" transform="translate(31.117 75.618)">
            <circle id="Elipse_5205" data-name="Elipse 5205" cx="4.746" cy="4.746" r="4.746" fill="#f0c020"/>
          </g>
          <g id="Grupo_69778" data-name="Grupo 69778" transform="translate(103.396 24.613)">
            <circle id="Elipse_5206" data-name="Elipse 5206" cx="4.746" cy="4.746" r="4.746" fill="#f0c020"/>
          </g>
          <g id="Grupo_69779" data-name="Grupo 69779" transform="translate(121.567 13.916)">
            <circle id="Elipse_5207" data-name="Elipse 5207" cx="4.746" cy="4.746" r="4.746" fill="#f0c020"/>
          </g>
          <g id="Grupo_69780" data-name="Grupo 69780" transform="translate(121.567 34.104)">
            <circle id="Elipse_5208" data-name="Elipse 5208" cx="4.746" cy="4.746" r="4.746" fill="#f0c020"/>
          </g>
          <g id="Grupo_69781" data-name="Grupo 69781" transform="translate(103.396 107.641)">
            <circle id="Elipse_5209" data-name="Elipse 5209" cx="4.746" cy="4.746" r="4.746" fill="#f0c020"/>
          </g>
          <g id="Grupo_69782" data-name="Grupo 69782" transform="translate(121.567 96.945)">
            <circle id="Elipse_5210" data-name="Elipse 5210" cx="4.746" cy="4.746" r="4.746" fill="#f0c020"/>
          </g>
          <g id="Grupo_69783" data-name="Grupo 69783" transform="translate(121.567 117.132)">
            <circle id="Elipse_5211" data-name="Elipse 5211" cx="4.746" cy="4.746" r="4.746" fill="#f0c020"/>
          </g>
        </g>
        <g id="Grupo_69788" data-name="Grupo 69788">
          <g id="Grupo_69785" data-name="Grupo 69785" transform="translate(12.686 54.199)">
            <path id="Trazado_129065" data-name="Trazado 129065" d="M41.659,140.857a24.6,24.6,0,0,1-8.8-1.619,1.514,1.514,0,0,1,1.08-2.828,21.58,21.58,0,0,0,7.725,1.42c19.175,0,28.808-23.276,15.259-36.827a1.513,1.513,0,0,1,2.14-2.14c15.5,15.5,4.392,41.994-17.4,41.994ZM27.2,136.173a24.654,24.654,0,0,1-2.939-2.512,1.513,1.513,0,0,1,2.14-2.14,21.677,21.677,0,0,0,2.578,2.2,1.513,1.513,0,1,1-1.778,2.448Z" transform="translate(-23.816 -98.42)" fill="#fff"/>
          </g>
          <g id="Grupo_69786" data-name="Grupo 69786" transform="translate(103.136 12.685)">
            <path id="Trazado_129066" data-name="Trazado 129066" d="M182.274,70.659a1.514,1.514,0,0,1,1.079-2.828c21.694,8.286,39.37-19.019,22.984-35.407a1.513,1.513,0,0,1,2.14-2.14c18.667,18.668-1.462,49.815-26.2,40.375Zm-5.656-3.065a24.654,24.654,0,0,1-2.939-2.512,1.513,1.513,0,1,1,2.14-2.14,21.676,21.676,0,0,0,2.578,2.2,1.513,1.513,0,1,1-1.779,2.448Z" transform="translate(-173.236 -29.84)" fill="#fff"/>
          </g>
          <g id="Grupo_69787" data-name="Grupo 69787" transform="translate(103.136 95.714)">
            <path id="Trazado_129067" data-name="Trazado 129067" d="M191.078,209.438a24.6,24.6,0,0,1-8.8-1.619,1.514,1.514,0,1,1,1.08-2.828,21.582,21.582,0,0,0,22.984-35.407,1.513,1.513,0,1,1,2.14-2.14,24.605,24.605,0,0,1-17.4,41.994Zm-14.459-4.684a24.657,24.657,0,0,1-2.939-2.512,1.513,1.513,0,1,1,2.14-2.14,21.674,21.674,0,0,0,2.578,2.2,1.513,1.513,0,1,1-1.779,2.448Z" transform="translate(-173.236 -167)" fill="#fff"/>
          </g>
          <path id="Trazado_129068" data-name="Trazado 129068" d="M30.507,111.15a6.259,6.259,0,1,0,4.672,10.41l7.42,3.875a6.276,6.276,0,1,0,1.4-2.682l-7.418-3.874a6.123,6.123,0,0,0-.079-3.246l7.71-4.539a6.268,6.268,0,1,0-1.537-2.607l-7.711,4.539a6.235,6.235,0,0,0-4.461-1.877Zm0,9.492a3.233,3.233,0,1,1,3.233-3.233A3.237,3.237,0,0,1,30.507,120.642Zm18.171,3.027a3.232,3.232,0,1,1-3.232,3.232,3.236,3.236,0,0,1,3.232-3.232Zm0-20.188a3.233,3.233,0,1,1-3.232,3.233,3.237,3.237,0,0,1,3.232-3.233Z" transform="translate(-11.3 -45.024)"/>
          <path id="Trazado_129069" data-name="Trazado 129069" d="M191.839,58.32a6.281,6.281,0,1,0,1.584-4.147L186,50.3a6.122,6.122,0,0,0-.079-3.246l7.71-4.539a6.268,6.268,0,1,0-1.537-2.607l-7.711,4.539a6.262,6.262,0,1,0,.211,8.534l7.42,3.875A6.219,6.219,0,0,0,191.839,58.32Zm6.259-3.232a3.232,3.232,0,1,1-3.232,3.232A3.236,3.236,0,0,1,198.1,55.088Zm0-20.188a3.233,3.233,0,1,1-3.232,3.233A3.237,3.237,0,0,1,198.1,34.9ZM179.927,52.061a3.233,3.233,0,1,1,3.233-3.233A3.237,3.237,0,0,1,179.927,52.061Z" transform="translate(-70.27 -17.957)"/>
          <path id="Trazado_129070" data-name="Trazado 129070" d="M179.927,179.73a6.259,6.259,0,1,0,4.672,10.41l7.42,3.875a6.276,6.276,0,1,0,1.4-2.682L186,187.46a6.123,6.123,0,0,0-.079-3.246l7.71-4.539a6.266,6.266,0,1,0-1.538-2.607l-7.711,4.539a6.233,6.233,0,0,0-4.46-1.877Zm0,9.492a3.233,3.233,0,1,1,3.233-3.233A3.237,3.237,0,0,1,179.927,189.222Zm18.171,3.027a3.232,3.232,0,1,1-3.232,3.232A3.236,3.236,0,0,1,198.1,192.249Zm0-20.188a3.232,3.232,0,1,1-3.232,3.233A3.237,3.237,0,0,1,198.1,172.061Z" transform="translate(-70.27 -72.089)"/>
          <path id="Trazado_129071" data-name="Trazado 129071" d="M11.852,98.478a1.514,1.514,0,1,0,2.106-.363,1.55,1.55,0,0,0-2.106.363Z" transform="translate(-6.3 -43.997)"/>
          <path id="Trazado_129072" data-name="Trazado 129072" d="M154.364,39.412a30.528,30.528,0,1,0-60.176,7.28L58.227,63.2a30.517,30.517,0,0,0-45.64-4.623,1.517,1.517,0,0,0-.073,2.143,1.552,1.552,0,0,0,2.137.073,27.506,27.506,0,0,1,41.787,5.133c11.851,18.071-1.1,42.5-23.051,42.5A27.515,27.515,0,0,1,8.1,70.109a1.514,1.514,0,0,0-.8-1.986,1.541,1.541,0,0,0-1.985.794A30.526,30.526,0,0,0,58.226,98.653l35.962,16.508c-7.285,29.635,29.269,50.832,51.235,28.867a30.53,30.53,0,0,0-25.358-51.884,1.51,1.51,0,0,0-1.32,1.688,1.528,1.528,0,0,0,1.689,1.314,27.5,27.5,0,1,1,3.4,54.8c-21.683,0-35.024-24.211-23.056-42.5a27.744,27.744,0,0,1,8.891-8.583,1.517,1.517,0,0,0,.515-2.076,1.55,1.55,0,0,0-2.077-.515A30.848,30.848,0,0,0,99,104.713c-2.456-1.129-33.069-15.179-35.961-16.506a30.564,30.564,0,0,0,0-14.56L99,57.139a30.518,30.518,0,0,0,55.367-17.727ZM97.333,107.28a30.6,30.6,0,0,0-2.273,4.95L59.892,96.087a31.187,31.187,0,0,0,2.272-4.95ZM62.164,70.716a30.758,30.758,0,0,0-2.272-4.949L95.061,49.623a30.683,30.683,0,0,0,2.272,4.949Zm38.617-16.308c-11.771-17.983,1.073-42.5,23.056-42.5a27.5,27.5,0,1,1-23.056,42.5Z" transform="translate(-2.859 -8.885)"/>
          <path id="Trazado_129073" data-name="Trazado 129073" d="M186.569,151.6a1.507,1.507,0,0,0,.932-1.919,1.534,1.534,0,0,0-1.925-.939,1.513,1.513,0,0,0,.993,2.858Z" transform="translate(-74.569 -64.049)"/>
        </g>
      </g>
    </g>
  </g>
</svg>
