<svg xmlns="http://www.w3.org/2000/svg" width="159" height="147" viewBox="0 0 159 147">
  <g id="Grupo_67709" data-name="Grupo 67709" transform="translate(-721 -5101)">
    <rect id="Rectángulo_7604" data-name="Rectángulo 7604" width="159" height="147" rx="14" transform="translate(721 5101)" fill="#fff"/>
    <g id="certificacion_1_" data-name="certificacion (1)" transform="translate(712.868 5123.916)">
      <g id="Grupo_67604" data-name="Grupo 67604" transform="translate(47.271 1.27)">
        <path id="Trazado_125108" data-name="Trazado 125108" d="M52.722,25.019V96.836a8.241,8.241,0,0,0,8.214,8.218h63.9a8.241,8.241,0,0,0,8.214-8.218V14.646a8.237,8.237,0,0,0-8.214-8.218H71.72c-2.547,0-2.631.45-6.263,3.521L55.145,20.215c-2.643,2.233-2.294,2.166-2.423,4.8Z" transform="translate(-52.722 -6.428)" fill="#eeebee" fill-rule="evenodd"/>
        <path id="Trazado_125109" data-name="Trazado 125109" d="M202.365,374.254l5.01.63L208,379.9c.073,1.389,1.091,1.665,1.934.821l7.208-7.212-1.321-6.936-7.708-.832-6.573,6.581C200.7,373.168,200.971,374.187,202.365,374.254Z" transform="translate(-171.746 -294.725)" fill="#ff646f" fill-rule="evenodd"/>
        <path id="Trazado_125110" data-name="Trazado 125110" d="M315.338,375.371l7.208,7.212c.843.844,1.861.568,1.928-.821l.63-5.018,5.015-.63c1.394-.067,1.664-1.086.821-1.929l-6.3-6.306-5.482,1.1Z" transform="translate(-263.432 -296.438)" fill="#ff646f" fill-rule="evenodd"/>
        <path id="Trazado_125111" data-name="Trazado 125111" d="M237.8,290.388l1.63,1.328a2.5,2.5,0,0,0,.742.433,2.473,2.473,0,0,0,1.181.152l2.648-.478,2.058.411a2.377,2.377,0,0,0,.618.062,2.51,2.51,0,0,0,1.355-.439l2.125-1.659,2.013-.591a2.57,2.57,0,0,0,1.574-1.254l1.108-2.458,1.13-1.091.382-.371a2.539,2.539,0,0,0,.81-1.84l-.152-2.695.658-2a2.567,2.567,0,0,0-.141-2.014l-1.383-2.312-.343-2.076a2.576,2.576,0,0,0-1.051-1.721l-2.3-1.4L251.2,266.7a2.556,2.556,0,0,0-1.726-1.029l-2.687-.174-1.9-.894a2.532,2.532,0,0,0-2.007-.107l-2.457,1.1-2.1.09a2.591,2.591,0,0,0-1.827.844l-1.664,2.121-1.816,1.058a2.578,2.578,0,0,0-1.226,1.6l-.495,2.649-1.113,1.783a2.566,2.566,0,0,0-.349,1.986l.793,2.576-.163,2.1a2.546,2.546,0,0,0,.613,1.918l.067.068,1.827,1.851.832,1.929a2.558,2.558,0,0,0,1.434,1.417Z" transform="translate(-194.77 -213.362)" fill="#ffe287" fill-rule="evenodd"/>
        <path id="Trazado_125112" data-name="Trazado 125112" d="M266.809,307.877a6.707,6.707,0,1,0,6.707-6.711A6.708,6.708,0,0,0,266.809,307.877Z" transform="translate(-224.495 -242.911)" fill="#fdb440" fill-rule="evenodd"/>
        <path id="Trazado_125113" data-name="Trazado 125113" d="M307.743,301.878a36.019,36.019,0,0,1,.888,8.123,38.752,38.752,0,0,1-.3,4.866,6.716,6.716,0,0,0-.585-12.988Z" transform="translate(-257.338 -243.483)" fill="#fe9900" fill-rule="evenodd"/>
        <path id="Trazado_125114" data-name="Trazado 125114" d="M296.31,271.758a6.716,6.716,0,0,1,.585,12.989,29.8,29.8,0,0,1-1.76,7.076l2.058.411a2.375,2.375,0,0,0,.618.062,2.51,2.51,0,0,0,1.355-.439l2.125-1.659,2.013-.591a2.57,2.57,0,0,0,1.574-1.254l1.108-2.458,1.13-1.091.382-.371a2.539,2.539,0,0,0,.81-1.84l-.152-2.695.658-2a2.568,2.568,0,0,0-.141-2.014l-1.383-2.312-.343-2.076a2.575,2.575,0,0,0-1.051-1.721l-2.3-1.4-1.265-1.676a2.556,2.556,0,0,0-1.726-1.029l-2.687-.174-1.9-.894a2.531,2.531,0,0,0-2.007-.107l-.517.231a21.91,21.91,0,0,1,2.816,7.031Z" transform="translate(-245.905 -213.363)" fill="#ffd64d" fill-rule="evenodd"/>
        <path id="Trazado_125115" data-name="Trazado 125115" d="M388.011,14.646v82.19a8.241,8.241,0,0,1-8.214,8.218h7.467a8.241,8.241,0,0,0,8.214-8.218V14.646a8.237,8.237,0,0,0-8.214-8.218H379.8A8.237,8.237,0,0,1,388.011,14.646Z" transform="translate(-315.151 -6.428)" fill="#d8d1d7" fill-rule="evenodd"/>
        <path id="Trazado_125116" data-name="Trazado 125116" d="M55.145,20.215c-2.643,2.233-2.294,2.166-2.423,4.8L67.43,24.98c6.556-.017,5.8-5.13,5.8-8.033V6.428H71.72c-2.547,0-2.631.45-6.263,3.521Z" transform="translate(-52.722 -6.428)" fill="#cac0c9" fill-rule="evenodd"/>
        <path id="Trazado_125117" data-name="Trazado 125117" d="M65.147,10.259v6.688c0,2.9.753,8.016-5.8,8.033L52.722,25v.023L67.43,24.98c6.556-.017,5.8-5.13,5.8-8.033V6.428H71.72c-2.547,0-2.631.45-6.263,3.521Z" transform="translate(-52.722 -6.428)" fill="#ab9faa" fill-rule="evenodd"/>
      </g>
      <path id="Trazado_125118" data-name="Trazado 125118" d="M207.707,127.052a1.493,1.493,0,1,0,0-2.986h-24.03a1.493,1.493,0,1,0,0,2.986Z" transform="translate(-109.325 -99.545)"/>
      <path id="Trazado_125119" data-name="Trazado 125119" d="M131.286,171.287a1.493,1.493,0,0,0,1.494,1.493H177a1.493,1.493,0,1,0,0-2.986H132.78A1.493,1.493,0,0,0,131.286,171.287Z" transform="translate(-68.487 -136.234)"/>
      <path id="Trazado_125120" data-name="Trazado 125120" d="M132.61,216.871l44.222-.006a1.493,1.493,0,1,0,0-2.986l-44.222.006a1.493,1.493,0,1,0,0,2.986Z" transform="translate(-68.351 -171.606)"/>
      <path id="Trazado_125121" data-name="Trazado 125121" d="M132.469,260.955h0l9.707-.006a1.493,1.493,0,0,0,0-2.987h0l-9.707.006a1.493,1.493,0,0,0,0,2.987Z" transform="translate(-68.238 -206.977)"/>
      <path id="Trazado_125122" data-name="Trazado 125122" d="M229.8,268.963,228.57,266.9l-.292-1.767a4.052,4.052,0,0,0-1.748-2.765l-2.047-1.246L223.4,259.7a4.01,4.01,0,0,0-2.826-1.629l-2.395-.155-1.618-.761a4,4,0,0,0-3.263-.128l-2.188.976-1.79.077a4.086,4.086,0,0,0-2.932,1.391l-.015.019-1.481,1.886-1.546.9a4.052,4.052,0,0,0-1.954,2.616l-.441,2.36-.948,1.517a4.022,4.022,0,0,0-.519,3.226l.706,2.293-.139,1.786a4.046,4.046,0,0,0,.276,1.89l-5.714,5.718a2.655,2.655,0,0,0-.761,2.854,2.712,2.712,0,0,0,2.5,1.611l3.789.476.477,3.8a2.717,2.717,0,0,0,1.621,2.495,2.316,2.316,0,0,0,.833.155,2.882,2.882,0,0,0,2.017-.915l6.6-6.6a3.841,3.841,0,0,0,.428.028,3.1,3.1,0,0,0,.54-.045l2.359-.426,1.751.349c.088.02.177.036.265.049l6.789,6.787a2.88,2.88,0,0,0,2.016.915,2.316,2.316,0,0,0,.837-.156,2.711,2.711,0,0,0,1.612-2.5l.477-3.794,3.794-.476a2.712,2.712,0,0,0,2.5-1.611,2.655,2.655,0,0,0-.76-2.853l-5.279-5.283a3.928,3.928,0,0,0,.628-2.224l-.135-2.4.561-1.7a4.02,4.02,0,0,0-.271-3.257ZM203.518,291.5l-.553-4.406a1.493,1.493,0,0,0-1.3-1.3l-4.4-.552,4.944-4.947.567.573.709,1.643a4.043,4.043,0,0,0,2.359,2.263l2.282.721.765.623Zm11.249-7.38-2.62.473a1.148,1.148,0,0,1-.371-.063l-.042-.015a.926.926,0,0,1-.279-.16l-.035-.029-1.624-1.322a1.5,1.5,0,0,0-.493-.266l-2.533-.8a1.107,1.107,0,0,1-.508-.539c-.006-.016-.013-.031-.019-.047l-.829-1.921a1.493,1.493,0,0,0-.309-.458l-1.818-1.839-.009-.01-.007-.007-.046-.046a1.1,1.1,0,0,1-.2-.707c0-.015,0-.029,0-.044l.162-2.089a1.5,1.5,0,0,0-.061-.555l-.785-2.548a1.128,1.128,0,0,1,.154-.721l.027-.042,1.109-1.775a1.5,1.5,0,0,0,.2-.517l.489-2.615a1.131,1.131,0,0,1,.47-.575l.038-.021,1.809-1.053a1.494,1.494,0,0,0,.423-.368l1.639-2.086a1.136,1.136,0,0,1,.693-.294h.036l2.089-.09a1.493,1.493,0,0,0,.545-.128l2.437-1.087a1.088,1.088,0,0,1,.723.068l.043.021,1.893.89a1.493,1.493,0,0,0,.539.139l2.663.173a1.121,1.121,0,0,1,.615.4l.024.033,1.26,1.669a1.5,1.5,0,0,0,.415.376l2.269,1.381a1.139,1.139,0,0,1,.366.649c0,.015,0,.03.007.046l.342,2.066a1.5,1.5,0,0,0,.192.523l1.371,2.291a1.132,1.132,0,0,1,.024.74l-.014.041-.655,1.988a1.5,1.5,0,0,0-.073.552l.151,2.669a1.1,1.1,0,0,1-.317.654l-.035.033-1.507,1.456a1.493,1.493,0,0,0-.324.46l-1.091,2.42a1.115,1.115,0,0,1-.6.444l-.043.012-2.005.588a1.489,1.489,0,0,0-.5.256l-2.1,1.641a1.094,1.094,0,0,1-.721.109l-.048-.01-2.05-.409a1.5,1.5,0,0,0-.558,0Zm12.475,1.825a1.493,1.493,0,0,0-1.3,1.3l-.553,4.4-5.1-5.1,1.564-1.22,1.713-.5a4.06,4.06,0,0,0,2.519-2.055l.009-.019.9-2,4.641,4.644Z" transform="translate(-118.566 -205.994)"/>
      <path id="Trazado_125123" data-name="Trazado 125123" d="M275.563,301.58a8.176,8.176,0,1,0-15.694,3.225,1.494,1.494,0,0,0,2.747-1.174,5.192,5.192,0,1,1,4.771,3.137,1.493,1.493,0,1,0,0,2.986A8.184,8.184,0,0,0,275.563,301.58Z" transform="translate(-171.128 -235.415)"/>
      <path id="Trazado_125124" data-name="Trazado 125124" d="M119.263,0H66.348c-2.721,0-3.443.623-5.835,2.686-.394.34-.844.728-1.369,1.172-.031.026-.061.054-.089.082L48.825,14.117c-2.469,2.088-2.791,2.662-2.865,5.007-.008.236-.016.5-.03.8,0,.024,0,.049,0,.073V55.464a1.494,1.494,0,0,0,2.987,0V21.49l13.163-.035a7.392,7.392,0,0,0,5.485-1.91c1.9-1.945,1.836-4.743,1.791-6.787-.006-.278-.012-.544-.012-.793V2.986h49.92a6.7,6.7,0,0,1,6.69,6.688V91.493a6.7,6.7,0,0,1-6.69,6.688H55.605a6.7,6.7,0,0,1-6.69-6.688V62.307a1.494,1.494,0,0,0-2.987,0V91.493a9.687,9.687,0,0,0,9.677,9.675h63.658a9.687,9.687,0,0,0,9.677-9.675V9.675A9.687,9.687,0,0,0,119.263,0ZM65.426,17.459a4.62,4.62,0,0,1-3.355,1.009L48.978,18.5A1.176,1.176,0,0,1,49.089,18a10.194,10.194,0,0,1,1.71-1.637c.031-.026.061-.054.09-.082L61.119,6.1c.514-.435.957-.817,1.346-1.152,2.23-1.924,2.273-1.961,3.883-1.961h.008v8.978c0,.27.006.558.013.859.035,1.6.079,3.588-.943,4.635Z"/>
    </g>
  </g>
</svg>
