<svg xmlns="http://www.w3.org/2000/svg" width="73.462" height="79.34" viewBox="0 0 73.462 79.34">
  <g id="comercio-electronico" transform="translate(-3.38 -1.09)" style="isolation: isolate">
    <g id="e-commerce" transform="translate(3.38 1.09)">
      <path id="Trazado_129384" data-name="Trazado 129384" d="M15.866,60.549H8.461A4.081,4.081,0,0,1,4.38,56.468V6.171A4.094,4.094,0,0,1,8.461,2.09H71.194a4.081,4.081,0,0,1,4.081,4.081v50.3a4.081,4.081,0,0,1-4.081,4.081H60.105L57.641,39.193a3.131,3.131,0,0,0-3.119-2.772H25.145a3.144,3.144,0,0,0-3.119,2.772L19.55,60.549" transform="translate(-3.097 -0.807)" fill="#f0f7fe"/>
      <path id="Trazado_129385" data-name="Trazado 129385" d="M40.509,24.382H27.033A1.283,1.283,0,0,1,25.75,23.1V21.135a3.645,3.645,0,0,1,3.645-3.645H38.16a3.645,3.645,0,0,1,3.645,3.645V23.1a1.283,1.283,0,0,1-1.3,1.283ZM28.3,21.815H39.226v-.68a1.078,1.078,0,0,0-1.078-1.078H29.382A1.078,1.078,0,0,0,28.3,21.135Z" transform="translate(2.96 3.558)"/>
      <path id="Trazado_129386" data-name="Trazado 129386" d="M46.471,71.282H18.583a3.683,3.683,0,0,1-3.658-4.107l1.643-14.207,2.477-21.356a3.144,3.144,0,0,1,3.119-2.772H51.541a3.131,3.131,0,0,1,3.119,2.772l2.464,21.356,1.643,14.207a3.683,3.683,0,0,1-3.658,4.107H49.975" transform="translate(-0.115 6.774)" fill="#afd0ed"/>
      <path id="Trazado_129387" data-name="Trazado 129387" d="M55.391,72.835H50.258a1.283,1.283,0,1,1,0-2.567h5.134a2.4,2.4,0,0,0,1.8-.809,2.361,2.361,0,0,0,.59-1.874l-4.107-35.55a1.848,1.848,0,0,0-1.848-1.63H22.446A1.874,1.874,0,0,0,20.6,32.048l-4.12,35.537a2.361,2.361,0,0,0,.59,1.874,2.4,2.4,0,0,0,1.8.809H46.754a1.283,1.283,0,1,1,0,2.567H18.866a4.967,4.967,0,0,1-4.928-5.544l4.12-35.55a4.441,4.441,0,0,1,4.389-3.85H51.823a4.415,4.415,0,0,1,4.389,3.85l4.107,35.55a4.967,4.967,0,0,1-4.928,5.544Z" transform="translate(-0.398 6.505)"/>
      <path id="Trazado_129388" data-name="Trazado 129388" d="M19.833,62.116h-.154a1.283,1.283,0,0,1-1.129-1.425l2.477-21.343a4.441,4.441,0,0,1,4.389-3.85h29.39a4.415,4.415,0,0,1,4.389,3.85l2.336,20.2h9.946a2.8,2.8,0,0,0,2.8-2.8V6.455a2.8,2.8,0,0,0-2.8-2.8H8.745a2.8,2.8,0,0,0-2.8,2.8v50.3a2.8,2.8,0,0,0,2.8,2.8H16.15a1.283,1.283,0,1,1,0,2.567H8.745A5.365,5.365,0,0,1,3.38,56.751V6.455A5.365,5.365,0,0,1,8.745,1.09H71.477a5.365,5.365,0,0,1,5.365,5.365v50.3a5.365,5.365,0,0,1-5.365,5.365H60.389a1.283,1.283,0,0,1-1.283-1.142L56.654,39.63A1.848,1.848,0,0,0,54.806,38H25.429a1.874,1.874,0,0,0-1.848,1.643L21.1,60.986a1.283,1.283,0,0,1-1.271,1.129Z" transform="translate(-3.38 -1.09)"/>
      <path id="Trazado_129389" data-name="Trazado 129389" d="M75.288,6.171V15.36H4.38V6.171A4.094,4.094,0,0,1,8.461,2.09H71.194a4.094,4.094,0,0,1,4.094,4.081Z" transform="translate(-3.097 -0.807)" fill="#f3f095"/>
      <path id="Trazado_129390" data-name="Trazado 129390" d="M75.571,16.927H4.663A1.283,1.283,0,0,1,3.38,15.644V6.455A5.377,5.377,0,0,1,8.745,1.09H71.477a5.377,5.377,0,0,1,5.365,5.365v9.189a1.283,1.283,0,0,1-1.271,1.283ZM5.947,14.36H74.288V6.455a2.811,2.811,0,0,0-2.8-2.8H8.745a2.811,2.811,0,0,0-2.8,2.8Z" transform="translate(-3.38 -1.09)"/>
      <path id="Trazado_129391" data-name="Trazado 129391" d="M18.637,7.543a1.283,1.283,0,1,1,1.283,1.283A1.283,1.283,0,0,1,18.637,7.543Zm-5.134,0a1.283,1.283,0,1,1,1.283,1.283A1.283,1.283,0,0,1,13.5,7.543Zm-5.134,0A1.283,1.283,0,1,1,9.653,8.827,1.283,1.283,0,0,1,8.37,7.543Z" transform="translate(-1.966 0.375)"/>
      <path id="Trazado_129392" data-name="Trazado 129392" d="M56.035,8.827H44.163a1.283,1.283,0,0,1,0-2.567H56.035a1.283,1.283,0,1,1,0,2.567Z" transform="translate(7.814 0.375)"/>
      <path id="Trazado_129393" data-name="Trazado 129393" d="M47.507,51.522,44.94,54.089a1.425,1.425,0,0,0-.411,1v3.594A1.425,1.425,0,0,1,43.1,60.108H39.447a1.425,1.425,0,0,0-1,.411l-2.567,2.567a1.425,1.425,0,0,1-2.015,0L31.3,60.518a1.425,1.425,0,0,0-1-.411H26.664a1.425,1.425,0,0,1-1.425-1.425V55.115a1.425,1.425,0,0,0-.411-1l-2.567-2.567a1.425,1.425,0,0,1,0-2.015l2.567-2.567a1.425,1.425,0,0,0,.411-1V42.294a1.425,1.425,0,0,1,1.425-1.425h3.645a1.425,1.425,0,0,0,1-.411l2.567-2.567a1.425,1.425,0,0,1,2.015,0l2.567,2.567a1.425,1.425,0,0,0,1,.411h3.658a1.425,1.425,0,0,1,1.425,1.425v3.645a1.425,1.425,0,0,0,.411,1l2.567,2.567a1.425,1.425,0,0,1-.013,2.015Z" transform="translate(1.853 9.221)" fill="#f19eb1"/>
      <path id="Trazado_129394" data-name="Trazado 129394" d="M35.156,65.116a2.682,2.682,0,0,1-1.912-.8l-2.567-2.567H26.942a2.708,2.708,0,0,1-2.708-2.8V55.388l-2.567-2.669a2.708,2.708,0,0,1,0-3.85L24.234,46.3V42.566a2.708,2.708,0,0,1,2.708-2.708h3.645l2.657-2.567a2.772,2.772,0,0,1,3.85,0l2.567,2.567h3.76a2.708,2.708,0,0,1,2.708,2.708v3.645L48.7,48.868a2.708,2.708,0,0,1,0,3.85l-2.567,2.567v3.76a2.708,2.708,0,0,1-2.708,2.708h-3.7L37.068,64.32a2.682,2.682,0,0,1-1.912.8Zm-.077-2.567h.18l2.567-2.567a2.721,2.721,0,0,1,1.912-.8H43.4a.141.141,0,0,0,.128-.231V55.362a2.682,2.682,0,0,1,.8-1.912l2.567-2.567a.154.154,0,0,0,0-.193l-2.567-2.567a2.682,2.682,0,0,1-.8-1.912V42.566a.141.141,0,0,0-.141-.141H39.725a2.682,2.682,0,0,1-1.912-.8l-2.567-2.567h-.193L32.486,41.63a2.682,2.682,0,0,1-1.912.8H26.942a.141.141,0,0,0-.141.141v3.645a2.7,2.7,0,0,1-.8,1.912L23.439,50.69v.193l2.567,2.567a2.721,2.721,0,0,1,.8,1.912v3.594a.141.141,0,0,0,.141.141h3.645a2.721,2.721,0,0,1,1.912.8l2.567,2.567Z" transform="translate(1.575 8.949)"/>
      <path id="Trazado_129395" data-name="Trazado 129395" d="M28.815,54.617a1.283,1.283,0,0,1-.911-2.195L36.8,43.528a1.283,1.283,0,0,1,1.81,1.81l-8.894,8.894a1.283,1.283,0,0,1-.9.385Z" transform="translate(3.462 10.849)"/>
      <g id="Grupo_70444" data-name="Grupo 70444" transform="translate(31.559 54.57)">
        <circle id="Elipse_5217" data-name="Elipse 5217" cx="1.45" cy="1.45" r="1.45" transform="translate(7.444 7.444)"/>
        <circle id="Elipse_5218" data-name="Elipse 5218" cx="1.45" cy="1.45" r="1.45"/>
      </g>
      <g id="Grupo_70445" data-name="Grupo 70445" transform="translate(25.668 22.331)">
        <path id="Trazado_129396" data-name="Trazado 129396" d="M30.054,18.49a2.349,2.349,0,0,0-2.361,2.361V38.524a2.156,2.156,0,0,1-4.312,0V25.177A6.674,6.674,0,0,1,30.054,18.5Z" transform="translate(-23.38 -18.49)" fill="#959ec5"/>
        <path id="Trazado_129397" data-name="Trazado 129397" d="M42.094,25.177V38.524a2.156,2.156,0,0,1-4.312,0V20.851A2.349,2.349,0,0,0,35.42,18.49a6.674,6.674,0,0,1,6.674,6.687Z" transform="translate(-19.968 -18.49)" fill="#959ec5"/>
        <path id="Trazado_129398" data-name="Trazado 129398" d="M40.226,20.851v1.964H26.75V20.851a2.349,2.349,0,0,1,2.361-2.361h8.766a2.349,2.349,0,0,1,2.349,2.361Z" transform="translate(-22.425 -18.49)" fill="#959ec5"/>
      </g>
      <path id="Trazado_129399" data-name="Trazado 129399" d="M40.226,20.851v1.964H26.75V20.851a2.349,2.349,0,0,1,2.361-2.361h8.766a2.349,2.349,0,0,1,2.349,2.361Z" transform="translate(3.243 3.841)" opacity="0.2"/>
      <path id="Trazado_129400" data-name="Trazado 129400" d="M25.82,42.257a3.452,3.452,0,0,1-3.44-3.44V25.457A7.97,7.97,0,0,1,30.337,17.5a1.283,1.283,0,1,1,0,2.567,1.078,1.078,0,0,0-1.078,1.078V38.8a3.452,3.452,0,0,1-3.44,3.452Zm.886-20.778a5.377,5.377,0,0,0-1.758,3.979V38.8a.879.879,0,1,0,1.758,0Z" transform="translate(2.005 3.561)"/>
      <path id="Trazado_129401" data-name="Trazado 129401" d="M40.221,42.26a3.452,3.452,0,0,1-3.44-3.44V21.135A1.078,1.078,0,0,0,35.7,20.057a1.283,1.283,0,1,1,0-2.567,7.97,7.97,0,0,1,7.957,7.957v13.36a3.452,3.452,0,0,1-3.44,3.452Zm-.886-20.778V38.807a.879.879,0,0,0,1.758,0V25.46a5.378,5.378,0,0,0-1.759-3.979Z" transform="translate(5.417 3.558)"/>
      <path id="Trazado_129402" data-name="Trazado 129402" d="M40.509,24.382H27.033A1.283,1.283,0,0,1,25.75,23.1V21.135a3.645,3.645,0,0,1,3.645-3.645H38.16a3.645,3.645,0,0,1,3.645,3.645V23.1a1.283,1.283,0,0,1-1.3,1.283ZM28.3,21.815H39.226v-.68a1.078,1.078,0,0,0-1.078-1.078H29.382A1.078,1.078,0,0,0,28.3,21.135Z" transform="translate(2.96 3.558)"/>
    </g>
  </g>
</svg>
