<svg xmlns="http://www.w3.org/2000/svg" width="77" height="96" viewBox="0 0 77 96">
  <g id="Grupo_68016" data-name="Grupo 68016" transform="translate(-348 -1303)">
    <g id="Grupo_68005" data-name="Grupo 68005" transform="translate(129 -1229)">
      <g id="Rectángulo_7658" data-name="Rectángulo 7658" transform="translate(219 2551)" fill="#529ad9" stroke="#fff" stroke-width="2">
        <rect width="77" height="77" rx="38.5" stroke="none"/>
        <rect x="1" y="1" width="75" height="75" rx="37.5" fill="none"/>
      </g>
      <g id="nuevo-producto" transform="translate(233.172 2565.172)">
        <path id="Trazado_126833" data-name="Trazado 126833" d="M250.354,300.709h11.772v14.126H248V296Zm0,0" transform="translate(-223.672 -266.963)" fill="#d3a06c"/>
        <path id="Trazado_126834" data-name="Trazado 126834" d="M118.126,314.835H104V300.709h11.772L118.126,296Zm0,0" transform="translate(-93.798 -266.963)" fill="#d3a06c"/>
        <path id="Trazado_126835" data-name="Trazado 126835" d="M262.126,296l2.354,4.709H250.354L248,296Zm0,0" transform="translate(-223.672 -266.963)" fill="#dfb28b"/>
        <path id="Trazado_126836" data-name="Trazado 126836" d="M96.48,296l-2.354,4.709H80L82.354,296Zm0,0" transform="translate(-72.152 -266.963)" fill="#dfb28b"/>
        <path id="Trazado_126837" data-name="Trazado 126837" d="M339.924,152l1.57,3.139a18.171,18.171,0,0,0-4.12,3.782L336,160.633l.3-2.386a9.357,9.357,0,0,1,1.177-3.492A9.218,9.218,0,0,1,339.924,152Zm0,0" transform="translate(-303.039 -137.089)" fill="#fcd770"/>
        <path id="Trazado_126838" data-name="Trazado 126838" d="M109.2,158.247l.3,2.386-1.373-1.711a18.171,18.171,0,0,0-4.12-3.782L105.57,152a9.218,9.218,0,0,1,2.449,2.754A9.356,9.356,0,0,1,109.2,158.247Zm0,0" transform="translate(-93.798 -137.089)" fill="#fcd770"/>
        <g id="Grupo_67934" data-name="Grupo 67934" transform="translate(3.924 2.354)">
          <path id="Trazado_126839" data-name="Trazado 126839" d="M412.709,113.8l-.785,1.342-.118,1.57-1.452-.369-1.452.369-.118-1.57L408,113.8l1.381-.6.973-1.2.973,1.2Zm0,0" transform="translate(-371.9 -103.367)" fill="#ff826e"/>
          <path id="Trazado_126840" data-name="Trazado 126840" d="M209.417,27.594l-1.57,2.684-.228,3.139-2.911-.738-2.911.738-.228-3.139L200,27.594l2.77-1.193,1.939-2.4,1.939,2.4Zm0,0" transform="translate(-184.304 -24)" fill="#ff826e"/>
          <path id="Trazado_126841" data-name="Trazado 126841" d="M44.709,113.8l-.785,1.342-.118,1.57-1.452-.369-1.452.369-.118-1.57L40,113.8l1.381-.6.973-1.2.973,1.2Zm0,0" transform="translate(-40 -103.367)" fill="#ff826e"/>
        </g>
        <path id="Trazado_126842" data-name="Trazado 126842" d="M99.416,288H70.194l-3.139,6.278h2.839V308.4H99.716V294.278h2.839Zm-.97,1.57,1.57,3.139H87.644l-1.57-3.139Zm-27.282,0H83.535l-1.57,3.139H69.594Zm26.982,17.265H85.59v-5.493H84.02v5.493H71.464V294.278H82.936l1.084-2.169v6.878h1.57v-6.878l1.084,2.169H98.146Zm0,0" transform="translate(-60.477 -259.748)"/>
        <path id="Trazado_126843" data-name="Trazado 126843" d="M128,416h4.709v1.57H128Zm0,0" transform="translate(-115.444 -375.192)"/>
        <path id="Trazado_126844" data-name="Trazado 126844" d="M128,448h4.709v1.57H128Zm0,0" transform="translate(-115.444 -404.052)"/>
        <path id="Trazado_126845" data-name="Trazado 126845" d="M192,448h1.57v1.57H192Zm0,0" transform="translate(-173.165 -404.052)"/>
        <path id="Trazado_126846" data-name="Trazado 126846" d="M190.737,22.938l3.624-.924,3.624.923.284-3.892,1.925-3.289-3.405-1.474-2.428-3-2.429,3-3.405,1.474,1.925,3.289Zm2.173-7.368,1.451-1.793,1.451,1.794,2.133.924-1.214,2.074-.174,2.387-2.2-.559-2.2.559-.174-2.387-1.214-2.074Zm0,0" transform="translate(-170.033 -10.175)"/>
        <path id="Trazado_126847" data-name="Trazado 126847" d="M34.353,103.908l1.14-1.947-2.02-.875-1.459-1.8-1.459,1.8-2.02.875,1.14,1.947.169,2.322,2.17-.552,2.171.553Zm-1.538-.479-.06.817-.741-.188-.74.188-.061-.817-.429-.734.748-.324.482-.594.481.6.748.324Zm0,0" transform="translate(-25.736 -89.542)"/>
        <path id="Trazado_126848" data-name="Trazado 126848" d="M402.353,103.908l1.14-1.947-2.02-.875-1.459-1.8-1.459,1.8-2.02.875,1.14,1.947.169,2.322,2.17-.552,2.171.553Zm-1.538-.479-.06.817-.741-.188-.74.188-.06-.817-.429-.734.748-.324.481-.594.481.6.748.324Zm0,0" transform="translate(-357.636 -89.542)"/>
        <path id="Trazado_126849" data-name="Trazado 126849" d="M94.256,144.832a17.4,17.4,0,0,1,3.944,3.616l3.108,3.884-.643-5.142a10.08,10.08,0,0,0-3.934-6.779l-.752-.564-2.3,4.6Zm2.262-2.551a8.518,8.518,0,0,1,2.536,4.736,19,19,0,0,0-3.356-3.1Zm0,0" transform="translate(-84.49 -126.129)"/>
        <path id="Trazado_126850" data-name="Trazado 126850" d="M325.194,147.183l-.643,5.142,3.108-3.885a17.419,17.419,0,0,1,3.944-3.616l.576-.385-2.3-4.6-.752.565A10.077,10.077,0,0,0,325.194,147.183Zm4.967-3.269a18.948,18.948,0,0,0-3.356,3.1,8.522,8.522,0,0,1,2.536-4.736Zm0,0" transform="translate(-292.713 -126.122)"/>
        <path id="Trazado_126851" data-name="Trazado 126851" d="M280,137.507h1.57v-3.288a16.171,16.171,0,0,1,3.743-10.335l-1.206-1A17.749,17.749,0,0,0,280,134.219Zm0,0" transform="translate(-252.533 -110.825)"/>
        <path id="Trazado_126852" data-name="Trazado 126852" d="M336,96h1.57v1.57H336Zm0,0" transform="translate(-303.039 -86.583)"/>
        <path id="Trazado_126853" data-name="Trazado 126853" d="M360,64h1.57v1.57H360Zm0,0" transform="translate(-324.685 -57.722)"/>
        <path id="Trazado_126854" data-name="Trazado 126854" d="M165.6,137.507h1.57v-3.288a17.751,17.751,0,0,0-4.105-11.34l-1.206,1a16.174,16.174,0,0,1,3.742,10.335Zm0,0" transform="translate(-145.978 -110.825)"/>
        <path id="Trazado_126855" data-name="Trazado 126855" d="M144,96h1.57v1.57H144Zm0,0" transform="translate(-129.874 -86.583)"/>
        <path id="Trazado_126856" data-name="Trazado 126856" d="M120,64h1.57v1.57H120Zm0,0" transform="translate(-108.228 -57.722)"/>
        <path id="Trazado_126857" data-name="Trazado 126857" d="M240,136h1.57v1.57H240Zm0,0" transform="translate(-216.457 -122.659)"/>
        <path id="Trazado_126858" data-name="Trazado 126858" d="M240,168h1.57v10.2H240Zm0,0" transform="translate(-216.457 -151.52)"/>
        <path id="Trazado_126859" data-name="Trazado 126859" d="M464,216h1.57v1.57H464Zm0,0" transform="translate(-418.483 -194.811)"/>
        <path id="Trazado_126860" data-name="Trazado 126860" d="M464,248h1.57v1.57H464Zm0,0" transform="translate(-418.483 -223.672)"/>
        <path id="Trazado_126861" data-name="Trazado 126861" d="M480,232h1.57v1.57H480Zm0,0" transform="translate(-432.913 -209.241)"/>
        <path id="Trazado_126862" data-name="Trazado 126862" d="M448,232h1.57v1.57H448Zm0,0" transform="translate(-404.052 -209.241)"/>
        <path id="Trazado_126863" data-name="Trazado 126863" d="M440,0h1.57V1.57H440Zm0,0" transform="translate(-396.837)"/>
        <path id="Trazado_126864" data-name="Trazado 126864" d="M440,32h1.57v1.57H440Zm0,0" transform="translate(-396.837 -28.861)"/>
        <path id="Trazado_126865" data-name="Trazado 126865" d="M456,16h1.57v1.57H456Zm0,0" transform="translate(-411.268 -14.43)"/>
        <path id="Trazado_126866" data-name="Trazado 126866" d="M424,16h1.57v1.57H424Zm0,0" transform="translate(-382.407 -14.43)"/>
        <path id="Trazado_126867" data-name="Trazado 126867" d="M16,248h1.57v1.57H16Zm0,0" transform="translate(-14.43 -223.672)"/>
        <path id="Trazado_126868" data-name="Trazado 126868" d="M16,280h1.57v1.57H16Zm0,0" transform="translate(-14.43 -252.533)"/>
        <path id="Trazado_126869" data-name="Trazado 126869" d="M32,264h1.57v1.57H32Zm0,0" transform="translate(-28.861 -238.102)"/>
        <path id="Trazado_126870" data-name="Trazado 126870" d="M0,264H1.57v1.57H0Zm0,0" transform="translate(0 -238.102)"/>
        <path id="Trazado_126871" data-name="Trazado 126871" d="M16,0h1.57V1.57H16Zm0,0" transform="translate(-14.43)"/>
        <path id="Trazado_126872" data-name="Trazado 126872" d="M16,32h1.57v1.57H16Zm0,0" transform="translate(-14.43 -28.861)"/>
        <path id="Trazado_126873" data-name="Trazado 126873" d="M32,16h1.57v1.57H32Zm0,0" transform="translate(-28.861 -14.43)"/>
        <path id="Trazado_126874" data-name="Trazado 126874" d="M0,16H1.57v1.57H0Zm0,0" transform="translate(0 -14.43)"/>
      </g>
    </g>
    <g id="Grupo_68014" data-name="Grupo 68014">
      <g id="Elipse_4859" data-name="Elipse 4859" transform="translate(348 1303)" fill="#fff" stroke="#494b0f" stroke-width="2">
        <circle cx="19" cy="19" r="19" stroke="none"/>
        <circle cx="19" cy="19" r="18" fill="none"/>
      </g>
      <path id="Trazado_126963" data-name="Trazado 126963" d="M2.373,0h-3.3V-10.508l-3.242.947v-2.5l6.24-2.158h.3Z" transform="translate(367 1328)" fill="#12263f"/>
    </g>
  </g>
</svg>
