<svg xmlns="http://www.w3.org/2000/svg" width="90" height="84" viewBox="0 0 90 84">
  <g id="Grupo_68019" data-name="Grupo 68019" transform="translate(-681 -1408)">
    <g id="Grupo_68009" data-name="Grupo 68009" transform="translate(34 -383)">
      <g id="Rectángulo_7687" data-name="Rectángulo 7687" transform="translate(660 1798)" fill="#529ad9" stroke="#fff" stroke-width="2">
        <rect width="77" height="77" rx="38.5" stroke="none"/>
        <rect x="1" y="1" width="75" height="75" rx="37.5" fill="none"/>
      </g>
      <g id="mapa" transform="translate(674.171 1812.172)">
        <path id="Trazado_126883" data-name="Trazado 126883" d="M54.713,342.78H7.478L14.492,325.8H47.7Z" transform="translate(-6.767 -294.84)" fill="#ffd89e"/>
        <path id="Trazado_126884" data-name="Trazado 126884" d="M406.355,325.8H403.8l7.014,16.979h2.558Z" transform="translate(-365.423 -294.84)" fill="#f5737f"/>
        <path id="Trazado_126885" data-name="Trazado 126885" d="M81.121,335.279,79.562,331.5H61.1l-6.522-5.7h-4.2l-2.356,5.7H41.642l-1.559,3.775H46.46l-3.1,7.5h4.2l5.224-12.647L67.653,342.78h6.338l-8.577-7.5Z" transform="translate(-36.273 -294.84)" fill="#ffdb56"/>
        <path id="Trazado_126886" data-name="Trazado 126886" d="M430.148,389.592h2.558l-1.559-3.775h-2.558Z" transform="translate(-387.859 -349.152)" fill="#ffbb24"/>
        <g id="Grupo_67956" data-name="Grupo 67956" transform="translate(5.369 30.961)">
          <path id="Trazado_126887" data-name="Trazado 126887" d="M62.868,331.5H56.491l2.356-5.7h6.377Z" transform="translate(-56.491 -325.801)" fill="#e5dec1"/>
          <path id="Trazado_126888" data-name="Trazado 126888" d="M217.576,331.5H199.112l-6.522-5.7h22.63Z" transform="translate(-179.656 -325.801)" fill="#e5dec1"/>
        </g>
        <path id="Trazado_126889" data-name="Trazado 126889" d="M408.711,331.5l-2.356-5.7H403.8l2.356,5.7Z" transform="translate(-365.423 -294.84)" fill="#44c868"/>
        <path id="Trazado_126890" data-name="Trazado 126890" d="M124.01,371.389l-5.224,12.647h20.091Z" transform="translate(-107.497 -336.095)" fill="#f0f0f0"/>
        <path id="Trazado_126891" data-name="Trazado 126891" d="M116.6,7.534a14.694,14.694,0,0,0-14.639,14.749c0,12.4,14.639,23.817,14.639,23.817s14.639-11.413,14.639-23.817A14.694,14.694,0,0,0,116.6,7.534Zm0,20.631a5.883,5.883,0,1,1,5.839-5.882A5.861,5.861,0,0,1,116.6,28.165Z" transform="translate(-92.271 -6.818)" fill="#f5c84c"/>
        <path id="Trazado_126892" data-name="Trazado 126892" d="M243.819,7.534c-.431,0-.857.02-1.279.057A14.706,14.706,0,0,1,255.9,22.283c0,10.147-9.795,19.629-13.359,22.745.793.693,1.279,1.072,1.279,1.072s14.639-11.413,14.639-23.817A14.694,14.694,0,0,0,243.819,7.534Z" transform="translate(-219.491 -6.818)" fill="#e7343f"/>
        <path id="Trazado_126893" data-name="Trazado 126893" d="M193.633,106.494a6.6,6.6,0,0,0,0-13.2,6.479,6.479,0,0,0-3.709,1.159.719.719,0,0,0-.183,1,.707.707,0,0,0,.988.184,5.071,5.071,0,0,1,2.9-.907,5.152,5.152,0,1,1-4.552,2.785.719.719,0,0,0-.3-.966.708.708,0,0,0-.958.3,6.657,6.657,0,0,0-.736,3.042A6.582,6.582,0,0,0,193.633,106.494Z" transform="translate(-169.305 -84.431)"/>
        <path id="Trazado_126894" data-name="Trazado 126894" d="M48.6,47.665,41.588,30.686h0a.71.71,0,0,0-.656-.441H33.943a36.241,36.241,0,0,0,3.375-5.511,21.245,21.245,0,0,0,2.36-9.27,15.35,15.35,0,1,0-30.7,0,21.245,21.245,0,0,0,2.36,9.27,36.221,36.221,0,0,0,3.375,5.511H7.725a.71.71,0,0,0-.656.441L2.289,42.256a.718.718,0,0,0,.383.936.707.707,0,0,0,.929-.386l.682-1.651H9.121L6.614,47.224H1.777L2.5,45.465a.718.718,0,0,0-.383-.936.708.708,0,0,0-.929.386L.055,47.665a.72.72,0,0,0,.065.672.709.709,0,0,0,.591.319H47.946a.709.709,0,0,0,.591-.319A.721.721,0,0,0,48.6,47.665Zm-38.2-32.2a13.928,13.928,0,1,1,27.856,0c0,3.245-1.119,8.43-6.3,15.037l-.015.019q-.4.506-.825,1.022a54.674,54.674,0,0,1-6.793,6.819,54.589,54.589,0,0,1-6.774-6.8q-.44-.529-.845-1.046L16.7,30.5C11.52,23.9,10.4,18.711,10.4,15.465ZM8.2,31.677h4.838l-1.765,4.271H6.434Zm4.156,15.547L16.8,36.472,29.437,47.224Zm19.286,0L16.972,34.747a.708.708,0,0,0-1.114.272L10.815,47.224H8.154l2.689-6.51a.72.72,0,0,0-.065-.672.709.709,0,0,0-.591-.319H4.875l.968-2.343h5.9a.71.71,0,0,0,.656-.441l2.174-5.263h1.233q.321.4.655.807a53.616,53.616,0,0,0,7.429,7.364.707.707,0,0,0,.87,0c.084-.065,1.212-.951,2.82-2.467h8.047a.716.716,0,0,0,0-1.432H29.048c.985-1,2.062-2.162,3.145-3.465q.335-.4.655-.807h7.61l1.764,4.271h-3.75a.716.716,0,0,0,0,1.432h4.341l.968,2.343H29.14a.711.711,0,0,0-.666.465.72.72,0,0,0,.2.791l7.14,6.244Zm6.343,0-6.94-6.069h13.33l2.507,6.069Z" transform="translate(0)"/>
      </g>
    </g>
    <g id="Elipse_4862" data-name="Elipse 4862" transform="translate(681 1408)" fill="#fff" stroke="#494b0f" stroke-width="2">
      <circle cx="19" cy="19" r="19" stroke="none"/>
      <circle cx="19" cy="19" r="18" fill="none"/>
    </g>
    <path id="Trazado_126966" data-name="Trazado 126966" d="M3.77-5.557H5.215v2.539H3.77V0H.479V-3.018h-5.5l-.2-2.012,5.693-9.16v-.029H3.77Zm-5.85,0H.479V-9.932L.273-9.6Z" transform="translate(700 1433)" fill="#12263f"/>
  </g>
</svg>
