<svg xmlns="http://www.w3.org/2000/svg" width="159" height="147" viewBox="0 0 159 147">
  <g id="Grupo_67710" data-name="Grupo 67710" transform="translate(-721 -5597)">
    <rect id="Rectángulo_7607" data-name="Rectángulo 7607" width="159" height="147" rx="14" transform="translate(721 5597)" fill="#fff"/>
    <g id="Layer_1" transform="translate(738.969 5606.222)">
      <g id="Grupo_67632" data-name="Grupo 67632" transform="translate(5.568 33.911)">
        <g id="Grupo_67620" data-name="Grupo 67620" transform="translate(0 0)">
          <path id="Trazado_125172" data-name="Trazado 125172" d="M46.579,81.192l-.69.69L19.848,107.924l-.691.691a1.428,1.428,0,0,1-2.019,0L6.878,98.355,36.32,68.914l10.26,10.26a1.428,1.428,0,0,1,0,2.019Z" transform="translate(-6.878 -68.914)" fill="#f3f095"/>
        </g>
        <g id="Grupo_67621" data-name="Grupo 67621" transform="translate(12.97 12.968)">
          <path id="Trazado_125173" data-name="Trazado 125173" d="M65.095,102.433l-.523.523L40.924,126.6l-.525.529a.954.954,0,0,1-1.347,0l-2.576-2.58L34.12,122.2,60.162,96.153l2.357,2.357,2.576,2.58a.948.948,0,0,1,0,1.343Z" transform="translate(-34.12 -96.153)" fill="#efefef"/>
        </g>
        <g id="Grupo_67622" data-name="Grupo 67622" transform="translate(12.962 12.968)">
          <path id="Trazado_125174" data-name="Trazado 125174" d="M0,0H36.829V3.333H0Z" transform="translate(0 26.038) rotate(-45)" fill="#afafaf"/>
        </g>
        <g id="Grupo_67623" data-name="Grupo 67623" transform="translate(19.774 15.009)">
          <path id="Trazado_125175" data-name="Trazado 125175" d="M113.226,140.3l-3.038,3.033c1.514,1.519,2.467,2.466,4.023,4.023a4.179,4.179,0,0,1-5.908,5.913,4.181,4.181,0,1,1-5.913,5.913v0a4.178,4.178,0,0,1-5.908,5.908h0a4.179,4.179,0,1,1-5.908,5.913l-2.085-2.081-1.942-1.942-4.094,4.094a4.181,4.181,0,1,1-5.913-5.913,4.181,4.181,0,0,1-5.913-5.913,4.179,4.179,0,0,1-5.908-5.913,4.181,4.181,0,0,1-5.913-5.913c.452-.457,3.237-3.237,4.094-4.094L50.768,131.205l-2.356-2.356L72.059,105.2l2.357,2.357,3.876,3.87,2.357,2.357c5.461-4.909,10.8-4.732,16.466-4.68l6.313-6.308,2.357-2.357,23.647,23.647-2.357,2.357Z" transform="translate(-48.412 -100.44)" fill="#feb69f"/>
        </g>
        <g id="Grupo_67624" data-name="Grupo 67624" transform="translate(74.776 15.015)">
          <path id="Trazado_125176" data-name="Trazado 125176" d="M0,0H3.333V33.443H0Z" transform="translate(0 2.357) rotate(-45)" fill="#ea8f7c"/>
        </g>
        <g id="Grupo_67625" data-name="Grupo 67625" transform="translate(19.765 19.769)">
          <path id="Trazado_125177" data-name="Trazado 125177" d="M0,0H33.443V3.332H0Z" transform="translate(0 23.644) rotate(-45)" fill="#ea8f7c"/>
        </g>
        <g id="Grupo_67626" data-name="Grupo 67626" transform="translate(62.92 36.206)">
          <path id="Trazado_125178" data-name="Trazado 125178" d="M160.7,163.626l-3.037,3.031-16.2-16.2-2.433-2.433a6.874,6.874,0,0,0,3-3.062Z" transform="translate(-139.037 -144.963)" fill="#ea8f7e"/>
        </g>
        <g id="Grupo_67627" data-name="Grupo 67627" transform="translate(40.005 25.997)">
          <path id="Trazado_125179" data-name="Trazado 125179" d="M116.255,139.224a9.673,9.673,0,0,1-10.365.176l-2.161,2.157a7.512,7.512,0,0,1-10.622-10.626l7.448-7.412,2.357,2.357-7.449,7.412a4.179,4.179,0,1,0,5.913,5.908l4.375-4.366a6.423,6.423,0,0,0,8.07,1.961Z" transform="translate(-90.907 -123.519)" fill="#e98f7e"/>
        </g>
        <g id="Grupo_67628" data-name="Grupo 67628" transform="translate(32.31 53.715)">
          <path id="Trazado_125180" data-name="Trazado 125180" d="M102.5,211.308l-.216.212-1.944-1.944.212-.212a4.182,4.182,0,1,0-5.914-5.914,4.179,4.179,0,1,0-5.91-5.91,4.18,4.18,0,1,0-5.914-5.91,4.182,4.182,0,0,0-5.914-5.914l-.208.208-1.944-1.944.208-.208a6.941,6.941,0,0,1,11.769,3.951,6.935,6.935,0,0,1,5.914,5.914,6.914,6.914,0,0,1,5.9,5.906,6.941,6.941,0,0,1,3.959,11.765Z" transform="translate(-74.744 -181.74)" fill="#ea8f7e"/>
        </g>
        <g id="Grupo_67629" data-name="Grupo 67629" transform="translate(76.345 8.207)">
          <path id="Trazado_125181" data-name="Trazado 125181" d="M198.488,112.2l-2.357,2.357-2.576,2.576a.954.954,0,0,1-1.347,0l-.525-.525L168.036,92.955l-.523-.523a.954.954,0,0,1,0-1.347l2.576-2.576,2.357-2.357Z" transform="translate(-167.235 -86.153)" fill="#efefef"/>
        </g>
        <g id="Grupo_67630" data-name="Grupo 67630" transform="translate(79.185 8.213)">
          <path id="Trazado_125182" data-name="Trazado 125182" d="M0,0H3.333V36.829H0Z" transform="translate(0 2.356) rotate(-45)" fill="#afafaf"/>
        </g>
        <g id="Grupo_67631" data-name="Grupo 67631" transform="translate(80.445 0.473)">
          <path id="Trazado_125183" data-name="Trazado 125183" d="M205.708,104.375l5.025-5.025L181.29,69.908l-5.025,5.025a1.428,1.428,0,0,0,0,2.02l.691.691L203,103.686l.69.69A1.429,1.429,0,0,0,205.708,104.375Z" transform="translate(-175.847 -69.908)" fill="#a0a603"/>
        </g>
      </g>
      <g id="Grupo_67635" data-name="Grupo 67635" transform="translate(42.497 3.302)">
        <g id="Grupo_67633" data-name="Grupo 67633">
          <path id="Trazado_125184" data-name="Trazado 125184" d="M126.391,25.593a20.973,20.973,0,1,0-24.581,20.658,1.447,1.447,0,0,1,1.065.789l1.256,2.6a1.428,1.428,0,0,0,2.572,0l1.256-2.6a1.45,1.45,0,0,1,1.066-.79,20.973,20.973,0,0,0,17.364-20.657Z" transform="translate(-84.446 -4.621)" fill="#529ad9"/>
        </g>
        <g id="Grupo_67634" data-name="Grupo 67634" transform="translate(8.68 14.445)">
          <path id="Trazado_125185" data-name="Trazado 125185" d="M125.835,50.717H104.106a1.428,1.428,0,0,1-1.428-1.428v-12.9a1.428,1.428,0,0,1,1.428-1.428h21.729a1.428,1.428,0,0,1,1.428,1.428v12.9A1.428,1.428,0,0,1,125.835,50.717Z" transform="translate(-102.678 -34.961)" fill="#efefef"/>
        </g>
      </g>
      <g id="Grupo_67636" data-name="Grupo 67636" transform="translate(52.202 58.705)">
        <path id="Trazado_125186" data-name="Trazado 125186" d="M105.134,135.51a1.191,1.191,0,0,1,.09-1.681l7.366-6.616c4.4-3.953,8.626-3.917,14.092-3.783.473.011.956.023,1.451.032l2.123-2.122a1.19,1.19,0,1,1,1.683,1.683l-2.48,2.479a1.136,1.136,0,0,1-.858.348c-.679-.01-1.337-.025-1.977-.041-5.09-.124-8.685-.2-12.444,3.175l-7.365,6.615a1.191,1.191,0,0,1-1.681-.09Z" transform="translate(-104.829 -120.992)" fill="#fae0e1"/>
      </g>
      <g id="Grupo_67637" data-name="Grupo 67637" transform="translate(32.904 84.902)">
        <path id="Trazado_125187" data-name="Trazado 125187" d="M66.326,178.037a1.178,1.178,0,0,0,0-1.681,1.21,1.21,0,0,0-1.68,0,1.188,1.188,0,0,0,1.68,1.681Z" transform="translate(-64.296 -176.018)"/>
      </g>
      <g id="Grupo_67638" data-name="Grupo 67638" transform="translate(4.377 32.721)">
        <path id="Trazado_125188" data-name="Trazado 125188" d="M121.74,96.677a1.226,1.226,0,0,0-1.685,0l-5.023,5.028a.247.247,0,0,1-.338,0L87.271,74.281a.246.246,0,0,1,0-.338L92.3,68.921a1.2,1.2,0,0,0,0-1.685,1.224,1.224,0,0,0-1.681,0,0,0,0,0,1,0,0L85.59,72.258a2.6,2.6,0,0,0-.136,3.539l-4.106,4.1a2.137,2.137,0,0,0-.282,2.678l-7.509,7.505C68.366,90.032,63,90,57.643,94.338l-7.007-7a2.133,2.133,0,0,0-.282-2.668l-4.109-4.112a2.613,2.613,0,0,0-.136-3.535l-10.26-10.26a1.19,1.19,0,0,0-1.683,1.683L44.427,78.7a.238.238,0,0,1,0,.336L17,106.463a.239.239,0,0,1-.336,0L6.409,96.2a1.19,1.19,0,0,0-1.683,1.683l10.26,10.26a2.6,2.6,0,0,0,3.535.136l4.106,4.11a2.135,2.135,0,0,0,2.68.28l4.58,4.576a1.188,1.188,0,1,0,1.681-1.681l-4.54-4.544L39.862,98.186a1.183,1.183,0,0,0,0-1.685,1.22,1.22,0,0,0-1.681,0l-14.035,14.04-3.925-3.925,24.359-24.36L48.5,86.179l-3.59,3.59A1.192,1.192,0,0,0,46.6,91.454v-.01l2.391-2.388,6.9,6.9-6.605,6.568a5.371,5.371,0,1,0,7.594,7.6l3.48-3.475a7.645,7.645,0,0,0,7.856,1.638L90.3,130.37a2.991,2.991,0,1,1-4.275,4.185l-7.989-7.985a1.21,1.21,0,0,0-1.681,0,1.189,1.189,0,0,0,0,1.681c.176.176,7.87,7.872,8.053,8.05a2.989,2.989,0,0,1-4.244,4.21c-.005-.005-.012-.008-.018-.013l-8.018-8.019a1.22,1.22,0,0,0-1.681,0,1.2,1.2,0,0,0,0,1.685c.213.213,7.822,7.815,8.036,8.036a2.986,2.986,0,0,1-4.223,4.223c-1.048-1.025,3.138,3.154-8.041-8.032a1.226,1.226,0,0,0-1.685,0,1.2,1.2,0,0,0,0,1.685l8.036,8.032a2.988,2.988,0,0,1-4.223,4.228L65.1,149.1a5.365,5.365,0,0,0-4.948-8.447,5.365,5.365,0,0,0-5.908-5.909,5.371,5.371,0,0,0-5.914-5.913,5.369,5.369,0,0,0-8.447-4.952L38.3,122.3a1.22,1.22,0,0,0-1.681,0,1.192,1.192,0,0,0,0,1.681l1.519,1.523c-.237.237-3.063,3.06-3.256,3.256a5.372,5.372,0,0,0,4.375,9.136,5.37,5.37,0,0,0,5.908,5.913,5.371,5.371,0,0,0,5.913,5.913,5.37,5.37,0,0,0,9.136,4.371l3.256-3.252,3.185,3.18a5.37,5.37,0,0,0,9.136-4.371,5.371,5.371,0,0,0,5.913-5.913,5.371,5.371,0,0,0,5.913-5.913,5.372,5.372,0,0,0,4.366-9.141c-.4-.394-2.824-2.819-3.185-3.18l17.6-17.594a2.122,2.122,0,0,0,2.673-.283l4.108-4.1a2.6,2.6,0,0,0,3.533-.137l5.028-5.023a1.2,1.2,0,0,0,0-1.685ZM36.572,134.669a2.986,2.986,0,0,1,0-4.228c.841-.856,3.791-3.784,4.3-4.3A2.993,2.993,0,0,1,45.1,130.37c-.167.167-4.133,4.136-4.3,4.3A2.987,2.987,0,0,1,36.572,134.669Zm5.913,5.913a2.987,2.987,0,0,1,0-4.228l4.28-4.279a2.989,2.989,0,1,1,4.252,4.2l-4.283,4.283c-.008.008-.018.012-.025.02a2.98,2.98,0,0,1-4.223,0Zm5.908,5.913a2.982,2.982,0,0,1,0-4.223c.2-.2,4.132-4.132,4.329-4.331a2.988,2.988,0,0,1,4.2,4.251l-4.278,4.283a2.991,2.991,0,0,1-4.253.021Zm10.141,5.913a2.991,2.991,0,1,1-4.207-4.254l4.282-4.282a2.991,2.991,0,1,1,4.228,4.232Zm28.584-28.589L70.365,107.066a8.853,8.853,0,0,0,2.88-4.452,1.19,1.19,0,0,0-.8-1.481,1.207,1.207,0,0,0-1.48.8s0,0,0,0c-1.542,5.209-7.119,5.644-9.584,2.276a1.193,1.193,0,0,0-1.8-.143L55.2,108.432c-.005.005-.009.012-.014.017a2.989,2.989,0,0,1-4.218-4.235l7.424-7.387c4.976-4.462,9.727-4.416,15.224-4.362a1.5,1.5,0,0,0,1.269-.344L82.713,84.3l21.964,21.964Zm20.439-18.044L83.2,81.418,87.123,77.5l24.359,24.359Z" transform="translate(-4.377 -66.413)"/>
      </g>
      <g id="Grupo_67639" data-name="Grupo 67639" transform="translate(41.2 59.106)">
        <path id="Trazado_125189" data-name="Trazado 125189" d="M83.749,123.856a1.19,1.19,0,0,0,0-1.685,1.219,1.219,0,0,0-1.68,0,1.19,1.19,0,0,0,1.68,1.685Z" transform="translate(-81.722 -121.835)"/>
      </g>
      <g id="Grupo_67640" data-name="Grupo 67640" transform="translate(49.987 11.554)">
        <path id="Trazado_125190" data-name="Trazado 125190" d="M116.835,21.954h-6.348a2.622,2.622,0,0,0-2.619,2.619v2.384H102.8a2.622,2.622,0,0,0-2.619,2.619v12.9a2.622,2.622,0,0,0,2.619,2.619h21.729a2.622,2.622,0,0,0,2.619-2.619v-12.9a2.622,2.622,0,0,0-2.619-2.619h-5.072V24.573a2.622,2.622,0,0,0-2.619-2.619Zm-6.586,2.619a.238.238,0,0,1,.238-.238h6.348a.238.238,0,0,1,.238.238v2.384h-6.824Zm14.276,18.14H102.8a.238.238,0,0,1-.238-.238V35.048l3.723.734v.5a1.19,1.19,0,0,0,2.38,0v-.032l4.769.941a1.189,1.189,0,0,0,.46,0l5.721-1.128v.22a1.19,1.19,0,0,0,2.38,0v-.689l2.771-.547v7.427a.238.238,0,0,1-.238.238Zm.238-13.138v3.047l-2.788.55a1.188,1.188,0,0,0-2.363.169v.3l-5.951,1.174-5-.986v-.485a1.19,1.19,0,1,0-2.38,0v.015l-3.723-.734V29.575a.238.238,0,0,1,.238-.238h21.729a.238.238,0,0,1,.238.238Z" transform="translate(-100.178 -21.954)"/>
      </g>
      <g id="Grupo_67641" data-name="Grupo 67641" transform="translate(41.308 2.103)">
        <path id="Trazado_125191" data-name="Trazado 125191" d="M94.042,4.544a1.191,1.191,0,1,0,1.09,2.119,19.413,19.413,0,0,1,8.2-2.157,19.782,19.782,0,0,1,4.18,39.254,2.656,2.656,0,0,0-1.937,1.443l-1.252,2.6a.236.236,0,0,1-.428,0l-1.257-2.6A2.642,2.642,0,0,0,100.7,43.76,19.752,19.752,0,0,1,88.31,12.4a1.186,1.186,0,0,0-.228-1.666,1.217,1.217,0,0,0-1.666.229A21.942,21.942,0,0,0,82,22.759a22.175,22.175,0,0,0,18.3,23.348.234.234,0,0,1,.195.133l1.257,2.6a2.619,2.619,0,0,0,4.718,0l1.257-2.6a.249.249,0,0,1,.2-.133,22.162,22.162,0,0,0-4.68-43.977,21.8,21.8,0,0,0-9.2,2.414Z" transform="translate(-81.948 -2.103)"/>
      </g>
      <g id="Grupo_67642" data-name="Grupo 67642" transform="translate(48.804 7.059)">
        <path id="Trazado_125192" data-name="Trazado 125192" d="M98.115,12.778a1.191,1.191,0,0,0,1.528,1.828l0,0a1.2,1.2,0,0,0,.143-1.681,1.227,1.227,0,0,0-1.676-.143Z" transform="translate(-97.693 -12.513)"/>
      </g>
    </g>
  </g>
</svg>
