<svg xmlns="http://www.w3.org/2000/svg" width="85" height="84" viewBox="0 0 85 84">
  <g id="Grupo_68020" data-name="Grupo 68020" transform="translate(-822 -1408)">
    <g id="Grupo_68010" data-name="Grupo 68010" transform="translate(-22 -94)">
      <g id="Rectángulo_7688" data-name="Rectángulo 7688" transform="translate(852 1509)" fill="#529ad9" stroke="#fff" stroke-width="2">
        <rect width="77" height="77" rx="38.5" stroke="none"/>
        <rect x="1" y="1" width="75" height="75" rx="37.5" fill="none"/>
      </g>
      <g id="trabajo-en-progreso" transform="translate(799.155 1517.383)">
        <g id="Grupo_67960" data-name="Grupo 67960" transform="translate(72.271 0.841)">
          <g id="Grupo_67958" data-name="Grupo 67958" transform="translate(0 16.458)">
            <g id="Grupo_67957" data-name="Grupo 67957">
              <path id="Trazado_126895" data-name="Trazado 126895" d="M110.661,188.9l5.129-5.1-2.112-3.8a16.388,16.388,0,0,0,1.252-2.952l4.266-1.224V168.6l-4.2-1.2a16.4,16.4,0,0,0-1.21-2.969l2.146-3.866-5.129-5.1-3.823,2.1a16.572,16.572,0,0,0-2.966-1.246l-1.23-4.245H95.533l-1.21,4.178a16.572,16.572,0,0,0-2.983,1.2l-3.885-2.136-5.129,5.1,2.112,3.8a16.4,16.4,0,0,0-1.252,2.952L78.918,168.4v7.218l4.2,1.2a16.4,16.4,0,0,0,1.21,2.969l-2.146,3.866,5.129,5.1,3.823-2.1A16.571,16.571,0,0,0,94.1,187.9l1.23,4.245h7.254l1.21-4.178a16.573,16.573,0,0,0,2.983-1.2Zm-3.782-9.011a11.112,11.112,0,0,1-15.643,0,10.982,10.982,0,0,1,0-15.567,11.112,11.112,0,0,1,15.643,0A10.982,10.982,0,0,1,106.879,179.893Z" transform="translate(-78.918 -152.069)" fill="#529ad9"/>
            </g>
          </g>
          <g id="Grupo_67959" data-name="Grupo 67959" transform="translate(15.239)">
            <path id="Trazado_126896" data-name="Trazado 126896" d="M212.871,21.144l4.9,7.356,4.9-7.356L217.771,7.4Z" transform="translate(-212.871 -7.397)" fill="#eef5f6"/>
            <path id="Trazado_126897" data-name="Trazado 126897" d="M250.266,7.4l-.024,19.813-.706.191.732,1.1,4.9-7.356Z" transform="translate(-245.366 -7.397)" fill="#eef5f6"/>
            <path id="Trazado_126898" data-name="Trazado 126898" d="M222.67,128.236l-1.5,1.456a1.366,1.366,0,0,1-1.906,0l-1.5-1.456h-.015l-1.5,1.457a1.366,1.366,0,0,1-1.9,0l-1.487-1.445v32.608a11.164,11.164,0,0,0,9.8,0V128.236Z" transform="translate(-212.871 -114.489)" fill="#ffe177"/>
            <path id="Trazado_126899" data-name="Trazado 126899" d="M237.709,13.22,239.781,7.4l2.075,5.821a2.729,2.729,0,0,1-4.148,0l0,0" transform="translate(-234.881 -7.396)" fill="#2abcc8"/>
            <path id="Trazado_126900" data-name="Trazado 126900" d="M255.741,161.989V128.246l1.522,1.46a1.366,1.366,0,0,0,1.9-.007l1.5-1.464v32.621A11.535,11.535,0,0,1,255.741,161.989Z" transform="translate(-250.864 -114.488)" fill="#fea713"/>
          </g>
        </g>
        <g id="Grupo_67961" data-name="Grupo 67961" transform="translate(92.387 0.841)">
          <path id="Trazado_126901" data-name="Trazado 126901" d="M255.764,7.4l-.024.066v6.712a2.717,2.717,0,0,0,2.1-.957L255.764,7.4Z" transform="translate(-255.74 -7.397)" fill="#0cacba"/>
        </g>
        <path id="Trazado_126902" data-name="Trazado 126902" d="M112.785,33.013l-3.756-1.078a17.344,17.344,0,0,0-.921-2.258l1.926-3.469a.853.853,0,0,0-.144-1.019l-5.129-5.1a.853.853,0,0,0-1.013-.143l-3.423,1.881a17.49,17.49,0,0,0-2.161-.915V14.6a.857.857,0,0,0-.055-.319L93.214.555a.859.859,0,0,0-1.607,0L86.706,14.3a.853.853,0,0,0-.05.3v6.3a17.494,17.494,0,0,0-1.948.809L81.218,19.8a.853.853,0,0,0-1.013.143l-5.129,5.1a.853.853,0,0,0-.144,1.019l1.888,3.4a17.315,17.315,0,0,0-.952,2.246l-3.832,1.1a.853.853,0,0,0-.618.82v7.218a.853.853,0,0,0,.618.82l3.756,1.078A17.336,17.336,0,0,0,76.713,45l-1.926,3.469a.853.853,0,0,0,.144,1.019l5.129,5.1a.853.853,0,0,0,1.013.143L84.5,52.858a17.473,17.473,0,0,0,2.262.95l1.1,3.811a.853.853,0,0,0,.82.616h7.254a.853.853,0,0,0,.82-.616l1.082-3.736a17.485,17.485,0,0,0,2.275-.919l3.491,1.919a.853.853,0,0,0,1.013-.143l5.129-5.1a.853.853,0,0,0,.144-1.019L108,45.216a17.317,17.317,0,0,0,.952-2.246l3.832-1.1a.853.853,0,0,0,.618-.82V33.833a.853.853,0,0,0-.618-.82ZM94.963,47.167a10.348,10.348,0,0,1-1.72.285c.021-7,.02-14.081,0-21.047a.853.853,0,0,0-1.706.005c.023,6.964.024,14.037,0,21.038a10.342,10.342,0,0,1-3.173-.788V21.537q0-.011,0-.021v-4.9l.039.038a2.207,2.207,0,0,0,3.095,0l.052-.05c.006,1.536,0,3.075-.015,4.66a.853.853,0,0,0,1.706.018c.016-1.593.021-3.14.015-4.684l.058.057a2.207,2.207,0,0,0,3.1,0l.049-.047V27.456c0,.01,0,.02,0,.031V46.657a10.27,10.27,0,0,1-1.495.51ZM82.869,40.949a10.132,10.132,0,0,1,3.787-12V45.729a10.174,10.174,0,0,1-3.787-4.78ZM90.742,8.061a3.6,3.6,0,0,0,3.336,0l2.245,6.3-1.1,1.075a.51.51,0,0,1-.715,0l-1.5-1.456a.933.933,0,0,0-1.223.017l-1.479,1.44a.51.51,0,0,1-.715,0l-1.1-1.066ZM92.41,3.382l1.084,3.039a1.905,1.905,0,0,1-2.167,0ZM111.7,40.408l-3.648,1.047a.853.853,0,0,0-.579.565,15.577,15.577,0,0,1-1.187,2.8.853.853,0,0,0,0,.822l1.8,3.24-4.219,4.2-3.325-1.828a.853.853,0,0,0-.806-.009,15.754,15.754,0,0,1-2.83,1.142.854.854,0,0,0-.578.581l-1.032,3.562H89.323L88.271,52.9a.854.854,0,0,0-.567-.578,15.744,15.744,0,0,1-2.813-1.182.854.854,0,0,0-.816,0l-3.263,1.794-4.219-4.2,1.833-3.3a.853.853,0,0,0,.009-.812,15.6,15.6,0,0,1-1.147-2.815.853.853,0,0,0-.582-.577L73.124,40.2V34.272l3.648-1.047a.853.853,0,0,0,.579-.565,15.581,15.581,0,0,1,1.187-2.8.853.853,0,0,0,0-.822l-1.8-3.241,4.219-4.2,3.325,1.828a.853.853,0,0,0,.806.009,15.714,15.714,0,0,1,1.57-.712v4.228a11.849,11.849,0,0,0,5.681,22.241,11.7,11.7,0,0,0,8.585-3.555.853.853,0,0,0-1.216-1.2,10.146,10.146,0,0,1-1.543,1.283V28.954a10.246,10.246,0,0,1,4.017,11.322.854.854,0,0,0,1.634.493,11.968,11.968,0,0,0-5.651-13.815V22.725a15.674,15.674,0,0,1,1.766.816.854.854,0,0,0,.816,0l3.263-1.794,4.219,4.2-1.833,3.3a.853.853,0,0,0-.009.812,15.6,15.6,0,0,1,1.147,2.815.853.853,0,0,0,.582.577l3.58,1.027v5.932Z" transform="translate(0 0)"/>
      </g>
    </g>
    <g id="Elipse_4863" data-name="Elipse 4863" transform="translate(822 1408)" fill="#fff" stroke="#494b0f" stroke-width="2">
      <circle cx="19" cy="19" r="19" stroke="none"/>
      <circle cx="19" cy="19" r="18" fill="none"/>
    </g>
    <path id="Trazado_126967" data-name="Trazado 126967" d="M-4.727-6.953l.869-7.266H4.453v2.559H-1.182L-1.5-8.838A3.892,3.892,0,0,1-.581-9.2,4.228,4.228,0,0,1,.537-9.355,4.171,4.171,0,0,1,3.794-8.1,5.055,5.055,0,0,1,4.932-4.58,5.046,5.046,0,0,1,4.321-2.1,4.2,4.2,0,0,1,2.607-.4,5.411,5.411,0,0,1,0,.2,5.818,5.818,0,0,1-2.51-.356,4.5,4.5,0,0,1-4.346-1.87,3.68,3.68,0,0,1-5-4.043h3.3A1.873,1.873,0,0,0-1.2-2.8,1.579,1.579,0,0,0-.02-2.344q1.66,0,1.66-2.461,0-2.275-2.031-2.275a2.025,2.025,0,0,0-1.719.742Z" transform="translate(841 1433)" fill="#12263f"/>
  </g>
</svg>
