<svg xmlns="http://www.w3.org/2000/svg" width="88" height="87" viewBox="0 0 88 87">
  <g id="Grupo_68018" data-name="Grupo 68018" transform="translate(-566 -1389)">
    <g id="Grupo_68008" data-name="Grupo 68008" transform="translate(-16 -263)">
      <g id="Rectángulo_7685" data-name="Rectángulo 7685" transform="translate(593 1662)" fill="#529ad9" stroke="#fff" stroke-width="2">
        <rect width="77" height="77" rx="38.5" stroke="none"/>
        <rect x="1" y="1" width="75" height="75" rx="37.5" fill="none"/>
      </g>
      <g id="lupa" transform="translate(607.914 1680.82)">
        <g id="Grupo_67950" data-name="Grupo 67950" transform="translate(8.103 -4.649)">
          <g id="Grupo_67936" data-name="Grupo 67936" transform="translate(2.348 32.103)">
            <g id="Grupo_67935" data-name="Grupo 67935">
              <path id="Trazado_126875" data-name="Trazado 126875" d="M113.287,336.231l-2.91,2.91,3.25,3.25,2.91-2.911" transform="translate(-110.377 -336.231)" fill="#ffcb7c"/>
            </g>
          </g>
          <g id="Grupo_67937" data-name="Grupo 67937" transform="translate(1.374 1.38)">
            <ellipse id="Elipse_4843" data-name="Elipse 4843" cx="18.925" cy="18.928" rx="18.925" ry="18.928" fill="#e5dec1"/>
          </g>
          <g id="Grupo_67949" data-name="Grupo 67949" transform="translate(0 0)">
            <g id="Grupo_67943" data-name="Grupo 67943">
              <g id="Grupo_67942" data-name="Grupo 67942">
                <g id="Grupo_67939" data-name="Grupo 67939">
                  <g id="Grupo_67938" data-name="Grupo 67938">
                    <ellipse id="Elipse_4844" data-name="Elipse 4844" cx="14.393" cy="14.379" rx="14.393" ry="14.379" transform="matrix(0.658, -0.753, 0.753, 0.658, 0, 21.676)" fill="#e5ecec"/>
                  </g>
                </g>
                <g id="Grupo_67941" data-name="Grupo 67941" transform="translate(33.741 19.708)">
                  <g id="Grupo_67940" data-name="Grupo 67940">
                    <path id="Trazado_126876" data-name="Trazado 126876" d="M444.651,206.493a.942.942,0,1,1,.926-.773A.951.951,0,0,1,444.651,206.493Z" transform="translate(-443.711 -204.612)"/>
                  </g>
                </g>
              </g>
            </g>
            <g id="Grupo_67948" data-name="Grupo 67948" transform="translate(13.347 9.662)">
              <g id="Grupo_67946" data-name="Grupo 67946" transform="translate(0.31)">
                <g id="Grupo_67944" data-name="Grupo 67944" transform="translate(0.943 0.937)">
                  <ellipse id="Elipse_4845" data-name="Elipse 4845" cx="5.703" cy="5.702" rx="5.703" ry="5.702" transform="translate(0 11.406) rotate(-89.885)" fill="#ffcbbe"/>
                </g>
                <g id="Grupo_67945" data-name="Grupo 67945">
                  <path id="Trazado_126877" data-name="Trazado 126877" d="M237.1,111.231a6.645,6.645,0,1,1,6.644-6.645A6.652,6.652,0,0,1,237.1,111.231Zm0-11.406a4.761,4.761,0,1,0,4.761,4.761A4.766,4.766,0,0,0,237.1,99.825Z" transform="translate(-230.451 -97.941)"/>
                </g>
              </g>
              <g id="Grupo_67947" data-name="Grupo 67947" transform="translate(0 15.395)">
                <path id="Trazado_126878" data-name="Trazado 126878" d="M241.067,263.312v5.942a14.413,14.413,0,0,1-13.908.014v-5.956a1.9,1.9,0,0,1,1.9-1.9h10.106A1.9,1.9,0,0,1,241.067,263.312Z" transform="translate(-227.159 -261.411)" fill="#f5737f"/>
              </g>
            </g>
          </g>
        </g>
        <g id="Grupo_67955" data-name="Grupo 67955" transform="translate(0.062 -4.211)">
          <g id="Grupo_67951" data-name="Grupo 67951" transform="translate(0.939 36.199)">
            <path id="Trazado_126879" data-name="Trazado 126879" d="M15.633,384.371l-4.461,4.461a3.876,3.876,0,0,0,5.481,5.482l4.461-4.461Z" transform="translate(-10.037 -384.371)" fill="#ffd89e"/>
          </g>
          <g id="Grupo_67954" data-name="Grupo 67954" transform="translate(0)">
            <g id="Grupo_67952" data-name="Grupo 67952" transform="translate(6.532 33.456)">
              <path id="Trazado_126880" data-name="Trazado 126880" d="M0,0H3.873V7.752H0Z" transform="translate(0 2.738) rotate(-45)" fill="#9bc6ff"/>
            </g>
            <g id="Grupo_67953" data-name="Grupo 67953">
              <path id="Trazado_126881" data-name="Trazado 126881" d="M167.541,67.411a.941.941,0,0,0-1.2.579,13.346,13.346,0,0,1-3.191,5.074,13.583,13.583,0,0,1-1.6,1.373V70.21a2.846,2.846,0,0,0-2.843-2.843H148.6a2.846,2.846,0,0,0-2.843,2.843v4.243a13.449,13.449,0,0,1-1.6-20.394,13.368,13.368,0,0,1,9.508-3.943h.007a13.437,13.437,0,0,1,12.7,9.044.942.942,0,0,0,1.781-.613,15.321,15.321,0,0,0-14.478-10.315h-.007A15.336,15.336,0,0,0,146.24,76.99h0a15.345,15.345,0,0,0,7.394,1.9h.015a15.363,15.363,0,0,0,7.408-1.913h0a15.4,15.4,0,0,0,7.06-8.366A.941.941,0,0,0,167.541,67.411Zm-19.9,8.186V70.21a.96.96,0,0,1,.959-.96H158.7a.961.961,0,0,1,.959.96v5.374A13.556,13.556,0,0,1,147.637,75.6Z" transform="translate(-125.308 -43.69)"/>
              <path id="Trazado_126882" data-name="Trazado 126882" d="M28.4,0A19.861,19.861,0,0,0,12.257,31.437l-1.806,1.807L10,32.794a.942.942,0,0,0-1.332,0L5.931,35.533h0l-4.46,4.46a4.818,4.818,0,1,0,6.813,6.813l4.461-4.461h0l2.739-2.739a.942.942,0,0,0,0-1.332l-.45-.45,1.807-1.807A19.866,19.866,0,1,0,28.4,0ZM6.951,45.476A2.934,2.934,0,0,1,2.8,41.326l3.795-3.8L8.669,39.6l2.077,2.077Zm5.127-5.127-2.072-2.073L7.929,36.2l1.407-1.407,4.149,4.15ZM13.7,36.494l-.959-.959-.96-.96,1.653-1.653a20.045,20.045,0,0,0,1.918,1.918Zm14.7,1.362A17.986,17.986,0,1,1,46.385,19.87,18.005,18.005,0,0,1,28.4,37.856Z" transform="translate(-0.062)"/>
            </g>
          </g>
        </g>
      </g>
    </g>
    <g id="Elipse_4861" data-name="Elipse 4861" transform="translate(566 1389)" fill="#fff" stroke="#494b0f" stroke-width="2">
      <circle cx="19" cy="19" r="19" stroke="none"/>
      <circle cx="19" cy="19" r="18" fill="none"/>
    </g>
    <path id="Trazado_126965" data-name="Trazado 126965" d="M-1.914-8.486H-.361a1.614,1.614,0,0,0,1.846-1.807,1.562,1.562,0,0,0-.439-1.147A1.666,1.666,0,0,0-.2-11.885a1.784,1.784,0,0,0-1.138.381,1.162,1.162,0,0,0-.483.947H-5.107a3.369,3.369,0,0,1,.625-2,4.127,4.127,0,0,1,1.733-1.372,5.926,5.926,0,0,1,2.437-.493,5.823,5.823,0,0,1,3.73,1.084,3.6,3.6,0,0,1,1.357,2.979,3,3,0,0,1-.562,1.733A4,4,0,0,1,2.578-7.3,3.823,3.823,0,0,1,4.355-6.06,3.279,3.279,0,0,1,5-3.994,3.669,3.669,0,0,1,3.535-.947,6.08,6.08,0,0,1-.312.2,6.306,6.306,0,0,1-2.905-.337,4.062,4.062,0,0,1-4.717-1.812a3.834,3.834,0,0,1-.615-2.144h3.311a1.482,1.482,0,0,0,.527,1.133,1.862,1.862,0,0,0,1.3.479,1.95,1.95,0,0,0,1.387-.483,1.616,1.616,0,0,0,.518-1.235,1.889,1.889,0,0,0-.537-1.523A2.245,2.245,0,0,0-.312-6.035h-1.6Z" transform="translate(585 1414)" fill="#12263f"/>
  </g>
</svg>
