<svg xmlns="http://www.w3.org/2000/svg" width="92" height="90" viewBox="0 0 92 90">
  <g id="Grupo_68022" data-name="Grupo 68022" transform="translate(-1047 -1356)">
    <g id="Grupo_68012" data-name="Grupo 68012" transform="translate(20 -94)">
      <g id="Rectángulo_7690" data-name="Rectángulo 7690" transform="translate(1042 1463)" fill="#529ad9" stroke="#fff" stroke-width="2">
        <rect width="77" height="77" rx="38.5" stroke="none"/>
        <rect x="1" y="1" width="75" height="75" rx="37.5" fill="none"/>
      </g>
      <g id="Transfer_money" data-name="Transfer money" transform="translate(1054.174 1476.367)">
        <path id="Trazado_126921" data-name="Trazado 126921" d="M1,11H51.458V39.519H1Z" transform="translate(0.097 0.873)" fill="#9dcc6b"/>
        <path id="Trazado_126922" data-name="Trazado 126922" d="M51.167,11V37.326H30.326A26.326,26.326,0,0,1,4,11Z" transform="translate(0.388 0.873)" fill="#b5e08c"/>
        <path id="Trazado_126923" data-name="Trazado 126923" d="M43.489,35.938H8.388a1.1,1.1,0,0,1-1.1-1.1A2.194,2.194,0,0,0,5.1,32.647,1.1,1.1,0,0,1,4,31.55V18.388a1.1,1.1,0,0,1,1.1-1.1A2.194,2.194,0,0,0,7.291,15.1a1.1,1.1,0,0,1,1.1-1.1h35.1a1.1,1.1,0,0,1,1.1,1.1,2.194,2.194,0,0,0,2.194,2.194,1.1,1.1,0,0,1,1.1,1.1V31.55a1.1,1.1,0,0,1-1.1,1.1,2.194,2.194,0,0,0-2.194,2.194A1.1,1.1,0,0,1,43.489,35.938ZM9.342,33.744H42.534A4.388,4.388,0,0,1,45.682,30.6V19.342a4.388,4.388,0,0,1-3.148-3.148H9.342a4.388,4.388,0,0,1-3.148,3.148V30.6A4.388,4.388,0,0,1,9.342,33.744Z" transform="translate(0.388 1.163)" fill="#84b749"/>
        <path id="Trazado_126924" data-name="Trazado 126924" d="M9.318,23.318a1.1,1.1,0,1,1,0,1.558,1.1,1.1,0,0,1,0-1.558Z" transform="translate(0.872 2.035)" fill="#84b749"/>
        <path id="Trazado_126925" data-name="Trazado 126925" d="M38.1,25.194a1.1,1.1,0,1,1,1.019-.676A1.1,1.1,0,0,1,38.1,25.194Z" transform="translate(3.586 2.035)" fill="#84b749"/>
        <path id="Trazado_126926" data-name="Trazado 126926" d="M32.062,44.709,34.585,42.2H13.1A1.1,1.1,0,0,1,13.1,40c26.03,0,24.746-.285,25.141.68s0,.932-4.618,5.583a1.1,1.1,0,0,1-1.558-1.558Z" transform="translate(1.163 3.679)" fill="#82bcf4"/>
        <path id="Trazado_126927" data-name="Trazado 126927" d="M37.231,8.582c-26.03,0-24.746.285-25.141-.68s0-.932,4.618-5.583a1.1,1.1,0,0,1,1.558,1.558L15.743,6.388H37.231a1.1,1.1,0,1,1,0,2.194Z" transform="translate(1.16 0)" fill="#82bcf4"/>
        <path id="Trazado_126928" data-name="Trazado 126928" d="M34.744,24.872a9.971,9.971,0,0,1-1.459,5.144C28.163,38.5,15,34.81,15,24.872a9.872,9.872,0,1,1,19.744,0Z" transform="translate(1.454 1.26)" fill="#84b749"/>
        <g id="Grupo_67986" data-name="Grupo 67986" transform="translate(21.938 18.454)">
          <path id="Trazado_126929" data-name="Trazado 126929" d="M23,20.291V18.1a1.1,1.1,0,1,1,2.194,0v2.194a1.1,1.1,0,1,1-2.194,0Z" transform="translate(-19.709 -17)" fill="#b5e08c"/>
          <path id="Trazado_126930" data-name="Trazado 126930" d="M23,30.291V28.1a1.1,1.1,0,1,1,2.194,0v2.194a1.1,1.1,0,0,1-2.194,0Z" transform="translate(-19.709 -16.031)" fill="#b5e08c"/>
          <path id="Trazado_126931" data-name="Trazado 126931" d="M25.485,29.969H21.1a1.1,1.1,0,1,1,0-2.194h4.388a1.1,1.1,0,0,0,0-2.194H23.291a3.291,3.291,0,1,1,0-6.581h4.388a1.1,1.1,0,1,1,0,2.194H23.291a1.1,1.1,0,1,0,0,2.194h2.194a3.291,3.291,0,1,1,0,6.581Z" transform="translate(-20 -16.806)" fill="#b5e08c"/>
        </g>
        <path id="Trazado_126932" data-name="Trazado 126932" d="M51.554,10H1.1A1.1,1.1,0,0,0,0,11.1V39.616a1.1,1.1,0,0,0,1.1,1.1H51.554a1.1,1.1,0,0,0,1.1-1.1V11.1A1.1,1.1,0,0,0,51.554,10Zm-1.1,28.519H2.194V12.194H50.458Z" transform="translate(0 0.776)"/>
        <path id="Trazado_126933" data-name="Trazado 126933" d="M5.1,32.647a2.194,2.194,0,0,1,2.194,2.194,1.1,1.1,0,0,0,1.1,1.1h35.1a1.1,1.1,0,0,0,1.1-1.1,2.194,2.194,0,0,1,2.194-2.194,1.1,1.1,0,0,0,1.1-1.1V18.388a1.1,1.1,0,0,0-1.1-1.1A2.194,2.194,0,0,1,44.585,15.1a1.1,1.1,0,0,0-1.1-1.1H8.388a1.1,1.1,0,0,0-1.1,1.1A2.194,2.194,0,0,1,5.1,17.291a1.1,1.1,0,0,0-1.1,1.1V31.55A1.1,1.1,0,0,0,5.1,32.647Zm12.066-7.678a8.775,8.775,0,1,1,8.775,8.775,8.775,8.775,0,0,1-8.775-8.775Zm25.371-8.775a4.388,4.388,0,0,0,3.148,3.148V30.6a4.388,4.388,0,0,0-3.148,3.148H32.519a10.969,10.969,0,0,0,0-17.55ZM6.194,19.342a4.388,4.388,0,0,0,3.148-3.148H19.357a10.969,10.969,0,0,0,0,17.55H9.342A4.388,4.388,0,0,0,6.194,30.6Z" transform="translate(0.388 1.163)"/>
        <path id="Trazado_126934" data-name="Trazado 126934" d="M23.291,21.388h4.388a1.1,1.1,0,1,0,0-2.194H25.485V18.1a1.1,1.1,0,1,0-2.194,0v1.1a3.291,3.291,0,0,0,0,6.581h2.194a1.1,1.1,0,0,1,0,2.194H21.1a1.1,1.1,0,1,0,0,2.194h2.194v1.1a1.1,1.1,0,0,0,2.194,0v-1.1a3.291,3.291,0,1,0,0-6.581H23.291a1.1,1.1,0,0,1,0-2.194Z" transform="translate(1.938 1.454)"/>
        <path id="Trazado_126935" data-name="Trazado 126935" d="M9.32,24.876a1.1,1.1,0,0,0,1.689-1.393C10.274,22.244,8.168,23.593,9.32,24.876Z" transform="translate(0.87 2.035)"/>
        <path id="Trazado_126936" data-name="Trazado 126936" d="M38.1,25.194A1.1,1.1,0,1,0,37,24.1,1.1,1.1,0,0,0,38.1,25.194Z" transform="translate(3.585 2.035)"/>
        <path id="Trazado_126937" data-name="Trazado 126937" d="M13.1,40a1.1,1.1,0,0,0,0,2.194H34.585l-2.523,2.512a1.1,1.1,0,0,0,1.558,1.558c4.629-4.64,5-4.684,4.618-5.583S39.1,40,13.1,40Z" transform="translate(1.163 3.681)"/>
        <path id="Trazado_126938" data-name="Trazado 126938" d="M13.1,8.582H37.229a1.1,1.1,0,1,0,0-2.194H15.741l2.523-2.512a1.1,1.1,0,1,0-1.558-1.558L12.319,6.706A1.1,1.1,0,0,0,13.1,8.582Z" transform="translate(1.162 0)"/>
      </g>
    </g>
    <g id="Elipse_4865" data-name="Elipse 4865" transform="translate(1047 1356)" fill="#fff" stroke="#494b0f" stroke-width="2">
      <circle cx="19" cy="19" r="19" stroke="none"/>
      <circle cx="19" cy="19" r="18" fill="none"/>
    </g>
    <path id="Trazado_126969" data-name="Trazado 126969" d="M4.961-12.461-.352,0H-3.828L1.494-11.68H-5.283v-2.539H4.961Z" transform="translate(1066 1381)" fill="#12263f"/>
  </g>
</svg>
